<svg width="24" height="24" viewBox="0 0 24 24" fill="none" xmlns="http://www.w3.org/2000/svg">
<mask id="mask0_606_26" style="mask-type:alpha" maskUnits="userSpaceOnUse" x="0" y="0" width="24" height="24">
<rect width="24" height="24" fill="#D9D9D9"/>
</mask>
<g mask="url(#mask0_606_26)">
<path d="M5 23V22C5 19.6833 5.48333 17.8042 6.45 16.3625C7.41667 14.9208 8.75 13.4667 10.45 12C8.75 10.5333 7.41667 9.07917 6.45 7.6375C5.48333 6.19583 5 4.31667 5 2V1H7V2C7 2.18333 7.00417 2.35417 7.0125 2.5125C7.02083 2.67083 7.03333 2.83333 7.05 3H16.95C16.9667 2.83333 16.9792 2.67083 16.9875 2.5125C16.9958 2.35417 17 2.18333 17 2V1H19V2C19 4.31667 18.5167 6.19583 17.55 7.6375C16.5833 9.07917 15.25 10.5333 13.55 12C15.25 13.4667 16.5833 14.9208 17.55 16.3625C18.5167 17.8042 19 19.6833 19 22V23H17V22C17 21.8167 16.9958 21.6458 16.9875 21.4875C16.9792 21.3292 16.9667 21.1667 16.95 21H7.05C7.03333 21.1667 7.02083 21.3292 7.0125 21.4875C7.00417 21.6458 7 21.8167 7 22V23H5ZM8.45 7H15.55C15.7667 6.68333 15.9542 6.36667 16.1125 6.05C16.2708 5.73333 16.4167 5.38333 16.55 5H7.45C7.58333 5.36667 7.72917 5.7125 7.8875 6.0375C8.04583 6.3625 8.23333 6.68333 8.45 7ZM12 10.7C12.3333 10.4167 12.6583 10.1333 12.975 9.85C13.2917 9.56667 13.5917 9.28333 13.875 9H10.125C10.4083 9.28333 10.7083 9.56667 11.025 9.85C11.3417 10.1333 11.6667 10.4167 12 10.7ZM10.125 15H13.875C13.5917 14.7167 13.2917 14.4333 12.975 14.15C12.6583 13.8667 12.3333 13.5833 12 13.3C11.6667 13.5833 11.3417 13.8667 11.025 14.15C10.7083 14.4333 10.4083 14.7167 10.125 15ZM7.45 19H16.55C16.4167 18.6333 16.2708 18.2875 16.1125 17.9625C15.9542 17.6375 15.7667 17.3167 15.55 17H8.45C8.23333 17.3167 8.04583 17.6333 7.8875 17.95C7.72917 18.2667 7.58333 18.6167 7.45 19Z" fill="#1C1B1F"/>
</g>
</svg>
