<svg width="25" height="25" viewBox="0 0 25 25" fill="none" xmlns="http://www.w3.org/2000/svg">
<mask id="mask0_553_7" style="mask-type:alpha" maskUnits="userSpaceOnUse" x="0" y="0" width="25" height="25">
<rect x="0.251953" y="0.984863" width="24" height="24" fill="#D9D9D9"/>
</mask>
<g mask="url(#mask0_553_7)">
<path d="M12.252 16.9849C13.502 16.9849 14.5645 16.5474 15.4395 15.6724C16.3145 14.7974 16.752 13.7349 16.752 12.4849C16.752 11.2349 16.3145 10.1724 15.4395 9.29736C14.5645 8.42236 13.502 7.98486 12.252 7.98486C11.002 7.98486 9.93945 8.42236 9.06445 9.29736C8.18945 10.1724 7.75195 11.2349 7.75195 12.4849C7.75195 13.7349 8.18945 14.7974 9.06445 15.6724C9.93945 16.5474 11.002 16.9849 12.252 16.9849ZM12.252 15.1849C11.502 15.1849 10.8645 14.9224 10.3395 14.3974C9.81445 13.8724 9.55195 13.2349 9.55195 12.4849C9.55195 11.7349 9.81445 11.0974 10.3395 10.5724C10.8645 10.0474 11.502 9.78486 12.252 9.78486C13.002 9.78486 13.6395 10.0474 14.1645 10.5724C14.6895 11.0974 14.952 11.7349 14.952 12.4849C14.952 13.2349 14.6895 13.8724 14.1645 14.3974C13.6395 14.9224 13.002 15.1849 12.252 15.1849ZM12.252 19.9849C9.81862 19.9849 7.60195 19.3057 5.60195 17.9474C3.60195 16.589 2.15195 14.7682 1.25195 12.4849C2.15195 10.2015 3.60195 8.3807 5.60195 7.02236C7.60195 5.66403 9.81862 4.98486 12.252 4.98486C14.6853 4.98486 16.902 5.66403 18.902 7.02236C20.902 8.3807 22.352 10.2015 23.252 12.4849C22.352 14.7682 20.902 16.589 18.902 17.9474C16.902 19.3057 14.6853 19.9849 12.252 19.9849ZM12.252 17.9849C14.1353 17.9849 15.8645 17.489 17.4395 16.4974C19.0145 15.5057 20.2186 14.1682 21.052 12.4849C20.2186 10.8015 19.0145 9.46403 17.4395 8.47236C15.8645 7.4807 14.1353 6.98486 12.252 6.98486C10.3686 6.98486 8.63945 7.4807 7.06445 8.47236C5.48945 9.46403 4.28529 10.8015 3.45195 12.4849C4.28529 14.1682 5.48945 15.5057 7.06445 16.4974C8.63945 17.489 10.3686 17.9849 12.252 17.9849Z" fill="#1C1B1F"/>
</g>
</svg>
