<svg width="20" height="20" viewBox="0 0 20 20" fill="none" xmlns="http://www.w3.org/2000/svg">
<mask id="mask0_298_69" style="mask-type:alpha" maskUnits="userSpaceOnUse" x="0" y="0" width="20" height="20">
<rect width="20" height="20" rx="10" fill="#D9D9D9"/>
</mask>
<g mask="url(#mask0_298_69)">
<path d="M13.6654 10.3647C13.5827 10.7266 13.1387 10.8068 12.8762 10.5444L12.5349 10.2031C12.3298 9.99798 12.2543 9.70364 12.2431 9.41381C12.2244 8.93237 12.0249 8.47504 11.6445 8.04183C11.2425 7.58399 10.7463 7.35061 10.1557 7.34168C9.87278 7.3374 9.58865 7.25678 9.38856 7.05669L9.03784 6.70597C8.7754 6.44353 8.85563 5.99953 9.21745 5.91683C9.4605 5.86127 9.72092 5.8335 9.9987 5.8335C11.0404 5.8335 11.9258 6.19808 12.6549 6.92725C13.3841 7.65641 13.7487 8.54183 13.7487 9.5835C13.7487 9.86127 13.7209 10.1217 13.6654 10.3647ZM16.6323 13.256C16.3259 13.5284 15.8643 13.4983 15.5694 13.2135C15.2034 12.8601 15.2408 12.2658 15.6118 11.9177C15.8497 11.6946 16.0724 11.4616 16.2799 11.2189C17.0801 10.2831 17.0616 8.89762 16.2794 7.94681C15.7332 7.28292 15.0875 6.71389 14.3424 6.23975C13.0438 5.41336 11.5959 5.00016 9.9987 5.00016C9.59592 5.00016 9.20009 5.02794 8.8112 5.0835C8.5947 5.11442 8.38036 5.15396 8.16817 5.20211C7.85579 5.27298 7.52432 5.19245 7.29783 4.96596C6.85768 4.52581 7.00919 3.78256 7.61192 3.62707C7.78136 3.58336 7.95196 3.54453 8.1237 3.51058C8.72092 3.39252 9.34592 3.3335 9.9987 3.3335C12.0959 3.3335 13.964 3.91336 15.6029 5.07308C16.5061 5.71222 17.2722 6.45578 17.9012 7.30374C18.902 8.6529 18.9064 10.5161 17.9049 11.8647C17.5266 12.3743 17.1023 12.8381 16.6323 13.256ZM17.0803 18.2519C16.7585 18.5737 16.2373 18.5752 15.9136 18.2554L14.0727 16.4364C13.412 15.7835 12.4479 15.5767 11.5299 15.7189C11.0369 15.7953 10.5265 15.8335 9.9987 15.8335C7.90148 15.8335 6.03342 15.2536 4.39453 14.0939C3.41195 13.3986 2.59162 12.5798 1.93354 11.6373C1.07471 10.4074 1.07324 8.75844 1.9362 7.53141C2.05122 7.36787 2.17042 7.20875 2.29381 7.05404C2.86546 6.33732 2.91643 5.28306 2.27404 4.629L1.74082 4.08608C1.42217 3.76164 1.42451 3.24101 1.74607 2.91946C2.06969 2.59584 2.59438 2.59584 2.91799 2.91946L17.0803 17.0818C17.4034 17.4049 17.4034 17.9288 17.0803 18.2519ZM5.69803 8.04892C5.09348 7.45876 4.12123 7.43036 3.59511 8.09139C3.56972 8.12329 3.54453 8.15538 3.51953 8.18766C2.88547 9.00666 2.89836 10.1523 3.52538 10.9767C4.11045 11.7459 4.8203 12.3961 5.65495 12.9272C6.95356 13.7536 8.40148 14.1668 9.9987 14.1668C10.2765 14.1668 10.5473 14.1495 10.8112 14.1147C11.1542 14.0696 11.2917 13.6498 11.0538 13.3986C10.944 13.2827 10.778 13.2368 10.6215 13.2691C10.5584 13.2821 10.4967 13.2932 10.4362 13.3022C10.2973 13.3231 10.1515 13.3335 9.9987 13.3335C8.95703 13.3335 8.07161 12.9689 7.34245 12.2397C6.61328 11.5106 6.2487 10.6252 6.2487 9.5835C6.2487 9.43072 6.25911 9.28489 6.27995 9.146C6.32094 8.87274 6.25107 8.58879 6.05334 8.39577L5.69803 8.04892Z" fill="#282828"/>
</g>
</svg>
