<svg width="64" height="64" viewBox="0 0 64 64" fill="none" xmlns="http://www.w3.org/2000/svg">
<circle cx="32" cy="32" r="32" fill="#F7F7F7"/>
<path d="M43.9992 32.5232C43.9992 31.655 43.9214 30.8201 43.7766 30.0186H32.2441V34.7551H38.8341C38.5503 36.2857 37.6876 37.5826 36.3908 38.4509V41.5232H40.3481C42.6634 39.3915 43.9992 36.2523 43.9992 32.5232Z" fill="#4285F4"/>
<path d="M32.2453 44.4897C35.5514 44.4897 38.3231 43.3931 40.3491 41.5231L36.3918 38.4507C35.2953 39.1854 33.8927 39.6195 32.2453 39.6195C29.056 39.6195 26.3566 37.4655 25.3936 34.5713H21.3027V37.7438C23.3176 41.7457 27.4586 44.4897 32.2453 44.4897Z" fill="#34A853"/>
<path d="M25.3933 34.5712C25.1484 33.8365 25.0093 33.0517 25.0093 32.2447C25.0093 31.4376 25.1484 30.6528 25.3933 29.9181V26.7456H21.3024C20.4731 28.3987 20 30.2688 20 32.2447C20 34.2205 20.4731 36.0907 21.3024 37.7437L25.3933 34.5712Z" fill="#FBBC04"/>
<path d="M32.2453 24.8702C34.0429 24.8702 35.6571 25.4879 36.9261 26.7013L40.4382 23.1892C38.3176 21.2133 35.5458 20 32.2453 20C27.4586 20 23.3176 22.744 21.3027 26.7458L25.3936 29.9184C26.3566 27.0242 29.056 24.8702 32.2453 24.8702Z" fill="#E94235"/>
</svg>
