<svg width="24" height="25" viewBox="0 0 24 25" fill="none" xmlns="http://www.w3.org/2000/svg">
<path d="M23.9992 12.5232C23.9992 11.655 23.9214 10.8201 23.7766 10.0186H12.2441V14.7551H18.8341C18.5503 16.2857 17.6876 17.5826 16.3908 18.4509V21.5232H20.3481C22.6634 19.3915 23.9992 16.2523 23.9992 12.5232Z" fill="#4285F4"/>
<path d="M12.2453 24.4897C15.5514 24.4897 18.3231 23.3931 20.3491 21.5231L16.3918 18.4507C15.2953 19.1854 13.8927 19.6195 12.2453 19.6195C9.05596 19.6195 6.35657 17.4655 5.39363 14.5713H1.30273V17.7438C3.31763 21.7457 7.45861 24.4897 12.2453 24.4897Z" fill="#34A853"/>
<path d="M5.39326 14.5712C5.14837 13.8365 5.00927 13.0517 5.00927 12.2447C5.00927 11.4376 5.14837 10.6528 5.39326 9.91814V6.74561H1.30237C0.473142 8.39867 0 10.2688 0 12.2447C0 14.2205 0.473142 16.0907 1.30237 17.7437L5.39326 14.5712Z" fill="#FBBC04"/>
<path d="M12.2453 4.87016C14.0429 4.87016 15.6571 5.48792 16.9261 6.70126L20.4382 3.18918C18.3176 1.21335 15.5458 0 12.2453 0C7.45861 0 3.31763 2.74396 1.30273 6.74584L5.39363 9.91837C6.35657 7.02416 9.05596 4.87016 12.2453 4.87016Z" fill="#E94235"/>
</svg>
