<svg width="28" height="28" viewBox="0 0 28 28" fill="none" xmlns="http://www.w3.org/2000/svg">
<mask id="mask0_295_291" style="mask-type:alpha" maskUnits="userSpaceOnUse" x="0" y="0" width="28" height="28">
<rect width="28" height="28" fill="#D9D9D9"/>
</mask>
<g mask="url(#mask0_295_291)">
<path d="M5.51406 23.3333C4.3474 23.3333 3.35087 22.9152 2.52448 22.0791C1.69809 21.243 1.26545 20.2319 1.22656 19.0458C1.22656 18.8708 1.23628 18.6958 1.25573 18.5208C1.27517 18.3458 1.30434 18.1708 1.34323 17.9958L3.79323 8.19579C4.06545 7.14579 4.61962 6.2951 5.45573 5.64371C6.29184 4.99232 7.24462 4.66663 8.31406 4.66663H19.6891C20.7585 4.66663 21.7113 4.99232 22.5474 5.64371C23.3835 6.2951 23.9377 7.14579 24.2099 8.19579L26.6599 17.9958C26.6988 18.1708 26.7328 18.3507 26.762 18.5354C26.7911 18.7201 26.8057 18.9 26.8057 19.075C26.8057 20.2611 26.3828 21.2673 25.537 22.0937C24.6911 22.9201 23.6752 23.3333 22.4891 23.3333C21.6724 23.3333 20.9141 23.1194 20.2141 22.6916C19.5141 22.2638 18.9891 21.6805 18.6391 20.9416L17.8224 19.25C17.7252 19.0555 17.5793 18.9097 17.3849 18.8125C17.1905 18.7152 16.9863 18.6666 16.7724 18.6666H11.2307C11.0168 18.6666 10.8127 18.7152 10.6182 18.8125C10.4238 18.9097 10.278 19.0555 10.1807 19.25L9.36406 20.9416C9.01406 21.6805 8.48906 22.2638 7.78906 22.6916C7.08906 23.1194 6.33073 23.3333 5.51406 23.3333ZM5.60156 21C5.97101 21 6.30642 20.9027 6.60781 20.7083C6.9092 20.5138 7.13767 20.2513 7.29323 19.9208L8.1099 18.2583C8.40156 17.6555 8.82934 17.184 9.39323 16.8437C9.95712 16.5034 10.5696 16.3333 11.2307 16.3333H16.7724C17.4335 16.3333 18.046 16.5083 18.6099 16.8583C19.1738 17.2083 19.6113 17.675 19.9224 18.2583L20.7391 19.9208C20.8946 20.2513 21.1231 20.5138 21.4245 20.7083C21.7259 20.9027 22.0613 21 22.4307 21C22.9752 21 23.4418 20.8201 23.8307 20.4604C24.2196 20.1007 24.4238 19.6486 24.4432 19.1041C24.4432 19.1236 24.4238 18.9388 24.3849 18.55L21.9349 8.77913C21.7988 8.25413 21.5266 7.82635 21.1182 7.49579C20.7099 7.16524 20.2335 6.99996 19.6891 6.99996H8.31406C7.76962 6.99996 7.28837 7.16524 6.87031 7.49579C6.45226 7.82635 6.1849 8.25413 6.06823 8.77913L3.61823 18.55C3.57934 18.6666 3.5599 18.8416 3.5599 19.075C3.5599 19.6194 3.7592 20.0763 4.15781 20.4458C4.55642 20.8152 5.03767 21 5.60156 21ZM15.7516 12.8333C16.0821 12.8333 16.3592 12.7215 16.5828 12.4979C16.8064 12.2743 16.9182 11.9972 16.9182 11.6666C16.9182 11.3361 16.8064 11.059 16.5828 10.8354C16.3592 10.6118 16.0821 10.5 15.7516 10.5C15.421 10.5 15.1439 10.6118 14.9203 10.8354C14.6967 11.059 14.5849 11.3361 14.5849 11.6666C14.5849 11.9972 14.6967 12.2743 14.9203 12.4979C15.1439 12.7215 15.421 12.8333 15.7516 12.8333ZM18.0849 10.5C18.4155 10.5 18.6925 10.3882 18.9161 10.1645C19.1398 9.94093 19.2516 9.66385 19.2516 9.33329C19.2516 9.00274 19.1398 8.72565 18.9161 8.50204C18.6925 8.27843 18.4155 8.16663 18.0849 8.16663C17.7543 8.16663 17.4773 8.27843 17.2536 8.50204C17.03 8.72565 16.9182 9.00274 16.9182 9.33329C16.9182 9.66385 17.03 9.94093 17.2536 10.1645C17.4773 10.3882 17.7543 10.5 18.0849 10.5ZM18.0849 15.1666C18.4155 15.1666 18.6925 15.0548 18.9161 14.8312C19.1398 14.6076 19.2516 14.3305 19.2516 14C19.2516 13.6694 19.1398 13.3923 18.9161 13.1687C18.6925 12.9451 18.4155 12.8333 18.0849 12.8333C17.7543 12.8333 17.4773 12.9451 17.2536 13.1687C17.03 13.3923 16.9182 13.6694 16.9182 14C16.9182 14.3305 17.03 14.6076 17.2536 14.8312C17.4773 15.0548 17.7543 15.1666 18.0849 15.1666ZM20.4182 12.8333C20.7488 12.8333 21.0259 12.7215 21.2495 12.4979C21.4731 12.2743 21.5849 11.9972 21.5849 11.6666C21.5849 11.3361 21.4731 11.059 21.2495 10.8354C21.0259 10.6118 20.7488 10.5 20.4182 10.5C20.0877 10.5 19.8106 10.6118 19.587 10.8354C19.3634 11.059 19.2516 11.3361 19.2516 11.6666C19.2516 11.9972 19.3634 12.2743 19.587 12.4979C19.8106 12.7215 20.0877 12.8333 20.4182 12.8333ZM9.91823 14.5833C10.171 14.5833 10.38 14.5007 10.5453 14.3354C10.7106 14.1701 10.7932 13.9611 10.7932 13.7083V12.5416H11.9599C12.2127 12.5416 12.4217 12.459 12.587 12.2937C12.7523 12.1284 12.8349 11.9194 12.8349 11.6666C12.8349 11.4138 12.7523 11.2048 12.587 11.0395C12.4217 10.8743 12.2127 10.7916 11.9599 10.7916H10.7932V9.62496C10.7932 9.37218 10.7106 9.16315 10.5453 8.99788C10.38 8.8326 10.171 8.74996 9.91823 8.74996C9.66545 8.74996 9.45642 8.8326 9.29115 8.99788C9.12587 9.16315 9.04323 9.37218 9.04323 9.62496V10.7916H7.87656C7.62379 10.7916 7.41476 10.8743 7.24948 11.0395C7.0842 11.2048 7.00156 11.4138 7.00156 11.6666C7.00156 11.9194 7.0842 12.1284 7.24948 12.2937C7.41476 12.459 7.62379 12.5416 7.87656 12.5416H9.04323V13.7083C9.04323 13.9611 9.12587 14.1701 9.29115 14.3354C9.45642 14.5007 9.66545 14.5833 9.91823 14.5833Z" fill="#282828"/>
</g>
</svg>
