<svg width="100" height="100" viewBox="0 0 100 100" fill="none" xmlns="http://www.w3.org/2000/svg">
<g clip-path="url(#clip0_430_1614)">
<path d="M62.183 43.9827C57.3449 43.9827 53.4098 47.8367 53.2734 52.6418V59.8228H69.567V43.9827H62.183Z" fill="#8379C1"/>
<path d="M85.7886 15.1085L88.4656 32.9315C88.7553 34.8599 88.481 36.8363 87.6794 38.594C86.1767 41.8894 83.0312 43.9828 79.5821 43.9828H70.3588H70.3248H61.1012C57.6521 43.9828 54.5064 41.8894 53.0039 38.594C52.2023 36.8363 51.928 34.8599 52.2177 32.9315L54.8951 15.1064C55.451 11.4047 58.2117 8.51795 61.707 7.98314C67.4227 7.10845 73.227 7.10728 78.9429 7.98001L78.9744 7.9847C82.4706 8.51853 85.2325 11.4059 85.7886 15.1085Z" fill="#ACACAC"/>
<path d="M70.336 43.9827C68.2966 43.9827 66.3548 43.5664 64.5898 42.8152V46.3184C64.5898 49.4919 67.1625 52.0646 70.336 52.0646C73.5095 52.0646 76.0822 49.4919 76.0822 46.3184V42.8152C74.3172 43.5666 72.3754 43.9827 70.336 43.9827Z" fill="#FFA78F"/>
<path d="M95.0986 84.3626C96.8781 82.2566 97.7229 79.3198 97.3896 76.3983L96.278 66.6527C95.0773 56.1251 87.9494 47.2175 77.9414 43.7372L67.6944 47.3004C63.9666 48.5968 61.2412 52.3045 60.7315 56.774L58.4933 76.3983C58.16 79.3198 59.0048 82.2566 60.7843 84.3626C62.342 86.2061 64.4752 87.2454 66.7025 87.2454H89.1802C91.4077 87.2454 93.5411 86.2061 95.0986 84.3626Z" fill="#C86D36"/>
<path d="M97.3896 76.3983L96.278 66.6527C95.0773 56.1251 87.9493 47.2174 77.9413 43.7372L74.623 44.8912C83.1405 48.9487 89.0672 57.1387 90.1524 66.6527L91.2641 76.3983C91.5973 79.3198 90.7525 82.2566 88.9731 84.3626C87.4153 86.2061 85.2821 87.2454 83.0548 87.2454H89.1805C91.4078 87.2454 93.541 86.2063 95.0988 84.3626C96.878 82.2566 97.7228 79.3198 97.3896 76.3983Z" fill="#AC5E2E"/>
<path d="M88.4659 32.9312L85.7889 15.1083C85.2328 11.4058 82.4707 8.51847 78.9745 7.98464L78.9431 7.97995C75.3818 7.43635 71.7862 7.23204 68.1992 7.36662C70.3607 7.44807 72.5191 7.65238 74.665 7.97995L74.6964 7.98464C78.1928 8.51847 80.9548 11.4058 81.5109 15.1083L84.1878 32.9312C84.4775 34.8597 84.2031 36.836 83.4016 38.5938C81.899 41.8892 78.7534 43.9825 75.3043 43.9825H79.5824C83.0315 43.9825 86.1773 41.8892 87.6797 38.5938C88.4812 36.836 88.7556 34.8597 88.4659 32.9312Z" fill="#9C9C9C"/>
<path d="M93.6346 98.4663H62.2012V90.8473C62.2012 87.7445 64.7164 85.2292 67.8192 85.2292H88.0162C91.119 85.2292 93.6342 87.7445 93.6342 90.8473L93.6346 98.4663Z" fill="#F58A97"/>
<path d="M88.0161 85.2292H82.4473C85.5501 85.2292 88.0653 87.7445 88.0653 90.8473V98.4661H93.6341V90.8473C93.6341 87.7445 91.1187 85.2292 88.0161 85.2292Z" fill="#F07281"/>
<path d="M37.1337 43.9827C42.058 43.9827 46.0499 47.9746 46.0499 52.8988V62.3707H28.2734V43.9829L37.1337 43.9827Z" fill="#0AB69F"/>
<path d="M36.1269 45.6436V37.5626H24.6348V45.6436C24.6348 48.8171 27.2074 51.3897 30.3809 51.3897C33.5542 51.3895 36.1269 48.8171 36.1269 45.6436Z" fill="#FFCEBF"/>
<path d="M30.381 11.2759H16.2427C13.9781 11.2759 12.1426 13.1116 12.1426 15.376V26.1099H30.381V11.2759Z" fill="#ACACAC"/>
<path d="M30.381 11.2759H16.2427C13.9781 11.2759 12.1426 13.1116 12.1426 15.376V26.1099H30.381V11.2759Z" fill="#ACACAC"/>
<path d="M45.5172 21.7571C45.4468 21.7571 45.3773 21.7597 45.3078 21.7624C44.1081 14.5886 37.8714 9.12073 30.3569 9.12073C22.8425 9.12073 16.6058 14.5886 15.4061 21.7624C15.3366 21.7595 15.2668 21.7571 15.1967 21.7571C12.3537 21.7571 10.0488 24.0618 10.0488 26.905C10.0488 29.7482 12.3537 32.0529 15.1967 32.0529C15.267 32.0529 15.3366 32.0503 15.4061 32.0476C16.6058 39.2214 22.8425 44.6893 30.3569 44.6893C37.8714 44.6893 44.1081 39.2214 45.3078 32.0476C45.3773 32.0505 45.447 32.0529 45.5172 32.0529C48.3602 32.0529 50.665 29.748 50.665 26.905C50.665 24.062 48.3604 21.7571 45.5172 21.7571Z" fill="#FFCEBF"/>
<path d="M40.9583 30.9832C40.1572 30.9832 39.5632 30.9832 38.7493 30.9832C38.2008 30.9832 37.7559 31.4279 37.7559 31.9766C37.7559 32.5253 38.2006 32.97 38.7493 32.97H40.9583C41.5068 32.97 41.9517 32.5253 41.9517 31.9766C41.9515 31.4279 41.5068 30.9832 40.9583 30.9832Z" fill="#FE8F83"/>
<path d="M40.9583 30.9832C40.1572 30.9832 39.5632 30.9832 38.7493 30.9832C38.2008 30.9832 37.7559 31.4279 37.7559 31.9766C37.7559 32.5253 38.2006 32.97 38.7493 32.97H40.9583C41.5068 32.97 41.9517 32.5253 41.9517 31.9766C41.9515 31.4279 41.5068 30.9832 40.9583 30.9832Z" fill="#FE8F83"/>
<path d="M21.9114 30.9832C21.1104 30.9832 20.5164 30.9832 19.7024 30.9832C19.1539 30.9832 18.709 31.4279 18.709 31.9766C18.709 32.5253 19.1537 32.97 19.7024 32.97H21.9114C22.4599 32.97 22.9048 32.5253 22.9048 31.9766C22.9048 31.4279 22.4599 30.9832 21.9114 30.9832Z" fill="#FE8F83"/>
<path d="M45.5164 21.7571C45.4461 21.7571 45.3766 21.7597 45.307 21.7624C44.1073 14.5886 37.8707 9.12073 30.3562 9.12073C29.7882 9.12073 29.2278 9.15354 28.6758 9.21449C35.4326 9.95126 40.8555 15.1247 41.9655 21.7624C42.0351 21.7595 42.1048 21.7571 42.1749 21.7571C45.0179 21.7571 47.3228 24.0618 47.3228 26.905C47.3228 29.7482 45.0181 32.0529 42.1751 32.0529C42.1048 32.0529 42.0353 32.0503 41.9657 32.0476C40.8557 38.6853 35.4326 43.8585 28.676 44.5955C29.2278 44.6565 29.7882 44.6893 30.3562 44.6893C37.8707 44.6893 44.1073 39.2214 45.307 32.0476C45.3766 32.0505 45.4463 32.0529 45.5164 32.0529C48.3594 32.0529 50.6643 29.748 50.6643 26.905C50.6643 24.062 48.3596 21.7571 45.5164 21.7571Z" fill="#FFB09E"/>
<path d="M37.0096 98.4663H5.57617V90.8473C5.57617 87.7445 8.09142 85.2292 11.1942 85.2292H31.3912C34.494 85.2292 37.0092 87.7445 37.0092 90.8473L37.0096 98.4663Z" fill="#82AEE3"/>
<path d="M31.3911 85.2292H25.8223C28.9251 85.2292 31.4403 87.7445 31.4403 90.8473V98.4661H37.0091V90.8473C37.0091 87.7445 34.4939 85.2292 31.3911 85.2292Z" fill="#528FD8"/>
<path d="M27.241 84.242V75.9093H15.3906V84.242C15.3906 87.5144 18.0434 90.1673 21.3159 90.1673C24.5883 90.1671 27.241 87.5144 27.241 84.242Z" fill="#FFA78F"/>
<path d="M84.1127 82.882V74.2028H71.7695V82.882C71.7695 86.2905 74.5327 89.0536 77.9411 89.0536C81.3496 89.0536 84.1127 86.2905 84.1127 82.882Z" fill="#FFA78F"/>
<path d="M85.0212 21.7704C84.9532 21.7704 84.8856 21.7729 84.8184 21.7755C83.6564 14.8267 77.6155 9.53052 70.3368 9.53052C63.0581 9.53052 57.0173 14.8267 55.8551 21.7755C55.7877 21.7727 55.7203 21.7704 55.6524 21.7704C52.8984 21.7704 50.666 24.0028 50.666 26.7567C50.666 29.5109 52.8986 31.7431 55.6524 31.7431C55.7203 31.7431 55.7879 31.7405 55.8551 31.738C57.0171 38.6868 63.0581 43.9829 70.3368 43.9829C77.6155 43.9829 83.6562 38.6868 84.8184 31.738C84.8858 31.7407 84.9532 31.7431 85.0212 31.7431C87.7751 31.7431 90.0075 29.5105 90.0075 26.7567C90.0075 24.003 87.7749 21.7704 85.0212 21.7704Z" fill="#FFCEBF"/>
<path d="M85.0205 21.7704C84.9525 21.7704 84.8849 21.7729 84.8177 21.7755C83.6557 14.8267 77.6148 9.53052 70.3361 9.53052C69.771 9.53052 69.2145 9.56568 68.6662 9.62838C75.1802 10.3669 80.4021 15.3642 81.4757 21.7708C81.5065 21.771 81.537 21.7725 81.5677 21.7731C81.605 21.772 81.6419 21.7702 81.6794 21.7702C84.4333 21.7702 86.6657 24.0026 86.6657 26.7565C86.6657 29.5107 84.4331 31.7429 81.6794 31.7429C81.6419 31.7429 81.6048 31.7411 81.5677 31.74C81.537 31.7407 81.5065 31.7423 81.4757 31.7423C80.4019 38.1491 75.18 43.1464 68.666 43.8847C69.2143 43.9474 69.771 43.9826 70.3361 43.9826C77.6148 43.9826 83.6555 38.6864 84.8177 31.7376C84.8851 31.7403 84.9525 31.7427 85.0205 31.7427C87.7744 31.7427 90.0068 29.5101 90.0068 26.7563C90.0068 24.0026 87.7742 21.7704 85.0205 21.7704Z" fill="#FFB09E"/>
<path d="M22.5036 45.8407H11.2629C7.79109 45.8407 5.06606 48.8167 5.37097 52.275L6.99239 70.665H22.5036V45.8407Z" fill="#9E5528"/>
<path d="M92.8132 60.4186C92.7443 60.4186 92.6757 60.4212 92.6073 60.4237C91.4285 53.3753 85.3011 48.0032 77.918 48.0032C70.535 48.0032 64.4074 53.3753 63.2288 60.4237C63.1604 60.4208 63.092 60.4186 63.0229 60.4186C60.2295 60.4186 57.9648 62.6831 57.9648 65.4765C57.9648 68.2699 60.2295 70.5345 63.0229 70.5345C63.092 70.5345 63.1604 70.532 63.2288 70.5294C64.4076 77.5779 70.535 82.95 77.918 82.95C85.3011 82.95 91.4287 77.5779 92.6073 70.5294C92.6757 70.5324 92.7441 70.5345 92.8132 70.5345C95.6066 70.5345 97.8712 68.2699 97.8712 65.4765C97.8712 62.6831 95.6066 60.4186 92.8132 60.4186Z" fill="#FFCEBF"/>
<path d="M40.9583 30.9832C40.1572 30.9832 39.5632 30.9832 38.7493 30.9832C38.2008 30.9832 37.7559 31.4279 37.7559 31.9766C37.7559 32.5253 38.2006 32.97 38.7493 32.97H40.9583C41.5068 32.97 41.9517 32.5253 41.9517 31.9766C41.9515 31.4279 41.5068 30.9832 40.9583 30.9832Z" fill="#FE8F83"/>
<path d="M53.0293 21.7754H72.3156C77.5325 21.7754 81.7617 17.5463 81.7617 12.3293C81.7617 7.51189 77.8565 3.60669 73.0391 3.60669H65.1914C58.4745 3.60669 53.0293 9.05186 53.0293 15.7688V21.7754Z" fill="#BFBFBF"/>
<path d="M73.0387 3.60669H68.7606C73.578 3.60669 77.4832 7.51189 77.4832 12.3293C77.4832 17.5461 73.2541 21.7754 68.0371 21.7754H72.3152C77.532 21.7754 81.7613 17.5463 81.7613 12.3293C81.7615 7.51209 77.8563 3.60669 73.0387 3.60669Z" fill="#ACACAC"/>
<path d="M35.5934 60.953C35.5272 60.953 35.4613 60.9554 35.3959 60.9579C34.2642 54.191 28.3814 49.0333 21.293 49.0333C14.2047 49.0333 8.3218 54.191 7.19006 60.9579C7.12443 60.9552 7.0588 60.953 6.99259 60.953C4.31072 60.953 2.13672 63.1271 2.13672 65.8089C2.13672 68.4908 4.31072 70.6648 6.99259 70.6648C7.0588 70.6648 7.12463 70.6624 7.19006 70.6599C8.3218 77.4269 14.2045 82.5843 21.293 82.5843C28.3813 82.5843 34.2642 77.4267 35.3959 70.6599C35.4615 70.6626 35.5272 70.6648 35.5934 70.6648C38.2752 70.6648 40.4492 68.4908 40.4492 65.8089C40.4492 63.1271 38.2752 60.953 35.5934 60.953Z" fill="#FFCEBF"/>
<path d="M48.5486 10.6987C48.5486 5.63388 44.4428 1.52808 39.378 1.52808H35.3737H29.3762H27.6309C22.0453 1.52808 17.5176 6.05579 17.5176 11.6412C17.5176 17.2266 22.0453 21.7543 27.6307 21.7543H45.2841H48.5484L48.5486 10.6987Z" fill="#BFBFBF"/>
<path d="M39.3776 1.5282H35.3734H33.8086C38.8735 1.5282 42.9793 5.634 42.9793 10.6989V21.7543H45.2838H48.5481V10.6987C48.5485 5.634 44.4427 1.5282 39.3776 1.5282Z" fill="#ACACAC"/>
<path d="M61.7903 30.9379C61.0316 30.9379 60.4691 30.9379 59.6985 30.9379C59.1789 30.9379 58.7578 31.359 58.7578 31.8786C58.7578 32.3981 59.1789 32.8193 59.6985 32.8193H61.7903C62.3099 32.8193 62.731 32.3981 62.731 31.8786C62.731 31.359 62.3099 30.9379 61.7903 30.9379Z" fill="#FE8F83"/>
<path d="M80.9739 30.9379C80.2152 30.9379 79.6527 30.9379 78.8821 30.9379C78.3625 30.9379 77.9414 31.359 77.9414 31.8786C77.9414 32.3981 78.3625 32.8193 78.8821 32.8193H80.9739C81.4935 32.8193 81.9146 32.3981 81.9146 31.8786C81.9146 31.359 81.4935 30.9379 80.9739 30.9379Z" fill="#FE8F83"/>
<path d="M92.8139 60.4186C92.7447 60.4186 92.6763 60.4212 92.608 60.4237C91.4292 53.3753 85.3017 48.0032 77.9187 48.0032C77.3534 48.0032 76.7969 48.0383 76.248 48.0997C82.8687 48.8392 88.1783 53.9148 89.2669 60.4237C89.3353 60.4208 89.4036 60.4186 89.4728 60.4186C92.2662 60.4186 94.5308 62.6831 94.5308 65.4765C94.5308 68.2699 92.2662 70.5345 89.4728 70.5345C89.4038 70.5345 89.3353 70.532 89.2669 70.5294C88.1783 77.0384 82.8687 82.114 76.248 82.8535C76.7967 82.9148 77.3536 82.9498 77.9187 82.9498C85.3017 82.9498 91.4294 77.5777 92.608 70.5292C92.6763 70.5322 92.7447 70.5343 92.8139 70.5343C95.6073 70.5343 97.8719 68.2697 97.8719 65.4763C97.8719 62.6831 95.6073 60.4186 92.8139 60.4186Z" fill="#FFB09E"/>
<path d="M35.5941 60.9531C35.5279 60.9531 35.462 60.9554 35.3966 60.9579C34.2649 54.191 28.3822 49.0333 21.2937 49.0333C20.7282 49.0333 20.1713 49.0697 19.623 49.1335C25.948 49.8701 31.0138 54.7309 32.0553 60.9579C32.1209 60.9552 32.1866 60.9531 32.2528 60.9531C34.9347 60.9531 37.1087 63.1271 37.1087 65.8089C37.1087 68.4908 34.9347 70.6648 32.2528 70.6648C32.1866 70.6648 32.1208 70.6624 32.0553 70.6599C31.0138 76.887 25.9482 81.7479 19.623 82.4843C20.1715 82.5482 20.7282 82.5845 21.2937 82.5845C28.382 82.5845 34.2649 77.4269 35.3966 70.6601C35.4622 70.6628 35.5279 70.665 35.5941 70.665C38.2759 70.665 40.45 68.491 40.45 65.8091C40.45 63.1271 38.2759 60.9531 35.5941 60.9531Z" fill="#FFB09E"/>
<path d="M94.8635 60.4237H75.9195C70.6279 60.4237 66.3379 56.1339 66.3379 50.8421C66.3379 45.9557 70.2992 41.9943 75.1857 41.9943H82.5269C89.3402 41.9943 94.8635 47.5176 94.8635 54.3308V60.4237Z" fill="#D77F4A"/>
<path d="M82.5278 41.9946H76.959C83.7722 41.9946 89.2955 47.5179 89.2955 54.3312V60.4239H94.8644V54.3312C94.8644 47.5177 89.3413 41.9946 82.5278 41.9946Z" fill="#C86D36"/>
<path d="M38.7065 60.9581H19.143C13.7525 60.9581 9.38281 56.5882 9.38281 51.1979V48.5706C9.38281 44.6312 12.5764 41.4377 16.5156 41.4377H29.0641C34.3896 41.4377 38.7067 45.7547 38.7067 51.0803V60.9581H38.7065Z" fill="#AC5E2E"/>
<path d="M29.0649 41.4377H23.4961C28.8215 41.4377 33.1387 45.7547 33.1387 51.0803V60.9583H38.7075V51.0803C38.7075 45.7547 34.3903 41.4377 29.0649 41.4377Z" fill="#9E5528"/>
<path d="M63.1471 70.9256C63.0461 70.206 62.8972 69.5351 62.6593 68.954C62.1874 67.5318 60.8393 66.5852 59.3407 66.5852C56.9013 66.5852 55.3525 69.2251 56.5706 71.3389C56.5967 71.3844 56.9319 71.9554 56.9585 72.0007C54.7868 72.6404 52.4726 70.869 50.8545 69.1842C51.0181 70.5179 51.5401 71.2889 51.9577 72.0007C49.563 72.7062 47.2311 70.9803 45.5062 69.1842C45.6699 70.5179 46.1916 71.2887 46.6094 72.0007C42.7282 73.1438 38.3896 66.5852 38.3896 66.5852C37.6413 67.9082 37.1117 69.371 36.8518 70.9256C36.7906 70.9231 36.7293 70.9209 36.6676 70.9209C34.1674 70.9209 32.1406 72.9478 32.1406 75.4478C32.1406 77.9482 34.1676 79.9748 36.6676 79.9748C36.7293 79.9748 36.7906 79.9724 36.8518 79.9701C37.9069 86.2788 43.3912 91.087 49.9995 91.087C56.6077 91.087 62.0921 86.2786 63.1473 79.9701C63.2084 79.9726 63.2697 79.9748 63.3315 79.9748C65.8317 79.9748 67.8584 77.9479 67.8584 75.4478C67.8584 73.7752 66.9509 72.3158 65.6025 71.5321C65.3555 71.3883 65.0933 71.2678 64.8195 71.1721C64.2442 70.9846 63.6854 70.8949 63.1471 70.9256Z" fill="#FFCEBF"/>
<path d="M63.1483 70.9254C63.0114 70.1749 62.8522 69.5057 62.6606 68.9537C62.1886 67.5315 60.8405 66.585 59.3419 66.585C58.7331 66.585 58.1799 66.7494 57.7111 67.0289C58.4532 67.4399 59.0403 68.1124 59.3191 68.9535C59.5263 69.5452 59.6884 70.2026 59.8068 70.9252C60.6563 70.8847 61.5083 71.098 62.2625 71.532C63.611 72.3159 64.5183 73.7754 64.5183 75.4476C64.5183 77.948 62.4914 79.9745 59.9914 79.9745C59.9297 79.9745 59.8683 79.9722 59.8072 79.9698C58.8427 85.7381 54.1741 90.2494 48.3301 90.9805C48.8776 91.0491 49.4347 91.087 50.0007 91.087C56.6089 91.087 62.0933 86.2788 63.1485 79.97C63.2096 79.9726 63.271 79.9747 63.3327 79.9747C65.8331 79.9747 67.8596 77.9478 67.8596 75.4478C67.8596 73.7754 66.9521 72.3159 65.6038 71.532C65.6038 71.5322 64.6162 70.8781 63.1483 70.9254Z" fill="#FFB09E"/>
<path d="M52.9355 52.0726H50.6328C47.7378 52.0726 45.0796 53.0835 42.9898 54.7703C42.9978 54.7639 43.0052 54.757 43.0132 54.7506C38.1439 55.5837 34.4375 59.8242 34.4375 64.9313V66.585V71.509C35.0961 71.1351 35.857 70.9207 36.6683 70.9207C36.7301 70.9207 36.7914 70.923 36.8525 70.9254C37.1125 69.3709 37.6421 67.9077 38.3904 66.585C38.3904 66.585 42.7292 73.1435 46.6102 72.0004C46.1926 71.2885 45.6706 70.5175 45.507 69.184C47.2319 70.98 49.5637 72.706 51.9585 72.0004C51.5409 71.2889 51.0189 70.5175 50.8553 69.184C52.4732 70.8687 54.7876 72.6399 56.9593 72.0004C56.9325 71.9549 56.5975 71.384 56.5713 71.3387C55.3533 69.225 56.902 66.585 59.3415 66.585C60.8416 66.585 62.1913 67.5335 62.6619 68.9578C62.8719 69.5938 63.0355 70.2509 63.1483 70.9252C63.2094 70.9226 63.2707 70.9205 63.3325 70.9205C64.1606 70.9205 64.9363 71.1439 65.6041 71.5322C65.6041 71.4037 65.6041 64.7168 65.6041 64.7409C65.6037 57.7446 59.932 52.0726 52.9355 52.0726Z" fill="#AC5E2E"/>
<path d="M52.9343 52.0726H50.6316C50.0788 52.0726 49.535 52.1101 49.002 52.1812C55.2249 52.9844 60.0341 58.2995 60.0341 64.7411C60.0341 64.7325 60.0341 65.5687 60.0341 66.6561C61.243 66.8979 62.2644 67.7575 62.6607 68.9578C62.8707 69.5938 63.0344 70.2509 63.1471 70.9252C63.2082 70.9226 63.2695 70.9205 63.3313 70.9205C64.1594 70.9205 64.9351 71.1439 65.6029 71.5322C65.6029 71.4037 65.6029 64.7168 65.6029 64.7409C65.6025 57.7446 59.9308 52.0726 52.9343 52.0726Z" fill="#9E5528"/>
<path d="M12.7708 69.7241C12.0121 69.7241 11.4496 69.7241 10.679 69.7241C10.1594 69.7241 9.73828 70.1452 9.73828 70.6648C9.73828 71.1844 10.1594 71.6055 10.679 71.6055H12.7708C13.2903 71.6055 13.7115 71.1844 13.7115 70.6648C13.7115 70.1452 13.2903 69.7241 12.7708 69.7241Z" fill="#FE8F83"/>
<path d="M31.9543 69.7241C31.1957 69.7241 30.6331 69.7241 29.8626 69.7241C29.343 69.7241 28.9219 70.1452 28.9219 70.6648C28.9219 71.1844 29.343 71.6055 29.8626 71.6055H31.9543C32.4739 71.6055 32.8951 71.1844 32.8951 70.6648C32.8951 70.1452 32.4739 69.7241 31.9543 69.7241Z" fill="#FE8F83"/>
<path d="M69.3743 70.2196C68.6156 70.2196 68.0531 70.2196 67.2825 70.2196C66.7629 70.2196 66.3418 70.6407 66.3418 71.1603C66.3418 71.6799 66.7629 72.101 67.2825 72.101H69.3743C69.8938 72.101 70.315 71.6799 70.315 71.1603C70.315 70.6407 69.8936 70.2196 69.3743 70.2196Z" fill="#FE8F83"/>
<path d="M88.5559 70.2196C87.7973 70.2196 87.2347 70.2196 86.4641 70.2196C85.9446 70.2196 85.5234 70.6407 85.5234 71.1603C85.5234 71.6799 85.9446 72.101 86.4641 72.101H88.5559C89.0755 72.101 89.4966 71.6799 89.4966 71.1603C89.4966 70.6407 89.0755 70.2196 88.5559 70.2196Z" fill="#FE8F83"/>
<path d="M41.4758 79.9839C40.7172 79.9839 40.1546 79.9839 39.3841 79.9839C38.8645 79.9839 38.4434 80.405 38.4434 80.9246C38.4434 81.4442 38.8645 81.8653 39.3841 81.8653H41.4758C41.9954 81.8653 42.4165 81.4442 42.4165 80.9246C42.4165 80.405 41.9954 79.9839 41.4758 79.9839Z" fill="#FE8F83"/>
<path d="M60.6594 79.9839C59.9008 79.9839 59.3382 79.9839 58.5677 79.9839C58.0481 79.9839 57.627 80.405 57.627 80.9246C57.627 81.4442 58.0481 81.8653 58.5677 81.8653H60.6594C61.179 81.8653 61.6001 81.4442 61.6001 80.9246C61.6001 80.405 61.179 79.9839 60.6594 79.9839Z" fill="#FE8F83"/>
<path d="M37.0423 37.9703C36.8673 37.9703 36.6896 37.9387 36.5165 37.872C35.7625 37.5816 35.3867 36.7348 35.6774 35.9807C35.8389 35.5613 35.5039 34.8945 35.3164 34.6372C34.8273 33.994 34.9568 33.0814 35.6 32.5925C36.243 32.1032 37.1652 32.2341 37.6541 32.8777C37.8139 33.0881 39.1939 34.9929 38.4075 37.0329C38.184 37.6138 37.6299 37.9703 37.0423 37.9703Z" fill="#FFB09E"/>
<path d="M23.6237 37.9703C23.0361 37.9703 22.482 37.614 22.2581 37.0329C21.4718 34.9927 22.8514 33.0883 23.0113 32.8777C23.4997 32.2343 24.4177 32.1091 25.0613 32.5978C25.7016 33.0842 25.8288 33.9956 25.3482 34.6388C25.1603 34.897 24.8269 35.5621 24.9885 35.9807C25.2791 36.7347 24.9035 37.5816 24.1493 37.8721C23.9765 37.9387 23.7985 37.9703 23.6237 37.9703Z" fill="#FFB09E"/>
<path d="M76.9985 38.0332C76.8234 38.0332 76.6457 38.0016 76.4726 37.935C75.7187 37.6445 75.3428 36.7978 75.6335 36.0436C75.8146 35.5739 75.37 34.8285 75.2805 34.7107C74.7918 34.0675 74.917 33.1496 75.5604 32.6607C76.2039 32.172 77.1215 32.297 77.6104 32.9406C77.7704 33.1512 79.1502 35.056 78.3638 37.096C78.14 37.6768 77.586 38.0332 76.9985 38.0332Z" fill="#FFB09E"/>
<path d="M63.5787 38.0332C62.9911 38.0332 62.437 37.6769 62.2132 37.0958C61.427 35.0556 62.8064 33.1509 62.9661 32.9404C63.4549 32.2974 64.3729 32.1718 65.0163 32.6603C65.6566 33.1466 65.7838 34.058 65.3032 34.7013C65.1155 34.9595 64.7819 35.6248 64.9435 36.0436C65.2341 36.7975 64.8585 37.6445 64.1043 37.9349C63.9315 38.0015 63.7537 38.0332 63.5787 38.0332Z" fill="#FFB09E"/>
<path d="M65.7166 98.4799H34.2832V96.4591C34.2832 94.421 35.9353 92.7689 37.9733 92.7689H62.0263C64.0644 92.7689 65.7164 94.421 65.7164 96.4591L65.7166 98.4799Z" fill="#0AB69F"/>
<path d="M62.0258 92.7689H56.457C58.4951 92.7689 60.1472 94.421 60.1472 96.4591V98.4799H65.716V96.4591C65.716 94.4212 64.0639 92.7689 62.0258 92.7689Z" fill="#01998D"/>
<path d="M49.9997 91.6552C48.0372 91.6552 46.1738 91.231 44.4961 90.4696V91.8285C44.4961 94.8793 46.9693 97.3524 50.0198 97.3524C53.0706 97.3524 55.5437 94.8793 55.5437 91.8285V90.4504C53.8555 91.2239 51.978 91.6552 49.9997 91.6552Z" fill="#FFA78F"/>
<path d="M24.3831 29.3665V26.5709C24.3831 25.7619 23.7271 25.106 22.9181 25.106C22.109 25.106 21.4531 25.7619 21.4531 26.5709V29.3665C21.4531 30.1755 22.109 30.8314 22.9181 30.8314C23.7271 30.8314 24.3831 30.1755 24.3831 29.3665Z" fill="black"/>
<path d="M37.7364 30.8314C38.5455 30.8314 39.2014 30.1755 39.2014 29.3665V26.5709C39.2014 25.7619 38.5455 25.106 37.7364 25.106C36.9274 25.106 36.2715 25.7619 36.2715 26.5709V29.3665C36.2715 30.1755 36.9274 30.8314 37.7364 30.8314Z" fill="black"/>
<path d="M78.6994 24.9669H77.5353C76.7262 24.9669 76.0703 25.6228 76.0703 26.4319V29.1395C76.0703 29.9486 76.7262 30.6045 77.5353 30.6045C78.3443 30.6045 79.0002 29.9486 79.0002 29.1395V27.866C79.6649 27.7273 80.1644 27.1378 80.1644 26.4319C80.1644 25.6228 79.5085 24.9669 78.6994 24.9669Z" fill="black"/>
<path d="M63.1819 30.6045C63.9909 30.6045 64.6468 29.9486 64.6468 29.1395V26.4319C64.6468 25.6228 63.9909 24.9669 63.1819 24.9669H62.0177C61.2086 24.9669 60.5527 25.6228 60.5527 26.4319C60.5527 27.1378 61.0522 27.7271 61.7169 27.866V29.1395C61.7169 29.9486 62.3728 30.6045 63.1819 30.6045Z" fill="black"/>
<path d="M21.2521 77.1612C23.7367 77.1612 25.758 75.1398 25.758 72.6554C25.758 71.8463 25.1021 71.1904 24.293 71.1904C23.4839 71.1904 22.828 71.8463 22.828 72.6554C22.828 73.5244 22.1209 74.2313 21.2521 74.2313C20.3831 74.2313 19.676 73.5242 19.676 72.6554C19.676 71.8463 19.0201 71.1904 18.2111 71.1904C17.402 71.1904 16.7461 71.8463 16.7461 72.6554C16.7461 75.14 18.7675 77.1612 21.2521 77.1612Z" fill="black"/>
<path d="M14.2618 64.0775C13.4528 64.0775 12.7969 64.7334 12.7969 65.5425V68.1794C12.7969 68.9885 13.4528 69.6444 14.2618 69.6444C15.0709 69.6444 15.7268 68.9885 15.7268 68.1794V65.5425C15.7268 64.7334 15.0709 64.0775 14.2618 64.0775Z" fill="black"/>
<path d="M28.2404 69.6444C29.0494 69.6444 29.7053 68.9885 29.7053 68.1794V65.5425C29.7053 64.7334 29.0494 64.0775 28.2404 64.0775C27.4313 64.0775 26.7754 64.7334 26.7754 65.5425V68.1794C26.7754 68.9885 27.4313 69.6444 28.2404 69.6444Z" fill="black"/>
<path d="M81.1182 71.1417C80.3092 71.1417 79.6533 71.7976 79.6533 72.6067C79.6533 73.5454 78.8895 74.3092 77.9508 74.3092C77.012 74.3092 76.2483 73.5454 76.2483 72.6067C76.2483 71.7976 75.5924 71.1417 74.7833 71.1417C73.9743 71.1417 73.3184 71.7976 73.3184 72.6067C73.3184 75.161 75.3965 77.2391 77.9508 77.2391C80.5051 77.2391 82.5832 75.161 82.5832 72.6067C82.5832 71.7976 81.9273 71.1417 81.1182 71.1417Z" fill="black"/>
<path d="M86.4114 63.7332H85.2306C84.4215 63.7332 83.7656 64.3891 83.7656 65.1981V67.9446C83.7656 68.7537 84.4215 69.4096 85.2306 69.4096C86.0396 69.4096 86.6956 68.7537 86.6956 67.9446V66.6355C87.3687 66.5033 87.8763 65.9101 87.8763 65.1981C87.8763 64.3891 87.2204 63.7332 86.4114 63.7332Z" fill="black"/>
<path d="M70.6711 63.7332H69.4904C68.6813 63.7332 68.0254 64.3891 68.0254 65.1981C68.0254 65.9101 68.5331 66.5033 69.2062 66.6355V67.9446C69.2062 68.7537 69.8621 69.4096 70.6711 69.4096C71.4802 69.4096 72.1361 68.7537 72.1361 67.9446V65.1981C72.1361 64.3891 71.4802 63.7332 70.6711 63.7332Z" fill="black"/>
<path d="M49.9955 86.732C52.3666 86.732 54.2954 84.8031 54.2954 82.432C54.2954 81.623 53.6395 80.967 52.8305 80.967C52.0214 80.967 51.3655 81.623 51.3655 82.432C51.3655 83.1875 50.751 83.802 49.9955 83.802C49.2399 83.802 48.6252 83.1875 48.6252 82.432C48.6252 81.623 47.9693 80.967 47.1603 80.967C46.3512 80.967 45.6953 81.623 45.6953 82.432C45.6953 84.8031 47.6244 86.732 49.9955 86.732Z" fill="black"/>
<path d="M43.4806 79.7241C44.2896 79.7241 44.9456 79.0682 44.9456 78.2591V75.8009C44.9456 74.9919 44.2896 74.3359 43.4806 74.3359C42.6715 74.3359 42.0156 74.9919 42.0156 75.8009V78.2591C42.0156 79.0682 42.6715 79.7241 43.4806 79.7241Z" fill="black"/>
<path d="M56.5118 79.7241C57.3209 79.7241 57.9768 79.0682 57.9768 78.2591V75.8009C57.9768 74.9919 57.3209 74.3359 56.5118 74.3359C55.7028 74.3359 55.0469 74.9919 55.0469 75.8009V78.2591C55.0469 79.0682 55.7028 79.7241 56.5118 79.7241Z" fill="black"/>
<path d="M98.1162 69.3635C98.9188 68.2788 99.3948 66.9385 99.3948 65.4886C99.3948 63.1726 98.2014 61.1398 96.3834 59.9809V54.3287C96.3834 48.5118 92.7685 43.5264 87.6689 41.4919C88.2275 40.7897 88.7033 40.015 89.0809 39.1868C89.7558 37.7066 90.1124 36.0563 90.1124 34.4142C90.1124 33.8387 90.0691 33.259 89.9839 32.6913L89.7526 31.1522C90.8476 29.9944 91.5201 28.4334 91.5201 26.718C91.5201 24.3026 90.187 22.1928 88.2181 21.0853L87.5319 16.5168C87.5317 16.5156 87.5315 16.5144 87.5313 16.5133L87.2796 14.8372C86.7942 11.6049 84.7958 8.79193 82.0123 7.37131C81.1357 5.77176 79.8524 4.44099 78.2753 3.50224C77.5798 3.08814 76.6808 3.31668 76.2671 4.01185C75.8532 4.70722 76.0816 5.60632 76.7768 6.02002C78.012 6.75524 78.9943 7.82681 79.6174 9.11891C79.7694 9.43398 80.029 9.68419 80.3495 9.82444C82.4718 10.7534 84.017 12.8411 84.3823 15.2723L84.5571 16.4355C83.6974 14.8614 82.8132 13.8748 82.6573 13.6792C82.6458 13.6658 82.6348 13.6519 82.6233 13.6384C81.8489 12.7378 80.3813 13.0866 80.0923 14.233C79.8403 15.2327 79.4049 16.1498 78.8326 16.9451C78.8293 16.9498 78.8256 16.9543 78.822 16.959C77.354 18.9898 74.9713 20.2653 72.3418 20.2653C68.998 20.2653 56.2837 20.2653 54.4952 20.2653V15.7161C54.4952 9.80901 59.3011 5.00314 65.2082 5.00314H70.9114C71.7205 5.00314 72.3764 4.34723 72.3764 3.53818C72.3764 2.72913 71.7205 2.07322 70.9114 2.07322H65.2082C57.6855 2.07322 51.5653 8.19344 51.5653 15.7161V21.7139C51.2178 21.9977 50.9004 22.3161 50.6195 22.6655C50.4287 22.4339 50.222 22.2161 50.0021 22.0124C50.0216 21.917 50.0318 21.8184 50.0318 21.7174V10.6476C50.0312 4.77656 45.2546 0 39.3836 0H27.6212C21.8555 0 17.0611 4.23218 16.1773 9.75275C13.1133 9.76174 10.6233 12.2569 10.6233 15.3227V22.0403C9.3347 23.2488 8.5276 24.9647 8.5276 26.8667C8.5276 30.1767 10.97 32.9273 14.1472 33.4107C14.7267 35.815 15.836 38.0437 17.382 39.9533H16.4683C13.1823 39.9533 10.1611 41.8694 8.73172 44.79C5.61682 45.9026 3.55434 49.046 3.84988 52.3984L4.5179 59.9743C2.22377 60.9253 0.605469 63.1876 0.605469 65.8214C0.605469 68.966 2.91113 71.582 5.92075 72.0678C7.01322 76.5578 9.96874 80.212 13.8761 82.2681V82.6058C13.8761 83.0133 13.9107 83.4125 13.9741 83.8022H11.1401C7.23043 83.8022 4.0497 86.9829 4.0497 90.8926V98.5216C4.0497 99.3306 4.70561 99.9865 5.51466 99.9865H9.18293C9.99198 99.9865 10.6479 99.3306 10.6479 98.5216C10.6479 97.7125 9.99198 97.0566 9.18293 97.0566H6.97962V90.8926C6.97962 88.5985 8.84599 86.7321 11.1401 86.7321H15.133C16.203 88.3307 17.8356 89.4306 19.6947 89.8324C22.6055 90.468 25.6927 89.3044 27.4145 86.7321H31.3635C33.6576 86.7321 35.524 88.5985 35.524 90.8926V91.9613C34.3024 92.6162 33.3746 93.7485 32.9896 95.1072C32.9888 95.1101 32.988 95.1129 32.987 95.1158C32.7659 95.9012 32.7937 96.4673 32.7937 97.0566H16.0194C15.2104 97.0566 14.5545 97.7125 14.5545 98.5216C14.5545 99.3306 15.2104 99.9865 16.0194 99.9865H34.0686C34.1311 99.9947 34.1942 100 34.2588 100H65.7331C65.7977 100 65.8608 99.9945 65.9233 99.9865H93.6877C94.4968 99.9865 95.1527 99.3306 95.1527 98.5216V90.8926C95.1527 89.5581 94.7816 88.3088 94.1379 87.2417C94.9232 86.7237 95.6455 86.0863 96.2721 85.3449C98.3252 82.9148 99.2841 79.603 98.9026 76.2588L98.1162 69.3635ZM92.6964 69.0842C92.0177 69.0668 91.418 69.52 91.2443 70.1683C91.2322 70.2134 91.2221 70.2593 91.2143 70.3062C90.4855 74.6641 87.6439 78.423 83.5435 80.3017C83.5433 80.3017 83.5431 80.3019 83.5429 80.3019C81.4994 81.2381 79.3514 81.6051 77.2709 81.502C77.2049 81.4987 77.1397 81.4928 77.0738 81.4885C74.0005 81.2912 71.187 80.0614 68.9845 78.0861C69.8582 75.6773 69.0888 72.9577 67.0849 71.3543C67.0849 65.2745 67.4828 62.3323 65.2791 58.4062C65.3795 58.1225 65.4885 57.8499 65.5713 57.6545H67.2379C69.2836 60.2688 72.4586 61.8943 75.9497 61.8943H93.0398C94.9626 61.9853 96.4651 63.5589 96.4651 65.4886C96.4649 67.4948 94.8589 69.1299 92.6964 69.0842ZM77.9735 87.6312C75.6773 87.6312 73.7556 85.974 73.3421 83.7987C73.3417 83.7965 73.3413 83.7942 73.3409 83.792C74.8485 84.2315 76.4248 84.4495 77.9507 84.4495C79.4371 84.4495 81.0634 84.2358 82.6089 83.776C82.1997 85.9776 80.2688 87.6312 77.9735 87.6312ZM63.8257 85.0472C63.6681 84.9591 63.5136 84.8634 63.3622 84.7612C63.7851 83.8739 64.1255 82.9355 64.3691 81.9534C65.4014 81.7776 66.4601 81.3041 67.3258 80.533C68.2569 81.3307 69.2642 82.011 70.329 82.573C70.329 82.9523 70.3241 83.3203 70.3797 83.8022H67.8389C66.3794 83.802 64.9744 84.2567 63.8257 85.0472ZM50.7451 30.9078C50.8317 31.0092 50.9219 31.1072 51.0145 31.2031C50.7828 32.7449 50.6623 33.3561 50.6623 34.4142C50.6623 36.0563 51.0192 37.7064 51.694 39.1868C52.7107 41.4167 54.4081 43.1824 56.446 44.2612C55.9241 44.6113 55.4295 45.0094 54.9705 45.4565C53.3715 47.0142 52.3357 49.0058 51.9737 51.1712H50.6293C49.5499 51.1712 48.4789 51.3022 47.4388 51.5529C46.9056 47.4617 43.9858 44.1114 40.1249 42.95C43.2873 40.6483 45.5746 37.28 46.5075 33.4111C48.225 33.1494 49.7269 32.2247 50.7451 30.9078ZM54.6494 33.0978C55.5617 36.8345 57.7996 40.206 61.1024 42.5099C56.8593 42.4898 52.8807 38.5078 53.7251 32.8822C54.0222 32.975 54.379 33.0552 54.6494 33.0978ZM59.3493 65.7023C57.6654 65.7023 56.1565 66.5738 55.3129 68.0337C54.7914 68.9365 54.5935 69.9475 54.7201 70.9316C53.7047 70.4609 52.6812 69.559 51.9087 68.7549C50.941 67.7473 49.2264 68.5499 49.3979 69.9479C49.4167 70.1007 49.4403 70.246 49.4665 70.388C49.5083 70.6161 49.5579 70.8322 49.615 71.0341C48.4844 70.5909 47.3947 69.6307 46.5534 68.7549C46.1328 68.3169 45.4521 68.1689 44.8681 68.4464C44.2985 68.7172 43.9661 69.3219 44.0428 69.9479C44.0829 70.2743 44.1409 70.5753 44.2116 70.8539C42.4034 69.9403 40.4775 67.6905 39.5928 66.359C39.3114 65.9337 38.8277 65.6841 38.3201 65.7032C37.5071 65.7316 36.9934 66.1865 36.1045 68.5818C36.0301 68.7822 35.9445 69.0258 35.8781 69.2338C35.8781 65.3903 35.6744 63.8658 36.7809 61.6093C36.7809 61.6091 36.7811 61.6091 36.7811 61.609C37.8419 59.4461 39.8417 57.6366 42.4612 56.9344C42.478 56.9299 42.4946 56.9254 42.5114 56.9211C43.6317 56.6279 43.2471 56.9523 44.2321 56.2177C44.9366 55.6936 45.735 55.2342 46.6137 54.8791C46.6317 54.8719 46.6477 54.8615 46.6653 54.8535C47.9109 54.3574 49.2468 54.1011 50.6297 54.1011H52.9353C53.0404 54.1011 53.1443 54.1062 53.2486 54.1091C53.2514 54.1091 53.2541 54.1097 53.2569 54.1097C57.1775 54.2201 60.6026 56.3513 62.5203 59.4945C62.5264 59.5045 62.5322 59.5143 62.5383 59.5242C64.4783 62.7258 64.1554 65.2921 64.1554 69.3662C64.1263 69.2717 64.0962 69.1775 64.0654 69.0838C63.4389 67.1875 61.7339 65.8747 59.7496 65.7181C59.6171 65.7075 59.4837 65.7023 59.3493 65.7023ZM39.871 48.5936C39.8694 48.5868 39.8679 48.58 39.8663 48.5733C39.6276 47.5392 39.2413 46.5442 38.7129 45.6074C41.9706 46.3104 44.444 49.1472 44.5925 52.5762C43.8528 52.9411 43.0109 53.4659 42.381 53.9433C41.6049 54.1013 40.8609 54.3355 40.1534 54.633C40.1532 50.8964 40.2259 50.1453 39.871 48.5936ZM62.2189 45.4399H66.4109C66.2032 45.7807 66.0128 46.1354 65.8428 46.5042C63.1803 47.884 61.1845 50.3563 60.1268 53.1366C58.5893 52.2279 56.8054 51.5798 54.9255 51.3138C55.6465 47.9283 58.6237 45.4399 62.2189 45.4399ZM33.6465 76.6803C33.2449 74.7823 34.6811 73.007 36.5969 72.9761C36.6553 72.9751 36.7135 72.9747 36.7717 72.9771C37.5134 73.0101 38.1543 72.4833 38.2759 71.7549C38.3756 71.1595 38.5197 70.5755 38.7074 70.0061C40.5459 72.1274 43.7303 74.9628 47.0149 73.9949C47.3396 73.8994 47.6175 73.6957 47.8062 73.4226C49.2481 74.1705 50.7994 74.4579 52.3705 73.9949C52.6963 73.899 52.975 73.6939 53.1637 73.4197C54.6404 74.183 56.0631 74.3827 57.3777 73.9949C58.292 73.7256 58.7089 72.6673 58.2266 71.8473C57.8682 71.2371 57.2701 70.5028 57.8494 69.4995C58.6569 68.1027 60.7772 68.4865 61.28 69.995C61.6614 71.1988 61.6835 71.6574 61.7447 71.8887C62.0761 73.1453 63.4757 72.9769 63.2202 72.9769C65.1539 72.9769 66.4134 74.3612 66.4134 76.0414C66.4134 77.6382 65.1856 78.9533 63.6286 79.0952C63.2147 79.1332 63.0522 79.0555 62.6758 79.1873C62.1847 79.3596 61.8064 79.7876 61.716 80.3283C61.4759 81.7645 60.9766 83.1308 60.2318 84.3893C60.2119 84.4231 60.1986 84.4589 60.1816 84.4936C58.9647 86.52 57.1697 88.1324 55.0343 89.1261C55.0019 89.1382 54.9691 89.1487 54.9375 89.1632C53.3725 89.88 51.6841 90.2363 49.9964 90.2363C49.9962 90.2363 49.996 90.2363 49.9958 90.2363C48.3451 90.2363 46.6725 89.898 45.0908 89.1802C45.0646 89.1682 45.0372 89.16 45.0105 89.1497C41.5336 87.5523 38.944 84.3221 38.2759 80.3281C38.1574 79.6196 37.5442 79.1047 36.8317 79.1047C36.8118 79.1047 36.7916 79.1051 36.7715 79.1059C36.7301 79.1075 36.6883 79.1094 36.6463 79.1094C35.1739 79.1096 33.9414 78.0664 33.6465 76.6803ZM46.0238 92.6289C47.3304 92.9889 48.6688 93.1664 49.996 93.1664C51.3604 93.1664 52.7019 92.982 54.0118 92.6168C53.661 94.5245 51.988 95.9413 50.0166 95.9413C48.0463 95.9411 46.3784 94.5251 46.0238 92.6289ZM61.5189 87.6847C61.0276 88.6487 60.7487 89.7384 60.7487 90.8924V91.3516H57.131C58.8198 90.4277 60.3094 89.18 61.5189 87.6847ZM93.4533 54.3287V58.9644H93.0713H75.9495C73.2007 58.9644 70.7192 57.5938 69.2386 55.4278C69.2271 55.409 69.2181 55.3891 69.2056 55.3708C68.6778 54.5877 68.2948 53.7316 68.0669 52.8262C67.7764 51.6728 66.3068 51.3327 65.5358 52.2279C64.6238 53.2874 63.8482 54.4701 63.2637 55.652C63.0606 55.4348 62.7557 55.1338 62.5936 54.9822C63.4122 52.2056 65.2321 49.9734 67.5744 48.92C67.9227 48.7634 68.196 48.477 68.336 48.1221C68.9353 46.6046 70.0092 45.3121 71.5716 44.4005C71.572 44.4007 71.5724 44.4003 71.5728 44.3999C71.5732 44.3999 71.5734 44.3999 71.5736 44.3995C71.6281 44.3687 71.6845 44.339 71.756 44.3009H71.7562C73.5759 43.3911 74.5986 43.4411 75.9122 43.4411H75.9142H82.5655C82.588 43.4411 82.6106 43.4426 82.6331 43.4426C88.5775 43.479 93.4533 48.3247 93.4533 54.3287ZM81.9711 40.5109C83.8615 38.5643 85.3103 36.0881 86.0344 33.2256C86.0451 33.1826 86.0584 33.1408 86.0689 33.0978C86.4043 33.0451 86.7305 32.965 87.0467 32.8627C87.5519 36.2248 86.373 38.9337 84.4559 40.6424C83.3712 40.4924 82.5263 40.5109 81.9711 40.5109ZM84.9173 30.2421C84.7114 30.2339 84.5131 30.2705 84.3307 30.3414C83.8615 30.5234 83.5019 30.94 83.4142 31.4641C82.9193 34.4237 81.3869 37.2046 79.0642 39.2339C79.0545 39.2425 79.0463 39.2522 79.0367 39.261C78.5091 39.7179 77.9427 40.1363 77.3401 40.5107C75.1417 40.5107 74.7287 40.4885 73.8781 40.5973C73.8689 40.5984 73.8595 40.5992 73.8501 40.6004C73.848 40.6006 73.846 40.6012 73.8439 40.6016C72.1315 40.8266 70.5364 41.4692 69.1785 42.4472C63.1868 41.9112 58.284 37.3314 57.3027 31.4639C57.1841 30.7556 56.571 30.2406 55.8584 30.2406C55.023 30.2406 54.3759 30.1138 53.6735 29.635C52.7406 28.9994 52.1265 27.9292 52.1265 26.7178C52.1265 24.8272 53.5981 23.2851 55.4822 23.1953H72.341C76.3681 23.1953 79.9712 21.0064 81.8666 17.6276C82.2063 18.2238 82.496 18.8461 82.7388 19.4868C83.0427 20.2888 83.2714 21.1201 83.4138 21.9719C83.4291 22.0625 83.4523 22.1499 83.4828 22.2333C83.4839 22.2366 83.4845 22.238 83.4845 22.2378C83.7 22.823 84.2713 23.2181 84.9167 23.1941C86.8901 23.116 88.5896 24.6962 88.5896 26.718C88.5902 28.6998 86.9417 30.3228 84.9173 30.2421ZM27.6212 2.92993H39.3836C43.6393 2.92993 47.1015 6.39213 47.1015 10.6476V20.2524C26.3914 20.2524 27.3614 20.278 26.6504 20.1966C26.6156 20.1927 26.5814 20.1876 26.5469 20.1833C22.1199 19.6217 18.8044 15.7728 18.9677 11.2921L18.9685 11.2712C18.9687 11.2681 18.9683 11.265 18.9683 11.2617C19.1423 6.63824 22.9557 2.92993 27.6212 2.92993ZM13.5532 15.3229C13.5532 13.9047 14.6771 12.7438 16.0812 12.6848C16.1456 13.3712 16.3034 14.2123 16.5232 14.9395C15.4756 16.4931 14.6187 18.381 14.1482 20.3216C13.9476 20.3519 13.7491 20.3911 13.5532 20.4396V15.3229ZM16.8019 31.7745C16.68 31.0467 16.037 30.524 15.2989 30.5523C15.2485 30.5543 15.1981 30.5564 15.1473 30.5564C13.1127 30.5564 11.4575 28.9012 11.4575 26.8667C11.4575 25.6093 12.0908 24.4983 13.054 23.8318C13.7374 23.3587 14.5281 23.1501 15.2969 23.1812C16.038 23.2117 16.6802 22.6876 16.8019 21.959C17.0135 20.6941 17.4248 19.386 18.0516 18.1245C19.8531 20.7472 22.7243 22.6298 26.0839 23.0773C26.1492 23.0861 26.2144 23.0945 26.28 23.1023C27.2762 23.2175 26.0874 23.1824 45.2976 23.1824H45.6127C47.5982 23.2388 49.197 24.8677 49.197 26.8667C49.197 28.9012 47.5417 30.5564 45.5072 30.5564C45.4564 30.5564 45.4058 30.5543 45.3556 30.5523C44.6183 30.5242 43.9743 31.0467 43.8526 31.7745C43.0761 36.4174 39.9626 40.3209 35.6462 42.1363C33.8158 40.7803 31.4924 39.9535 29.033 39.9535H21.4572C18.9822 37.8533 17.3359 34.9677 16.8019 31.7745ZM10.1484 47.4203C10.6153 47.3066 10.9968 46.9714 11.1694 46.523C12.0072 44.3458 14.1367 42.8832 16.4683 42.8832H20.9347H29.033C33.4886 42.8832 37.1639 46.481 37.2204 50.9716C37.2208 51.0055 37.2229 51.0391 37.2229 51.0733V56.4062C36.1705 57.2762 35.2775 58.3231 34.5838 59.4992H19.0992C15.6372 59.4992 12.5049 57.3182 11.3046 54.072C10.896 52.9674 9.45776 52.7985 8.77254 53.6827C8.13441 54.506 7.5535 55.4495 7.13413 56.2872L6.76847 52.1412C6.57666 49.9652 8.02971 47.9358 10.1484 47.4203ZM8.57565 70.437C8.45709 69.7288 7.84376 69.2137 7.13139 69.2137C7.11128 69.2137 7.09116 69.2141 7.07104 69.2149C7.02514 69.2166 6.97904 69.2186 6.93275 69.2186C5.05955 69.2186 3.5354 67.6946 3.5354 65.8212C3.5354 64.1269 4.78355 62.7223 6.4079 62.4688C7.13823 62.3553 7.4867 62.5629 8.05413 62.1008C8.3229 61.8826 8.51471 61.5697 8.57565 61.2056C8.79091 59.9182 9.20735 58.6665 9.80271 57.5022C11.8656 60.5262 15.3385 62.4289 19.0994 62.4289H33.3525C32.8306 64.377 32.9482 65.3182 32.9482 71.3211C31.2599 72.6464 30.3761 74.805 30.7234 76.9876C28.3257 79.603 24.9045 81.1535 21.2521 81.1535C15.0621 81.1539 9.63121 76.7495 8.57565 70.437ZM21.2519 84.0838C23.0784 84.0838 24.4486 83.7928 25.6601 83.4586C25.5354 84.1004 25.2729 84.6937 24.9049 85.2064C24.9032 85.2087 24.9014 85.2111 24.8996 85.2134C24.0424 86.4022 22.687 87.0737 21.2738 87.0737C19.8453 87.0737 18.5022 86.3909 17.6555 85.2234C17.6528 85.2195 17.6496 85.2158 17.6469 85.2117C17.2799 84.7022 17.0174 84.1127 16.891 83.4748C18.2429 83.8598 19.7285 84.0838 21.2519 84.0838ZM31.3637 83.802H28.5736C28.6373 83.4123 28.6716 83.0131 28.6716 82.6056V82.2341C29.8768 81.5915 31.0005 80.7902 32.0131 79.8442C32.9079 80.9326 34.1768 81.7022 35.6222 81.9518C36.6397 86.0561 39.3167 89.4124 42.8611 91.3514H38.4539V90.8922C38.4541 86.9827 35.2733 83.802 31.3637 83.802ZM35.7238 97.0701V96.5116C35.7238 95.5133 36.4002 94.6247 37.3714 94.3624C37.3749 94.3614 37.3778 94.3597 37.3813 94.3589C37.5644 94.3101 37.7558 94.2816 37.9538 94.2816H43.4455C43.8407 95.3686 44.4921 96.3198 45.3222 97.0701H35.7238ZM56.5874 94.2816H62.038C62.0611 94.2816 62.0834 94.2843 62.106 94.2851C62.1189 94.286 62.1314 94.2882 62.1445 94.2888C63.3477 94.3454 64.2681 95.3387 64.2681 96.5116V97.0701H54.7107C55.5408 96.3198 56.1923 95.3686 56.5874 94.2816ZM92.2227 97.0564H67.198V96.5116C67.198 94.295 65.7753 92.3257 63.6784 91.6204V90.8922C63.6784 88.5858 65.5667 86.7317 67.8389 86.7317H71.3499C72.7805 89.2108 75.5073 90.6897 78.3044 90.5525C78.3599 90.5502 78.4152 90.5467 78.4704 90.543C78.481 90.5422 78.4908 90.5418 78.5015 90.541C81.1465 90.341 83.3654 88.8676 84.5973 86.7317H88.0624C90.338 86.7317 92.2229 88.5924 92.2229 90.8922L92.2227 97.0564ZM94.034 83.4537C93.474 84.1167 92.8136 84.6626 92.095 85.0609C89.9427 83.5684 88.1769 83.8022 85.5673 83.8022C85.5693 83.7852 85.5699 83.768 85.5718 83.751C85.6253 83.2601 85.6183 82.9464 85.6183 82.5437C89.5376 80.4673 92.4739 76.8797 93.701 72.5729C93.7033 72.5647 93.7057 72.5565 93.708 72.5483C93.7651 72.3471 93.8196 72.145 93.869 71.9411C94.4077 71.8577 94.9239 71.7067 95.4111 71.4996L95.9918 76.5907C96.2776 79.0987 95.5459 81.6643 94.034 83.4537Z" fill="black"/>
<path d="M72.7234 32.8691C71.9143 32.8691 71.2584 33.5251 71.2584 34.3341C71.2584 34.8802 70.8142 35.3244 70.2681 35.3244C69.722 35.3244 69.2776 34.8802 69.2776 34.3341C69.2776 33.5251 68.6217 32.8691 67.8126 32.8691C67.0036 32.8691 66.3477 33.5251 66.3477 34.3341C66.3477 36.4958 68.1064 38.2543 70.2681 38.2543C72.4298 38.2543 74.1883 36.4958 74.1883 34.3341C74.1883 33.5251 73.5324 32.8691 72.7234 32.8691Z" fill="black"/>
<path d="M34.1805 34.2711C34.1805 33.4621 33.5246 32.8062 32.7156 32.8062C31.9065 32.8062 31.2506 33.4621 31.2506 34.2711C31.2506 34.8173 30.8064 35.2616 30.2603 35.2616C29.7141 35.2616 29.2698 34.8173 29.2698 34.2711C29.2698 33.4621 28.6139 32.8062 27.8048 32.8062C26.9958 32.8062 26.3398 33.4621 26.3398 34.2711C26.3398 36.4328 28.0986 38.1916 30.2603 38.1916C32.422 38.1916 34.1805 36.4328 34.1805 34.2711Z" fill="black"/>
</g>
<defs>
<clipPath id="clip0_430_1614">
<rect width="100" height="100" fill="white"/>
</clipPath>
</defs>
</svg>
