<svg width="100" height="100" viewBox="0 0 100 100" fill="none" xmlns="http://www.w3.org/2000/svg">
<g clip-path="url(#clip0_562_4635)">
<path d="M25 58.3333H21.6667C20.7462 58.3333 20 59.0795 20 60V96.6667C20 97.5871 20.7462 98.3333 21.6667 98.3333H25C25.9205 98.3333 26.6667 97.5871 26.6667 96.6667V60C26.6667 59.0795 25.9205 58.3333 25 58.3333Z" fill="#9E9E9E"/>
<path d="M6.66602 65H3.33268C2.41221 65 1.66602 65.7462 1.66602 66.6667V90C1.66602 90.9205 2.41221 91.6667 3.33268 91.6667H6.66602C7.58649 91.6667 8.33268 90.9205 8.33268 90V66.6667C8.33268 65.7462 7.58649 65 6.66602 65Z" fill="#9E9E9E"/>
<path d="M8.33398 71.6667H20.0007V85H8.33398V71.6667Z" fill="#707070"/>
<path d="M79.9994 71.6667V85C79.9994 88.6819 77.0146 91.6667 73.3327 91.6667H26.666V65H73.3327C77.0146 65 79.9994 67.9848 79.9994 71.6667Z" fill="#00BCD4"/>
<path d="M73.334 65H68.334C72.0159 65 75.0007 67.9848 75.0007 71.6667V85C75.0007 88.6819 72.0159 91.6667 68.334 91.6667H73.334C77.0159 91.6667 80.0007 88.6819 80.0007 85V71.6667C80.0007 67.9848 77.0159 65 73.334 65Z" fill="#00838F"/>
<path d="M88.3333 75V81.6667C88.3278 83.5053 86.8387 84.9945 85 85H80V71.6667H85C86.8387 71.6721 88.3278 73.1613 88.3333 75Z" fill="#9E9E9E"/>
<path d="M95.9496 31.85L79.9996 71.6667C79.9996 67.9848 77.0149 65 73.333 65H26.6663V60C26.6663 59.0795 25.9201 58.3333 24.9996 58.3333H21.6663C20.7458 58.3333 19.9996 59.0795 19.9996 60V71.6667L4.04964 31.85C3.57877 30.6468 3.85222 29.2795 4.74964 28.35C8.44656 24.6459 12.8126 21.6767 17.6163 19.6C24.933 16.2167 35.4496 13.3333 49.9996 13.3333C64.2663 13.3333 74.6663 16.1 81.9496 19.4C86.9192 21.4967 91.4357 24.536 95.2496 28.35C96.1471 29.2795 96.4205 30.6468 95.9496 31.85Z" fill="#F5F5F5"/>
<path d="M19.9994 58.3333H16.666C15.9611 58.3418 15.3377 58.793 15.1094 59.46L19.9994 71.6666V60C20.0075 59.4155 20.3246 58.879 20.8327 58.59C20.5837 58.4296 20.2954 58.3408 19.9994 58.3333Z" fill="#CFD8DC"/>
<path d="M95.2507 28.35C91.4367 24.536 86.9202 21.4967 81.9507 19.4C74.6673 16.1 64.2673 13.3333 50.0007 13.3333C49.1473 13.3333 48.354 13.375 47.5273 13.395C57.6384 13.4002 67.6449 15.4407 76.9507 19.395C81.9202 21.4917 86.4367 24.531 90.2507 28.345C91.1481 29.2745 91.4215 30.6418 90.9507 31.845L77.1773 66.2333C78.9463 67.4773 79.9995 69.5041 80.0007 71.6667L95.9507 31.85C96.4215 30.6468 96.1481 29.2795 95.2507 28.35Z" fill="#CFD8DC"/>
<path d="M81.9505 19.4C74.6672 16.1 64.2672 13.3333 50.0005 13.3333C35.4505 13.3333 24.9339 16.2167 17.6172 19.6C21.3172 9.04999 34.6172 1.39999 50.3339 1.66666C65.3839 1.93332 78.0005 9.38333 81.9505 19.4Z" fill="#9E9E9E"/>
<path d="M65 35V41.6667C65 42.5871 64.2538 43.3333 63.3333 43.3333H55V51.6667C55 52.5871 54.2538 53.3333 53.3333 53.3333H46.6667C45.7462 53.3333 45 52.5871 45 51.6667V43.3333H36.6667C35.7462 43.3333 35 42.5871 35 41.6667V35C35 34.0795 35.7462 33.3333 36.6667 33.3333H45V25C45 24.0795 45.7462 23.3333 46.6667 23.3333H53.3333C54.2538 23.3333 55 24.0795 55 25V33.3333H63.3333C64.2538 33.3333 65 34.0795 65 35Z" fill="#EF314C"/>
<path d="M98.3333 76.6667H90V75C90 72.2386 87.7614 70 85 70H82.4633L97.51 32.45C98.1975 30.6395 97.786 28.5952 96.4517 27.1917C92.6329 23.3738 88.1384 20.2983 83.1967 18.1217C78.6017 7.52999 65.54 0.276659 50.3617 -7.50646e-06C34.4633 -0.265008 20.695 7.24166 16.335 18.3333C11.5744 20.4888 7.24251 23.487 3.54833 27.1833C2.21009 28.5939 1.8016 30.648 2.49833 32.4633L17.5367 70H10V66.6667C10 64.8257 8.50762 63.3333 6.66667 63.3333H3.33333C1.49238 63.3333 0 64.8257 0 66.6667V90C0 91.841 1.49238 93.3333 3.33333 93.3333H6.66667C8.50762 93.3333 10 91.841 10 90V86.6667H18.3333V96.6667C18.3333 98.5076 19.8257 100 21.6667 100H25C26.8409 100 28.3333 98.5076 28.3333 96.6667V93.3333H73.3333C77.2918 93.3283 80.7026 90.544 81.5 86.6667H85C87.7614 86.6667 90 84.4281 90 81.6667V80H98.3333C99.2538 80 100 79.2538 100 78.3333C100 77.4129 99.2538 76.6667 98.3333 76.6667ZM50.305 3.33333C62.265 3.54499 73.0533 8.62666 78.2683 16.105C69.1724 13.0048 59.6083 11.5032 50 11.6667C40.1499 11.49 30.3475 13.0749 21.055 16.3467C26.1533 8.31666 37.5267 3.10666 50.305 3.33333ZM5.96 29.5C10.12 25.135 22.7383 15 50 15C77.2617 15 89.88 25.135 94.04 29.5C94.4872 29.9602 94.6304 30.6363 94.4083 31.2383L80.1267 66.8717C78.5722 64.6578 76.0384 63.338 73.3333 63.3333H28.3333V60C28.3333 58.159 26.8409 56.6667 25 56.6667H21.6667C19.8257 56.6667 18.3333 58.159 18.3333 60V63.0267L5.60167 31.255C5.36989 30.6501 5.50963 29.9656 5.96 29.5ZM6.66667 90H3.33333V66.6667H6.66667V90ZM10 83.3333V73.3333H18.3333V83.3333H10ZM25 96.6667H21.6667V60H25V96.6667ZM73.3333 90H28.3333V66.6667H31.6667V73.3333C31.6667 74.2538 32.4129 75 33.3333 75C34.2538 75 35 74.2538 35 73.3333V66.6667H38.3333V70C38.3333 70.9205 39.0795 71.6667 40 71.6667C40.9205 71.6667 41.6667 70.9205 41.6667 70V66.6667H45V73.3333C45 74.2538 45.7462 75 46.6667 75C47.5871 75 48.3333 74.2538 48.3333 73.3333V66.6667H51.6667V70C51.6667 70.9205 52.4129 71.6667 53.3333 71.6667C54.2538 71.6667 55 70.9205 55 70V66.6667H58.3333V73.3333C58.3333 74.2538 59.0795 75 60 75C60.9205 75 61.6667 74.2538 61.6667 73.3333V66.6667H65V70C65 70.9205 65.7462 71.6667 66.6667 71.6667C67.5871 71.6667 68.3333 70.9205 68.3333 70V66.6667H73.3333C76.0948 66.6667 78.3333 68.9052 78.3333 71.6667V85C78.3333 87.7614 76.0948 90 73.3333 90ZM86.6667 81.6667C86.6667 82.5871 85.9205 83.3333 85 83.3333H81.6667V73.3333H85C85.9205 73.3333 86.6667 74.0795 86.6667 75V81.6667Z" fill="black"/>
<path d="M36.6673 45H43.334V51.6667C43.334 53.5076 44.8264 55 46.6673 55H53.334C55.1749 55 56.6673 53.5076 56.6673 51.6667V45H63.334C65.1749 45 66.6673 43.5076 66.6673 41.6667V35C66.6673 33.159 65.1749 31.6667 63.334 31.6667H56.6673V25C56.6673 23.159 55.1749 21.6667 53.334 21.6667H46.6673C44.8264 21.6667 43.334 23.159 43.334 25V31.6667H36.6673C34.8264 31.6667 33.334 33.159 33.334 35V41.6667C33.334 43.5076 34.8264 45 36.6673 45ZM36.6673 35H45.0007C45.9211 35 46.6673 34.2538 46.6673 33.3333V25H53.334V33.3333C53.334 34.2538 54.0802 35 55.0007 35H63.334V41.6667H55.0007C54.0802 41.6667 53.334 42.4128 53.334 43.3333V51.6667H46.6673V43.3333C46.6673 42.4128 45.9211 41.6667 45.0007 41.6667H36.6673V35Z" fill="black"/>
</g>
<defs>
<clipPath id="clip0_562_4635">
<rect width="100" height="100" fill="white"/>
</clipPath>
</defs>
</svg>
