<svg width="100" height="100" viewBox="0 0 100 100" fill="none" xmlns="http://www.w3.org/2000/svg">
<g clip-path="url(#clip0_319_2394)">
<path d="M6.66602 85C3.90479 85 1.66602 82.7612 1.66602 80V20C1.66602 17.238 3.90479 15 6.66602 15H88.3327V85H6.66602Z" fill="#348FD9"/>
<path d="M1.66602 10C1.66602 7.23796 3.90479 5 6.66602 5H11.666V75H6.66602C3.90479 75 1.66602 77.238 1.66602 80V10Z" fill="#4DB7E5"/>
<path d="M75.4883 23.6776L67.5 31.6667L66.6667 32.5L65 37.5L65.4883 37.9883L60.4883 42.9883L62.8451 45.3442L67.8451 40.3442L68.3333 40.8333L73.3333 39.1667L74.1667 38.3333L82.155 30.3442L84.5117 27.9883L88.3333 24.1667V15H84.1667L77.8451 21.3216L75.4883 23.6776Z" fill="#3086CD"/>
<path d="M79.9857 48.265C79.9808 48.0672 79.9409 47.8727 79.8685 47.6896C79.8685 47.6782 79.8555 47.6693 79.8506 47.6579C79.7944 47.5269 79.7212 47.404 79.6333 47.2917L66.3 30.625C65.9842 30.2295 65.5049 29.9992 64.9987 30H38.332C37.8381 30.0024 37.3717 30.2238 37.0568 30.6047C37.0568 30.6144 37.0373 30.6161 37.0308 30.625L23.6974 47.2917C23.6104 47.404 23.5371 47.5277 23.4801 47.6579C23.4801 47.6693 23.4671 47.6782 23.4622 47.6896C23.3898 47.8727 23.3499 48.0672 23.3451 48.265C23.3451 48.2894 23.332 48.3097 23.332 48.3333V68.3333C23.332 69.2537 24.0783 70 24.9987 70H78.332C79.2524 70 79.9987 69.2537 79.9987 68.3333V48.3333C79.9987 48.3097 79.9857 48.2894 79.9857 48.265ZM64.1987 33.3333L74.8652 46.6667H52.467L45.3551 37.7783L41.8005 33.3333H64.1987ZM38.332 34.3327L44.9084 42.5545L48.1969 46.6667H28.4671L38.332 34.3327ZM26.6654 50H49.9987V66.6667H44.9987V55C44.9987 54.0788 44.2524 53.3333 43.332 53.3333H33.332C32.4116 53.3333 31.6654 54.0788 31.6654 55V66.6667H26.6654V50ZM34.9987 66.6667V56.6667H41.6654V66.6667H34.9987ZM76.6654 66.6667H53.332V50H76.6654V66.6667Z" fill="#4DB7E5"/>
<path d="M61.6667 63.3333H68.3333C69.2537 63.3333 70 62.587 70 61.6666V54.9999C70 54.0787 69.2537 53.3333 68.3333 53.3333H61.6667C60.7463 53.3333 60 54.0787 60 54.9999V61.6666C60 62.587 60.7463 63.3333 61.6667 63.3333ZM63.3333 56.6666H66.6667V59.9999H63.3333V56.6666Z" fill="#4DB7E5"/>
<path d="M19.9993 70H16.666V75C16.666 75.9204 17.4123 76.6667 18.3327 76.6667H23.3327V73.3333H19.9993V70Z" fill="#4DB7E5"/>
<path d="M19.9993 23.3333H23.3327V20H18.3327C17.4123 20 16.666 20.7454 16.666 21.6667V26.6667H19.9993V23.3333Z" fill="#4DB7E5"/>
<path d="M66.6662 32.5001L65.7441 35.2646L69.8058 40.3411L73.1758 39.218L67.2961 31.8694L66.6662 32.5001Z" fill="#419BC2"/>
<path d="M61.6667 31.6666L60 36.6666L63.3333 39.9999L68.3333 38.3333L69.1667 37.4999L62.5 30.8333L61.6667 31.6666Z" fill="#CCCCCA"/>
<path d="M62.5 30.8325L91.6667 1.66504L98.3333 8.33252L69.1667 37.4992L62.5 30.8325Z" fill="#803F37"/>
<path d="M70.4883 22.8451L72.8451 20.4883L79.5125 27.1549L77.1549 29.5117L70.4883 22.8451Z" fill="#FFB531"/>
<path d="M55.4883 42.1541L60.4883 37.1533L62.8459 39.5101L57.8451 44.5109L55.4883 42.1541Z" fill="#CCCCCA"/>
<path d="M46.666 98.3334H98.3327V46.6667L46.666 98.3334ZM88.3327 88.3334H71.666L88.3327 71.6668V88.3334Z" fill="#FFB531"/>
<path d="M98.3327 66.6667L88.3327 76.6667V88.3334H76.666L66.666 98.3334H98.3327V66.6667Z" fill="#FFA912"/>
<path d="M86.666 25H89.9993V48.3333H86.666V25Z" fill="black"/>
<path d="M0.228678 81.6397C0.302734 81.9604 0.400391 82.2753 0.521647 82.5813C0.569661 82.6977 0.643718 82.7994 0.698242 82.915C1.18164 83.9859 1.96452 84.895 2.95166 85.533C3.19499 85.686 3.44727 85.8235 3.7085 85.9448C3.83626 86.0082 3.95345 86.0912 4.08691 86.1482C4.38395 86.2629 4.68913 86.3565 5 86.4282C5.11637 86.4583 5.22298 86.5079 5.3418 86.5315C5.778 86.6202 6.22152 86.6658 6.66667 86.6666H51.6667V83.3333H6.66667C6.44287 83.3333 6.21908 83.3105 6.00016 83.2665C5.9196 83.2494 5.84473 83.2161 5.7666 83.1949C5.63477 83.1624 5.50537 83.1225 5.37842 83.0745C5.26449 83.02 5.153 82.9589 5.04476 82.893C4.96989 82.8499 4.89014 82.8165 4.81852 82.7693C4.63949 82.6472 4.47184 82.5081 4.31803 82.3543C4.16504 82.2013 4.02669 82.0344 3.90462 81.8546C3.84196 81.7594 3.79476 81.6528 3.73861 81.551C3.68164 81.4493 3.63688 81.3842 3.59863 81.2898C3.54329 81.1498 3.49854 81.0058 3.46517 80.8593C3.44645 80.7942 3.41797 80.7332 3.40495 80.6648C3.20557 79.685 3.45622 78.6669 4.08854 77.8922C4.72005 77.1174 5.6665 76.6674 6.66667 76.6666H11.6667C12.5871 76.6666 13.3333 75.9203 13.3333 74.9999V16.6666H71.6667V13.3333H13.3333V4.99992C13.3333 4.07869 12.5871 3.33325 11.6667 3.33325H6.66667C2.98503 3.33325 0 6.31746 0 9.99992V79.9999C0 80.4475 0.0455729 80.8943 0.135091 81.3329C0.157064 81.4363 0.201823 81.5348 0.228678 81.6397ZM3.33333 19.9999V9.99992C3.33333 8.15829 4.82585 6.66659 6.66667 6.66659H10V73.3333H6.66667C5.49561 73.3308 4.3457 73.6401 3.33333 74.2276V19.9999Z" fill="black"/>
<path d="M56.6673 30H38.334C37.84 30.0024 37.3737 30.2238 37.0588 30.6047C37.0588 30.6144 37.0392 30.616 37.0327 30.625L23.6994 47.2917C23.6123 47.404 23.5391 47.5277 23.4821 47.6579C23.4821 47.6693 23.4691 47.6782 23.4642 47.6896C23.3918 47.8727 23.3519 48.0672 23.347 48.265C23.347 48.2894 23.334 48.3097 23.334 48.3333V68.3333C23.334 69.2537 24.0802 70 25.0007 70H68.334V66.6667H53.334V50H76.6673V60H80.0007V48.3333C80.0007 48.3097 79.9876 48.2894 79.9876 48.265C79.9828 48.068 79.9437 47.8743 79.8704 47.6912C79.8704 47.6766 79.8542 47.666 79.8493 47.653C79.794 47.5244 79.7223 47.4032 79.6353 47.2933L74.6353 41.036L72.0327 43.116L74.8656 46.6667H52.4689L45.3571 37.7783L41.8024 33.3333H56.6673V30ZM41.6673 66.6667H35.0007V56.6667H41.6673V66.6667ZM50.0007 66.6667H45.0007V55C45.0007 54.0788 44.2544 53.3333 43.334 53.3333H33.334C32.4136 53.3333 31.6673 54.0788 31.6673 55V66.6667H26.6673V50H50.0007V66.6667ZM44.9103 42.5562L48.1989 46.6667H28.4691L38.334 34.3327L44.9103 42.5562Z" fill="black"/>
<path d="M61.6667 53.3333C60.7463 53.3333 60 54.0787 60 54.9999V61.6666C60 62.587 60.7463 63.3333 61.6667 63.3333H68.3333C69.2537 63.3333 70 62.587 70 61.6666V54.9999C70 54.0787 69.2537 53.3333 68.3333 53.3333H61.6667ZM66.6667 59.9999H63.3333V56.6666H66.6667V59.9999Z" fill="black"/>
<path d="M98.9712 45.1263C98.3486 44.8683 97.6317 45.0115 97.1548 45.4884L45.4881 97.1551C45.012 97.6311 44.8688 98.3481 45.1268 98.9707C45.3848 99.5932 45.9927 99.9993 46.6665 100H98.3332C99.2536 100 99.9998 99.2539 99.9998 98.3335V46.6668C99.9998 45.9921 99.5937 45.3842 98.9712 45.1263ZM96.6665 96.6668H50.6899L96.6665 50.6894V96.6668Z" fill="black"/>
<path d="M70.127 88.9714C70.3849 89.5939 70.9928 90 71.6667 90H88.3333C89.2537 90 90 89.2537 90 88.3333V71.6667C90 70.992 89.5939 70.3849 88.9714 70.127C88.3488 69.869 87.6318 70.0114 87.155 70.4883L70.4883 87.155C70.0114 87.631 69.869 88.348 70.127 88.9714ZM86.6667 75.6893V86.6667H75.6901L86.6667 75.6893Z" fill="black"/>
<path d="M92.8451 0.488281C92.194 -0.16276 91.1393 -0.16276 90.4883 0.488281L60.4883 30.4883C60.306 30.6714 60.1685 30.8944 60.0863 31.1393L58.4196 36.1393C58.2202 36.7383 58.3757 37.3983 58.8216 37.8442L59.3099 38.3333L55.4883 42.155L57.8451 44.5109L61.6667 40.6893L62.1549 41.1776C62.4674 41.4909 62.8914 41.6659 63.3333 41.6667C63.5124 41.6659 63.6898 41.6374 63.8599 41.5812L68.8599 39.9146C69.1056 39.8324 69.3286 39.6948 69.5117 39.5109L99.5117 9.51091C100.162 8.86068 100.162 7.80518 99.5117 7.15495L92.8451 0.488281ZM63.785 38.0933L61.9084 36.2166L62.8117 33.501L66.4998 37.1883L63.785 38.0933ZM69.1667 35.1432L64.8568 30.8333L71.6667 24.0226L75.9766 28.3333L69.1667 35.1432ZM78.3333 25.9766L74.0234 21.6667L91.6667 4.02262L95.9766 8.33333L78.3333 25.9766Z" fill="black"/>
<path d="M16.666 70V75C16.666 75.9204 17.4123 76.6667 18.3327 76.6667H23.3327V73.3333H19.9993V70H16.666Z" fill="black"/>
<path d="M23.3327 20H18.3327C17.4123 20 16.666 20.7454 16.666 21.6667V26.6667H19.9993V23.3333H23.3327V20Z" fill="black"/>
</g>
<defs>
<clipPath id="clip0_319_2394">
<rect width="100" height="100" fill="white"/>
</clipPath>
</defs>
</svg>
