<svg width="100" height="100" viewBox="0 0 100 100" fill="none" xmlns="http://www.w3.org/2000/svg">
<g clip-path="url(#clip0_319_2132)">
<path d="M98.5547 6.8501V61.8638C98.5547 64.8501 96.1348 67.27 93.1484 67.27H6.89062C3.9043 67.27 1.48438 64.8501 1.48438 61.8638V6.8501C1.48438 3.86377 3.9043 1.44189 6.89062 1.44189H93.1484C96.1348 1.44189 98.5547 3.86377 98.5547 6.8501Z" fill="#555760"/>
<path d="M98.5547 6.8501V61.8638C98.5547 64.8501 96.1348 67.27 93.1484 67.27H87.293C90.2793 67.27 92.6992 64.8501 92.6992 61.8638V6.8501C92.6992 3.86377 90.2793 1.44189 87.293 1.44189H93.1484C96.1348 1.44189 98.5547 3.86377 98.5547 6.8501Z" fill="#36383F"/>
<path d="M7.33984 7.302H92.7008V61.4106H7.33984V7.302Z" fill="#52DEFF"/>
<path d="M86.582 7.302H92.7002V61.4106H86.582V7.302Z" fill="#55BAFF"/>
<path d="M82.8281 95.2203C81.6758 96.5133 80.2813 97.4722 78.666 97.9937C76.9004 98.566 75.041 98.5621 73.1895 98.0679C68.9727 96.941 64.793 93.2613 61.8359 88.0035C60.7539 88.605 59.5059 88.9449 58.1836 88.9449C56.0664 88.9449 54.1523 88.0738 52.7793 86.6695C52.4141 86.2945 51.9844 85.9976 51.5176 85.7925C51.0488 85.5875 50.543 85.4761 50.0195 85.4761C48.9746 85.4761 47.9902 85.9215 47.2598 86.6695C45.8887 88.0738 43.9746 88.9449 41.8574 88.9449C40.5332 88.9449 39.2871 88.605 38.2051 88.0035C33.9492 95.5718 27.1563 99.8668 21.373 97.9937C19.7598 97.4722 18.3633 96.5133 17.2109 95.2203C14.7422 92.4488 13.3809 88.1265 13.3809 83.1929C13.3809 80.2398 13.8691 77.066 14.8984 73.8746C18.0039 64.2515 25.0098 57.65 31.4844 57.6754H68.5938C69.002 57.6754 69.4121 57.7008 69.8242 57.7535C75.9258 58.5211 82.2363 64.8765 85.1406 73.8746C87.8906 82.3961 86.7774 90.7886 82.8281 95.2203Z" fill="#EEF6FF"/>
<path d="M85.1406 73.8745C87.8906 82.396 86.7773 90.7886 82.8281 95.2202C81.6758 96.5132 80.2813 97.4722 78.666 97.9937C76.9004 98.5659 75.041 98.562 73.1895 98.0679C74.7988 97.5464 76.1895 96.5874 77.3398 95.2983C81.2891 90.8667 82.4023 82.4741 79.6523 73.9546C76.5527 64.3472 69.5703 57.7534 63.1055 57.7534H69.8242C75.9258 58.521 82.2363 64.8765 85.1406 73.8745Z" fill="#DAE6EF"/>
<path d="M43.8939 82.1207C42.7474 83.3512 40.9349 83.5914 39.5345 82.7965C39.2943 82.6617 39.0677 82.4957 38.8568 82.3004C37.4154 80.9586 37.3353 78.7008 38.6752 77.2574C38.933 76.9801 39.222 76.7535 39.5345 76.5778C40.8509 75.8356 42.5482 75.9899 43.7123 77.0758C45.1537 78.4176 45.2357 80.6774 43.8939 82.1207Z" fill="#555760"/>
<path d="M43.8945 82.1207C42.748 83.3512 40.9355 83.5914 39.5352 82.7965C39.8477 82.6227 40.1367 82.3961 40.3926 82.1207C41.7344 80.6774 41.6523 78.4176 40.2129 77.0758C40.002 76.8805 39.7754 76.7145 39.5352 76.5778C40.8516 75.8356 42.5488 75.9899 43.7129 77.0758C45.1543 78.4176 45.2363 80.6774 43.8945 82.1207Z" fill="#36383F"/>
<path d="M61.3236 82.1207C60.1771 83.3512 58.3646 83.5914 56.9642 82.7965C56.724 82.6617 56.4974 82.4957 56.2865 82.3004C54.8451 80.9586 54.765 78.7008 56.1048 77.2574C56.3627 76.9801 56.6517 76.7535 56.9642 76.5778C58.2806 75.8356 59.9779 75.9899 61.142 77.0758C62.5834 78.4176 62.6654 80.6774 61.3236 82.1207Z" fill="#555760"/>
<path d="M61.3242 82.1207C60.1777 83.3512 58.3652 83.5914 56.9648 82.7965C57.2773 82.6227 57.5664 82.3961 57.8223 82.1207C59.1641 80.6774 59.082 78.4176 57.6426 77.0758C57.4316 76.8805 57.2051 76.7145 56.9648 76.5778C58.2812 75.8356 59.9785 75.9899 61.1426 77.0758C62.584 78.4176 62.666 80.6774 61.3242 82.1207Z" fill="#36383F"/>
<path d="M62.3734 57.6755L58.4672 68.7416H41.5332L37.627 57.6755H62.3734Z" fill="#A8B3BA"/>
<path d="M57.3105 57.6755L53.4043 68.7416H58.4668L62.373 57.6755H57.3105Z" fill="#879299"/>
<path d="M40.6426 40.5601C38.1543 43.9194 34.1758 46.105 29.6855 46.1343C29.6523 46.1362 29.6211 46.1362 29.5898 46.1362C21.9941 46.1362 15.8379 39.9702 15.8379 32.3647C15.8379 24.7573 21.9941 18.5933 29.5898 18.5933C29.6172 18.5933 29.6465 18.5933 29.6738 18.5952C33.959 18.6187 37.7793 20.605 40.2832 23.7046L32.0469 31.9526L40.6426 40.5601Z" fill="#FFF148"/>
<path d="M40.6426 40.5601C38.1543 43.9194 34.1758 46.105 29.6855 46.1343C31.7109 46.021 35.1074 42.3745 35.1074 40.5444L29.2832 34.7124C27.7598 33.187 27.7598 30.7163 29.2832 29.1929L34.5996 23.8667C34.5996 22.5093 31.4805 18.7144 29.6738 18.5952C33.959 18.6187 37.7793 20.605 40.2832 23.7046L32.0469 31.9526L40.6426 40.5601Z" fill="#FFCF4A"/>
<path d="M78.7385 41.2905C78.7385 43.9233 76.6037 46.1362 73.8908 46.1362C73.4709 46.1362 73.0627 46.0835 72.676 45.9819C70.3498 45.3843 68.7346 43.103 69.0901 40.5972L70.258 32.3647H77.5237L78.6897 40.5972C78.7229 40.8315 78.7385 41.062 78.7385 41.2905Z" fill="#EEF6FF"/>
<path d="M78.7383 41.2905C78.7383 43.9233 76.6035 46.1362 73.8906 46.1362C73.4707 46.1362 73.0625 46.0835 72.6758 45.9819C73.9473 45.4351 74.8652 43.5132 74.8652 41.2925C74.8652 41.064 74.8555 40.8315 74.8359 40.5972L74.1309 32.3647H77.5234L78.6895 40.5972C78.7227 40.8315 78.7383 41.062 78.7383 41.2905Z" fill="#DAE6EF"/>
<path d="M83.3828 32.3647H64.3984L65.291 26.0659C65.8418 22.1831 68.8984 19.2046 72.6836 18.6772C73.0781 18.6226 73.4824 18.5933 73.8906 18.5933C78.2148 18.5933 81.8809 21.7788 82.4883 26.0659L83.3828 32.3647Z" fill="#FF455C"/>
<path d="M83.3828 32.3647H77.7969L77.2441 26.0659C76.9043 22.1831 75.0176 19.2046 72.6836 18.6772C73.0781 18.6226 73.4824 18.5933 73.8906 18.5933C78.2148 18.5933 81.8809 21.7788 82.4883 26.0659L83.3828 32.3647Z" fill="#E51C5F"/>
<path d="M98.5352 24.2764C97.7262 24.2764 97.0703 24.932 97.0703 25.7412V61.9664C97.0703 64.1445 95.302 65.9166 93.1281 65.9166H82.9342C82.2611 64.8717 81.5356 63.8875 80.7654 62.9781H92.6803C93.4893 62.9781 94.1451 62.3225 94.1451 61.5133V7.33281C94.1451 6.52383 93.4893 5.86797 92.6803 5.86797H26.2672C25.4582 5.86797 24.8023 6.52363 24.8023 7.33281C24.8023 8.14199 25.4582 8.79766 26.2672 8.79766H91.2156V60.0484H77.8139C74.8607 57.6182 71.6107 56.307 68.5359 56.3133H53.2314C52.4225 56.3133 51.7666 56.9689 51.7666 57.7781C51.7666 58.5873 52.4225 59.243 53.2314 59.243H60.2828L57.4107 67.3791H42.5494L39.6773 59.243H46.3775C47.1865 59.243 47.8424 58.5873 47.8424 57.7781C47.8424 56.9689 47.1865 56.3133 46.3775 56.3133H31.4273C28.3549 56.3133 25.124 57.6277 22.1854 60.0484H8.78438V8.79766H19.3736C20.1826 8.79766 20.8385 8.14199 20.8385 7.33281C20.8385 6.52363 20.1826 5.86797 19.3736 5.86797H7.31953C6.51055 5.86797 5.85469 6.52363 5.85469 7.33281V61.5133C5.85469 62.3223 6.51055 62.9781 7.31953 62.9781H19.2344C18.4643 63.8875 17.7387 64.8715 17.0656 65.9166H6.87187C4.69805 65.9166 2.92969 64.1445 2.92969 61.9664V6.87969C2.92969 4.70156 4.69805 2.92969 6.87187 2.92969H93.0889C95.2625 2.92969 97.0311 4.70156 97.0311 6.87969V18.9713C97.0311 19.7803 97.6869 20.4361 98.4959 20.4361C99.3049 20.4361 99.9607 19.7805 99.9607 18.9713V6.87969C99.9605 3.08613 96.8779 0 93.0887 0H6.87187C3.08262 0 0 3.08613 0 6.87969V61.9664C0 65.76 3.08262 68.8463 6.87187 68.8463H15.3977C14.652 70.3346 14.0082 71.9053 13.4846 73.5281C10.6307 82.374 11.6562 91.3111 16.0975 96.2965C17.4592 97.8248 19.0758 98.8994 20.9023 99.49C26.9613 101.451 34.0223 97.6471 38.7795 89.9789C39.7551 90.3297 40.7914 90.5117 41.8365 90.5117C44.2859 90.5117 46.577 89.5467 48.2879 87.7941C48.7605 87.3102 49.3686 87.0434 49.9998 87.0434C50.6311 87.0434 51.2389 87.31 51.7115 87.7939C53.4227 89.5465 55.7139 90.5117 58.1631 90.5117C59.2084 90.5117 60.2447 90.3295 61.2201 89.9789C65.1443 96.3045 70.6357 100 75.8393 100C76.9439 100 78.0361 99.8334 79.0969 99.49C80.9238 98.8994 82.5404 97.8248 83.9022 96.2965C88.3434 91.3111 89.3691 82.374 86.515 73.5281C85.9914 71.9053 85.3477 70.3344 84.602 68.8463H93.1277C96.9168 68.8463 99.9996 65.7602 99.9996 61.9664V25.7412C100 24.9322 99.3441 24.2764 98.5352 24.2764ZM81.7148 94.3475C80.7043 95.4816 79.5203 96.2742 78.1953 96.7025C73.283 98.2939 67.0709 94.4627 63.0918 87.3883C62.6969 86.6859 61.8096 86.4342 61.1049 86.8252C60.2117 87.3203 59.1945 87.582 58.1633 87.582C56.5098 87.582 54.9631 86.9305 53.8078 85.7473C52.7791 84.6939 51.427 84.1139 50 84.1139C48.573 84.1139 47.2209 84.6939 46.192 85.7475C45.0369 86.9305 43.4902 87.582 41.8367 87.582C40.8055 87.582 39.7883 87.3203 38.8951 86.8252C38.1904 86.4344 37.3029 86.6863 36.9082 87.3883C32.9289 94.4627 26.7182 98.2934 21.8043 96.7025C20.4797 96.2742 19.2957 95.4816 18.2852 94.3475C14.5795 90.1881 13.7707 82.1828 16.2729 74.4275C19.1143 65.6213 25.4822 59.2432 31.4314 59.2432H36.5707L40.132 69.3316C40.3389 69.9174 40.8924 70.309 41.5133 70.309H58.4473C59.0684 70.309 59.6219 69.9174 59.8285 69.3316L63.3898 59.2432H68.5744C74.5176 59.2432 80.8861 65.6219 83.7273 74.4275C86.2293 82.1828 85.4207 90.1879 81.7148 94.3475Z" fill="black"/>
<path d="M44.6919 76.1062C43.7087 75.1899 42.4288 74.7101 41.0849 74.7599C39.7419 74.8079 38.4982 75.3769 37.5829 76.3616C35.6947 78.3933 35.8091 81.5841 37.8382 83.4745C38.7765 84.3489 39.9855 84.8243 41.2607 84.8243C41.322 84.8243 41.3839 84.8232 41.4456 84.821C42.7884 84.7728 44.0322 84.2038 44.9474 83.2189C46.8353 81.1874 46.7206 77.9968 44.6919 76.1062ZM42.8011 81.2247C42.4191 81.6357 41.9003 81.8732 41.3404 81.8935C40.7806 81.9099 40.2458 81.7142 39.8355 81.3314C38.9868 80.5405 38.939 79.206 39.7288 78.3562C40.1109 77.9452 40.6298 77.7077 41.19 77.6876C41.2157 77.6866 41.2413 77.686 41.2669 77.686C41.7988 77.686 42.3031 77.8847 42.6947 78.2493V78.2495C43.5431 79.0403 43.5909 80.3747 42.8011 81.2247Z" fill="black"/>
<path d="M62.1215 76.106C61.1383 75.1899 59.8582 74.7101 58.5144 74.7599C57.1715 74.8079 55.9277 75.3769 55.0125 76.3618C53.1244 78.3933 53.2388 81.5843 55.2677 83.4745C56.206 84.3489 57.415 84.8243 58.6902 84.8243C58.7515 84.8243 58.8135 84.8232 58.8752 84.821C60.2179 84.7728 61.4617 84.2038 62.3769 83.2189C64.2652 81.1874 64.1506 77.9968 62.1215 76.106ZM60.2308 81.2247C59.8488 81.6357 59.3301 81.8732 58.7701 81.8935C58.2099 81.9099 57.6756 81.7142 57.2652 81.3314C56.4166 80.5405 56.3687 79.206 57.1586 78.3562C57.5406 77.9452 58.0595 77.7077 58.6197 77.6876C58.6455 77.6866 58.6711 77.686 58.6967 77.686C59.2285 77.686 59.7328 77.8847 60.1244 78.2493V78.2495C60.973 79.0403 61.0209 80.3747 60.2308 81.2247Z" fill="black"/>
<path d="M34.107 69.335H31.1824V66.4045C31.1824 65.5956 30.5266 64.9397 29.7176 64.9397C28.9086 64.9397 28.2527 65.5954 28.2527 66.4045V69.335H25.3281C24.5191 69.335 23.8633 69.9907 23.8633 70.7999C23.8633 71.609 24.5191 72.2647 25.3281 72.2647H28.2527V75.1952C28.2527 76.0043 28.9086 76.66 29.7176 76.66C30.5266 76.66 31.1824 76.0043 31.1824 75.1952V72.2647H34.107C34.916 72.2647 35.5719 71.609 35.5719 70.7999C35.5719 69.9907 34.916 69.335 34.107 69.335Z" fill="black"/>
<path d="M29.5691 17.2314C21.1781 17.2314 14.3516 24.0662 14.3516 32.4674C14.3516 40.8686 21.1781 47.7033 29.5691 47.7033C34.3664 47.7033 38.9383 45.3975 41.7994 41.535C42.2311 40.9523 42.1713 40.1412 41.6588 39.6281L34.0963 32.0557L41.2996 24.8428C41.8287 24.3127 41.873 23.4689 41.4021 22.8867C38.4959 19.2926 34.183 17.2314 29.5691 17.2314ZM30.9895 31.0205C30.4184 31.5926 30.4184 32.5189 30.9895 33.0906L38.6498 40.7611C36.325 43.3258 33.0791 44.7736 29.5689 44.7736C22.7934 44.7736 17.2811 39.2531 17.2811 32.4674C17.2811 25.6816 22.7934 20.1611 29.5689 20.1611C32.8541 20.1611 35.9512 21.4564 38.2467 23.7535L30.9895 31.0205Z" fill="black"/>
<path d="M84.4676 33.4277C84.7458 33.1072 84.8713 32.682 84.8118 32.2617L83.9186 25.9645C83.2124 20.9857 78.8922 17.2314 73.8692 17.2314C68.8462 17.2314 64.526 20.9857 63.8198 25.9646L62.9266 32.2617C62.8671 32.6818 62.9926 33.1072 63.2708 33.4277C63.5491 33.7482 63.9526 33.9322 64.377 33.9322H68.5491L67.6182 40.4953C67.3608 42.3105 67.9022 44.1453 69.1038 45.5293C70.3034 46.9109 72.0403 47.7035 73.869 47.7035C75.6977 47.7035 77.4346 46.9109 78.6342 45.5293C79.8356 44.1453 80.3772 42.3105 80.1196 40.4953L79.1887 33.9322H83.3608C83.7858 33.9322 84.1893 33.748 84.4676 33.4277ZM76.4223 43.6084C75.7794 44.3488 74.8489 44.7736 73.8694 44.7736C72.8899 44.7736 71.9592 44.3488 71.3165 43.6084C70.6717 42.8656 70.3811 41.8809 70.5194 40.9062L71.5085 33.932H76.2305L77.2196 40.9062C77.3577 41.8811 77.0671 42.8658 76.4223 43.6084ZM66.0645 31.0025L66.7208 26.376C67.2233 22.8328 70.2965 20.1609 73.8694 20.1609C77.4422 20.1609 80.5155 22.8326 81.018 26.3758L81.6743 31.0025H66.0645Z" fill="black"/>
<path d="M41.9412 33.8022C42.749 33.8022 43.4039 33.1477 43.4039 32.3403C43.4039 31.5329 42.749 30.8784 41.9412 30.8784C41.1334 30.8784 40.4785 31.5329 40.4785 32.3403C40.4785 33.1477 41.1334 33.8022 41.9412 33.8022Z" fill="black"/>
<path d="M47.1795 33.7993C47.9873 33.7993 48.6422 33.1448 48.6422 32.3374C48.6422 31.53 47.9873 30.8755 47.1795 30.8755C46.3717 30.8755 45.7168 31.53 45.7168 32.3374C45.7168 33.1448 46.3717 33.7993 47.1795 33.7993Z" fill="black"/>
<path d="M52.5369 33.8022C53.3447 33.8022 53.9996 33.1477 53.9996 32.3403C53.9996 31.5329 53.3447 30.8784 52.5369 30.8784C51.7291 30.8784 51.0742 31.5329 51.0742 32.3403C51.0742 33.1477 51.7291 33.8022 52.5369 33.8022Z" fill="black"/>
<path d="M58.0603 33.7993C58.8682 33.7993 59.523 33.1448 59.523 32.3374C59.523 31.53 58.8682 30.8755 58.0603 30.8755C57.2525 30.8755 56.5977 31.53 56.5977 32.3374C56.5977 33.1448 57.2525 33.7993 58.0603 33.7993Z" fill="black"/>
<path d="M28.8064 26.7524C29.6143 26.7524 30.2691 26.0979 30.2691 25.2905C30.2691 24.4831 29.6143 23.8286 28.8064 23.8286C27.9986 23.8286 27.3438 24.4831 27.3438 25.2905C27.3438 26.0979 27.9986 26.7524 28.8064 26.7524Z" fill="black"/>
<path d="M65.8533 72.2622C66.6611 72.2622 67.316 71.6077 67.316 70.8003C67.316 69.9929 66.6611 69.3384 65.8533 69.3384C65.0455 69.3384 64.3906 69.9929 64.3906 70.8003C64.3906 71.6077 65.0455 72.2622 65.8533 72.2622Z" fill="black"/>
<path d="M74.6326 72.2622C75.4404 72.2622 76.0953 71.6077 76.0953 70.8003C76.0953 69.9929 75.4404 69.3384 74.6326 69.3384C73.8248 69.3384 73.1699 69.9929 73.1699 70.8003C73.1699 71.6077 73.8248 72.2622 74.6326 72.2622Z" fill="black"/>
<path d="M70.2439 67.866C71.0518 67.866 71.7066 67.2114 71.7066 66.4041C71.7066 65.5967 71.0518 64.9421 70.2439 64.9421C69.4361 64.9421 68.7812 65.5967 68.7812 66.4041C68.7812 67.2114 69.4361 67.866 70.2439 67.866Z" fill="black"/>
<path d="M70.2439 76.6567C71.0518 76.6567 71.7066 76.0022 71.7066 75.1948C71.7066 74.3874 71.0518 73.7329 70.2439 73.7329C69.4361 73.7329 68.7812 74.3874 68.7812 75.1948C68.7812 76.0022 69.4361 76.6567 70.2439 76.6567Z" fill="black"/>
</g>
<defs>
<clipPath id="clip0_319_2132">
<rect width="100" height="100" fill="white"/>
</clipPath>
</defs>
</svg>
