<svg width="100" height="100" viewBox="0 0 100 100" fill="none" xmlns="http://www.w3.org/2000/svg">
<g clip-path="url(#clip0_562_807)">
<path d="M97.3805 69.1827C98.8921 64.1191 96.0128 58.7889 90.9492 57.2772C85.8857 55.7656 80.5554 58.6449 79.0437 63.7085C77.5321 68.772 80.4115 74.1023 85.475 75.6139C90.5385 77.1256 95.8688 74.2462 97.3805 69.1827Z" fill="#F9AC00"/>
<path fill-rule="evenodd" clip-rule="evenodd" d="M87.9412 76.0072C82.7941 75.8492 78.6699 71.6276 78.6699 66.442C78.6699 61.2565 82.7941 57.0348 87.9412 56.8768C93.0883 57.0348 97.2127 61.2565 97.2127 66.442C97.2127 71.6276 93.0885 75.8492 87.9412 76.0072Z" fill="#FCDB35"/>
<path d="M93.6231 71.8426C96.6046 68.8611 96.6046 64.0271 93.6231 61.0456C90.6417 58.0641 85.8077 58.0641 82.8262 61.0456C79.8447 64.0271 79.8447 68.8611 82.8262 71.8426C85.8077 74.8241 90.6417 74.8241 93.6231 71.8426Z" fill="#F19A00"/>
<path fill-rule="evenodd" clip-rule="evenodd" d="M88.7324 58.8223C92.7205 59.0756 95.877 62.3898 95.877 66.4418C95.877 70.4937 92.7205 73.8082 88.7324 74.0613C84.7443 73.808 81.5879 70.4937 81.5879 66.4418C81.5879 62.3898 84.7443 59.0756 88.7324 58.8223Z" fill="#F9AC00"/>
<path d="M96.4713 87.084H79.9705C79.2522 87.084 78.6699 87.6663 78.6699 88.3846V91.1482C78.6699 91.8665 79.2522 92.4488 79.9705 92.4488H96.4713C97.1896 92.4488 97.7719 91.8665 97.7719 91.1482V88.3846C97.7719 87.6663 97.1896 87.084 96.4713 87.084Z" fill="#F19A00"/>
<path d="M79.9705 92.4488H96.4715C97.1893 92.4488 97.7721 93.0316 97.7721 93.7494V96.5131C97.7721 97.2309 97.1893 97.8137 96.4715 97.8137H79.9705C79.2527 97.8137 78.6699 97.2309 78.6699 96.5131V93.7492C78.6699 93.0314 79.2525 92.4488 79.9703 92.4488H79.9705Z" fill="#FDC72E"/>
<path d="M96.4713 81.7193H79.9705C79.2522 81.7193 78.6699 82.3016 78.6699 83.0199V85.7836C78.6699 86.5019 79.2522 87.0842 79.9705 87.0842H96.4713C97.1896 87.0842 97.7719 86.5019 97.7719 85.7836V83.0199C97.7719 82.3016 97.1896 81.7193 96.4713 81.7193Z" fill="#FDC72E"/>
<path d="M79.9705 76.3545H96.4717C97.1895 76.3545 97.7721 76.9371 97.7721 77.6549V80.4186C97.7721 81.1363 97.1893 81.7192 96.4715 81.7192H79.9705C79.2527 81.7192 78.6699 81.1363 78.6699 80.4186V77.6547C78.6699 76.9369 79.2525 76.3543 79.9703 76.3543L79.9705 76.3545Z" fill="#F19A00"/>
<path fill-rule="evenodd" clip-rule="evenodd" d="M79.9705 76.3545H94.6043C94.8053 76.3545 94.9691 76.5184 94.9691 76.7193V79.4617C94.9691 80.177 94.384 80.7623 93.6686 80.7623H79.0348C78.8338 80.7623 78.6699 80.5984 78.6699 80.3975V77.6551C78.6699 76.9398 79.2551 76.3547 79.9705 76.3547V76.3545Z" fill="#F9AC00"/>
<path fill-rule="evenodd" clip-rule="evenodd" d="M79.9705 81.7193H94.6043C94.8053 81.7193 94.9691 81.8832 94.9691 82.0842V84.8266C94.9691 85.5418 94.384 86.1271 93.6686 86.1271H79.0348C78.8338 86.1271 78.6699 85.9633 78.6699 85.7623V83.0199C78.6699 82.3047 79.2551 81.7193 79.9705 81.7193Z" fill="#FCDB35"/>
<path fill-rule="evenodd" clip-rule="evenodd" d="M79.9705 87.084H94.6043C94.8053 87.084 94.9691 87.2479 94.9691 87.4488V90.1912C94.9691 90.9064 94.384 91.4918 93.6686 91.4918H79.0348C78.8338 91.4918 78.6699 91.3279 78.6699 91.127V88.3846C78.6699 87.6693 79.2551 87.084 79.9705 87.084Z" fill="#F9AC00"/>
<path fill-rule="evenodd" clip-rule="evenodd" d="M79.9705 92.4488H94.6043C94.8053 92.4488 94.9691 92.6127 94.9691 92.8137V95.556C94.9691 96.2713 94.384 96.8566 93.6686 96.8566H79.0348C78.8338 96.8566 78.6699 96.6928 78.6699 96.4918V93.7494C78.6699 93.0342 79.2551 92.4488 79.9705 92.4488Z" fill="#FCDB35"/>
<path d="M41.1367 49.2373H47.5801V67.9809H41.1367V49.2373Z" fill="#FDC72E"/>
<path d="M29.8516 58.9025H36.2949V67.9809H29.8516V58.9025Z" fill="#FB545C"/>
<path d="M52.4219 52.534H58.8652V67.9809H52.4219V52.534Z" fill="#2DD62D"/>
<path d="M63.7051 42.3814H70.1484V67.9809H63.7051V42.3814Z" fill="#4EB1FC"/>
<path fill-rule="evenodd" clip-rule="evenodd" d="M43.7274 39.032C45.0278 38.6836 46.3645 39.4553 46.713 40.7557C47.0614 42.0561 46.2897 43.3928 44.9891 43.7412C43.6887 44.0896 42.352 43.318 42.0036 42.0174C41.6552 40.717 42.4268 39.3805 43.7274 39.032Z" fill="#FDC72E"/>
<path fill-rule="evenodd" clip-rule="evenodd" d="M55.0106 43.4277C56.311 43.0793 57.6477 43.851 57.9962 45.1515C58.3446 46.4519 57.5729 47.7887 56.2723 48.1371C54.9718 48.4855 53.6352 47.7139 53.2868 46.4135C52.9384 45.1131 53.71 43.7764 55.0104 43.4279L55.0106 43.4277Z" fill="#2DD62D"/>
<path fill-rule="evenodd" clip-rule="evenodd" d="M66.3366 32.1019C67.637 31.7535 68.9737 32.5252 69.3221 33.8258C69.6706 35.1264 68.8989 36.4629 67.5985 36.8113C66.2981 37.1598 64.9614 36.3881 64.613 35.0877C64.2645 33.7873 65.0362 32.4506 66.3368 32.1021L66.3366 32.1019Z" fill="#4EB1FC"/>
<path fill-rule="evenodd" clip-rule="evenodd" d="M32.4423 50.1496C33.7427 49.8011 35.0794 50.5728 35.4278 51.8734C35.7762 53.1738 35.0046 54.5105 33.704 54.859C32.4036 55.2074 31.0669 54.4357 30.7184 53.1351C30.37 51.8345 31.1417 50.498 32.4421 50.1496H32.4423Z" fill="#FB545C"/>
<path d="M18.7047 87.8912C25.1852 87.8912 30.4387 82.6377 30.4387 76.1572C30.4387 69.6767 25.1852 64.4232 18.7047 64.4232C12.2242 64.4232 6.9707 69.6767 6.9707 76.1572C6.9707 82.6377 12.2242 87.8912 18.7047 87.8912Z" fill="#29B933"/>
<path fill-rule="evenodd" clip-rule="evenodd" d="M17.4596 87.8254C11.5645 87.2035 6.9707 82.2172 6.9707 76.1572C6.9707 70.0973 11.5645 65.1109 17.4596 64.4891C23.3547 65.1109 27.9484 70.0975 27.9484 76.1572C27.9484 82.217 23.3547 87.2035 17.4596 87.8254Z" fill="#2DD62D"/>
<path d="M81.4039 29.6637C84.548 29.6637 87.0969 27.1148 87.0969 23.9707C87.0969 20.8266 84.548 18.2777 81.4039 18.2777C78.2598 18.2777 75.7109 20.8266 75.7109 23.9707C75.7109 27.1148 78.2598 29.6637 81.4039 29.6637Z" stroke="black" stroke-width="12" stroke-linejoin="round"/>
<path d="M85.432 28.0166C87.6632 25.7855 87.6632 22.1681 85.432 19.9369C83.2009 17.7058 79.5835 17.7058 77.3523 19.9369C75.1212 22.1681 75.1212 25.7855 77.3523 28.0166C79.5835 30.2478 83.2009 30.2478 85.432 28.0166Z" fill="white" stroke="black" stroke-width="9.99849" stroke-linejoin="round"/>
<path fill-rule="evenodd" clip-rule="evenodd" d="M79.1074 15.0766L76.7373 16.0596L74.841 14.7879L72.2195 17.4094L73.4914 19.3057L72.5082 21.6758L70.2695 22.1172V25.8242L72.5082 26.2656L73.4914 28.6357L72.2195 30.532L74.841 33.1535L76.7373 31.8816L79.1074 32.8648L79.5488 35.1035H83.2561L83.6975 32.8648L86.0674 31.8816L87.9637 33.1535L90.5852 30.532L89.3135 28.6357L90.2965 26.2656L92.5352 25.8242V22.1172L90.2965 21.6758L89.3135 19.3057L90.5852 17.4094L87.9637 14.7879L86.0674 16.0596L83.6975 15.0766L83.2561 12.8379H79.5488L79.1074 15.0766Z" fill="#5D689E"/>
<path fill-rule="evenodd" clip-rule="evenodd" d="M79.1074 15.0766L78.2207 15.4443L78.2057 15.4506L76.7373 16.0596L76.7363 16.059L76.2328 16.2674L74.5141 15.1148L72.2197 17.4094L73.4914 19.3057L72.5082 21.6758L70.2695 22.1172V25.8242L72.5082 26.2656L73.4914 28.6357L72.2197 30.532L74.5143 32.8266L76.2328 31.674L76.7361 31.8824L76.7373 31.8816L79.1074 32.8648L79.5488 35.1035H82.6764L83.1387 32.7588L85.7562 31.673L86.0674 31.8816L87.4764 32.8266L89.7709 30.532L88.4992 28.6357L89.6812 25.7779L91.7209 25.3758V23.9707V22.5656L89.6812 22.1635L88.4992 19.3057L89.7709 17.4094L87.4764 15.1148L85.7562 16.2684L83.1387 15.1826L82.6764 12.8379H79.5488L79.1074 15.0766Z" fill="#7986BF"/>
<path d="M82.5737 29.4185C85.5675 28.3645 87.14 25.0831 86.086 22.0893C85.0319 19.0955 81.7505 17.523 78.7567 18.577C75.7629 19.631 74.1904 22.9124 75.2444 25.9063C76.2984 28.9001 79.5799 30.4726 82.5737 29.4185Z" fill="#5D689E"/>
<path d="M81.4025 29.7187C84.5772 29.7187 87.1508 27.1452 87.1508 23.9705C87.1508 20.7958 84.5772 18.2223 81.4025 18.2223C78.2279 18.2223 75.6543 20.7958 75.6543 23.9705C75.6543 27.1452 78.2279 29.7187 81.4025 29.7187Z" fill="#F3F3FF"/>
<path d="M68.1562 42.3814H70.1494V67.9809H68.1562V42.3814Z" fill="#2A92FA"/>
<path d="M56.8711 52.534H58.8643V67.9809H56.8711V52.534Z" fill="#29B933"/>
<path d="M45.5859 49.2373H47.5791V67.9809H45.5859V49.2373Z" fill="#F9AC00"/>
<path d="M34.3027 58.9025H36.2959V67.9809H34.3027V58.9025Z" fill="#E8333C"/>
<path d="M2.11328 2.13068H57.1914V29.4578H2.11328V2.13068Z" fill="#2DD62D"/>
<path fill-rule="evenodd" clip-rule="evenodd" d="M50.9621 4.99161C50.6805 7.0377 52.0223 8.40762 53.4023 8.40762V12.9537H5.9043V8.40762C7.28418 8.40762 8.62598 7.0377 8.34453 4.99161H50.9623H50.9621Z" fill="#29B933"/>
<path fill-rule="evenodd" clip-rule="evenodd" d="M9.32031 5.9205H49.9865C49.9865 7.80703 51.5158 9.33652 53.4025 9.33652V22.2518C51.5158 22.2518 49.9865 23.7812 49.9865 25.6678H9.32031C9.32031 23.781 7.79102 22.2518 5.9043 22.2518V9.33652C7.79082 9.33652 9.32031 7.80703 9.32031 5.9205Z" fill="#96FF96"/>
<path d="M55.916 2.13068H57.192V29.4578H55.916V2.13068Z" fill="#29B933"/>
<path fill-rule="evenodd" clip-rule="evenodd" d="M76.8904 23.9715C76.8904 21.4834 78.9139 19.458 81.4023 19.458C83.8908 19.458 85.916 21.4834 85.916 23.9715C85.916 26.4596 83.8906 28.4834 81.4023 28.4834C78.9141 28.4834 76.8904 26.46 76.8904 23.9715ZM88.2596 23.9715C88.2596 20.1902 85.184 17.1145 81.4023 17.1145C77.6207 17.1145 74.5471 20.1904 74.5471 23.9715C74.5471 27.7525 77.6236 30.8272 81.4023 30.8272C85.1811 30.8272 88.2596 27.7508 88.2596 23.9715ZM76.1057 30.8738C76.4322 30.6551 76.8463 30.6143 77.2078 30.7646L79.5672 31.7451C79.9305 31.8932 80.1922 32.2156 80.2684 32.6006L80.5215 33.8836H82.2852L82.5393 32.6006C82.6137 32.2156 82.8772 31.8932 83.2385 31.7451L85.5998 30.7646C85.9611 30.6143 86.3754 30.6551 86.701 30.8738L87.7889 31.6043L89.035 30.3561L88.3064 29.2682C88.0881 28.942 88.0467 28.5301 88.1973 28.1668L89.176 25.8074C89.3266 25.4441 89.6465 25.1824 90.0314 25.1063L91.316 24.8521V23.0887L90.0314 22.8346C89.6465 22.7604 89.3266 22.4967 89.176 22.1354L88.1973 19.774C88.0467 19.4131 88.0881 18.9986 88.3064 18.6727L89.035 17.5848L87.7889 16.3385L86.701 17.0672C86.3754 17.2859 85.9613 17.327 85.5998 17.1768L83.2385 16.198C82.8772 16.0477 82.6137 15.7275 82.5393 15.3426L82.2852 14.0596H80.5215L80.2684 15.3426C80.1922 15.7275 79.9305 16.0477 79.5672 16.198L77.2078 17.1768C76.8465 17.327 76.4324 17.2859 76.1057 17.0672L75.0178 16.3385L73.7699 17.5848L74.5002 18.6727C74.7195 18.9988 74.76 19.4131 74.6094 19.774L73.6316 22.1354C73.481 22.4967 73.1592 22.7604 72.7742 22.8346L71.4904 23.0887V24.8521L72.7742 25.1063C73.1592 25.1822 73.481 25.4439 73.6316 25.8074L74.6094 28.1668C74.76 28.5301 74.7195 28.9422 74.5002 29.2682L73.7699 30.3561L75.0178 31.6043L76.1057 30.8738ZM78.4086 35.2822C78.5158 35.8311 78.9986 36.2275 79.5568 36.2275H83.248C83.809 36.2275 84.2898 35.8313 84.399 35.2822L84.7172 33.6689L85.9162 33.1707L87.2838 34.0869C87.7486 34.3994 88.3699 34.3387 88.7643 33.942L91.375 31.333C91.7703 30.9363 91.8305 30.3154 91.5199 29.8504L90.6043 28.4854L91.1004 27.2842L92.7154 26.9658C93.2641 26.8582 93.6613 26.3758 93.6613 25.8174V22.126C93.6613 21.5652 93.2641 21.0848 92.7154 20.9756L91.1004 20.6572L90.6043 19.458L91.5199 18.0908C91.8305 17.6258 91.7703 17.0049 91.375 16.6104L88.7643 13.999C88.3699 13.6047 87.7486 13.5439 87.2838 13.8545L85.9162 14.7703L84.7172 14.2744L84.399 12.6611C84.2898 12.1102 83.809 11.7154 83.248 11.7154H79.5568C78.9988 11.7154 78.516 12.11 78.4086 12.6611L78.0895 14.2744L76.8885 14.7703L75.5238 13.8545C75.059 13.5437 74.4377 13.6045 74.0416 13.999L71.4318 16.6104C71.0355 17.0049 70.9744 17.6258 71.2869 18.0908L72.2035 19.458L71.7047 20.6572L70.0916 20.9756C69.543 21.0848 69.1467 21.5652 69.1467 22.126V25.8174C69.1467 26.3758 69.5428 26.8582 70.0916 26.9658L71.7047 27.2842L72.2035 28.4854L71.2869 29.8504C70.9744 30.3154 71.0355 30.9363 71.4318 31.333L74.0416 33.942C74.4377 34.3387 75.059 34.3994 75.5238 34.0869L76.8885 33.1707L78.0895 33.6689L78.4086 35.2822ZM23.4381 80.4775C23.4381 80.9814 23.0277 81.3896 22.5252 81.3896C22.0227 81.3896 21.616 80.9816 21.616 80.4775V79.8992C21.616 79.3975 22.0236 78.9893 22.5252 78.9893C23.0268 78.9893 23.4381 79.3973 23.4381 79.8992V80.4775ZM22.5252 76.6457C20.7305 76.6457 19.2717 78.1045 19.2717 79.8992V80.4775C19.2717 82.2744 20.7305 83.7332 22.5252 83.7332C24.3199 83.7332 25.7814 82.2744 25.7814 80.4775V79.8992C25.7814 78.1045 24.3207 76.6457 22.5252 76.6457ZM13.973 72.4148V71.8369C13.973 71.3348 14.3814 70.9248 14.8832 70.9248C15.3877 70.9248 15.7951 71.3348 15.7951 71.8369V72.4148C15.7951 72.9188 15.3875 73.327 14.8832 73.327C14.3816 73.327 13.973 72.9189 13.973 72.4148ZM18.1385 72.4148V71.8369C18.1385 70.0418 16.6777 68.5811 14.883 68.5811C13.0883 68.5811 11.6295 70.0416 11.6295 71.8369V72.4148C11.6295 74.21 13.0883 75.6705 14.883 75.6705C16.6777 75.6705 18.1385 74.21 18.1385 72.4148ZM23.1727 70.7627C23.4965 70.202 23.3053 69.4852 22.7443 69.1609C22.1844 68.8391 21.4672 69.0301 21.1426 69.5908L14.2363 81.5518C13.9127 82.1123 14.1055 82.8289 14.6664 83.1531C14.85 83.2605 15.0514 83.3117 15.25 83.3117C15.6564 83.3117 16.049 83.1006 16.2654 82.7234L23.1727 70.7627ZM18.7051 86.7195C24.5299 86.7195 29.2676 81.9814 29.2676 76.1568C29.2676 70.3322 24.5299 65.5943 18.7051 65.5943C12.8803 65.5943 8.14258 70.3328 8.14258 76.1568C8.14258 81.9809 12.8812 86.7195 18.7051 86.7195ZM31.0238 60.075H35.1234V66.8094H31.0238V60.075ZM29.502 69.1006C29.6121 69.1336 29.7307 69.1531 29.8521 69.1531H36.2951C36.9418 69.1531 37.4668 68.6277 37.4668 67.9811V58.9029C37.4668 58.2545 36.9416 57.7313 36.2951 57.7313H29.8521C29.2055 57.7313 28.6805 58.2545 28.6805 58.9029V67.9773C26.3107 65.0943 22.7193 63.2508 18.7053 63.2508C11.5883 63.2508 5.79922 69.0418 5.79922 76.1568C5.79922 83.2719 11.5883 89.0631 18.7053 89.0631C25.8223 89.0631 31.6121 83.2742 31.6121 76.1568C31.6121 73.5535 30.8328 71.1297 29.5021 69.1004L29.502 69.1006ZM96.6801 96.542C96.6801 96.6158 96.6152 96.6805 96.5426 96.6805H79.9379C79.8654 96.6805 79.8004 96.6158 79.8004 96.542V93.7604C79.8004 93.6883 79.8652 93.6236 79.9379 93.6236H96.5426C96.615 93.6236 96.6801 93.6883 96.6801 93.7604V96.542ZM96.6801 88.3621V91.1432C96.6801 91.2174 96.6152 91.2799 96.5426 91.2799H79.9379C79.8654 91.2799 79.8004 91.2174 79.8004 91.1432V88.3621C79.8004 88.29 79.8652 88.2254 79.9379 88.2254H96.5426C96.615 88.2254 96.6801 88.29 96.6801 88.3621ZM96.6801 85.7449C96.6801 85.8174 96.6152 85.8816 96.5426 85.8816H79.9379C79.8654 85.8816 79.8004 85.8174 79.8004 85.7449V82.9639C79.8004 82.9619 79.8031 82.827 79.8652 82.827H96.4689C96.5762 82.827 96.676 82.9266 96.6797 82.9639V85.7449H96.6801ZM79.8006 77.5654C79.8006 77.4932 79.8654 77.4287 79.9381 77.4287H96.5428C96.6152 77.4287 96.6803 77.4932 96.6803 77.5654V80.3467C96.6803 80.4188 96.6154 80.4834 96.5428 80.4834V80.4871C96.5184 80.4871 96.4947 80.4834 96.4693 80.4834H79.9381C79.8656 80.4834 79.8006 80.4188 79.8006 80.3467V77.5654ZM79.8006 66.4463C79.8006 61.792 83.5859 58.0068 88.2408 58.0068C92.8957 58.0068 96.6801 61.792 96.6801 66.4463C96.6801 71.1006 92.8947 74.8857 88.2408 74.8857C83.5869 74.8857 79.8006 71.1006 79.8006 66.4463ZM96.5426 75.085H94.6877C97.3191 73.116 99.0234 69.9773 99.0234 66.4463C99.0234 60.501 94.1859 55.6629 88.2406 55.6629C82.2953 55.6629 77.457 60.501 77.457 66.4463C77.457 69.9773 79.1623 73.116 81.793 75.085H79.9381C78.5705 75.085 77.4572 76.1982 77.4572 77.5654V80.3467C77.4572 80.8195 77.5928 81.2606 77.8225 81.6355C77.5928 82.0188 77.4572 82.4715 77.4572 82.9639V85.7449C77.4572 86.2254 77.5955 86.6729 77.8346 87.0537C77.5955 87.4346 77.4572 87.8816 77.4572 88.3621V91.1432C77.4572 91.6236 77.5955 92.0731 77.8346 92.452C77.5955 92.8328 77.4572 93.2799 77.4572 93.7604V96.542C77.4572 97.9111 78.5705 99.0242 79.9381 99.0242H96.5428C97.9104 99.0242 99.0236 97.9109 99.0236 96.542V93.7604C99.0236 93.2799 98.8854 92.8328 98.6473 92.452C98.8854 92.0729 99.0236 91.6236 99.0236 91.1432V88.3621C99.0236 87.8816 98.8854 87.4346 98.6473 87.0537C98.8854 86.6729 99.0236 86.2254 99.0236 85.7449V82.9639C99.0236 82.4951 98.8797 82.0535 98.635 81.6748C98.8797 81.2898 99.0236 80.8348 99.0236 80.3465V77.5652C99.0236 76.1981 97.9104 75.0848 96.5428 75.0848L96.5426 75.085ZM86.5805 64.6846C86.7074 64.7842 86.877 64.868 87.0689 64.9463V63.167C86.8025 63.2607 86.5805 63.3877 86.4299 63.542C86.2662 63.7137 86.1824 63.9092 86.1955 64.0928C86.2152 64.3504 86.4139 64.5574 86.5805 64.6848V64.6846ZM90.3789 68.7293C90.3262 68.6338 90.1174 68.3506 89.4123 68.0613V69.7939C89.9789 69.6494 90.3318 69.3973 90.393 69.1943C90.4768 68.9051 90.408 68.7822 90.3789 68.7293ZM86.0176 68.7334C85.8689 68.1025 85.2402 67.71 84.6096 67.8586C83.9781 68.0049 83.5885 68.634 83.7344 69.2646C84.0703 70.7061 85.3324 71.7527 87.0687 72.1143V72.708C87.0687 73.3547 87.5939 73.8801 88.2404 73.8801C88.8869 73.8801 89.4121 73.3547 89.4121 72.708V72.1809C91.0449 71.9346 92.2853 71.0713 92.6402 69.8525C92.8746 69.0496 92.8031 68.2684 92.4314 67.5967C91.9316 66.6904 90.9162 66.0166 89.4123 65.5869V63.1535C89.7559 63.2645 90.3383 63.5168 90.4437 63.9834C90.5877 64.6143 91.2147 65.0109 91.8451 64.8664C92.4785 64.7236 92.8728 64.0947 92.7289 63.4639C92.4475 62.2275 91.4236 61.2783 89.9215 60.8607C89.7596 60.8156 89.5883 60.7783 89.4123 60.7453V60.1846C89.4123 59.5383 88.8871 59.0129 88.2406 59.0129C87.5941 59.0129 87.0689 59.5383 87.0689 60.1846V60.7471C86.1898 60.9133 85.3531 61.2805 84.7406 61.9191C84.1082 62.5771 83.7957 63.4096 83.8578 64.2629C83.9219 65.1359 84.3773 65.9426 85.1426 66.5363C85.6996 66.9701 86.385 67.2219 87.0691 67.4135V69.6807C86.543 69.4895 86.1215 69.1769 86.018 68.7336L86.0176 68.7334ZM60.043 10.409C60.2387 9.7916 60.8965 9.4502 61.5141 9.64531L63.7482 10.3523C64.3656 10.5475 64.7072 11.2061 64.5125 11.8232C64.3535 12.3232 63.8904 12.6416 63.3943 12.6416C63.2777 12.6416 63.1582 12.624 63.0396 12.5867L60.8045 11.8797C60.19 11.6842 59.8482 11.026 60.0432 10.4088L60.043 10.409ZM66.807 12.7566C67.1119 12.1863 67.8225 11.9713 68.3928 12.276L70.4596 13.3816C71.0299 13.6863 71.2445 14.3973 70.9395 14.9676C70.7287 15.3621 70.324 15.5867 69.9061 15.5867C69.7188 15.5867 69.5297 15.542 69.3535 15.4482L67.2867 14.3428C66.7164 14.0381 66.5 13.327 66.8068 12.7568L66.807 12.7566ZM89.6232 40.0943C89.5066 40.1297 89.3889 40.1473 89.274 40.1473C88.7752 40.1473 88.3131 39.8248 88.1568 39.323L87.4613 37.085C87.2693 36.4654 87.6156 35.8092 88.232 35.6182C88.8514 35.4266 89.5072 35.7703 89.6992 36.3895L90.3947 38.6277C90.5857 39.2449 90.2404 39.9033 89.623 40.0945L89.6232 40.0943ZM9.88086 62.1943C9.68047 61.5793 10.0164 60.9172 10.6309 60.7156C11.2465 60.5145 11.9061 60.8506 12.1076 61.466L12.6018 62.9719C12.8014 63.5887 12.4672 64.249 11.8516 64.4502C11.7301 64.4896 11.6078 64.509 11.4865 64.509C10.9943 64.509 10.5359 64.1943 10.3732 63.7002L9.88086 62.1943ZM8.30352 54.499C8.22168 53.8586 8.67441 53.2705 9.31523 53.1885C9.95703 53.1047 10.5453 53.5598 10.6271 54.2002L10.9264 56.5266C11.0082 57.167 10.5547 57.7549 9.91191 57.8371C9.86211 57.843 9.81309 57.8467 9.76231 57.8467C9.18164 57.8467 8.67812 57.415 8.60195 56.8254L8.30352 54.499ZM12.4295 35.2959C12.2639 35.2959 12.0963 35.2605 11.9354 35.1846C11.348 34.9109 11.0959 34.2141 11.3687 33.6279L12.1311 31.9953C12.4039 31.4092 13.1023 31.1553 13.6877 31.4287C14.273 31.7023 14.5271 32.3994 14.2543 32.9854L13.492 34.6184C13.2934 35.0459 12.8719 35.2959 12.4295 35.2959ZM9.4375 45.5246C10.0822 45.5635 10.5744 46.1201 10.5357 46.7646L10.3945 49.1047C10.3578 49.7273 9.84199 50.2061 9.22656 50.2061C9.20312 50.2061 9.17754 50.2061 9.1541 50.2043C8.50742 50.1648 8.01621 49.6105 8.05488 48.9639L8.19512 46.6242C8.23652 45.9775 8.79082 45.4912 9.4375 45.5246ZM8.98867 41.1398L9.56465 38.8682C9.72461 38.2414 10.3619 37.8605 10.9887 38.0203C11.6154 38.1789 11.9967 38.8174 11.8365 39.4441L11.2596 41.7158C11.125 42.2471 10.6488 42.6004 10.1256 42.6004C10.0297 42.6004 9.93359 42.5889 9.83672 42.5635C9.20996 42.4051 8.83066 41.7664 8.98887 41.1396L8.98867 41.1398ZM55.7459 90.4406C55.7949 91.0852 55.3111 91.6494 54.6664 91.6982L52.3285 91.8762C52.2994 91.8779 52.2684 91.8779 52.2381 91.8779C51.6311 91.8779 51.1172 91.4111 51.0701 90.7959C51.0221 90.1492 51.5059 89.5867 52.1506 89.5379L54.4885 89.3604C55.135 89.3133 55.6959 89.7961 55.7459 90.4404V90.4406ZM33.2289 87.2451C33.0182 87.6418 32.6133 87.8664 32.1938 87.8664C32.0084 87.8664 31.8211 87.8234 31.6451 87.7297L29.5746 86.6301C29.0043 86.3252 28.7859 85.6164 29.0898 85.0459C29.393 84.4738 30.1016 84.2568 30.6748 84.5594L32.7443 85.659C33.3166 85.9639 33.534 86.6729 33.2291 87.2449L33.2289 87.2451ZM70.199 85.5029C70.4832 86.0854 70.2385 86.7863 69.6568 87.0695L67.5486 88.093C67.383 88.173 67.2098 88.2102 67.0375 88.2102C66.6018 88.2102 66.1857 87.968 65.9824 87.5498C65.6992 86.9678 65.942 86.2668 66.5254 85.9834L68.6326 84.96C69.2152 84.6768 69.9164 84.9209 70.1986 85.5029H70.199ZM63.2053 88.6535C63.3728 89.2785 63.0039 89.9211 62.3791 90.091L60.1176 90.7023C60.0141 90.7295 59.9125 90.7432 59.8107 90.7432C59.2932 90.7432 58.8207 90.3994 58.6805 89.876C58.5119 89.251 58.8809 88.6088 59.5059 88.4385L61.7674 87.827C62.3932 87.6594 63.035 88.0285 63.2053 88.6535ZM40.4889 89.7236C40.3326 90.2254 39.8697 90.5498 39.3699 90.5498C39.2541 90.5498 39.1375 90.532 39.0217 90.4973L36.7836 89.8039C36.1643 89.6123 35.8189 88.9543 36.01 88.3369C36.202 87.7178 36.858 87.3723 37.4771 87.5635L39.7152 88.2568C40.3344 88.4484 40.6799 89.1047 40.4889 89.7236ZM76.4813 81.1008C76.868 81.6201 76.7598 82.3525 76.2402 82.7395L74.3617 84.1398C74.151 84.2961 73.9043 84.3721 73.6625 84.3721C73.3049 84.3721 72.952 84.2082 72.7213 83.8996C72.3344 83.3801 72.4418 82.6475 72.9613 82.2607L74.8398 80.8604C75.3594 80.4736 76.0943 80.5809 76.4813 81.1008ZM48.0822 90.802C48.0164 91.3994 47.5082 91.8428 46.9209 91.8428C46.8758 91.8428 46.8324 91.8391 46.7873 91.8352L44.4598 91.5715C43.815 91.499 43.3521 90.9189 43.4264 90.2766C43.4988 89.634 44.0785 89.1689 44.7215 89.2432L47.0488 89.5049C47.6936 89.5791 48.1566 90.1592 48.0822 90.8018V90.802ZM89.4635 53.2531L89.6057 50.9152C89.6451 50.2686 90.2033 49.7805 90.8461 49.8152C91.4926 49.8545 91.9848 50.4111 91.9453 51.0574L91.8031 53.3955C91.7637 54.0184 91.2488 54.4969 90.6332 54.4969C90.6098 54.4969 90.5861 54.4969 90.5607 54.4949C89.916 54.4557 89.4238 53.899 89.4635 53.2527V53.2531ZM89.1643 43.9758C89.0898 43.3332 89.5529 42.7531 90.1957 42.6787C90.8404 42.6045 91.4201 43.0672 91.4926 43.71L91.7598 46.0383C91.8322 46.6809 91.3711 47.2629 90.7293 47.335C90.6842 47.3408 90.6389 47.343 90.5938 47.343C90.0064 47.343 89.4982 46.9033 89.4305 46.3037L89.1641 43.9758H89.1643ZM38.1529 15.7937C38.1529 15.1475 38.6781 14.6221 39.3246 14.6221H45.5221C46.1676 14.6221 46.6938 15.1475 46.6938 15.7937C46.6938 16.44 46.1676 16.9658 45.5221 16.9658H39.3246C38.6781 16.9658 38.1529 16.4422 38.1529 15.7937ZM12.6139 15.7937C12.6139 15.1475 13.1371 14.6221 13.7855 14.6221H19.9803C20.6297 14.6221 21.1529 15.1475 21.1529 15.7937C21.1529 16.44 20.6297 16.9658 19.9803 16.9658H13.7855C13.1371 16.9658 12.6139 16.4422 12.6139 15.7937ZM27.8162 13.9715C27.6271 13.8252 27.3945 13.5828 27.3711 13.2744C27.3561 13.0539 27.4529 12.8211 27.6486 12.6182C27.8379 12.4207 28.1314 12.2668 28.4807 12.159V14.3135C28.2172 14.216 27.9865 14.1047 27.8162 13.9715ZM32.024 18.2041C32.0805 18.3055 32.1352 18.4617 32.0447 18.7684C31.9609 19.0576 31.4961 19.3467 30.824 19.4971V17.4016C31.6738 17.7256 31.943 18.0598 32.024 18.2041ZM27.1818 18.2684C27.035 17.6375 26.4045 17.2471 25.7758 17.3934C25.1453 17.54 24.7518 18.1709 24.9006 18.8018C25.2563 20.3311 26.6152 21.4404 28.4807 21.8076V22.5164C28.4807 23.1631 29.0059 23.6885 29.6523 23.6885C30.2988 23.6885 30.824 23.1631 30.824 22.5164V21.8719C32.3873 21.6494 33.8715 20.876 34.2949 19.4268C34.5396 18.5867 34.4652 17.7725 34.0756 17.0691C33.5504 16.1199 32.4766 15.407 30.8822 14.9541C30.8635 14.9482 30.8436 14.9441 30.8238 14.9383V12.1453C31.1758 12.2449 31.9645 12.532 32.101 13.1316C32.2459 13.7645 32.8746 14.1588 33.5043 14.0145C34.1348 13.8719 34.5311 13.2449 34.3871 12.6123C34.0916 11.3152 33.0158 10.3211 31.4338 9.88184C31.2408 9.82715 31.0357 9.78398 30.824 9.74922V9.07305C30.824 8.42676 30.3008 7.90137 29.6523 7.90137C29.0039 7.90137 28.4807 8.42676 28.4807 9.07305V9.75859C27.5141 9.93066 26.6002 10.3252 25.9574 10.9949C25.2967 11.6824 24.9691 12.5533 25.0352 13.4459C25.102 14.358 25.5801 15.2018 26.3811 15.823C26.9844 16.2918 27.7344 16.5631 28.4807 16.7664V19.3854C27.8379 19.1766 27.309 18.8076 27.1818 18.2684ZM7.10527 10.366V21.2234C8.69395 21.6437 9.9457 22.8973 10.3654 24.4834H48.9395C49.3602 22.8975 50.6139 21.6437 52.1996 21.2234V10.366C50.6139 9.94434 49.3602 8.69219 48.9395 7.1043H10.3654C9.9457 8.69219 8.69395 9.94434 7.10527 10.366ZM5.93359 23.4148C7.16836 23.4148 8.17441 24.4207 8.17441 25.6553C8.17441 26.3037 8.69766 26.827 9.34609 26.827H49.9615C50.6082 26.827 51.1332 26.3037 51.1332 25.6553C51.1332 24.4207 52.1375 23.4148 53.3713 23.4148C54.0197 23.4148 54.543 22.8914 54.543 22.2432V9.34473C54.543 8.69805 54.0197 8.17266 53.3713 8.17266C52.1375 8.17266 51.1332 7.16895 51.1332 5.93262C51.1332 5.28594 50.608 4.76074 49.9615 4.76074H9.34609C8.69766 4.76074 8.17441 5.28594 8.17441 5.93262C8.17441 7.16895 7.16836 8.17266 5.93359 8.17266C5.28711 8.17266 4.76191 8.69805 4.76191 9.34473V22.2434C4.76191 22.8914 5.28711 23.4148 5.93359 23.4148ZM55.9848 28.2684V3.31895H3.3209V28.2684H55.9848ZM58.3281 29.4404V2.14727C58.3281 1.50078 57.8049 0.975586 57.1564 0.975586H2.14824C1.50273 0.975586 0.976562 1.50078 0.976562 2.14727V29.4404C0.976562 30.0891 1.50273 30.6121 2.14824 30.6121H57.1564C57.8049 30.6121 58.3281 30.0889 58.3281 29.4404ZM65.8713 33.823C66.0416 33.5322 66.3147 33.3213 66.6412 33.2332C67.3141 33.0535 68.0096 33.4561 68.1912 34.1295C68.2777 34.4559 68.2326 34.7975 68.0643 35.0904C67.8949 35.3814 67.6228 35.5926 67.2953 35.6805C66.9688 35.7684 66.6291 35.7234 66.3363 35.5533C66.0428 35.3834 65.8318 35.1121 65.7463 34.7838C65.6578 34.4576 65.7029 34.1158 65.8715 33.8229L65.8713 33.823ZM56.7385 46.415C56.5701 46.708 56.2971 46.9189 55.9705 47.0051C55.6449 47.093 55.3023 47.0477 55.0096 46.8797C54.7168 46.71 54.508 46.4363 54.4195 46.1104C54.332 45.7842 54.3771 45.4424 54.5475 45.1496C54.7148 44.8566 54.9879 44.6475 55.3145 44.5596C55.4236 44.5301 55.5355 44.5166 55.6447 44.5166C55.8631 44.5166 56.0805 44.573 56.2752 44.6865C56.568 44.8566 56.7777 45.1279 56.8652 45.4562C56.9527 45.7824 56.9086 46.1221 56.7381 46.415H56.7385ZM44.6852 42.6104C44.0113 42.79 43.3168 42.3898 43.1352 41.7141C43.0467 41.3875 43.0918 41.0479 43.2623 40.7549C43.4299 40.4619 43.7037 40.2531 44.0293 40.1652H44.0312C44.1385 40.1357 44.2506 40.1199 44.3598 40.1199C44.5801 40.1199 44.7955 40.1787 44.9902 40.2902C45.2838 40.46 45.4928 40.7336 45.5803 41.0596C45.7619 41.7336 45.36 42.4287 44.6854 42.6104H44.6852ZM33.3998 53.7277C33.0742 53.8156 32.7324 53.7707 32.4398 53.6006C32.1463 53.4326 31.9373 53.1594 31.8498 52.833C31.7633 52.5051 31.8084 52.1654 31.9768 51.8725C32.1461 51.5795 32.4182 51.3703 32.7467 51.2824C33.4205 51.1008 34.115 51.5033 34.2949 52.177C34.4766 52.8508 34.0738 53.5463 33.4 53.7279L33.3998 53.7277ZM63.8422 32.6533C64.324 31.8172 65.1033 31.2199 66.0332 30.9699C67.957 30.4561 69.9398 31.6008 70.4547 33.5225C70.7051 34.4541 70.576 35.4268 70.0934 36.2629C69.6115 37.0967 68.8342 37.6945 67.9023 37.9445C67.5918 38.0266 67.2756 38.0676 66.9631 38.0676C66.4182 38.0676 65.8789 37.9445 65.383 37.7004L58.8854 44.1967C58.9861 44.4035 59.0689 44.6223 59.1291 44.8488C59.3795 45.7809 59.2496 46.7533 58.7678 47.5875C58.2869 48.4234 57.5076 49.0209 56.5758 49.2689C56.2662 49.3527 55.949 49.3939 55.6365 49.3939C55.0115 49.3939 54.3951 49.2299 53.8379 48.9094C53.0021 48.4272 52.4064 47.6477 52.1561 46.7184C52.0611 46.3588 52.0215 45.9955 52.0348 45.6359L47.1117 43.718C46.6523 44.2609 46.0293 44.6771 45.2934 44.8742C44.9809 44.9584 44.6686 44.9973 44.3598 44.9973C43.7932 44.9973 43.2445 44.8605 42.7523 44.6147L36.3262 50.9445C36.4203 51.1437 36.5002 51.3508 36.5605 51.5713C37.0744 53.4934 35.9301 55.4756 34.0082 55.9914C33.6977 56.0756 33.3814 56.1164 33.067 56.1164C32.4422 56.1164 31.8246 55.9525 31.2676 55.6301C30.4338 55.1494 29.8361 54.3705 29.5867 53.4387C29.3383 52.507 29.4652 51.5346 29.948 50.7006C30.4299 49.8645 31.2072 49.2689 32.1391 49.0189C33.0236 48.7826 33.9178 48.8998 34.6783 49.2785L41.1035 42.9484C41.0103 42.7492 40.9303 42.5404 40.8711 42.3217C40.6217 41.39 40.7506 40.4172 41.2324 39.5832C41.7152 38.7477 42.4926 38.1498 43.4244 37.9018C44.3561 37.6518 45.3283 37.7789 46.1621 38.2613C46.9988 38.7438 47.5965 39.523 47.8439 40.4527C47.9418 40.816 47.9785 41.1793 47.9654 41.5348L52.8895 43.4527C53.36 42.8939 53.9867 42.49 54.7096 42.2965C55.5586 42.0697 56.4422 42.1598 57.2252 42.5424L63.7248 36.0426C63.625 35.8375 63.5432 35.6188 63.483 35.3918C63.2326 34.4602 63.3598 33.4877 63.8426 32.6537L63.8422 32.6533ZM68.9762 66.8096V43.5537H64.8766V66.8096H68.9762ZM70.1488 41.21H63.7047C63.0582 41.21 62.533 41.7354 62.533 42.3816V67.9812C62.533 68.6279 63.0582 69.1533 63.7047 69.1533H70.1488C70.7973 69.1533 71.3205 68.6279 71.3205 67.9812V42.3816C71.3205 41.7354 70.7973 41.21 70.1488 41.21ZM57.6918 66.8096V53.7061H53.5922V66.8096H57.6918ZM52.4195 51.3623C51.774 51.3623 51.2479 51.8877 51.2479 52.5344V67.9814C51.2479 68.6281 51.774 69.1535 52.4195 69.1535H58.8635C59.5119 69.1535 60.0352 68.6281 60.0352 67.9814V52.5344C60.0352 51.8877 59.5119 51.3623 58.8635 51.3623H52.4195ZM46.4084 66.8096V50.409H42.3088V66.8096H46.4084ZM47.5801 48.0652H41.1369C40.4885 48.0652 39.9643 48.5906 39.9643 49.2373V67.9812C39.9643 68.6279 40.4885 69.1533 41.1369 69.1533H47.5801C48.2268 69.1533 48.7518 68.6279 48.7518 67.9812V49.2373C48.7518 48.5906 48.2266 48.0652 47.5801 48.0652Z" fill="#021047"/>
</g>
<defs>
<clipPath id="clip0_562_807">
<rect width="100" height="100" fill="white"/>
</clipPath>
</defs>
</svg>
