<svg width="100" height="100" viewBox="0 0 100 100" fill="none" xmlns="http://www.w3.org/2000/svg">
<g clip-path="url(#clip0_562_1951)">
<path d="M50.0006 98.5352C49.1512 98.5352 48.343 98.1703 47.7811 97.5334L42.9971 92.1096C41.8684 90.8299 40.2424 90.0959 38.5361 90.0959C22.0822 90.0959 8.69727 76.7111 8.69727 60.259C8.69727 54.8856 10.15 49.6064 12.8986 44.9912L16.233 39.3922C17.3053 37.5912 17.8723 35.5314 17.8723 33.4357C17.8723 30.2527 16.5469 27.1719 14.2357 24.9832L12.4494 23.2914C10.2014 21.1621 9.79277 17.7315 11.4779 15.1338L18.4402 4.40196C20.2658 1.5879 23.8768 0.652154 26.8396 2.2254L31.1592 4.51915C35.1904 6.66016 40.0492 6.74844 44.1559 4.75547L47.1975 3.2795C48.9791 2.41465 51.0229 2.41485 52.8047 3.2795L55.8471 4.75587C59.9531 6.74864 64.8113 6.66036 68.8426 4.52012L73.1629 2.22637C76.1252 0.653717 79.7357 1.58926 81.5615 4.40294L88.5236 15.1336C90.209 17.7311 89.8008 21.1615 87.5527 23.291L85.7648 24.9846C83.4545 27.1731 82.1295 30.2537 82.1295 33.4361C82.1295 35.5332 82.6963 37.5928 83.7686 39.3936L87.1029 44.9926C89.8516 49.6078 91.3043 54.8869 91.3043 60.2588C91.3043 68.2289 88.2004 75.7219 82.5646 81.3574C76.9297 86.9922 69.4363 90.0959 61.4672 90.0959C61.4662 90.0959 61.4666 90.0959 61.4656 90.0959H61.4652C59.7588 90.0959 58.1328 90.8299 57.0041 92.1096L52.2203 97.533C51.6582 98.1703 50.85 98.5352 50.0006 98.5352Z" fill="#FFE07D"/>
<path d="M91.3027 60.2598C91.3027 68.2285 88.1992 75.7227 82.5645 81.3574C76.9277 86.9922 69.4355 90.0957 61.4668 90.0957C61.4648 90.0957 61.4648 90.0957 61.4648 90.0957C60.6113 90.0957 59.7773 90.2793 59.0176 90.6231C58.2578 90.9668 57.5684 91.4688 57.0039 92.1094L52.2187 97.5332C51.6582 98.1699 50.8496 98.5352 50 98.5352C49.1504 98.5352 48.3418 98.1699 47.7812 97.5332L47.0703 96.7266L51.1445 92.1094C51.709 91.4688 52.3984 90.9668 53.1582 90.6231C53.918 90.2793 54.752 90.0957 55.6055 90.0957H55.6074C63.5762 90.0957 71.0684 86.9922 76.7051 81.3574C82.3398 75.7227 85.4434 68.2285 85.4434 60.2598C85.4434 54.8867 82.0371 49.6074 79.2891 44.9922L75.9551 39.3945C73.0469 33.1055 75.9766 26.0488 78.2871 23.8613L81.4121 20.2148L81.1523 14.917L75.1353 5.64317C74.317 4.38145 73.2363 3.33399 71.9199 2.88477L73.1621 2.22657C76.125 0.654303 79.7344 1.58985 81.5605 4.40235L88.5234 15.1348C90.209 17.7305 89.8008 21.1621 87.5527 23.291L85.7637 24.9844C83.4531 27.1738 82.1289 30.2539 82.1289 33.4356C82.1289 35.5332 82.6953 37.5938 83.7676 39.3945L87.1016 44.9922C89.8496 49.6074 91.3027 54.8867 91.3027 60.2598Z" fill="#FFD064"/>
<path d="M23.8268 7.39356C23.6621 7.39356 23.5025 7.4752 23.4062 7.62345L16.4441 18.3553C16.3123 18.5586 16.3441 18.8272 16.5203 18.994L18.3066 20.6858C21.7928 23.9873 23.792 28.6346 23.792 33.4359C23.792 36.5973 22.9369 39.7043 21.3193 42.4209L17.985 48.0199C15.7816 51.7197 14.6172 55.9514 14.6172 60.2576C14.6172 73.4475 25.3467 84.1772 38.5352 84.1772C41.9412 84.1772 45.1852 85.6414 47.4369 88.1943L50.0014 91.1016L52.5656 88.1943C54.8172 85.6414 58.0613 84.1772 61.4654 84.1772H61.4678C67.8563 84.1772 73.8623 81.6895 78.3799 77.1721C82.8977 72.6545 85.3855 66.6481 85.3855 60.2592V60.259C85.3855 55.9527 84.2211 51.7211 82.0178 48.0213L78.6834 42.4223C77.0656 39.7059 76.2107 36.599 76.2107 33.4373C76.2107 28.6356 78.2096 23.9889 81.6947 20.6875L83.4826 18.994C83.6586 18.8272 83.6904 18.5586 83.5588 18.3555L76.5963 7.62462C76.4533 7.4045 76.1709 7.33126 75.9389 7.4543L71.6186 9.74805C65.9246 12.7709 59.0629 12.8955 53.2631 10.0811L50.2207 8.6047C50.0812 8.53692 49.9213 8.53692 49.7818 8.6047L46.7402 10.0807C40.9396 12.8953 34.0773 12.7707 28.3832 9.74669L24.0639 7.45313C23.9881 7.4129 23.9066 7.39356 23.8268 7.39356Z" fill="#FFC269"/>
<path d="M85.3848 60.2598C85.3848 66.6484 82.8965 72.6543 78.3789 77.1719C73.8613 81.6895 67.8555 84.1777 61.4668 84.1777C61.4648 84.1777 61.4648 84.1777 61.4648 84.1777C58.0605 84.1777 54.8164 85.6406 52.5645 88.1953L50 91.1016L47.4355 88.1934C47.3164 88.0586 47.1953 87.9277 47.0703 87.8008C49.2988 85.4902 52.3809 84.1777 55.6055 84.1777H55.6074C61.9961 84.1777 68.002 81.6895 72.5195 77.1719C77.0371 72.6543 79.5254 66.6484 79.5254 60.2598C79.5254 58.1055 79.2344 55.9727 78.668 53.9121C78.0996 51.8535 77.2578 49.8711 76.1563 48.0215L72.8223 42.4219C71.2051 39.707 70.3496 36.5996 70.3496 33.4375C70.3496 28.6348 72.3496 23.9883 75.834 20.6875L77.6211 18.9941C77.7988 18.8281 77.8301 18.5586 77.6973 18.3555L71.9863 9.55274L75.9375 7.45508C76.1699 7.33203 76.4512 7.4043 76.5957 7.625L83.5566 18.3555C83.6895 18.5586 83.6582 18.8281 83.4805 18.9941L81.6934 20.6875C78.209 23.9883 76.209 28.6348 76.209 33.4375C76.209 36.5996 77.0645 39.707 78.6816 42.4219L82.0156 48.0215C83.1172 49.8711 83.959 51.8535 84.5273 53.9121C85.0938 55.9727 85.3848 58.1055 85.3848 60.2598Z" fill="#FFA95F"/>
<path d="M85.3848 60.2598C85.3848 65.6309 83.6269 70.7305 80.3809 74.9024H19.6348C16.4883 70.8516 14.6152 65.7695 14.6152 60.2578C14.6152 57.9316 14.9551 55.6289 15.6152 53.418H84.3848C84.4336 53.582 84.4824 53.7461 84.5273 53.9121C85.0938 55.9727 85.3848 58.1055 85.3848 60.2598Z" fill="#F4F4F4"/>
<path d="M85.3848 60.2598C85.3848 65.6309 83.627 70.7305 80.3809 74.9024H74.5215C77.7676 70.7305 79.5254 65.6309 79.5254 60.2598C79.5254 58.1055 79.2344 55.9727 78.668 53.9121C78.623 53.7461 78.5742 53.582 78.5254 53.418H84.3848C84.4336 53.582 84.4824 53.7461 84.5273 53.9121C85.0938 55.9727 85.3848 58.1055 85.3848 60.2598Z" fill="#EDEBED"/>
<path d="M50.8773 18.6941L54.5206 26.0764C54.8052 26.6527 55.355 27.0524 55.9911 27.1447L64.1378 28.3285C64.9388 28.4449 65.2587 29.4293 64.679 29.9941L58.7839 35.7404C58.3236 36.1891 58.1136 36.8356 58.2222 37.4691L59.6138 45.583C59.7507 46.3809 58.9132 46.9891 58.1968 46.6125L50.9101 42.7816C50.3411 42.4824 49.6612 42.4824 49.0923 42.7816L41.8056 46.6125C41.0892 46.9891 40.2519 46.3809 40.3886 45.583L41.7802 37.4691C41.8888 36.8356 41.6788 36.1891 41.2185 35.7404L35.3234 29.9941C34.7437 29.4291 35.0636 28.4447 35.8646 28.3285L44.0112 27.1447C44.6474 27.0524 45.1974 26.6527 45.4818 26.0764L49.1251 18.6941C49.4841 17.9684 50.5191 17.9684 50.8773 18.6941Z" fill="#F4F4F4"/>
<path d="M55.5977 27.043L50.1309 26.168C49.4941 26.0762 48.9434 25.6758 48.6602 25.0996L47.2168 22.5606L49.125 18.6934C49.4824 17.9688 50.5176 17.9688 50.875 18.6934L54.5195 26.0762C54.7422 26.5293 55.1309 26.875 55.5977 27.043Z" fill="#EDEBED"/>
<path d="M58.7823 35.7402C58.3213 36.1895 58.1104 36.8359 58.2198 37.4688L59.6124 45.584C59.7491 46.3809 58.9112 46.9883 58.1944 46.6133L53.5069 44.1484L52.3604 37.4688C52.251 36.8359 52.462 36.1895 52.9229 35.7402L60.9502 27.8652L64.1358 28.3281C64.9366 28.4453 65.2569 29.4297 64.6768 29.9942L58.7823 35.7402Z" fill="#EDEBED"/>
<path d="M88.3596 44.2447L85.0254 38.6461C84.0879 37.0719 83.5924 35.2709 83.5924 33.4381C83.5924 30.6561 84.7508 27.9633 86.7703 26.0502L88.558 24.3566C91.3186 21.7418 91.8201 17.5285 89.7504 14.3387L82.7883 3.60821C80.5463 0.152933 76.1121 -0.996676 72.4744 0.935355L68.1541 3.22911C64.5338 5.15098 60.1719 5.22989 56.4852 3.44082L53.4426 1.96426C51.2541 0.902738 48.7443 0.902738 46.5566 1.96465L43.5152 3.44043C39.8277 5.22969 35.465 5.15039 31.8455 3.22793L27.526 0.934183C23.8875 -0.998043 19.4531 0.15098 17.2109 3.60703L10.2488 14.3387C8.17949 17.5289 8.68125 21.742 11.442 24.3568L13.2283 26.0486C15.2484 27.9619 16.407 30.6549 16.407 33.4373C16.407 35.2695 15.9115 37.0699 14.9742 38.6443L11.64 44.243C8.75664 49.0846 7.23242 54.6232 7.23242 60.26C7.23242 77.5193 21.2748 91.5609 38.5354 91.5609C39.8213 91.5609 41.0469 92.1141 41.8977 93.0785L46.6816 98.5025C47.5215 99.4541 48.7309 100 49.9998 100C51.2689 100 52.4783 99.4541 53.3178 98.5023L58.1014 93.0789C58.9521 92.1145 60.1781 91.5613 61.4658 91.5613C69.8266 91.5613 77.6867 88.3055 83.5984 82.3941C89.5109 76.482 92.767 68.6215 92.767 60.2604C92.767 54.6244 91.2428 49.0863 88.3596 44.2447ZM81.5268 80.3225C76.1684 85.6809 69.0439 88.6318 61.4639 88.6318C59.3375 88.6318 57.3111 89.5463 55.9043 91.1412L51.1205 96.5647C50.5346 97.2291 49.4648 97.2289 48.8789 96.5647L44.0949 91.1408C42.6883 89.5459 40.6619 88.6314 38.5355 88.6314C22.8904 88.6314 10.1623 75.9043 10.1623 60.2602C10.1623 55.151 11.5438 50.1309 14.1574 45.7422L17.4916 40.1434C18.6988 38.1158 19.3369 35.7971 19.3369 33.4375C19.3369 29.8541 17.8447 26.3857 15.243 23.9219L13.4566 22.2301C11.7215 20.5865 11.4061 17.9385 12.7066 15.9336L19.6688 5.20196C20.6172 3.74004 22.1896 2.93496 23.8139 2.93496C24.6029 2.93496 25.4043 3.125 26.152 3.52207L30.4713 5.81582C34.9141 8.175 40.2684 8.27285 44.7943 6.07657L47.8359 4.60059C49.2107 3.93301 50.7885 3.93301 52.1639 4.60039L55.2063 6.07676C59.7313 8.27266 65.0854 8.17559 69.5277 5.817L73.848 3.52325C76.1346 2.30918 78.9217 3.03145 80.3309 5.20313L87.293 15.9336C88.5939 17.9385 88.2787 20.5865 86.5436 22.2301L84.7557 23.9236C82.1547 26.3875 80.6629 29.8555 80.6629 33.4385C80.6629 35.7988 81.301 38.118 82.5082 40.1455L85.8426 45.7443C88.4561 50.1324 89.8375 55.1523 89.8375 60.2606C89.8373 67.8389 86.8859 74.9639 81.5268 80.3225C86.8859 74.9639 76.1684 85.6807 81.5268 80.3225Z" fill="black"/>
<path d="M83.2748 47.2732L79.9406 41.6746C78.4578 39.1846 77.6742 36.3369 77.6742 33.4391C77.6742 29.0383 79.5063 24.7789 82.7006 21.7531L84.4891 20.0592C85.177 19.4068 85.3022 18.3561 84.7861 17.5602L77.8232 6.82871C77.2637 5.96797 76.158 5.68164 75.2506 6.16289L70.9303 8.45664C65.6481 11.2607 59.282 11.3766 53.9016 8.76563L50.8605 7.29004C50.3137 7.02402 49.6865 7.02383 49.1414 7.28945L46.1 8.76523C40.7188 11.3764 34.3525 11.2605 29.0701 8.45547L24.7506 6.16152C23.8578 5.6877 22.7268 5.98301 22.1773 6.82852L15.2152 17.56C14.6988 18.3562 14.8242 19.4074 15.5129 20.0594L17.2992 21.7512C20.4943 24.7771 22.327 29.0365 22.327 33.4373C22.327 36.3352 21.5432 39.1828 20.0607 41.6725L16.7264 47.2715C14.3883 51.1977 13.1523 55.6885 13.1523 60.2584C13.1523 74.2549 24.5387 85.6422 38.5346 85.6422C41.5197 85.6422 44.3639 86.9256 46.3377 89.1633L48.9022 92.0707C49.4764 92.7219 50.525 92.7221 51.099 92.0707L53.6637 89.1637C55.6373 86.9258 58.4805 85.6424 61.4668 85.6424C68.2465 85.6424 74.6203 83.0023 79.4141 78.2086C84.2084 73.4145 86.8486 67.0402 86.8486 60.2602C86.8488 55.6902 85.6129 51.1992 83.2748 47.2732ZM79.6496 73.4381H36.3291C35.5201 73.4381 34.8643 74.0938 34.8643 74.9029C34.8643 75.7119 35.5201 76.3678 36.3291 76.3678H77.1063C72.8934 80.4613 67.3535 82.7129 61.4645 82.7129C57.64 82.7129 53.9961 84.3578 51.4666 87.226L50.0008 88.8877L48.5348 87.2256C46.0053 84.3576 42.3604 82.7127 38.5348 82.7127C32.4674 82.7127 26.9555 80.2924 22.9107 76.3678H29.4934C30.3023 76.3678 30.9582 75.7121 30.9582 74.9029C30.9582 74.0939 30.3023 73.4381 29.4934 73.4381H20.3686C17.6742 69.734 16.082 65.1791 16.082 60.2584C16.082 58.4395 16.3053 56.6352 16.7371 54.8838H67.1518C67.9607 54.8838 68.6166 54.2281 68.6166 53.4189C68.6166 52.6098 67.9609 51.9541 67.1518 51.9541H17.6771C18.1137 50.8572 18.6352 49.7918 19.2436 48.7705L22.5779 43.1713C24.3305 40.2285 25.2566 36.8625 25.2566 33.4371C25.2566 28.2352 23.0904 23.2004 19.3139 19.6238L18.1088 18.4824L24.1553 9.16211L27.6963 11.0428C33.8016 14.2846 41.1594 14.4186 47.3793 11.4006L50.0006 10.1289L52.6227 11.4012C58.841 14.4189 66.1988 14.2855 72.3041 11.0441L75.8459 9.16367L81.8924 18.4832L80.6855 19.626C76.9098 23.2025 74.7443 28.2373 74.7443 33.4389C74.7443 36.8643 75.6707 40.2303 77.423 43.1732L80.7574 48.7723C81.3652 49.7932 81.8865 50.858 82.3231 51.9543H73.9873C73.1783 51.9543 72.5225 52.61 72.5225 53.4191C72.5225 54.2283 73.1781 54.884 73.9873 54.884H83.2633C83.6955 56.6359 83.9189 58.4406 83.9189 60.2604C83.9191 65.0607 82.4215 69.6305 79.6496 73.4381Z" fill="black"/>
<path d="M50.698 67.6201C50.0477 67.6238 49.3623 67.6264 48.7852 67.6275V59.4242C48.7852 58.6152 48.1293 57.9594 47.3203 57.9594C46.5113 57.9594 45.8555 58.615 45.8555 59.4242V69.085C45.8555 69.7984 46.3697 70.4082 47.073 70.5287C47.1781 70.5467 47.2477 70.5586 48.3312 70.5586C48.8521 70.5586 49.6078 70.5557 50.7143 70.5496C51.5232 70.5451 52.1754 69.8857 52.1709 69.0766C52.1666 68.2676 51.5043 67.6191 50.698 67.6201Z" fill="black"/>
<path d="M55.834 57.9594C55.025 57.9594 54.3691 58.615 54.3691 59.4242V69.0932C54.3691 69.9021 55.0248 70.558 55.834 70.558C56.6432 70.558 57.2988 69.9023 57.2988 69.0932V59.4242C57.2986 58.6152 56.643 57.9594 55.834 57.9594Z" fill="black"/>
<path d="M78.0232 67.5842H75.451V65.7234H77.7254C78.5344 65.7234 79.1902 65.0678 79.1902 64.2586C79.1902 63.4496 78.5346 62.7938 77.7254 62.7938H75.451V60.933H78.0232C78.8322 60.933 79.4881 60.2773 79.4881 59.4682C79.4881 58.659 78.8324 58.0033 78.0232 58.0033H73.9863C73.1773 58.0033 72.5215 58.659 72.5215 59.4682V69.0488C72.5215 69.8578 73.1771 70.5137 73.9863 70.5137H78.0232C78.8322 70.5137 79.4881 69.858 79.4881 69.0488C79.4881 68.24 78.8324 67.5842 78.0232 67.5842Z" fill="black"/>
<path d="M69.8248 66.6057C69.2045 66.0863 68.2809 66.1678 67.7611 66.7877C67.6855 66.8779 67.6035 66.9625 67.5174 67.0395C67.0785 67.4303 66.5137 67.6285 65.8385 67.6285C63.9805 67.6285 62.4688 66.117 62.4688 64.2588C62.4688 62.4008 63.9803 60.8891 65.8385 60.8891C66.5139 60.8891 67.165 61.0879 67.7215 61.4637C68.3918 61.9164 69.3023 61.7402 69.7553 61.0697C70.208 60.3992 70.0318 59.4887 69.3613 59.0359C68.3186 58.3316 67.1004 57.9592 65.8383 57.9592C62.3648 57.9592 59.5391 60.785 59.5391 64.2584C59.5391 67.7318 62.3648 70.5576 65.8383 70.5576C67.2338 70.5576 68.4883 70.0975 69.466 69.2266C69.6582 69.0553 69.84 68.8678 70.0066 68.6691C70.5262 68.0492 70.4447 67.1254 69.8248 66.6057Z" fill="black"/>
<path d="M24.6688 57.9594H21.9766C21.1793 57.9594 20.5117 58.6268 20.5117 59.4242V69.0932C20.5117 69.9021 21.1676 70.558 21.9766 70.558C22.7855 70.558 23.4414 69.9023 23.4414 69.0932V66.3504C23.9068 66.3482 24.3775 66.3463 24.6689 66.3463C27.0105 66.3463 28.9158 64.465 28.9158 62.1529C28.9156 59.8406 27.0105 57.9594 24.6688 57.9594ZM24.6688 63.4166C24.3797 63.4166 23.9145 63.4184 23.4521 63.4207C23.45 62.9393 23.448 62.4514 23.448 62.1529C23.448 61.8975 23.4469 61.3947 23.4455 60.8891H24.6688C25.3828 60.8891 25.9859 61.4678 25.9859 62.1529C25.9859 62.8381 25.3828 63.4166 24.6688 63.4166Z" fill="black"/>
<path d="M37.3598 57.9594C33.8863 57.9594 31.0605 60.7852 31.0605 64.2586C31.0605 67.732 33.8863 70.5578 37.3598 70.5578C40.8332 70.5578 43.6592 67.732 43.6592 64.2586C43.659 60.7854 40.8332 57.9594 37.3598 57.9594ZM37.3598 67.6283C35.5018 67.6283 33.99 66.1168 33.99 64.2586C33.99 62.4006 35.5018 60.8889 37.3598 60.8889C39.2178 60.8889 40.7295 62.4004 40.7295 64.2586C40.7295 66.1168 39.2178 67.6283 37.3598 67.6283Z" fill="black"/>
<path d="M64.3456 26.8807L56.1993 25.6971C56.0404 25.674 55.9029 25.574 55.8316 25.4299L52.1882 18.0479C51.774 17.2084 50.9351 16.6871 49.9991 16.6869C49.0632 16.6869 48.2243 17.2084 47.8099 18.0479L44.1667 25.4299C44.0956 25.574 43.9581 25.674 43.7991 25.6971L35.6523 26.8807C34.7259 27.0154 33.971 27.6522 33.6818 28.5426C33.3927 29.4326 33.6292 30.3916 34.2995 31.0449L40.1943 36.7908C40.3093 36.9031 40.3618 37.0646 40.3347 37.2232L38.9431 45.3367C38.7847 46.2594 39.157 47.1744 39.9144 47.7244C40.6616 48.2678 41.6675 48.3404 42.4855 47.9104L49.7722 44.0795C49.9144 44.0047 50.0843 44.0047 50.2263 44.0797L57.5128 47.9104C58.3407 48.3453 59.3263 48.2748 60.0837 47.7246C60.8411 47.1746 61.2134 46.2594 61.0552 45.3369L59.6636 37.223C59.6364 37.0647 59.6892 36.9031 59.8042 36.791L65.6989 31.0449C66.3695 30.3916 66.606 29.4326 66.3169 28.5426C66.0277 27.6522 65.2724 27.0156 64.3456 26.8807ZM57.7589 34.6932C56.9532 35.4787 56.5859 36.6098 56.7763 37.7184L58.0005 44.857L51.59 41.4869C50.6032 40.9676 49.3956 40.9676 48.4089 41.4867L41.9982 44.857L43.2224 37.7186C43.4126 36.6096 43.0452 35.4787 42.2394 34.693L37.0531 29.6375L44.2206 28.5961C45.3341 28.4342 46.296 27.7354 46.7939 26.7264L49.9991 20.2314L53.2046 26.7262C53.7025 27.7352 54.6642 28.4342 55.7781 28.5961L62.9454 29.6375L57.7589 34.6932Z" fill="black"/>
<path d="M73.0469 19.1426C74.1256 19.1426 75 18.2681 75 17.1895C75 16.1108 74.1256 15.2363 73.0469 15.2363C71.9682 15.2363 71.0938 16.1108 71.0938 17.1895C71.0938 18.2681 71.9682 19.1426 73.0469 19.1426Z" fill="black"/>
<path d="M26.9531 19.1426C28.0318 19.1426 28.9062 18.2681 28.9062 17.1895C28.9062 16.1108 28.0318 15.2363 26.9531 15.2363C25.8744 15.2363 25 16.1108 25 17.1895C25 18.2681 25.8744 19.1426 26.9531 19.1426Z" fill="black"/>
<path d="M50 83.3012C51.0787 83.3012 51.9531 82.4267 51.9531 81.3481C51.9531 80.2694 51.0787 79.3949 50 79.3949C48.9213 79.3949 48.0469 80.2694 48.0469 81.3481C48.0469 82.4267 48.9213 83.3012 50 83.3012Z" fill="black"/>
</g>
<defs>
<clipPath id="clip0_562_1951">
<rect width="100" height="100" fill="white"/>
</clipPath>
</defs>
</svg>
