<svg width="100" height="100" viewBox="0 0 100 100" fill="none" xmlns="http://www.w3.org/2000/svg">
<path d="M59.375 65.625V9.375H65.625V3.125H84.375V9.375H90.625V65.625H59.375Z" fill="#E0E0E0"/>
<path d="M59.375 15.625H90.625V65.625H59.375V15.625Z" fill="#C7E2FB"/>
<path d="M65.625 15.625H71.875V65.625H65.625V15.625Z" fill="#EBF7FE"/>
<path d="M46.875 37.5H78.125V96.875H46.875V37.5Z" fill="#4596EC"/>
<path d="M62.5 59.375V71.875H68.75C69.9932 71.875 71.1855 71.3811 72.0646 70.5021C72.9436 69.623 73.4375 68.4307 73.4375 67.1875V59.375H62.5Z" fill="#6AABF0"/>
<path d="M46.875 59.375V71.875H53.125C54.3682 71.875 55.5605 71.3811 56.4396 70.5021C57.3186 69.623 57.8125 68.4307 57.8125 67.1875V59.375H46.875Z" fill="#6AABF0"/>
<path d="M62.5 37.5V50H68.75C69.9932 50 71.1855 49.5061 72.0646 48.6271C72.9436 47.748 73.4375 46.5557 73.4375 45.3125V37.5H62.5Z" fill="#6AABF0"/>
<path d="M46.875 53.125H78.125V59.375H46.875V53.125Z" fill="#B3BEC4"/>
<path d="M46.875 75H78.125V81.25H46.875V75Z" fill="#B3BEC4"/>
<path d="M6.25 37.5H40.625V96.875H6.25V37.5Z" fill="#B3BEC4"/>
<path d="M6.25 37.5V82.8125H31.25C32.4932 82.8125 33.6855 82.3186 34.5646 81.4396C35.4436 80.5605 35.9375 79.3682 35.9375 78.125V37.5H6.25Z" fill="#C2CBD0"/>
<path d="M26.5625 68.75H54.6875V96.875H26.5625V68.75Z" fill="#B3BEC4"/>
<path d="M26.5625 68.75H54.6875V90.625H26.5625V68.75Z" fill="#E0E0E0"/>
<path d="M26.5625 68.75V87.5H48.4375C49.2663 87.5 50.0612 87.1708 50.6472 86.5847C51.2333 85.9987 51.5625 85.2038 51.5625 84.375V68.75H26.5625Z" fill="#F5F5F5"/>
<path d="M70.3125 65.625H93.75V96.875H70.3125V65.625Z" fill="#B3BEC4"/>
<path d="M70.3125 65.625V93.75H85.9375C87.1807 93.75 88.373 93.2561 89.2521 92.3771C90.1311 91.498 90.625 90.3057 90.625 89.0625V65.625H70.3125Z" fill="#C2CBD0"/>
<path d="M14.0625 56.25H20.3125V62.5H14.0625V56.25Z" fill="#4596EC"/>
<path d="M26.5625 56.25H32.8125V62.5H26.5625V56.25Z" fill="#4596EC"/>
<path d="M14.0625 43.75H20.3125V50H14.0625V43.75Z" fill="#4596EC"/>
<path d="M26.5625 43.75H32.8125V50H26.5625V43.75Z" fill="#4596EC"/>
<path d="M14.0625 68.75H20.3125V75H14.0625V68.75Z" fill="#4596EC"/>
<path d="M14.0625 81.25H20.3125V87.5H14.0625V81.25Z" fill="#4596EC"/>
<path d="M78.125 15.625H84.375V65.625H78.125V15.625Z" fill="#EBF7FE"/>
<path d="M32.8125 75H48.4375V84.375H32.8125V75Z" fill="#C7E2FB"/>
<path d="M39.0625 75H42.1875V84.375H39.0625V75Z" fill="#EBF7FE"/>
<path d="M10.9375 26.5625C12.6634 26.5625 14.0625 25.1634 14.0625 23.4375C14.0625 21.7116 12.6634 20.3125 10.9375 20.3125C9.21161 20.3125 7.8125 21.7116 7.8125 23.4375C7.8125 25.1634 9.21161 26.5625 10.9375 26.5625Z" fill="#4596EC"/>
<path d="M34.375 25C36.1009 25 37.5 23.6009 37.5 21.875C37.5 20.1491 36.1009 18.75 34.375 18.75C32.6491 18.75 31.25 20.1491 31.25 21.875C31.25 23.6009 32.6491 25 34.375 25Z" fill="#4596EC"/>
<path d="M50 9.375C51.7259 9.375 53.125 7.97589 53.125 6.25C53.125 4.52411 51.7259 3.125 50 3.125C48.2741 3.125 46.875 4.52411 46.875 6.25C46.875 7.97589 48.2741 9.375 50 9.375Z" fill="#4596EC"/>
<path d="M23.4375 14.0625C25.1634 14.0625 26.5625 12.6634 26.5625 10.9375C26.5625 9.21161 25.1634 7.8125 23.4375 7.8125C21.7116 7.8125 20.3125 9.21161 20.3125 10.9375C20.3125 12.6634 21.7116 14.0625 23.4375 14.0625Z" fill="#4596EC"/>
<path d="M46.875 37.5V50H53.125C54.3682 50 55.5605 49.5061 56.4396 48.6271C57.3186 47.748 57.8125 46.5557 57.8125 45.3125V37.5H46.875Z" fill="#6AABF0"/>
<path d="M95.3125 95.3125V65.625C95.3125 65.2106 95.1479 64.8132 94.8549 64.5201C94.5618 64.2271 94.1644 64.0625 93.75 64.0625H92.1875V9.375C92.1875 8.9606 92.0229 8.56317 91.7299 8.27015C91.4368 7.97712 91.0394 7.8125 90.625 7.8125H85.9375V3.125C85.9375 2.7106 85.7729 2.31317 85.4799 2.02015C85.1868 1.72712 84.7894 1.5625 84.375 1.5625H65.625C65.2106 1.5625 64.8132 1.72712 64.5201 2.02015C64.2271 2.31317 64.0625 2.7106 64.0625 3.125V7.8125H59.375C58.9606 7.8125 58.5632 7.97712 58.2701 8.27015C57.9771 8.56317 57.8125 8.9606 57.8125 9.375V35.9375H46.875C46.4606 35.9375 46.0632 36.1021 45.7701 36.3951C45.4771 36.6882 45.3125 37.0856 45.3125 37.5V67.1875H42.1875V37.5C42.1875 37.0856 42.0229 36.6882 41.7299 36.3951C41.4368 36.1021 41.0394 35.9375 40.625 35.9375H6.25C5.8356 35.9375 5.43817 36.1021 5.14515 36.3951C4.85212 36.6882 4.6875 37.0856 4.6875 37.5V95.3125H1.5625V98.4375H98.4375V95.3125H95.3125ZM53.125 89.0625H28.125V70.3125H53.125V89.0625ZM28.125 92.1875H53.125V95.3125H28.125V92.1875ZM56.25 76.5625H68.75V79.6875H56.25V76.5625ZM70.3125 17.1875V35.9375H67.1875V17.1875H70.3125ZM79.6875 64.0625V17.1875H82.8125V64.0625H79.6875ZM76.5625 35.9375H73.4375V17.1875H76.5625V35.9375ZM76.5625 39.0625V51.5625H64.0625V39.0625H76.5625ZM76.5625 54.6875V57.8125H48.4375V54.6875H76.5625ZM76.5625 60.9375V64.0625H70.3125C69.8981 64.0625 69.5007 64.2271 69.2076 64.5201C68.9146 64.8132 68.75 65.2106 68.75 65.625V73.4375H64.0625V60.9375H76.5625ZM56.25 82.8125H68.75V95.3125H56.25V82.8125ZM71.875 67.1875H92.1875V95.3125H71.875V67.1875ZM85.9375 64.0625V17.1875H89.0625V64.0625H85.9375ZM65.625 10.9375C66.0394 10.9375 66.4368 10.7729 66.7299 10.4799C67.0229 10.1868 67.1875 9.7894 67.1875 9.375V4.6875H82.8125V9.375C82.8125 9.7894 82.9771 10.1868 83.2701 10.4799C83.5632 10.7729 83.9606 10.9375 84.375 10.9375H89.0625V14.0625H60.9375V10.9375H65.625ZM60.9375 17.1875H64.0625V35.9375H60.9375V17.1875ZM60.9375 39.0625V51.5625H48.4375V39.0625H60.9375ZM48.4375 60.9375H60.9375V73.4375H56.25V68.75C56.25 68.3356 56.0854 67.9382 55.7924 67.6451C55.4993 67.3521 55.1019 67.1875 54.6875 67.1875H48.4375V60.9375ZM7.8125 39.0625H39.0625V67.1875H26.5625C26.1481 67.1875 25.7507 67.3521 25.4576 67.6451C25.1646 67.9382 25 68.3356 25 68.75V95.3125H7.8125V39.0625Z" fill="black"/>
<path d="M20.3125 54.6875H14.0625C13.6481 54.6875 13.2507 54.8521 12.9576 55.1451C12.6646 55.4382 12.5 55.8356 12.5 56.25V62.5C12.5 62.9144 12.6646 63.3118 12.9576 63.6049C13.2507 63.8979 13.6481 64.0625 14.0625 64.0625H20.3125C20.7269 64.0625 21.1243 63.8979 21.4174 63.6049C21.7104 63.3118 21.875 62.9144 21.875 62.5V56.25C21.875 55.8356 21.7104 55.4382 21.4174 55.1451C21.1243 54.8521 20.7269 54.6875 20.3125 54.6875ZM18.75 60.9375H15.625V57.8125H18.75V60.9375Z" fill="black"/>
<path d="M26.5625 64.0625H32.8125C33.2269 64.0625 33.6243 63.8979 33.9174 63.6049C34.2104 63.3118 34.375 62.9144 34.375 62.5V56.25C34.375 55.8356 34.2104 55.4382 33.9174 55.1451C33.6243 54.8521 33.2269 54.6875 32.8125 54.6875H26.5625C26.1481 54.6875 25.7507 54.8521 25.4576 55.1451C25.1646 55.4382 25 55.8356 25 56.25V62.5C25 62.9144 25.1646 63.3118 25.4576 63.6049C25.7507 63.8979 26.1481 64.0625 26.5625 64.0625ZM28.125 57.8125H31.25V60.9375H28.125V57.8125Z" fill="black"/>
<path d="M20.3125 42.1875H14.0625C13.6481 42.1875 13.2507 42.3521 12.9576 42.6451C12.6646 42.9382 12.5 43.3356 12.5 43.75V50C12.5 50.4144 12.6646 50.8118 12.9576 51.1049C13.2507 51.3979 13.6481 51.5625 14.0625 51.5625H20.3125C20.7269 51.5625 21.1243 51.3979 21.4174 51.1049C21.7104 50.8118 21.875 50.4144 21.875 50V43.75C21.875 43.3356 21.7104 42.9382 21.4174 42.6451C21.1243 42.3521 20.7269 42.1875 20.3125 42.1875ZM18.75 48.4375H15.625V45.3125H18.75V48.4375Z" fill="black"/>
<path d="M26.5625 51.5625H32.8125C33.2269 51.5625 33.6243 51.3979 33.9174 51.1049C34.2104 50.8118 34.375 50.4144 34.375 50V43.75C34.375 43.3356 34.2104 42.9382 33.9174 42.6451C33.6243 42.3521 33.2269 42.1875 32.8125 42.1875H26.5625C26.1481 42.1875 25.7507 42.3521 25.4576 42.6451C25.1646 42.9382 25 43.3356 25 43.75V50C25 50.4144 25.1646 50.8118 25.4576 51.1049C25.7507 51.3979 26.1481 51.5625 26.5625 51.5625ZM28.125 45.3125H31.25V48.4375H28.125V45.3125Z" fill="black"/>
<path d="M20.3125 67.1875H14.0625C13.6481 67.1875 13.2507 67.3521 12.9576 67.6451C12.6646 67.9382 12.5 68.3356 12.5 68.75V75C12.5 75.4144 12.6646 75.8118 12.9576 76.1049C13.2507 76.3979 13.6481 76.5625 14.0625 76.5625H20.3125C20.7269 76.5625 21.1243 76.3979 21.4174 76.1049C21.7104 75.8118 21.875 75.4144 21.875 75V68.75C21.875 68.3356 21.7104 67.9382 21.4174 67.6451C21.1243 67.3521 20.7269 67.1875 20.3125 67.1875ZM18.75 73.4375H15.625V70.3125H18.75V73.4375Z" fill="black"/>
<path d="M20.3125 79.6875H14.0625C13.6481 79.6875 13.2507 79.8521 12.9576 80.1451C12.6646 80.4382 12.5 80.8356 12.5 81.25V87.5C12.5 87.9144 12.6646 88.3118 12.9576 88.6049C13.2507 88.8979 13.6481 89.0625 14.0625 89.0625H20.3125C20.7269 89.0625 21.1243 88.8979 21.4174 88.6049C21.7104 88.3118 21.875 87.9144 21.875 87.5V81.25C21.875 80.8356 21.7104 80.4382 21.4174 80.1451C21.1243 79.8521 20.7269 79.6875 20.3125 79.6875ZM18.75 85.9375H15.625V82.8125H18.75V85.9375Z" fill="black"/>
<path d="M75 73.4375H89.0625V76.5625H75V73.4375Z" fill="black"/>
<path d="M75 79.6875H89.0625V82.8125H75V79.6875Z" fill="black"/>
<path d="M75 85.9375H89.0625V89.0625H75V85.9375Z" fill="black"/>
<path d="M32.8125 85.9375H48.4375C48.8519 85.9375 49.2493 85.7729 49.5424 85.4799C49.8354 85.1868 50 84.7894 50 84.375V75C50 74.5856 49.8354 74.1882 49.5424 73.8951C49.2493 73.6021 48.8519 73.4375 48.4375 73.4375H32.8125C32.3981 73.4375 32.0007 73.6021 31.7076 73.8951C31.4146 74.1882 31.25 74.5856 31.25 75V84.375C31.25 84.7894 31.4146 85.1868 31.7076 85.4799C32.0007 85.7729 32.3981 85.9375 32.8125 85.9375ZM46.875 82.8125H42.1875V76.5625H46.875V82.8125ZM34.375 76.5625H39.0625V82.8125H34.375V76.5625Z" fill="black"/>
<path d="M10.9375 28.125C12.1807 28.125 13.373 27.6311 14.2521 26.7521C15.1311 25.873 15.625 24.6807 15.625 23.4375C15.6223 22.7414 15.462 22.055 15.1562 21.4297L21.4297 15.1563C22.0538 15.4657 22.7409 15.6266 23.4375 15.6266C24.1341 15.6266 24.8212 15.4657 25.4453 15.1563L30.1562 19.8672C29.8505 20.4925 29.6902 21.1789 29.6875 21.875C29.6875 23.1182 30.1814 24.3105 31.0604 25.1896C31.9395 26.0686 33.1318 26.5625 34.375 26.5625C35.6182 26.5625 36.8105 26.0686 37.6896 25.1896C38.5686 24.3105 39.0625 23.1182 39.0625 21.875C39.0598 21.1789 38.8996 20.4925 38.5938 19.8672L47.9922 10.4688C48.6175 10.7746 49.3039 10.9348 50 10.9375C50.9271 10.9375 51.8334 10.6626 52.6042 10.1475C53.3751 9.63245 53.9759 8.90036 54.3307 8.04383C54.6855 7.1873 54.7783 6.2448 54.5974 5.33552C54.4166 4.42623 53.9701 3.591 53.3146 2.93544C52.659 2.27988 51.8238 1.83344 50.9145 1.65257C50.0052 1.4717 49.0627 1.56453 48.2062 1.91932C47.3496 2.2741 46.6176 2.87491 46.1025 3.64577C45.5874 4.41662 45.3125 5.3229 45.3125 6.25C45.3152 6.94608 45.4754 7.6325 45.7812 8.25781L36.3828 17.6563C35.7587 17.3469 35.0716 17.1859 34.375 17.1859C33.6784 17.1859 32.9913 17.3469 32.3672 17.6563L27.6563 12.9453C27.962 12.32 28.1223 11.6336 28.125 10.9375C28.125 9.6943 27.6311 8.50202 26.7521 7.62294C25.873 6.74386 24.6807 6.25 23.4375 6.25C22.1943 6.25 21.002 6.74386 20.1229 7.62294C19.2439 8.50202 18.75 9.6943 18.75 10.9375C18.7527 11.6336 18.913 12.32 19.2188 12.9453L12.9453 19.2188C12.32 18.913 11.6336 18.7527 10.9375 18.75C9.6943 18.75 8.50201 19.2439 7.62294 20.1229C6.74386 21.002 6.25 22.1943 6.25 23.4375C6.25 24.6807 6.74386 25.873 7.62294 26.7521C8.50201 27.6311 9.6943 28.125 10.9375 28.125ZM50 4.6875C50.309 4.6875 50.6111 4.77914 50.8681 4.95083C51.125 5.12252 51.3253 5.36655 51.4436 5.65206C51.5618 5.93757 51.5928 6.25174 51.5325 6.55483C51.4722 6.85793 51.3234 7.13634 51.1049 7.35486C50.8863 7.57338 50.6079 7.72219 50.3048 7.78248C50.0017 7.84277 49.6876 7.81183 49.4021 7.69356C49.1166 7.5753 48.8725 7.37503 48.7008 7.11808C48.5291 6.86113 48.4375 6.55904 48.4375 6.25C48.4375 5.8356 48.6021 5.43817 48.8951 5.14515C49.1882 4.85212 49.5856 4.6875 50 4.6875ZM35.9375 21.875C35.9375 22.184 35.8459 22.4861 35.6742 22.7431C35.5025 23 35.2585 23.2003 34.9729 23.3186C34.6874 23.4368 34.3733 23.4678 34.0702 23.4075C33.7671 23.3472 33.4887 23.1984 33.2701 22.9799C33.0516 22.7613 32.9028 22.4829 32.8425 22.1798C32.7822 21.8767 32.8132 21.5626 32.9314 21.2771C33.0497 20.9915 33.25 20.7475 33.5069 20.5758C33.7639 20.4041 34.066 20.3125 34.375 20.3125C34.7894 20.3125 35.1868 20.4771 35.4799 20.7701C35.7729 21.0632 35.9375 21.4606 35.9375 21.875ZM23.4375 9.375C23.7465 9.375 24.0486 9.46664 24.3056 9.63833C24.5625 9.81002 24.7628 10.0541 24.8811 10.3396C24.9993 10.6251 25.0303 10.9392 24.97 11.2423C24.9097 11.5454 24.7609 11.8238 24.5424 12.0424C24.3238 12.2609 24.0454 12.4097 23.7423 12.47C23.4392 12.5303 23.1251 12.4993 22.8396 12.3811C22.554 12.2628 22.31 12.0625 22.1383 11.8056C21.9666 11.5486 21.875 11.2465 21.875 10.9375C21.875 10.5231 22.0396 10.1257 22.3326 9.83265C22.6257 9.53962 23.0231 9.375 23.4375 9.375ZM10.9375 21.875C11.2465 21.875 11.5486 21.9666 11.8056 22.1383C12.0625 22.31 12.2628 22.554 12.3811 22.8396C12.4993 23.1251 12.5303 23.4392 12.47 23.7423C12.4097 24.0454 12.2609 24.3238 12.0424 24.5424C11.8238 24.7609 11.5454 24.9097 11.2423 24.97C10.9392 25.0303 10.6251 24.9993 10.3396 24.8811C10.054 24.7628 9.81002 24.5625 9.63833 24.3056C9.46664 24.0486 9.375 23.7465 9.375 23.4375C9.375 23.0231 9.53962 22.6257 9.83265 22.3326C10.1257 22.0396 10.5231 21.875 10.9375 21.875Z" fill="black"/>
</svg>
