<svg width="100" height="100" viewBox="0 0 100 100" fill="none" xmlns="http://www.w3.org/2000/svg">
<g clip-path="url(#clip0_562_2077)">
<path fill-rule="evenodd" clip-rule="evenodd" d="M81.4549 2.05078H42.1849C41.0887 2.05078 40.8174 2.21133 41.6203 3.50195C43.6633 6.81406 45.0418 9.52812 45.8723 11.8654L60.9978 14.092L77.7678 11.8654C78.5982 9.52812 79.9767 6.81406 82.0197 3.50195C82.8223 2.21133 82.5512 2.05078 81.4549 2.05078Z" fill="#FEA610"/>
<path fill-rule="evenodd" clip-rule="evenodd" d="M77.7684 11.8654H45.8731C47.0634 15.2109 47.1243 17.7863 46.3991 20.2289C44.6829 21.7963 37.8729 39.7143 41.6931 49.9057C41.9091 50.2602 42.1415 50.6146 42.3796 50.9691C44.2952 53.8549 46.161 57.0119 49.4938 60.435L62.0061 63.1268L74.1475 60.435C77.4806 57.0119 79.3462 53.8549 81.2675 50.9691C86.1561 43.6191 87.745 36.9504 81.2675 27.5566C77.4694 22.0568 75.4265 18.4678 77.7684 11.8654Z" fill="#F3EAE6"/>
<path fill-rule="evenodd" clip-rule="evenodd" d="M58.5781 76.409H68.1285V91.2252H58.5781V76.409Z" fill="#F3EAE6"/>
<path fill-rule="evenodd" clip-rule="evenodd" d="M80.6129 89.2699H68.1283H58.5779H46.0934C44.6705 89.2699 43.5078 90.433 43.5078 91.8564V95.368C43.5078 96.7859 44.6705 97.949 46.0934 97.949H80.6131C82.0359 97.949 83.1986 96.7859 83.1986 95.368V91.8564C83.1984 90.433 82.0357 89.2699 80.6129 89.2699Z" fill="#ACACAC"/>
<path fill-rule="evenodd" clip-rule="evenodd" d="M73.4336 69.2252L63.5898 66.1789L53.2754 69.2252V75.7111C53.2754 77.1734 54.3717 78.3643 55.7115 78.3643H58.5795H68.1299H70.9979C72.3377 78.3643 73.4338 77.1734 73.4338 75.7111V69.2252H73.4336Z" fill="#FEA610"/>
<path fill-rule="evenodd" clip-rule="evenodd" d="M74.1463 60.4352H49.4926H32.5678C30.1484 60.4352 28.1719 62.4125 28.1719 64.8273C28.1719 67.2478 30.1484 69.2252 32.5678 69.2252H53.274H73.4322H94.1385C96.5523 69.2252 98.5344 67.2478 98.5344 64.8273C98.5344 62.4125 96.5523 60.4352 94.1385 60.4352H74.1463Z" fill="#ACACAC"/>
<path fill-rule="evenodd" clip-rule="evenodd" d="M90.1971 64.8273C90.1971 67.2478 88.2205 69.2252 85.8066 69.2252H94.1391C96.5529 69.2252 98.535 67.2478 98.535 64.8273C98.535 62.4125 96.5529 60.4352 94.1391 60.4352H85.8066C88.2205 60.4352 90.1971 62.4125 90.1971 64.8273Z" fill="#838383"/>
<path fill-rule="evenodd" clip-rule="evenodd" d="M53.2754 69.2252V72.8975H68.6445C69.7795 72.8975 69.7906 73.4016 69.7906 74.4316V78.3643H70.9977C72.3375 78.3643 73.4336 77.1734 73.4336 75.7111V69.2252H53.2754Z" fill="#FE7600"/>
<path fill-rule="evenodd" clip-rule="evenodd" d="M58.5781 78.3641V82.0973H63.9873C64.3307 82.0973 64.4912 82.0475 64.4912 82.3908V89.2699H68.1287V78.3641H58.5781Z" fill="#CDBEB9"/>
<path fill-rule="evenodd" clip-rule="evenodd" d="M76.9551 91.8566V95.3682C76.9551 96.7861 75.7924 97.9492 74.375 97.9492H80.6146C82.0375 97.9492 83.2002 96.7861 83.2002 95.3682V91.8566C83.2002 90.4332 82.0375 89.2701 80.6146 89.2701H74.375C75.7924 89.2699 76.9551 90.433 76.9551 91.8566Z" fill="#838383"/>
<path fill-rule="evenodd" clip-rule="evenodd" d="M56.3469 42.6998H85.1475C86.0444 38.8281 85.5075 34.7904 82.8444 30.0713H60.7207H58.5393C51.5303 30.0715 48.4465 42.5836 56.3469 42.6998Z" fill="#ACACAC"/>
<path fill-rule="evenodd" clip-rule="evenodd" d="M9.90176 21.4365L6.7793 31.8605L9.90176 45.1758H11.0977C15.6154 45.1758 17.6859 44.5443 19.6072 47.1088C20.8529 48.7705 22.7131 49.9059 24.9277 49.9059H41.692H44.6207C46.4643 49.9059 47.9703 48.3992 47.9703 46.5549C47.9703 44.7105 46.4645 43.2039 44.6207 43.2039H54.4533C56.5572 43.2039 58.2846 41.4813 58.2846 39.3766C58.2846 37.2662 56.5627 35.5437 54.4533 35.5437H57.2658C59.3697 35.5437 61.0914 33.8211 61.0914 31.7164C61.0914 29.6117 59.3695 27.8891 57.2658 27.8891H50.2623C52.3551 27.8779 54.0658 26.1555 54.0658 24.0562C54.0658 21.9516 52.3439 20.2289 50.2402 20.2289H46.3979H26.3506C25.7084 20.2289 25.426 19.7027 25.9299 19.2098L31.0289 14.2525C34.0629 11.0678 35.0871 7.60039 32.4629 5.01387C31.3832 3.95039 30.276 4.19961 29.307 5.14687C24.4238 9.92676 19.5906 14.7732 14.7352 19.5809C13.0631 21.2369 12.7145 21.4363 11.0977 21.4363L9.90176 21.4365Z" fill="#FED1A3"/>
<path fill-rule="evenodd" clip-rule="evenodd" d="M1.46484 20.5836V46.7766C1.46484 47.7846 2.28984 48.61 3.29746 48.61H8.06992C9.07754 48.61 9.90254 47.7848 9.90254 46.7766V45.1758V21.4365V20.5836C9.90254 19.5756 9.07754 18.7502 8.06992 18.7502H3.29746C2.28984 18.7502 1.46484 19.5754 1.46484 20.5836Z" fill="#7BACDF"/>
<path fill-rule="evenodd" clip-rule="evenodd" d="M52.959 24.6711H37.1857C36.3055 24.6711 35.5801 25.3967 35.5801 26.2828C35.5801 27.1635 36.3053 27.8891 37.1857 27.8891H40.3914H50.2406H50.2627C52.0289 27.8779 53.5182 26.6539 53.9443 25.0145C53.6732 24.7986 53.3299 24.6711 52.959 24.6711Z" fill="#FFBC85"/>
<path fill-rule="evenodd" clip-rule="evenodd" d="M61.0748 32.0543H38.2205C37.2572 32.0543 36.4766 32.8408 36.4766 33.799C36.4766 34.7572 37.2572 35.5438 38.2205 35.5438H39.599H54.4533H57.2658C59.259 35.5438 60.9033 34.0039 61.0748 32.0543Z" fill="#FFBC85"/>
<path fill-rule="evenodd" clip-rule="evenodd" d="M58.2691 39.7145H37.8729C36.9096 39.7145 36.1289 40.4955 36.1289 41.4592C36.1289 42.4174 36.9096 43.2039 37.8729 43.2039H40.1316H44.6217H54.4543C56.4477 43.2039 58.0975 41.6641 58.2691 39.7145Z" fill="#FFBC85"/>
<path fill-rule="evenodd" clip-rule="evenodd" d="M27.2205 13.5438L22.5976 17.8418C22.0828 18.3182 21.6177 20.2291 22.9187 20.2291H26.3513C26.988 20.2291 25.4267 19.7029 25.9306 19.21L31.0296 14.2527C34.0636 11.068 35.0878 7.60059 32.4636 5.01407C31.3839 3.95059 30.2767 4.19981 29.3078 5.14707C31.9265 6.68672 30.9521 10.6027 27.2205 13.5438Z" fill="#FFBC85"/>
<path fill-rule="evenodd" clip-rule="evenodd" d="M1.46484 40.3625V46.7764C1.46484 47.7844 2.28984 48.6098 3.29746 48.6098H8.06992C9.07754 48.6098 9.90254 47.7846 9.90254 46.7764V45.1758V40.3625C9.90254 40.9773 9.59805 41.5256 9.12734 41.858C8.82832 42.0686 8.46289 42.1959 8.06992 42.1959H3.29746C2.28984 42.1959 1.46484 41.3705 1.46484 40.3625Z" fill="#3987D0"/>
<path fill-rule="evenodd" clip-rule="evenodd" d="M72.7848 3.50195C70.7363 6.81406 69.3576 9.52812 68.5273 11.8654H77.7676C78.598 9.52812 79.9766 6.81406 82.0195 3.50195C82.8223 2.21133 82.551 2.05078 81.4549 2.05078H72.2146C73.3107 2.05078 73.582 2.21133 72.7848 3.50195Z" fill="#FE7600"/>
<path fill-rule="evenodd" clip-rule="evenodd" d="M68.5286 11.8654C66.1866 18.4676 68.2296 22.0568 72.0277 27.5568C72.62 28.4209 73.146 29.2572 73.6056 30.0715H82.8458C82.3862 29.2572 81.8603 28.4209 81.2679 27.5568C77.4698 22.0568 75.4269 18.4678 77.7689 11.8654H68.5286Z" fill="#CDBEB9"/>
<path fill-rule="evenodd" clip-rule="evenodd" d="M73.6055 30.0715C76.2686 34.7906 76.8055 38.8283 75.9086 42.7H85.1488C86.0457 38.8283 85.5088 34.7906 82.8457 30.0715H73.6055Z" fill="#838383"/>
<path fill-rule="evenodd" clip-rule="evenodd" d="M75.9072 42.6998C75.265 45.4803 73.8865 48.1777 72.0262 50.9691C70.1051 53.8549 68.2447 57.0119 64.9062 60.435H74.1465C77.4795 57.0119 79.3451 53.8549 81.2664 50.9691C83.1211 48.1775 84.5053 45.4803 85.1475 42.6998H75.9072Z" fill="#CDBEB9"/>
<path fill-rule="evenodd" clip-rule="evenodd" d="M19.6076 47.1088C20.8533 48.7705 22.7135 49.9059 24.9281 49.9059H41.6924H44.6211C46.4646 49.9059 47.9707 48.3992 47.9707 46.5549H40.8342H19.1426C19.3031 46.7211 19.458 46.9039 19.6076 47.1088Z" fill="#FFBC85"/>
<path d="M94.1393 58.9703H77.4236C79.1432 56.8863 80.4359 54.9109 81.6133 53.1092C81.9066 52.6604 82.1957 52.2176 82.4867 51.7807C85.4082 47.3883 86.7979 43.7879 86.9922 40.1068C87.175 36.6463 86.2369 33.1137 84.134 29.3754C84.1332 29.374 84.1326 29.3729 84.1318 29.3715C83.642 28.501 83.0893 27.6193 82.4725 26.7248C78.9199 21.5793 77.0506 18.3953 79.0906 12.4922C79.1342 12.4004 79.1686 12.3035 79.1924 12.2023C79.9854 10.0105 81.3059 7.44473 83.2639 4.27578C83.6264 3.69297 84.3012 2.6082 83.7266 1.57422C83.1775 0.585938 82.057 0.585938 81.4553 0.585938H42.1854C41.5834 0.585938 40.4633 0.585938 39.9141 1.57422C39.3396 2.6082 40.0143 3.69297 40.3746 4.27207C45.01 11.7721 45.8244 15.6787 45.2473 18.7643H28.4902L32.0506 15.3031C32.0641 15.29 32.0771 15.2768 32.0902 15.2631C35.9891 11.1701 36.5131 6.94883 33.4914 3.97051C31.9318 2.43438 29.9363 2.48398 28.283 4.1002C25.0746 7.24082 21.8371 10.4604 18.7061 13.574C17.0398 15.2311 15.3736 16.8879 13.7051 18.5402C12.3547 19.8779 12.2467 19.9654 11.3082 19.9711C11.0201 18.4443 9.67891 17.2852 8.06992 17.2852H3.29746C1.4793 17.2854 0 18.7648 0 20.5836V46.7764C0 48.5951 1.4793 50.0746 3.29746 50.0746H8.06992C9.88809 50.0746 11.3674 48.5951 11.3674 46.7764V46.6391C12.0928 46.6352 12.7592 46.6176 13.3518 46.601C16.4275 46.5152 17.3623 46.5543 18.4359 47.9873C20.0479 50.1375 22.4143 51.3707 24.9285 51.3707H40.8879C40.9721 51.499 41.0602 51.6324 41.159 51.7795C41.4426 52.2066 41.725 52.6398 42.0113 53.0789C43.1922 54.8896 44.4889 56.875 46.2174 58.9703H32.5687C29.3371 58.9703 26.708 61.5978 26.708 64.8273C26.708 68.06 29.3371 70.69 32.5687 70.69H51.8102V75.7111C51.8102 77.9816 53.56 79.8289 55.7109 79.8289H57.1141V87.8051H46.0943C43.8609 87.8051 42.0439 89.6227 42.0439 91.8566V95.3682C42.0439 97.599 43.8609 99.4141 46.0943 99.4141H80.6141C82.8475 99.4141 84.6645 97.599 84.6645 95.3682V91.8566C84.6645 89.6227 82.8475 87.8051 80.6141 87.8051H69.5943V79.8289H70.9975C73.1484 79.8289 74.8982 77.9816 74.8982 75.7111V70.69H94.1396C97.3713 70.69 100 68.0602 100 64.8273C100 61.5977 97.3709 58.9703 94.1393 58.9703ZM83.9387 41.2352H59.4121C59.6301 40.6566 59.75 40.0305 59.75 39.3768C59.75 38.4035 59.4852 37.4914 59.0254 36.7068C61.0803 35.9799 62.557 34.018 62.557 31.7164C62.557 31.6561 62.5545 31.5961 62.5525 31.5363H81.976C83.8516 35.1248 84.375 38.2566 83.9387 41.2352ZM43.3455 3.51562H80.2953C78.7309 6.10859 77.5639 8.36719 76.7527 10.3998L65.4617 10.3896C65.4613 10.3896 65.4609 10.3896 65.4604 10.3896C64.652 10.3896 63.9963 11.0447 63.9955 11.8531C63.9947 12.6621 64.65 13.3186 65.459 13.3193L75.7896 13.3287C75.4127 14.8309 75.2617 16.2172 75.3174 17.5453C75.4816 21.4633 77.4738 24.6416 80.0609 28.3887C80.1113 28.4617 80.1598 28.5342 80.2092 28.6068H61.5434C60.5805 27.2855 59.0225 26.4246 57.2664 26.4246H54.9711C55.3285 25.7115 55.5311 24.9074 55.5311 24.0566C55.5311 21.1387 53.1578 18.7645 50.2406 18.7645H48.2121C48.452 17.0594 48.342 15.2865 47.8504 13.3289L58.7014 13.3195C59.5103 13.3189 60.1656 12.6625 60.165 11.8535C60.1645 11.0449 59.5088 10.3898 58.7002 10.3898C58.6998 10.3898 58.6994 10.3898 58.699 10.3898L46.8881 10.4C46.0723 8.35469 44.9014 6.09375 43.3455 3.51562ZM8.4375 46.7764C8.4375 46.9762 8.26914 47.1449 8.06973 47.1449H3.29746C3.09805 47.1449 2.92969 46.9762 2.92969 46.7764V20.5836C2.92969 20.3838 3.09805 20.215 3.29746 20.215H8.06992C8.26934 20.215 8.4377 20.3838 8.4377 20.5836L8.4375 46.7764ZM24.9283 48.441C23.3219 48.441 21.8486 47.6559 20.7801 46.2305C18.7496 43.5201 16.451 43.5846 13.2701 43.6725C12.6979 43.6885 12.0553 43.7055 11.3672 43.7094V22.8975C13.2926 22.8572 14.0111 22.3604 15.7662 20.6221C17.4363 18.9684 19.1039 17.31 20.7717 15.6516C23.8986 12.542 27.132 9.32637 30.3314 6.19473C30.9551 5.58477 31.1359 5.76289 31.435 6.05742C33.8389 8.42676 31.5705 11.5551 29.9877 13.2227L24.9057 18.1633C24.25 18.8051 24.0361 19.6781 24.3477 20.442C24.6627 21.2143 25.4303 21.6941 26.351 21.6941H46.4051H50.2404C51.5422 21.6941 52.6012 22.7539 52.6012 24.0566C52.6012 25.3623 51.5422 26.4246 50.2404 26.4246H40.3912C39.5822 26.4246 38.9264 27.0805 38.9264 27.8895C38.9264 28.6984 39.5822 29.3543 40.3912 29.3543H57.2662C58.568 29.3543 59.627 30.4141 59.627 31.7168C59.627 33.0195 58.568 34.0793 57.2662 34.0793H39.5994C38.7904 34.0793 38.1346 34.7352 38.1346 35.5441C38.1346 36.3531 38.7904 37.009 39.5994 37.009H54.4537C55.7586 37.009 56.8201 38.0713 56.8201 39.377C56.8201 40.2434 56.3492 41.0002 55.6508 41.4113C55.6264 41.4246 55.6031 41.4398 55.5795 41.4545C55.2445 41.6361 54.8611 41.7395 54.4539 41.7395H37.3188C36.5098 41.7395 35.8539 42.3953 35.8539 43.2043C35.8539 44.0133 36.5098 44.6691 37.3188 44.6691H44.6213C45.6605 44.6691 46.5059 45.5152 46.5059 46.5553C46.5059 47.5953 45.6604 48.4414 44.6213 48.4414H24.9283V48.441ZM44.465 51.4787C44.4414 51.4424 44.4178 51.407 44.3941 51.3707H44.6213C47.276 51.3707 49.4355 49.2104 49.4355 46.5549C49.4355 45.8857 49.2982 45.2484 49.0506 44.6688H54.4539C55.2592 44.6688 56.0227 44.4875 56.7066 44.1646H83.2004C82.4953 46.1545 81.4027 48.1199 80.0475 50.1574C79.7523 50.6008 79.4586 51.0504 79.1605 51.5064C77.6068 53.8842 76.0016 56.3391 73.5207 58.9701H50.1197C47.6291 56.3285 46.0213 53.8648 44.465 51.4787ZM81.7344 91.8566V95.3682C81.7344 95.9732 81.2213 96.4844 80.6137 96.4844H46.0939C45.4865 96.4844 44.9732 95.9732 44.9732 95.3682V91.8566C44.9732 91.2381 45.476 90.7348 46.0939 90.7348H80.6137C81.2316 90.7348 81.7344 91.2381 81.7344 91.8566ZM66.6643 87.8051H60.0436V79.8289H66.6643V87.8051ZM94.1393 67.7604H66.5014C65.6924 67.7604 65.0365 68.4162 65.0365 69.2252C65.0365 70.0342 65.6924 70.69 66.5014 70.69H71.9682V75.7111C71.9682 76.3551 71.5234 76.8992 70.9971 76.8992H55.7109C55.1846 76.8992 54.7398 76.3551 54.7398 75.7111V70.69H60.0572C60.8662 70.69 61.5221 70.0342 61.5221 69.2252C61.5221 68.4162 60.8662 67.7604 60.0572 67.7604H32.5686C30.9523 67.7604 29.6375 66.4447 29.6375 64.8273C29.6375 63.2131 30.9523 61.9 32.5686 61.9H94.1393C95.7555 61.9 97.0703 63.2133 97.0703 64.8273C97.0703 66.4445 95.7555 67.7604 94.1393 67.7604Z" fill="black"/>
</g>
<defs>
<clipPath id="clip0_562_2077">
<rect width="100" height="100" fill="white"/>
</clipPath>
</defs>
</svg>
