<svg width="100" height="100" viewBox="0 0 100 100" fill="none" xmlns="http://www.w3.org/2000/svg">
<path d="M50 94.9219C74.8097 94.9219 94.9219 74.8097 94.9219 50C94.9219 25.1903 74.8097 5.07812 50 5.07812C25.1903 5.07812 5.07812 25.1903 5.07812 50C5.07812 74.8097 25.1903 94.9219 50 94.9219Z" fill="#3EA7FB"/>
<path d="M94.9219 50C94.9192 57.2212 93.1764 64.3355 89.841 70.7402C86.5056 77.145 81.6758 82.6517 75.7607 86.7938C69.8456 90.936 63.0194 93.5917 55.8602 94.536C48.701 95.4804 41.4197 94.6855 34.6328 92.2188C34.7422 87.7578 35.8906 83.6914 47.2031 79.9219C51.6133 78.4523 51.7969 72.1172 51.8438 67.4609C51.8828 63.8359 51.9219 60.2057 51.9609 56.5703C51.9844 54.2813 52.0859 51.7734 53.5937 50.0469C55.5625 47.7891 59.1094 47.8281 61.9687 48.7031C64.8281 49.5781 67.5469 51.125 70.5391 51.2969C74.9766 51.5469 78.9375 48.7812 83.0703 47.1484C86.7806 45.7923 90.6781 45.0176 94.625 44.8516C94.8228 46.5606 94.9219 48.2796 94.9219 50Z" fill="#95D70B"/>
<path d="M34.9609 14.8203C35.1094 16.6484 35.4922 18.625 34.5469 20.1875C33.6641 21.6406 31.9219 22.2578 30.3516 22.9062C27.6562 24.0234 25.0078 25.6406 23.6016 28.1953C22.4375 30.3203 22.2656 32.8281 21.5859 35.1562C20.9062 37.4844 19.3906 39.8828 17 40.2891C13.4219 40.8984 10.8047 36.8594 7.42969 35.6172C9.66408 29.0245 13.3973 23.0399 18.3357 18.134C23.2742 13.2281 29.2833 9.53452 35.8906 7.34375C35.08 9.74781 34.7638 12.2909 34.9609 14.8203Z" fill="#95D70B"/>
<path d="M72.5477 20.9625L56.707 14.9468L52.7578 18.432L62.3523 26.8265L72.5477 20.9625Z" fill="#DDDDE3"/>
<path d="M45.8852 43.2953L90.9016 20.5859C91.5397 20.2638 92.0257 19.7039 92.2548 19.0268C92.4839 18.3498 92.4379 17.6098 92.1266 16.9664C91.8939 16.4847 91.5245 16.0822 91.0644 15.8092C90.6044 15.5361 90.0741 15.4047 89.5398 15.4312L86.3437 15.5875C84.9906 14.8013 83.4509 14.3934 81.8859 14.4064C80.321 14.4195 78.7883 14.853 77.4484 15.6617L42.6047 36.689L39.4086 35.1562C38.6273 34.78 37.757 34.6278 36.8944 34.7166C36.0319 34.8054 35.2108 35.1318 34.5227 35.6594L33.5938 36.3687L40.6695 42.6226C41.372 43.2434 42.2444 43.6393 43.1741 43.7593C44.1039 43.8792 45.0482 43.7175 45.8852 43.2953Z" fill="#EDEDF9"/>
<path d="M75.0281 23.4789L73.343 43.1765L68.4906 45.225L64.1602 29.6094L75.0281 23.4789Z" fill="#DDDDE3"/>
<path d="M88.012 23.5726L91.5151 21.8062C92.3366 21.3915 92.9943 20.7119 93.382 19.8772C93.7696 19.0425 93.8645 18.1015 93.6513 17.2062C93.4382 16.311 92.9294 15.5137 92.2072 14.9433C91.485 14.3728 90.5916 14.0625 89.6713 14.0625L86.6643 14.2015C85.4323 13.5695 84.085 13.1937 82.7037 13.0967C81.3224 12.9998 79.9358 13.1837 78.6276 13.6375C69.3375 6.31782 57.5974 2.83322 45.8183 3.89938C34.0393 4.96554 23.1156 10.5015 15.2909 19.3703C15.0508 19.6425 14.9287 19.9988 14.9514 20.361C14.9627 20.5403 15.0091 20.7157 15.0881 20.8771C15.1672 21.0385 15.2772 21.1827 15.412 21.3015C15.5467 21.4204 15.7036 21.5115 15.8735 21.5698C16.0435 21.628 16.2233 21.6522 16.4027 21.641C16.7648 21.6183 17.1032 21.4526 17.3432 21.1805C21.8756 16.0518 27.552 12.0623 33.9127 9.53514C33.5688 11.3119 33.4637 13.1266 33.6002 14.9312C33.6221 15.2047 33.6495 15.4781 33.6784 15.7594C33.8198 17.1859 33.9526 18.5336 33.3815 19.4781C32.8104 20.4226 31.5424 20.9453 30.2096 21.4883L29.8315 21.6445C26.1862 23.1562 23.7573 25.082 22.4096 27.5398C21.6391 29.098 21.1033 30.7616 20.8198 32.4765C20.6495 33.2789 20.4885 34.039 20.2729 34.7726C20.0151 35.6547 19.0018 38.5617 16.7698 38.9414C15.1541 39.214 13.6518 38.0883 11.9127 36.7804C11.0348 36.0915 10.1058 35.4702 9.13383 34.9219C10.1293 32.2165 11.3926 29.6174 12.9049 27.1633C13.0953 26.8546 13.1554 26.483 13.0718 26.1301C12.9882 25.7773 12.7678 25.472 12.4592 25.2816C12.1506 25.0912 11.779 25.0312 11.4261 25.1148C11.0732 25.1984 10.768 25.4187 10.5776 25.7273C6.20339 32.8341 3.83175 40.9913 3.71362 49.3355C3.5955 57.6798 5.73528 65.9008 9.90654 73.1286C14.0778 80.3564 20.1254 86.3221 27.4093 90.3945C34.6933 94.4669 42.9427 96.4945 51.2845 96.2627C59.6264 96.031 67.7505 93.5484 74.797 89.0778C81.8436 84.6072 87.5506 78.3149 91.3141 70.8666C95.0775 63.4183 96.7575 55.0912 96.1762 46.7664C95.595 38.4416 92.774 30.4287 88.012 23.5758V23.5726ZM49.9995 93.5547C45.2502 93.555 40.5332 92.7748 36.0369 91.2453C36.2166 88.2234 37.3432 84.6484 47.6354 81.2187C49.0968 80.7287 50.3407 79.7425 51.151 78.4312C51.347 78.126 51.4138 77.7555 51.3366 77.401C51.2593 77.0466 51.0445 76.7374 50.7393 76.5414C50.4341 76.3454 50.0635 76.2786 49.7091 76.3559C49.3547 76.4331 49.0455 76.6479 48.8494 76.9531C48.3762 77.7396 47.6393 78.3326 46.7698 78.6265C37.0041 81.8812 34.0627 85.5656 33.4143 90.2672C30.5056 89.0618 27.7365 87.5441 25.1557 85.7406C24.7781 85.0974 24.4346 84.4348 24.1268 83.7554C23.9782 83.4246 23.7042 83.1663 23.3652 83.0374C23.0262 82.9085 22.6499 82.9195 22.319 83.068C22.192 83.1273 22.0752 83.2064 21.9729 83.3023C15.4752 77.8456 10.7149 70.608 8.27799 62.4805C5.84106 54.3529 5.83385 45.6902 8.25726 37.5586C8.92054 37.9625 9.58539 38.4492 10.269 38.9648C11.9963 40.2656 13.9276 41.7187 16.2666 41.7187C16.5888 41.72 16.9106 41.6939 17.2284 41.6406C19.7909 41.2054 21.9104 38.9258 22.8979 35.5469C23.1409 34.7125 23.3213 33.8687 23.494 33.0531C23.7257 31.6006 24.1651 30.1891 24.7987 28.8617C25.8377 26.9726 27.8252 25.4406 30.8721 24.1742L31.237 24.0242C32.8448 23.3695 34.6666 22.6265 35.7159 20.8992C36.7651 19.1719 36.5666 17.2195 36.3955 15.4945C36.3705 15.232 36.344 14.9711 36.3237 14.7179C36.1635 12.6084 36.385 10.4872 36.9776 8.45623C43.5224 6.3948 50.4624 5.91278 57.2293 7.04964C63.9963 8.18649 70.3977 10.9099 75.9096 14.9969L70.0291 18.5453L57.1955 13.6672C56.963 13.5789 56.7107 13.5557 56.4659 13.6002C56.2212 13.6446 55.9931 13.7551 55.8065 13.9195L51.8534 17.4039C51.7072 17.5322 51.5902 17.6902 51.51 17.8674C51.4297 18.0445 51.3883 18.2368 51.3883 18.4312C51.3883 18.6257 51.4297 18.8179 51.51 18.9951C51.5902 19.1722 51.7072 19.3303 51.8534 19.4586L58.6502 25.4055L53.5534 28.4812C53.3995 28.574 53.2653 28.6961 53.1587 28.8407C53.052 28.9853 52.9748 29.1495 52.9316 29.3239C52.8883 29.4983 52.8799 29.6795 52.9067 29.8571C52.9335 30.0348 52.995 30.2055 53.0877 30.3594C53.1805 30.5132 53.3026 30.6474 53.4472 30.7541C53.5918 30.8607 53.756 30.9379 53.9304 30.9811C54.1048 31.0244 54.286 31.0328 54.4636 31.006C54.6413 30.9793 54.812 30.9177 54.9659 30.825L78.1471 16.8406C79.2818 16.1694 80.5736 15.8096 81.8919 15.7977C83.2102 15.7858 84.5083 16.1221 85.6549 16.7726C85.8828 16.9058 86.1445 16.9696 86.408 16.9562L89.533 16.8H89.6659C89.9219 16.7982 90.173 16.8696 90.3898 17.0058C90.6065 17.142 90.7798 17.3373 90.8893 17.5687C91.0408 17.8891 91.0615 18.2559 90.9472 18.5913C90.8329 18.9267 90.5924 19.2044 90.2768 19.3656L76.1362 26.4969L76.3838 23.5961C76.4051 23.3485 76.3584 23.0998 76.2489 22.8768C76.1393 22.6538 75.971 22.4649 75.7621 22.3303C75.5532 22.1958 75.3116 22.1208 75.0632 22.1134C74.8148 22.106 74.5691 22.1665 74.3526 22.2883L63.4877 28.4179C63.2215 28.5679 63.0131 28.8028 62.8959 29.085C62.7787 29.3672 62.7593 29.6805 62.8409 29.975L63.6284 32.8125L45.269 42.0742C44.6769 42.3741 44.0083 42.4892 43.35 42.4046C42.6917 42.3201 42.0739 42.0397 41.5768 41.6L35.7713 36.4672C36.2353 36.2095 36.7547 36.0679 37.2852 36.0543C37.8157 36.0407 38.3416 36.1555 38.8182 36.389L42.0127 37.9203C42.2172 38.0186 42.4429 38.0644 42.6695 38.0535C42.8961 38.0425 43.1163 37.9753 43.3104 37.8578L48.9549 34.4531C49.1088 34.3603 49.2429 34.2381 49.3496 34.0935C49.4563 33.9489 49.5334 33.7846 49.5766 33.6102C49.6198 33.4358 49.6282 33.2545 49.6014 33.0768C49.5745 32.8991 49.513 32.7285 49.4202 32.5746C49.3274 32.4207 49.2052 32.2866 49.0605 32.1799C48.9159 32.0733 48.7517 31.9961 48.5772 31.9529C48.4028 31.9097 48.2216 31.9013 48.0439 31.9281C47.8662 31.955 47.6955 32.0166 47.5416 32.1094L42.5268 35.1359L40.0034 33.9265C38.9963 33.4342 37.8715 33.2336 36.7564 33.3474C35.6412 33.4612 34.5801 33.8848 33.6932 34.5703L32.7627 35.2804C32.6023 35.4029 32.471 35.5593 32.3782 35.7384C32.2854 35.9176 32.2334 36.1151 32.2259 36.3167C32.2184 36.5183 32.2557 36.7191 32.335 36.9047C32.4143 37.0902 32.5337 37.2559 32.6846 37.3898L39.7651 43.6515C40.6715 44.4532 41.7976 44.9642 42.9977 45.1185C44.1978 45.2729 45.4166 45.0634 46.4963 44.5172L64.3745 35.5L67.1713 45.5906C67.2234 45.7779 67.3148 45.952 67.4395 46.1012C67.5641 46.2504 67.7192 46.3713 67.8942 46.4558C68.0693 46.5404 68.2603 46.5867 68.4547 46.5916C68.649 46.5965 68.8422 46.56 69.0213 46.4844L73.8737 44.4359C74.1029 44.339 74.3013 44.1813 74.4475 43.9799C74.5937 43.7785 74.6822 43.5409 74.7034 43.2929L75.8666 29.6992L85.5416 24.8203C89.5119 30.3948 92.0975 36.8347 93.0846 43.607C89.4866 43.8454 85.943 44.6109 82.5674 45.8789C81.3955 46.3406 80.2448 46.8883 79.1299 47.4187C76.2315 48.7953 73.4799 50.089 70.6182 49.9336C68.7594 49.7174 66.9457 49.2126 65.2424 48.4375C64.3143 48.0758 63.3557 47.7023 62.3682 47.3984C58.2768 46.1484 54.6112 46.8015 52.5627 49.15C50.6471 51.3445 50.6143 54.482 50.5932 56.5578L50.5026 65.0265C50.499 65.3888 50.6395 65.7376 50.8931 65.9964C51.1467 66.2551 51.4927 66.4025 51.8549 66.4062H51.8698C52.2297 66.406 52.5751 66.264 52.8311 66.0108C53.087 65.7577 53.2328 65.4138 53.2369 65.0539L53.3276 56.5844C53.3502 54.3687 53.4659 52.2703 54.6237 50.9453C56.1768 49.164 59.2284 49.2937 61.5666 50.0078C62.4557 50.282 63.3276 50.6211 64.2495 50.9812C66.2176 51.8675 68.3145 52.4342 70.4612 52.6601C74.037 52.8617 77.2221 51.3492 80.3049 49.8851C81.4291 49.3508 82.4924 48.8461 83.5752 48.4187C86.7306 47.2419 90.0417 46.5351 93.4026 46.3211C93.5036 47.5383 93.5557 48.764 93.5588 49.9984C93.5462 61.5469 88.9528 72.6188 80.7865 80.7845C72.6201 88.9502 61.548 93.5429 49.9995 93.5547ZM61.1096 23.9226L54.8291 18.4258L56.9955 16.5164L67.0541 20.3359L61.1096 23.9226ZM65.762 30.2742L73.444 25.9414L72.0502 42.2375L69.394 43.3601L65.762 30.2742Z" fill="#061720"/>
<path d="M51.8359 69.1867C51.6564 69.1762 51.4767 69.2013 51.3069 69.2603C51.1371 69.3194 50.9806 69.4113 50.8464 69.5309C50.7122 69.6505 50.6028 69.7953 50.5246 69.9572C50.4464 70.119 50.4009 70.2947 50.3906 70.4742C50.3437 71.4249 50.2438 72.3722 50.0914 73.3117C50.031 73.6692 50.1151 74.0361 50.3252 74.3316C50.5353 74.6271 50.8542 74.8271 51.2117 74.8875C51.2875 74.9005 51.3644 74.9071 51.4414 74.907C51.7641 74.9066 52.0762 74.792 52.3226 74.5835C52.5689 74.375 52.7336 74.0861 52.7875 73.768C52.9583 72.7274 53.0709 71.6781 53.125 70.625C53.1446 70.2634 53.0198 69.9087 52.7781 69.6391C52.5364 69.3694 52.1975 69.2067 51.8359 69.1867Z" fill="#061720"/>
<path d="M87.2256 38.8132C87.3411 39.1472 87.5813 39.4236 87.896 39.5844C88.2107 39.7452 88.5754 39.778 88.9137 39.6759C89.252 39.5738 89.5377 39.3447 89.7109 39.0367C89.8841 38.7286 89.9314 38.3655 89.8428 38.0234C89.375 36.4735 88.8173 34.9521 88.1725 33.4672C88.0281 33.1345 87.7574 32.8728 87.4201 32.7397C87.0827 32.6066 86.7063 32.613 86.3736 32.7574C86.041 32.9018 85.7793 33.1725 85.6462 33.5098C85.5131 33.8471 85.5195 34.2236 85.6639 34.5562C86.2675 35.9434 86.7889 37.3648 87.2256 38.8132Z" fill="#061720"/>
<path d="M32.687 44.2008C31.9709 44.8374 31.2875 45.5099 30.6394 46.2156C30.4009 46.4833 30.2771 46.8339 30.2946 47.192C30.3121 47.55 30.4696 47.8869 30.7331 48.13C30.9965 48.3731 31.345 48.503 31.7033 48.4917C32.0616 48.4804 32.4011 48.3288 32.6488 48.0695C33.2339 47.432 33.8511 46.8247 34.498 46.25C34.7697 46.0099 34.9349 45.6716 34.9573 45.3096C34.9796 44.9477 34.8573 44.5917 34.6171 44.3199C34.377 44.0482 34.0387 43.883 33.6768 43.8606C33.3148 43.8383 32.9588 43.9606 32.687 44.2008Z" fill="#061720"/>
<path d="M22.1266 73.9625C22.1266 73.6945 22.1313 73.4258 22.1383 73.1578C22.1487 72.7952 22.0146 72.4433 21.7655 72.1796C21.5164 71.9159 21.1728 71.7619 20.8102 71.7515C20.4476 71.7412 20.0957 71.8753 19.832 72.1244C19.5683 72.3734 19.4143 72.7171 19.404 73.0797C19.3954 73.3703 19.3915 73.6617 19.3907 73.9554C19.3872 75.673 19.5376 77.3874 19.8399 79.0781C19.8973 79.3928 20.0631 79.6775 20.3086 79.8826C20.5541 80.0877 20.8637 80.2003 21.1837 80.2008C21.2662 80.2009 21.3486 80.1933 21.4297 80.1781C21.7864 80.1133 22.1027 79.9095 22.3091 79.6115C22.5156 79.3135 22.5952 78.9457 22.5305 78.589C22.2581 77.062 22.1229 75.5136 22.1266 73.9625Z" fill="#061720"/>
<path d="M28.8713 50.5242C28.5703 50.322 28.2013 50.2476 27.8455 50.3173C27.4896 50.3871 27.1761 50.5952 26.9736 50.8961C25.8743 52.5338 24.8799 54.2396 23.9963 56.0031C23.9106 56.164 23.858 56.3404 23.8415 56.522C23.8251 56.7035 23.8451 56.8865 23.9003 57.0602C23.9556 57.2339 24.0451 57.3948 24.1635 57.5334C24.2819 57.672 24.4268 57.7856 24.5897 57.8673C24.7526 57.9491 24.9302 57.9975 25.1121 58.0097C25.294 58.0218 25.4764 57.9975 25.6488 57.938C25.8211 57.8786 25.9798 57.7853 26.1156 57.6637C26.2513 57.542 26.3614 57.3945 26.4392 57.2297C27.2718 55.5696 28.2083 53.9638 29.2432 52.4218C29.4453 52.1208 29.5197 51.7519 29.45 51.396C29.3803 51.0402 29.1721 50.7266 28.8713 50.5242Z" fill="#061720"/>
<path d="M23.4204 60.6055C23.2511 60.5457 23.0716 60.5198 22.8923 60.5294C22.713 60.539 22.5373 60.5838 22.3753 60.6613C22.2133 60.7388 22.0682 60.8474 21.9482 60.981C21.8282 61.1146 21.7356 61.2705 21.6759 61.4398C21.0141 63.3053 20.4852 65.2153 20.0931 67.1555C20.0578 67.3315 20.0575 67.5127 20.0923 67.6888C20.1271 67.8649 20.1962 68.0325 20.2957 68.1819C20.3953 68.3312 20.5233 68.4596 20.6724 68.5594C20.8216 68.6593 20.9889 68.7289 21.165 68.7641C21.2536 68.7823 21.344 68.7915 21.4345 68.7914C21.7503 68.7912 22.0564 68.6816 22.3005 68.4811C22.5446 68.2807 22.7118 68.0019 22.7736 67.6922C23.1419 65.8787 23.6379 64.0936 24.2579 62.35C24.3176 62.1805 24.3433 62.0008 24.3336 61.8214C24.3238 61.6419 24.2787 61.4661 24.2009 61.3041C24.1231 61.142 24.0142 60.9969 23.8802 60.8771C23.7463 60.7572 23.5901 60.6649 23.4204 60.6055Z" fill="#061720"/>
</svg>
