<svg width="100" height="100" viewBox="0 0 100 100" fill="none" xmlns="http://www.w3.org/2000/svg">
<g clip-path="url(#clip0_562_2674)">
<path d="M32.6997 39.0404C27.3874 46.4848 26.476 56.918 34.6098 65.9449C40.1042 63.9508 44.8497 66.785 49.2583 71.1654C54.1022 75.9785 55.0694 83.181 52.168 88.9529L54.1448 91.151C62.6569 100.616 77.4249 101.028 86.4577 92.0521L92.0198 86.5256C101.053 77.5502 100.638 62.8764 91.1127 54.4185L88.9006 52.4543C83.0917 55.3371 75.843 54.3762 70.9991 49.5631C66.5905 45.1826 63.7381 40.4672 65.745 35.008C56.859 27.1045 46.295 27.9543 38.7096 33.1512L32.6997 39.0404Z" fill="#D68458"/>
<path d="M57.9326 35.0078C55.9258 40.4672 58.7781 45.1824 63.1867 49.5629C67.2174 53.568 72.9125 54.9031 78.0582 53.5785C75.4723 52.9125 73.0252 51.576 70.9992 49.5629C66.5906 45.1824 63.7383 40.467 65.7451 35.0078C59.8715 29.7834 53.2648 28.3848 47.2695 29.5371C50.8959 30.2465 54.5367 31.9873 57.9326 35.0078Z" fill="#C77B52"/>
<path d="M91.1127 54.4184L88.9006 52.4541C87.0029 53.3959 84.9516 53.9246 82.8807 54.0457L83.3004 54.4184C92.8258 62.8762 93.2402 77.55 84.2074 86.5254L78.6453 92.0519C75.2912 95.3848 71.1461 97.4221 66.8242 98.1832C73.7178 99.3984 81.0975 97.3779 86.4578 92.0519L92.0199 86.5254C101.053 77.55 100.638 62.8762 91.1127 54.4184Z" fill="#C77B52"/>
<path d="M91.0281 87.5111L87.45 91.0664L82.7885 86.4346C79.1502 82.8195 75.1223 79.6137 70.7773 76.8752L76.7459 70.9445C79.502 75.2617 82.7283 79.2641 86.3666 82.8791L91.0281 87.5111Z" fill="#AA6946"/>
<path d="M59.6191 95.5768C66.7777 99.6803 75.7932 99.5172 82.826 94.9783C71.0604 81.0051 61.1174 93.5123 59.6191 95.5768Z" fill="#6B78E3"/>
<path d="M50.6139 44.9795L21.7877 18.2365L18.1648 18.6424L17.7383 22.2752L44.6453 50.91L50.6139 44.9795Z" fill="#FFF2E8"/>
<path d="M18.62 15.2971C15.9826 12.8504 14.1479 9.67128 13.3545 6.17382L10.8354 3.67089C9.62894 2.47206 7.92992 1.89882 6.23831 2.11991C3.77445 2.44199 1.83578 4.36835 1.51175 6.8162C1.28929 8.49706 1.86605 10.1853 3.07269 11.384L5.59183 13.8871C9.11175 14.6754 12.3112 16.4986 14.7735 19.1191L17.7391 22.2752L21.7885 18.2365L18.62 15.2971Z" fill="#AA6946"/>
<path d="M99.9903 70.2408C99.8067 63.6941 96.9995 57.6859 92.0856 53.3228C91.2065 52.5424 89.6094 50.4676 88.2497 51.1418C83.6503 53.4244 78.2594 53.0098 74.1157 50.2301L97.3135 26.3213C99.5233 24.0113 100.45 20.7709 99.7921 17.6527L98.8657 13.2619C98.4754 11.4129 95.6092 12.018 95.9991 13.8668L96.1471 14.5689L68.0592 43.5902C66.4282 40.7691 66.1461 38.1629 67.1204 35.5131C67.328 34.9478 67.169 34.3133 66.719 33.9131C62.3124 29.9937 57.1463 27.8461 51.7794 27.7023C47.1102 27.5764 42.4877 28.9332 38.3696 31.6215L19.8047 14.3984L21.9469 12.2699C23.2874 10.9381 21.2223 8.85976 19.8821 10.1916L17.8102 12.2502C17.2918 11.5834 16.8278 10.8793 16.4206 10.1437L19.1016 7.47968C20.442 6.14785 18.377 4.06953 17.0368 5.40136L15.1704 7.25586C13.9887 3.58925 10.0518 0.144528 6.0481 0.66738C2.93228 1.07461 0.469582 3.52402 0.0592302 6.62402C-0.469676 10.6197 3.01939 14.5387 6.67427 15.698L4.82739 17.5332C3.48677 18.8652 5.55239 20.943 6.89224 19.6115L9.58306 16.9381C10.3241 17.342 11.0333 17.8025 11.7049 18.3168L9.6481 20.3603C8.30747 21.6924 10.3731 23.7701 11.7131 22.4387L13.8692 20.2963L31.1596 38.6969C28.4126 42.7498 27.0249 47.3141 27.1485 51.9383C27.2911 57.2738 29.4952 62.4564 33.5219 66.9254C33.9211 67.3685 34.5493 67.5254 35.1098 67.3219C38.0194 66.2658 40.8751 66.69 44.0131 68.7144L34.8346 78.3088C32.6249 80.6187 31.6983 83.8592 32.3563 86.9773L32.8149 89.1516L24.8163 97.5127C23.5114 98.8768 25.6245 100.906 26.9333 99.5379L35.4588 90.6258C35.4594 90.625 35.4602 90.6244 35.4608 90.6236L50.4042 75.0029C52.7737 79.0047 53.0192 83.998 50.8594 88.2949C50.1682 89.6699 52.2567 91.2416 53.0559 92.1303C57.4424 97.0078 63.4817 99.7959 70.0608 99.9805C78.4829 100.216 84.5876 95.9758 90.2715 90.3277C95.9354 84.7 100.226 78.6445 99.9903 70.2408ZM96.877 18.0275L96.9256 18.2576C97.3837 20.4285 96.7374 22.6857 95.204 24.2887L71.8588 48.349C71.0721 47.5574 70.3755 46.7885 69.7671 46.0381L96.877 18.0275ZM19.777 22.3053L21.8258 20.2697L48.4997 45.0158L44.6819 48.8094L19.777 22.3053ZM10.161 13.9398C8.90904 13.0555 7.19263 13.0531 5.97407 12.2023C4.36275 11.0773 2.68853 9.08652 2.96353 7.0084C3.20005 5.2209 4.62466 3.808 6.42759 3.57246C8.20806 3.33925 9.90161 4.49726 11.0235 5.76894C12.3278 7.24746 12.3159 9.17578 13.4184 10.724C14.9155 13.7762 17.2297 16.0057 19.6764 18.2754L17.7702 20.1693C15.4786 17.7309 13.2292 15.426 10.161 13.9398ZM35.268 86.5871L35.2227 86.3727C34.7647 84.202 35.411 81.9445 36.9516 80.3342L46.371 70.4879C46.9764 71.0051 47.594 71.5764 48.2262 72.2045C48.3637 72.341 48.4977 72.4803 48.6284 72.6213L35.268 86.5871ZM55.2342 90.1713L53.9045 88.693C56.6213 82.3777 55.2274 75.0314 50.2909 70.1262C46.844 66.7012 41.5852 62.4656 35.0835 64.2572C31.9208 60.4832 30.1932 56.2146 30.0768 51.86C29.9752 48.0605 31.062 44.2932 33.2221 40.8922L43.578 51.9131C44.1315 52.5019 45.1051 52.5184 45.678 51.9492L51.6465 46.0186C52.2292 45.4396 52.2126 44.4643 51.6104 43.9057L40.5909 33.6824C46.7794 29.9461 55.809 28.6728 64.0532 35.4857C62.2575 41.9508 66.5194 47.1766 69.9669 50.602C74.9016 55.5053 82.2932 56.8877 88.6436 54.1846L90.1405 55.5137C94.443 59.334 96.901 64.5933 97.0618 70.323C97.2219 76.0307 95.079 81.3986 91.0276 85.4457L87.3989 81.8402C83.8428 78.3068 80.6741 74.376 77.9805 70.1564C77.4852 69.3807 76.3663 69.2562 75.7133 69.9055L69.7446 75.8361C69.0864 76.49 69.211 77.6197 69.996 78.1144C74.243 80.7912 78.1995 83.9402 81.7557 87.4736L85.3708 91.0656C84.5733 91.8525 83.7245 92.566 82.8325 93.2047C78.8477 88.7814 74.6506 86.6668 70.3417 86.9103C64.7795 87.2287 60.7362 91.4209 59.0549 93.5072C57.6692 92.5674 56.3862 91.4523 55.2342 90.1713ZM87.4501 89.0014L83.821 85.3953C80.5458 82.141 76.9454 79.1998 73.0979 76.6342L76.5061 73.2478C79.0907 77.0764 82.0547 80.6598 85.334 83.9182L88.9499 87.5109C88.4499 88.0078 87.9501 88.5047 87.4501 89.0014ZM70.143 97.0521C67.1294 96.9676 64.2458 96.2592 61.6301 94.9936C63.162 93.1877 66.3805 90.0717 70.5092 89.8354C73.7626 89.6494 77.0467 91.307 80.287 94.7641C77.1997 96.3584 73.737 97.1529 70.143 97.0521Z" fill="#060606"/>
<path d="M59.4537 74.8559C61.8167 73.3799 62.1798 69.9705 60.1712 68.035L54.2818 62.3603C53.6224 61.7252 53.7437 60.6182 54.5183 60.1342C56.121 59.1334 54.5691 56.6482 52.9665 57.6492C50.6033 59.1252 50.2404 62.5346 52.249 64.4701L58.1384 70.1447C58.7978 70.7801 58.6765 71.8871 57.9017 72.3709C56.3111 73.3644 57.8314 75.8687 59.4537 74.8559Z" fill="#060606"/>
<path d="M58.0765 55.0441C58.7603 55.4769 59.6651 55.273 60.0976 54.5893C60.5905 53.81 61.7212 53.6963 62.3638 54.3551L68.0749 60.207C70.0175 62.1977 73.4267 61.8437 74.9138 59.4928C75.9239 57.8959 73.4482 56.3299 72.4378 57.9266C71.9446 58.7059 70.8144 58.8191 70.1716 58.1607L64.4605 52.3088C62.5198 50.3203 59.1085 50.6725 57.6216 53.023C57.1892 53.7068 57.3927 54.6117 58.0765 55.0441Z" fill="#060606"/>
<path d="M40.8588 18.9852C43.2975 18.9852 45.2078 17.4187 45.2078 15.4193V4.9914L48.8104 8.59375C50.1465 9.92988 52.2182 7.8582 50.8818 6.52226L44.7787 0.419137C43.8881 -0.471488 42.2781 0.179488 42.2781 1.45488V12.0416C41.835 11.9199 41.3582 11.8533 40.8588 11.8533C38.4201 11.8533 36.5098 13.4197 36.5098 15.4191C36.5098 17.4187 38.4199 18.9852 40.8588 18.9852ZM40.8588 14.7832C41.7902 14.7832 42.2781 15.2559 42.2781 15.4193C42.2781 15.5828 41.79 16.0555 40.8588 16.0555C39.9275 16.0555 39.4395 15.5828 39.4395 15.4193C39.4395 15.2559 39.9273 14.7832 40.8588 14.7832Z" fill="#060606"/>
<path d="M17.6947 71.9371C16.8043 71.0463 15.1941 71.6977 15.1941 72.9728V83.5596C14.751 83.4379 14.2742 83.3713 13.7748 83.3713C11.3361 83.3713 9.42578 84.9377 9.42578 86.9371C9.42578 88.9367 11.3361 90.5029 13.7748 90.5029C16.2135 90.5029 18.1238 88.9365 18.1238 86.9371V76.5092L21.7264 80.1117C23.0625 81.4478 25.1342 79.3762 23.7979 78.0402L17.6947 71.9371ZM13.7748 87.5732C12.8434 87.5732 12.3555 87.1006 12.3555 86.9371C12.3555 86.7736 12.8436 86.301 13.7748 86.301C14.7061 86.301 15.1941 86.7736 15.1941 86.9371C15.1941 87.1006 14.7061 87.5732 13.7748 87.5732Z" fill="#060606"/>
<path d="M16.7008 49.3914C16.2576 49.2697 15.7809 49.2031 15.2814 49.2031C12.8428 49.2031 10.9324 50.7695 10.9324 52.7689C10.9324 54.7685 12.8428 56.3348 15.2814 56.3348C17.7201 56.3348 19.6305 54.7684 19.6305 52.7689V38.8047C19.6305 37.726 18.3873 36.9857 17.4338 37.5357L6.50137 43.8416C6.04785 44.1031 5.76836 44.5869 5.76836 45.1105V55.6973C5.3252 55.5756 4.84844 55.509 4.34902 55.509C1.91035 55.5088 0 57.0752 0 59.0746C0 61.0742 1.91035 62.6404 4.34902 62.6404C6.7877 62.6404 8.69805 61.074 8.69805 59.0746V45.9564L16.7008 41.3406V49.3914ZM4.34902 59.7107C3.41758 59.7107 2.92969 59.2381 2.92969 59.0746C2.92969 58.9111 3.41777 58.4385 4.34902 58.4385C5.28027 58.4385 5.76836 58.9111 5.76836 59.0746C5.76836 59.2381 5.28047 59.7107 4.34902 59.7107ZM15.2814 53.4051C14.35 53.4051 13.8621 52.9324 13.8621 52.7689C13.8621 52.6055 14.3502 52.1328 15.2814 52.1328C16.2127 52.1328 16.7008 52.6055 16.7008 52.7689C16.7008 52.9324 16.2129 53.4051 15.2814 53.4051Z" fill="#060606"/>
<path d="M68.2105 28.1773C70.6492 28.1773 72.5596 26.6109 72.5596 24.6115V11.4934L80.5623 6.87734V14.9281C80.1189 14.8064 79.6424 14.7398 79.1428 14.7398C76.7041 14.7398 74.7937 16.3062 74.7937 18.3057C74.7937 20.3051 76.7041 21.8715 79.1428 21.8715C81.5814 21.8715 83.492 20.3051 83.492 18.3057V4.3414C83.492 3.2625 82.2488 2.52265 81.2951 3.07246L70.3627 9.37832C69.9092 9.63984 69.6299 10.1236 69.6299 10.6473V21.234C69.1867 21.1123 68.71 21.0457 68.2105 21.0457C65.7719 21.0457 63.8613 22.6121 63.8613 24.6115C63.8613 26.6109 65.7717 28.1773 68.2105 28.1773ZM79.1428 18.9418C78.2113 18.9418 77.7234 18.4691 77.7234 18.3057C77.7234 18.1422 78.2115 17.6695 79.1428 17.6695C80.074 17.6695 80.5623 18.1422 80.5623 18.3057C80.5623 18.4691 80.0742 18.9418 79.1428 18.9418ZM68.2105 23.9754C69.142 23.9754 69.6299 24.448 69.6299 24.6115C69.6299 24.775 69.1418 25.2477 68.2105 25.2477C67.2793 25.2477 66.791 24.775 66.791 24.6115C66.791 24.448 67.2791 23.9754 68.2105 23.9754Z" fill="#060606"/>
</g>
<defs>
<clipPath id="clip0_562_2674">
<rect width="100" height="100" fill="white"/>
</clipPath>
</defs>
</svg>
