<svg width="100" height="100" viewBox="0 0 100 100" fill="none" xmlns="http://www.w3.org/2000/svg">
<path d="M9.375 51.5625H53.125V85.9375H9.375V51.5625Z" fill="#AAE1F9"/>
<path d="M4.6875 85.9375H57.8125V89.0625C57.8125 90.7201 57.154 92.3098 55.9819 93.4819C54.8098 94.654 53.2201 95.3125 51.5625 95.3125H10.9375C9.2799 95.3125 7.69018 94.654 6.51808 93.4819C5.34598 92.3098 4.6875 90.7201 4.6875 89.0625V85.9375Z" fill="#F9E109"/>
<path d="M15.625 64.0625V51.5625H9.375V85.9375H53.125V79.6875H31.25C27.106 79.6875 23.1317 78.0413 20.2015 75.111C17.2712 72.1808 15.625 68.2065 15.625 64.0625Z" fill="#57B7EB"/>
<path d="M14.0625 90.625C12.8193 90.625 11.627 90.1311 10.7479 89.2521C9.86886 88.373 9.375 87.1807 9.375 85.9375H4.6875V89.0625C4.6875 90.7201 5.34598 92.3098 6.51808 93.4819C7.69018 94.654 9.2799 95.3125 10.9375 95.3125H51.5625C52.9446 95.308 54.2863 94.8455 55.3776 93.9974C56.4689 93.1492 57.2482 91.9632 57.5938 90.625H14.0625Z" fill="#FCBC04"/>
<path d="M92.1875 53.125H73.4375C71.7116 53.125 70.3125 54.5241 70.3125 56.25V75C70.3125 76.7259 71.7116 78.125 73.4375 78.125H92.1875C93.9134 78.125 95.3125 76.7259 95.3125 75V56.25C95.3125 54.5241 93.9134 53.125 92.1875 53.125Z" fill="#C4F236"/>
<path d="M82.8125 70.3125C85.4013 70.3125 87.5 68.2138 87.5 65.625C87.5 63.0362 85.4013 60.9375 82.8125 60.9375C80.2237 60.9375 78.125 63.0362 78.125 65.625C78.125 68.2138 80.2237 70.3125 82.8125 70.3125Z" fill="#57B7EB"/>
<path d="M75 60.9375V53.125H73.4375C72.6087 53.125 71.8138 53.4542 71.2278 54.0403C70.6417 54.6263 70.3125 55.4212 70.3125 56.25V75C70.3125 75.8288 70.6417 76.6237 71.2278 77.2097C71.8138 77.7958 72.6087 78.125 73.4375 78.125H92.1875C93.0163 78.125 93.8112 77.7958 94.3972 77.2097C94.9833 76.6237 95.3125 75.8288 95.3125 75V73.4375H87.5C84.1848 73.4375 81.0054 72.1205 78.6612 69.7763C76.317 67.4321 75 64.2527 75 60.9375Z" fill="#A1D51C"/>
<path d="M84.375 65.625C85.2379 65.625 85.9375 64.9254 85.9375 64.0625C85.9375 63.1996 85.2379 62.5 84.375 62.5C83.5121 62.5 82.8125 63.1996 82.8125 64.0625C82.8125 64.9254 83.5121 65.625 84.375 65.625Z" fill="#AAE1F9"/>
<path d="M4.6875 18.75H23.4375V43.75H4.6875V18.75Z" fill="#C4F236"/>
<path d="M42.1875 28.125C49.0911 28.125 54.6875 22.5286 54.6875 15.625C54.6875 8.72144 49.0911 3.125 42.1875 3.125C35.2839 3.125 29.6875 8.72144 29.6875 15.625C29.6875 22.5286 35.2839 28.125 42.1875 28.125Z" fill="#F89C8D"/>
<path d="M39.0625 20.3125V10.9375L48.4375 15.625L39.0625 20.3125Z" fill="#AAE1F9"/>
<path d="M46.8755 23.4375C43.5603 23.4375 40.3808 22.1205 38.0366 19.7763C35.6924 17.4321 34.3755 14.2527 34.3755 10.9375C34.3715 8.77191 34.9373 6.64338 36.0161 4.76562C34.3698 5.73277 32.9669 7.06421 31.9151 8.65778C30.8633 10.2514 30.1906 12.0647 29.9485 13.9587C29.7065 15.8526 29.9015 17.7769 30.5186 19.5838C31.1358 21.3907 32.1587 23.0321 33.5088 24.3823C34.859 25.7324 36.5004 26.7553 38.3073 27.3725C40.1142 27.9896 42.0385 28.1847 43.9324 27.9426C45.8264 27.7005 47.6398 27.0278 49.2333 25.976C50.8269 24.9242 52.1583 23.5213 53.1255 21.875C51.2172 22.9399 49.0604 23.4791 46.8755 23.4375Z" fill="#F8664F"/>
<path d="M92.1875 4.6875H73.4375C71.7116 4.6875 70.3125 6.08661 70.3125 7.8125V26.5625C70.3125 28.2884 71.7116 29.6875 73.4375 29.6875H92.1875C93.9134 29.6875 95.3125 28.2884 95.3125 26.5625V7.8125C95.3125 6.08661 93.9134 4.6875 92.1875 4.6875Z" fill="#AAE1F9"/>
<path d="M75 12.5V4.6875H73.4375C72.6087 4.6875 71.8138 5.01674 71.2278 5.60279C70.6417 6.18884 70.3125 6.9837 70.3125 7.8125V26.5625C70.3125 27.3913 70.6417 28.1862 71.2278 28.7722C71.8138 29.3583 72.6087 29.6875 73.4375 29.6875H92.1875C93.0163 29.6875 93.8112 29.3583 94.3972 28.7722C94.9833 28.1862 95.3125 27.3913 95.3125 26.5625V25H87.5C84.1848 25 81.0054 23.683 78.6612 21.3388C76.317 18.9946 75 15.8152 75 12.5Z" fill="#57B7EB"/>
<path d="M9.375 29.6875V18.75H4.6875V43.75H23.4375V39.0625H18.75C16.2636 39.0625 13.879 38.0748 12.1209 36.3166C10.3627 34.5585 9.375 32.1739 9.375 29.6875Z" fill="#A1D51C"/>
<path d="M29.7852 67.4459L35.1977 64.3209L41.4477 75.1459C41.8621 75.8636 41.9744 76.7166 41.7599 77.5171C41.5454 78.3177 41.0216 79.0002 40.3039 79.4146C39.5862 79.829 38.7332 79.9413 37.9326 79.7268C37.1321 79.5123 36.4496 78.9886 36.0352 78.2709L29.7852 67.4459Z" fill="#F8664F"/>
<path d="M39.1562 71.1719L35.2031 64.3125L29.7812 67.4375L33.4844 73.8437L36.1875 72.2812L39.1562 71.1719Z" fill="#CC5144"/>
<path d="M62.8906 59.1562L36.1875 69.1562L28.375 55.625L50.3906 37.5L62.8906 59.1562Z" fill="#C4F236"/>
<path d="M21.616 59.5334L28.3816 55.6271L36.1941 69.1584L29.4285 73.0646C28.3519 73.6862 27.0725 73.8547 25.8716 73.533C24.6708 73.2112 23.647 72.4256 23.0254 71.349L19.9004 65.9365C19.2788 64.8599 19.1103 63.5805 19.4321 62.3796C19.7538 61.1788 20.5394 60.155 21.616 59.5334Z" fill="#F89C8D"/>
<path d="M17.1828 67.4959L19.8891 65.9334L23.0141 71.3459L20.3078 72.9084C19.5901 73.3228 18.7371 73.4351 17.9366 73.2206C17.136 73.0061 16.4535 72.4824 16.0391 71.7647C15.6247 71.0469 15.5124 70.194 15.7268 69.3934C15.9413 68.5929 16.4651 67.9103 17.1828 67.4959Z" fill="#CC5144"/>
<path d="M38 64.375C37.8382 64.4354 37.6815 64.5086 37.5312 64.5937L34.5469 66.3125L36.1875 69.1562L62.8906 59.1562L60.9375 55.7812L38 64.375Z" fill="#A1D51C"/>
<path d="M33.6872 66.8125C32.4437 67.5239 31.0287 67.8798 29.5966 67.8412C28.1646 67.8025 26.7708 67.3709 25.5675 66.5935C24.3643 65.8161 23.398 64.7227 22.7742 63.4331C22.1505 62.1435 21.8933 60.7072 22.0309 59.2812L21.609 59.5312C21.0753 59.8388 20.6074 60.2485 20.2321 60.737C19.8568 61.2255 19.5815 61.7832 19.4218 62.3781C19.2622 62.9731 19.2214 63.5937 19.3018 64.2044C19.3822 64.8152 19.5821 65.4041 19.8903 65.9375L23.0153 71.3438C23.3228 71.8775 23.7325 72.3454 24.221 72.7207C24.7095 73.096 25.2672 73.3713 25.8622 73.531C26.4571 73.6906 27.0777 73.7314 27.6885 73.651C28.2992 73.5706 28.8881 73.3706 29.4215 73.0625L36.1872 69.1562L34.5465 66.3125L33.6872 66.8125Z" fill="#F8664F"/>
<path d="M57.8125 84.375H54.6875V69.0625C54.6875 68.6481 54.5229 68.2507 54.2299 67.9576C53.9368 67.6646 53.5394 67.5 53.125 67.5C52.7106 67.5 52.3132 67.6646 52.0201 67.9576C51.7271 68.2507 51.5625 68.6481 51.5625 69.0625V84.375H10.9375V53.125H23.9375C24.3519 53.125 24.7493 52.9604 25.0424 52.6674C25.3354 52.3743 25.5 51.9769 25.5 51.5625C25.5 51.1481 25.3354 50.7507 25.0424 50.4576C24.7493 50.1646 24.3519 50 23.9375 50H9.375C8.9606 50 8.56317 50.1646 8.27015 50.4576C7.97712 50.7507 7.8125 51.1481 7.8125 51.5625V84.375H4.6875C4.2731 84.375 3.87567 84.5396 3.58265 84.8326C3.28962 85.1257 3.125 85.5231 3.125 85.9375V89.0625C3.125 91.1345 3.9481 93.1216 5.41323 94.5868C6.87836 96.0519 8.8655 96.875 10.9375 96.875H51.5625C53.6345 96.875 55.6216 96.0519 57.0868 94.5868C58.5519 93.1216 59.375 91.1345 59.375 89.0625V85.9375C59.375 85.5231 59.2104 85.1257 58.9174 84.8326C58.6243 84.5396 58.2269 84.375 57.8125 84.375ZM56.25 89.0625C56.25 90.3057 55.7561 91.498 54.8771 92.3771C53.998 93.2561 52.8057 93.75 51.5625 93.75H48.4375V92.1875C48.4375 91.7731 48.2729 91.3757 47.9799 91.0826C47.6868 90.7896 47.2894 90.625 46.875 90.625C46.4606 90.625 46.0632 90.7896 45.7701 91.0826C45.4771 91.3757 45.3125 91.7731 45.3125 92.1875V93.75H17.1875V92.1875C17.1875 91.7731 17.0229 91.3757 16.7299 91.0826C16.4368 90.7896 16.0394 90.625 15.625 90.625C15.2106 90.625 14.8132 90.7896 14.5201 91.0826C14.2271 91.3757 14.0625 91.7731 14.0625 92.1875V93.75H10.9375C9.6943 93.75 8.50201 93.2561 7.62294 92.3771C6.74386 91.498 6.25 90.3057 6.25 89.0625V87.5H56.25V89.0625Z" fill="black"/>
<path d="M84.375 12.5H87.5C87.9144 12.5 88.3118 12.3354 88.6049 12.0424C88.8979 11.7493 89.0625 11.3519 89.0625 10.9375C89.0625 10.5231 88.8979 10.1257 88.6049 9.83265C88.3118 9.53962 87.9144 9.375 87.5 9.375H84.375C83.1318 9.375 81.9395 9.86886 81.0604 10.7479C80.1814 11.627 79.6875 12.8193 79.6875 14.0625V15.625H78.125C77.7106 15.625 77.3132 15.7896 77.0201 16.0826C76.7271 16.3757 76.5625 16.7731 76.5625 17.1875C76.5625 17.6019 76.7271 17.9993 77.0201 18.2924C77.3132 18.5854 77.7106 18.75 78.125 18.75H79.6875V23.4375C79.6875 23.8519 79.8521 24.2493 80.1451 24.5424C80.4382 24.8354 80.8356 25 81.25 25C81.6644 25 82.0618 24.8354 82.3549 24.5424C82.6479 24.2493 82.8125 23.8519 82.8125 23.4375V18.75H84.375C84.7894 18.75 85.1868 18.5854 85.4799 18.2924C85.7729 17.9993 85.9375 17.6019 85.9375 17.1875C85.9375 16.7731 85.7729 16.3757 85.4799 16.0826C85.1868 15.7896 84.7894 15.625 84.375 15.625H82.8125V14.0625C82.8125 13.6481 82.9771 13.2507 83.2701 12.9576C83.5632 12.6646 83.9606 12.5 84.375 12.5Z" fill="black"/>
<path d="M92.1875 3.125H73.4375C72.1943 3.125 71.002 3.61886 70.1229 4.49794C69.2439 5.37701 68.75 6.5693 68.75 7.8125V10.9375C68.75 11.3519 68.9146 11.7493 69.2076 12.0424C69.5007 12.3354 69.8981 12.5 70.3125 12.5C70.7269 12.5 71.1243 12.3354 71.4174 12.0424C71.7104 11.7493 71.875 11.3519 71.875 10.9375V7.8125C71.875 7.3981 72.0396 7.00067 72.3326 6.70765C72.6257 6.41462 73.0231 6.25 73.4375 6.25H92.1875C92.6019 6.25 92.9993 6.41462 93.2924 6.70765C93.5854 7.00067 93.75 7.3981 93.75 7.8125V26.5625C93.75 26.9769 93.5854 27.3743 93.2924 27.6674C92.9993 27.9604 92.6019 28.125 92.1875 28.125H73.4375C73.0231 28.125 72.6257 27.9604 72.3326 27.6674C72.0396 27.3743 71.875 26.9769 71.875 26.5625V17.1875C71.875 16.7731 71.7104 16.3757 71.4174 16.0826C71.1243 15.7896 70.7269 15.625 70.3125 15.625C69.8981 15.625 69.5007 15.7896 69.2076 16.0826C68.9146 16.3757 68.75 16.7731 68.75 17.1875V26.5625C68.75 27.8057 69.2439 28.998 70.1229 29.8771C71.002 30.7561 72.1943 31.25 73.4375 31.25H92.1875C93.4307 31.25 94.623 30.7561 95.5021 29.8771C96.3811 28.998 96.875 27.8057 96.875 26.5625V7.8125C96.875 6.5693 96.3811 5.37701 95.5021 4.49794C94.623 3.61886 93.4307 3.125 92.1875 3.125Z" fill="black"/>
<path d="M76.5625 65.625C76.5625 66.8611 76.9291 68.0695 77.6158 69.0973C78.3026 70.1251 79.2787 70.9262 80.4207 71.3992C81.5628 71.8723 82.8194 71.9961 84.0318 71.7549C85.2442 71.5138 86.3578 70.9185 87.2319 70.0444C88.106 69.1703 88.7013 68.0567 88.9424 66.8443C89.1836 65.6319 89.0598 64.3753 88.5867 63.2332C88.1137 62.0912 87.3126 61.1151 86.2848 60.4283C85.257 59.7416 84.0486 59.375 82.8125 59.375C81.1549 59.375 79.5652 60.0335 78.3931 61.2056C77.221 62.3777 76.5625 63.9674 76.5625 65.625ZM85.9375 65.625C85.9375 66.2431 85.7542 66.8473 85.4108 67.3612C85.0675 67.8751 84.5794 68.2756 84.0084 68.5121C83.4374 68.7486 82.809 68.8105 82.2028 68.69C81.5966 68.5694 81.0398 68.2718 80.6028 67.8347C80.1657 67.3977 79.8681 66.8409 79.7475 66.2347C79.627 65.6285 79.6889 65.0001 79.9254 64.4291C80.1619 63.8581 80.5624 63.37 81.0763 63.0267C81.5902 62.6833 82.1944 62.5 82.8125 62.5C83.6413 62.5 84.4362 62.8292 85.0222 63.4153C85.6083 64.0013 85.9375 64.7962 85.9375 65.625Z" fill="black"/>
<path d="M92.1875 51.5625H73.4375C72.1943 51.5625 71.002 52.0564 70.1229 52.9354C69.2439 53.8145 68.75 55.0068 68.75 56.25V75C68.75 76.2432 69.2439 77.4355 70.1229 78.3146C71.002 79.1936 72.1943 79.6875 73.4375 79.6875H92.1875C93.4307 79.6875 94.623 79.1936 95.5021 78.3146C96.3811 77.4355 96.875 76.2432 96.875 75V71.875C96.875 71.4606 96.7104 71.0632 96.4174 70.7701C96.1243 70.4771 95.7269 70.3125 95.3125 70.3125C94.8981 70.3125 94.5007 70.4771 94.2076 70.7701C93.9146 71.0632 93.75 71.4606 93.75 71.875V75C93.75 75.4144 93.5854 75.8118 93.2924 76.1049C92.9993 76.3979 92.6019 76.5625 92.1875 76.5625H73.4375C73.0231 76.5625 72.6257 76.3979 72.3326 76.1049C72.0396 75.8118 71.875 75.4144 71.875 75V56.25C71.875 55.8356 72.0396 55.4382 72.3326 55.1451C72.6257 54.8521 73.0231 54.6875 73.4375 54.6875H92.1875C92.6019 54.6875 92.9993 54.8521 93.2924 55.1451C93.5854 55.4382 93.75 55.8356 93.75 56.25V65.625C93.75 66.0394 93.9146 66.4368 94.2076 66.7299C94.5007 67.0229 94.8981 67.1875 95.3125 67.1875C95.7269 67.1875 96.1243 67.0229 96.4174 66.7299C96.7104 66.4368 96.875 66.0394 96.875 65.625V56.25C96.875 55.0068 96.3811 53.8145 95.5021 52.9354C94.623 52.0564 93.4307 51.5625 92.1875 51.5625Z" fill="black"/>
<path d="M38.2344 21.6407C38.483 21.7948 38.77 21.876 39.0625 21.875C39.3071 21.8736 39.5479 21.8147 39.7656 21.7032L49.1406 17.0157C49.3966 16.8845 49.6114 16.6853 49.7613 16.44C49.9113 16.1946 49.9907 15.9126 49.9907 15.625C49.9907 15.3375 49.9113 15.0555 49.7613 14.8101C49.6114 14.5647 49.3966 14.3655 49.1406 14.2344L39.7656 9.54691C39.5278 9.42705 39.2632 9.36998 38.9971 9.38113C38.731 9.39228 38.4721 9.47127 38.2451 9.6106C38.0181 9.74993 37.8305 9.94498 37.7001 10.1772C37.5697 10.4095 37.5008 10.6712 37.5 10.9375V20.3125C37.4995 20.5781 37.5666 20.8394 37.6951 21.0717C37.8236 21.3041 38.0092 21.4999 38.2344 21.6407ZM40.625 13.4688L44.9375 15.625L40.625 17.7813V13.4688Z" fill="black"/>
<path d="M42.1875 29.6875C44.9688 29.6875 47.6876 28.8628 50.0002 27.3175C52.3128 25.7723 54.1152 23.5761 55.1796 21.0065C56.2439 18.4369 56.5224 15.6094 55.9798 12.8815C55.4372 10.1537 54.0979 7.64799 52.1312 5.68132C50.1645 3.71464 47.6588 2.37532 44.931 1.83271C42.2031 1.29011 39.3756 1.56859 36.806 2.63295C34.2364 3.69731 32.0402 5.49973 30.495 7.8123C28.9498 10.1249 28.125 12.8437 28.125 15.625C28.125 19.3546 29.6066 22.9315 32.2438 25.5687C34.881 28.2059 38.4579 29.6875 42.1875 29.6875ZM42.1875 4.68751C44.3507 4.68751 46.4654 5.32898 48.264 6.53081C50.0627 7.73264 51.4646 9.44084 52.2924 11.4394C53.1203 13.438 53.3369 15.6371 52.9148 17.7588C52.4928 19.8805 51.4511 21.8293 49.9215 23.359C48.3918 24.8886 46.443 25.9303 44.3213 26.3523C42.1996 26.7744 40.0005 26.5578 38.0019 25.7299C36.0033 24.9021 34.2951 23.5002 33.0933 21.7016C31.8915 19.9029 31.25 17.7882 31.25 15.625C31.25 12.7242 32.4023 9.9422 34.4535 7.89103C36.5047 5.83985 39.2867 4.68751 42.1875 4.68751Z" fill="black"/>
<path d="M57.8125 35.9375C58.0551 35.9375 58.2943 35.881 58.5113 35.7725C58.7282 35.6641 58.917 35.5066 59.0625 35.3125L63.75 29.0625C63.9986 28.731 64.1054 28.3143 64.0468 27.904C63.9882 27.4938 63.769 27.1236 63.4375 26.875C63.106 26.6264 62.6893 26.5196 62.279 26.5782C61.8688 26.6368 61.4986 26.856 61.25 27.1875L56.5625 33.4375C56.3139 33.769 56.2071 34.1857 56.2657 34.596C56.3243 35.0062 56.5435 35.3764 56.875 35.625C57.1455 35.8279 57.4744 35.9375 57.8125 35.9375Z" fill="black"/>
<path d="M61.25 41.5625C61.3955 41.7566 61.5843 41.9141 61.8012 42.0225C62.0182 42.131 62.2574 42.1875 62.5 42.1875C62.8381 42.1875 63.167 42.0779 63.4375 41.875L69.6875 37.1875C70.019 36.9389 70.2382 36.5687 70.2968 36.1585C70.3554 35.7482 70.2486 35.3315 70 35C69.7514 34.6685 69.3812 34.4493 68.971 34.3907C68.5607 34.3321 68.144 34.4389 67.8125 34.6875L61.5625 39.375C61.231 39.6236 61.0118 39.9938 60.9532 40.404C60.8946 40.8143 61.0014 41.231 61.25 41.5625Z" fill="black"/>
<path d="M76.5625 45C76.5253 44.7929 76.4467 44.5954 76.3314 44.4193C76.216 44.2433 76.0663 44.0924 75.8912 43.9757C75.7161 43.8589 75.5192 43.7788 75.3124 43.74C75.1055 43.7012 74.893 43.7046 74.6875 43.75L66.875 45.3125C66.6698 45.3331 66.4707 45.3938 66.2889 45.4913C66.1072 45.5888 65.9465 45.7211 65.8159 45.8807C65.5522 46.203 65.4273 46.6169 65.4687 47.0313C65.5102 47.4457 65.7145 47.8267 66.0369 48.0904C66.3592 48.3541 66.7731 48.479 67.1875 48.4375H67.5L75.3125 46.875C75.5196 46.8379 75.7171 46.7593 75.8932 46.6439C76.0692 46.5286 76.2201 46.3789 76.3368 46.2038C76.4536 46.0287 76.5337 45.8318 76.5725 45.6249C76.6113 45.4181 76.6079 45.2055 76.5625 45Z" fill="black"/>
<path d="M4.6875 45.3125H23.4375C23.8519 45.3125 24.2493 45.1479 24.5424 44.8549C24.8354 44.5618 25 44.1644 25 43.75V18.75C25 18.3356 24.8354 17.9382 24.5424 17.6451C24.2493 17.3521 23.8519 17.1875 23.4375 17.1875H4.6875C4.2731 17.1875 3.87567 17.3521 3.58265 17.6451C3.28962 17.9382 3.125 18.3356 3.125 18.75V43.75C3.125 44.1644 3.28962 44.5618 3.58265 44.8549C3.87567 45.1479 4.2731 45.3125 4.6875 45.3125ZM6.25 20.3125H21.875V42.1875H6.25V20.3125Z" fill="black"/>
<path d="M17.1875 23.4375H14.0625C13.6481 23.4375 13.2507 23.6021 12.9576 23.8951C12.6646 24.1882 12.5 24.5856 12.5 25C12.5 25.4144 12.6646 25.8118 12.9576 26.1049C13.2507 26.3979 13.6481 26.5625 14.0625 26.5625H17.1875C17.6019 26.5625 17.9993 26.3979 18.2924 26.1049C18.5854 25.8118 18.75 25.4144 18.75 25C18.75 24.5856 18.5854 24.1882 18.2924 23.8951C17.9993 23.6021 17.6019 23.4375 17.1875 23.4375Z" fill="black"/>
<path d="M17.1875 29.6875H10.9375C10.5231 29.6875 10.1257 29.8521 9.83265 30.1451C9.53962 30.4382 9.375 30.8356 9.375 31.25C9.375 31.6644 9.53962 32.0618 9.83265 32.3549C10.1257 32.6479 10.5231 32.8125 10.9375 32.8125H17.1875C17.6019 32.8125 17.9993 32.6479 18.2924 32.3549C18.5854 32.0618 18.75 31.6644 18.75 31.25C18.75 30.8356 18.5854 30.4382 18.2924 30.1451C17.9993 29.8521 17.6019 29.6875 17.1875 29.6875Z" fill="black"/>
<path d="M17.1875 35.9375H10.9375C10.5231 35.9375 10.1257 36.1021 9.83265 36.3951C9.53962 36.6882 9.375 37.0856 9.375 37.5C9.375 37.9144 9.53962 38.3118 9.83265 38.6049C10.1257 38.8979 10.5231 39.0625 10.9375 39.0625H17.1875C17.6019 39.0625 17.9993 38.8979 18.2924 38.6049C18.5854 38.3118 18.75 37.9144 18.75 37.5C18.75 37.0856 18.5854 36.6882 18.2924 36.3951C17.9993 36.1021 17.6019 35.9375 17.1875 35.9375Z" fill="black"/>
<path d="M56.4372 44.8437C56.3346 44.6652 56.1978 44.5087 56.0347 44.383C55.8716 44.2573 55.6854 44.165 55.4866 44.1113C55.2878 44.0577 55.0804 44.0437 54.8762 44.0701C54.672 44.0966 54.4751 44.163 54.2966 44.2656C54.118 44.3682 53.9615 44.505 53.8358 44.6681C53.7101 44.8312 53.6178 45.0174 53.5642 45.2162C53.5105 45.415 53.4965 45.6224 53.5229 45.8266C53.5494 46.0308 53.6158 46.2277 53.7184 46.4062L60.6091 58.3281L35.6091 67.7031C35.6091 67.7031 35.609 67.7031 35.4997 67.7031H35.3747L31.3122 70.0469L28.609 71.6094C28.2532 71.8151 27.8602 71.9486 27.4527 72.0022C27.0451 72.0558 26.631 72.0285 26.2341 71.9219C25.4366 71.7064 24.7568 71.184 24.3434 70.4687L21.2184 65.0625C20.8508 64.3552 20.7673 63.5341 20.9852 62.7673C21.203 62.0005 21.7057 61.3459 22.3903 60.9375L27.7966 57.8125L31.7028 64.5781C31.8405 64.8166 32.0387 65.0144 32.2774 65.1516C32.5161 65.2888 32.7868 65.3605 33.0622 65.3594C33.337 65.3605 33.6072 65.2891 33.8456 65.1524C34.084 65.0157 34.2821 64.8185 34.42 64.5808C34.5579 64.3431 34.6306 64.0732 34.6309 63.7984C34.6312 63.5236 34.559 63.2536 34.4216 63.0156L30.3903 56.0469L49.9997 39.875L50.6403 40.9844C50.7429 41.1629 50.8797 41.3194 51.0428 41.4451C51.2059 41.5708 51.3921 41.6631 51.5909 41.7168C51.7897 41.7705 51.9971 41.7845 52.2012 41.758C52.4054 41.7315 52.6024 41.6651 52.7809 41.5625C52.9594 41.4599 53.116 41.3232 53.2417 41.1601C53.3673 40.997 53.4596 40.8107 53.5133 40.6119C53.567 40.4131 53.581 40.2057 53.5545 40.0016C53.5281 39.7974 53.4617 39.6004 53.3591 39.4219L51.7966 36.7187C51.682 36.523 51.5263 36.3545 51.3401 36.225C51.1539 36.0955 50.9418 36.008 50.7184 35.9687C50.4939 35.9264 50.2627 35.9339 50.0414 35.9906C49.82 36.0473 49.6138 36.1518 49.4372 36.2969L27.5622 54.3281L20.9059 58.1719C19.7114 58.8676 18.7813 59.9398 18.2611 61.2205C17.7408 62.5013 17.6599 63.9183 18.0309 65.25L16.4684 66.1406C15.6634 66.6029 15.0137 67.2939 14.6018 68.1259C14.1899 68.9579 14.0344 69.8935 14.1549 70.814C14.2754 71.7345 14.6665 72.5985 15.2787 73.2965C15.8909 73.9944 16.6965 74.4949 17.5934 74.7344C17.9911 74.8397 18.4008 74.8922 18.8122 74.8906C19.6342 74.8872 20.4414 74.672 21.1559 74.2656L22.7184 73.375C23.469 74.1504 24.413 74.7114 25.4528 75C25.9867 75.1494 26.539 75.223 27.0934 75.2187C28.1917 75.2213 29.2707 74.93 30.2184 74.375L31.5778 73.5937L34.7028 79.0156C35.3238 80.0894 36.3452 80.8732 37.543 81.1953C38.7409 81.5175 40.0176 81.3517 41.0934 80.7344C41.6272 80.4268 42.0951 80.0171 42.4704 79.5286C42.8457 79.0401 43.121 78.4825 43.2806 77.8875C43.4402 77.2925 43.481 76.6719 43.4007 76.0612C43.3203 75.4504 43.1203 74.8615 42.8122 74.3281L39.9684 69.375L63.4059 60.5781C63.6185 60.4982 63.8111 60.373 63.9703 60.2111C64.1295 60.0492 64.2515 59.8545 64.3278 59.6406C64.4038 59.4293 64.4334 59.2041 64.4146 58.9803C64.3957 58.7565 64.3288 58.5394 64.2184 58.3437L56.4372 44.8437ZM19.5309 71.5469C19.353 71.6497 19.1565 71.7165 18.9527 71.7433C18.749 71.7701 18.5419 71.7565 18.3434 71.7031C17.9431 71.5991 17.6004 71.3407 17.3903 70.9844C17.2874 70.8064 17.2207 70.61 17.1939 70.4062C17.1671 70.2024 17.1807 69.9954 17.2341 69.7969C17.2874 69.5973 17.3798 69.4104 17.5058 69.2468C17.6319 69.0832 17.7891 68.9462 17.9684 68.8438L19.3278 68.0625L20.8903 70.7656L19.5309 71.5469ZM40.0934 75.9219C40.1963 76.0998 40.263 76.2963 40.2899 76.5001C40.3167 76.7038 40.303 76.9109 40.2497 77.1094C40.1382 77.5066 39.8743 77.8436 39.5153 78.0469C39.1584 78.2519 38.735 78.3078 38.3372 78.2025C37.9393 78.0972 37.599 77.8391 37.3903 77.4844L34.2653 72.0625L36.8591 70.5781H36.9841L40.0934 75.9219Z" fill="black"/>
</svg>
