<svg width="100" height="100" viewBox="0 0 100 100" fill="none" xmlns="http://www.w3.org/2000/svg">
<g clip-path="url(#clip0_419_1454)">
<path d="M84.4636 49.0423C82.5983 53.5453 82.4809 59.1122 84.3462 63.6152L85.9513 66.7594H16.6685C16.6685 66.7594 3.76941 59.5118 16.6685 46.6127L85.3529 45.1973L84.4636 49.0423Z" fill="#F1F2F2"/>
<path d="M85.9508 66.76H16.6683C16.6683 66.76 3.76962 59.5118 16.6683 46.6132L85.3531 45.1971L84.4624 49.0429C84.0503 50.041 83.7222 51.0898 83.4839 52.168H20.6156C18.18 52.168 16.1995 54.1485 16.1995 56.5821C16.1995 59.0177 18.18 60.9982 20.6156 60.9982H83.5074C83.7183 61.8986 83.9976 62.7756 84.3453 63.6154L85.9508 66.76Z" fill="#DEE1E1"/>
<path d="M84.902 69.7011L21.5728 69.6013C13.9857 69.6013 7.47 64.7614 7.47 57.1743C7.47 55.4985 7.17819 53.3012 7.72762 51.8164C9.66535 46.5786 14.7045 42.845 20.6159 42.845H85.5856C87.297 42.845 88.6843 44.2323 88.6843 45.9437C88.6843 47.655 87.297 49.0423 85.5856 49.0423H36.4148L31.6128 50.1695L27.4366 49.0423H20.6159C16.4516 49.0423 13.0758 52.4182 13.0758 56.5825C13.0758 60.7468 16.4516 64.1227 20.6159 64.1227H85.5856C87.297 64.1227 88.6843 65.51 88.6843 67.2214C88.6843 67.3448 88.6771 67.4665 88.663 67.5862C88.4825 69.1257 86.4899 69.7011 84.902 69.7011Z" fill="#B7E546"/>
<path d="M88.6616 67.5862C88.5776 68.2952 88.2553 68.932 87.7768 69.4124C87.2143 69.973 86.4408 70.3207 85.5854 70.3207L53.4877 72.2443L20.6155 70.3207C13.0275 70.3207 6.87695 64.1702 6.87695 56.5821C6.87695 54.6036 7.29493 52.7227 8.04885 51.0234V53.8477C8.04885 61.4357 14.1993 67.5862 21.7874 67.5862H88.6616Z" fill="#ABD641"/>
<path d="M36.4145 58.0756V49.0422H29.9756L27.6895 49.2717L27.8268 57.685C27.8268 57.9602 28.1035 58.1491 28.3598 58.0487L29.9754 57.6538L31.7828 56.9461C31.8744 56.9102 31.9762 56.9102 32.0676 56.9461L35.8813 58.4395C36.1375 58.5397 36.4145 58.3508 36.4145 58.0756Z" fill="#EF5227"/>
<path d="M29.9746 49.0428V57.6542L27.9687 58.4393C27.7129 58.5389 27.4355 58.3514 27.4355 58.076V49.0428H29.9746Z" fill="#D83724"/>
<path d="M75.5576 34.9567V39.361L75.3623 41.3142C75.3623 42.0701 74.749 42.6814 73.9951 42.6814L21.9414 42.4861C21.1856 42.4861 20.5742 41.8748 20.5742 41.1189L20.1836 34.9567L46.9054 33.6797L75.5576 34.9567Z" fill="#FDCD08"/>
<path d="M88.9766 38.6334C87.7539 41.6473 86.5236 44.621 85.3008 47.6351C84.5699 49.4367 85.8828 51.4109 87.8119 51.4109L90.0729 51.6063H95.5728C97.502 51.6063 98.8149 49.632 98.084 47.8302L95.5341 41.5446L93.9304 38.6332L88.9766 38.6334Z" fill="#FDCD08"/>
<path d="M90.9466 42.6554C92.5537 42.8017 94.2393 42.3798 95.5352 41.5447L94.1641 38.118L91.8982 38.7954C91.8982 38.7952 91.8984 38.795 91.8984 38.7948L88.9446 38.4007C88.5716 39.3206 88.0292 40.6269 87.6561 41.5468C87.6561 41.5468 87.6563 41.5468 87.6563 41.547C86.8067 43.6414 85.9569 45.7358 85.1073 47.8301C84.3768 49.6329 85.6893 51.6056 87.6171 51.6056H90.7421C88.8144 51.6056 87.5018 49.6329 88.2323 47.8301C88.8673 46.266 89.5017 44.7021 90.1363 43.1381C90.2677 42.8136 90.5982 42.6238 90.9466 42.6554Z" fill="#FAAB18"/>
<path d="M96.1043 35.2016C96.1043 33.2057 94.8313 31.5098 93.0602 30.8961C92.601 30.7369 91.9336 31.0201 91.4211 31.0201C88.9311 31.0201 87.3984 32.6883 87.3984 35.2017C87.3984 37.7152 89.2613 39.2232 91.7514 39.2232C92.2641 39.2232 92.601 39.6662 93.0602 39.5072C94.8313 38.8935 96.1043 37.1976 96.1043 35.2016Z" fill="#FDCD08"/>
<path d="M93.0605 39.5074C92.6016 39.6676 92.1074 39.7535 91.5957 39.7535C89.1055 39.7535 87.0879 37.7145 87.0879 35.2008C87.0879 32.6891 89.1055 30.65 91.5957 30.65C92.1074 30.65 92.6016 30.736 93.0605 30.8961C91.2891 31.5094 90.0176 33.2067 90.0176 35.2008C90.0176 37.1969 91.2891 38.8942 93.0605 39.5074Z" fill="#FAAB18"/>
<path d="M91.9565 20.1721L79.0737 24.6319L75.5582 24.2714L50.5521 34.5055C48.8152 35.1069 46.9265 35.1069 45.1895 34.5055L20.184 24.6704L16.6683 24.6321L3.78469 20.1721C2.31396 19.6629 2.31396 17.583 3.78469 17.074L45.678 2.57137C47.0983 2.07956 48.6429 2.07956 50.0632 2.57137L91.9565 17.074C93.4273 17.583 93.4273 19.6629 91.9565 20.1721Z" fill="#868491"/>
<path d="M79.0734 23.31V24.6322L50.5514 34.5055C48.815 35.107 46.9263 35.107 45.188 34.5055L16.668 24.6322V23.31C16.668 20.5228 18.6582 18.1438 21.4024 17.6497C30.1213 16.0872 39.0258 15.2961 47.8697 15.2961C56.7136 15.2961 65.62 16.0872 74.3389 17.6497C75.667 17.8899 76.8721 18.5892 77.7354 19.6224C78.5948 20.6478 79.0734 21.9603 79.0734 23.31Z" fill="#77777F"/>
<path d="M75.5576 23.31V34.9567H20.7695L20.5742 23.7006C20.5742 22.6186 21.3496 21.6928 22.4141 21.5014C22.9721 21.4014 23.1401 20.9141 23.6991 20.8205C31.7002 19.4824 39.7857 18.8119 47.8696 18.8119C56.5202 18.8119 65.1707 19.5795 73.7177 21.1108C74.249 21.2065 74.7099 21.4858 75.0361 21.8764C75.3642 22.267 75.5576 22.769 75.5576 23.31Z" fill="#868491"/>
<path d="M75.5576 39.361V41.5095C75.5576 42.2654 74.9443 42.8767 74.1904 42.8767H21.5508C20.7957 42.8767 20.1836 42.2646 20.1836 41.5095V34.9567L21.9414 33.6797L23.6993 34.9567V38.3845C23.6993 38.9237 24.1366 39.361 24.6759 39.361H75.5576Z" fill="#FAAB18"/>
<path d="M23.6993 20.8217V34.9567H20.1836V23.31C20.1836 22.2279 20.959 21.3021 22.0235 21.1107C22.5821 21.0111 23.1407 20.9135 23.6993 20.8217Z" fill="#77777F"/>
<path d="M89.6245 91.0452C87.7592 86.5422 87.7592 81.4828 89.6245 76.9798L90.2188 74.3395H10.3516C10.3516 74.3395 1.36104 84.1137 10.9358 93.6883L90.7388 94.2867L89.6245 91.0452Z" fill="#F1F2F2"/>
<path d="M90.7386 94.2859L10.9365 93.6882C1.36012 84.1138 10.3525 74.3402 10.3525 74.3402L90.6027 74.4885L89.6253 76.9789C89.264 77.85 88.973 78.7407 88.7523 79.643H15.4522C13.0166 79.643 11.0361 81.6235 11.0361 84.0572C11.0361 86.4928 13.0166 88.4733 15.4522 88.4733H88.7757C88.9945 89.3444 89.2777 90.2057 89.6253 91.0456L90.7386 94.2859Z" fill="#DEE1E1"/>
<path d="M89.3936 97.1117L17.1849 96.9787C9.59786 96.9787 2.92274 92.6971 2.92274 85.1101C2.92274 82.7022 2.33387 79.3866 3.42217 77.4188C5.76303 73.1863 10.2729 70.3202 15.4519 70.3202H90.7506C92.462 70.3202 93.8493 71.7075 93.8493 73.4189C93.8493 75.1302 92.462 76.5176 90.7506 76.5176H72.0939L67.219 77.5967L63.1158 76.5176H15.4519C11.2875 76.5176 7.9117 79.8934 7.9117 84.0577C7.9117 88.2221 11.2875 91.5979 15.4519 91.5979H90.7506C92.462 91.5979 93.8493 92.9852 93.8493 94.6966C93.8493 94.8878 93.8319 95.0747 93.7989 95.2564C93.5355 96.7005 90.9137 97.1117 89.3936 97.1117Z" fill="#EF5227"/>
<path d="M93.7985 95.2565C93.6833 95.8894 93.3766 96.4519 92.941 96.8874C92.3805 97.448 91.6051 97.7957 90.7496 97.7957H15.4514C7.86339 97.7957 1.71289 91.6452 1.71289 84.0571C1.71289 81.3422 2.50001 78.811 3.86137 76.6781V81.518C3.86137 89.1061 10.0119 95.2565 17.5999 95.2565H93.7985Z" fill="#D83724"/>
<path d="M72.0926 85.6213V76.5149H66.0441L63.3613 76.6782L63.5051 85.2307C63.5051 85.5059 63.782 85.6948 64.0381 85.5944L66.0439 85.0465L67.4611 84.4917C67.5527 84.4557 67.6545 84.4557 67.7459 84.4917L71.5596 85.985C71.8158 86.0854 72.0926 85.8965 72.0926 85.6213Z" fill="#FDCD08"/>
<path d="M66.0449 76.514V85.0472L63.6484 85.9847C63.3926 86.0843 63.1152 85.8969 63.1152 85.6215V76.514H66.0449Z" fill="#FAAB18"/>
<path d="M99.6926 46.6434L96.4413 38.6288C97.3207 37.5913 97.8533 36.2472 97.8533 34.7795C97.8533 32.0139 95.9663 29.6838 93.421 29.0261C93.4206 28.6408 93.4214 18.9879 93.421 18.5785C93.421 17.2478 92.6085 16.1068 91.351 15.6714L50.1673 1.41431C48.4682 0.825828 46.5969 0.826023 44.8977 1.41431L34.6438 4.96399C33.8793 5.22844 33.474 6.06283 33.7387 6.8273C34.0033 7.59216 34.8375 7.99685 35.6022 7.73239L45.8561 4.18272C46.9368 3.8083 48.1274 3.8083 49.2087 4.18272L90.3924 18.4396C90.4363 18.4548 90.491 18.474 90.491 18.5783C90.491 18.6826 90.4363 18.7017 90.3924 18.717L76.215 23.6251V23.1864C76.215 21.4115 74.947 19.8959 73.1999 19.5828C56.1682 16.5281 38.8964 16.5281 21.8646 19.5828C20.1177 19.8961 18.8496 21.4115 18.8496 23.1864V23.6251L4.67235 18.717C4.6284 18.7017 4.57371 18.6826 4.57371 18.5783C4.57371 18.474 4.6284 18.4548 4.67235 18.4396L29.0236 10.0098C29.788 9.74532 30.1933 8.91093 29.9286 8.14646C29.664 7.3818 28.8296 6.97691 28.0651 7.24137L3.71393 15.6714C2.45649 16.1068 1.64397 17.2476 1.64397 18.5785C1.64397 19.9094 2.45649 21.0502 3.71393 21.4856L18.8497 26.7253V41.2228C11.1768 41.9867 5.16454 48.4788 5.16454 56.3495C5.16454 61.6089 7.85014 66.2522 11.9211 68.9827C5.11103 70.4874 0 76.5686 0 83.8246C0 92.2071 6.81985 99.027 15.2024 99.027H90.5012C93.0176 99.027 95.0648 96.9799 95.0648 94.4634C95.0648 91.978 93.0675 89.9518 90.5938 89.9022C89.0633 85.9689 89.0516 81.6866 90.5584 77.7479C93.0485 77.717 95.0648 75.683 95.0648 73.1857C95.0648 70.6692 93.0176 68.6221 90.5012 68.6221H89.5967C89.792 68.1145 89.9002 67.5639 89.9002 66.9883C89.9002 64.4719 87.8531 62.4248 85.3366 62.4248H85.2972C83.878 58.7452 83.7859 54.7635 85.0208 51.0445C85.796 51.8836 86.8867 52.3713 88.0453 52.3713H95.8665C97.239 52.3713 98.5179 51.689 99.2875 50.546C100.065 49.3923 100.216 47.9333 99.6926 46.6434ZM94.9235 34.7795C94.9235 36.4388 93.5923 37.7886 91.9561 37.7886C90.3199 37.7886 88.9887 36.4388 88.9887 34.7795C88.9887 33.1203 90.3199 31.7703 91.9561 31.7703C93.5923 31.7703 94.9235 33.1201 94.9235 34.7795ZM90.4912 21.783V29.0261C87.9459 29.6838 86.0589 32.0139 86.0589 34.7795C86.0589 36.2473 86.5916 37.5913 87.4709 38.6288L86.4494 41.1467H76.2152V26.7253L90.4912 21.783ZM22.3818 22.4664C39.0704 19.4738 55.9943 19.4738 72.6829 22.4664C73.0319 22.5291 73.2853 22.8319 73.2853 23.1866V33.1705H64.2589C63.4499 33.1705 62.7941 33.8262 62.7941 34.6354C62.7941 35.4446 63.4499 36.1003 64.2589 36.1003H73.2853V41.1468H21.7795V36.1003H57.4229C58.2319 36.1003 58.8878 35.4446 58.8878 34.6354C58.8878 33.8262 58.2319 33.1705 57.4229 33.1705H21.7795V23.1866C21.7795 22.8319 22.0328 22.5291 22.3818 22.4664ZM92.1352 73.1855C92.1352 74.0863 91.4024 74.8193 90.5014 74.8193H15.2024C10.2371 74.8193 6.19737 78.859 6.19737 83.8244C6.19737 88.7897 10.2371 92.8292 15.2024 92.8292H73.0482C73.8572 92.8292 74.513 92.1735 74.513 91.3643C74.513 90.5551 73.8572 89.8995 73.0482 89.8995H15.2024C11.8526 89.8995 9.12711 87.1742 9.12711 83.8244C9.12711 80.4745 11.8526 77.7491 15.2024 77.7491H61.4015V85.9605C61.4015 86.4447 61.6407 86.8977 62.0407 87.1705C62.4405 87.4434 62.9495 87.5014 63.4005 87.3244L67.3555 85.7758L71.3104 87.3244C71.4831 87.3922 71.6641 87.4254 71.8444 87.4254C72.1351 87.4254 72.4233 87.3391 72.6702 87.1705C73.0702 86.8977 73.3095 86.4447 73.3095 85.9605V77.7491H87.4498C86.1767 81.7181 86.1859 85.9345 87.4787 89.8997H79.8842C79.0752 89.8997 78.4193 90.5553 78.4193 91.3645C78.4193 92.1737 79.0752 92.8294 79.8842 92.8294H90.5012C91.4022 92.8294 92.135 93.5624 92.135 94.4632C92.135 95.364 91.4022 96.097 90.5012 96.097H15.2024C8.4353 96.0972 2.92974 90.5917 2.92974 83.8244C2.92974 77.057 8.4353 71.5517 15.2024 71.5517H90.5012C91.4022 71.5517 92.1352 72.2847 92.1352 73.1855ZM64.3312 77.7492H70.3798V83.814L67.8897 82.839C67.5461 82.7044 67.1648 82.7044 66.8213 82.839L64.3312 83.814V77.7492ZM39.2585 65.3543H85.3368C86.2378 65.3543 86.9707 66.0873 86.9707 66.9881C86.9707 67.8889 86.2378 68.6219 85.3368 68.6219H20.367C13.5998 68.6219 8.09428 63.1164 8.09428 56.3491C8.09428 49.5818 13.5998 44.0764 20.367 44.0764H85.2607C84.8988 45.0479 84.23 46.4251 84.005 47.344H20.367C15.4016 47.344 11.3619 51.3837 11.3619 56.3491C11.3619 61.3144 15.4016 65.3539 20.367 65.3539H32.4224C33.2314 65.3539 33.8873 64.6982 33.8873 63.889C33.8873 63.0798 33.2314 62.4242 32.4224 62.4242H20.367C17.0171 62.4242 14.2917 59.6989 14.2917 56.3491C14.2917 52.9992 17.0171 50.2738 20.367 50.2738H25.7227V58.4149C25.7227 58.8991 25.962 59.352 26.362 59.6249C26.7618 59.8978 27.271 59.9556 27.7218 59.7788L31.6767 58.2302L35.6317 59.7788C35.8043 59.8466 35.9854 59.8798 36.1657 59.8798C36.4563 59.8798 36.7446 59.7935 36.9915 59.6249C37.3915 59.352 37.6307 58.8991 37.6307 58.4149V50.2738H82.1858C80.903 54.2408 80.903 58.4573 82.1858 62.4244H39.2585C38.4495 62.4244 37.7936 63.08 37.7936 63.8892C37.7936 64.6984 38.4495 65.3543 39.2585 65.3543ZM28.6525 50.274H34.701V56.2682L32.2109 55.2932C31.8674 55.1586 31.4861 55.1586 31.1425 55.2932L28.6525 56.2682V50.274ZM96.8576 48.9093C96.7499 49.0693 96.4376 49.4413 95.8665 49.4413H88.0453C87.4742 49.4413 87.1621 49.0693 87.0543 48.9093C86.8191 48.5603 86.7754 48.1356 86.9339 47.7446L89.9309 40.3574C90.5627 40.5908 91.2448 40.7181 91.9559 40.7181C92.6671 40.7181 93.3491 40.5908 93.9809 40.3574L96.9777 47.7446C97.1365 48.1358 97.0927 48.5603 96.8576 48.9093Z" fill="black"/>
</g>
<defs>
<clipPath id="clip0_419_1454">
<rect width="100" height="100" fill="white"/>
</clipPath>
</defs>
</svg>
