<svg width="100" height="100" viewBox="0 0 100 100" fill="none" xmlns="http://www.w3.org/2000/svg">
<g clip-path="url(#clip0_562_2991)">
<path d="M7.32422 75.1953H4.39453C2.77656 75.1953 1.46484 73.8836 1.46484 72.2656V27.7344C1.46484 26.1164 2.77656 24.8047 4.39453 24.8047H7.32422V75.1953Z" fill="#F2CDAE"/>
<path d="M92.6758 75.1953H95.6055C97.2234 75.1953 98.5352 73.8836 98.5352 72.2656V27.7344C98.5352 26.1164 97.2234 24.8047 95.6055 24.8047H92.6758V75.1953Z" fill="#F2CDAE"/>
<path d="M10.2539 80.4688C8.63594 80.4688 7.32422 79.157 7.32422 77.5391V22.4609C7.32422 20.843 8.63594 19.5312 10.2539 19.5312C11.8719 19.5312 13.1836 20.843 13.1836 22.4609V77.5391C13.1836 79.157 11.8719 80.4688 10.2539 80.4688Z" fill="#BF6724"/>
<path d="M89.7461 80.4688C88.1281 80.4688 86.8164 79.157 86.8164 77.5391V22.4609C86.8164 20.843 88.1281 19.5312 89.7461 19.5312C91.3641 19.5312 92.6758 20.843 92.6758 22.4609V77.5391C92.6758 79.157 91.3641 80.4688 89.7461 80.4688Z" fill="#BF6724"/>
<path d="M86.8164 27.7344V72.2656H68.2662C63.7828 72.2656 59.799 69.4215 58.3662 65.1973C57.1859 61.7178 53.9045 59.375 50.2115 59.375C46.5184 59.375 43.2369 61.7178 42.0568 65.1973C40.624 69.4213 36.6404 72.2656 32.1568 72.2656H13.1836V27.7344H32.1568C36.6402 27.7344 40.624 30.5785 42.0568 34.8027C43.2371 38.2822 46.5186 40.625 50.2115 40.625C53.9047 40.625 57.1861 38.2822 58.3662 34.8027C59.799 30.5787 63.7826 27.7344 68.2662 27.7344H86.8164Z" fill="#F44336"/>
<path d="M80.9238 27.7344H86.8168V72.2656H80.9238V27.7344Z" fill="#E53935"/>
<path d="M36.1637 34.8027C37.3439 38.2822 40.6254 40.625 44.3184 40.625C45.3445 40.625 46.3385 40.4436 47.2648 40.1078C44.8572 39.235 42.909 37.3154 42.0566 34.8027C40.6238 30.5787 36.6402 27.7344 32.1566 27.7344H26.2637C30.7473 27.7344 34.7309 30.5785 36.1637 34.8027Z" fill="#E53935"/>
<path d="M44.3186 59.375C40.6254 59.375 37.3439 61.7178 36.1637 65.1973C34.7309 69.4213 30.7473 72.2656 26.2637 72.2656H32.1566C36.64 72.2656 40.6238 69.4213 42.0566 65.1973C42.909 62.6846 44.8572 60.7652 47.2648 59.8922C46.3387 59.5564 45.3447 59.375 44.3186 59.375Z" fill="#E53935"/>
<path d="M86.8164 33.0078H92.6758V38.8672H86.8164V33.0078Z" fill="#FFD54F"/>
<path d="M86.8164 61.1328H92.6758V66.9922H86.8164V61.1328Z" fill="#FFD54F"/>
<path d="M7.32422 33.0078H13.1836V38.8672H7.32422V33.0078Z" fill="#FFD54F"/>
<path d="M7.32422 61.1328H13.1836V66.9922H7.32422V61.1328Z" fill="#FFD54F"/>
<path d="M50 54.8828C52.6967 54.8828 54.8828 52.6967 54.8828 50C54.8828 47.3033 52.6967 45.1172 50 45.1172C47.3033 45.1172 45.1172 47.3033 45.1172 50C45.1172 52.6967 47.3033 54.8828 50 54.8828Z" fill="#6E98AE"/>
<path d="M98.5352 32.6697C99.3441 32.6697 100 32.0139 100 31.2049V27.7344C100 25.3111 98.0287 23.3398 95.6055 23.3398H94.1406V22.4609C94.1406 20.0377 92.1693 18.0664 89.7461 18.0664C87.8363 18.0664 86.2072 19.291 85.6025 20.9961H14.3975C13.793 19.291 12.1639 18.0664 10.2539 18.0664C7.83066 18.0664 5.85938 20.0377 5.85938 22.4609V23.3398H4.39453C1.97129 23.3398 0 25.3111 0 27.7344V62.475C0 63.284 0.655859 63.9398 1.46484 63.9398C2.27383 63.9398 2.92969 63.284 2.92969 62.475V27.7344C2.92969 26.9266 3.58672 26.2695 4.39453 26.2695H5.85938V73.7305H4.39453C3.58672 73.7305 2.92969 73.0734 2.92969 72.2656V68.765C2.92969 67.9561 2.27383 67.3002 1.46484 67.3002C0.655859 67.3002 0 67.9561 0 68.765V72.2656C0 74.6889 1.97129 76.6602 4.39453 76.6602H5.85938V77.5391C5.85938 79.9623 7.83066 81.9336 10.2539 81.9336C12.1637 81.9336 13.7928 80.709 14.3975 79.0039H85.6027C86.2072 80.709 87.8363 81.9336 89.7463 81.9336C92.1695 81.9336 94.1408 79.9623 94.1408 77.5391V76.6602H95.6057C98.0289 76.6602 100 74.6889 100 72.2656V37.475C100 36.666 99.3443 36.0102 98.5354 36.0102C97.7264 36.0102 97.0705 36.666 97.0705 37.475V72.2656C97.0705 73.0734 96.4135 73.7305 95.6057 73.7305H94.1406V26.2695H95.6055C96.4133 26.2695 97.0703 26.9266 97.0703 27.7344V31.2049C97.0703 32.0139 97.7262 32.6697 98.5352 32.6697ZM43.823 48.5352H14.6484V29.1992H32.1568C36.0162 29.1992 39.4371 31.6402 40.6695 35.2732C42.0525 39.3504 45.8871 42.0898 50.2115 42.0898C54.5359 42.0898 58.3705 39.3504 59.7535 35.2732C60.9859 31.64 64.4068 29.1992 68.2662 29.1992H85.3516V34.9189L55.0586 46.1697C53.8984 44.6414 52.0625 43.6525 50 43.6525C47.0039 43.6523 44.4861 45.7389 43.823 48.5352ZM50 46.582C51.8846 46.582 53.418 48.1154 53.418 50C53.418 51.8846 51.8846 53.418 50 53.418C48.1154 53.418 46.582 51.8846 46.582 50C46.582 48.1154 48.1154 46.582 50 46.582ZM56.2439 48.8545L85.3516 38.0441V61.9559L56.2439 51.1455C56.3119 50.7738 56.3477 50.391 56.3477 50C56.3477 49.609 56.3121 49.2262 56.2439 48.8545ZM88.2812 40.332H91.2109V59.668H88.2812V40.332ZM91.2109 37.4023H88.2812V35.9689C88.2816 35.9492 88.2816 35.9293 88.2812 35.9094V34.4727H91.2109V37.4023ZM85.3516 26.2695H68.2662C63.1508 26.2695 58.6148 29.5096 56.9791 34.3322C55.9996 37.2199 53.2801 39.1602 50.2115 39.1602C47.1432 39.1602 44.4234 37.2199 43.4439 34.3322C41.8082 29.5098 37.2723 26.2695 32.1568 26.2695H14.6484V23.9258H85.3516V26.2695ZM11.7188 37.4023H8.78906V34.4727H11.7188V37.4023ZM8.78906 40.332H11.7188V59.668H8.78906V40.332ZM8.78906 62.5977H11.7188V65.5273H8.78906V62.5977ZM14.6484 73.7305H18.7852C19.5941 73.7305 20.25 73.0746 20.25 72.2656C20.25 71.4566 19.5941 70.8008 18.7852 70.8008H14.6484V51.4648H43.823C44.4861 54.2611 47.0039 56.3477 50 56.3477C52.0625 56.3477 53.8982 55.3588 55.0586 53.8305L85.3516 65.0811V70.8008H68.2662C64.4068 70.8008 60.9859 68.3598 59.7535 64.7268C58.3705 60.6496 54.5359 57.9102 50.2115 57.9102C45.8871 57.9102 42.0525 60.6494 40.6695 64.7268C39.4371 68.36 36.0162 70.8008 32.1568 70.8008H24.9949C24.1859 70.8008 23.5301 71.4566 23.5301 72.2656C23.5301 73.0746 24.1859 73.7305 24.9949 73.7305H32.1568C37.2723 73.7305 41.8082 70.4904 43.4439 65.6678C44.4234 62.7801 47.1432 60.8398 50.2115 60.8398C53.2799 60.8398 55.9996 62.7801 56.9791 65.6678C58.6148 70.4902 63.1508 73.7305 68.2662 73.7305H85.3516V76.0742H14.6484V73.7305ZM88.2812 64.0904C88.2816 64.0705 88.2816 64.0508 88.2812 64.0309V62.5977H91.2109V65.5273H88.2812V64.0904ZM89.7461 20.9961C90.5539 20.9961 91.2109 21.6531 91.2109 22.4609V31.543H88.2812V22.4609C88.2812 21.6531 88.9383 20.9961 89.7461 20.9961ZM8.78906 22.4609C8.78906 21.6531 9.44609 20.9961 10.2539 20.9961C11.0617 20.9961 11.7188 21.6531 11.7188 22.4609V31.543H8.78906V22.4609ZM10.2539 79.0039C9.44609 79.0039 8.78906 78.3469 8.78906 77.5391V68.457H11.7188V77.5391C11.7188 78.3469 11.0617 79.0039 10.2539 79.0039ZM91.2109 77.5391C91.2109 78.3469 90.5539 79.0039 89.7461 79.0039C88.9383 79.0039 88.2812 78.3469 88.2812 77.5391V68.457H91.2109V77.5391Z" fill="black"/>
</g>
<defs>
<clipPath id="clip0_562_2991">
<rect width="100" height="100" fill="white"/>
</clipPath>
</defs>
</svg>
