<svg width="100" height="100" viewBox="0 0 100 100" fill="none" xmlns="http://www.w3.org/2000/svg">
<path d="M50 96.5758C67.9849 96.5758 82.5645 81.9962 82.5645 64.0114C82.5645 46.0265 67.9849 31.4469 50 31.4469C32.0152 31.4469 17.4355 46.0265 17.4355 64.0114C17.4355 81.9962 32.0152 96.5758 50 96.5758Z" fill="#A4D4FF"/>
<path fill-rule="evenodd" clip-rule="evenodd" d="M48.4998 66.5186C44.7807 63.2399 46.3426 61.6432 49.2713 60.8324C52.6408 59.8994 57.8199 60.0065 58.8463 59.7881C61.2498 59.2768 61.9424 57.5864 60.1039 55.9926C57.9459 54.1221 54.1672 52.0643 53.2875 50.3899C52.0713 48.0744 52.9547 47.3834 54.5238 46.8983C57.8471 45.8705 64.2465 45.7655 60.2893 33.1055C57.0555 32.0295 53.5963 31.4469 50.001 31.4469C39.3822 31.4469 29.9506 36.5295 24.0059 44.3946C25.0621 45.1172 27.7785 50.2799 27.8533 51.8084C28.3584 62.1313 33.235 62.0432 34.6687 62.602C38.2924 64.0145 41.0119 72.4278 43.2746 75.0502C44.585 76.5688 47.3459 79.7553 51.707 77.4432C56.9916 74.6414 50.0639 67.8973 48.4998 66.5186Z" fill="#89C053"/>
<path fill-rule="evenodd" clip-rule="evenodd" d="M37.0605 89.3163C37.4117 81.1063 27.4492 86.7975 26.0371 86.061C29.6908 90.0299 34.3182 93.0891 39.5402 94.8594C39.5885 94.4248 39.4984 94.4899 39.5291 93.9844C39.7916 89.6801 36.9844 91.0961 37.0605 89.3163Z" fill="#89C053"/>
<path fill-rule="evenodd" clip-rule="evenodd" d="M74.4052 60.2193C71.3951 63.1623 75.7129 69.5082 69.007 73.6422C65.1429 76.0244 71.1631 80.7824 69.007 86.3477C68.5779 87.4555 68.6303 88.5637 69.8316 89.8428C77.5746 83.8897 82.5648 74.5332 82.5648 64.0111C82.5648 62.183 82.4142 60.3902 82.1246 58.6441C77.889 58.4793 75.5443 59.1059 74.4052 60.2193Z" fill="#89C053"/>
<path fill-rule="evenodd" clip-rule="evenodd" d="M60.4643 3.21838C68.5803 4.60764 72.2607 12.3983 79.3943 14.5457C79.6898 14.6346 79.9072 14.834 80.0209 15.1207C80.1346 15.4074 80.1129 15.7016 79.9588 15.9688L73.4096 27.3125C73.1803 27.7096 72.7219 27.8918 72.2826 27.7598C65.39 25.6875 61.1045 17.5362 52.8945 16.3303L60.4643 3.21838Z" fill="#F76C82"/>
<path fill-rule="evenodd" clip-rule="evenodd" d="M39.5365 3.21838C31.4205 4.60764 27.74 12.3983 20.6066 14.5457C20.3111 14.6346 20.0937 14.834 19.98 15.1207C19.8663 15.4074 19.888 15.7016 20.0421 15.9688L26.5913 27.3125C26.8206 27.7096 27.2792 27.8918 27.7183 27.7598C34.6107 25.6875 38.8964 17.5362 47.1064 16.3303L39.5365 3.21838Z" fill="#66D4F1"/>
<path fill-rule="evenodd" clip-rule="evenodd" d="M29.8705 10.1555C32.6516 7.78829 35.2928 5.54356 38.8486 4.66778L44.9832 15.2943C41.0387 16.3996 38.027 18.9152 35.1008 21.3608C32.6424 23.4152 30.3061 25.3684 27.6188 26.2629L21.4688 15.6127C24.7791 14.4914 27.3605 12.2922 29.8705 10.1555ZM61.1504 4.66778C64.707 5.54356 67.3494 7.78829 70.1285 10.1555C72.6385 12.2922 75.2201 14.4914 78.5305 15.6127L72.3803 26.2627C69.693 25.3682 67.3568 23.4152 64.8982 21.3606C61.9721 18.915 58.9604 16.3994 55.0148 15.2942L61.1504 4.66778ZM25.7809 28.55C26.0291 28.9777 26.484 29.2336 26.9647 29.2336C27.0658 29.2336 27.1678 29.2221 27.2688 29.1984C31.0111 28.3451 33.9814 25.8606 36.8553 23.4584C39.8514 20.9545 42.6949 18.5795 46.4061 17.757L48.4215 21.2473L45.8453 25.7082C45.4686 26.3627 45.6928 27.1984 46.3471 27.5754C46.5621 27.7002 46.7965 27.7592 47.0281 27.7592C47.5014 27.7592 47.9609 27.5147 48.2146 27.0752L49.9994 23.9817L51.7842 27.0752C52.0387 27.5147 52.4975 27.7592 52.9697 27.7592C53.2023 27.7592 53.4367 27.7002 53.6535 27.5754C54.3061 27.1984 54.5303 26.3627 54.1535 25.7082L51.5773 21.2473L53.5947 17.757C57.3041 18.5795 60.1475 20.9543 63.1436 23.4584C66.0166 25.8606 68.9879 28.3451 72.7301 29.1984C72.8313 29.2221 72.9332 29.2336 73.0344 29.2336C73.515 29.2336 73.9699 28.9777 74.2182 28.55L81.7883 15.4367C82.0088 15.0559 82.0328 14.5908 81.849 14.1887C81.667 13.7863 81.3022 13.4973 80.8711 13.4133C77.3549 12.718 74.7061 10.4619 71.9022 8.07345C68.7379 5.37989 65.466 2.59532 60.6926 1.77638V1.77813C60.1457 1.68438 59.5732 1.93263 59.2791 2.44083L49.9994 18.5129L40.7197 2.44083C40.4248 1.93067 39.8531 1.68438 39.3063 1.77813V1.77638C34.5328 2.59532 31.2609 5.37989 28.0967 8.07345C25.2926 10.4619 22.6439 12.718 19.1285 13.4133C18.6965 13.4973 18.3309 13.7863 18.1498 14.1887C17.966 14.5908 17.9898 15.0557 18.2104 15.4367L25.7809 28.55ZM70.0606 88.1828C69.9934 87.882 70.1047 87.5969 70.2811 87.1418C71.5033 83.9875 70.5229 81.1553 69.7361 78.8818C68.818 76.2295 68.818 75.6633 69.7242 75.1047C74.3801 72.2334 74.451 68.257 74.5014 65.3545C74.5344 63.4502 74.5951 62.2434 75.3607 61.4953C76.208 60.667 78.0838 60.2629 80.9393 60.2861C81.1092 61.6047 81.1967 62.9463 81.1967 64.3098C81.1967 73.8803 76.865 82.4543 70.0606 88.1828ZM40.902 94.1533C43.7822 95.0322 46.8354 95.5068 49.9996 95.5068C56.6305 95.5068 62.7826 93.4268 67.8438 89.8859C66.9816 88.4502 67.3182 87.2199 67.7316 86.1533C68.5918 83.9346 67.8584 81.8193 67.1518 79.7764C66.3531 77.4641 65.3568 74.5852 68.2887 72.7783C71.6736 70.6904 71.7186 68.0754 71.7672 65.3057C71.8039 63.2432 71.8416 61.1125 73.449 59.5401C74.8139 58.2061 77.0111 57.5752 80.4568 57.552C78.2713 47.6904 71.4061 39.5713 62.3176 35.6514C63.209 39.5049 63.0795 42.4092 61.9287 44.4777C60.4914 47.0574 57.8684 47.7315 55.9531 48.2236C55.5818 48.3195 55.2316 48.4092 54.9275 48.5029C54.3201 48.6908 54.1344 48.8291 54.0857 48.8742C54.0793 48.9524 54.0912 49.2824 54.4955 50.0539C54.9018 50.8254 56.6736 52.0733 58.0973 53.0774C59.1109 53.792 60.1578 54.5303 60.9977 55.259C62.6656 56.7043 62.6088 58.1067 62.425 58.8135C62.0951 60.0969 60.894 61.05 59.1283 61.4248C58.7139 61.5129 58.0641 61.5481 56.8574 61.6065C54.8373 61.7041 51.7824 61.8545 49.6348 62.4482C48.1908 62.8484 47.7324 63.2977 47.6891 63.4793C47.6357 63.7098 47.9254 64.4912 49.4022 65.792C50.4195 66.6883 55.4705 71.3641 54.9955 75.374C54.8705 76.4307 54.31 77.909 52.3449 78.9502C51.0215 79.6535 49.8102 79.9324 48.7184 79.9324C45.4217 79.9324 43.2207 77.3799 42.2383 76.2434C41.3201 75.1785 40.4416 73.4736 39.4232 71.5029C37.9022 68.5578 36.0117 64.8916 34.1719 64.1746C34.0764 64.1377 33.875 64.085 33.6811 64.0342C31.6756 63.5086 26.9803 62.2783 26.4857 52.1746C26.449 51.3916 25.1072 48.6043 24.0834 46.9619C20.75 51.9266 18.8025 57.8953 18.8025 64.3096C18.8025 72.2569 21.7904 79.5166 26.699 85.0301C27.1162 84.958 27.7982 84.7723 28.3313 84.6277C30.9064 83.9346 34.4328 82.9854 36.6854 84.79C37.9004 85.7625 38.4877 87.3426 38.4314 89.4871C38.4719 89.5086 38.515 89.5301 38.552 89.5496C39.8469 90.2084 41.0232 91.2258 40.902 94.1533ZM37.3139 91.9875C37.7459 92.2061 38.0674 92.3703 38.1557 93.1711C34.7359 91.7609 31.6186 89.7609 28.9313 87.2979C28.968 87.2881 29.0039 87.2785 29.0406 87.2688C30.9385 86.759 33.8059 85.9875 34.9758 86.9231C35.5088 87.3506 35.7496 88.2356 35.6926 89.5555C35.6266 91.1299 36.7672 91.71 37.3139 91.9875ZM49.9996 33.1125C53.1969 33.1125 56.2832 33.5969 59.1891 34.4955C60.3709 38.5307 60.4897 41.4385 59.5383 43.1457C58.6734 44.7024 56.9447 45.1457 55.2711 45.5754C54.8686 45.6789 54.4861 45.7785 54.1186 45.8918C53.1775 46.183 52.0369 46.6633 51.558 47.8178C51.0342 49.0793 51.6031 50.4231 52.0754 51.3256C52.7867 52.6789 54.601 53.958 56.5227 55.3137C57.4793 55.9875 58.4701 56.6869 59.2063 57.3256C59.7291 57.7785 59.7898 58.0813 59.7789 58.1301C59.7477 58.251 59.3975 58.5715 58.5602 58.7494C58.3404 58.7961 57.482 58.8393 56.7238 58.8762C54.5834 58.9799 51.3465 59.1379 48.9055 59.8139C48.0654 60.0461 45.5105 60.7533 45.0244 62.8664C44.6752 64.384 45.517 66.0109 47.5949 67.843C49.6104 69.6203 52.5229 73.0072 52.2803 75.0539C52.2354 75.4369 52.0598 76.007 51.0652 76.5346C47.9211 78.2006 46.0031 76.4215 44.3074 74.4566C43.6006 73.6363 42.7516 71.9918 41.8527 70.2473C40.0303 66.7201 37.968 62.7201 35.1631 61.6283C34.9213 61.5324 34.6557 61.4621 34.3746 61.3899C32.7102 60.9543 29.6148 60.142 29.2178 52.0404C29.1414 50.4877 27.2748 46.644 25.7926 44.6537C31.5176 37.6184 40.242 33.1125 49.9996 33.1125ZM49.9996 30.3781C31.2906 30.3781 16.0684 45.601 16.0684 64.31C16.0684 83.0209 31.2904 98.2414 49.9996 98.2414C68.7106 98.2414 83.9316 83.0207 83.9316 64.31C83.9316 45.6008 68.7104 30.3781 49.9996 30.3781Z" fill="black"/>
</svg>
