<svg width="100" height="100" viewBox="0 0 100 100" fill="none" xmlns="http://www.w3.org/2000/svg">
<path d="M89.0625 48.8047H95.3125V62.5H89.0625V48.8047Z" fill="#F9CB52"/>
<path d="M73.5563 35.3328L71.7578 32.6359C69.8781 29.8172 66.7156 28.125 63.3281 28.125H60.9375L54.6875 25V21.3203H45.3125V25L42.1875 28.125L41.8578 27.9594C40.0187 27.0406 37.9922 26.5625 35.9375 26.5625C33.8828 26.5625 31.8563 27.0406 30.0172 27.9594L29.6875 28.125L28.7453 23.4156C28.3359 21.3656 27.5281 19.4172 26.3687 17.6781C26.2078 17.4359 26.025 17.2125 25.825 17.0078L17.625 21.5516C17.3344 23.5625 17.1875 25.5906 17.1875 27.6234C17.1875 33.1297 18.075 38.6016 19.8172 43.825C20.1375 44.7844 20.7906 45.5984 21.6578 46.1188L26.6891 49.1375L50 56.25L68.75 48.4375L71.875 40.625L73.4375 37.5L73.5563 35.3328Z" fill="#E9353F"/>
<path d="M73.5563 35.3328L71.7578 32.6344C69.8781 29.8172 66.7156 28.125 63.3281 28.125H60.9375L54.6875 25V21.3203H45.3125V25L42.1875 28.125L41.8578 27.9594C40.0187 27.0406 37.9922 26.5625 35.9375 26.5625C33.8828 26.5625 31.8563 27.0406 30.0172 27.9594L29.6875 28.125L28.7453 23.4156C28.3359 21.3656 27.5281 19.4172 26.3687 17.6781C26.2078 17.4359 26.025 17.2125 25.825 17.0078L22.0703 19.0891C21.9547 20.3687 21.875 21.65 21.875 22.9359C21.875 28.4422 22.7625 33.9141 24.5047 39.1375C24.825 40.0969 25.4781 40.9109 26.3453 41.4313L31.3766 44.45L54.6875 51.5625L70.0625 45.1562L71.875 40.625L73.4375 37.5L73.5563 35.3328Z" fill="#FF4B50"/>
<path d="M64.7613 38.4031C64.302 34.7266 62.9926 31.2078 60.9379 28.125L54.6879 25V21.3203H45.3129V25L42.1879 28.125C39.1363 31.1766 37.0863 35.0875 36.3145 39.3344L35.2254 45.3219L35.1973 45.6156L54.6879 51.5625L65.7816 46.9406L65.2973 42.6969L64.7613 38.4031Z" fill="#E9353F"/>
<path d="M89.0625 56.25L87.2312 54.4187C84.4016 51.5891 80.5641 50 76.5625 50H23.4375C19.4359 50 15.5984 51.5891 12.7687 54.4187L10.9375 56.25V62.5H89.0625V56.25Z" fill="#916657"/>
<path d="M3.125 62.5H96.875V96.875H3.125V62.5Z" fill="#F9CB52"/>
<path d="M6.25 62.5H96.875V93.75H6.25V62.5Z" fill="#FFD986"/>
<path d="M10.9375 68.75H89.0625V90.625H10.9375V68.75Z" fill="#795348"/>
<path d="M14.0625 68.75H89.0625V87.5H14.0625V68.75Z" fill="#A37763"/>
<path d="M21.875 84.375H78.125L76.5625 71.875H21.875V84.375Z" fill="#4C4C4C"/>
<path d="M60.8148 49.2469L59.8789 46.8203L58.2273 41.8672C57.0477 38.3266 53.7336 35.9375 50.0008 35.9375C46.268 35.9375 42.9539 38.3266 41.7742 41.8672L40.1227 46.8203L39.3555 50L42.9695 53.4016L50.707 52.9281" fill="#F9CB52"/>
<path d="M54.6875 25L50 29.6875L45.3125 25V20.3125H54.6875V25Z" fill="#D08C76"/>
<path d="M54.6875 22.8438C53.5422 24.1547 51.8781 25 50 25C48.8563 25 47.7969 24.6703 46.875 24.1328V25L50.7812 28.9062L54.6875 25V22.8438Z" fill="#F2B89E"/>
<path d="M55.0328 5.19531L56.25 12.5V17.1875C56.25 20.6391 53.4516 23.4375 50 23.4375C46.5484 23.4375 43.75 20.6391 43.75 17.1875V12.5L44.9672 5.19531C45.1656 4.00156 46.2 3.125 47.4109 3.125C48.0688 3.125 48.6984 3.38594 49.1625 3.85156L50 4.6875L50.8375 3.85C51.3016 3.38594 51.9313 3.125 52.5891 3.125C53.8 3.125 54.8328 4 55.0328 5.19531Z" fill="#D08C76"/>
<path d="M50.7812 23.3594C53.8594 22.9703 56.25 20.3719 56.25 17.1875V12.5L55.0328 5.19529C54.8781 4.26873 54.2172 3.54685 53.3656 3.26404C53.0062 3.38435 52.6734 3.5781 52.4 3.84998L51.5625 4.68748L50.7812 3.90623L50 4.68748L49.1641 3.85154C48.8906 3.5781 48.5578 3.38591 48.1984 3.2656C47.3453 3.54841 46.6844 4.27029 46.5297 5.19685L45.3125 12.5V17.1875C45.3125 20.3719 47.7031 22.9703 50.7812 23.3594Z" fill="#F2B89E"/>
<path d="M73.7695 42.5187L75.2695 44.0188C76.0977 44.8469 77.2227 45.3125 78.3945 45.3125C80.8352 45.3125 82.8133 43.3344 82.8133 40.8938L82.8117 35.9375H75.0008" fill="#F2B89E"/>
<path d="M81.1828 62.5C80.3375 58.7344 79.1813 55.0328 77.6781 51.425C77.475 50.9375 77.2328 50.4734 76.9719 50.0203C76.8344 50.0172 76.7 50 76.5625 50H24.2953C24.1859 50.2062 24.0578 50.3984 23.9578 50.6141L23.7953 50.9641C22.0844 54.6703 20.7062 58.5406 19.6484 62.5H81.1828Z" fill="#795348"/>
<path d="M56.2509 84.375L60.1696 83.3953C61.6696 83.0203 62.9759 82.1 63.8337 80.814C64.954 79.1344 66.8384 78.125 68.8571 78.125C70.7571 78.125 72.5462 79.0203 73.6868 80.5406L76.5634 84.375H81.2509V77.0984C81.2509 68.4922 79.5462 59.9703 76.2368 52.0265C75.0462 49.1672 72.7274 47.0094 69.9243 45.9797L61.5962 46.2984L56.2509 48.4375H53.3774C50.1056 48.4375 46.8556 48.964 43.7509 50L42.1024 48.3515C40.1571 46.4062 37.5227 45.3125 34.7727 45.3109C34.7196 45.3109 34.6649 45.3109 34.6118 45.3109C30.6618 45.3078 27.0727 47.5953 25.3774 51.2672L25.2149 51.6187C20.9384 60.8828 18.7306 70.9719 18.7462 81.175L18.7509 84.375H23.4384L24.8165 81.6187C25.8868 79.4781 28.0759 78.125 30.4696 78.125H32.0759C34.4431 78.125 36.6071 79.4625 37.6665 81.5797C38.5227 83.2922 40.2727 84.375 42.1884 84.375H56.2509Z" fill="#E9353F"/>
<path d="M60.1692 83.3953C61.6692 83.0203 62.9755 82.1 63.8333 80.814C64.9536 79.1344 66.838 78.125 68.8567 78.125C70.7567 78.125 72.5458 79.0203 73.6864 80.5406L76.563 84.375H81.2505V77.0984C81.2505 68.4922 79.5458 59.9703 76.2364 52.0265C75.0442 49.1672 72.727 47.0094 69.9239 45.9797L61.5958 46.2984L56.2505 48.4375H53.377C50.1051 48.4375 46.8551 48.964 43.7505 50L42.102 48.3515C40.8989 47.1484 39.4333 46.275 37.8395 45.7797C35.152 46.6219 32.8755 48.564 31.627 51.2672L31.4645 51.6187C27.188 60.8828 24.9801 70.9718 24.9942 81.175V81.3156C26.1176 79.3562 28.1942 78.125 30.4692 78.125H32.0755C34.4426 78.125 36.6067 79.4625 37.6661 81.5797C38.5223 83.2922 40.2723 84.375 42.188 84.375H56.2505L60.1692 83.3953Z" fill="#FF4B50"/>
<path d="M17.1875 96.875V84.375H82.8125V96.875" fill="#916657"/>
<path d="M4.6875 48.8047H10.9375V62.5H4.6875V48.8047Z" fill="#F9CB52"/>
<path d="M47.8578 63.9516L46.5328 63.4219C41.9922 61.6047 38.2891 58.1969 36.1016 53.8235L38.8969 52.425C40.7406 56.1125 43.8641 58.986 47.6922 60.5188L49.0172 61.0469L47.8578 63.9516Z" fill="#E9353F"/>
<path d="M39.325 77.4297C37.1516 74.1703 35.7125 70.3984 35.1562 66.5203L34.3906 61.1593L37.4844 60.7172L38.25 66.0781C38.7375 69.4968 40.0094 72.8234 41.925 75.6968L39.325 77.4297Z" fill="#E9353F"/>
<path d="M55.5551 63.8L53.8223 61.2C56.7598 59.2422 59.2426 56.7594 61.202 53.8203L63.802 55.5531C61.6129 58.8375 58.8379 61.6109 55.5551 63.8Z" fill="#E9353F"/>
<path d="M63.85 74.2235L61.1484 72.65L62.3125 70.6516C63.5922 68.4547 64.4938 66.0766 64.9922 63.586C65.5297 60.9016 66.4781 58.3313 67.8172 55.9453L68.9484 53.9235L71.6766 55.45L70.5438 57.4719C69.3656 59.5735 68.5297 61.836 68.0563 64.2C67.4906 67.0297 66.4656 69.7297 65.0141 72.225L63.85 74.2235Z" fill="#E9353F"/>
<path d="M50 10.9375C52.0547 10.9375 54.0813 11.4156 55.9203 12.3344L56.25 12.5L55.0328 5.19531C54.8328 4 53.8 3.125 52.5891 3.125C51.9313 3.125 51.3016 3.38594 50.8375 3.85L50 4.6875L49.1641 3.85156C48.6984 3.38594 48.0688 3.125 47.4109 3.125C46.2 3.125 45.1656 4.00156 44.9672 5.19531L43.75 12.5L44.0797 12.3344C45.9188 11.4156 47.9453 10.9375 50 10.9375Z" fill="#383838"/>
<path d="M50 10.9375C52.0547 10.9375 54.0813 11.4156 55.9203 12.3344L56.25 12.5L55.0328 5.19531C54.8328 4 53.8 3.125 52.5891 3.125C51.9313 3.125 51.3016 3.38594 50.8375 3.85L50 4.6875L49.1641 3.85156C48.8906 3.57812 48.5578 3.38594 48.1984 3.26562C47.3453 3.54844 46.6844 4.27031 46.5297 5.19687L45.4375 11.7516C46.8953 11.2172 48.4391 10.9375 50 10.9375Z" fill="#4C4C4C"/>
<path d="M23.0156 27.1078C23.2906 25.7344 23.9656 24.4719 24.9563 23.4813L27.8812 20.5563C27.475 19.5516 26.9719 18.586 26.3672 17.6797C26.2063 17.4375 26.0234 17.2141 25.8234 17.0094L17.6234 21.5531C17.3344 23.5625 17.1875 25.5907 17.1875 27.6235C17.1875 29.3125 17.3 30.9938 17.4656 32.6703C20.2219 32.1125 22.4469 29.9532 23.0156 27.1078Z" fill="#E9353F"/>
<path d="M26.5625 11.3125C26.5625 13.1406 26.3437 14.9531 25.8906 16.7344L25.8281 17.0156H25.8125L25 20.3125L25.5156 22.9219L24.9531 23.4844C23.9688 24.4688 23.2969 25.7344 23.0156 27.1094C22.7344 28.5 22.0625 29.7344 21.125 30.6875H21.1094L19.2969 21.875C18.7031 21.875 18.1406 21.7656 17.625 21.5469C17.2031 21.3906 16.8125 21.1406 16.4531 20.8594C15.6875 20.2188 15.125 19.3281 14.9062 18.2813C14.3437 15.4688 14.0625 12.625 14.0625 9.76563C14.0625 8.79688 14.4531 7.92187 15.0937 7.28125C15.7344 6.64062 16.6094 6.25 17.5781 6.25C19.1875 6.25 20.5938 7.34375 20.9844 8.90625L21.875 12.5L22.9062 10.4375C23.2344 9.78125 23.9062 9.375 24.625 9.375C25.7031 9.375 26.5625 10.2344 26.5625 11.3125Z" fill="#F2B89E"/>
<path d="M82.8125 39.0625L82.2734 38.5234C81.6172 37.8672 80.7297 37.5 79.8031 37.5C78.7422 37.5 77.7391 37.9828 77.0766 38.8109C73.6359 43.1109 69.4578 46.7641 64.7359 49.5969L64.0625 50L60.9375 45.3125L65.5297 42.5562C67.6594 41.2781 69.5437 39.6312 71.0953 37.6922C73.5641 34.6078 77.3 32.8125 81.25 32.8125L81.9266 32.1359C83.4937 30.5687 85.6203 29.6875 87.8375 29.6875C89.6469 29.6875 91.4062 30.275 92.8547 31.3594L96.875 34.375V40.625L90.1359 36.5813C89.4344 36.1609 88.6297 35.9375 87.8109 35.9375C86.6125 35.9375 85.4625 36.4141 84.6141 37.2609L82.8125 39.0625Z" fill="#FFD986"/>
<path d="M18.75 84.375H32.8125V93.75H18.75V84.375Z" fill="#A37763"/>
<path d="M35.9375 84.375H50V93.75H35.9375V84.375Z" fill="#A37763"/>
<path d="M53.125 84.375H67.1875V93.75H53.125V84.375Z" fill="#A37763"/>
<path d="M53.125 84.375H67.1875V93.75H53.125V84.375Z" fill="#A37763"/>
<path d="M70.3125 84.375H82.8125V93.75H70.3125V84.375Z" fill="#A37763"/>
<path d="M7.8125 48.8047H10.9375V62.5H7.8125V48.8047Z" fill="#FFD986"/>
<path d="M89.0625 48.8047H92.1875V62.5H89.0625V48.8047Z" fill="#FFD986"/>
<path d="M7.8125 50C10.4013 50 12.5 47.9013 12.5 45.3125C12.5 42.7237 10.4013 40.625 7.8125 40.625C5.22367 40.625 3.125 42.7237 3.125 45.3125C3.125 47.9013 5.22367 50 7.8125 50Z" fill="#916657"/>
<path d="M92.1875 50C94.7763 50 96.875 47.9013 96.875 45.3125C96.875 42.7237 94.7763 40.625 92.1875 40.625C89.5987 40.625 87.5 42.7237 87.5 45.3125C87.5 47.9013 89.5987 50 92.1875 50Z" fill="#916657"/>
<path d="M92.1875 40.625C91.2953 40.625 90.4687 40.8875 89.7594 41.3219C89.325 42.0312 89.0625 42.8578 89.0625 43.75C89.0625 46.3391 91.1609 48.4375 93.75 48.4375C94.6422 48.4375 95.4688 48.175 96.1781 47.7406C96.6125 47.0313 96.875 46.2047 96.875 45.3125C96.875 42.7234 94.7766 40.625 92.1875 40.625Z" fill="#A37763"/>
<path d="M7.8125 40.625C6.92031 40.625 6.09375 40.8875 5.38438 41.3219C4.95 42.0312 4.6875 42.8578 4.6875 43.75C4.6875 46.3391 6.78594 48.4375 9.375 48.4375C10.2672 48.4375 11.0938 48.175 11.8031 47.7406C12.2375 47.0313 12.5 46.2047 12.5 45.3125C12.5 42.7234 10.4016 40.625 7.8125 40.625Z" fill="#A37763"/>
<path d="M87.8383 32.8125C85.6211 32.8125 83.4945 33.6937 81.9258 35.2609L81.2508 35.9375C77.3008 35.9375 73.5648 37.7328 71.0961 40.8188C69.5445 42.7578 67.6602 44.4047 65.5305 45.6828L62.4258 47.5453L64.0633 50L64.7352 49.5969C69.457 46.7641 73.6367 43.1109 77.0758 38.8109C77.7398 37.9828 78.743 37.5 79.8039 37.5C80.7305 37.5 81.618 37.8672 82.2727 38.5234L82.8133 39.0625L84.6148 37.2609C85.4617 36.4141 86.6117 35.9375 87.8117 35.9375C88.6305 35.9375 89.4352 36.1609 90.1383 36.5813L96.8758 40.625V37.5L92.8555 34.4844C91.4086 33.3984 89.6477 32.8125 87.8383 32.8125Z" fill="#F9CB52"/>
<path d="M93.7922 30.1109C92.0875 28.8297 89.9719 28.125 87.8391 28.125C85.1891 28.125 82.6969 29.1578 80.8219 31.0312L80.5891 31.2641C78.2375 31.3688 75.9969 32.05 74.0078 33.1937L73.0578 31.7688C70.8844 28.5094 67.2469 26.5625 63.3281 26.5625H61.3063L56.25 24.0344V21.8266C57.2188 20.525 57.8125 18.9297 57.8125 17.1875V12.5C57.8125 12.4141 57.8047 12.3281 57.7906 12.2422L56.5734 4.9375C56.2484 2.98281 54.5734 1.5625 52.5891 1.5625C51.6328 1.5625 50.7266 1.89219 50 2.5C49.2734 1.89219 48.3672 1.5625 47.4109 1.5625C45.4281 1.5625 43.7516 2.98281 43.425 4.94062L42.2094 12.2437C42.1953 12.3281 42.1875 12.4141 42.1875 12.5V17.1875C42.1875 18.9312 42.7812 20.525 43.75 21.8266V24.3531L41.8641 26.2391C38.4125 24.7344 34.3766 24.6141 30.8375 25.9078L30.2781 23.1094C29.825 20.8469 28.9469 18.7281 27.6719 16.8156C27.6266 16.7484 27.5641 16.6906 27.5172 16.6234C27.9141 14.8797 28.125 13.0953 28.125 11.3062C28.125 9.37969 26.5578 7.8125 24.6313 7.8125C23.8391 7.8125 23.0953 8.07344 22.4969 8.5375L22.4937 8.52969C21.9281 6.26719 19.9031 4.6875 17.5719 4.6875C14.775 4.6875 12.5 6.9625 12.5 9.75937C12.5 12.7188 12.7938 15.6891 13.375 18.5875C13.6969 20.2 14.6641 21.5469 15.9625 22.4125C15.7547 24.1422 15.625 25.8859 15.625 27.6234C15.625 33.3078 16.5359 38.925 18.3344 44.3203C18.7719 45.6328 19.6672 46.7469 20.8516 47.4594L22.5547 48.4813C18.8156 48.675 15.3125 50.0953 12.5 52.5563V49.4031C13.4609 48.3031 14.0625 46.8828 14.0625 45.3125C14.0625 41.8656 11.2594 39.0625 7.8125 39.0625C4.36562 39.0625 1.5625 41.8656 1.5625 45.3125C1.5625 46.8828 2.16406 48.3031 3.125 49.4031V60.9375C2.26094 60.9375 1.5625 61.6375 1.5625 62.5V96.875C1.5625 97.7375 2.26094 98.4375 3.125 98.4375H96.875C97.7391 98.4375 98.4375 97.7375 98.4375 96.875V62.5C98.4375 61.6375 97.7391 60.9375 96.875 60.9375V49.4031C97.8359 48.3047 98.4375 46.8844 98.4375 45.3125C98.4375 44.1125 98.0813 43 97.4922 42.0469C97.5422 42.025 97.5969 42.0125 97.6453 41.9859C98.1359 41.7078 98.4375 41.1875 98.4375 40.625V34.375C98.4375 33.8828 98.2062 33.4203 97.8125 33.125L93.7922 30.1109ZM81.25 34.375C81.6656 34.375 82.0625 34.2109 82.3547 33.9172L83.0312 33.2422C84.3156 31.9578 86.0234 31.25 87.8391 31.25C89.3016 31.25 90.7484 31.7328 91.9172 32.6094L95.3125 35.1562V37.8656L90.9391 35.2406C88.5984 33.8391 85.4375 34.2297 83.5078 36.1562L82.7672 36.8969C81.9125 36.2734 80.8844 35.9375 79.8031 35.9375C78.2594 35.9375 76.8203 36.6297 75.8562 37.8344C72.6687 41.8188 68.8609 45.1984 64.5328 47.8891L63.1469 45.8094L66.3344 43.8969C68.6344 42.5172 70.6469 40.7578 72.3141 38.6703C74.5 35.9406 77.7562 34.375 81.25 34.375ZM80.8297 60.9375C80.0391 57.7766 79.0125 54.6672 77.7547 51.6203C80.9188 51.8953 83.8563 53.2516 86.1281 55.525L87.5 56.8969V60.9375H80.8297ZM26.6344 52.2719L26.7969 51.9219C28.2344 48.8062 31.225 46.8734 34.6047 46.8734H34.6109H34.7719C37.1234 46.875 39.3359 47.7938 40.9984 49.4578L42.6469 51.1063C43.0656 51.5266 43.6875 51.6703 44.2453 51.4844C47.1922 50.4984 50.2641 50 53.3766 50H56.25C56.4484 50 56.6453 49.9625 56.8297 49.8875L60.9984 48.2203L62.7625 50.8672C63.0625 51.3172 63.5578 51.5625 64.0641 51.5625C64.3375 51.5625 64.6156 51.4906 64.8672 51.3391L65.5406 50.9359C67.1437 49.975 68.6547 48.8938 70.1234 47.7625C72.2188 48.7438 73.8984 50.4781 74.7953 52.6281C78.0406 60.4219 79.6875 68.6547 79.6875 77.0984V82.8125H77.3438L74.9359 79.6016C73.5094 77.6984 71.2359 76.5625 68.8563 76.5625C66.3078 76.5625 63.9438 77.8281 62.5312 79.9469C61.8891 80.9109 60.9141 81.5984 59.7906 81.8797L56.0578 82.8125H42.1875C40.8547 82.8125 39.6578 82.0719 39.0625 80.8812C37.7297 78.2172 35.0531 76.5625 32.075 76.5625H30.4688C27.4641 76.5625 24.7625 78.2313 23.4172 80.9203L22.4719 82.8125H20.3109L20.3078 81.1719C20.2922 71.2625 22.4812 61.2687 26.6344 52.2719ZM73.7234 44.6828L74.1641 45.1219C75.2922 46.2531 76.7938 46.875 78.3938 46.875C81.6906 46.875 84.375 44.1922 84.375 40.8922V39.7094L85.7172 38.3672C86.6547 37.4297 88.1953 37.2406 89.3313 37.9219L91.3703 39.1453C88.3141 39.55 85.9375 42.1453 85.9375 45.3125C85.9375 46.8828 86.5391 48.3031 87.5 49.4031V52.5563C84.4672 49.9016 80.6312 48.4375 76.5625 48.4375H75.8891C75.0031 47.3328 73.9422 46.375 72.7359 45.6266C73.075 45.3234 73.3922 44.9953 73.7234 44.6828ZM75.9406 42.4797C76.7516 41.6078 77.55 40.7219 78.2984 39.7875C78.9859 38.9234 80.3875 38.8453 81.1688 39.6297L81.25 39.7109V40.8922C81.25 42.4688 79.9688 43.75 78.3938 43.75C77.6422 43.75 76.9062 43.4453 76.3734 42.9125L75.9406 42.4797ZM64.2109 82.8125C64.55 82.4672 64.8594 82.0891 65.1312 81.6797C65.9641 80.4328 67.3563 79.6875 68.8563 79.6875C70.2562 79.6875 71.5953 80.3562 72.4359 81.4781L73.4375 82.8125H64.2109ZM25.9656 82.8125L26.2125 82.3172C27.025 80.6953 28.6562 79.6875 30.4688 79.6875H32.075C33.8625 79.6875 35.4672 80.6797 36.2672 82.2781C36.3609 82.4656 36.4734 82.6375 36.5828 82.8125H25.9656ZM17.1828 81.1766L17.1859 82.8125C16.3219 82.8141 15.625 83.5125 15.625 84.375V89.0625H12.5V70.3125H18.0203C17.4703 73.9125 17.1781 77.5484 17.1828 81.1766ZM18.75 85.9375H31.25V95.3125H18.75V85.9375ZM34.375 85.9375H48.4375V95.3125H34.375V85.9375ZM51.5625 85.9375H65.625V95.3125H51.5625V85.9375ZM68.75 85.9375H81.25V95.3125H68.75V85.9375ZM82.8125 82.8125V77.0984C82.8125 74.8203 82.6937 72.5578 82.4656 70.3125H87.5V89.0625H84.375V84.375C84.375 83.5125 83.6766 82.8125 82.8125 82.8125ZM89.0625 45.3125C89.0625 43.5891 90.4641 42.1875 92.1875 42.1875C93.9109 42.1875 95.3125 43.5891 95.3125 45.3125C95.3125 47.0359 93.9109 48.4375 92.1875 48.4375C90.4641 48.4375 89.0625 47.0359 89.0625 45.3125ZM70.4578 33.5016L71.4797 35.0359C70.9109 35.5531 70.3656 36.1031 69.875 36.7172C68.8969 37.9422 67.7703 39.0234 66.5328 39.9719L66.3125 38.2094C65.9437 35.2516 65.0375 32.3609 63.6719 29.7094C66.4109 29.8188 68.9281 31.2094 70.4578 33.5016ZM54.6875 17.1875C54.6875 19.7719 52.5844 21.875 50 21.875C47.4156 21.875 45.3125 19.7719 45.3125 17.1875V13.5047C48.2609 12.2203 51.7391 12.2203 54.6875 13.5047V17.1875ZM46.875 24.3375C47.8344 24.7594 48.8875 25 50 25C51.1125 25 52.1656 24.7594 53.125 24.3375V24.3531L50 27.4781L46.875 24.3531V24.3375ZM48.0594 4.95469L48.8953 5.79219C49.4812 6.37969 50.5188 6.37969 51.1047 5.79219L51.9391 4.95625C52.4297 4.46719 53.3781 4.76562 53.4906 5.45156L54.2547 10.0359C51.4937 9.225 48.5047 9.225 45.7437 10.0359L46.5062 5.45312C46.6234 4.76562 47.5703 4.46875 48.0594 4.95469ZM45.3125 27.2094L48.8953 30.7922C49.2 31.0969 49.6 31.25 50 31.25C50.4 31.25 50.8 31.0969 51.1047 30.7922L54.9953 26.9016L59.8281 29.3172C61.6203 32.1094 62.8 35.3031 63.2109 38.5969L63.6219 41.8797L60.1328 43.9734C59.7672 44.1937 59.5062 44.5531 59.4125 44.9703C59.3734 45.1437 59.3828 45.3203 59.4031 45.4937L55.95 46.875H53.3781C50.2547 46.875 47.1656 47.3281 44.1844 48.225L43.2078 47.2484C42.8219 46.8625 42.4062 46.5172 41.9797 46.1922L43.2578 42.3609C44.225 39.4531 46.9344 37.5 50 37.5C52.6703 37.5 55.0906 38.9719 56.3141 41.3422L59.0906 39.9078C57.3266 36.4953 53.8438 34.375 50 34.375C45.5875 34.375 41.6859 37.1875 40.2922 41.3734L39.2141 44.6094C38.5187 44.3297 37.8 44.1141 37.0594 43.9703L37.8516 39.6141C38.5703 35.6625 40.4516 32.0719 43.2922 29.2297L45.3125 27.2094ZM17.5719 7.8125C18.4672 7.8125 19.2437 8.41875 19.4625 9.2875L20.3594 12.8781C20.5172 13.5125 21.0531 13.9813 21.7031 14.0531C22.3672 14.1219 22.9781 13.7828 23.2719 13.1984L24.2984 11.1422C24.4562 10.8344 24.9984 10.9625 25 11.3062C25 13.0078 24.7906 14.7078 24.3797 16.3578L23.4859 19.9344C23.4297 20.1594 23.4234 20.3922 23.4688 20.6187L23.8266 22.4062C22.8422 23.3984 22.1375 24.6078 21.7266 25.9328L20.8219 21.5594C20.6703 20.8328 20.0312 20.3125 19.2906 20.3125C17.9094 20.3125 16.7109 19.3297 16.4391 17.975C15.8984 15.2781 15.625 12.5141 15.625 9.75937C15.625 8.68594 16.4984 7.8125 17.5719 7.8125ZM18.75 27.6234C18.75 27.4406 18.7672 27.2578 18.7703 27.075L19.4016 30.1266C19.2312 30.2547 19.05 30.3672 18.8656 30.475C18.8094 29.5266 18.75 28.5766 18.75 27.6234ZM21.2984 43.3297C20.2609 40.2172 19.5766 37.0203 19.1734 33.7844C21.9109 32.7328 23.9594 30.3641 24.5484 27.4125C24.7641 26.3375 25.2875 25.3594 26.0625 24.5844L27.1562 23.4906C27.1734 23.5688 27.1984 23.6438 27.2141 23.7219L28.1562 28.4312C28.2516 28.9078 28.5641 29.3141 29.0016 29.5281C29.4391 29.7422 29.9516 29.7391 30.3875 29.5219L30.7172 29.3578C33.4281 28.0016 36.6766 27.8016 39.5594 28.725C37.1203 31.7047 35.4734 35.2297 34.7781 39.0547L33.9156 43.7969C31.025 43.9641 28.3938 45.1625 26.4047 47.1453L22.4609 44.7797C21.9125 44.4516 21.5016 43.9359 21.2984 43.3297ZM13.8734 55.525C16.4281 52.9688 19.8234 51.5625 23.4375 51.5625H23.5391C22.1734 54.5953 21.025 57.7328 20.0922 60.9375H12.5V56.8969L13.8734 55.525ZM7.8125 42.1875C9.53594 42.1875 10.9375 43.5891 10.9375 45.3125C10.9375 47.0359 9.53594 48.4375 7.8125 48.4375C6.08906 48.4375 4.6875 47.0359 4.6875 45.3125C4.6875 43.5891 6.08906 42.1875 7.8125 42.1875ZM6.25 51.3406C6.75313 51.4719 7.27031 51.5625 7.8125 51.5625C8.35469 51.5625 8.87187 51.4719 9.375 51.3406V60.9375H6.25V51.3406ZM4.6875 64.0625H19.2641C19.0109 65.1 18.7812 66.1406 18.575 67.1875H10.9375C10.0734 67.1875 9.375 67.8875 9.375 68.75V90.625C9.375 91.4875 10.0734 92.1875 10.9375 92.1875H15.625V95.3125H4.6875V64.0625ZM95.3125 95.3125H84.375V92.1875H89.0625C89.9266 92.1875 90.625 91.4875 90.625 90.625V68.75C90.625 67.8875 89.9266 67.1875 89.0625 67.1875H82.0766C81.9203 66.1406 81.7391 65.1 81.5312 64.0625H95.3125V95.3125ZM90.625 60.9375V51.3406C91.1281 51.4719 91.6453 51.5625 92.1875 51.5625C92.7297 51.5625 93.2469 51.4719 93.75 51.3406V60.9375H90.625Z" fill="black"/>
<path d="M46.5328 63.4218L47.8578 63.9515L49.0172 61.05L47.6922 60.5219C43.8641 58.989 40.7406 56.1156 38.8969 52.4281L36.1016 53.8265C38.2891 58.1969 41.9922 61.6047 46.5328 63.4218Z" fill="black"/>
<path d="M39.325 77.4297L41.925 75.6968C40.0094 72.8234 38.7391 69.4968 38.25 66.0781L37.4844 60.7172L34.3906 61.1593L35.1562 66.5203C35.7109 70.3969 37.1516 74.1703 39.325 77.4297Z" fill="black"/>
<path d="M63.8 55.5547L61.2 53.8219C59.2406 56.7594 56.7578 59.2422 53.8203 61.2016L55.5531 63.8016C58.8375 61.611 61.6125 58.8375 63.8 55.5547Z" fill="black"/>
<path d="M61.1504 72.6516L63.852 74.225L65.016 72.2266C66.4691 69.7297 67.4926 67.0297 68.0582 64.2016C68.5316 61.8375 69.3676 59.575 70.5457 57.4735L71.6785 55.4516L68.9504 53.925L67.8191 55.9469C66.4816 58.3329 65.5316 60.9032 64.9941 63.5875C64.4957 66.0782 63.5941 68.4563 62.3145 70.6532L61.1504 72.6516Z" fill="black"/>
</svg>
