<svg width="100" height="100" viewBox="0 0 100 100" fill="none" xmlns="http://www.w3.org/2000/svg">
<g clip-path="url(#clip0_562_1300)">
<path d="M97.2284 20.2795L93.4085 17.6639C92.2448 16.867 91.8891 15.3094 92.5919 14.0863L94.8985 10.0725C95.0389 9.82794 94.8075 9.5377 94.538 9.62032L90.1114 10.976C88.7628 11.3891 87.3233 10.6957 86.8054 9.38379L85.1054 5.07774C85.0018 4.81544 84.6305 4.81544 84.527 5.07774L82.827 9.38379C82.3091 10.6957 80.8696 11.3889 79.521 10.976L75.0944 9.62032C74.8247 9.5377 74.5932 9.82794 74.7339 10.0725L77.0405 14.0863C77.4313 14.7664 77.4938 15.5498 77.2731 16.2486C81.6585 16.3266 85.2024 19.9158 85.2024 24.3193C85.2024 24.5311 85.1923 24.7545 85.1714 25.0022L85.1532 25.2166L85.3684 25.2184C87.2802 25.2338 89.0456 25.9326 90.43 27.0797L90.2354 24.4115C90.1329 23.0049 91.129 21.7557 92.5233 21.5426L97.0997 20.8434C97.3786 20.8008 97.4612 20.4389 97.2284 20.2795Z" fill="#FFD15B"/>
<path d="M97.2268 20.2795L93.4068 17.6639C92.2432 16.867 91.8875 15.3094 92.5902 14.0863L94.8969 10.0725C95.0373 9.82793 94.8059 9.5377 94.5363 9.62032L90.1098 10.976C89.4465 11.1791 88.7615 11.1135 88.1746 10.8393C88.2418 11.3574 88.2801 11.8848 88.2801 12.4213C88.2801 15.8609 86.8553 18.966 84.5664 21.1848C84.9744 22.149 85.2006 23.208 85.2006 24.3193C85.2006 24.5311 85.1904 24.7545 85.1697 25.0022L85.1516 25.2164L85.3668 25.2182C87.2783 25.2336 89.0439 25.9324 90.4283 27.0795L90.2338 24.4113C90.1313 23.0047 91.1273 21.7555 92.5217 21.5424L97.0981 20.8432C97.3768 20.8008 97.4596 20.4389 97.2268 20.2795Z" fill="#FFC344"/>
<path d="M56.5552 41.5649H59.8788C61.3118 41.5649 62.4735 42.7266 62.4735 44.1596V72.1334C67.6718 73.2467 71.5819 77.8744 71.5819 83.4002V85.117L71.93 84.6797C73.0872 83.2262 74.814 82.3926 76.6675 82.3926C77.5606 82.3926 78.43 82.5902 79.2206 82.9586V44.1598C79.2206 42.7268 80.3823 41.565 81.8153 41.565H85.139C89.7647 41.565 93.6489 37.7797 93.5739 33.1543C93.5013 28.6707 89.8616 25.0555 85.3694 25.0192C85.3888 24.7883 85.4011 24.5555 85.4011 24.3195C85.4011 19.75 81.6968 16.0457 77.1272 16.0457C74.6142 16.0457 72.3645 17.1676 70.8472 18.9361C69.3298 17.1676 67.0802 16.0457 64.5671 16.0457C59.9976 16.0457 56.2933 19.75 56.2933 24.3195C56.2933 24.5553 56.3056 24.7883 56.3249 25.0192C51.8325 25.0555 48.1931 28.6707 48.1202 33.1543C48.0452 37.7795 51.9292 41.5649 56.5552 41.5649Z" fill="#F3EAE6"/>
<path d="M71.5818 83.4004V85.1172L71.9299 84.6799C73.0871 83.2264 74.8139 82.3928 76.6674 82.3928C77.5605 82.3928 78.4299 82.5904 79.2205 82.9588V44.1596C79.2205 42.7266 80.3822 41.5648 81.8152 41.5648H85.1359C89.7973 41.5648 93.6838 37.7498 93.5727 33.0898C93.4865 29.4814 91.0898 26.4465 87.8057 25.4049C88.0658 26.2045 88.208 27.0574 88.2104 27.9434C88.2229 32.5484 84.3795 36.2406 79.7744 36.2406H78.6115C75.985 36.2406 73.8559 38.3697 73.8559 40.9963V77.5391C73.8559 78.6178 72.9814 79.4922 71.9027 79.4922H70.8984C71.34 80.7133 71.5818 82.0289 71.5818 83.4004Z" fill="#E1D3CE"/>
<path d="M93.6012 59.0352H53.5645V65.8711H93.6012C94.1404 65.8711 94.5777 65.4338 94.5777 64.8945V60.0117C94.5777 59.4723 94.1404 59.0352 93.6012 59.0352Z" fill="#A2E62E"/>
<path d="M93.6012 59.0352H87.5C88.0393 59.0352 88.4766 59.4725 88.4766 60.0117V64.8945C88.4766 65.4338 88.0393 65.8711 87.5 65.8711H93.6012C94.1404 65.8711 94.5777 65.4338 94.5777 64.8945V60.0117C94.5777 59.4723 94.1404 59.0352 93.6012 59.0352Z" fill="#97D729"/>
<path d="M45.9963 59.2305V56.1457C45.9963 52.6717 43.1801 49.8555 39.7059 49.8555H26.017C22.543 49.8555 19.7266 52.6717 19.7266 56.1457V59.2305H45.9963Z" fill="#A2E62E"/>
<path d="M39.7057 49.8555H39.3748C39.6764 50.5908 39.8438 51.3955 39.8438 52.2395V53.3711C39.8438 54.4498 38.9693 55.3242 37.8906 55.3242H19.7816C19.7465 55.5934 19.7266 55.8672 19.7266 56.1457V59.2305H45.9961V56.1457C45.9961 52.6717 43.1799 49.8555 39.7057 49.8555Z" fill="#97D729"/>
<path d="M13.1836 71.877H53.7598V59.0352H16.1133C14.4953 59.0352 13.1836 60.3469 13.1836 61.9648V71.877Z" fill="#8BC727"/>
<path d="M13.1836 71.877H53.7598V59.0352H16.1133C14.4953 59.0352 13.1836 60.3469 13.1836 61.9648V71.877Z" fill="#8BC727"/>
<path d="M47.6562 59.0352V63.332C47.6562 64.95 46.3445 66.2617 44.7266 66.2617H13.1836V71.877H53.7598V59.0352H47.6562Z" fill="#81B823"/>
<path d="M70.4439 89.1699L70.6547 89.1682L70.6369 88.9582C70.6215 88.7733 70.6139 88.6059 70.6139 88.4463C70.6139 87.1154 71.0467 85.8842 71.7773 84.8838V83.4002C71.7773 76.9281 66.5307 71.6815 60.0586 71.6815H13.1836C6.71152 71.6815 1.46484 76.9281 1.46484 83.4002C1.46484 89.8723 6.71152 95.119 13.1836 95.119H64.441C64.4937 91.8664 67.1867 89.1963 70.4439 89.1699Z" fill="#A79BA7"/>
<path d="M71.7781 83.4004C71.7781 78.632 68.9285 74.532 64.841 72.7021C65.4699 74.1393 65.8211 75.7256 65.8211 77.3945C65.8211 83.8666 60.5744 89.1133 54.1023 89.1133H2.95312C4.95781 92.6959 8.7873 95.1191 13.1844 95.1191H64.4418C64.4947 91.8666 67.1877 89.1963 70.4447 89.1701L70.6555 89.1684L70.6377 88.9584C70.6223 88.7734 70.6146 88.6061 70.6146 88.4465C70.6146 87.1156 71.0475 85.8844 71.7781 84.884V83.4004Z" fill="#918291"/>
<path d="M13.1836 87.502C15.4488 87.502 17.2852 85.6656 17.2852 83.4004C17.2852 81.1352 15.4488 79.2988 13.1836 79.2988C10.9184 79.2988 9.08203 81.1352 9.08203 83.4004C9.08203 85.6656 10.9184 87.502 13.1836 87.502Z" fill="#F3EAE6"/>
<path d="M28.8086 87.502C31.0738 87.502 32.9102 85.6656 32.9102 83.4004C32.9102 81.1352 31.0738 79.2988 28.8086 79.2988C26.5434 79.2988 24.707 81.1352 24.707 83.4004C24.707 85.6656 26.5434 87.502 28.8086 87.502Z" fill="#F3EAE6"/>
<path d="M44.4336 87.502C46.6988 87.502 48.5352 85.6656 48.5352 83.4004C48.5352 81.1352 46.6988 79.2988 44.4336 79.2988C42.1684 79.2988 40.332 81.1352 40.332 83.4004C40.332 85.6656 42.1684 87.502 44.4336 87.502Z" fill="#F3EAE6"/>
<path d="M60.0586 87.502C62.3238 87.502 64.1602 85.6656 64.1602 83.4004C64.1602 81.1352 62.3238 79.2988 60.0586 79.2988C57.7934 79.2988 55.957 81.1352 55.957 83.4004C55.957 85.6656 57.7934 87.502 60.0586 87.502Z" fill="#F3EAE6"/>
<path d="M60.2246 79.307C60.5539 79.8975 60.7432 80.5766 60.7432 81.3006C60.7432 83.5658 58.9068 85.4022 56.6416 85.4022C56.5859 85.4022 56.5316 85.3961 56.4766 85.3938C57.1773 86.6506 58.5186 87.5018 60.0596 87.5018C62.3248 87.5018 64.1611 85.6654 64.1611 83.4002C64.1611 81.1908 62.4127 79.3945 60.2246 79.307Z" fill="#E1D3CE"/>
<path d="M44.5996 79.307C44.9289 79.8975 45.1182 80.5766 45.1182 81.3006C45.1182 83.5658 43.2818 85.4022 41.0166 85.4022C40.9609 85.4022 40.9066 85.3961 40.8516 85.3938C41.5523 86.6506 42.8936 87.5018 44.4346 87.5018C46.6998 87.5018 48.5361 85.6654 48.5361 83.4002C48.5361 81.1908 46.7877 79.3945 44.5996 79.307Z" fill="#E1D3CE"/>
<path d="M28.9746 79.307C29.3039 79.8975 29.4932 80.5766 29.4932 81.3006C29.4932 83.5658 27.6568 85.4022 25.3916 85.4022C25.3359 85.4022 25.2816 85.3961 25.2266 85.3938C25.9273 86.6506 27.2686 87.5018 28.8096 87.5018C31.0748 87.5018 32.9111 85.6654 32.9111 83.4002C32.9111 81.1908 31.1627 79.3945 28.9746 79.307Z" fill="#E1D3CE"/>
<path d="M13.3477 79.307C13.677 79.8975 13.8662 80.5766 13.8662 81.3006C13.8662 83.5658 12.0299 85.4022 9.76465 85.4022C9.70898 85.4022 9.65469 85.3961 9.59961 85.3938C10.3004 86.6506 11.6416 87.5018 13.1826 87.5018C15.4479 87.5018 17.2842 85.6654 17.2842 83.4002C17.2842 81.1908 15.5357 79.3945 13.3477 79.307Z" fill="#E1D3CE"/>
<path d="M27.5694 17.3656L29.1091 21.2656C29.5782 22.4537 30.8819 23.0816 32.1032 22.7076L36.1122 21.4799C36.3563 21.4051 36.5661 21.668 36.4387 21.8895L34.3497 25.5248C33.7132 26.6324 34.0352 28.0432 35.0891 28.7648L38.5487 31.1338C38.7594 31.2781 38.6846 31.6059 38.4321 31.6445L34.2874 32.2777C33.0247 32.4707 32.1223 33.602 32.2153 34.876L32.5202 39.0578C32.5387 39.3125 32.2358 39.4584 32.0483 39.2852L28.969 36.4395C28.0309 35.5725 26.5839 35.5725 25.6458 36.4395L22.5665 39.2852C22.379 39.4586 22.076 39.3127 22.0946 39.0578L22.3995 34.876C22.4925 33.602 21.5901 32.4707 20.3274 32.2777L16.1827 31.6445C15.9302 31.6061 15.8553 31.2781 16.0661 31.1338L19.5257 28.7648C20.5796 28.0432 20.9016 26.6324 20.2651 25.5248L18.176 21.8895C18.0487 21.668 18.2585 21.4051 18.5026 21.4799L22.5116 22.7076C23.7331 23.0816 25.0368 22.4539 25.5057 21.2656L27.0454 17.3656C27.1393 17.1281 27.4757 17.1281 27.5694 17.3656Z" fill="#FFD15B"/>
<path d="M38.5483 31.1334L35.0887 28.7645C34.0348 28.0428 33.7127 26.632 34.3493 25.5244L36.4385 21.8891C36.5657 21.6676 36.3561 21.4047 36.1119 21.4795L32.103 22.7072C32.0528 22.7227 32.0022 22.7338 31.9518 22.7457C31.8225 28.4578 27.7723 33.1992 22.3852 34.3842C22.4057 34.5443 22.4116 34.7084 22.3994 34.8752L22.0946 39.057C22.076 39.3117 22.3789 39.4576 22.5664 39.2844L25.6457 36.4387C26.5838 35.5717 28.0309 35.5717 28.9692 36.4387L32.0485 39.2844C32.236 39.4578 32.5389 39.3119 32.5203 39.057L32.2155 34.8752C32.1225 33.6012 33.0248 32.4699 34.2875 32.2769L38.4323 31.6437C38.6842 31.6055 38.759 31.2777 38.5483 31.1334Z" fill="#FFC344"/>
<path d="M92.3801 88.9746C92.3947 88.8002 92.4039 88.6244 92.4039 88.4463C92.4039 84.9949 89.6061 82.1973 86.1549 82.1973C84.2568 82.1973 82.5576 83.0445 81.4115 84.3803C80.2654 83.0445 78.5664 82.1973 76.6682 82.1973C73.217 82.1973 70.4191 84.9951 70.4191 88.4463C70.4191 88.6244 70.4283 88.8002 70.443 88.9746C67.05 89.0021 64.3012 91.7326 64.2461 95.1189H97.9486C98.3018 95.1189 98.574 94.8088 98.5312 94.4584C98.1568 91.3844 95.5494 89.0004 92.3801 88.9746Z" fill="#F3EAE6"/>
<path d="M92.3797 88.9746C92.3943 88.8002 92.4035 88.6244 92.4035 88.4463C92.4035 84.9949 89.6057 82.1973 86.1545 82.1973C85.7356 82.1973 85.327 82.2408 84.9313 82.3195L87.3451 88.3018C87.8631 89.5855 86.9182 90.9857 85.534 90.9857H65.9018C64.8953 92.0758 64.2719 93.5246 64.2461 95.1189H97.9486C98.3018 95.1189 98.574 94.8088 98.5312 94.4584C98.1564 91.3844 95.549 89.0004 92.3797 88.9746Z" fill="#E1D3CE"/>
<path d="M69.3828 43.5586V53.1758C69.3828 53.9848 70.0385 54.6406 70.8477 54.6406C71.6568 54.6406 72.3125 53.9848 72.3125 53.1758V43.5586C72.3125 42.7496 71.6568 42.0938 70.8477 42.0938C70.0385 42.0938 69.3828 42.7496 69.3828 43.5586Z" fill="black"/>
<path d="M58.125 29.9621C57.3238 29.8951 56.61 30.4912 56.5414 31.2975C56.407 32.874 57.0314 34.4082 58.2541 35.5069C59.3721 36.5112 60.8064 37.0133 62.241 37.0133C63.6758 37.0133 65.1101 36.5112 66.2279 35.5067C66.8297 34.9658 66.8793 34.0399 66.3385 33.4381C65.7977 32.8364 64.8717 32.7869 64.2697 33.3276C63.1699 34.3156 61.3117 34.3156 60.2121 33.3276C59.6709 32.8414 59.4041 32.2088 59.4603 31.5461C59.5289 30.7399 58.9312 30.0309 58.125 29.9621Z" fill="black"/>
<path d="M81.4821 33.3276C80.3823 34.3156 78.5241 34.3156 77.4245 33.3276C76.8226 32.7869 75.8966 32.8367 75.3558 33.4381C74.8149 34.0401 74.8646 34.966 75.4663 35.5069C76.5843 36.5112 78.0187 37.0133 79.4532 37.0133C80.888 37.0133 82.3224 36.5112 83.4401 35.5069C84.663 34.4082 85.2872 32.874 85.153 31.2975C85.0843 30.4914 84.3753 29.8949 83.5694 29.9621C82.7632 30.0309 82.1655 30.7399 82.2341 31.5459C82.2903 32.2086 82.0235 32.8412 81.4821 33.3276Z" fill="black"/>
<path d="M74.7448 26.2211C73.9702 25.9893 73.1534 26.4289 72.9212 27.2039C72.6486 28.1135 71.7956 28.7486 70.847 28.7486C69.8984 28.7486 69.0452 28.1135 68.7728 27.2039C68.5405 26.4289 67.7241 25.9893 66.9491 26.2211C66.1741 26.4533 65.7341 27.2699 65.9663 28.0447C66.6073 30.1842 68.6146 31.6783 70.847 31.6783C73.0794 31.6783 75.0866 30.1842 75.7277 28.0447C75.9599 27.2697 75.5198 26.4533 74.7448 26.2211Z" fill="black"/>
<path d="M7.61719 83.4004C7.61719 86.4697 10.1143 88.9668 13.1836 88.9668C16.2529 88.9668 18.75 86.4695 18.75 83.4004C18.75 80.3312 16.2529 77.834 13.1836 77.834C10.1143 77.834 7.61719 80.3311 7.61719 83.4004ZM15.8203 83.4004C15.8203 84.8543 14.6375 86.0371 13.1836 86.0371C11.7297 86.0371 10.5469 84.8541 10.5469 83.4004C10.5469 81.9467 11.7297 80.7637 13.1836 80.7637C14.6375 80.7637 15.8203 81.9465 15.8203 83.4004Z" fill="black"/>
<path d="M23.2422 83.4004C23.2422 86.4697 25.7393 88.9668 28.8086 88.9668C31.8779 88.9668 34.375 86.4697 34.375 83.4004C34.375 80.3311 31.8779 77.834 28.8086 77.834C25.7393 77.834 23.2422 80.3311 23.2422 83.4004ZM31.4453 83.4004C31.4453 84.8543 30.2625 86.0371 28.8086 86.0371C27.3547 86.0371 26.1719 84.8543 26.1719 83.4004C26.1719 81.9465 27.3547 80.7637 28.8086 80.7637C30.2625 80.7637 31.4453 81.9465 31.4453 83.4004Z" fill="black"/>
<path d="M38.8672 83.4004C38.8672 86.4697 41.3643 88.9668 44.4336 88.9668C47.5029 88.9668 50 86.4697 50 83.4004C50 80.3311 47.5029 77.834 44.4336 77.834C41.3643 77.834 38.8672 80.3311 38.8672 83.4004ZM47.0703 83.4004C47.0703 84.8543 45.8875 86.0371 44.4336 86.0371C42.9797 86.0371 41.7969 84.8543 41.7969 83.4004C41.7969 81.9465 42.9797 80.7637 44.4336 80.7637C45.8875 80.7637 47.0703 81.9465 47.0703 83.4004Z" fill="black"/>
<path d="M60.0586 88.9668C63.1279 88.9668 65.625 86.4697 65.625 83.4004C65.625 80.3311 63.1279 77.834 60.0586 77.834C56.9893 77.834 54.4922 80.3311 54.4922 83.4004C54.4922 86.4697 56.9893 88.9668 60.0586 88.9668ZM60.0586 80.7637C61.5125 80.7637 62.6953 81.9465 62.6953 83.4004C62.6953 84.8543 61.5125 86.0371 60.0586 86.0371C58.6047 86.0371 57.4219 84.8543 57.4219 83.4004C57.4219 81.9465 58.6047 80.7637 60.0586 80.7637Z" fill="black"/>
<path d="M15.9615 33.0922L20.1064 33.7254C20.6101 33.8024 20.9758 34.2608 20.9386 34.7692L20.6336 38.9514C20.5812 39.6711 20.9675 40.3383 21.6175 40.6514C22.2674 40.9647 23.03 40.8506 23.5609 40.3606L26.64 37.5149C27.0146 37.169 27.6007 37.169 27.975 37.5149L31.0543 40.3606C31.3857 40.6668 31.8078 40.8262 32.2369 40.8262C32.4941 40.8262 32.7539 40.7688 32.9978 40.6512C33.6482 40.3379 34.0343 39.6701 33.9816 38.9508L33.6765 34.769C33.6394 34.2606 34.005 33.8022 34.509 33.7252L38.6533 33.092C39.3666 32.9832 39.9316 32.4584 40.0924 31.7549C40.2533 31.0514 39.9726 30.3332 39.3767 29.9244L35.9172 27.5557C35.4966 27.2678 35.3662 26.6961 35.6201 26.2541L37.7088 22.6195C38.0687 21.994 38.0107 21.2248 37.5607 20.6604C37.1111 20.0959 36.3744 19.8676 35.6836 20.0787L31.6746 21.3067C31.1881 21.4561 30.6592 21.2016 30.4718 20.7276L28.9324 16.8276L28.9322 16.8274C28.6672 16.1561 28.0295 15.7225 27.308 15.7225H27.3072C26.5855 15.7227 25.948 16.1568 25.6836 16.8276L24.1441 20.7274C23.9568 21.2018 23.4281 21.4561 22.9412 21.3067L18.9322 20.0787C18.2427 19.8674 17.5056 20.0953 17.0556 20.6598C16.6054 21.224 16.547 21.993 16.9066 22.6188L18.9957 26.2541C19.2498 26.6961 19.1193 27.2676 18.6986 27.5557L15.2388 29.9246C14.6431 30.3326 14.3625 31.0508 14.5232 31.7545C14.6834 32.4584 15.2482 32.9834 15.9615 33.0922ZM20.3533 29.9733C22.0263 28.8277 22.5457 26.5529 21.5353 24.7947L20.9396 23.758L22.0828 24.1082C24.022 24.7022 26.124 23.6895 26.8685 21.8035L27.3076 20.6916L27.7465 21.8035C28.491 23.6897 30.5927 24.7022 32.5322 24.1082L33.6754 23.758L33.0797 24.7947C32.0693 26.5529 32.5884 28.8276 34.2619 29.9733L35.2484 30.6486L34.0664 30.8291C32.0617 31.1354 30.607 32.9596 30.7545 34.982L30.8414 36.1742L29.9634 35.3627C28.4742 33.9867 26.141 33.9865 24.6517 35.3629L23.7738 36.1744L23.8607 34.982C24.0082 32.9596 22.5535 31.1356 20.549 30.8291L19.367 30.6486L20.3533 29.9733Z" fill="black"/>
<path d="M99.985 94.2813C99.5773 90.9381 97.0367 88.2947 93.8281 87.6568C93.4313 83.7729 90.1412 80.7322 86.1543 80.7322C84.4201 80.7322 82.7557 81.3147 81.4109 82.3645C81.1785 82.183 80.9359 82.0164 80.6855 81.8635V67.3359H93.6012C94.9475 67.3359 96.0426 66.2408 96.0426 64.8945V60.0117C96.0426 58.6654 94.9475 57.5703 93.6012 57.5703H80.6855V44.1598C80.6855 43.5367 81.1926 43.0299 81.8156 43.0299H85.1393C87.7855 43.0299 90.3748 41.9408 92.243 40.0422C94.0877 38.167 95.0807 35.7125 95.0389 33.1305C94.9973 30.5768 93.9754 28.1791 92.1609 26.3791C92.051 26.2699 91.9381 26.1649 91.824 26.0617L91.6959 24.3051C91.6492 23.665 92.1094 23.0877 92.7439 22.9908L97.3203 22.2916C98.0457 22.1809 98.6201 21.6471 98.7834 20.9315C98.9469 20.216 98.6611 19.4858 98.0555 19.0711L94.2354 16.4557C93.7059 16.093 93.5416 15.3731 93.8613 14.8166L96.168 10.8029C96.5338 10.1666 96.4744 9.38478 96.0172 8.81095C95.5594 8.23712 94.8096 8.00529 94.1088 8.22013L89.6822 9.57579C89.0693 9.76368 88.4031 9.44337 88.1674 8.8465L86.4674 4.54025C86.1979 3.85782 85.5496 3.41681 84.8158 3.41681C84.082 3.41681 83.4338 3.85782 83.1643 4.54044L81.4641 8.84669C81.2285 9.44357 80.5633 9.76368 79.9496 9.57599L75.523 8.22032C74.8205 8.00548 74.0719 8.23732 73.6147 8.81114C73.157 9.38497 73.0978 10.1668 73.4635 10.8029L75.6967 14.6891C73.9078 14.9547 72.2293 15.7117 70.8475 16.8795C69.1021 15.4049 66.8842 14.5815 64.5674 14.5815C59.4141 14.5815 55.183 18.6053 54.85 23.6758C52.8477 23.9934 50.9979 24.9272 49.5338 26.3797C47.7193 28.1797 46.6975 30.5775 46.6561 33.1311C46.6141 35.7129 47.607 38.1676 49.4518 40.0426C51.3199 41.9414 53.9092 43.0303 56.5555 43.0303H59.8793C60.5021 43.0303 61.0092 43.5371 61.0092 44.1602V48.2617C61.0092 49.0707 61.6648 49.7266 62.474 49.7266C63.2832 49.7266 63.9389 49.0707 63.9389 48.2617V44.1602C63.9389 41.9217 62.1178 40.1006 59.8793 40.1006H56.5555C54.6893 40.1006 52.8611 39.3305 51.54 37.9877C50.2502 36.677 49.5561 34.969 49.5852 33.1785C49.6445 29.517 52.6734 26.5139 56.3367 26.4844C56.7443 26.4811 57.132 26.3082 57.4068 26.007C57.6814 25.7059 57.8184 25.3039 57.7846 24.8979C57.7668 24.685 57.7582 24.4959 57.7582 24.3201C57.7582 20.5656 60.8127 17.5111 64.567 17.5111C66.5543 17.5111 68.4379 18.3783 69.7354 19.8906C70.0137 20.215 70.4197 20.4018 70.8471 20.4018C71.2744 20.4018 71.6807 20.215 71.9588 19.8908C73.2562 18.3785 75.14 17.5113 77.1271 17.5113C80.8818 17.5113 83.9361 20.5658 83.9361 24.3203C83.9361 24.4967 83.9275 24.6854 83.9096 24.8969C83.8754 25.3033 84.0119 25.7055 84.2869 26.0068C84.5619 26.3082 84.9498 26.4815 85.3574 26.4846C89.0209 26.5143 92.0498 29.5172 92.1092 33.1787C92.1381 34.9692 91.4439 36.6772 90.1541 37.9881C88.8328 39.3309 87.0049 40.1008 85.1387 40.1008H81.815C79.5764 40.1008 77.7553 41.9219 77.7553 44.1604V57.5709H63.9381V55.0979C63.9381 54.2889 63.2824 53.633 62.4732 53.633C61.6641 53.633 61.0084 54.2889 61.0084 55.0979V57.5709H47.4609V56.1465C47.4609 51.8703 43.982 48.3912 39.7057 48.3912H34.375C33.5658 48.3912 32.9102 49.0471 32.9102 49.8561C32.9102 50.665 33.5658 51.3209 34.375 51.3209H39.7057C42.3664 51.3209 44.5312 53.4856 44.5312 56.1465V57.5709H21.1914V56.1465C21.1914 53.4858 23.3561 51.3209 26.0168 51.3209H27.5391C28.3482 51.3209 29.0039 50.665 29.0039 49.8561C29.0039 49.0471 28.3482 48.3912 27.5391 48.3912H26.0168C21.7406 48.3912 18.2617 51.8701 18.2617 56.1465V57.5709H16.1133C13.6902 57.5709 11.7188 59.5422 11.7188 61.9654V70.3008C5.13633 71.032 0 76.627 0 83.4012C0 90.6705 5.91406 96.5848 13.1836 96.5848H48.6328C49.442 96.5848 50.0977 95.9289 50.0977 95.1199C50.0977 94.3109 49.442 93.6551 48.6328 93.6551H13.1836C7.52969 93.6551 2.92969 89.0553 2.92969 83.4012C2.92969 77.7471 7.52969 73.1473 13.1836 73.1473H60.0586C65.7125 73.1473 70.3125 77.7471 70.3125 83.4012V84.0807C69.5967 85.1191 69.1279 86.3404 68.9936 87.6594C65.984 88.2647 63.5766 90.6522 62.9441 93.6549H55.4688C54.6596 93.6549 54.0039 94.3108 54.0039 95.1197C54.0039 95.9287 54.6596 96.5846 55.4688 96.5846H97.948C98.5348 96.5846 99.0943 96.3324 99.4834 95.8932C99.8732 95.4523 100.056 94.865 99.985 94.2813ZM88.7656 24.1877C88.1473 23.9527 87.5045 23.7797 86.8447 23.6752C86.549 19.1656 83.1689 15.4871 78.7998 14.7274C78.7184 14.2496 78.5564 13.7856 78.31 13.3567L77.4596 11.877L79.0912 12.3768C81.1561 13.0092 83.3957 11.9309 84.1887 9.92189L84.8154 8.33458L85.4422 9.92189C86.2355 11.9309 88.4736 13.0092 90.5398 12.3768L92.1715 11.877L91.3211 13.3567C90.2449 15.2293 90.798 17.6522 92.5801 18.8727L93.9883 19.8367L92.3012 20.0945C90.276 20.4039 88.7803 22.1684 88.7656 24.1877ZM55.2246 60.5H93.1127V64.4063H55.2246V60.5ZM52.2949 70.2166H14.6484V61.9647C14.6484 61.1568 15.3055 60.4998 16.1133 60.4998H52.2949V70.2166ZM55.2246 70.2166V67.3358H61.0088V70.2541C60.6945 70.2317 60.3783 70.2166 60.0586 70.2166H55.2246ZM63.9385 70.8029V67.3359H77.7557V80.8111C77.3975 80.7602 77.0342 80.7326 76.6676 80.7326C75.3875 80.7326 74.1801 81.0475 73.1162 81.6016C72.4143 76.4824 68.7637 72.293 63.9385 70.8029ZM65.9773 93.6541C66.6299 91.8031 68.4 90.4561 70.4543 90.4395C70.8621 90.4361 71.25 90.2629 71.5248 89.9617C71.7994 89.6604 71.9361 89.258 71.9022 88.8518C71.8896 88.7025 71.8834 88.5699 71.8834 88.4463C71.8834 85.8082 74.0295 83.6619 76.6676 83.6619C78.0637 83.6619 79.3873 84.2715 80.299 85.334C80.5773 85.6584 80.9834 85.8451 81.4107 85.8451C81.8381 85.8451 82.2441 85.6584 82.5223 85.3342C83.4342 84.2715 84.7578 83.6619 86.1541 83.6619C88.7922 83.6619 90.9383 85.8082 90.9383 88.4463C90.9383 88.568 90.9322 88.701 90.9193 88.8533C90.8855 89.2594 91.0225 89.6613 91.2975 89.9623C91.5725 90.2633 91.96 90.4361 92.3676 90.4395C94.4197 90.4561 96.1994 91.7822 96.8494 93.6541H65.9773Z" fill="black"/>
</g>
<defs>
<clipPath id="clip0_562_1300">
<rect width="100" height="100" fill="white"/>
</clipPath>
</defs>
</svg>
