<svg width="100" height="100" viewBox="0 0 100 100" fill="none" xmlns="http://www.w3.org/2000/svg">
<path d="M4.6875 42.1875H95.3125V95.3125H14.0625C11.5761 95.3125 9.19153 94.3248 7.43337 92.5666C5.67522 90.8085 4.6875 88.4239 4.6875 85.9375V42.1875Z" fill="#57B7EB"/>
<path d="M35.9375 42.1875H4.6875V85.9375C4.6875 88.4239 5.67522 90.8085 7.43337 92.5666C9.19153 94.3248 11.5761 95.3125 14.0625 95.3125H95.3125V82.8125H76.5625C65.7881 82.8125 55.455 78.5324 47.8363 70.9137C40.2176 63.295 35.9375 52.9619 35.9375 42.1875Z" fill="#4891D3"/>
<path d="M14.0625 26.5625C11.5761 26.5625 9.19153 27.5502 7.43337 29.3084C5.67522 31.0665 4.6875 33.4511 4.6875 35.9375V85.9375C4.6875 83.4511 5.67522 81.0665 7.43337 79.3084C9.19153 77.5502 11.5761 76.5625 14.0625 76.5625C16.5489 76.5625 18.9335 77.5502 20.6916 79.3084C22.4498 81.0665 23.4375 83.4511 23.4375 85.9375V35.9375C23.4375 33.4511 22.4498 31.0665 20.6916 29.3084C18.9335 27.5502 16.5489 26.5625 14.0625 26.5625Z" fill="#AAE1F9"/>
<path d="M59.375 23.4375C59.3763 21.3232 58.8413 19.2431 57.8201 17.3918C56.7988 15.5405 55.3246 13.9785 53.5355 12.852C51.7463 11.7254 49.7006 11.071 47.5898 10.9501C45.479 10.8292 43.372 11.2457 41.4659 12.1607C39.5598 13.0756 37.9169 14.459 36.6909 16.1816C35.465 17.9042 34.696 19.9096 34.4559 22.0102C34.2158 24.1108 34.5124 26.238 35.3181 28.1928C36.1237 30.1476 37.412 31.8661 39.0625 33.1875V35.9375H54.6875V33.1875C56.1506 32.0184 57.3317 30.5349 58.1431 28.8471C58.9546 27.1592 59.3756 25.3103 59.375 23.4375Z" fill="#F9E109"/>
<path d="M54.6875 35.9375H39.0625C37.3366 35.9375 35.9375 37.3366 35.9375 39.0625C35.9375 40.7884 37.3366 42.1875 39.0625 42.1875H54.6875C56.4134 42.1875 57.8125 40.7884 57.8125 39.0625C57.8125 37.3366 56.4134 35.9375 54.6875 35.9375Z" fill="#D0D8DA"/>
<path d="M39.0625 42.1875H54.6875V43.75C54.6875 45.822 53.8644 47.8091 52.3993 49.2743C50.9341 50.7394 48.947 51.5625 46.875 51.5625C44.803 51.5625 42.8159 50.7394 41.3507 49.2743C39.8856 47.8091 39.0625 45.822 39.0625 43.75V42.1875Z" fill="#93999A"/>
<path d="M42.1878 18.75C42.1869 16.0667 42.9582 13.4398 44.4097 11.1829C42.0798 11.6531 39.9323 12.7779 38.2189 14.4254C36.5056 16.0728 35.2975 18.1746 34.7363 20.4843C34.175 22.794 34.284 25.2158 35.0503 27.4658C35.8166 29.7157 37.2085 31.7006 39.0628 33.1875V35.9375H54.6878V33.1875C54.855 33.0532 55.0003 32.9 55.1659 32.7579C51.6361 32.4867 48.3387 30.8934 45.9326 28.2965C43.5266 25.6995 42.1892 22.2903 42.1878 18.75Z" fill="#FCBC04"/>
<path d="M39.0625 35.9375C38.2337 35.9375 37.4388 36.2667 36.8528 36.8528C36.2667 37.4388 35.9375 38.2337 35.9375 39.0625C35.9375 39.8913 36.2667 40.6862 36.8528 41.2722C37.4388 41.8583 38.2337 42.1875 39.0625 42.1875H54.6875C55.5163 42.1875 56.3112 41.8583 56.8972 41.2722C57.4833 40.6862 57.8125 39.8913 57.8125 39.0625H42.1875C41.3587 39.0625 40.5638 38.7333 39.9778 38.1472C39.3917 37.5612 39.0625 36.7663 39.0625 35.9375Z" fill="#93999A"/>
<path d="M51.5625 45.3125H54.5313C54.6358 44.7983 54.6882 44.2748 54.6875 43.75V42.1875H39.0625V43.75C39.0645 45.3264 39.5442 46.8652 40.4385 48.1634C41.3328 49.4616 42.5996 50.4583 44.0719 51.0219C44.5262 49.3831 45.5042 47.938 46.8567 46.9071C48.2092 45.8762 49.8619 45.3162 51.5625 45.3125Z" fill="#656B76"/>
<path d="M67.1883 70.3125C67.188 69.7392 67.1357 69.167 67.032 68.6031L70.207 66.7687L67.082 61.3563L63.907 63.1906C63.0314 62.4429 62.0249 61.8638 60.9383 61.4828V57.8125H54.6883V61.4828C53.6017 61.8638 52.5951 62.4429 51.7195 63.1906L48.543 61.3563L45.418 66.7687L48.5945 68.6031C48.3779 69.7324 48.3779 70.8926 48.5945 72.0219L45.4195 73.8563L48.5445 79.2687L51.7195 77.4344C52.5951 78.1821 53.6017 78.7612 54.6883 79.1422V82.8125H60.9383V79.1422C62.0249 78.7612 63.0314 78.1821 63.907 77.4344L67.0836 79.2687L70.2086 73.8563L67.032 72.0219C67.1357 71.458 67.188 70.8858 67.1883 70.3125ZM57.8133 73.4375C57.1952 73.4375 56.591 73.2542 56.0771 72.9108C55.5632 72.5675 55.1627 72.0794 54.9262 71.5084C54.6896 70.9374 54.6277 70.309 54.7483 69.7028C54.8689 69.0966 55.1665 68.5398 55.6036 68.1028C56.0406 67.6657 56.5974 67.3681 57.2036 67.2475C57.8098 67.127 58.4381 67.1889 59.0092 67.4254C59.5802 67.6619 60.0682 68.0624 60.4116 68.5763C60.755 69.0902 60.9383 69.6944 60.9383 70.3125C60.9383 71.1413 60.609 71.9362 60.023 72.5222C59.4369 73.1083 58.6421 73.4375 57.8133 73.4375Z" fill="#F9E109"/>
<path d="M35.9375 87.5C37.6634 87.5 39.0625 86.1009 39.0625 84.375C39.0625 82.6491 37.6634 81.25 35.9375 81.25C34.2116 81.25 32.8125 82.6491 32.8125 84.375C32.8125 86.1009 34.2116 87.5 35.9375 87.5Z" fill="#FCBC04"/>
<path d="M89.0625 59.375H76.5625V20.3125H89.0625V59.375Z" fill="#A1D51C"/>
<path d="M82.8125 75L89.0625 59.375H76.5625L82.8125 75Z" fill="#FCBC04"/>
<path d="M89.0625 14.0625H76.5625V10.9375C76.5625 9.2799 77.221 7.69018 78.3931 6.51808C79.5652 5.34598 81.1549 4.6875 82.8125 4.6875C84.4701 4.6875 86.0598 5.34598 87.2319 6.51808C88.404 7.69018 89.0625 9.2799 89.0625 10.9375V14.0625Z" fill="#AAE1F9"/>
<path d="M89.0625 20.3125H76.5625V14.0625H89.0625V20.3125Z" fill="#D0D8DA"/>
<path d="M79.0625 65.625H86.5625L82.8125 75L79.0625 65.625Z" fill="#93999A"/>
<path d="M82.0875 41.4422C82.0942 47.4688 82.7251 53.4785 83.9703 59.375H76.5625V20.3125H82.0875V41.4422Z" fill="#7AB92D"/>
<path d="M85.5094 65.625H79.0625L82.8125 75L76.5625 59.375H83.9703C84.4109 61.475 84.9156 63.5609 85.5094 65.625Z" fill="#E59730"/>
<path d="M82.8125 4.6875C83.381 4.69559 83.9456 4.78182 84.4906 4.94375C83.745 5.52264 83.1411 6.26377 82.7247 7.1109C82.3084 7.95803 82.0904 8.88889 82.0875 9.83281V14.0625H76.5625V10.9375C76.5625 9.2799 77.221 7.69018 78.3931 6.51808C79.5652 5.34598 81.1549 4.6875 82.8125 4.6875Z" fill="#57B7EB"/>
<path d="M76.5625 14.0625H82.0859V20.3125H76.5625V14.0625Z" fill="#93999A"/>
<path d="M85.5094 65.625C85.6531 66.125 85.8125 66.6203 85.9656 67.1188L82.8125 75L79.0625 65.625H85.5094Z" fill="#656B76"/>
<path d="M15.6251 51.8657V26.7032C14.2804 26.4668 12.9001 26.5286 11.5818 26.8844C10.2636 27.2401 9.03958 27.881 7.99629 28.7619C6.95301 29.6427 6.11592 30.7419 5.5442 31.9819C4.97247 33.2218 4.68007 34.5722 4.68764 35.9376V85.9375C4.68764 83.4511 5.67536 81.0666 7.43352 79.3084C9.19167 77.5503 11.5762 76.5625 14.0626 76.5625C16.549 76.5625 18.9336 77.5503 20.6918 79.3084C22.4499 81.0666 23.4376 83.4511 23.4376 85.9375V76.1313C18.3594 69.0591 15.627 60.5723 15.6251 51.8657Z" fill="#57B7EB"/>
<path d="M68.7492 74.9999C65.68 75.0031 62.6784 74.0979 60.1227 72.3984C59.8399 72.713 59.4961 72.9667 59.1121 73.144C58.7281 73.3213 58.312 73.4186 57.8892 73.4298C57.4664 73.441 57.0457 73.366 56.6529 73.2093C56.26 73.0526 55.9032 72.8175 55.6042 72.5184C55.3051 72.2193 55.0702 71.8624 54.9136 71.4694C54.7571 71.0765 54.6822 70.6558 54.6936 70.233C54.705 69.8102 54.8024 69.3942 54.9798 69.0102C55.1573 68.6263 55.4111 68.2826 55.7258 67.9999C54.5418 66.2122 53.7411 64.1985 53.3742 62.0859C52.7871 62.3946 52.2345 62.7649 51.7258 63.1906L48.5492 61.3562L45.4242 66.7687L48.593 68.6031C48.3763 69.7324 48.3763 70.8925 48.593 72.0218L45.418 73.8562L48.543 79.2687L51.718 77.4343C52.5936 78.1821 53.6001 78.7611 54.6867 79.1421V82.8124H60.9367V79.1421C62.0233 78.7611 63.0299 78.1821 63.9055 77.4343L67.082 79.2687L69.5398 74.9999H68.7492Z" fill="#FCBC04"/>
<path d="M37.5001 85.9375C36.9777 85.9397 36.4631 85.8103 36.0038 85.5613C35.5445 85.3123 35.1553 84.9518 34.872 84.5128C34.5887 84.0739 34.4205 83.5707 34.3828 83.0496C34.3451 82.5286 34.4392 82.0064 34.6563 81.5312C34.1929 81.7373 33.7866 82.053 33.4725 82.4511C33.1583 82.8492 32.9458 83.3178 32.8533 83.8164C32.7607 84.3151 32.7909 84.8287 32.9412 85.3131C33.0915 85.7974 33.3575 86.2379 33.7161 86.5965C34.0747 86.9551 34.5152 87.221 34.9995 87.3713C35.4838 87.5217 35.9975 87.5519 36.4961 87.4593C36.9947 87.3667 37.4633 87.1542 37.8615 86.8401C38.2596 86.526 38.5753 86.1197 38.7813 85.6562C38.3791 85.84 37.9423 85.9359 37.5001 85.9375Z" fill="#E59730"/>
<path d="M51.7195 77.4344C52.5951 78.1821 53.6017 78.7612 54.6883 79.1422V82.8125H60.9383V79.6875C56.3429 77.7664 52.1398 75.0171 48.5383 71.5765C48.5602 71.7234 48.5742 71.8719 48.6008 72.0156L45.4258 73.85L48.5508 79.2625L51.7195 77.4344Z" fill="#E59730"/>
<path d="M62.5 43.75H70.3125C70.7269 43.75 71.1243 43.5854 71.4174 43.2924C71.7104 42.9993 71.875 42.6019 71.875 42.1875C71.875 41.7731 71.7104 41.3757 71.4174 41.0826C71.1243 40.7896 70.7269 40.625 70.3125 40.625H62.5C62.0856 40.625 61.6882 40.7896 61.3951 41.0826C61.1021 41.3757 60.9375 41.7731 60.9375 42.1875C60.9375 42.6019 61.1021 42.9993 61.3951 43.2924C61.6882 43.5854 62.0856 43.75 62.5 43.75Z" fill="black"/>
<path d="M95.3125 40.625C94.8981 40.625 94.5007 40.7896 94.2076 41.0826C93.9146 41.3757 93.75 41.7731 93.75 42.1875V93.75H14.0625C12.5173 93.75 11.0069 93.2918 9.72211 92.4334C8.43735 91.5749 7.436 90.3548 6.84469 88.9272C6.25338 87.4997 6.09867 85.9288 6.40012 84.4134C6.70156 82.8979 7.44563 81.5058 8.53823 80.4132C9.63083 79.3206 11.0229 78.5766 12.5384 78.2751C14.0538 77.9737 15.6247 78.1284 17.0522 78.7197C18.4798 79.311 19.6999 80.3123 20.5584 81.5971C21.4168 82.8819 21.875 84.3923 21.875 85.9375C21.875 86.3519 22.0396 86.7493 22.3326 87.0424C22.6257 87.3354 23.0231 87.5 23.4375 87.5C23.8519 87.5 24.2493 87.3354 24.5424 87.0424C24.8354 86.7493 25 86.3519 25 85.9375V43.75H29.6875C30.1019 43.75 30.4993 43.5854 30.7924 43.2924C31.0854 42.9993 31.25 42.6019 31.25 42.1875C31.25 41.7731 31.0854 41.3757 30.7924 41.0826C30.4993 40.7896 30.1019 40.625 29.6875 40.625H25V35.9375C25 33.0367 23.8477 30.2547 21.7965 28.2035C19.7453 26.1523 16.9633 25 14.0625 25C11.1617 25 8.3797 26.1523 6.32852 28.2035C4.27734 30.2547 3.125 33.0367 3.125 35.9375V85.9375C3.12831 88.8373 4.28171 91.6174 6.33217 93.6678C8.38264 95.7183 11.1627 96.8717 14.0625 96.875H95.3125C95.7269 96.875 96.1243 96.7104 96.4174 96.4174C96.7104 96.1243 96.875 95.7269 96.875 95.3125V42.1875C96.875 41.7731 96.7104 41.3757 96.4174 41.0826C96.1243 40.7896 95.7269 40.625 95.3125 40.625ZM6.25 35.9375C6.25 33.8655 7.0731 31.8784 8.53823 30.4132C10.0034 28.9481 11.9905 28.125 14.0625 28.125C16.1345 28.125 18.1216 28.9481 19.5868 30.4132C21.0519 31.8784 21.875 33.8655 21.875 35.9375V78.2812C20.8576 77.2401 19.6424 76.4129 18.3008 75.8481C16.9591 75.2833 15.5182 74.9924 14.0625 74.9924C12.6068 74.9924 11.1659 75.2833 9.82422 75.8481C8.4826 76.4129 7.26739 77.2401 6.25 78.2812V35.9375Z" fill="black"/>
<path d="M75.1109 59.9563L77.6109 66.2063L81.3609 75.5813C81.4766 75.8717 81.6768 76.1208 81.9356 76.2962C82.1944 76.4717 82.4998 76.5655 82.8125 76.5655C83.1252 76.5655 83.4306 76.4717 83.6894 76.2962C83.9482 76.1208 84.1484 75.8717 84.2641 75.5813L88.0141 66.2063L90.5141 59.9563C90.5768 59.7893 90.6101 59.6127 90.6125 59.4344C90.6125 59.4141 90.625 59.3969 90.625 59.375V32.8125C90.625 32.3981 90.4604 32.0007 90.1674 31.7076C89.8743 31.4146 89.4769 31.25 89.0625 31.25C88.6481 31.25 88.2507 31.4146 87.9576 31.7076C87.6646 32.0007 87.5 32.3981 87.5 32.8125V57.8125H84.375V21.875H87.5V26.5625C87.5 26.9769 87.6646 27.3743 87.9576 27.6674C88.2507 27.9604 88.6481 28.125 89.0625 28.125C89.4769 28.125 89.8743 27.9604 90.1674 27.6674C90.4604 27.3743 90.625 26.9769 90.625 26.5625V10.9375C90.625 8.8655 89.8019 6.87836 88.3368 5.41323C86.8716 3.9481 84.8845 3.125 82.8125 3.125C80.7405 3.125 78.7534 3.9481 77.2882 5.41323C75.8231 6.87836 75 8.8655 75 10.9375V59.375C75 59.3969 75.0109 59.4141 75.0125 59.4359C75.0151 59.6138 75.0484 59.7898 75.1109 59.9563ZM81.3703 67.1875H84.2547L82.8125 70.7937L81.3703 67.1875ZM85.5047 64.0625H80.1203L78.8703 60.9375H86.7547L85.5047 64.0625ZM81.25 57.8125H78.125V21.875H81.25V57.8125ZM78.125 18.75V15.625H87.5V18.75H78.125ZM78.125 10.9375C78.125 9.6943 78.6189 8.50201 79.4979 7.62294C80.377 6.74386 81.5693 6.25 82.8125 6.25C84.0557 6.25 85.248 6.74386 86.1271 7.62294C87.0061 8.50201 87.5 9.6943 87.5 10.9375V12.5H78.125V10.9375Z" fill="black"/>
<path d="M37.5006 33.9063V34.6579C36.5872 34.9761 35.7955 35.5706 35.2353 36.359C34.6751 37.1474 34.3741 38.0907 34.3741 39.0579C34.3741 40.0251 34.6751 40.9683 35.2353 41.7567C35.7955 42.5451 36.5872 43.1397 37.5006 43.4579V43.75C37.5035 45.7262 38.1301 47.6511 39.291 49.2503C40.452 50.8495 42.0881 52.0414 43.9662 52.6563C42.2973 54.3336 40.2013 55.5223 37.9053 56.0938L35.5225 56.6907C33.6935 57.1426 32.0935 58.249 31.025 59.8006C29.9566 61.3523 29.4936 63.2417 29.7237 65.1115C29.9539 66.9814 30.8611 68.7021 32.2739 69.9484C33.6868 71.1946 35.5073 71.8801 37.3912 71.875H40.6256C41.04 71.875 41.4374 71.7104 41.7304 71.4174C42.0235 71.1244 42.1881 70.7269 42.1881 70.3125C42.1881 69.8981 42.0235 69.5007 41.7304 69.2077C41.4374 68.9147 41.04 68.75 40.6256 68.75H37.3912C36.2742 68.749 35.196 68.3397 34.3597 67.5992C33.5233 66.8586 32.9865 65.838 32.8502 64.7293C32.7138 63.6206 32.9874 62.5003 33.6194 61.5792C34.2514 60.6581 35.1983 59.9998 36.2818 59.7282L38.6646 59.1329C42.2848 58.2248 45.4769 56.0866 47.6943 53.0844C50.0285 52.878 52.201 51.8056 53.7845 50.0782C55.3679 48.3508 56.2476 46.0934 56.2506 43.75V43.4626C57.1639 43.1444 57.9556 42.5498 58.5159 41.7614C59.0761 40.973 59.3771 40.0297 59.3771 39.0625C59.3771 38.0954 59.0761 37.1521 58.5159 36.3637C57.9556 35.5753 57.1639 34.9807 56.2506 34.6625V33.9063C58.6762 31.7429 60.2748 28.8038 60.7727 25.5919C61.2706 22.3799 60.637 19.0948 58.9803 16.2985C58.7695 15.9415 58.4256 15.6828 58.0242 15.5794C57.6227 15.4759 57.1966 15.5362 56.8396 15.7469C56.4826 15.9576 56.224 16.3016 56.1205 16.703C56.0171 17.1044 56.0774 17.5305 56.2881 17.8875C57.6302 20.1498 58.1085 22.8212 57.6346 25.4085C57.1608 27.9959 55.7667 30.3244 53.71 31.9641C53.5275 32.1106 53.3803 32.2961 53.2792 32.507C53.178 32.718 53.1255 32.9489 53.1256 33.1829V34.375H51.7459L53.1162 22.0469C53.1451 21.7864 53.108 21.5227 53.0083 21.2802C52.9085 21.0378 52.7494 20.8243 52.5455 20.6595C52.3417 20.4947 52.0996 20.3838 51.8416 20.3371C51.5836 20.2904 51.3181 20.3094 51.0693 20.3922L46.8756 21.7907L42.6818 20.3922C42.4331 20.3094 42.1675 20.2904 41.9096 20.3371C41.6516 20.3838 41.4095 20.4947 41.2056 20.6595C41.0018 20.8243 40.8426 21.0378 40.7429 21.2802C40.6432 21.5227 40.606 21.7864 40.635 22.0469L42.0053 34.375H40.6256V33.1875C40.6256 32.9536 40.5731 32.7227 40.472 32.5117C40.3709 32.3008 40.2236 32.1152 40.0412 31.9688C37.8769 30.244 36.4477 27.7622 36.0422 25.0245C35.6368 22.2868 36.2853 19.4972 37.8569 17.2191C39.4284 14.9411 41.8058 13.3442 44.5091 12.7511C47.2123 12.1579 50.0399 12.6127 52.4209 14.0235C52.7779 14.2342 53.204 14.2945 53.6054 14.191C54.0069 14.0876 54.3508 13.8289 54.5615 13.4719C54.7722 13.1149 54.8325 12.6888 54.7291 12.2874C54.6256 11.8859 54.367 11.542 54.01 11.3313C51.0061 9.56284 47.4521 8.97389 44.0383 9.67884C40.6246 10.3838 37.5946 12.3323 35.5369 15.146C33.4792 17.9597 32.5407 21.4377 32.9036 24.9045C33.2665 28.3714 34.9049 31.5797 37.5006 33.9063ZM46.8756 50C45.218 50 43.6283 49.3416 42.4562 48.1695C41.2841 46.9974 40.6256 45.4077 40.6256 43.75H53.1256C53.1256 45.4077 52.4671 46.9974 51.295 48.1695C50.1229 49.3416 48.5332 50 46.8756 50ZM44.0115 24.1297L46.3818 24.9204C46.7023 25.0271 47.0488 25.0271 47.3693 24.9204L49.7396 24.1297L48.6021 34.375H45.1568L44.0115 24.1297ZM43.7506 37.5H54.6881C55.1025 37.5 55.4999 37.6647 55.7929 37.9577C56.086 38.2507 56.2506 38.6481 56.2506 39.0625C56.2506 39.4769 56.086 39.8744 55.7929 40.1674C55.4999 40.4604 55.1025 40.625 54.6881 40.625H39.0631C38.6487 40.625 38.2513 40.4604 37.9582 40.1674C37.6652 39.8744 37.5006 39.4769 37.5006 39.0625C37.5006 38.6481 37.6652 38.2507 37.9582 37.9577C38.2513 37.6647 38.6487 37.5 39.0631 37.5H43.7506Z" fill="black"/>
<path d="M28.125 25C28.9879 25 29.6875 24.3004 29.6875 23.4375C29.6875 22.5746 28.9879 21.875 28.125 21.875C27.2621 21.875 26.5625 22.5746 26.5625 23.4375C26.5625 24.3004 27.2621 25 28.125 25Z" fill="black"/>
<path d="M65.625 25C66.4879 25 67.1875 24.3004 67.1875 23.4375C67.1875 22.5746 66.4879 21.875 65.625 21.875C64.7621 21.875 64.0625 22.5746 64.0625 23.4375C64.0625 24.3004 64.7621 25 65.625 25Z" fill="black"/>
<path d="M46.875 6.25C47.7379 6.25 48.4375 5.55045 48.4375 4.6875C48.4375 3.82456 47.7379 3.125 46.875 3.125C46.0121 3.125 45.3125 3.82456 45.3125 4.6875C45.3125 5.55045 46.0121 6.25 46.875 6.25Z" fill="black"/>
<path d="M29.8554 15.4156C30.1231 15.5702 30.4305 15.6419 30.7389 15.6217C31.0472 15.6015 31.3427 15.4903 31.5879 15.3021C31.8331 15.114 32.0169 14.8574 32.1163 14.5648C32.2156 14.2721 32.226 13.9566 32.146 13.6581C32.066 13.3596 31.8993 13.0915 31.667 12.8878C31.4346 12.684 31.1471 12.5537 30.8407 12.5134C30.5343 12.473 30.2228 12.5245 29.9456 12.6611C29.6685 12.7978 29.4381 13.0136 29.2836 13.2813C29.0764 13.6401 29.0202 14.0666 29.1275 14.4669C29.2347 14.8672 29.4966 15.2084 29.8554 15.4156Z" fill="black"/>
<path d="M62.332 34.1656C62.5996 34.3202 62.9071 34.3919 63.2154 34.3717C63.5238 34.3515 63.8193 34.2403 64.0644 34.0521C64.3096 33.864 64.4935 33.6074 64.5929 33.3148C64.6922 33.0221 64.7025 32.7066 64.6225 32.4081C64.5426 32.1096 64.3759 31.8415 64.1435 31.6378C63.9112 31.434 63.6236 31.3037 63.3172 31.2634C63.0108 31.223 62.6994 31.2745 62.4222 31.4111C62.145 31.5478 61.9146 31.7636 61.7601 32.0313C61.5529 32.3901 61.4968 32.8166 61.604 33.2169C61.7113 33.6172 61.9731 33.9584 62.332 34.1656Z" fill="black"/>
<path d="M56.6603 8.70018C57.4938 8.4767 57.9883 7.61985 57.7648 6.78634C57.5414 5.95284 56.6845 5.45831 55.851 5.68179C55.0175 5.90526 54.523 6.76212 54.7464 7.59562C54.9699 8.42913 55.8268 8.92365 56.6603 8.70018Z" fill="black"/>
<path d="M63.8945 15.4157C64.1622 15.2612 64.378 15.0307 64.5146 14.7536C64.6513 14.4764 64.7028 14.1649 64.6624 13.8586C64.6221 13.5522 64.4918 13.2646 64.288 13.0323C64.0843 12.7999 63.8162 12.6332 63.5177 12.5532C63.2192 12.4733 62.9036 12.4836 62.611 12.5829C62.3184 12.6823 62.0618 12.8662 61.8736 13.1113C61.6855 13.3565 61.5743 13.652 61.5541 13.9604C61.5339 14.2687 61.6056 14.5762 61.7601 14.8438C61.9674 15.2027 62.3086 15.4645 62.7089 15.5718C63.1092 15.679 63.5356 15.6229 63.8945 15.4157Z" fill="black"/>
<path d="M31.9899 32.0313C31.8354 31.7636 31.605 31.5478 31.3278 31.4111C31.0506 31.2745 30.7392 31.223 30.4328 31.2634C30.1264 31.3037 29.8388 31.434 29.6065 31.6378C29.3741 31.8415 29.2074 32.1096 29.1275 32.4081C29.0475 32.7066 29.0578 33.0221 29.1571 33.3148C29.2565 33.6074 29.4404 33.864 29.6856 34.0521C29.9307 34.2403 30.2262 34.3515 30.5346 34.3717C30.8429 34.3919 31.1504 34.3202 31.418 34.1656C31.7769 33.9584 32.0387 33.6172 32.146 33.2169C32.2532 32.8166 32.1971 32.3901 31.9899 32.0313Z" fill="black"/>
<path d="M38.2812 8.55312C38.5489 8.39861 38.7647 8.1682 38.9014 7.89103C39.038 7.61387 39.0895 7.30239 39.0491 6.996C39.0088 6.68961 38.8785 6.40206 38.6747 6.16972C38.471 5.93737 38.2029 5.77067 37.9044 5.69069C37.6059 5.61071 37.2904 5.62104 36.9977 5.72038C36.7051 5.81972 36.4485 6.00361 36.2604 6.24879C36.0722 6.49397 35.961 6.78943 35.9408 7.0978C35.9206 7.40618 35.9923 7.71362 36.1469 7.98125C36.3541 8.34011 36.6953 8.60197 37.0956 8.70922C37.4959 8.81646 37.9224 8.76031 38.2812 8.55312Z" fill="black"/>
<path d="M54.6875 84.375H60.9375C61.3519 84.375 61.7493 84.2104 62.0423 83.9174C62.3354 83.6243 62.5 83.2269 62.5 82.8125V80.1859C63.0304 79.9358 63.5394 79.6426 64.0219 79.3094L66.2937 80.6219C66.6526 80.8291 67.0791 80.8852 67.4794 80.778C67.8796 80.6707 68.2209 80.4089 68.4281 80.05L71.5531 74.6375C71.7603 74.2786 71.8165 73.8521 71.7092 73.4519C71.602 73.0516 71.3401 72.7103 70.9812 72.5031L68.7125 71.1922C68.7375 70.8969 68.75 70.6047 68.75 70.3125C68.75 70.0203 68.7375 69.7281 68.7125 69.4328L70.9812 68.1219C71.3401 67.9147 71.602 67.5734 71.7092 67.1731C71.8165 66.7729 71.7603 66.3464 71.5531 65.9875L68.4281 60.575C68.2209 60.2161 67.8796 59.9543 67.4794 59.847C67.0791 59.7398 66.6526 59.7959 66.2937 60.0031L64.0219 61.3156C63.5394 60.9824 63.0304 60.6892 62.5 60.4391V57.8125C62.5 57.3981 62.3354 57.0007 62.0423 56.7076C61.7493 56.4146 61.3519 56.25 60.9375 56.25H54.6875C54.2731 56.25 53.8757 56.4146 53.5826 56.7076C53.2896 57.0007 53.125 57.3981 53.125 57.8125V60.4391C52.5946 60.6892 52.0856 60.9824 51.6031 61.3156L49.3312 60.0031C48.9724 59.7959 48.5459 59.7398 48.1456 59.847C47.7453 59.9543 47.4041 60.2161 47.1969 60.575L44.0719 65.9875C43.8647 66.3464 43.8085 66.7729 43.9158 67.1731C44.023 67.5734 44.2849 67.9147 44.6437 68.1219L46.9125 69.4328C46.8875 69.7281 46.875 70.0203 46.875 70.3125C46.875 70.6047 46.8875 70.8969 46.9125 71.1922L44.6437 72.5031C44.4646 72.605 44.3074 72.7412 44.1811 72.9041C44.0549 73.067 43.9621 73.2532 43.9081 73.452C43.8541 73.6509 43.84 73.8585 43.8665 74.0628C43.8931 74.2672 43.9598 74.4642 44.0629 74.6427C44.1659 74.8212 44.3032 74.9775 44.4669 75.1026C44.6306 75.2278 44.8174 75.3194 45.0166 75.372C45.2159 75.4247 45.4235 75.4374 45.6277 75.4095C45.8319 75.3816 46.0285 75.3136 46.2062 75.2094L49.375 73.375C49.6546 73.2138 49.8773 72.97 50.0128 72.6771C50.1482 72.3841 50.1896 72.0565 50.1312 71.7391C49.9479 70.7969 49.9479 69.8281 50.1312 68.8859C50.1896 68.5685 50.1482 68.2409 50.0128 67.9479C49.8773 67.655 49.6546 67.4112 49.375 67.25L47.5531 66.1969L49.1156 63.4906L50.9375 64.5437C51.2174 64.7054 51.5404 64.7762 51.8623 64.7465C52.1841 64.7169 52.4888 64.5882 52.7344 64.3781C53.4629 63.7561 54.2998 63.2736 55.2031 62.9547C55.5085 62.8479 55.7733 62.649 55.9608 62.3853C56.1483 62.1217 56.2494 61.8063 56.25 61.4828V59.375H59.375V61.4828C59.3752 61.8056 59.4753 62.1204 59.6617 62.3839C59.848 62.6475 60.1114 62.8469 60.4156 62.9547C61.3189 63.2736 62.1558 63.7561 62.8844 64.3781C63.13 64.5882 63.4347 64.7169 63.7565 64.7465C64.0783 64.7762 64.4014 64.7054 64.6812 64.5437L66.5031 63.4906L68.0656 66.1969L66.25 67.25C65.9704 67.4112 65.7476 67.655 65.6122 67.9479C65.4768 68.2409 65.4354 68.5685 65.4937 68.8859C65.6771 69.8281 65.6771 70.7969 65.4937 71.7391C65.4354 72.0565 65.4768 72.3841 65.6122 72.6771C65.7476 72.97 65.9704 73.2138 66.25 73.375L68.0719 74.4281L66.5094 77.1344L64.6875 76.0813C64.4076 75.9196 64.0845 75.8488 63.7627 75.8785C63.4409 75.9081 63.1362 76.0368 62.8906 76.2469C62.1621 76.8689 61.3252 77.3514 60.4219 77.6703C60.1176 77.7781 59.8542 77.9775 59.6679 78.2411C59.4816 78.5046 59.3814 78.8194 59.3812 79.1422V81.25H56.25V79.1422C56.2498 78.8194 56.1497 78.5046 55.9633 78.2411C55.777 77.9775 55.5136 77.7781 55.2094 77.6703C54.3061 77.3514 53.4692 76.8689 52.7406 76.2469C52.495 76.0368 52.1903 75.9081 51.8685 75.8785C51.5467 75.8488 51.2236 75.9196 50.9437 76.0813L47.7687 77.9156C47.5896 78.0175 47.4324 78.1537 47.3061 78.3166C47.1799 78.4795 47.0871 78.6657 47.0331 78.8645C46.9791 79.0634 46.965 79.271 46.9915 79.4753C47.0181 79.6797 47.0848 79.8767 47.1879 80.0552C47.2909 80.2337 47.4282 80.39 47.5919 80.5151C47.7556 80.6403 47.9424 80.7319 48.1416 80.7845C48.3409 80.8372 48.5485 80.8499 48.7527 80.822C48.9569 80.7941 49.1535 80.7261 49.3312 80.6219L51.6031 79.3094C52.0856 79.6426 52.5946 79.9358 53.125 80.1859V82.8125C53.125 83.2269 53.2896 83.6243 53.5826 83.9174C53.8757 84.2104 54.2731 84.375 54.6875 84.375Z" fill="black"/>
<path d="M62.5 70.3125C62.5 69.3854 62.2251 68.4791 61.71 67.7083C61.1949 66.9374 60.4629 66.3366 59.6063 65.9818C58.7498 65.627 57.8073 65.5342 56.898 65.7151C55.9887 65.8959 55.1535 66.3424 54.4979 66.9979C53.8424 67.6535 53.3959 68.4887 53.2151 69.398C53.0342 70.3073 53.127 71.2498 53.4818 72.1063C53.8366 72.9629 54.4374 73.6949 55.2083 74.21C55.9791 74.7251 56.8854 75 57.8125 75C59.0557 75 60.248 74.5061 61.1271 73.6271C62.0061 72.748 62.5 71.5557 62.5 70.3125ZM56.25 70.3125C56.25 70.0035 56.3416 69.7014 56.5133 69.4444C56.685 69.1875 56.9291 68.9872 57.2146 68.8689C57.5001 68.7507 57.8142 68.7197 58.1173 68.78C58.4204 68.8403 58.6988 68.9891 58.9174 69.2076C59.1359 69.4262 59.2847 69.7046 59.345 70.0077C59.4053 70.3108 59.3743 70.6249 59.2561 70.9104C59.1378 71.196 58.9375 71.44 58.6806 71.6117C58.4236 71.7834 58.1215 71.875 57.8125 71.875C57.3981 71.875 57.0007 71.7104 56.7076 71.4174C56.4146 71.1243 56.25 70.7269 56.25 70.3125Z" fill="black"/>
<path d="M59.375 90.625H78.125C79.7826 90.625 81.3723 89.9665 82.5444 88.7944C83.7165 87.6223 84.375 86.0326 84.375 84.375V81.25C84.375 80.8356 84.2104 80.4382 83.9174 80.1451C83.6243 79.8521 83.2269 79.6875 82.8125 79.6875C82.3981 79.6875 82.0007 79.8521 81.7076 80.1451C81.4146 80.4382 81.25 80.8356 81.25 81.25V84.375C81.25 85.2038 80.9208 85.9987 80.3347 86.5847C79.7487 87.1708 78.9538 87.5 78.125 87.5H59.375C58.9606 87.5 58.5632 87.6646 58.2701 87.9576C57.9771 88.2507 57.8125 88.6481 57.8125 89.0625C57.8125 89.4769 57.9771 89.8743 58.2701 90.1674C58.5632 90.4604 58.9606 90.625 59.375 90.625Z" fill="black"/>
<path d="M31.25 84.375C31.25 85.3021 31.5249 86.2084 32.04 86.9792C32.5551 87.7501 33.2871 88.3509 34.1437 88.7057C35.0002 89.0605 35.9427 89.1533 36.852 88.9724C37.7613 88.7916 38.5965 88.3451 39.2521 87.6896C39.9076 87.034 40.3541 86.1988 40.5349 85.2895C40.7158 84.3802 40.623 83.4377 40.2682 82.5812C39.9134 81.7246 39.3126 80.9926 38.5417 80.4775C37.7709 79.9624 36.8646 79.6875 35.9375 79.6875C34.6943 79.6875 33.502 80.1814 32.6229 81.0604C31.7439 81.9395 31.25 83.1318 31.25 84.375ZM37.5 84.375C37.5 84.684 37.4084 84.9861 37.2367 85.2431C37.065 85.5 36.821 85.7003 36.5354 85.8186C36.2499 85.9368 35.9358 85.9678 35.6327 85.9075C35.3296 85.8472 35.0512 85.6984 34.8326 85.4799C34.6141 85.2613 34.4653 84.9829 34.405 84.6798C34.3447 84.3767 34.3757 84.0626 34.4939 83.7771C34.6122 83.4915 34.8125 83.2475 35.0694 83.0758C35.3264 82.9041 35.6285 82.8125 35.9375 82.8125C36.3519 82.8125 36.7493 82.9771 37.0424 83.2701C37.3354 83.5632 37.5 83.9606 37.5 84.375Z" fill="black"/>
</svg>
