<svg width="100" height="100" viewBox="0 0 100 100" fill="none" xmlns="http://www.w3.org/2000/svg">
<path d="M84.375 62.5V68.75H79.6875H75V62.5H84.375Z" fill="#AAB2BD"/>
<path d="M96.875 56.25V59.375C96.875 61.0938 95.4688 62.5 93.75 62.5H84.375H75H65.625C63.9062 62.5 62.5 61.0938 62.5 59.375V56.25H96.875Z" fill="#CCD1D9"/>
<path d="M82.8125 31.25C90.579 31.25 96.875 24.954 96.875 17.1875C96.875 9.421 90.579 3.125 82.8125 3.125C75.046 3.125 68.75 9.421 68.75 17.1875C68.75 24.954 75.046 31.25 82.8125 31.25Z" fill="#69D6F4"/>
<path d="M96.875 40.625V56.25H62.5V40.625C62.5 38.9062 63.9062 37.5 65.625 37.5H93.75C95.4688 37.5 96.875 38.9062 96.875 40.625Z" fill="#69D6F4"/>
<path d="M25 6.25V9.375H3.125V6.25C3.125 4.53125 4.53125 3.125 6.25 3.125H21.875C23.5938 3.125 25 4.53125 25 6.25Z" fill="#AAB2BD"/>
<path d="M25 31.25V34.375C25 36.0938 23.5938 37.5 21.875 37.5H6.25C4.53125 37.5 3.125 36.0938 3.125 34.375V31.25H25Z" fill="#AAB2BD"/>
<path d="M25 20.3125V31.25H3.125V9.375H25V20.3125Z" fill="#B4DD7F"/>
<path d="M18.75 43.75C27.375 43.75 34.375 50.75 34.375 59.375C34.375 68 27.375 75 18.75 75C10.125 75 3.125 68 3.125 59.375C3.125 50.75 10.125 43.75 18.75 43.75Z" fill="#FFEAA7"/>
<path d="M18.75 68.75C20.4759 68.75 21.875 67.3509 21.875 65.625C21.875 63.8991 20.4759 62.5 18.75 62.5C17.0241 62.5 15.625 63.8991 15.625 65.625C15.625 67.3509 17.0241 68.75 18.75 68.75Z" fill="#FF826E"/>
<path d="M53.125 65.9375C60.25 67.3906 65.625 73.6875 65.625 81.25C65.625 89.875 58.625 96.875 50 96.875C41.375 96.875 34.375 89.875 34.375 81.25C34.375 73.6875 39.75 67.3906 46.875 65.9375V72.4219C43.2344 73.7031 40.625 77.1719 40.625 81.25C40.625 86.4219 44.8281 90.625 50 90.625C55.1719 90.625 59.375 86.4219 59.375 81.25C59.375 77.1719 56.7656 73.7031 53.125 72.4219V65.9375Z" fill="#FF826E"/>
<path d="M53.125 72.4219V78.125C53.125 79.8438 51.7188 81.25 50 81.25C48.2812 81.25 46.875 79.8438 46.875 78.125V72.4219V65.9375V62.5C46.875 60.7812 48.2812 59.375 50 59.375C50.8594 59.375 51.6406 59.7188 52.2031 60.2969C52.7812 60.8594 53.125 61.6406 53.125 62.5V65.9375V72.4219Z" fill="#FC6E51"/>
<path d="M93.75 35.9375H65.625C63.0406 35.9375 60.9375 38.0406 60.9375 40.625V59.375C60.9375 61.9594 63.0406 64.0625 65.625 64.0625H73.4375V67.1875H70.3125V70.3125H78.125V78.125C78.125 78.9859 77.4234 79.6875 76.5625 79.6875H67.1141C66.4688 72.6422 61.5016 66.65 54.6875 64.7203V62.5C54.6875 59.9156 52.5844 57.8125 50 57.8125C47.4156 57.8125 45.3125 59.9156 45.3125 62.5V64.7203C38.4984 66.65 33.5313 72.6437 32.8859 79.6875H21.875C21.0141 79.6875 20.3125 78.9859 20.3125 78.125V76.4828C29.0594 75.6906 35.9375 68.325 35.9375 59.375C35.9375 49.8984 28.2266 42.1875 18.75 42.1875C9.27344 42.1875 1.5625 49.8984 1.5625 59.375C1.5625 68.325 8.44062 75.6906 17.1875 76.4828V78.125C17.1875 80.7094 19.2906 82.8125 21.875 82.8125H32.8922C33.6844 91.5594 41.05 98.4375 50 98.4375C58.95 98.4375 66.3156 91.5594 67.1078 82.8125H76.5625C79.1469 82.8125 81.25 80.7094 81.25 78.125V70.3125H89.0625V67.1875H85.9375V64.0625H93.75C96.3344 64.0625 98.4375 61.9594 98.4375 59.375V40.625C98.4375 38.0406 96.3344 35.9375 93.75 35.9375ZM4.6875 59.375C4.6875 51.6219 10.9969 45.3125 18.75 45.3125C26.5031 45.3125 32.8125 51.6219 32.8125 59.375C32.8125 67.1281 26.5031 73.4375 18.75 73.4375C10.9969 73.4375 4.6875 67.1281 4.6875 59.375ZM50 82.8125C52.5844 82.8125 54.6875 80.7094 54.6875 78.125V75.0156C56.6156 76.4656 57.8125 78.7594 57.8125 81.25C57.8125 85.5578 54.3078 89.0625 50 89.0625C45.6922 89.0625 42.1875 85.5578 42.1875 81.25C42.1875 78.7594 43.3844 76.4656 45.3125 75.0156V78.125C45.3125 80.7094 47.4156 82.8125 50 82.8125ZM48.4375 62.5C48.4375 61.6391 49.1391 60.9375 50 60.9375C50.8609 60.9375 51.5625 61.6391 51.5625 62.5V78.125C51.5625 78.9859 50.8609 79.6875 50 79.6875C49.1391 79.6875 48.4375 78.9859 48.4375 78.125V62.5ZM50 95.3125C42.2469 95.3125 35.9375 89.0031 35.9375 81.25C35.9375 75.2484 39.7844 69.9609 45.3125 68.0031V71.4109C41.5422 73.2094 39.0625 77.0156 39.0625 81.2516C39.0625 87.2828 43.9688 92.1891 50 92.1891C56.0312 92.1891 60.9375 87.2828 60.9375 81.2516C60.9375 77.0172 58.4578 73.2094 54.6875 71.4109V68.0031C60.2156 69.9609 64.0625 75.2484 64.0625 81.25C64.0625 89.0031 57.7531 95.3125 50 95.3125ZM65.625 39.0625H93.75C94.6109 39.0625 95.3125 39.7641 95.3125 40.625V54.6875H64.0625V40.625C64.0625 39.7641 64.7641 39.0625 65.625 39.0625ZM82.8125 67.1875H76.5625V64.0625H82.8125V67.1875ZM93.75 60.9375H65.625C64.7641 60.9375 64.0625 60.2359 64.0625 59.375V57.8125H95.3125V59.375C95.3125 60.2359 94.6109 60.9375 93.75 60.9375Z" fill="black"/>
<path d="M6.25 39.0625H21.875C24.4594 39.0625 26.5625 36.9594 26.5625 34.375V21.875H42.1875C43.0484 21.875 43.75 22.5766 43.75 23.4375V43.75H46.875V23.4375C46.875 20.8531 44.7719 18.75 42.1875 18.75H26.5625V6.25C26.5625 3.66562 24.4594 1.5625 21.875 1.5625H6.25C3.66562 1.5625 1.5625 3.66562 1.5625 6.25V34.375C1.5625 36.9594 3.66562 39.0625 6.25 39.0625ZM21.875 35.9375H6.25C5.38906 35.9375 4.6875 35.2359 4.6875 34.375V32.8125H23.4375V34.375C23.4375 35.2359 22.7359 35.9375 21.875 35.9375ZM4.6875 29.6875V10.9375H23.4375V29.6875H4.6875ZM6.25 4.6875H21.875C22.7359 4.6875 23.4375 5.38906 23.4375 6.25V7.8125H4.6875V6.25C4.6875 5.38906 5.38906 4.6875 6.25 4.6875Z" fill="black"/>
<path d="M23.4375 65.625C23.4375 63.0406 21.3344 60.9375 18.75 60.9375C16.1656 60.9375 14.0625 63.0406 14.0625 65.625C14.0625 68.2094 16.1656 70.3125 18.75 70.3125C21.3344 70.3125 23.4375 68.2094 23.4375 65.625ZM17.1875 65.625C17.1875 64.7641 17.8891 64.0625 18.75 64.0625C19.6109 64.0625 20.3125 64.7641 20.3125 65.625C20.3125 66.4859 19.6109 67.1875 18.75 67.1875C17.8891 67.1875 17.1875 66.4859 17.1875 65.625Z" fill="black"/>
<path d="M24.2754 60.1001L26.4848 57.8907C22.2207 53.6266 15.2816 53.6266 11.0176 57.8907L13.227 60.1001C16.2723 57.0547 21.2285 57.0547 24.2754 60.1001Z" fill="black"/>
<path d="M28.6941 55.6812L30.9035 53.4719C24.202 46.7703 13.2973 46.7703 6.5957 53.4719L8.80508 55.6812C14.291 50.1984 23.2098 50.1984 28.6941 55.6812Z" fill="black"/>
<path d="M43.75 53.125H46.875V56.25H43.75V53.125Z" fill="black"/>
<path d="M43.75 46.875H46.875V50H43.75V46.875Z" fill="black"/>
<path d="M53.125 53.125H56.25V56.25H53.125V53.125Z" fill="black"/>
<path d="M53.125 46.875H56.25V50H53.125V46.875Z" fill="black"/>
<path d="M56.25 20.3125C56.25 19.4516 56.9516 18.75 57.8125 18.75H67.2672C68.0531 26.6344 74.725 32.8125 82.8125 32.8125C91.4281 32.8125 98.4375 25.8031 98.4375 17.1875C98.4375 8.57188 91.4281 1.5625 82.8125 1.5625C74.7234 1.5625 68.0531 7.74062 67.2672 15.625H57.8125C55.2281 15.625 53.125 17.7281 53.125 20.3125V43.75H56.25V20.3125ZM82.8125 4.6875C83.3016 4.6875 84.3484 6.28594 85.0969 9.375H80.5281C81.2766 6.28594 82.3234 4.6875 82.8125 4.6875ZM85.6547 12.5C85.775 13.4594 85.8641 14.4953 85.9062 15.625H79.7156C79.7578 14.4953 79.8484 13.4594 79.9672 12.5H85.6547ZM82.8125 29.6875C82.3234 29.6875 81.2766 28.0891 80.5281 25H85.0969C84.3484 28.0891 83.3016 29.6875 82.8125 29.6875ZM79.9703 21.875C79.85 20.9156 79.7609 19.8797 79.7188 18.75H85.9094C85.8672 19.8797 85.7766 20.9156 85.6578 21.875H79.9703ZM89.0328 18.75H95.2047C95.0672 19.8406 94.7938 20.8891 94.3922 21.875H88.8C88.9156 20.8484 88.9953 19.8016 89.0328 18.75ZM95.2047 15.625H89.0328C88.9953 14.5734 88.9156 13.5266 88.8 12.5H94.3922C94.7922 13.4859 95.0672 14.5344 95.2047 15.625ZM76.5922 15.625H70.4203C70.5578 14.5344 70.8313 13.4859 71.2328 12.5H76.825C76.7094 13.5266 76.6297 14.5734 76.5922 15.625ZM76.5922 18.75C76.6297 19.8016 76.7094 20.8484 76.825 21.875H71.2328C70.8328 20.8891 70.5578 19.8406 70.4203 18.75H76.5922ZM73.0703 25H77.3188C77.6188 26.4359 78.0063 27.7672 78.4937 28.9031C76.3484 28.1094 74.4781 26.7516 73.0703 25ZM87.1312 28.9031C87.6188 27.7672 88.0062 26.4359 88.3062 25H92.5547C91.1469 26.7516 89.2766 28.1094 87.1312 28.9031ZM92.5547 9.375H88.3062C88.0062 7.93906 87.6188 6.60781 87.1312 5.47188C89.2766 6.26562 91.1469 7.62344 92.5547 9.375ZM78.4937 5.47188C78.0063 6.60781 77.6203 7.93906 77.3188 9.375H73.0703C74.4781 7.62344 76.3484 6.26562 78.4937 5.47188Z" fill="black"/>
</svg>
