<svg width="100" height="100" viewBox="0 0 100 100" fill="none" xmlns="http://www.w3.org/2000/svg">
<path d="M45.3125 42.1875V43.75L42.1875 46.875H40.625L32.8125 39.0625L37.5 34.375L45.3125 42.1875Z" fill="#8796C4"/>
<path d="M29.6875 37.5V48.4375L31.25 50H34.375L35.9375 48.4375V37.5H29.6875Z" fill="#8796C4"/>
<path d="M23.4375 43.75L25 45.3125H29.6875L39.0625 35.9375V31.25L37.5 29.6875L23.4375 43.75Z" fill="#A7B3D9"/>
<path d="M12.5 26.5625H28.125L29.4189 27.873L18.7756 39.0881L12.5 32.8125V26.5625Z" fill="#56679C"/>
<path d="M8.06836 48.291L28.1254 26.5625L37.5004 29.6875L8.06836 61.3836V48.291Z" fill="#6D7EB3"/>
<path d="M4.6875 53.125H14.0625V85.9375H4.6875V53.125Z" fill="#6D7EB3"/>
<path d="M10.9375 59.375C14.3893 59.375 17.1875 56.5768 17.1875 53.125C17.1875 49.6732 14.3893 46.875 10.9375 46.875C7.48572 46.875 4.6875 49.6732 4.6875 53.125C4.6875 56.5768 7.48572 59.375 10.9375 59.375Z" fill="#A7B3D9"/>
<path d="M4.6875 85.9375H54.6875V93.75H4.6875V85.9375Z" fill="#6D7EB3"/>
<path d="M14.0625 71.875H42.1875V76.5625L17.1875 85.9375H14.0625V71.875Z" fill="#56679C"/>
<path d="M21.875 65.625H51.5625V71.875H21.875V65.625Z" fill="#A7B3D9"/>
<path d="M4.6875 26.5625H12.5V32.8125H4.6875V26.5625Z" fill="#8796C4"/>
<path d="M84.375 62.5L95.3125 56.25V50L78.125 41.0715L73.4375 43.75V56.25L84.375 62.5Z" fill="#5771E5"/>
<path d="M51.5625 43.75V56.25L62.5 62.5L73.4375 56.25V43.75L62.5 37.5L51.5625 43.75Z" fill="#5771E5"/>
<path d="M73.4375 81.25L84.375 75V62.5L73.4375 56.25L62.5 62.5V75L73.4375 81.25Z" fill="#5771E5"/>
<path d="M76.5625 25C78.2884 25 79.6875 23.6009 79.6875 21.875C79.6875 20.1491 78.2884 18.75 76.5625 18.75C74.8366 18.75 73.4375 20.1491 73.4375 21.875C73.4375 23.6009 74.8366 25 76.5625 25Z" fill="#F7C04A"/>
<path d="M92.1875 20.3125C93.9134 20.3125 95.3125 18.9134 95.3125 17.1875C95.3125 15.4616 93.9134 14.0625 92.1875 14.0625C90.4616 14.0625 89.0625 15.4616 89.0625 17.1875C89.0625 18.9134 90.4616 20.3125 92.1875 20.3125Z" fill="#F7C04A"/>
<path d="M92.1875 39.0625C93.9134 39.0625 95.3125 37.6634 95.3125 35.9375C95.3125 34.2116 93.9134 32.8125 92.1875 32.8125C90.4616 32.8125 89.0625 34.2116 89.0625 35.9375C89.0625 37.6634 90.4616 39.0625 92.1875 39.0625Z" fill="#F7C04A"/>
<path d="M84.375 12.5C86.1009 12.5 87.5 11.1009 87.5 9.375C87.5 7.64911 86.1009 6.25 84.375 6.25C82.6491 6.25 81.25 7.64911 81.25 9.375C81.25 11.1009 82.6491 12.5 84.375 12.5Z" fill="#F7C04A"/>
<path d="M10.9375 54.6875C11.8004 54.6875 12.5 53.9879 12.5 53.125C12.5 52.2621 11.8004 51.5625 10.9375 51.5625C10.0746 51.5625 9.375 52.2621 9.375 53.125C9.375 53.9879 10.0746 54.6875 10.9375 54.6875Z" fill="black"/>
<path d="M54.6875 84.375H25.804L42.7361 78.0254C43.034 77.9138 43.2906 77.7139 43.4718 77.4525C43.6529 77.191 43.75 76.8806 43.75 76.5625V73.4375H51.5625C51.9769 73.4375 52.3743 73.2729 52.6674 72.9799C52.9604 72.6868 53.125 72.2894 53.125 71.875V65.625C53.125 65.2106 52.9604 64.8132 52.6674 64.5201C52.3743 64.2271 51.9769 64.0625 51.5625 64.0625H21.875C21.4606 64.0625 21.0632 64.2271 20.7702 64.5201C20.4771 64.8132 20.3125 65.2106 20.3125 65.625V70.3125H15.625V59.3707C16.7176 58.5544 17.5766 57.4653 18.1158 56.2125C18.6551 54.9597 18.8557 53.5872 18.6975 52.2325L24.0049 46.5168C24.2849 46.7483 24.6368 46.8749 25 46.875H28.125V48.4375C28.125 48.8519 28.2896 49.2494 28.5827 49.5424L30.1452 51.1049C30.4382 51.3979 30.8356 51.5625 31.25 51.5625H34.375C34.7894 51.5625 35.1868 51.3979 35.4798 51.1049L37.0423 49.5424C37.3354 49.2494 37.5 48.8519 37.5 48.4375V45.9598L39.5202 47.9799C39.8132 48.2729 40.2106 48.4375 40.625 48.4375H42.1875C42.6019 48.4375 42.9993 48.2729 43.2923 47.9799L46.4173 44.8549C46.7104 44.5619 46.875 44.1644 46.875 43.75V42.1875C46.875 41.7731 46.7104 41.3756 46.4173 41.0826L40.625 35.2902V31.25C40.625 30.8356 40.4604 30.4381 40.1673 30.1451L38.6048 28.5826L38.6031 28.5843C38.4323 28.4123 38.2238 28.2824 37.9941 28.2051L28.6191 25.0801C28.4596 25.0279 28.2928 25.0018 28.125 25.0029V25H4.6875C4.2731 25 3.87567 25.1646 3.58265 25.4577C3.28963 25.7507 3.125 26.1481 3.125 26.5625V32.8125C3.125 33.2269 3.28963 33.6243 3.58265 33.9173C3.87567 34.2104 4.2731 34.375 4.6875 34.375H11.8528L15.4586 37.9809L8.25185 45.7882C6.74963 46.3402 5.45275 47.3395 4.53604 48.6513C3.61933 49.9632 3.12685 51.5246 3.125 53.125V93.75C3.125 94.1644 3.28963 94.5618 3.58265 94.8549C3.87567 95.1479 4.2731 95.3125 4.6875 95.3125H54.6875C55.1019 95.3125 55.4993 95.1479 55.7924 94.8549C56.0854 94.5618 56.25 94.1644 56.25 93.75V85.9375C56.25 85.5231 56.0854 85.1257 55.7924 84.8326C55.4993 84.5396 55.1019 84.375 54.6875 84.375ZM23.4375 67.1875H50V70.3125H23.4375V67.1875ZM40.625 73.4375V75.4797L16.9044 84.375H15.625V73.4375H40.625ZM12.5 84.375H6.25V59.3707C7.13277 60.0344 8.14633 60.5033 9.22372 60.7463C10.3011 60.9892 11.4178 61.0008 12.5 60.7802V84.375ZM29.0403 43.75H26.5742L37.5 31.9837V35.2903L29.0403 43.75ZM34.375 47.7903L33.7278 48.4375H31.8972L31.25 47.7903V45.9598L34.375 42.8348V47.7903ZM43.75 43.1028L41.5403 45.3125H41.2722L36.5847 40.625L39.0625 38.1473L43.75 42.8347V43.1028ZM28.5885 28.364L34.7038 30.4024L17.5135 48.9152C16.4215 47.2125 14.7133 45.9982 12.7464 45.5262L28.5885 28.364ZM6.25 28.125H10.9375V31.25H6.25V28.125ZM14.0625 32.1652V28.125H24.5564L17.58 35.6827L14.0625 32.1652ZM10.9375 48.4375C11.8646 48.4375 12.7709 48.7124 13.5417 49.2275C14.3126 49.7426 14.9134 50.4746 15.2682 51.3312C15.623 52.1877 15.7158 53.1302 15.5349 54.0395C15.3541 54.9488 14.9076 55.784 14.2521 56.4396C13.5965 57.0951 12.7613 57.5416 11.852 57.7224C10.9427 57.9033 10.0002 57.8105 9.14367 57.4557C8.28714 57.1009 7.55506 56.5001 7.03999 55.7292C6.52492 54.9584 6.25 54.0521 6.25 53.125C6.25142 51.8822 6.74574 50.6908 7.62451 49.812C8.50328 48.9332 9.69473 48.4389 10.9375 48.4375ZM53.125 92.1875H6.25V87.5H53.125V92.1875Z" fill="black"/>
<path d="M85.9375 32.1347L92.9914 27.9024C93.2228 27.7635 93.4143 27.5671 93.5472 27.3323C93.6801 27.0975 93.75 26.8323 93.75 26.5625V21.6062C94.7925 21.2376 95.6712 20.5123 96.2307 19.5586C96.7902 18.6048 96.9945 17.4839 96.8075 16.3941C96.6205 15.3043 96.0543 14.3156 95.2088 13.6029C94.3634 12.8902 93.2933 12.4993 92.1875 12.4993C91.0817 12.4993 90.0116 12.8902 89.1662 13.6029C88.3207 14.3156 87.7545 15.3043 87.5675 16.3941C87.3805 17.4839 87.5848 18.6048 88.1443 19.5586C88.7038 20.5123 89.5825 21.2376 90.625 21.6062V25.6779L85.9375 28.4902V13.7937C86.98 13.4251 87.8587 12.6998 88.4182 11.7461C88.9777 10.7923 89.182 9.67144 88.995 8.5816C88.808 7.49177 88.2418 6.50312 87.3963 5.7904C86.5509 5.07767 85.4808 4.68677 84.375 4.68677C83.2692 4.68677 82.1991 5.07767 81.3537 5.7904C80.5082 6.50312 79.942 7.49177 79.755 8.5816C79.568 9.67144 79.7723 10.7923 80.3318 11.7461C80.8913 12.6998 81.77 13.4251 82.8125 13.7937V34.7402L78.125 31.9278V26.2937C79.1675 25.9251 80.0462 25.1998 80.6057 24.2461C81.1652 23.2923 81.3695 22.1714 81.1825 21.0816C80.9955 19.9918 80.4293 19.0031 79.5838 18.2904C78.7384 17.5777 77.6683 17.1868 76.5625 17.1868C75.4567 17.1868 74.3866 17.5777 73.5412 18.2904C72.6957 19.0031 72.1295 19.9918 71.9425 21.0816C71.7555 22.1714 71.9598 23.2923 72.5193 24.2461C73.0788 25.1998 73.9575 25.9251 75 26.2937V32.8125C75 33.0823 75.0699 33.3475 75.2028 33.5823C75.3357 33.8171 75.5272 34.0135 75.7586 34.1524L82.8125 38.3846V41.7457L78.8453 39.6848C78.6134 39.5644 78.355 39.5041 78.0937 39.5093C77.8325 39.5146 77.5767 39.5852 77.3498 39.7148L73.4375 41.9503L63.2752 36.1433C63.0391 36.0085 62.7719 35.9376 62.5 35.9376C62.2281 35.9376 61.9609 36.0085 61.7248 36.1433L57.0373 38.8218L58.5877 41.5352L62.5 39.2996L71.875 44.6567V55.3431L62.4999 60.7003L53.125 55.3432V44.6567L55.4627 43.321L53.9123 40.6076L50.7873 42.3933C50.5481 42.53 50.3493 42.7274 50.2111 42.9657C50.0728 43.2039 50 43.4745 50 43.75V56.25C50 56.5254 50.0728 56.796 50.2111 57.0343C50.3493 57.2725 50.5481 57.47 50.7873 57.6067L60.9375 63.4068V75C60.9375 75.2754 61.0103 75.546 61.1486 75.7843C61.2868 76.0225 61.4856 76.22 61.7248 76.3567L72.6623 82.6067C72.8984 82.7415 73.1656 82.8125 73.4375 82.8125C73.7094 82.8125 73.9766 82.7415 74.2127 82.6067L85.1502 76.3567C85.3894 76.22 85.5882 76.0225 85.7264 75.7843C85.8647 75.546 85.9375 75.2754 85.9375 75V63.4068L96.0877 57.6067C96.3269 57.47 96.5257 57.2725 96.6639 57.0343C96.8022 56.796 96.875 56.5254 96.875 56.25V50C96.875 49.7139 96.7964 49.4333 96.6479 49.1888C96.4994 48.9443 96.2867 48.7452 96.0328 48.6133L93.75 47.4274V40.3562C94.7925 39.9876 95.6712 39.2623 96.2307 38.3086C96.7902 37.3548 96.9945 36.2339 96.8075 35.1441C96.6205 34.0543 96.0543 33.0656 95.2088 32.3529C94.3634 31.6402 93.2933 31.2493 92.1875 31.2493C91.0817 31.2493 90.0116 31.6402 89.1662 32.3529C88.3207 33.0656 87.7545 34.0543 87.5675 35.1441C87.3805 36.2339 87.5848 37.3548 88.1443 38.3086C88.7038 39.2623 89.5825 39.9876 90.625 40.3562V45.8041L85.9375 43.3691V32.1347ZM92.1875 15.625C92.4965 15.625 92.7986 15.7166 93.0556 15.8883C93.3125 16.06 93.5128 16.304 93.6311 16.5895C93.7493 16.875 93.7803 17.1892 93.72 17.4923C93.6597 17.7954 93.5109 18.0738 93.2924 18.2923C93.0738 18.5109 92.7954 18.6597 92.4923 18.72C92.1892 18.7802 91.8751 18.7493 91.5896 18.631C91.3041 18.5128 91.06 18.3125 90.8883 18.0556C90.7166 17.7986 90.625 17.4965 90.625 17.1875C90.6255 16.7732 90.7902 16.3761 91.0832 16.0831C91.3761 15.7902 91.7732 15.6255 92.1875 15.625ZM76.5625 20.3125C76.8715 20.3125 77.1736 20.4041 77.4306 20.5758C77.6875 20.7475 77.8878 20.9915 78.0061 21.277C78.1243 21.5625 78.1553 21.8767 78.095 22.1798C78.0347 22.4829 77.8859 22.7613 77.6674 22.9798C77.4488 23.1984 77.1704 23.3472 76.8673 23.4075C76.5642 23.4677 76.2501 23.4368 75.9646 23.3185C75.679 23.2003 75.435 23 75.2633 22.7431C75.0916 22.4861 75 22.184 75 21.875C75.0005 21.4607 75.1652 21.0636 75.4582 20.7706C75.7511 20.4777 76.1482 20.313 76.5625 20.3125ZM92.1875 34.375C92.4965 34.375 92.7986 34.4666 93.0556 34.6383C93.3125 34.81 93.5128 35.054 93.6311 35.3395C93.7493 35.625 93.7803 35.9392 93.72 36.2423C93.6597 36.5454 93.5109 36.8238 93.2924 37.0423C93.0738 37.2609 92.7954 37.4097 92.4923 37.47C92.1892 37.5302 91.8751 37.4993 91.5896 37.381C91.3041 37.2628 91.06 37.0625 90.8883 36.8056C90.7166 36.5486 90.625 36.2465 90.625 35.9375C90.6255 35.5232 90.7902 35.1261 91.0832 34.8331C91.3761 34.5402 91.7732 34.3755 92.1875 34.375ZM73.4375 79.4504L64.0625 74.0932V63.4068L73.4375 58.0497L82.8125 63.4068V74.0932L73.4375 79.4504ZM93.75 55.3432L84.3751 60.7003L75 55.3431V44.6567L78.1606 42.8507L93.75 50.9491V55.3432ZM84.375 7.81248C84.684 7.81248 84.9861 7.90412 85.2431 8.07581C85.5 8.2475 85.7003 8.49153 85.8186 8.77704C85.9368 9.06254 85.9678 9.37671 85.9075 9.67981C85.8472 9.9829 85.6984 10.2613 85.4799 10.4798C85.2613 10.6984 84.9829 10.8472 84.6798 10.9075C84.3767 10.9677 84.0626 10.9368 83.7771 10.8185C83.4916 10.7003 83.2475 10.5 83.0758 10.2431C82.9041 9.9861 82.8125 9.68401 82.8125 9.37498C82.813 8.96072 82.9777 8.56357 83.2707 8.27065C83.5636 7.97772 83.9607 7.81295 84.375 7.81248Z" fill="black"/>
</svg>
