<svg width="100" height="100" viewBox="0 0 100 100" fill="none" xmlns="http://www.w3.org/2000/svg">
<g clip-path="url(#clip0_559_579)">
<path d="M17.1875 18.75V28.125H14.0625H10.9375C9.21875 28.125 7.8125 26.7188 7.8125 25V18.75H17.1875Z" fill="#AAC348"/>
<path d="M17.1875 25V28.125H10.9375C9.21875 28.125 7.8125 26.7188 7.8125 25H17.1875Z" fill="#879A39"/>
<path d="M98.4375 98.4375H67.1875L65.4531 96.7031L70.3125 90.625H73.4375L76.5625 87.5H81.25H84.375L89.0625 92.1875H92.1875L98.4375 98.4375Z" fill="#CC8964"/>
<path d="M65.4531 96.7031L64.0625 98.4375H37.5L34.8906 95.8281L39.0625 90.625H42.1875L45.3125 87.5H50H53.125L57.8125 92.1875H60.9375L65.4531 96.7031Z" fill="#CC8964"/>
<path d="M64.5781 95.8281L62.5 98.4375H32.8125L35.3125 95.3125H48.8313C49.5703 95.3125 50.2687 94.9766 50.7297 94.3984C51.4984 93.4328 51.4203 92.0437 50.5469 91.1719L49.1484 89.7734C48.6937 89.3188 48.0766 89.0625 47.4328 89.0625H45.3125L44.5312 88.2812L45.3125 87.5H53.125L57.8125 92.1875H60.9375L64.5781 95.8281Z" fill="#9A4738"/>
<path d="M95.8281 95.8281L93.75 98.4375H64.0625L66.5625 95.3125H80.0812C80.8203 95.3125 81.5187 94.9766 81.9797 94.3984C82.7484 93.4328 82.6703 92.0437 81.7969 91.1719L80.3984 89.7734C79.9438 89.3188 79.3266 89.0625 78.6828 89.0625H76.5625L75.7812 88.2812L76.5625 87.5H84.375L89.0625 92.1875H92.1875L95.8281 95.8281Z" fill="#9A4738"/>
<path d="M12.5 90.625L15.625 87.5H18.75H23.4375L28.125 92.1875H31.25L34.8906 95.8281L32.8125 98.4375H3.125L9.375 90.625H12.5Z" fill="#CC8964"/>
<path d="M34.8906 95.8281L32.8125 98.4375H3.125L5.625 95.3125H19.1437C19.8828 95.3125 20.5812 94.9766 21.0422 94.3984C21.8109 93.4328 21.7328 92.0437 20.8594 91.1719L19.4609 89.7734C19.0062 89.3188 18.3891 89.0625 17.7453 89.0625H15.625L14.8438 88.2812L15.625 87.5H23.4375L28.125 92.1875H31.25L34.8906 95.8281Z" fill="#9A4738"/>
<path d="M90.625 71.875H95.3125C95.3125 71.875 92.1875 89.0625 81.25 78.125C81.25 78.125 82.8125 71.875 90.625 71.875Z" fill="#AAC348"/>
<path d="M71.875 71.875C79.6875 71.875 81.25 78.125 81.25 78.125C70.3125 89.0625 67.1875 71.875 67.1875 71.875H71.875Z" fill="#AAC348"/>
<path d="M59.375 71.875H64.0625C64.0625 71.875 60.9375 89.0625 50 78.125C50 78.125 51.5625 71.875 59.375 71.875Z" fill="#AAC348"/>
<path d="M40.625 71.875C48.4375 71.875 50 78.125 50 78.125C39.0625 89.0625 35.9375 71.875 35.9375 71.875H40.625Z" fill="#AAC348"/>
<path d="M28.125 71.875H32.8125C32.8125 71.875 29.6875 89.0625 18.75 78.125C18.75 78.125 20.3125 71.875 28.125 71.875Z" fill="#AAC348"/>
<path d="M9.375 71.875C17.1875 71.875 18.75 78.125 18.75 78.125C7.8125 89.0625 4.6875 71.875 4.6875 71.875H9.375Z" fill="#AAC348"/>
<path d="M18.75 78.125C7.8125 89.0625 4.6875 71.875 4.6875 71.875C4.6875 71.875 12.5 79.6875 18.75 78.125Z" fill="#879A39"/>
<path d="M50 78.125C39.0625 89.0625 35.9375 71.875 35.9375 71.875C35.9375 71.875 43.75 79.6875 50 78.125Z" fill="#879A39"/>
<path d="M50 78.125C60.9375 89.0625 64.0625 71.875 64.0625 71.875C64.0625 71.875 56.25 79.6875 50 78.125Z" fill="#879A39"/>
<path d="M18.75 78.125C29.6875 89.0625 32.8125 71.875 32.8125 71.875C32.8125 71.875 25 79.6875 18.75 78.125Z" fill="#879A39"/>
<path d="M81.25 78.125C92.1875 89.0625 95.3125 71.875 95.3125 71.875C95.3125 71.875 87.5 79.6875 81.25 78.125Z" fill="#879A39"/>
<path d="M81.25 78.125C70.3125 89.0625 67.1875 71.875 67.1875 71.875C67.1875 71.875 75 79.6875 81.25 78.125Z" fill="#879A39"/>
<path d="M45.3125 40.625H54.6875V45.3125H45.3125V40.625Z" fill="#85DDFF"/>
<path d="M70.3125 10.9375H29.6875C29.6875 7.48438 32.4844 4.6875 35.9375 4.6875H64.0625C67.5156 4.6875 70.3125 7.48438 70.3125 10.9375Z" fill="#EAEAEA"/>
<path d="M70.3125 10.9375V18.75H64.0625H35.9375H29.6875V10.9375H70.3125Z" fill="#85DDFF"/>
<path d="M59.375 10.9375V7.8125C59.375 6.67188 59.0625 5.60937 58.5312 4.6875H64.0625C67.5156 4.6875 70.3125 7.48438 70.3125 10.9375H59.375Z" fill="#B8B8B7"/>
<path d="M70.3125 10.9375V18.75H29.6875V15.625H54.6875C57.2766 15.625 59.375 13.5266 59.375 10.9375H70.3125Z" fill="#52A3BC"/>
<path d="M61.3281 37.9375C61.0938 39.4844 59.7813 40.625 58.2344 40.625H54.6875H45.3125H41.7656C40.2187 40.625 38.9062 39.4844 38.6719 37.9375L38.1719 34.375H50H61.8281L61.3281 37.9375Z" fill="#585858"/>
<path d="M12.5 12.5L17.1875 18.75H7.8125V12.5H9.375H12.5Z" fill="#686868"/>
<path d="M90.625 12.5H92.1875V18.75H82.8125L87.5 12.5H90.625Z" fill="#686868"/>
<path d="M92.1875 18.75V25C92.1875 26.7188 90.7812 28.125 89.0625 28.125H85.9375H82.8125V18.75H92.1875Z" fill="#879A39"/>
<path d="M38.1719 34.375H29.6875C27.9688 34.375 26.5625 32.9688 26.5625 31.25C26.5625 30.3906 26.2188 29.6094 25.6406 29.0469C25.0781 28.4688 24.2969 28.125 23.4375 28.125H21.875H17.1875V18.75H26.5625H29.6875H35.9375L38.1719 34.375Z" fill="#EAEAEA"/>
<path d="M73.4375 18.75H82.8125V28.125H78.125H76.5625C74.8438 28.125 73.4375 29.5312 73.4375 31.25C73.4375 32.1094 73.0938 32.8906 72.5156 33.4531C71.9531 34.0312 71.1719 34.375 70.3125 34.375H61.8281L64.0625 18.75H70.3125H73.4375Z" fill="#EAEAEA"/>
<path d="M64.0625 18.75L61.8281 34.375H50H38.1719L35.9375 18.75H64.0625Z" fill="#686868"/>
<path d="M38.1719 34.375H29.6875C27.9688 34.375 26.5625 32.9688 26.5625 31.25C26.5625 30.3906 26.2188 29.6094 25.6406 29.0469C25.0781 28.4688 24.2969 28.125 23.4375 28.125H17.1875V25H36.8281L38.1719 34.375Z" fill="#B8B8B7"/>
<path d="M82.8125 18.75V28.125H76.5625C74.8438 28.125 73.4375 29.5312 73.4375 31.25C73.4375 32.1094 73.0938 32.8906 72.5156 33.4531C71.9531 34.0312 71.1719 34.375 70.3125 34.375H61.8281L63.1719 25H67.1875C70.6406 25 73.4375 22.2031 73.4375 18.75H82.8125Z" fill="#B8B8B7"/>
<path d="M63.1719 25L61.8281 34.375H38.1719L36.8281 25H63.1719Z" fill="#585858"/>
<path d="M34.7664 13.8672C33.7617 13.8672 33.7586 15.4297 34.7664 15.4297C35.7711 15.4297 35.7742 13.8672 34.7664 13.8672Z" fill="white"/>
<path d="M39.3543 13.9656H37.7918C36.7871 13.9656 36.784 15.5281 37.7918 15.5281H39.3543C40.3605 15.5281 40.3621 13.9656 39.3543 13.9656Z" fill="white"/>
<path d="M50 71.875C50.8629 71.875 51.5625 71.1754 51.5625 70.3125C51.5625 69.4496 50.8629 68.75 50 68.75C49.1371 68.75 48.4375 69.4496 48.4375 70.3125C48.4375 71.1754 49.1371 71.875 50 71.875Z" fill="black"/>
<path d="M34.4238 53.9062C35.2868 53.9062 35.9863 53.2067 35.9863 52.3438C35.9863 51.4808 35.2868 50.7812 34.4238 50.7812C33.5609 50.7812 32.8613 51.4808 32.8613 52.3438C32.8613 53.2067 33.5609 53.9062 34.4238 53.9062Z" fill="black"/>
<path d="M28.2227 54.6875C29.0856 54.6875 29.7852 53.9879 29.7852 53.125C29.7852 52.2621 29.0856 51.5625 28.2227 51.5625C27.3597 51.5625 26.6602 52.2621 26.6602 53.125C26.6602 53.9879 27.3597 54.6875 28.2227 54.6875Z" fill="black"/>
<path d="M22.0215 55.4688C22.8844 55.4688 23.584 54.7692 23.584 53.9062C23.584 53.0433 22.8844 52.3438 22.0215 52.3438C21.1585 52.3438 20.459 53.0433 20.459 53.9062C20.459 54.7692 21.1585 55.4688 22.0215 55.4688Z" fill="black"/>
<path d="M65.5762 53.9062C66.4391 53.9062 67.1387 53.2067 67.1387 52.3438C67.1387 51.4808 66.4391 50.7812 65.5762 50.7812C64.7132 50.7812 64.0137 51.4808 64.0137 52.3438C64.0137 53.2067 64.7132 53.9062 65.5762 53.9062Z" fill="black"/>
<path d="M71.7754 54.6875C72.6383 54.6875 73.3379 53.9879 73.3379 53.125C73.3379 52.2621 72.6383 51.5625 71.7754 51.5625C70.9124 51.5625 70.2129 52.2621 70.2129 53.125C70.2129 53.9879 70.9124 54.6875 71.7754 54.6875Z" fill="black"/>
<path d="M77.9785 55.4688C78.8415 55.4688 79.541 54.7692 79.541 53.9062C79.541 53.0433 78.8415 52.3438 77.9785 52.3438C77.1156 52.3438 76.416 53.0433 76.416 53.9062C76.416 54.7692 77.1156 55.4688 77.9785 55.4688Z" fill="black"/>
<path d="M30.4922 66.3828C31.3551 66.3828 32.0547 65.6833 32.0547 64.8203C32.0547 63.9574 31.3551 63.2578 30.4922 63.2578C29.6292 63.2578 28.9297 63.9574 28.9297 64.8203C28.9297 65.6833 29.6292 66.3828 30.4922 66.3828Z" fill="black"/>
<path d="M69.5078 66.3828C70.3708 66.3828 71.0703 65.6833 71.0703 64.8203C71.0703 63.9574 70.3708 63.2578 69.5078 63.2578C68.6449 63.2578 67.9453 63.9574 67.9453 64.8203C67.9453 65.6833 68.6449 66.3828 69.5078 66.3828Z" fill="black"/>
<path d="M98.4375 96.875H96.2781L93.5844 91.4891C93.3203 90.9594 92.7797 90.625 92.1875 90.625H89.7094L85.4797 86.3953C85.1875 86.1016 84.7891 85.9375 84.375 85.9375H82.8125V81.4844C84.5703 82.7047 86.2594 83.3328 87.8656 83.3328C88.4953 83.3328 89.1109 83.2375 89.7141 83.05C95.0266 81.3906 96.6797 73.0953 96.85 72.1547C96.9328 71.6984 96.8094 71.2297 96.5125 70.875C96.2156 70.5203 95.775 70.3125 95.3125 70.3125H90.625C85.8484 70.3125 82.8859 72.4859 81.25 74.6938C79.6141 72.4859 76.6516 70.3125 71.875 70.3125C71.0125 70.3125 70.3125 71.0125 70.3125 71.875C70.3125 72.7375 71.0125 73.4375 71.875 73.4375C76.7891 73.4375 78.75 76.275 79.4266 77.7062C77.7375 79.2375 75.5703 80.6438 73.7219 80.0672C70.7297 79.1359 69.1 73.6344 68.725 71.5937C68.5687 70.7453 67.7531 70.1906 66.9062 70.3375C66.0578 70.4937 65.4953 71.3047 65.65 72.1531C65.8203 73.0938 67.4734 81.3891 72.7859 83.0484C73.3891 83.2359 74.0047 83.3313 74.6344 83.3313C76.2406 83.3313 77.9297 82.7031 79.6875 81.4828V85.9375H76.5625C76.1484 85.9375 75.75 86.1016 75.4578 86.3953L72.7906 89.0625H70.3125C69.8984 89.0625 69.5 89.2266 69.2078 89.5203L67.6453 91.0828C67.0344 91.6937 67.0344 92.6813 67.6453 93.2922C68.2562 93.9031 69.2438 93.9031 69.8547 93.2922L70.9594 92.1875H73.4375C73.8516 92.1875 74.25 92.0234 74.5422 91.7297L77.2094 89.0625H83.7281L87.9578 93.2922C88.25 93.5859 88.6484 93.75 89.0625 93.75H91.2219L92.7844 96.875H67.8344L62.0422 91.0828C61.75 90.7891 61.3516 90.625 60.9375 90.625H58.4594L54.2297 86.3953C53.9375 86.1016 53.5391 85.9375 53.125 85.9375H51.5625V81.4844C53.3203 82.7047 55.0094 83.3328 56.6156 83.3328C57.2453 83.3328 57.8609 83.2375 58.4641 83.05C63.7766 81.3906 65.4297 73.0953 65.6 72.1547C65.6828 71.6984 65.5594 71.2297 65.2625 70.875C64.9656 70.5203 64.525 70.3125 64.0625 70.3125H59.375C54.5984 70.3125 51.6359 72.4859 50 74.6938C48.3641 72.4859 45.4016 70.3125 40.625 70.3125C39.7625 70.3125 39.0625 71.0125 39.0625 71.875C39.0625 72.7375 39.7625 73.4375 40.625 73.4375C45.5391 73.4375 47.5 76.275 48.1766 77.7062C46.4875 79.2375 44.3203 80.6438 42.4719 80.0672C39.4797 79.1359 37.85 73.6344 37.475 71.5937C37.3187 70.7453 36.5047 70.1906 35.6562 70.3375C34.8078 70.4937 34.2453 71.3047 34.4 72.1531C34.5703 73.0938 36.2234 81.3891 41.5359 83.0484C42.1391 83.2359 42.7547 83.3313 43.3844 83.3313C44.9906 83.3313 46.6797 82.7031 48.4375 81.4828V85.9375H45.3125C44.8984 85.9375 44.5 86.1016 44.2078 86.3953L41.5406 89.0625H39.0625C38.5875 89.0625 38.1391 89.2781 37.8422 89.6484L36.5922 91.2109C36.0531 91.8844 36.1625 92.8687 36.8359 93.4062C37.5078 93.9437 38.4922 93.8359 39.0312 93.1625L39.8125 92.1875H42.1875C42.6016 92.1875 43 92.0234 43.2922 91.7297L45.9594 89.0625H52.4781L56.7078 93.2922C57 93.5859 57.3984 93.75 57.8125 93.75H60.2906L63.4156 96.875H38.1469L32.3547 91.0828C32.0625 90.7891 31.6641 90.625 31.25 90.625H28.7719L24.5422 86.3953C24.25 86.1016 23.8516 85.9375 23.4375 85.9375H20.3125V81.4844C22.0703 82.7047 23.7594 83.3328 25.3656 83.3328C25.9953 83.3328 26.6109 83.2375 27.2141 83.05C32.5266 81.3906 34.1797 73.0953 34.35 72.1547C34.4328 71.6984 34.3094 71.2297 34.0125 70.875C33.7156 70.5203 33.275 70.3125 32.8125 70.3125H28.125C23.3484 70.3125 20.3859 72.4859 18.75 74.6938C17.1141 72.4859 14.1516 70.3125 9.375 70.3125C8.5125 70.3125 7.8125 71.0125 7.8125 71.875C7.8125 72.7375 8.5125 73.4375 9.375 73.4375C14.2891 73.4375 16.25 76.275 16.9266 77.7062C15.2375 79.2375 13.0703 80.6438 11.2219 80.0672C8.22969 79.1359 6.6 73.6344 6.225 71.5937C6.06875 70.7453 5.25469 70.1906 4.40625 70.3375C3.55781 70.4937 2.99531 71.3047 3.15 72.1531C3.32031 73.0938 4.97344 81.3891 10.2859 83.0484C10.8891 83.2359 11.5047 83.3313 12.1344 83.3313C13.7406 83.3313 15.4297 82.7031 17.1875 81.4828V85.9375H15.625C15.2109 85.9375 14.8125 86.1016 14.5203 86.3953L11.8531 89.0625H9.375C8.9 89.0625 8.45156 89.2781 8.15469 89.6484L5.65469 92.7734C5.11562 93.4469 5.225 94.4312 5.89844 94.9687C6.57031 95.5078 7.55625 95.4 8.09375 94.725L10.125 92.1875H12.5C12.9141 92.1875 13.3125 92.0234 13.6047 91.7297L16.2719 89.0625H22.7906L27.0203 93.2922C27.3125 93.5859 27.7109 93.75 28.125 93.75H30.6031L33.7281 96.875H1.5625C0.7 96.875 0 97.575 0 98.4375C0 99.3 0.7 100 1.5625 100H98.4375C99.3 100 100 99.3 100 98.4375C100 97.575 99.3 96.875 98.4375 96.875ZM90.625 73.4375H93.3219C92.5859 75.9094 91.0875 79.3484 88.7797 80.0672C86.9313 80.6438 84.7641 79.2391 83.0766 77.7062C83.7531 76.2797 85.7188 73.4375 90.625 73.4375ZM59.375 73.4375H62.0719C61.3359 75.9094 59.8375 79.3484 57.5297 80.0672C55.6813 80.6438 53.5141 79.2391 51.8266 77.7062C52.5031 76.2797 54.4688 73.4375 59.375 73.4375ZM28.125 73.4375H30.8219C30.0859 75.9094 28.5875 79.3484 26.2797 80.0672C24.4312 80.6438 22.2641 79.2391 20.5766 77.7062C21.2531 76.2797 23.2188 73.4375 28.125 73.4375Z" fill="black"/>
<path d="M1.5625 7.8125H4.6875C5.55 7.8125 6.25 7.1125 6.25 6.25C6.25 5.3875 5.55 4.6875 4.6875 4.6875H1.5625C0.7 4.6875 0 5.3875 0 6.25C0 7.1125 0.7 7.8125 1.5625 7.8125Z" fill="black"/>
<path d="M82.8125 7.8125H85.9375C86.8 7.8125 87.5 7.1125 87.5 6.25C87.5 5.3875 86.8 4.6875 85.9375 4.6875H82.8125C81.95 4.6875 81.25 5.3875 81.25 6.25C81.25 7.1125 81.95 7.8125 82.8125 7.8125Z" fill="black"/>
<path d="M98.4375 4.6875H92.1875V1.5625C92.1875 0.7 91.4875 0 90.625 0C89.7625 0 89.0625 0.7 89.0625 1.5625V10.9375H87.5C87.0078 10.9375 86.5453 11.1687 86.25 11.5625L82.0312 17.1875H71.875V10.9375C71.875 6.62969 68.3703 3.125 64.0625 3.125H35.9375C31.6297 3.125 28.125 6.62969 28.125 10.9375V14.0625C28.125 14.925 28.825 15.625 29.6875 15.625C30.55 15.625 31.25 14.925 31.25 14.0625V12.5H68.75V17.1875H64.0625H35.9375H17.9688L13.75 11.5625C13.4547 11.1687 12.9922 10.9375 12.5 10.9375H10.9375V7.8125H17.1875C18.05 7.8125 18.75 7.1125 18.75 6.25C18.75 5.3875 18.05 4.6875 17.1875 4.6875H10.9375V1.5625C10.9375 0.7 10.2375 0 9.375 0C8.5125 0 7.8125 0.7 7.8125 1.5625V10.9375C6.95 10.9375 6.25 11.6375 6.25 12.5V18.75V25C6.25 27.0344 7.56094 28.7531 9.375 29.4V32.8125C9.375 33.675 10.075 34.375 10.9375 34.375H14.0625C14.925 34.375 15.625 33.675 15.625 32.8125V29.6875H19.9281L17.225 41.8484C17.0375 42.6906 17.5688 43.525 18.4109 43.7125C18.525 43.7375 18.6391 43.75 18.7516 43.75C19.4672 43.75 20.1141 43.2547 20.275 42.5266L23.1281 29.6875H23.4375C24.2984 29.6875 25 30.3891 25 31.25C25 33.8344 27.1031 35.9375 29.6875 35.9375H32.8125C33.675 35.9375 34.375 35.2375 34.375 34.375C34.375 33.5125 33.675 32.8125 32.8125 32.8125H29.6875C28.8266 32.8125 28.125 32.1109 28.125 31.25C28.125 28.6656 26.0219 26.5625 23.4375 26.5625H18.75V20.3125H34.5828L37.1328 38.1625C37.4609 40.4578 39.4547 42.1875 41.7719 42.1875H43.75V45.3125C43.75 46.175 44.45 46.875 45.3125 46.875H54.6875C55.55 46.875 56.25 46.175 56.25 45.3125V42.1875H58.2281C60.5453 42.1875 62.5406 40.4578 62.8672 38.1625L65.4172 20.3125H81.25V26.5625H76.5625C73.9781 26.5625 71.875 28.6656 71.875 31.25C71.875 32.1109 71.1734 32.8125 70.3125 32.8125H67.1875C66.325 32.8125 65.625 33.5125 65.625 34.375C65.625 35.2375 66.325 35.9375 67.1875 35.9375H70.3125C72.8969 35.9375 75 33.8344 75 31.25C75 30.3891 75.7016 29.6875 76.5625 29.6875H76.8719L79.725 42.5266C79.8859 43.2547 80.5328 43.75 81.2484 43.75C81.3609 43.75 81.475 43.7375 81.5891 43.7125C82.4313 43.525 82.9625 42.6906 82.775 41.8484L80.0719 29.6875H84.375V32.8125C84.375 33.675 85.075 34.375 85.9375 34.375H89.0625C89.925 34.375 90.625 33.675 90.625 32.8125V29.4C92.4391 28.7531 93.75 27.0344 93.75 25V18.75V12.5C93.75 11.6375 93.05 10.9375 92.1875 10.9375V7.8125H98.4375C99.3 7.8125 100 7.1125 100 6.25C100 5.3875 99.3 4.6875 98.4375 4.6875ZM35.9375 6.25H64.0625C66.0969 6.25 67.8156 7.56094 68.4625 9.375H31.5375C32.1844 7.56094 33.9031 6.25 35.9375 6.25ZM88.2812 14.0625H90.625V17.1875H85.9375L88.2812 14.0625ZM14.0625 17.1875H9.375V14.0625H11.7188L14.0625 17.1875ZM14.0625 26.5625H10.9375C10.0766 26.5625 9.375 25.8609 9.375 25V20.3125H15.625V26.5625H14.0625ZM53.125 43.75H46.875V42.1875H53.125V43.75ZM58.2281 39.0625H54.6875H45.3125H41.7719C41 39.0625 40.3359 38.4859 40.225 37.7203L39.9719 35.9375H60.0297L59.775 37.7219C59.6641 38.4859 59 39.0625 58.2281 39.0625ZM60.475 32.8125H39.525L37.7391 20.3125H62.2609L60.475 32.8125ZM90.625 25C90.625 25.8609 89.9234 26.5625 89.0625 26.5625H85.9375H84.375V20.3125H90.625V25Z" fill="black"/>
<path d="M65.0895 61.9641C65.4895 61.9641 65.8895 61.811 66.1941 61.5063C66.8051 60.8953 66.8051 59.9078 66.1941 59.2969L57.3551 50.4578C56.7441 49.8469 55.7566 49.8469 55.1457 50.4578C54.5348 51.0688 54.5348 52.0563 55.1457 52.6672L63.9848 61.5063C64.2895 61.811 64.6895 61.9641 65.0895 61.9641Z" fill="black"/>
<path d="M36.0152 61.5063L44.8543 52.6672C45.4652 52.0563 45.4652 51.0688 44.8543 50.4578C44.2434 49.8469 43.2559 49.8469 42.6449 50.4578L33.8059 59.2969C33.1949 59.9078 33.1949 60.8953 33.8059 61.5063C34.1105 61.811 34.5105 61.9641 34.9105 61.9641C35.3105 61.9641 35.7105 61.811 36.0152 61.5063Z" fill="black"/>
<path d="M51.5625 64.0625V51.5625C51.5625 50.7 50.8625 50 50 50C49.1375 50 48.4375 50.7 48.4375 51.5625V64.0625C48.4375 64.925 49.1375 65.625 50 65.625C50.8625 65.625 51.5625 64.925 51.5625 64.0625Z" fill="black"/>
</g>
<defs>
<clipPath id="clip0_559_579">
<rect width="100" height="100" fill="white"/>
</clipPath>
</defs>
</svg>
