<svg width="100" height="100" viewBox="0 0 100 100" fill="none" xmlns="http://www.w3.org/2000/svg">
<path d="M95.7246 35.9926L75.4121 30.4529L74.5898 33.4676L87.21 36.9096L85.9852 41.8086L89.0168 42.5664L90.2254 37.7318L93.4266 38.6049L92.2352 43.3705L95.2668 44.1283L96.8293 37.8783C96.9282 37.482 96.868 37.0627 96.6615 36.7102C96.455 36.3577 96.1187 36.1001 95.7246 35.9926Z" fill="#045F9C"/>
<path d="M31.25 24.8211H39.0625V33.75H31.25V24.8211Z" fill="#EFD66A"/>
<path d="M70.3133 21.4174H49.7246L53.1258 7.8125H70.3133V21.4174Z" fill="#2993CE"/>
<path d="M40.625 23.4375H37.5V4.6875C37.5 4.2731 37.6646 3.87567 37.9576 3.58265C38.2507 3.28962 38.6481 3.125 39.0625 3.125H43.75V6.25H40.625V23.4375Z" fill="#0A4566"/>
<path d="M70.3125 39.0625H29.6875V34.375L37.5 31.25V26.5625H31.25V24.8211C31.25 23.6253 31.725 22.4786 32.5705 21.633C33.4161 20.7875 34.5628 20.3125 35.7586 20.3125H70.3125V39.0625Z" fill="#DD1C4B"/>
<path d="M4.6875 46.875H95.3125V95.3125H4.6875V46.875Z" fill="#FEAC4F"/>
<path d="M37.5 46.875C40.0888 46.875 42.1875 44.7763 42.1875 42.1875C42.1875 39.5987 40.0888 37.5 37.5 37.5C34.9112 37.5 32.8125 39.5987 32.8125 42.1875C32.8125 44.7763 34.9112 46.875 37.5 46.875Z" fill="#0A4566"/>
<path d="M37.5 43.75C38.3629 43.75 39.0625 43.0504 39.0625 42.1875C39.0625 41.3246 38.3629 40.625 37.5 40.625C36.6371 40.625 35.9375 41.3246 35.9375 42.1875C35.9375 43.0504 36.6371 43.75 37.5 43.75Z" fill="#2993CE"/>
<path d="M35.9375 95.3125L42.1875 46.875H31.25L18.75 95.3125H35.9375Z" fill="#D68029"/>
<path d="M39.0625 95.3125L45.3125 46.875H34.375L21.875 95.3125H39.0625Z" fill="#66AF8D"/>
<path d="M75 95.3125L62.5 46.875H51.5625L57.8125 95.3125H75Z" fill="#D68029"/>
<path d="M78.125 95.3125L65.625 46.875H54.6875L60.9375 95.3125H78.125Z" fill="#66AF8D"/>
<path d="M68.0242 21.875C66.2728 21.875 64.5386 22.22 62.9205 22.8902C61.3024 23.5604 59.8322 24.5428 58.5938 25.7812C57.3553 27.0197 56.3729 28.4899 55.7027 30.108C55.0325 31.7261 54.6875 33.4603 54.6875 35.2117V39.0625H70.3125V21.875H68.0242Z" fill="#89103C"/>
<path d="M42.1875 26.5625H45.3125V31.25H42.1875V26.5625Z" fill="#AF1E4B"/>
<path d="M56.25 39.0625H53.125V35.2117C53.125 31.2602 54.6947 27.4705 57.4889 24.6764C60.283 21.8822 64.0727 20.3125 68.0242 20.3125H78.125V23.4375H68.0242C64.9015 23.4376 61.9067 24.6781 59.6986 26.8861C57.4906 29.0942 56.2501 32.089 56.25 35.2117V39.0625Z" fill="#C3E0ED"/>
<path d="M48.4375 26.5625H51.5625V31.25H48.4375V26.5625Z" fill="#AF1E4B"/>
<path d="M62.0424 16.0826L55.7924 9.83264L53.5826 12.0424L55.6027 14.0625L50.2158 19.4494L50 20.3125H53.7723L57.8125 16.2723L59.8326 18.2924L62.0424 16.0826Z" fill="#89103C"/>
<path d="M35.9375 9.375H42.1875V15.625H35.9375V9.375Z" fill="#045F9C"/>
<path d="M4.6875 57.8125L12.5 46.875H21.875L4.6875 92.1875V57.8125Z" fill="#66AF8D"/>
<path d="M95.3998 62.3098L84.375 46.875H75L93.3729 95.3125H95.3125L95.3998 62.3098Z" fill="#D68029"/>
<path d="M95.3125 57.8125L87.5 46.875H78.125L95.3125 92.1875V57.8125Z" fill="#66AF8D"/>
<path d="M14.0625 28.125C14.0625 25.5362 11.9638 23.4375 9.375 23.4375C6.78617 23.4375 4.6875 25.5362 4.6875 28.125V34.375C4.6875 36.9638 6.78617 39.0625 9.375 39.0625C11.9638 39.0625 14.0625 36.9638 14.0625 34.375V28.125Z" fill="#66AF8D"/>
<path d="M7.8125 34.375H10.9375V46.875H7.8125V34.375Z" fill="#D68029"/>
<path d="M23.4375 28.125C23.4375 25.5362 21.3388 23.4375 18.75 23.4375C16.1612 23.4375 14.0625 25.5362 14.0625 28.125V34.375C14.0625 36.9638 16.1612 39.0625 18.75 39.0625C21.3388 39.0625 23.4375 36.9638 23.4375 34.375V28.125Z" fill="#66AF8D"/>
<path d="M17.1875 34.375H20.3125V46.875H17.1875V34.375Z" fill="#D68029"/>
<path d="M50 85.9375C49.6721 85.9375 49.3525 85.8343 49.0865 85.6426C48.8204 85.4508 48.6215 85.1802 48.5178 84.8691L47.9434 83.1463C47.7598 82.5938 47.4068 82.1132 46.9345 81.7728C46.4622 81.4323 45.8947 81.2494 45.3125 81.25V78.125C46.2194 78.1242 47.1142 78.3327 47.9272 78.7344C48.7403 79.1361 49.4496 79.7201 50 80.4408C50.5504 79.7201 51.2597 79.1361 52.0728 78.7344C52.8858 78.3327 53.7806 78.1242 54.6875 78.125V81.25C54.1053 81.2494 53.5378 81.4323 53.0655 81.7728C52.5932 82.1132 52.2402 82.5938 52.0566 83.1463L51.4822 84.8691C51.3785 85.1802 51.1796 85.4508 50.9135 85.6426C50.6475 85.8343 50.3279 85.9375 50 85.9375Z" fill="#2D7A54"/>
<path d="M50 75C49.6721 75 49.3525 74.8968 49.0865 74.7051C48.8204 74.5133 48.6215 74.2427 48.5178 73.9316L47.9434 72.2088C47.7598 71.6563 47.4068 71.1757 46.9345 70.8353C46.4622 70.4948 45.8947 70.3119 45.3125 70.3125V67.1875C46.2194 67.1867 47.1142 67.3952 47.9272 67.7969C48.7403 68.1986 49.4496 68.7826 50 69.5033C50.5504 68.7826 51.2597 68.1986 52.0728 67.7969C52.8858 67.3952 53.7806 67.1867 54.6875 67.1875V70.3125C54.1053 70.3119 53.5378 70.4948 53.0655 70.8353C52.5932 71.1757 52.2402 71.6563 52.0566 72.2088L51.4822 73.9316C51.3785 74.2427 51.1796 74.5133 50.9135 74.7051C50.6475 74.8968 50.3279 75 50 75Z" fill="#2D7A54"/>
<path d="M50 96.875C49.6721 96.875 49.3525 96.7718 49.0865 96.5801C48.8204 96.3883 48.6215 96.1177 48.5178 95.8066L47.9434 94.0838C47.7598 93.5313 47.4068 93.0507 46.9345 92.7103C46.4622 92.3698 45.8947 92.1869 45.3125 92.1875V89.0625C46.2194 89.0617 47.1142 89.2702 47.9272 89.6719C48.7403 90.0736 49.4496 90.6576 50 91.3783C50.5504 90.6576 51.2597 90.0736 52.0728 89.6719C52.8858 89.2702 53.7806 89.0617 54.6875 89.0625V92.1875C54.1053 92.1869 53.5378 92.3698 53.0655 92.7103C52.5932 93.0507 52.2402 93.5313 52.0566 94.0838L51.4822 95.8066C51.3785 96.1177 51.1796 96.3883 50.9135 96.5801C50.6475 96.7718 50.3279 96.875 50 96.875Z" fill="#2D7A54"/>
<path d="M14.0625 95.3125C13.7346 95.3125 13.415 95.2093 13.149 95.0176C12.8829 94.8258 12.684 94.5552 12.5803 94.2441L12.0059 92.5213C11.8223 91.9688 11.4693 91.4882 10.997 91.1478C10.5248 90.8073 9.95719 90.6244 9.375 90.625V87.5C10.2819 87.4992 11.1767 87.7077 11.9897 88.1094C12.8028 88.5111 13.5121 89.0951 14.0625 89.8158C14.6129 89.0951 15.3222 88.5111 16.1353 88.1094C16.9483 87.7077 17.8431 87.4992 18.75 87.5V90.625C18.1678 90.6244 17.6002 90.8073 17.128 91.1478C16.6557 91.4882 16.3027 91.9688 16.1191 92.5213L15.5447 94.2441C15.441 94.5552 15.2421 94.8258 14.976 95.0176C14.71 95.2093 14.3904 95.3125 14.0625 95.3125Z" fill="#2D7A54"/>
<path d="M18.75 82.8125C18.4221 82.8125 18.1025 82.7093 17.8365 82.5176C17.5704 82.3258 17.3715 82.0552 17.2678 81.7441L16.6934 80.0213C16.5098 79.4688 16.1568 78.9882 15.6845 78.6478C15.2123 78.3073 14.6447 78.1244 14.0625 78.125V75C14.9694 74.9992 15.8642 75.2077 16.6772 75.6094C17.4903 76.0111 18.1996 76.5951 18.75 77.3158C19.3004 76.5951 20.0097 76.0111 20.8228 75.6094C21.6358 75.2077 22.5306 74.9992 23.4375 75V78.125C22.8553 78.1244 22.2877 78.3073 21.8155 78.6478C21.3432 78.9882 20.9902 79.4688 20.8066 80.0213L20.2322 81.7441C20.1285 82.0552 19.9296 82.3258 19.6635 82.5176C19.3975 82.7093 19.0779 82.8125 18.75 82.8125Z" fill="#2D7A54"/>
<path d="M85.9375 95.3125C85.6096 95.3125 85.29 95.2093 85.024 95.0176C84.7579 94.8258 84.559 94.5552 84.4553 94.2441L83.8809 92.5213C83.6973 91.9688 83.3443 91.4882 82.872 91.1478C82.3997 90.8073 81.8322 90.6244 81.25 90.625V87.5C82.1569 87.4992 83.0517 87.7077 83.8647 88.1094C84.6778 88.5111 85.3871 89.0951 85.9375 89.8158C86.4879 89.0951 87.1972 88.5111 88.0103 88.1094C88.8233 87.7077 89.7181 87.4992 90.625 87.5V90.625C90.0428 90.6244 89.4753 90.8073 89.003 91.1478C88.5307 91.4882 88.1777 91.9688 87.9941 92.5213L87.4197 94.2441C87.316 94.5552 87.1171 94.8258 86.851 95.0176C86.585 95.2093 86.2654 95.3125 85.9375 95.3125Z" fill="#2D7A54"/>
<path d="M81.25 82.8125C80.9221 82.8125 80.6025 82.7093 80.3365 82.5176C80.0704 82.3258 79.8715 82.0552 79.7678 81.7441L79.1934 80.0213C79.0098 79.4688 78.6568 78.9882 78.1845 78.6478C77.7122 78.3073 77.1447 78.1244 76.5625 78.125V75C77.4694 74.9992 78.3642 75.2077 79.1772 75.6094C79.9903 76.0111 80.6996 76.5951 81.25 77.3158C81.8004 76.5951 82.5097 76.0111 83.3228 75.6094C84.1358 75.2077 85.0306 74.9992 85.9375 75V78.125C85.3553 78.1244 84.7878 78.3073 84.3155 78.6478C83.8432 78.9882 83.4902 79.4688 83.3066 80.0213L82.7322 81.7441C82.6285 82.0552 82.4296 82.3258 82.1635 82.5176C81.8975 82.7093 81.5779 82.8125 81.25 82.8125Z" fill="#2D7A54"/>
<path d="M49.9994 64.0625C49.7942 64.0628 49.5909 64.0225 49.4013 63.944C49.2117 63.8654 49.0395 63.7502 48.8945 63.6049L45.7695 60.4799L47.9793 58.2701L49.9994 60.2905L52.0195 58.2701L54.2293 60.4799L51.1043 63.6049C50.9594 63.7502 50.7871 63.8654 50.5975 63.944C50.4079 64.0225 50.2046 64.0628 49.9994 64.0625Z" fill="#2D7A54"/>
<path d="M21.8744 70.3125C21.6692 70.3128 21.4659 70.2725 21.2763 70.194C21.0867 70.1154 20.9145 70.0002 20.7695 69.8549L17.6445 66.7299L19.8543 64.5201L21.8744 66.5405L23.8945 64.5201L26.1043 66.7299L22.9793 69.8549C22.8344 70.0002 22.6621 70.1154 22.4725 70.194C22.2829 70.2725 22.0796 70.3128 21.8744 70.3125Z" fill="#2D7A54"/>
<path d="M78.1244 70.3125C77.9192 70.3128 77.7159 70.2725 77.5263 70.194C77.3367 70.1154 77.1645 70.0002 77.0195 69.8549L73.8945 66.7299L76.1043 64.5201L78.1244 66.5405L80.1445 64.5201L82.3543 66.7299L79.2293 69.8549C79.0844 70.0002 78.9121 70.1154 78.7225 70.194C78.5329 70.2725 78.3296 70.3128 78.1244 70.3125Z" fill="#2D7A54"/>
<path d="M25 51.5625H28.125V54.6875H25V51.5625Z" fill="#2D7A54"/>
<path d="M21.875 57.8125H25V60.9375H21.875V57.8125Z" fill="#2D7A54"/>
<path d="M48.4375 51.5625H51.5625V54.6875H48.4375V51.5625Z" fill="#2D7A54"/>
<path d="M71.875 51.5625H75V54.6875H71.875V51.5625Z" fill="#2D7A54"/>
<path d="M75 57.8125H78.125V60.9375H75V57.8125Z" fill="#2D7A54"/>
<path d="M70.3125 46.875C75.4902 46.875 79.6875 42.6777 79.6875 37.5C79.6875 32.3223 75.4902 28.125 70.3125 28.125C65.1348 28.125 60.9375 32.3223 60.9375 37.5C60.9375 42.6777 65.1348 46.875 70.3125 46.875Z" fill="#0A4566"/>
<path d="M70.3125 40.625C72.0384 40.625 73.4375 39.2259 73.4375 37.5C73.4375 35.7741 72.0384 34.375 70.3125 34.375C68.5866 34.375 67.1875 35.7741 67.1875 37.5C67.1875 39.2259 68.5866 40.625 70.3125 40.625Z" fill="#2993CE"/>
<path d="M75 37.5C75 36.5729 74.7251 35.6666 74.21 34.8958C73.6949 34.1249 72.9629 33.5241 72.1063 33.1693C71.2498 32.8145 70.3073 32.7217 69.398 32.9026C68.4887 33.0834 67.6535 33.5299 66.9979 34.1854C66.3424 34.841 65.8959 35.6762 65.7151 36.5855C65.5342 37.4948 65.627 38.4373 65.9818 39.2938C66.3366 40.1504 66.9374 40.8824 67.7083 41.3975C68.4791 41.9126 69.3854 42.1875 70.3125 42.1875C71.5553 42.1861 72.7468 41.6918 73.6255 40.813C74.5043 39.9343 74.9986 38.7428 75 37.5ZM68.75 37.5C68.75 37.191 68.8416 36.8889 69.0133 36.6319C69.185 36.375 69.4291 36.1747 69.7146 36.0564C70.0001 35.9382 70.3142 35.9072 70.6173 35.9675C70.9204 36.0278 71.1988 36.1766 71.4174 36.3951C71.6359 36.6137 71.7847 36.8921 71.845 37.1952C71.9053 37.4983 71.8743 37.8124 71.7561 38.0979C71.6378 38.3835 71.4375 38.6275 71.1806 38.7992C70.9236 38.9709 70.6215 39.0625 70.3125 39.0625C69.8982 39.062 69.5011 38.8973 69.2082 38.6043C68.9152 38.3114 68.7505 37.9143 68.75 37.5Z" fill="black"/>
<path d="M42.1875 26.5625H45.3125V31.25H42.1875V26.5625Z" fill="black"/>
<path d="M48.4375 26.5625H51.5625V31.25H48.4375V26.5625Z" fill="black"/>
<path d="M95.7236 35.9926L79.4932 31.5662C78.1305 29.4561 76.083 27.8794 73.6948 27.1009C71.3067 26.3225 68.7233 26.3897 66.3789 27.2914L67.5031 30.2074C69.3267 29.5028 71.3479 29.5064 73.1689 30.2177C74.9899 30.9289 76.4786 32.2962 77.3418 34.0502C78.205 35.8043 78.3801 37.818 77.8328 39.6947C77.2854 41.5715 76.0552 43.1753 74.3844 44.1903C72.7136 45.2053 70.7233 45.5579 68.8055 45.1787C66.8877 44.7995 65.1813 43.716 64.0225 42.1416C62.8637 40.5671 62.3364 38.6158 62.5444 36.672C62.7524 34.7281 63.6807 32.9326 65.1465 31.6391L63.0789 29.2953C61.9152 30.3222 60.9831 31.5847 60.3445 32.9993C59.7059 34.4138 59.3755 35.948 59.375 37.5H56.25V35.2117C56.2501 32.089 57.4906 29.0942 59.6986 26.8861C61.9067 24.6781 64.9015 23.4376 68.0242 23.4375H78.125V20.3125H71.875V7.8125C71.875 7.3981 71.7104 7.00067 71.4174 6.70765C71.1243 6.41462 70.7269 6.25 70.3125 6.25H53.125C52.7765 6.25001 52.4381 6.3665 52.1634 6.58096C51.8888 6.79542 51.6937 7.09553 51.6092 7.43359L48.7801 18.75H40.625V17.1875H42.1875C42.6019 17.1875 42.9993 17.0229 43.2924 16.7299C43.5854 16.4368 43.75 16.0394 43.75 15.625V9.375C43.75 8.9606 43.5854 8.56317 43.2924 8.27015C42.9993 7.97712 42.6019 7.8125 42.1875 7.8125H40.625V6.25H43.75V3.125H39.0625C38.6481 3.125 38.2507 3.28962 37.9576 3.58265C37.6646 3.87567 37.5 4.2731 37.5 4.6875V7.8125H35.9375C35.5231 7.8125 35.1257 7.97712 34.8326 8.27015C34.5396 8.56317 34.375 8.9606 34.375 9.375V15.625C34.375 16.0394 34.5396 16.4368 34.8326 16.7299C35.1257 17.0229 35.5231 17.1875 35.9375 17.1875H37.5V18.75H35.7586C34.149 18.7518 32.6058 19.392 31.4677 20.5302C30.3295 21.6683 29.6893 23.2115 29.6875 24.8211V32.6922L29.1072 32.9242C28.8173 33.0402 28.5687 33.2404 28.3936 33.499C28.2186 33.7576 28.125 34.0627 28.125 34.375V39.0625C28.125 39.4769 28.2896 39.8743 28.5826 40.1674C28.8757 40.4604 29.2731 40.625 29.6875 40.625H31.4479C31.0386 42.2113 31.2696 43.895 32.0908 45.3125H20.3125V40.4271C21.6533 40.079 22.8407 39.2961 23.6889 38.2009C24.5371 37.1057 24.9982 35.7602 25 34.375V28.125C25.0009 26.855 24.6146 25.615 23.8926 24.5702C23.1707 23.5254 22.1474 22.7255 20.9593 22.2771C19.7711 21.8287 18.4745 21.7532 17.2423 22.0606C16.0101 22.368 14.9008 23.0437 14.0625 23.9977C13.2242 23.0437 12.1149 22.368 10.8827 22.0606C9.65055 21.7532 8.35392 21.8287 7.16575 22.2771C5.97757 22.7255 4.9543 23.5254 4.23236 24.5702C3.51043 25.615 3.12414 26.855 3.125 28.125V34.375C3.12677 35.7602 3.58786 37.1057 4.43608 38.2009C5.2843 39.2961 6.47175 40.079 7.8125 40.4271V45.3125H4.6875V48.4375H9.46387L3.41602 56.9045L5.95899 58.7209L13.3039 48.4375H19.6111L3.22656 91.6334L6.14844 92.7416L22.9533 48.4375H32.3582L20.3621 94.9219L23.3879 95.7031L35.5859 48.4375H43.5352L37.5129 95.1127L40.6121 95.5123L46.6863 48.4375H53.3137L59.3879 95.5123L62.4871 95.1127L56.4648 48.4375H64.4141L76.6117 95.7031L79.6375 94.9219L67.6414 48.4375H77.0463L93.8516 92.7416L96.7734 91.6334L80.3889 48.4375H86.6961L94.041 58.7205L96.584 56.9041L90.5361 48.4375H95.3125V45.3125H77.9566C79.2767 44.0249 80.249 42.4238 80.7828 40.6586C81.3166 38.8935 81.3944 37.0219 81.009 35.2186L87.209 36.9094L85.9842 41.8086L89.0158 42.5664L90.2244 37.7318L93.4256 38.6049L92.2342 43.3705L95.2658 44.1283L96.8283 37.8783C96.9272 37.482 96.867 37.0627 96.6605 36.7102C96.454 36.3577 96.1177 36.1001 95.7236 35.9926ZM7.8125 34.375V37.0771C7.33805 36.8032 6.94396 36.4094 6.66972 35.9351C6.39548 35.4609 6.25073 34.9228 6.25 34.375V28.125C6.25 27.2962 6.57924 26.5013 7.16529 25.9153C7.75134 25.3292 8.5462 25 9.375 25C10.2038 25 10.9987 25.3292 11.5847 25.9153C12.1708 26.5013 12.5 27.2962 12.5 28.125V34.375C12.4993 34.9228 12.3545 35.4609 12.0803 35.9351C11.806 36.4094 11.4119 36.8032 10.9375 37.0771V34.375H7.8125ZM17.1875 45.3125H10.9375V40.4271C12.1481 40.1123 13.2367 39.4419 14.0625 38.5023C14.8884 39.4419 15.9769 40.1123 17.1875 40.4271V45.3125ZM17.1875 34.375V37.0771C16.7131 36.8032 16.319 36.4094 16.0447 35.9351C15.7705 35.4609 15.6257 34.9228 15.625 34.375V28.125C15.625 27.2962 15.9542 26.5013 16.5403 25.9153C17.1263 25.3292 17.9212 25 18.75 25C19.5788 25 20.3737 25.3292 20.9597 25.9153C21.5458 26.5013 21.875 27.2962 21.875 28.125V34.375C21.8743 34.9228 21.7295 35.4609 21.4553 35.9351C21.181 36.4094 20.7869 36.8032 20.3125 37.0771V34.375H17.1875ZM54.3449 9.375H68.75V18.75H55.3348L57.8125 16.2723L59.8326 18.2924L62.0424 16.0826L55.7924 9.83262L53.7109 11.9152L54.3449 9.375ZM53.659 12.1187L55.6027 14.0625L52.3633 17.3021L53.659 12.1187ZM37.5 10.9375H40.625V14.0625H37.5V10.9375ZM32.8125 28.125H35.9375V30.1922L32.8125 31.4422V28.125ZM37.5 45.3125C36.8819 45.3125 36.2777 45.1292 35.7638 44.7858C35.2499 44.4425 34.8494 43.9544 34.6129 43.3834C34.3764 42.8124 34.3145 42.184 34.435 41.5778C34.5556 40.9717 34.8533 40.4148 35.2903 39.9778C35.7273 39.5408 36.2842 39.2431 36.8903 39.1225C37.4965 39.002 38.1249 39.0639 38.6959 39.3004C39.2669 39.5369 39.755 39.9374 40.0983 40.4513C40.4417 40.9652 40.625 41.5694 40.625 42.1875C40.624 43.016 40.2945 43.8103 39.7086 44.3961C39.1228 44.982 38.3285 45.3115 37.5 45.3125ZM37.5 35.9375C35.9795 35.9366 34.5113 36.4924 33.3727 37.5H31.25V35.4328L38.0803 32.7008C38.3702 32.5848 38.6188 32.3846 38.7939 32.126C38.9689 31.8674 39.0625 31.5623 39.0625 31.25V26.5625C39.0625 26.1481 38.8979 25.7507 38.6049 25.4576C38.3118 25.1646 37.9144 25 37.5 25H32.8125V24.8211C32.8133 24.04 33.124 23.2911 33.6763 22.7388C34.2286 22.1865 34.9775 21.8758 35.7586 21.875H61.3748C58.8971 23.1129 56.813 25.0163 55.3559 27.3718C53.8988 29.7273 53.1264 32.442 53.125 35.2117V37.5H41.6273C40.4887 36.4924 39.0205 35.9366 37.5 35.9375ZM42.9102 45.3125C43.7314 43.895 43.9624 42.2113 43.5531 40.625H59.8332C60.366 42.4026 61.3419 44.0156 62.6693 45.3125H42.9102Z" fill="black"/>
<path d="M50 80.4408C49.4496 79.7201 48.7403 79.1361 47.9272 78.7344C47.1142 78.3327 46.2194 78.1242 45.3125 78.125V81.25C45.8947 81.2494 46.4622 81.4323 46.9345 81.7728C47.4068 82.1132 47.7598 82.5938 47.9434 83.1463L48.5178 84.8691C48.6215 85.1802 48.8205 85.4507 49.0865 85.6424C49.3525 85.8341 49.6721 85.9373 50 85.9373C50.3279 85.9373 50.6475 85.8341 50.9135 85.6424C51.1795 85.4507 51.3785 85.1802 51.4822 84.8691L52.0566 83.1463C52.2402 82.5938 52.5932 82.1132 53.0655 81.7728C53.5378 81.4323 54.1053 81.2494 54.6875 81.25V78.125C53.7806 78.1242 52.8858 78.3327 52.0728 78.7344C51.2597 79.1361 50.5504 79.7201 50 80.4408Z" fill="black"/>
<path d="M50 69.5033C49.4496 68.7826 48.7403 68.1986 47.9272 67.7969C47.1142 67.3952 46.2194 67.1867 45.3125 67.1875V70.3125C45.8947 70.3119 46.4622 70.4948 46.9345 70.8353C47.4068 71.1757 47.7598 71.6563 47.9434 72.2088L48.5178 73.9316C48.6215 74.2427 48.8205 74.5132 49.0865 74.7049C49.3525 74.8966 49.6721 74.9998 50 74.9998C50.3279 74.9998 50.6475 74.8966 50.9135 74.7049C51.1795 74.5132 51.3785 74.2427 51.4822 73.9316L52.0566 72.2088C52.2402 71.6563 52.5932 71.1757 53.0655 70.8353C53.5378 70.4948 54.1053 70.3119 54.6875 70.3125V67.1875C53.7806 67.1867 52.8858 67.3952 52.0728 67.7969C51.2597 68.1986 50.5504 68.7826 50 69.5033Z" fill="black"/>
<path d="M50 91.3783C49.4496 90.6576 48.7403 90.0736 47.9272 89.6719C47.1142 89.2702 46.2194 89.0617 45.3125 89.0625V92.1875C45.8947 92.1869 46.4622 92.3698 46.9345 92.7103C47.4068 93.0507 47.7598 93.5313 47.9434 94.0838L48.5178 95.8066C48.6215 96.1177 48.8205 96.3882 49.0865 96.5799C49.3525 96.7716 49.6721 96.8748 50 96.8748C50.3279 96.8748 50.6475 96.7716 50.9135 96.5799C51.1795 96.3882 51.3785 96.1177 51.4822 95.8066L52.0566 94.0838C52.2402 93.5313 52.5932 93.0507 53.0655 92.7103C53.5378 92.3698 54.1053 92.1869 54.6875 92.1875V89.0625C53.7806 89.0617 52.8858 89.2702 52.0728 89.6719C51.2597 90.0736 50.5504 90.6576 50 91.3783Z" fill="black"/>
<path d="M14.0625 89.8158C13.5121 89.0951 12.8028 88.5111 11.9897 88.1094C11.1767 87.7077 10.2819 87.4992 9.375 87.5V90.625C9.95719 90.6244 10.5248 90.8073 10.997 91.1478C11.4693 91.4882 11.8223 91.9688 12.0059 92.5213L12.5803 94.2441C12.684 94.5552 12.883 94.8257 13.149 95.0174C13.415 95.2091 13.7346 95.3123 14.0625 95.3123C14.3904 95.3123 14.71 95.2091 14.976 95.0174C15.242 94.8257 15.441 94.5552 15.5447 94.2441L16.1191 92.5213C16.3027 91.9688 16.6557 91.4882 17.128 91.1478C17.6002 90.8073 18.1678 90.6244 18.75 90.625V87.5C17.8431 87.4992 16.9483 87.7077 16.1353 88.1094C15.3222 88.5111 14.6129 89.0951 14.0625 89.8158Z" fill="black"/>
<path d="M23.4375 78.125V75C22.5306 74.9992 21.6358 75.2077 20.8228 75.6094C20.0097 76.0111 19.3004 76.5951 18.75 77.3158C18.1996 76.5951 17.4903 76.0111 16.6772 75.6094C15.8642 75.2077 14.9694 74.9992 14.0625 75V78.125C14.6447 78.1244 15.2123 78.3073 15.6845 78.6478C16.1568 78.9882 16.5098 79.4688 16.6934 80.0213L17.2678 81.7441C17.3715 82.0552 17.5705 82.3257 17.8365 82.5174C18.1025 82.7091 18.4221 82.8123 18.75 82.8123C19.0779 82.8123 19.3975 82.7091 19.6635 82.5174C19.9295 82.3257 20.1285 82.0552 20.2322 81.7441L20.8066 80.0213C20.9902 79.4688 21.3432 78.9882 21.8155 78.6478C22.2877 78.3073 22.8553 78.1244 23.4375 78.125Z" fill="black"/>
<path d="M85.9375 89.8158C85.3871 89.0951 84.6778 88.5111 83.8647 88.1094C83.0517 87.7077 82.1569 87.4992 81.25 87.5V90.625C81.8322 90.6244 82.3997 90.8073 82.872 91.1478C83.3443 91.4882 83.6973 91.9688 83.8809 92.5213L84.4553 94.2441C84.559 94.5552 84.758 94.8257 85.024 95.0174C85.29 95.2091 85.6096 95.3123 85.9375 95.3123C86.2654 95.3123 86.585 95.2091 86.851 95.0174C87.117 94.8257 87.316 94.5552 87.4197 94.2441L87.9941 92.5213C88.1777 91.9688 88.5307 91.4882 89.003 91.1478C89.4753 90.8073 90.0428 90.6244 90.625 90.625V87.5C89.7181 87.4992 88.8233 87.7077 88.0103 88.1094C87.1972 88.5111 86.4879 89.0951 85.9375 89.8158Z" fill="black"/>
<path d="M82.7322 81.7441L83.3066 80.0213C83.4902 79.4688 83.8432 78.9882 84.3155 78.6478C84.7878 78.3073 85.3553 78.1244 85.9375 78.125V75C85.0306 74.9992 84.1358 75.2077 83.3228 75.6094C82.5097 76.0111 81.8004 76.5951 81.25 77.3158C80.6996 76.5951 79.9903 76.0111 79.1772 75.6094C78.3642 75.2077 77.4694 74.9992 76.5625 75V78.125C77.1447 78.1244 77.7122 78.3073 78.1845 78.6478C78.6568 78.9882 79.0098 79.4688 79.1934 80.0213L79.7678 81.7441C79.8715 82.0552 80.0705 82.3257 80.3365 82.5174C80.6025 82.7091 80.9221 82.8123 81.25 82.8123C81.5779 82.8123 81.8975 82.7091 82.1635 82.5174C82.4295 82.3257 82.6285 82.0552 82.7322 81.7441Z" fill="black"/>
<path d="M45.7695 60.4799L48.8945 63.6049C49.0396 63.75 49.2119 63.8651 49.4015 63.9436C49.591 64.0222 49.7942 64.0626 49.9994 64.0626C50.2046 64.0626 50.4078 64.0222 50.5974 63.9436C50.7869 63.8651 50.9592 63.75 51.1043 63.6049L54.2293 60.4799L52.0195 58.2701L49.9994 60.2905L47.9793 58.2701L45.7695 60.4799Z" fill="black"/>
<path d="M19.8543 64.5201L17.6445 66.7299L20.7695 69.8549C20.9146 70 21.0869 70.1151 21.2765 70.1936C21.466 70.2722 21.6692 70.3126 21.8744 70.3126C22.0796 70.3126 22.2828 70.2722 22.4724 70.1936C22.662 70.1151 22.8342 70 22.9793 69.8549L26.1043 66.7299L23.8945 64.5201L21.8744 66.5405L19.8543 64.5201Z" fill="black"/>
<path d="M78.1244 70.3125C78.3296 70.3128 78.5329 70.2725 78.7225 70.194C78.9121 70.1154 79.0844 70.0002 79.2293 69.8549L82.3543 66.7299L80.1445 64.5201L78.1244 66.5405L76.1043 64.5201L73.8945 66.7299L77.0195 69.8549C77.1645 70.0002 77.3367 70.1154 77.5263 70.194C77.7159 70.2725 77.9192 70.3128 78.1244 70.3125Z" fill="black"/>
<path d="M25 51.5625H28.125V54.6875H25V51.5625Z" fill="black"/>
<path d="M21.875 57.8125H25V60.9375H21.875V57.8125Z" fill="black"/>
<path d="M48.4375 51.5625H51.5625V54.6875H48.4375V51.5625Z" fill="black"/>
<path d="M71.875 51.5625H75V54.6875H71.875V51.5625Z" fill="black"/>
<path d="M75 57.8125H78.125V60.9375H75V57.8125Z" fill="black"/>
</svg>
