<svg width="100" height="100" viewBox="0 0 100 100" fill="none" xmlns="http://www.w3.org/2000/svg">
<path d="M47.4584 69.1559C50.6963 72.3937 55.001 74.1768 59.5799 74.1768C64.1588 74.1768 68.4625 72.3936 71.6971 69.1559C74.9348 65.9182 76.718 61.6141 76.718 57.0367C76.718 52.4594 74.9348 48.1553 71.6975 44.918C68.4625 41.6799 64.159 39.8967 59.5799 39.8967C55.0008 39.8967 50.6965 41.6799 47.4584 44.9176C40.776 51.6002 40.776 62.4736 47.4584 69.1561V69.1559ZM49.6682 47.127C52.3158 44.4795 55.8357 43.0213 59.5797 43.0213C63.3236 43.0213 66.842 44.4791 69.4871 47.127C72.1348 49.7746 73.5928 53.2939 73.5928 57.0365C73.5928 60.7791 72.1346 64.2984 69.4867 66.9465C66.842 69.5937 63.3234 71.0516 59.5797 71.0516C55.8359 71.0516 52.3158 69.5936 49.6682 66.9459C44.2051 61.4816 44.2043 52.5908 49.6682 47.127ZM97.4607 69.1084V7.98809C97.4607 7.12519 96.7611 6.42559 95.8982 6.42559H60.5934C60.1789 6.42559 59.7816 6.59023 59.4885 6.8832L49.7338 16.6381C49.4408 16.9311 49.2762 17.3285 49.2762 17.743V36.8453C47.2113 37.8971 45.2748 39.2838 43.5498 41.0086C39.2678 45.2906 36.9096 50.9834 36.9096 57.0385C36.9096 57.9311 36.9623 58.8156 37.0633 59.6891V91.5453H33.8658V50.0635C33.8658 49.2006 33.1662 48.501 32.3033 48.501H23.1187C22.2559 48.501 21.5562 49.2006 21.5562 50.0635V91.5453H18.3645V62.4646C18.3645 61.6018 17.6648 60.9021 16.802 60.9021H7.61172C6.74883 60.9021 6.04922 61.6018 6.04922 62.4646V91.5453H4.10156C3.23867 91.5453 2.53906 92.2449 2.53906 93.1078C2.53906 93.9707 3.23867 94.6703 4.10156 94.6703H66.8328C67.6957 94.6703 68.3953 93.9707 68.3953 93.1078C68.3953 92.2449 67.6957 91.5453 66.8328 91.5453H64.8799V79.0693C67.1748 78.5213 69.4002 77.6117 71.4645 76.3412L74.6479 80.9617L74.6486 80.9611C74.7022 81.0389 74.7621 81.1125 74.8297 81.1801L86.4393 92.7896C87.6924 94.0428 89.3402 94.6695 90.9883 94.6695C92.6217 94.6695 94.2559 94.0541 95.5078 92.823C96.7158 91.7352 97.408 90.2131 97.4582 88.5316C97.5121 86.7285 96.8137 84.9648 95.5418 83.6928L83.9322 72.0834C83.8639 72.015 83.79 71.9555 83.7133 71.9023L83.7139 71.9016L81.9272 70.6705H95.8986C96.7615 70.6705 97.4611 69.9709 97.4611 69.108L97.4607 69.1084ZM60.0166 10.7748V17.166H53.6256L60.0166 10.7748ZM45.7598 43.2184C49.5701 39.408 54.5754 37.5027 59.5807 37.5027C64.5859 37.5027 69.5912 39.4078 73.4016 43.2184C77.0934 46.9102 79.1266 51.8184 79.1266 57.0385C79.1266 62.2586 77.0936 67.165 73.4016 70.8545C65.7809 78.4754 53.3805 78.4754 45.7596 70.8541C42.643 67.7396 40.7086 63.7576 40.1814 59.4518C40.1801 59.4355 40.1779 59.4195 40.1762 59.4033C40.0828 58.6244 40.0348 57.8352 40.0348 57.0385C40.0348 51.8182 42.068 46.9102 45.7598 43.2184ZM52.5703 78.5904V91.5453H49.3729V77.2768C50.4104 77.7988 51.4793 78.2375 52.5703 78.5902V78.5904ZM40.1883 68.7937C41.1229 70.3281 42.2467 71.7619 43.5498 73.0641C44.401 73.9152 45.3037 74.6834 46.2477 75.3707V91.5453H40.1883V68.7937ZM24.6812 51.626H30.7408V91.5453H24.6812V51.626ZM9.17422 64.0271H15.2395V91.5453H9.17422V64.0271ZM61.7549 91.5453H55.6953V79.3602C56.9801 79.5818 58.2803 79.6936 59.5809 79.6936C60.3064 79.6936 61.032 79.659 61.7551 79.5898V91.5451L61.7549 91.5453ZM75.6107 73.0645C76.193 72.4826 76.7383 71.8736 77.2484 71.2422L80.3947 73.41L76.157 77.6443L74.0061 74.5223C74.5582 74.0662 75.0943 73.5811 75.6109 73.0646L75.6107 73.0645ZM93.3316 85.9025C93.9973 86.5682 94.3627 87.4924 94.3344 88.4381C94.3096 89.2654 93.9777 90.0033 93.4 90.5158C93.3771 90.5361 93.3551 90.5568 93.3334 90.5783C92.0393 91.8682 89.9381 91.8691 88.649 90.5799L78.1447 80.0756L82.8268 75.3973L93.3318 85.9023L93.3316 85.9025ZM94.3357 67.5455H79.6789C81.3594 64.3424 82.2512 60.7594 82.2512 57.0383C82.2512 50.9834 79.8932 45.2904 75.6111 41.0084C69.3437 34.7412 60.2902 32.9191 52.4012 35.5391V20.2906H61.5789C62.4418 20.2906 63.1414 19.591 63.1414 18.7281V9.55039H94.3357V67.5457V67.5455ZM88.8131 50.7332C88.8131 51.5961 88.1135 52.2957 87.2506 52.2957H84.7539C83.891 52.2957 83.1914 51.5961 83.1914 50.7332C83.1914 49.8703 83.891 49.1707 84.7539 49.1707H87.2506C88.1135 49.1707 88.8131 49.8703 88.8131 50.7332ZM88.8131 35.3756C88.8131 36.2385 88.1135 36.9381 87.2506 36.9381H71.0848C70.2219 36.9381 69.5223 36.2385 69.5223 35.3756C69.5223 34.5127 70.2219 33.8131 71.0848 33.8131H87.2506C88.1135 33.8131 88.8131 34.5127 88.8131 35.3756ZM88.8131 43.0543C88.8131 43.9172 88.1135 44.6168 87.2506 44.6168H81.7422C80.8793 44.6168 80.1797 43.9172 80.1797 43.0543C80.1797 42.1914 80.8793 41.4918 81.7422 41.4918H87.2506C88.1135 41.4918 88.8131 42.1914 88.8131 43.0543ZM88.8131 27.6967C88.8131 28.5596 88.1135 29.2592 87.2506 29.2592H59.4863C58.6234 29.2592 57.9238 28.5596 57.9238 27.6967C57.9238 26.8338 58.6234 26.1342 59.4863 26.1342H87.2506C88.1135 26.1342 88.8131 26.8338 88.8131 27.6967ZM69.5223 20.018C69.5223 19.1551 70.2219 18.4555 71.0848 18.4555H87.2506C88.1135 18.4555 88.8131 19.1551 88.8131 20.018C88.8131 20.8809 88.1135 21.5805 87.2506 21.5805H71.0848C70.2219 21.5805 69.5223 20.8809 69.5223 20.018ZM88.8131 58.4119C88.8131 59.2748 88.1135 59.9744 87.2506 59.9744H84.7539C83.891 59.9744 83.1914 59.2748 83.1914 58.4119C83.1914 57.549 83.891 56.8494 84.7539 56.8494H87.2506C88.1135 56.8494 88.8131 57.549 88.8131 58.4119ZM54.7439 59.2615C54.1217 58.6635 54.1023 57.6744 54.7002 57.0521C55.2982 56.4301 56.2873 56.4105 56.9096 57.0086L59.0477 59.0639L64.1949 53.4225C64.777 52.7846 65.765 52.7398 66.4025 53.3213C67.04 53.9029 67.0852 54.8912 66.5037 55.5287L60.2754 62.3549C59.9912 62.6662 59.5936 62.8496 59.1723 62.8635C59.1553 62.8641 59.1381 62.8643 59.1211 62.8643C58.7182 62.8643 58.3297 62.7084 58.0383 62.4281L54.7441 59.2613L54.7439 59.2615ZM19.376 43.9305C28.66 43.9305 36.2131 36.3773 36.2131 27.0934V25.5309H20.9385V10.2568H19.376C10.0922 10.2568 2.53906 17.8098 2.53906 27.0937C2.53906 36.3777 10.0922 43.9309 19.376 43.9309V43.9305ZM32.9996 28.6559C32.2217 35.4836 26.4086 40.8055 19.376 40.8055C16.3822 40.8055 13.6117 39.8383 11.3545 38.2039L20.0615 28.6559H32.9996ZM17.8135 13.4699V26.4832L9.04687 36.0967C6.94297 33.6859 5.66406 30.5371 5.66406 27.0936C5.66406 20.0611 10.9859 14.248 17.8135 13.4699ZM41.1404 22.166C41.1404 12.882 33.5873 5.3291 24.3035 5.3291H22.741V23.7285H41.1404V22.166ZM25.866 20.6035V8.54258C32.1807 9.2623 37.2072 14.2889 37.927 20.6035H25.866Z" fill="black"/>
<path d="M77.2484 71.2426C76.7385 71.8741 76.1932 72.4829 75.6107 73.0649C75.0941 73.5815 74.558 74.0665 74.0059 74.5225L76.1568 77.6446L80.3945 73.4102L77.2482 71.2424L77.2484 71.2426Z" fill="#A8D3D8"/>
<path d="M73.402 43.2183C69.5916 39.408 64.5863 37.5027 59.5811 37.5027C54.5758 37.5027 49.5705 39.4078 45.7602 43.2183C42.0684 46.9101 40.0352 51.8183 40.0352 57.0384C40.0352 57.8351 40.0832 58.6244 40.1766 59.4033C40.1785 59.4195 40.1805 59.4355 40.1818 59.4517C40.709 63.7576 42.6434 67.7398 45.76 70.8541C53.3811 78.4753 65.7814 78.4753 73.402 70.8544C77.0937 67.165 79.127 62.2585 79.127 57.0384C79.127 51.8183 77.0939 46.9101 73.402 43.2183ZM71.6975 69.1556C68.4627 72.3933 64.1594 74.1765 59.5803 74.1765C55.0012 74.1765 50.6969 72.3935 47.4588 69.1556C40.7764 62.4732 40.7764 51.5998 47.4588 44.9171C50.6967 41.6794 55.0014 39.8962 59.5803 39.8962C64.1592 39.8962 68.4629 41.6796 71.6978 44.9175C74.9352 48.1548 76.7184 52.4589 76.7184 57.0363C76.7184 61.6136 74.9352 65.9177 71.6975 69.1554V69.1556Z" fill="#678D98"/>
<path d="M69.4869 47.1269C66.8417 44.4792 63.3232 43.0212 59.5794 43.0212C55.8357 43.0212 52.3156 44.4792 49.6679 47.1269C44.2041 52.5908 44.2048 61.482 49.6679 66.946C52.3156 69.5935 55.8355 71.0517 59.5794 71.0517C63.3234 71.0517 66.8417 69.5939 69.4865 66.9466C72.1345 64.2986 73.5925 60.7793 73.5925 57.0367C73.5925 53.2941 72.1343 49.7746 69.4869 47.1271V47.1269ZM66.5035 55.5292L60.2751 62.3554C59.991 62.6668 59.5933 62.8501 59.172 62.864C59.155 62.8646 59.1378 62.8648 59.1209 62.8648C58.7179 62.8648 58.3294 62.7089 58.038 62.4287L54.7439 59.2619C54.1216 58.6638 54.1023 57.6748 54.7001 57.0525C55.2982 56.4304 56.2873 56.4109 56.9095 57.0089L59.0476 59.0642L64.1949 53.4228C64.7769 52.7849 65.765 52.7402 66.4025 53.3216C67.04 53.9033 67.0851 54.8916 66.5037 55.5291L66.5035 55.5292Z" fill="#C8EFFE"/>
<path d="M88.649 90.5803C89.9383 91.8695 92.0393 91.8685 93.3334 90.5787C93.3549 90.5572 93.3771 90.5363 93.4 90.5162C93.9777 90.0037 94.3096 89.2658 94.3344 88.4385C94.3629 87.4926 93.9973 86.5683 93.3316 85.9029L82.8266 75.3978L78.1445 80.0761L88.6488 90.5804L88.649 90.5803Z" fill="#678D98"/>
<path d="M9.17383 64.0273H15.2391V91.5455H9.17383V64.0273Z" fill="#F9D641"/>
<path d="M55.6955 79.3604V91.5455H61.7551V79.5902C61.032 79.6594 60.3064 79.6939 59.5809 79.6939C58.2805 79.6939 56.9803 79.5822 55.6953 79.3605L55.6955 79.3604Z" fill="#F46240"/>
<path d="M60.016 10.7748L53.625 17.166H60.016V10.7748Z" fill="#C3D1D0"/>
<path d="M40.1875 68.7939V91.5455H46.2469V75.3709C45.3029 74.6838 44.4 73.9154 43.549 73.0643C42.2459 71.7619 41.1221 70.3283 40.1875 68.7939Z" fill="#01D0FB"/>
<path d="M25.8652 8.54297V20.6039H37.9262C37.2064 14.2893 32.1799 9.2627 25.8652 8.54297Z" fill="#F46240"/>
<path d="M11.3555 38.2043C13.6129 39.8387 16.3834 40.8059 19.377 40.8059C26.4096 40.8059 32.2227 35.484 33.0006 28.6562H20.0625L11.3555 38.2043Z" fill="#F9D641"/>
<path d="M17.8135 13.4703C10.9859 14.2484 5.66406 20.0613 5.66406 27.0937C5.66406 30.5375 6.94297 33.6861 9.04687 36.0968L17.8135 26.4834V13.4703Z" fill="#01D0FB"/>
<path d="M24.6816 51.6262H30.7412V91.5456H24.6816V51.6262Z" fill="#30E5A3"/>
<path d="M63.1406 18.7285C63.1406 19.5914 62.441 20.291 61.5781 20.291H52.4004V35.5394C60.2895 32.9195 69.343 34.7416 75.6103 41.0087C79.8924 45.2908 82.2504 50.9835 82.2504 57.0386C82.2504 60.7597 81.3584 64.3427 79.6781 67.5459H94.335V9.55054H63.1406V18.7285ZM87.2496 59.975H84.7529C83.89 59.975 83.1904 59.2753 83.1904 58.4124C83.1904 57.5496 83.89 56.8499 84.7529 56.8499H87.2496C88.1125 56.8499 88.8121 57.5496 88.8121 58.4124C88.8121 59.2753 88.1125 59.975 87.2496 59.975ZM87.2496 52.2962H84.7529C83.89 52.2962 83.1904 51.5966 83.1904 50.7337C83.1904 49.8708 83.89 49.1712 84.7529 49.1712H87.2496C88.1125 49.1712 88.8121 49.8708 88.8121 50.7337C88.8121 51.5966 88.1125 52.2962 87.2496 52.2962ZM87.2496 44.6175H81.7412C80.8783 44.6175 80.1787 43.9179 80.1787 43.055C80.1787 42.1921 80.8783 41.4925 81.7412 41.4925H87.2496C88.1125 41.4925 88.8121 42.1921 88.8121 43.055C88.8121 43.9179 88.1125 44.6175 87.2496 44.6175ZM87.2496 36.9388H71.0838C70.2209 36.9388 69.5213 36.2392 69.5213 35.3763C69.5213 34.5134 70.2209 33.8138 71.0838 33.8138H87.2496C88.1125 33.8138 88.8121 34.5134 88.8121 35.3763C88.8121 36.2392 88.1125 36.9388 87.2496 36.9388ZM87.2496 29.2601H59.4854C58.6225 29.2601 57.9229 28.5605 57.9229 27.6976C57.9229 26.8347 58.6225 26.1351 59.4854 26.1351H87.2496C88.1125 26.1351 88.8121 26.8347 88.8121 27.6976C88.8121 28.5605 88.1125 29.2601 87.2496 29.2601ZM71.0838 18.4564H87.2496C88.1125 18.4564 88.8121 19.156 88.8121 20.0189C88.8121 20.8818 88.1125 21.5814 87.2496 21.5814H71.0838C70.2209 21.5814 69.5213 20.8818 69.5213 20.0189C69.5213 19.156 70.2209 18.4564 71.0838 18.4564Z" fill="#E6E8E8"/>
</svg>
