<svg width="100" height="100" viewBox="0 0 100 100" fill="none" xmlns="http://www.w3.org/2000/svg">
<path d="M21.875 3.125H34.375V9.375H21.875V3.125Z" fill="#FFC729"/>
<path d="M37.5 9.375V18.75H18.75V9.375H21.875H34.375H37.5Z" fill="#FCD770"/>
<path d="M43.75 18.75V31.25H39.0625H17.1875H12.5V18.75H18.75H37.5H43.75Z" fill="#FFEAA7"/>
<path d="M12.5 47.4219V31.25H17.1875H39.0625H43.75V40.625H37.5V46.875V49.2813C35.8438 47.7813 33.6562 46.875 31.25 46.875H15.625C14.5312 46.875 13.4844 47.0625 12.5 47.4219Z" fill="#FFEAA7"/>
<path d="M81.25 9.375V25H62.5V12.5L65.625 11.9844L71.875 10.9375L78.125 9.89062L81.25 9.375Z" fill="#CCD1D9"/>
<path d="M84.375 25V58.0312L75 59.375V70.8281L68.75 62.5L62.5 70.8281V46.875V40.625H59.375V25H62.5H81.25H84.375Z" fill="#E6E9ED"/>
<path d="M62.5 40.625V46.875H37.5V40.625H43.75H59.375H62.5Z" fill="#ECC19C"/>
<path d="M37.5 46.875H62.5V70.8281L59.375 75V96.875H43.75V62.5V56.25H40.625C40.625 53.4844 39.4219 50.9844 37.5 49.2813V46.875Z" fill="#F0D0B4"/>
<path d="M96.875 96.875H78.125V75L75 70.8281V59.375L84.375 58.0312L96.875 56.25V96.875Z" fill="#ECC19C"/>
<path d="M75 70.8281L78.125 75H59.375L62.5 70.8281L68.75 62.5L75 70.8281Z" fill="#FCD770"/>
<path d="M59.375 75H78.125V96.875H59.375V75Z" fill="#FFEAA7"/>
<path d="M40.625 56.25H6.25C6.25 52.1719 8.85938 48.6875 12.5 47.4219C13.4844 47.0625 14.5312 46.875 15.625 46.875H31.25C33.6562 46.875 35.8438 47.7813 37.5 49.2813C39.4219 50.9844 40.625 53.4844 40.625 56.25Z" fill="#AAB2BD"/>
<path d="M43.75 56.25V62.5H3.125V56.25H6.25H40.625H43.75Z" fill="#CCD1D9"/>
<path d="M3.125 62.5H43.75V96.875H3.125V62.5Z" fill="#E6E9ED"/>
<path d="M9.375 68.75H37.5V96.875H9.375V68.75Z" fill="#69D6F4"/>
<path d="M64.0625 79.6875H67.1875V92.1875H64.0625V79.6875Z" fill="black"/>
<path d="M70.3125 79.6875H73.4375V92.1875H70.3125V79.6875Z" fill="black"/>
<path d="M85.9375 56.2344V23.4375H82.8125V7.52969L79.6875 8.05V4.6875H76.5625V8.57188L73.4375 9.09219V1.5625H70.3125V9.61406L67.1875 10.1344V4.6875H64.0625V10.6547L60.9375 11.175V23.4375H57.8125V39.0625H45.3125V17.1875H39.0625V7.8125H35.9375V1.5625H20.3125V7.8125H17.1875V17.1875H10.9375V46.3828C7.7 47.9281 5.34219 51.0109 4.8125 54.6875H1.5625V98.4375H98.4375V54.4484L85.9375 56.2344ZM64.0625 13.8234L79.6875 11.2188V23.4375H64.0625V13.8234ZM60.9375 26.5625H82.8125V56.6813L73.4375 58.0203V66.1469L68.75 59.8969L64.0625 66.1469V39.0625H60.9375V26.5625ZM60.9375 45.3125H39.0625V42.1875H60.9375V45.3125ZM60.9375 76.5625H76.5625V95.3125H60.9375V76.5625ZM62.5 73.4375L68.75 65.1047L75 73.4375H62.5ZM23.4375 4.6875H32.8125V7.8125H23.4375V4.6875ZM20.3125 10.9375H35.9375V17.1875H20.3125V10.9375ZM14.0625 20.3125H42.1875V39.0625H35.9375V46.3828C34.5141 45.7047 32.9281 45.3125 31.25 45.3125H15.625C15.0938 45.3125 14.575 45.3641 14.0625 45.4375V20.3125ZM15.625 48.4375H31.25C35.0219 48.4375 38.1781 51.1266 38.9047 54.6875H7.97031C8.69687 51.1266 11.8531 48.4375 15.625 48.4375ZM42.1875 57.8125V60.9375H4.6875V57.8125H42.1875ZM35.9375 85.9375H29.6875V79.6875H35.9375V85.9375ZM26.5625 85.9375H20.3125V79.6875H26.5625V85.9375ZM26.5625 89.0625V95.3125H20.3125V89.0625H26.5625ZM29.6875 89.0625H35.9375V95.3125H29.6875V89.0625ZM35.9375 76.5625H29.6875V70.3125H35.9375V76.5625ZM26.5625 76.5625H20.3125V70.3125H26.5625V76.5625ZM17.1875 76.5625H10.9375V70.3125H17.1875V76.5625ZM10.9375 79.6875H17.1875V85.9375H10.9375V79.6875ZM10.9375 89.0625H17.1875V95.3125H10.9375V89.0625ZM39.0625 95.3125V67.1875H7.8125V95.3125H4.6875V64.0625H42.1875V95.3125H39.0625ZM42.0625 54.6875C41.725 52.3406 40.6469 50.2297 39.0625 48.6109V48.4375H60.9375V70.3125L57.8125 74.4797V95.3125H45.3125V54.6875H42.0625ZM95.3125 95.3125H79.6875V74.4797L76.5625 70.3125V60.7297L95.3125 58.0516V95.3125Z" fill="black"/>
<path d="M48.4375 70.3125H51.5625V73.4375H48.4375V70.3125Z" fill="black"/>
<path d="M48.4375 82.8125H51.5625V85.9375H48.4375V82.8125Z" fill="black"/>
<path d="M48.4375 89.0625H51.5625V92.1875H48.4375V89.0625Z" fill="black"/>
<path d="M48.4375 64.0625H51.5625V67.1875H48.4375V64.0625Z" fill="black"/>
<path d="M48.4375 76.5625H51.5625V79.6875H48.4375V76.5625Z" fill="black"/>
<path d="M48.4375 51.5625H51.5625V54.6875H48.4375V51.5625Z" fill="black"/>
<path d="M48.4375 57.8125H51.5625V60.9375H48.4375V57.8125Z" fill="black"/>
<path d="M54.6875 64.0625H57.8125V67.1875H54.6875V64.0625Z" fill="black"/>
<path d="M54.6875 57.8125H57.8125V60.9375H54.6875V57.8125Z" fill="black"/>
<path d="M54.6875 51.5625H57.8125V54.6875H54.6875V51.5625Z" fill="black"/>
<path d="M89.0625 89.0625H92.1875V92.1875H89.0625V89.0625Z" fill="black"/>
<path d="M89.0625 76.5625H92.1875V79.6875H89.0625V76.5625Z" fill="black"/>
<path d="M89.0625 70.3125H92.1875V73.4375H89.0625V70.3125Z" fill="black"/>
<path d="M89.0625 64.0625H92.1875V67.1875H89.0625V64.0625Z" fill="black"/>
<path d="M89.0625 82.8125H92.1875V85.9375H89.0625V82.8125Z" fill="black"/>
<path d="M82.8125 89.0625H85.9375V92.1875H82.8125V89.0625Z" fill="black"/>
<path d="M82.8125 82.8125H85.9375V85.9375H82.8125V82.8125Z" fill="black"/>
<path d="M82.8125 64.0625H85.9375V67.1875H82.8125V64.0625Z" fill="black"/>
<path d="M82.8125 76.5625H85.9375V79.6875H82.8125V76.5625Z" fill="black"/>
<path d="M82.8125 70.3125H85.9375V73.4375H82.8125V70.3125Z" fill="black"/>
<path d="M29.6875 23.4375H32.8125V26.5625H29.6875V23.4375Z" fill="black"/>
<path d="M17.1875 23.4375H20.3125V26.5625H17.1875V23.4375Z" fill="black"/>
<path d="M23.4375 23.4375H26.5625V26.5625H23.4375V23.4375Z" fill="black"/>
<path d="M35.9375 23.4375H39.0625V26.5625H35.9375V23.4375Z" fill="black"/>
<path d="M17.1875 29.6875H20.3125V32.8125H17.1875V29.6875Z" fill="black"/>
<path d="M23.4375 29.6875H26.5625V32.8125H23.4375V29.6875Z" fill="black"/>
<path d="M35.9375 29.6875H39.0625V32.8125H35.9375V29.6875Z" fill="black"/>
<path d="M29.6875 29.6875H32.8125V32.8125H29.6875V29.6875Z" fill="black"/>
<path d="M17.1875 35.9375H20.3125V39.0625H17.1875V35.9375Z" fill="black"/>
<path d="M29.6875 35.9375H32.8125V39.0625H29.6875V35.9375Z" fill="black"/>
<path d="M23.4375 35.9375H26.5625V39.0625H23.4375V35.9375Z" fill="black"/>
<path d="M70.3125 29.6875H73.4375V32.8125H70.3125V29.6875Z" fill="black"/>
<path d="M76.5625 29.6875H79.6875V32.8125H76.5625V29.6875Z" fill="black"/>
<path d="M64.0625 29.6875H67.1875V32.8125H64.0625V29.6875Z" fill="black"/>
<path d="M64.0625 35.9375H67.1875V39.0625H64.0625V35.9375Z" fill="black"/>
<path d="M76.5625 35.9375H79.6875V39.0625H76.5625V35.9375Z" fill="black"/>
<path d="M70.3125 35.9375H73.4375V39.0625H70.3125V35.9375Z" fill="black"/>
<path d="M70.3125 48.4375H73.4375V51.5625H70.3125V48.4375Z" fill="black"/>
<path d="M70.3125 42.1875H73.4375V45.3125H70.3125V42.1875Z" fill="black"/>
<path d="M70.3125 54.6875H73.4375V57.8125H70.3125V54.6875Z" fill="black"/>
<path d="M76.5625 42.1875H79.6875V45.3125H76.5625V42.1875Z" fill="black"/>
<path d="M76.5625 48.4375H79.6875V51.5625H76.5625V48.4375Z" fill="black"/>
</svg>
