<svg width="100" height="100" viewBox="0 0 100 100" fill="none" xmlns="http://www.w3.org/2000/svg">
<g clip-path="url(#clip0_430_2018)">
<path d="M85.2658 49.3841L80.8033 49.5443C80.2096 49.5657 79.6588 49.8548 79.3053 50.3293L76.1161 54.6181C76.0458 54.7138 75.9638 54.8036 75.8759 54.8856L72.923 57.6159C72.6379 57.8795 72.2805 58.0514 71.8958 58.1119L66.3767 58.9634C65.2635 59.5259 64.9432 60.9671 65.7108 61.9495C66.2615 62.6565 67.1247 63.3224 67.7125 63.7345C68.1168 64.0177 68.3961 64.4454 68.4976 64.9278L42.2181 70.4863L15.043 64.9043L13.7053 62.6584C13.4963 62.3108 13.5217 61.8714 13.7697 61.5491C14.7774 60.2309 15.7871 58.9126 16.7968 57.5944C17.0448 57.2721 17.0702 56.8308 16.8593 56.4812C16.0527 55.1434 15.2481 53.8037 14.4415 52.4639C14.297 52.2257 14.2599 51.9386 14.34 51.671C15.0176 49.3997 15.6934 47.1284 16.3691 44.8591C16.4277 44.6618 16.4238 44.4509 16.3574 44.2576C15.9883 43.1698 15.6192 42.082 15.2501 40.9942C14.8692 39.8732 15.5489 38.6721 16.705 38.4202C18.2049 38.094 19.7067 37.7679 21.2066 37.4417C21.6265 37.3499 21.939 37.0004 21.9819 36.5727C22.1069 35.3442 22.2299 34.1178 22.3549 32.8894L49.2488 28.9006L83.877 32.8894L83.42 39.3595C83.3986 39.6525 83.4454 39.9454 83.5528 40.2188L86.2538 47.0034C86.7207 48.1362 86.2481 49.2318 85.2658 49.3841Z" fill="#D16161"/>
<path d="M40.3164 64.9161L25.7634 69.7385L15.043 64.9044L13.7053 62.6585C13.4963 62.3108 13.5217 61.8714 13.7697 61.5492C14.7774 60.2309 15.7871 58.9127 16.7968 57.5944C17.0448 57.2722 17.0702 56.8308 16.8593 56.4812C16.0527 55.1435 15.2481 53.8037 14.4415 52.464C14.297 52.2257 14.2599 51.9386 14.34 51.6711C15.0176 49.3998 15.6934 47.1285 16.3691 44.8591C16.4277 44.6619 16.4238 44.451 16.3574 44.2576C15.9883 43.1698 15.6192 42.082 15.2501 40.9942C14.8692 39.8732 15.5489 38.6721 16.705 38.4202C18.2049 38.0941 19.7067 37.7679 21.2066 37.4418C21.6265 37.35 21.939 37.0004 21.9819 36.5727C22.1069 35.3443 22.2299 34.1178 22.3549 32.8894L26.9403 25.3174L32.485 32.8894C32.399 34.1276 32.3561 35.3794 32.3561 36.6391C32.3561 47.0035 35.2679 56.6863 40.3164 64.9161Z" fill="#CA4646"/>
<path d="M83.9246 32.239L83.8778 32.8894H32.4855L27.8583 28.0031L22.3555 32.8894C22.8379 28.1144 23.3222 23.3355 23.8065 18.5585C23.8983 17.6445 24.6072 16.9122 25.5193 16.793C27.9527 16.4747 30.3861 16.1544 32.8195 15.8361C32.9542 15.8185 33.0851 15.7716 33.2022 15.7013C35.0419 14.5921 36.8836 13.4808 38.7233 12.3696C39.0318 12.1841 39.2154 11.8462 39.2017 11.4849C39.1041 8.83472 39.0064 6.18259 38.9088 3.53046C38.8561 2.08136 40.3267 1.06778 41.6625 1.63218C43.3264 2.3372 44.9903 3.04222 46.6543 3.74529C46.9531 3.87223 47.1718 4.13588 47.2382 4.45226C47.3886 5.1651 47.5409 5.87793 47.6913 6.59076C47.7987 7.09072 48.2674 7.42858 48.7752 7.36999C50.859 7.12782 52.9428 6.8837 55.0266 6.64154C55.8508 6.54584 56.421 7.44616 55.9816 8.15118L54.0384 11.2701C53.6107 11.9575 54.1439 12.8402 54.9505 12.7817L58.6806 12.5102C58.8154 12.5004 58.9482 12.4633 59.0693 12.4008C62.3268 10.6881 65.5863 8.97728 68.8458 7.26453C69.2169 7.06924 69.6719 7.12978 69.9805 7.41686C73.156 10.3639 76.3335 13.3109 79.5109 16.2599C79.716 16.4493 79.8312 16.7169 79.8273 16.9962C79.7941 20.2498 79.7609 23.5054 79.7258 26.761C79.7258 26.7717 79.7264 26.7834 79.7271 26.7959C79.7389 26.9631 79.8158 27.1192 79.9334 27.2387L83.37 30.7314C83.7626 31.1317 83.9637 31.6805 83.9246 32.239Z" fill="#766D78"/>
<path d="M77.7019 80.3093L71.4016 85.9475C71.1302 86.1897 71.013 86.5607 71.0989 86.9142L72.2824 91.8884C72.6398 93.3922 71.2161 94.7085 69.7455 94.232C68.5562 93.8472 67.3688 93.4645 66.1794 93.0797C65.9548 93.0055 65.7126 93.0172 65.4939 93.1071C63.2324 94.0484 60.9728 94.9917 58.7113 95.933C58.3382 96.0892 57.9262 96.1263 57.5297 96.0404C56.0103 95.7123 54.4909 95.3842 52.9715 95.0561C52.5223 94.9585 52.0673 95.1811 51.8681 95.5951L50.7256 97.9738C50.4834 98.4797 49.8721 98.6828 49.3741 98.423C46.06 96.6947 42.7438 94.9643 39.4277 93.234C39.2929 93.1637 39.1426 93.1246 38.9902 93.1227L26.8525 92.8766C26.3487 92.8668 25.9347 92.4821 25.8858 91.9822C25.7452 90.5389 25.6046 89.0937 25.464 87.6485C25.4464 87.4571 25.4835 87.2657 25.5734 87.0958C27.0732 84.2191 28.5731 81.3444 30.073 78.4696C30.6569 77.3505 30.0593 75.9776 28.8446 75.6417C26.0186 74.8625 23.1946 74.0832 20.3687 73.302C20.1226 73.2337 19.9137 73.0735 19.7828 72.8548L15.043 64.9043L30.0857 72.8798L40.3163 64.9154L68.4976 64.9277C68.4995 64.9355 68.5015 64.9453 68.5034 64.9531L69.3178 69.0993C69.3998 69.5133 69.6127 69.8922 69.9271 70.1734L74.4287 74.2258L77.9421 77.6142C78.5846 78.4344 78.4792 79.614 77.7019 80.3093Z" fill="#FFD064"/>
<path d="M37.8171 12.9164C34.8369 19.0194 32.9718 25.7649 32.4855 32.8894H22.3555C22.8379 28.1144 23.3222 23.3354 23.8065 18.5585C23.8983 17.6445 24.6072 16.9121 25.5193 16.793C27.9527 16.4747 30.3861 16.1544 32.8195 15.8361C32.9542 15.8185 33.0851 15.7716 33.2022 15.7013C34.7392 14.7737 36.2782 13.846 37.8171 12.9164Z" fill="#655E67"/>
<path d="M69.7455 94.232C68.5562 93.8472 67.3688 93.4645 66.1794 93.0797C65.9548 93.0055 65.7126 93.0172 65.4939 93.1071C63.2324 94.0484 60.9728 94.9917 58.7113 95.933C58.3382 96.0892 57.9262 96.1263 57.5297 96.0404C56.0103 95.7123 54.4909 95.3842 52.9715 95.0561C52.5223 94.9585 52.0673 95.1811 51.8681 95.5951L50.7256 97.9738C50.4834 98.4797 49.8721 98.6828 49.3741 98.423C46.06 96.6947 42.7438 94.9643 39.4277 93.234C39.2929 93.1637 39.1426 93.1246 38.9902 93.1227L26.8525 92.8766C26.3487 92.8668 25.9347 92.4821 25.8858 91.9822C25.7452 90.5389 25.6046 89.0937 25.464 87.6485C25.4464 87.4571 25.4835 87.2657 25.5734 87.0958C27.0732 84.2191 28.5731 81.3444 30.073 78.4696C30.6569 77.3505 30.0593 75.9776 28.8446 75.6417C26.0186 74.8625 23.1946 74.0832 20.3687 73.302C20.1226 73.2337 19.9137 73.0735 19.7828 72.8548L15.043 64.9043L40.3163 64.916C47.304 76.3096 58.391 84.9202 71.5227 88.6934C71.7766 89.7577 72.0285 90.824 72.2824 91.8884C72.6398 93.3922 71.2161 94.7085 69.7455 94.232Z" fill="#FFC250"/>
<path d="M87.6152 46.4628L84.9153 39.6772C84.8883 39.6094 84.8768 39.5352 84.8821 39.4624L85.3865 32.343C85.4556 31.3656 85.1014 30.4041 84.4141 29.7052L81.1952 26.432L81.2925 17.0103C81.2995 16.3201 81.0134 15.6551 80.5072 15.1851L78.215 13.0583C77.6221 12.5083 76.6954 12.5431 76.1451 13.1356C75.5949 13.7287 75.6295 14.6554 76.2226 15.2058L78.3609 17.1898L78.2625 26.7464C78.2804 27.2723 78.3705 27.7352 78.7314 28.1043L81.9967 31.4247H38.2915C37.4895 31.4247 36.7901 32.0428 36.7661 32.8445C36.7413 33.674 37.4063 34.3542 38.2302 34.3542H82.3073L81.96 39.2553C81.9237 39.7682 82.0036 40.2824 82.1936 40.7601L84.9684 47.9288L80.7511 48.0796C79.7085 48.1167 78.7535 48.6184 78.1307 49.4557L74.9415 53.7446C74.9217 53.7667 74.902 53.7885 74.8823 53.8104L71.9298 56.5401C71.8585 56.6061 71.7689 56.6492 71.673 56.6641L66.1543 57.515C63.9351 58.085 63.1141 61.1313 64.5575 62.8507C64.7275 63.0682 64.9187 63.2797 65.12 63.4828L59.3502 63.4725H59.3474C58.7229 63.4725 58.1495 63.8615 57.9595 64.4564C57.6362 65.4678 58.3811 66.4002 59.3449 66.4019L67.2995 66.4164L67.8819 69.3812C68.0237 70.1028 68.4027 70.7711 68.9492 71.2631L73.4326 75.2981L76.8288 78.5726C76.9503 78.7812 76.9112 79.0531 76.7271 79.2181L70.4258 84.8559C69.7534 85.4578 69.4655 86.3769 69.6747 87.2543L70.8588 92.2276C70.9027 92.6935 70.6582 92.9197 70.1971 92.8388L66.6322 91.6856C66.0756 91.5055 65.4721 91.5303 64.9321 91.7551L58.1491 94.5815C58.0514 94.6223 57.9446 94.6324 57.8413 94.6096L53.2817 93.6237C52.1666 93.3835 51.043 93.9325 50.5491 94.9613L49.6191 96.8987L40.1066 91.9354C39.7734 91.7618 39.3987 91.6659 39.021 91.6579L36.2657 91.6024C36.2558 91.602 36.2456 91.602 36.2357 91.602C35.4219 91.602 34.7575 92.2686 34.7717 93.0933C34.7854 93.8907 35.4693 94.5162 36.2667 94.5322L38.8509 94.5844L48.6989 99.7228C49.0514 99.9066 49.4436 100 49.8367 100C50.0978 100 50.3595 99.9588 50.6101 99.8754C51.2377 99.6664 51.7619 99.2043 52.048 98.6081L53.0282 96.5663L57.2224 97.4732C57.9136 97.6222 58.6235 97.558 59.276 97.2857L65.8973 94.527L69.2954 95.6263C71.7486 96.5157 74.4011 94.0643 73.7088 91.5493L72.5901 86.8507L78.6806 81.4015C80.0344 80.1901 80.2129 78.1152 79.0814 76.69C79.0444 76.6437 79.0036 76.6001 78.9609 76.5591L75.4479 73.1719C75.4358 73.1602 75.4235 73.1488 75.4112 73.1375L70.9092 69.0857C70.8307 69.015 70.7772 68.9207 70.7566 68.817L69.9425 64.6718C69.7638 63.8072 69.2816 63.0415 68.5547 62.5351C67.804 62.0087 67.2046 61.4807 66.8669 61.0483C66.7583 60.8665 66.7296 60.7417 66.7634 60.6194C66.8068 60.463 66.9527 60.3563 67.113 60.3315L72.12 59.5595C72.7954 59.4554 73.4178 59.1551 73.9191 58.6912L76.8708 55.9624C77.0255 55.8196 77.1678 55.6608 77.2938 55.4917L80.4818 51.2044C80.5703 51.0854 80.708 51.013 80.8562 51.0077C81.1242 50.9903 85.1645 50.8679 85.4605 50.8362C86.3282 50.7116 87.0745 50.1998 87.5047 49.4358C87.9953 48.5634 88.033 47.4732 87.6152 46.4628Z" fill="black"/>
<path d="M29.2341 74.2308L20.9434 71.9409L17.596 66.3261L52.6123 66.39H52.615C53.4226 66.39 54.0782 65.736 54.0797 64.928C54.0811 64.1189 53.4267 63.4621 52.6178 63.4606L15.8589 63.4121L15.1271 62.1847L17.9606 58.4856C18.578 57.6796 18.6385 56.5965 18.1147 55.7258L15.804 51.8887L17.7734 45.2771C17.9196 44.7867 17.9099 44.2715 17.7452 43.7862L16.6369 40.5232C16.569 40.1461 16.6582 39.9881 17.0166 39.8521L21.5184 38.8733C22.5601 38.6468 23.3323 37.7818 23.4397 36.721L23.6791 34.3544H31.398C32.2069 34.3544 32.8627 33.6987 32.8627 32.8896C32.8627 32.0805 32.2069 31.4249 31.398 31.4249H23.9756L25.2626 18.7058C25.2868 18.4662 25.4706 18.277 25.7094 18.2457L33.0084 17.2884C33.3471 17.244 33.667 17.1321 33.9584 16.9562L39.4792 13.6244C40.243 13.1639 40.6973 12.3237 40.6646 11.4318L40.3727 3.477C40.4207 3.03329 40.6582 2.86826 41.0902 2.98192L45.856 4.99817L46.2583 6.89469C46.5228 8.14166 47.6777 8.97108 48.944 8.82441L54.2182 8.21099L52.7947 10.496C52.3035 11.2842 52.2967 12.2679 52.7767 13.0631C53.2568 13.8584 54.1305 14.3103 55.057 14.2433L58.7866 13.972C59.125 13.9472 59.449 13.8547 59.7498 13.6969L69.2291 8.71798L71.1461 10.4963C71.7392 11.0467 72.6661 11.0117 73.2161 10.4188C73.7662 9.8257 73.7315 8.89902 73.1383 8.34887L70.9758 6.34259C70.2138 5.63522 69.0838 5.48465 68.1638 5.96859L58.4751 11.0576L55.7741 11.2541L57.225 8.92499C57.7283 8.11705 57.7244 7.11596 57.215 6.31232C56.7059 5.50867 55.8028 5.07785 54.8572 5.18741L49.0347 5.8647L48.6706 4.14824C48.504 3.36412 47.964 2.70949 47.2254 2.39662L42.2319 0.283904C40.0096 -0.737887 37.2803 1.14418 37.4452 3.58422L37.727 11.2603L32.5298 14.3966L25.3286 15.3411C23.7356 15.55 22.5099 16.8124 22.3482 18.4111L20.5598 36.0839L16.3944 36.9895C14.432 37.3701 13.1782 39.5875 13.8631 41.4653L14.9228 44.5854L12.9368 51.2532C12.7402 51.9133 12.8312 52.6304 13.1866 53.2208L15.4388 56.9607L12.606 60.6588C11.9916 61.4613 11.9289 62.5409 12.4464 63.4092L18.5247 73.6046C18.8504 74.1511 19.3674 74.5452 19.9802 74.7143L28.4543 77.0548C28.8217 77.2178 28.906 77.4114 28.7748 77.7916L24.274 86.4181C24.0535 86.8415 23.9611 87.3162 24.0074 87.7906L24.4281 92.1242C24.5484 93.3634 25.5778 94.3168 26.8224 94.3416L29.3747 94.3932C29.3849 94.3936 29.3949 94.3936 29.4048 94.3936C30.2001 94.3936 30.8526 93.7571 30.8688 92.9583C30.885 92.1494 30.2426 91.4807 29.4339 91.4645L27.303 91.4213L26.9367 87.6474L31.3718 79.1466C32.4059 77.2838 31.3013 74.7448 29.2341 74.2308Z" fill="black"/>
</g>
<defs>
<clipPath id="clip0_430_2018">
<rect width="100" height="100" fill="white"/>
</clipPath>
</defs>
</svg>
