<svg width="100" height="100" viewBox="0 0 100 100" fill="none" xmlns="http://www.w3.org/2000/svg">
<g clip-path="url(#clip0_563_6748)">
<path d="M58.5938 7.8125C59.2154 7.8125 59.8116 8.05943 60.2511 8.49897C60.6907 8.93851 60.9376 9.53465 60.9376 10.1563C60.9376 10.7779 60.6907 11.374 60.2511 11.8135C59.8116 12.2531 59.2154 12.5 58.5938 12.5C58.3321 12.5017 58.0723 12.454 57.8282 12.3594C57.3658 12.2065 56.9638 11.9109 56.6802 11.5149C56.3966 11.119 56.246 10.6433 56.2501 10.1563C56.2497 9.84835 56.31 9.54339 56.4276 9.25885C56.5453 8.97431 56.7179 8.71577 56.9356 8.49805C57.1533 8.28033 57.4119 8.10771 57.6964 7.99007C57.981 7.87243 58.2859 7.81209 58.5938 7.8125Z" fill="#965353"/>
<path d="M42.1719 12.3594C41.9278 12.454 41.668 12.5017 41.4063 12.5C40.9427 12.5 40.4896 12.3625 40.1041 12.105C39.7187 11.8475 39.4183 11.4814 39.2409 11.0532C39.0635 10.6249 39.0171 10.1537 39.1075 9.69901C39.198 9.24437 39.4212 8.82675 39.749 8.49897C40.0767 8.17119 40.4944 7.94797 40.949 7.85754C41.4037 7.7671 41.8749 7.81352 42.3032 7.99091C42.7314 8.1683 43.0975 8.46871 43.355 8.85413C43.6125 9.23956 43.75 9.6927 43.75 10.1563C43.7541 10.6433 43.6035 11.119 43.3199 11.5149C43.0363 11.9109 42.6343 12.2065 42.1719 12.3594Z" fill="#965353"/>
<path d="M58.5938 7.8125C58.2858 7.81209 57.9809 7.87243 57.6963 7.99007C57.4118 8.10771 57.1533 8.28033 56.9355 8.49805C56.7178 8.71577 56.5452 8.97431 56.4276 9.25885C56.3099 9.54339 56.2496 9.84835 56.25 10.1562C56.2459 10.6433 56.3965 11.119 56.6801 11.5149C56.9637 11.9109 57.3657 12.2065 57.8281 12.3594L57.8125 12.3906L56.25 15.625H43.75L42.1875 12.3906L42.1719 12.3594C42.6343 12.2065 43.0363 11.9109 43.3199 11.5149C43.6035 11.119 43.7541 10.6433 43.75 10.1562C43.7504 9.84835 43.6901 9.54339 43.5724 9.25885C43.4548 8.97431 43.2822 8.71577 43.0644 8.49805C42.8467 8.28033 42.5882 8.10771 42.3037 7.99007C42.0191 7.87243 41.7142 7.81209 41.4062 7.8125L43.75 6.25L44.5312 4.6875L45.3125 3.125H54.6875L55.4688 4.6875L56.25 6.25L58.5938 7.8125Z" fill="#844747"/>
<path d="M74.6094 34.375C75.8875 36.208 76.5695 38.3904 76.5625 40.625V68.75C76.5625 85.1562 64.6875 98.4375 50 98.4375V34.375C50 34.375 57.8125 29.6875 65.625 29.6875C67.5461 29.6821 69.4339 30.1891 71.0938 31.1562C72.4868 31.9593 73.6869 33.058 74.6094 34.375Z" fill="#844747"/>
<path d="M34.3751 29.6875C42.1876 29.6875 50.0001 34.375 50.0001 34.375V98.4375C35.3126 98.4375 23.4376 85.1562 23.4376 68.75V40.625C23.4305 38.3904 24.1125 36.208 25.3907 34.375C26.3132 33.058 27.5132 31.9593 28.9063 31.1562C30.5662 30.1891 32.454 29.6821 34.3751 29.6875Z" fill="#965353"/>
<path d="M28.9062 31.1563C31.7344 23.9063 36.9375 19.4844 43.5625 15.625H56.4375C63.0625 19.4844 68.2812 23.9063 71.0938 31.1563C69.4339 30.1891 67.5461 29.6821 65.625 29.6875C57.8125 29.6875 50 34.375 50 34.375C50 34.375 42.1875 29.6875 34.375 29.6875C32.4539 29.6821 30.5661 30.1891 28.9062 31.1563Z" fill="#773E3E"/>
<path d="M71.0981 32.7133C70.7835 32.7132 70.4762 32.6183 70.2165 32.4407C69.9568 32.2632 69.7567 32.0115 69.6424 31.7184C67.3078 25.7339 63.1238 21.3241 55.6516 16.9754C55.4742 16.8722 55.319 16.7351 55.1946 16.5719C55.0703 16.4087 54.9793 16.2226 54.9269 16.0242C54.8744 15.8258 54.8616 15.6191 54.8891 15.4157C54.9166 15.2124 54.9838 15.0165 55.087 14.8391C55.1902 14.6618 55.3273 14.5065 55.4905 14.3822C55.6537 14.2578 55.8398 14.1669 56.0382 14.1144C56.2366 14.062 56.4433 14.0492 56.6466 14.0766C56.85 14.1041 57.0459 14.1714 57.2232 14.2746C62.9621 17.6147 69.2701 22.1634 72.5537 30.5832C72.7043 30.9692 72.6953 31.3993 72.5287 31.7787C72.3622 32.1582 72.0517 32.4559 71.6657 32.6065C71.4849 32.6774 71.2923 32.7136 71.0981 32.7133Z" fill="black"/>
<path d="M76.5625 42.1875C76.3573 42.1876 76.154 42.1473 75.9644 42.0688C75.7748 41.9903 75.6025 41.8752 75.4574 41.7301C75.3123 41.585 75.1972 41.4127 75.1187 41.2231C75.0402 41.0335 74.9999 40.8302 75 40.625C74.9973 38.1394 74.0087 35.7564 72.2511 33.9989C70.4936 32.2413 68.1106 31.2527 65.625 31.25C65.2106 31.25 64.8132 31.0854 64.5201 30.7924C64.2271 30.4993 64.0625 30.1019 64.0625 29.6875C64.0625 29.2731 64.2271 28.8757 64.5201 28.5826C64.8132 28.2896 65.2106 28.125 65.625 28.125C68.939 28.1288 72.1163 29.447 74.4596 31.7904C76.803 34.1337 78.1212 37.311 78.125 40.625C78.1251 40.8302 78.0848 41.0335 78.0063 41.2231C77.9278 41.4127 77.8127 41.585 77.6676 41.7301C77.5225 41.8752 77.3502 41.9903 77.1606 42.0688C76.971 42.1473 76.7677 42.1876 76.5625 42.1875Z" fill="black"/>
<path d="M76.5625 70.3125C76.3573 70.3126 76.154 70.2723 75.9644 70.1938C75.7748 70.1153 75.6025 70.0002 75.4574 69.8551C75.3123 69.71 75.1972 69.5377 75.1187 69.3481C75.0402 69.1585 74.9999 68.9552 75 68.75V40.625C75 40.2106 75.1646 39.8132 75.4576 39.5201C75.7507 39.2271 76.1481 39.0625 76.5625 39.0625C76.9769 39.0625 77.3743 39.2271 77.6674 39.5201C77.9604 39.8132 78.125 40.2106 78.125 40.625V68.75C78.1251 68.9552 78.0848 69.1585 78.0063 69.3481C77.9278 69.5377 77.8127 69.71 77.6676 69.8551C77.5225 70.0002 77.3502 70.1153 77.1606 70.1938C76.971 70.2723 76.7677 70.3126 76.5625 70.3125Z" fill="black"/>
<path d="M50 100C49.5856 100 49.1882 99.8354 48.8951 99.5424C48.6021 99.2493 48.4375 98.8519 48.4375 98.4375C48.4375 98.0231 48.6021 97.6257 48.8951 97.3326C49.1882 97.0396 49.5856 96.875 50 96.875C63.7848 96.875 75 84.2575 75 68.75C75 68.3356 75.1646 67.9382 75.4576 67.6451C75.7507 67.3521 76.1481 67.1875 76.5625 67.1875C76.9769 67.1875 77.3743 67.3521 77.6674 67.6451C77.9604 67.9382 78.125 68.3356 78.125 68.75C78.125 85.9818 65.5075 100 50 100Z" fill="black"/>
<path d="M50.0027 35.9375C49.661 35.9376 49.3287 35.8257 49.0566 35.619C48.7846 35.4122 48.5878 35.122 48.4964 34.7927C48.405 34.4635 48.424 34.1133 48.5506 33.7959C48.6771 33.4785 48.9042 33.2113 49.1971 33.0353C49.5312 32.8354 57.4749 28.125 65.6262 28.125C66.0406 28.125 66.438 28.2896 66.731 28.5826C67.024 28.8757 67.1887 29.2731 67.1887 29.6875C67.1887 30.1019 67.024 30.4993 66.731 30.7924C66.438 31.0854 66.0406 31.25 65.6262 31.25C58.3538 31.25 50.8785 35.6705 50.8038 35.7147C50.5621 35.8607 50.2851 35.9377 50.0027 35.9375Z" fill="black"/>
<path d="M79.6875 62.5H76.5625C76.1481 62.5 75.7507 62.3354 75.4576 62.0424C75.1646 61.7493 75 61.3519 75 60.9375C75 60.5231 75.1646 60.1257 75.4576 59.8326C75.7507 59.5396 76.1481 59.375 76.5625 59.375H79.6875C80.1019 59.375 80.4993 59.5396 80.7924 59.8326C81.0854 60.1257 81.25 60.5231 81.25 60.9375C81.25 61.3519 81.0854 61.7493 80.7924 62.0424C80.4993 62.3354 80.1019 62.5 79.6875 62.5Z" fill="black"/>
<path d="M82.8108 81.25C82.4411 81.2497 82.0835 81.1182 81.8016 80.8791C81.5197 80.6399 81.3318 80.3085 81.2712 79.9438L78.1462 61.1938C78.0782 60.7851 78.1754 60.3661 78.4163 60.029C78.6573 59.6919 79.0222 59.4644 79.431 59.3964C79.8397 59.3284 80.2587 59.4255 80.5958 59.6665C80.9329 59.9074 81.1605 60.2724 81.2285 60.6812L84.3535 79.4312C84.4213 79.8399 84.3241 80.2588 84.0832 80.5959C83.8423 80.933 83.4774 81.1606 83.0687 81.2286C82.9835 81.2433 82.8972 81.2504 82.8108 81.25Z" fill="black"/>
<path d="M95.3117 87.5C95.0697 87.4998 94.831 87.4433 94.6144 87.3352L82.1144 81.0852C81.7447 80.8993 81.4639 80.5743 81.3335 80.1816C81.2031 79.7888 81.2338 79.3604 81.4189 78.9903C81.6039 78.6202 81.9283 78.3386 82.3207 78.2072C82.7131 78.0759 83.1416 78.1056 83.5121 78.2898L96.0121 84.5398C96.3272 84.6972 96.5798 84.9565 96.729 85.2755C96.8782 85.5945 96.9153 85.9545 96.8342 86.2973C96.7531 86.64 96.5586 86.9452 96.2823 87.1636C96.0059 87.3819 95.6639 87.5004 95.3117 87.5Z" fill="black"/>
<path d="M84.3745 40.625C84.141 40.6251 83.9104 40.5724 83.7001 40.4708L73.9253 35.7833C73.7403 35.6946 73.5747 35.5702 73.4378 35.4175C73.3009 35.2647 73.1954 35.0864 73.1274 34.8929C73.0594 34.6993 73.0302 34.4943 73.0414 34.2894C73.0526 34.0846 73.1041 33.8839 73.1929 33.699C73.2816 33.514 73.406 33.3484 73.5588 33.2115C73.7116 33.0746 73.8898 32.9691 74.0834 32.9011C74.4743 32.7637 74.9037 32.7873 75.2772 32.9666L85.052 37.6541C85.3713 37.8074 85.6291 38.0646 85.783 38.3837C85.9369 38.7027 85.9778 39.0646 85.8991 39.4099C85.8203 39.7553 85.6266 40.0636 85.3496 40.2844C85.0725 40.5052 84.7287 40.6252 84.3745 40.625Z" fill="black"/>
<path d="M93.7513 42.1875C93.6649 42.1879 93.5786 42.1808 93.4935 42.1661L84.1185 40.6036C83.7097 40.5357 83.3448 40.3081 83.1038 39.971C82.8629 39.6339 82.7657 39.2149 82.8337 38.8062C82.9017 38.3974 83.1292 38.0324 83.4663 37.7915C83.8034 37.5505 84.2224 37.4534 84.6312 37.5214L94.0062 39.0839C94.3928 39.1482 94.7411 39.3555 94.9821 39.6647C95.223 39.9739 95.3389 40.3623 95.3068 40.753C95.2747 41.1436 95.097 41.5079 94.8089 41.7736C94.5207 42.0394 94.1432 42.1871 93.7513 42.1875Z" fill="black"/>
<path d="M76.5638 6.24996C76.1929 6.24986 75.8342 6.11783 75.5518 5.87749C75.2693 5.63716 75.0816 5.30419 75.0222 4.93813C74.9627 4.57207 75.0354 4.1968 75.2273 3.87943C75.4191 3.56207 75.7176 3.3233 76.0694 3.20584L85.4444 0.0808376C85.8371 -0.049137 86.2652 -0.0180687 86.635 0.167228C87.0048 0.352524 87.286 0.676919 87.4169 1.06926C87.5478 1.46159 87.5177 1.88984 87.3333 2.26005C87.1489 2.63027 86.8252 2.91223 86.4332 3.04409L77.0582 6.16909C76.8988 6.22251 76.7319 6.24982 76.5638 6.24996Z" fill="black"/>
<path d="M65.6445 23.4375C65.2635 23.437 64.8957 23.2974 64.6105 23.0447C64.3253 22.7921 64.1422 22.444 64.0957 22.0658C64.0492 21.6876 64.1425 21.3055 64.358 20.9913C64.5736 20.6771 64.8965 20.4525 65.2661 20.3598L71.4947 18.7973C71.8966 18.6965 72.322 18.7595 72.6774 18.9724C73.0328 19.1853 73.2891 19.5307 73.3898 19.9325C73.4906 20.3344 73.4276 20.7598 73.2147 21.1152C73.0018 21.4706 72.6564 21.7269 72.2546 21.8277L66.026 23.3902C65.9012 23.4217 65.7731 23.4376 65.6445 23.4375Z" fill="black"/>
<path d="M71.8749 21.875C71.723 21.8748 71.5719 21.8527 71.4263 21.8093C71.0295 21.6901 70.6962 21.4182 70.4996 21.0535C70.3031 20.6887 70.2593 20.2608 70.378 19.8638L75.0655 4.23883C75.186 3.84368 75.4581 3.51234 75.8223 3.31727C76.1865 3.12219 76.6131 3.07926 77.0088 3.19786C77.4045 3.31646 77.7372 3.58694 77.9341 3.95015C78.1309 4.31336 78.1759 4.73974 78.0593 5.13605L73.3718 20.7611C73.2752 21.083 73.0775 21.3653 72.8078 21.5659C72.5382 21.7666 72.211 21.875 71.8749 21.875Z" fill="black"/>
<path d="M28.9023 32.7133C28.6481 32.7133 28.3978 32.6512 28.173 32.5326C27.9482 32.4139 27.7557 32.2422 27.6123 32.0324C27.4689 31.8225 27.3788 31.5808 27.35 31.3283C27.3211 31.0757 27.3543 30.82 27.4466 30.5832C30.7303 22.1649 37.0383 17.6147 42.7756 14.2746C42.9529 14.1714 43.1488 14.1041 43.3522 14.0766C43.5555 14.0492 43.7623 14.062 43.9606 14.1144C44.159 14.1669 44.3451 14.2578 44.5083 14.3822C44.6715 14.5065 44.8086 14.6618 44.9118 14.8391C45.015 15.0165 45.0823 15.2124 45.1097 15.4157C45.1372 15.6191 45.1244 15.8258 45.072 16.0242C45.0195 16.2226 44.9285 16.4087 44.8042 16.5719C44.6798 16.7351 44.5246 16.8722 44.3472 16.9754C36.875 21.3257 32.6925 25.7339 30.358 31.7184C30.2437 32.0115 30.0436 32.2632 29.7838 32.4407C29.5241 32.6183 29.2169 32.7132 28.9023 32.7133Z" fill="black"/>
<path d="M23.4375 42.1875C23.2323 42.1876 23.029 42.1473 22.8394 42.0688C22.6498 41.9903 22.4775 41.8752 22.3324 41.7301C22.1873 41.585 22.0722 41.4127 21.9937 41.2231C21.9152 41.0335 21.8749 40.8302 21.875 40.625C21.8788 37.311 23.197 34.1337 25.5404 31.7904C27.8837 29.447 31.061 28.1288 34.375 28.125C34.7894 28.125 35.1868 28.2896 35.4799 28.5826C35.7729 28.8757 35.9375 29.2731 35.9375 29.6875C35.9375 30.1019 35.7729 30.4993 35.4799 30.7924C35.1868 31.0854 34.7894 31.25 34.375 31.25C31.8894 31.2527 29.5064 32.2413 27.7489 33.9989C25.9913 35.7564 25.0027 38.1394 25 40.625C25.0001 40.8302 24.9598 41.0335 24.8813 41.2231C24.8028 41.4127 24.6877 41.585 24.5426 41.7301C24.3975 41.8752 24.2252 41.9903 24.0356 42.0688C23.846 42.1473 23.6427 42.1876 23.4375 42.1875Z" fill="black"/>
<path d="M23.4375 70.3125C23.2323 70.3126 23.029 70.2723 22.8394 70.1938C22.6498 70.1153 22.4775 70.0002 22.3324 69.8551C22.1873 69.71 22.0722 69.5377 21.9937 69.3481C21.9152 69.1585 21.8749 68.9552 21.875 68.75V40.625C21.875 40.2106 22.0396 39.8132 22.3326 39.5201C22.6257 39.2271 23.0231 39.0625 23.4375 39.0625C23.8519 39.0625 24.2493 39.2271 24.5424 39.5201C24.8354 39.8132 25 40.2106 25 40.625V68.75C25.0001 68.9552 24.9598 69.1585 24.8813 69.3481C24.8028 69.5377 24.6877 69.71 24.5426 69.8551C24.3975 70.0002 24.2252 70.1153 24.0356 70.1938C23.846 70.2723 23.6427 70.3126 23.4375 70.3125Z" fill="black"/>
<path d="M50 100C34.4925 100 21.875 85.9818 21.875 68.75C21.875 68.3356 22.0396 67.9382 22.3326 67.6451C22.6257 67.3521 23.0231 67.1875 23.4375 67.1875C23.8519 67.1875 24.2493 67.3521 24.5424 67.6451C24.8354 67.9382 25 68.3356 25 68.75C25 84.2575 36.2152 96.875 50 96.875C50.4144 96.875 50.8118 97.0396 51.1049 97.3326C51.3979 97.6257 51.5625 98.0231 51.5625 98.4375C51.5625 98.8519 51.3979 99.2493 51.1049 99.5424C50.8118 99.8354 50.4144 100 50 100Z" fill="black"/>
<path d="M49.9984 35.9375C49.7161 35.9377 49.4391 35.8607 49.1974 35.7147C49.1226 35.6705 41.6473 31.25 34.375 31.25C33.9606 31.25 33.5632 31.0854 33.2701 30.7924C32.9771 30.4993 32.8125 30.1019 32.8125 29.6875C32.8125 29.2731 32.9771 28.8757 33.2701 28.5826C33.5632 28.2896 33.9606 28.125 34.375 28.125C42.5262 28.125 50.47 32.8354 50.8041 33.0353C51.097 33.2113 51.3241 33.4785 51.4506 33.7959C51.5772 34.1134 51.5962 34.4635 51.5048 34.7927C51.4134 35.122 51.2166 35.4122 50.9445 35.619C50.6725 35.8257 50.3401 35.9376 49.9984 35.9375Z" fill="black"/>
<path d="M23.4375 62.5H20.3125C19.8981 62.5 19.5007 62.3354 19.2076 62.0424C18.9146 61.7493 18.75 61.3519 18.75 60.9375C18.75 60.5231 18.9146 60.1257 19.2076 59.8326C19.5007 59.5396 19.8981 59.375 20.3125 59.375H23.4375C23.8519 59.375 24.2493 59.5396 24.5424 59.8326C24.8354 60.1257 25 60.5231 25 60.9375C25 61.3519 24.8354 61.7493 24.5424 62.0424C24.2493 62.3354 23.8519 62.5 23.4375 62.5Z" fill="black"/>
<path d="M17.1887 81.25C17.1023 81.2504 17.0161 81.2433 16.9309 81.2286C16.5222 81.1606 16.1573 80.933 15.9164 80.5959C15.6754 80.2588 15.5782 79.8399 15.6461 79.4312L18.7711 60.6812C18.8391 60.2724 19.0667 59.9074 19.4038 59.6665C19.7409 59.4255 20.1599 59.3284 20.5686 59.3964C20.9773 59.4644 21.3423 59.6919 21.5833 60.029C21.8242 60.3661 21.9214 60.7851 21.8534 61.1938L18.7284 79.9438C18.6678 80.3085 18.4799 80.6399 18.198 80.8791C17.916 81.1183 17.5584 81.2497 17.1887 81.25Z" fill="black"/>
<path d="M4.68944 87.5C4.33726 87.5004 3.99526 87.3819 3.71891 87.1636C3.44256 86.9452 3.24807 86.64 3.16698 86.2973C3.08589 85.9545 3.12297 85.5945 3.27218 85.2755C3.4214 84.9565 3.67402 84.6972 3.98905 84.5398L16.4891 78.2898C16.8596 78.1056 17.2881 78.0759 17.6805 78.2072C18.0729 78.3386 18.3972 78.6202 18.5823 78.9903C18.7674 79.3604 18.7981 79.7888 18.6677 80.1816C18.5373 80.5743 18.2565 80.8993 17.8868 81.0852L5.38677 87.3352C5.17021 87.4433 4.93151 87.4998 4.68944 87.5Z" fill="black"/>
<path d="M15.6262 40.625C15.272 40.6252 14.9282 40.5052 14.6511 40.2844C14.3741 40.0636 14.1804 39.7553 14.1016 39.4099C14.0229 39.0646 14.0638 38.7027 14.2177 38.3837C14.3716 38.0646 14.6294 37.8074 14.9487 37.6541L24.7189 32.9666C25.0924 32.7873 25.5219 32.7637 25.9128 32.9011C26.3036 33.0384 26.624 33.3255 26.8032 33.699C26.9825 34.0725 27.0061 34.502 26.8687 34.8929C26.7314 35.2837 26.4443 35.6041 26.0708 35.7833L16.3006 40.4708C16.0903 40.5724 15.8597 40.6251 15.6262 40.625Z" fill="black"/>
<path d="M6.24821 42.1875C5.85626 42.1871 5.47879 42.0393 5.19066 41.7736C4.90254 41.5079 4.72481 41.1436 4.69274 40.7529C4.66067 40.3623 4.77659 39.9739 5.01752 39.6647C5.25844 39.3555 5.60677 39.1482 5.9934 39.0839L15.3684 37.5214C15.5708 37.4877 15.7778 37.4942 15.9777 37.5406C16.1775 37.5869 16.3663 37.6722 16.5332 37.7915C16.7001 37.9108 16.8419 38.0618 16.9505 38.2359C17.059 38.41 17.1322 38.6038 17.1659 38.8062C17.1996 39.0085 17.193 39.2156 17.1467 39.4154C17.1003 39.6153 17.0151 39.8041 16.8958 39.971C16.7765 40.1379 16.6254 40.2797 16.4513 40.3882C16.2772 40.4968 16.0835 40.57 15.8811 40.6036L6.50609 42.1661C6.42092 42.1808 6.33463 42.1879 6.24821 42.1875Z" fill="black"/>
<path d="M23.4385 6.25001C23.2705 6.24987 23.1035 6.22256 22.9441 6.16914L13.5691 3.04414C13.3741 2.97958 13.1937 2.87719 13.0384 2.74282C12.883 2.60845 12.7556 2.44475 12.6636 2.26108C12.5715 2.07742 12.5166 1.87741 12.502 1.6725C12.4874 1.46759 12.5133 1.2618 12.5784 1.06694C12.6434 0.872066 12.7462 0.691938 12.8809 0.536867C13.0157 0.381795 13.1797 0.254827 13.3636 0.163233C13.5475 0.0716394 13.7476 0.0172191 13.9525 0.00308896C14.1575 -0.0110412 14.3632 0.0153963 14.5579 0.0808876L23.9329 3.20589C24.2847 3.32335 24.5832 3.56212 24.7751 3.87948C24.9669 4.19685 25.0396 4.57212 24.9802 4.93818C24.9207 5.30423 24.733 5.63721 24.4506 5.87754C24.1681 6.11788 23.8094 6.24991 23.4385 6.25001Z" fill="black"/>
<path d="M34.3548 23.4375C34.2262 23.4376 34.098 23.4217 33.9733 23.3902L27.7447 21.8277C27.3428 21.7269 26.9975 21.4706 26.7845 21.1152C26.5716 20.7598 26.5086 20.3344 26.6094 19.9325C26.7102 19.5307 26.9665 19.1853 27.3219 18.9724C27.6773 18.7595 28.1027 18.6965 28.5046 18.7973L34.7332 20.3598C35.1028 20.4525 35.4257 20.6771 35.6412 20.9913C35.8568 21.3055 35.9501 21.6876 35.9036 22.0658C35.8571 22.444 35.674 22.7921 35.3888 23.0447C35.1035 23.2974 34.7358 23.437 34.3548 23.4375Z" fill="black"/>
<path d="M28.1249 21.875C27.7888 21.875 27.4617 21.7667 27.192 21.566C26.9223 21.3653 26.7246 21.0831 26.6281 20.7611L21.9406 5.13611C21.8239 4.73981 21.8689 4.31342 22.0658 3.95021C22.2626 3.587 22.5953 3.31652 22.991 3.19792C23.3867 3.07932 23.8133 3.12225 24.1775 3.31733C24.5417 3.5124 24.8138 3.84374 24.9343 4.2389L29.6218 19.8639C29.7405 20.2609 29.6967 20.6888 29.5002 21.0535C29.3036 21.4183 28.9704 21.6902 28.5735 21.8094C28.4279 21.8527 28.2768 21.8748 28.1249 21.875Z" fill="black"/>
<path d="M50 100C49.7948 100 49.5915 99.9598 49.4019 99.8813C49.2123 99.8028 49.04 99.6877 48.8949 99.5426C48.7498 99.3975 48.6347 99.2252 48.5562 99.0356C48.4777 98.846 48.4374 98.6427 48.4375 98.4375V34.375C48.4375 33.9606 48.6021 33.5632 48.8951 33.2701C49.1882 32.9771 49.5856 32.8125 50 32.8125C50.4144 32.8125 50.8118 32.9771 51.1049 33.2701C51.3979 33.5632 51.5625 33.9606 51.5625 34.375V98.4375C51.5626 98.6427 51.5223 98.846 51.4438 99.0356C51.3653 99.2252 51.2502 99.3975 51.1051 99.5426C50.96 99.6877 50.7877 99.8028 50.5981 99.8813C50.4085 99.9598 50.2052 100 50 100Z" fill="black"/>
<path d="M41.4063 14.0625C40.6337 14.0625 39.8784 13.8334 39.2361 13.4042C38.5937 12.975 38.093 12.3649 37.7973 11.6511C37.5017 10.9373 37.4243 10.1519 37.5751 9.39418C37.7258 8.63644 38.0978 7.94042 38.6441 7.39412C39.1904 6.84782 39.8864 6.47578 40.6442 6.32506C41.4019 6.17434 42.1873 6.25169 42.9011 6.54735C43.6149 6.843 44.225 7.34368 44.6542 7.98606C45.0834 8.62844 45.3125 9.38367 45.3125 10.1563C45.3115 11.192 44.8997 12.185 44.1673 12.9173C43.435 13.6497 42.442 14.0615 41.4063 14.0625ZM41.4063 9.375C41.2517 9.375 41.1007 9.42082 40.9722 9.50667C40.8437 9.59251 40.7436 9.71453 40.6845 9.85728C40.6253 10 40.6099 10.1571 40.64 10.3087C40.6702 10.4602 40.7446 10.5994 40.8538 10.7087C40.9631 10.8179 41.1023 10.8923 41.2538 10.9225C41.4054 10.9526 41.5625 10.9372 41.7052 10.878C41.848 10.8189 41.97 10.7188 42.0558 10.5903C42.1417 10.4618 42.1875 10.3108 42.1875 10.1563C42.1871 9.94918 42.1046 9.7507 41.9582 9.60428C41.8118 9.45786 41.6133 9.37542 41.4063 9.375Z" fill="black"/>
<path d="M56.4374 17.1875H43.5605C43.1461 17.1875 42.7487 17.0229 42.4557 16.7299C42.1627 16.4368 41.998 16.0394 41.998 15.625C41.998 15.2106 42.1627 14.8132 42.4557 14.5201C42.7487 14.2271 43.1461 14.0625 43.5605 14.0625H56.4374C56.8518 14.0625 57.2493 14.2271 57.5423 14.5201C57.8353 14.8132 57.9999 15.2106 57.9999 15.625C57.9999 16.0394 57.8353 16.4368 57.5423 16.7299C57.2493 17.0229 56.8518 17.1875 56.4374 17.1875Z" fill="black"/>
<path d="M41.4076 9.37496C41.0722 9.37526 40.7455 9.26759 40.476 9.06787C40.2065 8.86815 40.0084 8.587 39.911 8.26598C39.8136 7.94496 39.8222 7.60113 39.9353 7.28534C40.0485 6.96955 40.2603 6.69856 40.5394 6.51246L42.8832 4.94996C43.0538 4.83362 43.2459 4.75227 43.4482 4.71062C43.6505 4.66898 43.859 4.66785 44.0618 4.70731C44.2645 4.74677 44.4574 4.82604 44.6293 4.94052C44.8012 5.05501 44.9487 5.20244 45.0633 5.37429C45.1779 5.54615 45.2572 5.73901 45.2968 5.94173C45.3364 6.14445 45.3354 6.35301 45.2938 6.55533C45.2523 6.75765 45.171 6.94973 45.0548 7.12045C44.9385 7.29118 44.7896 7.43716 44.6165 7.54996L42.2728 9.11246C42.0166 9.28335 41.7156 9.37467 41.4076 9.37496Z" fill="black"/>
<path d="M43.7488 7.81248C43.4825 7.8123 43.2207 7.74407 42.9883 7.61428C42.7558 7.48449 42.5603 7.29745 42.4205 7.0709C42.2806 6.84435 42.2009 6.58581 42.1891 6.31983C42.1772 6.05385 42.2335 5.78924 42.3526 5.55112L43.9151 2.42612C44.101 2.05644 44.426 1.77561 44.8187 1.64522C45.2115 1.51483 45.6399 1.54553 46.01 1.73059C46.3801 1.91566 46.6617 2.23997 46.793 2.63238C46.9244 3.0248 46.8947 3.45328 46.7105 3.82384L45.148 6.94884C45.0181 7.20861 44.8183 7.42703 44.5712 7.57958C44.324 7.73213 44.0392 7.81279 43.7488 7.81248Z" fill="black"/>
<path d="M44.5326 6.24998C44.3504 6.24977 44.1697 6.21775 43.9985 6.15537L35.4048 3.03037C35.2115 2.96062 35.0339 2.85342 34.8821 2.71492C34.7304 2.57642 34.6074 2.40934 34.5203 2.22325C34.4332 2.03715 34.3837 1.83571 34.3746 1.63044C34.3655 1.42518 34.3969 1.22013 34.4672 1.02705C34.5374 0.833969 34.6451 0.656642 34.784 0.505229C34.9229 0.353815 35.0903 0.231291 35.2766 0.144673C35.4629 0.0580545 35.6645 0.00904505 35.8697 0.000451406C36.075 -0.00814223 36.28 0.0238488 36.4729 0.0945921L45.0666 3.21959C45.4118 3.34523 45.7016 3.58843 45.8852 3.90649C46.0688 4.22455 46.1345 4.59713 46.0708 4.95881C46.007 5.3205 45.8179 5.64817 45.5366 5.88429C45.2553 6.12041 44.8998 6.24989 44.5326 6.24998Z" fill="black"/>
<path d="M43.751 17.1875C43.4569 17.1879 43.1686 17.1052 42.9194 16.9489C42.6702 16.7925 42.4703 16.569 42.3426 16.304L40.7801 13.063C40.6903 12.8782 40.6379 12.6775 40.6258 12.4723C40.6137 12.2672 40.6421 12.0617 40.7096 11.8676C40.777 11.6735 40.8821 11.4946 41.0188 11.3412C41.1555 11.1877 41.3211 11.0628 41.5062 10.9735C41.6912 10.8841 41.8921 10.8322 42.0973 10.8207C42.3024 10.8091 42.5079 10.8381 42.7018 10.9061C42.8957 10.974 43.0743 11.0796 43.2274 11.2167C43.3805 11.3537 43.505 11.5197 43.5938 11.705L45.1563 14.946C45.2456 15.1307 45.2976 15.3312 45.3093 15.5361C45.3211 15.7409 45.2923 15.9461 45.2247 16.1398C45.1571 16.3335 45.052 16.512 44.9154 16.6651C44.7788 16.8182 44.6133 16.9428 44.4285 17.0319C44.2175 17.1347 43.9857 17.1879 43.751 17.1875Z" fill="black"/>
<path d="M58.5938 14.0625C57.8212 14.0625 57.0659 13.8334 56.4236 13.4042C55.7812 12.975 55.2805 12.3649 54.9848 11.6511C54.6892 10.9373 54.6118 10.1519 54.7626 9.39418C54.9133 8.63644 55.2853 7.94042 55.8316 7.39412C56.3779 6.84782 57.0739 6.47578 57.8317 6.32506C58.5894 6.17434 59.3748 6.25169 60.0886 6.54735C60.8024 6.843 61.4125 7.34368 61.8417 7.98606C62.2709 8.62844 62.5 9.38367 62.5 10.1563C62.499 11.192 62.0872 12.185 61.3548 12.9173C60.6225 13.6497 59.6295 14.0615 58.5938 14.0625ZM58.5938 9.375C58.4392 9.375 58.2882 9.42082 58.1597 9.50667C58.0312 9.59251 57.9311 9.71453 57.872 9.85728C57.8128 10 57.7974 10.1571 57.8275 10.3087C57.8577 10.4602 57.9321 10.5994 58.0413 10.7087C58.1506 10.8179 58.2898 10.8923 58.4413 10.9225C58.5929 10.9526 58.75 10.9372 58.8927 10.878C59.0355 10.8189 59.1575 10.7188 59.2433 10.5903C59.3292 10.4618 59.375 10.3108 59.375 10.1563C59.3746 9.94918 59.2921 9.7507 59.1457 9.60428C58.9993 9.45786 58.8008 9.37542 58.5938 9.375Z" fill="black"/>
<path d="M58.5924 9.37501C58.2844 9.37473 57.9834 9.2834 57.7272 9.1125L55.3835 7.55C55.2107 7.43709 55.062 7.29107 54.946 7.12037C54.83 6.94966 54.7489 6.75767 54.7075 6.55547C54.6661 6.35327 54.6652 6.14487 54.7048 5.94231C54.7444 5.73975 54.8237 5.54704 54.9382 5.37531C55.0527 5.20358 55.2001 5.05624 55.3719 4.94179C55.5436 4.82734 55.7363 4.74806 55.9389 4.70851C56.1415 4.66897 56.3499 4.66995 56.5521 4.7114C56.7543 4.75285 56.9462 4.83394 57.1169 4.95001L59.4607 6.51251C59.7398 6.69861 59.9516 6.9696 60.0647 7.2854C60.1779 7.60119 60.1864 7.94503 60.089 8.26605C59.9917 8.58706 59.7936 8.86822 59.524 9.06793C59.2545 9.26765 58.9279 9.37531 58.5924 9.37501Z" fill="black"/>
<path d="M56.2514 7.81247C55.961 7.81277 55.6762 7.73212 55.429 7.57957C55.1819 7.42701 54.9821 7.20859 54.8522 6.94883L53.2897 3.82383C53.1973 3.64022 53.1421 3.44019 53.1272 3.23521C53.1122 3.03022 53.1379 2.82431 53.2027 2.62925C53.2674 2.43419 53.37 2.25383 53.5046 2.09848C53.6392 1.94313 53.803 1.81586 53.9869 1.72394C54.1707 1.63203 54.3709 1.57728 54.5759 1.56283C54.7809 1.54838 54.9867 1.57451 55.1816 1.63974C55.3766 1.70496 55.5567 1.80799 55.7117 1.94293C55.8667 2.07787 55.9936 2.24206 56.0851 2.42611L57.6476 5.55111C57.7667 5.78922 57.823 6.05383 57.8111 6.31981C57.7992 6.5858 57.7196 6.84433 57.5797 7.07088C57.4399 7.29743 57.2444 7.48448 57.0119 7.61426C56.7795 7.74405 56.5177 7.81228 56.2514 7.81247Z" fill="black"/>
<path d="M55.4682 6.24998C55.1009 6.24989 54.7454 6.12041 54.4641 5.88429C54.1828 5.64817 53.9937 5.3205 53.93 4.95881C53.8662 4.59713 53.9319 4.22455 54.1156 3.90649C54.2992 3.58843 54.589 3.34523 54.9341 3.21959L63.5279 0.0945921C63.7208 0.0238488 63.9257 -0.00814223 64.131 0.000451406C64.3363 0.00904505 64.5379 0.0580545 64.7242 0.144673C64.9105 0.231291 65.0779 0.353815 65.2168 0.505229C65.3557 0.656642 65.4633 0.833969 65.5336 1.02705C65.6038 1.22013 65.6353 1.42518 65.6262 1.63044C65.617 1.83571 65.5675 2.03715 65.4804 2.22325C65.3933 2.40934 65.2704 2.57642 65.1186 2.71492C64.9668 2.85342 64.7892 2.96062 64.596 3.03037L56.0022 6.15537C55.8311 6.21775 55.6503 6.24977 55.4682 6.24998Z" fill="black"/>
<path d="M56.2484 17.1875C56.0137 17.1878 55.7819 17.1346 55.5709 17.0318C55.3861 16.9427 55.2206 16.8181 55.084 16.665C54.9474 16.5119 54.8423 16.3334 54.7747 16.1397C54.7071 15.946 54.6783 15.7408 54.6901 15.536C54.7018 15.3311 54.7538 15.1306 54.8431 14.9459L56.4056 11.7049C56.5863 11.3329 56.9072 11.0477 57.2979 10.912C57.6886 10.7762 58.1172 10.801 58.4897 10.9807C58.8622 11.1605 59.1482 11.4807 59.2849 11.871C59.4217 12.2613 59.3981 12.69 59.2193 13.0629L57.6568 16.3039C57.5291 16.5689 57.3292 16.7925 57.08 16.9488C56.8308 17.1051 56.5426 17.1879 56.2484 17.1875Z" fill="black"/>
<path d="M54.6875 4.6875H45.3125C44.8981 4.6875 44.5007 4.52288 44.2076 4.22985C43.9146 3.93683 43.75 3.5394 43.75 3.125C43.75 2.7106 43.9146 2.31317 44.2076 2.02015C44.5007 1.72712 44.8981 1.5625 45.3125 1.5625H54.6875C55.1019 1.5625 55.4993 1.72712 55.7924 2.02015C56.0854 2.31317 56.25 2.7106 56.25 3.125C56.25 3.5394 56.0854 3.93683 55.7924 4.22985C55.4993 4.52288 55.1019 4.6875 54.6875 4.6875Z" fill="black"/>
</g>
<defs>
<clipPath id="clip0_563_6748">
<rect width="100" height="100" fill="white"/>
</clipPath>
</defs>
</svg>
