<svg width="100" height="100" viewBox="0 0 100 100" fill="none" xmlns="http://www.w3.org/2000/svg">
<g clip-path="url(#clip0_559_2)">
<path fill-rule="evenodd" clip-rule="evenodd" d="M1.95312 97.9404H55.2014H65.6373C74.7391 97.9404 82.44 91.6375 84.5715 83.1969C84.959 81.6777 85.1584 80.0924 85.1584 78.4572C85.1584 74.7947 84.1342 71.3588 82.3516 68.4256C81.6264 67.2324 80.7793 66.1221 79.827 65.1168C76.649 61.7527 72.2865 59.51 67.4256 59.0625L69.175 63.8795C69.6955 65.3213 68.9369 66.9287 67.492 67.4481L57.8311 70.9336C56.3861 71.4529 54.775 70.7016 54.2547 69.2598L51.2098 60.8578C47.4119 61.9129 43.2873 63.4817 38.5537 65.7522C38.7143 64.9678 38.7973 64.1557 38.7973 63.3272C38.7973 56.6211 33.3496 51.1854 26.6285 51.1854C19.9074 51.1854 14.4598 56.6209 14.4598 63.3272C14.4598 66.2824 15.5172 68.9947 17.2832 71.0994C8.67969 74.6512 1.95312 88.1904 1.95312 97.9404ZM63.2789 78.5899C62.1328 79.0041 60.8541 78.4076 60.4389 77.2586L58.1191 70.8508L67.2209 67.575L69.5406 73.9774C69.9559 75.1264 69.3523 76.4024 68.2064 76.8166L65.7428 77.7004L63.2789 78.5899Z" fill="#9EA6BF"/>
<path fill-rule="evenodd" clip-rule="evenodd" d="M51.2096 60.8576L54.2545 69.2596C54.775 70.7014 56.3859 71.4525 57.8309 70.9334L67.4918 67.4479C68.9367 66.9285 69.6953 65.3211 69.1748 63.8793L67.4254 59.0623L64.5854 51.2127L48.209 52.566L51.2096 60.8576Z" fill="#A0E5A5"/>
<path fill-rule="evenodd" clip-rule="evenodd" d="M48.21 52.5662L64.5863 51.2127L59.9969 38.5408L57.1512 39.5682L47.9275 42.8936L45.082 43.9211L48.21 52.5662Z" fill="white"/>
<path fill-rule="evenodd" clip-rule="evenodd" d="M43.625 31.0115L47.9266 42.8936L57.1502 39.5682L52.8484 27.6862L43.625 31.0115Z" fill="white"/>
<path fill-rule="evenodd" clip-rule="evenodd" d="M58.1191 70.8506L60.4389 77.2584C60.8541 78.4074 62.133 79.0039 63.2789 78.5897L65.7426 77.7002L68.2062 76.8164C69.3523 76.4022 69.9557 75.126 69.5404 73.9772L67.2207 67.5748L58.1191 70.8506Z" fill="#D0F2D2"/>
<path d="M19.875 83.0752V85.1578C19.875 86.2363 20.7494 87.1109 21.8281 87.1109C22.9068 87.1109 23.7812 86.2363 23.7812 85.1578V83.0752C23.7812 81.9967 22.9068 81.1221 21.8281 81.1221C20.7494 81.1221 19.875 81.9967 19.875 83.0752Z" fill="black"/>
<path d="M90.6559 81.2436H86.9301C87.0492 80.3312 87.1113 79.4014 87.1113 78.457C87.1113 75.6588 86.5619 72.9213 85.5178 70.3787H95.9352C96.1201 71.6305 96.1455 72.9672 95.9557 74.3935C95.8133 75.4629 96.5648 76.4449 97.634 76.5871C97.7215 76.599 97.8084 76.6045 97.8943 76.6045C98.8584 76.6045 99.6971 75.8906 99.8279 74.9088C100.45 70.233 99.3602 65.8469 96.5879 61.8725C95.0109 59.6115 93.1043 57.8131 91.3738 56.4631C94.7727 53.6113 99.8451 47.7746 99.8451 38.3527C99.8451 28.9324 94.7738 23.0957 91.375 20.2435C93.1041 18.8957 95.0094 17.0986 96.5879 14.8359C99.3604 10.8613 100.451 6.47617 99.8279 1.80234C99.6855 0.733002 98.7018 -0.0187562 97.634 0.124213C96.5646 0.266595 95.8135 1.24882 95.9559 2.31796C96.1459 3.74452 96.1209 5.08105 95.9363 6.33261H80.1562C79.9715 5.08085 79.9461 3.74413 80.1354 2.31679C80.2771 1.24745 79.5252 0.265619 78.4561 0.123822C77.3861 -0.0195375 76.4051 0.733783 76.2631 1.80331C75.6432 6.47773 76.7342 10.8625 79.5061 14.8359C81.0854 17.0998 82.9904 18.8963 84.7195 20.2434C81.3187 23.0947 76.2463 28.9297 76.2463 38.3527C76.2463 47.7752 81.318 53.61 84.7188 56.4615C82.9113 57.868 80.9801 59.7174 79.3975 62.0351C76.3824 59.5111 72.7457 57.8621 68.8588 57.2715L62.4988 39.7154L64.5227 38.9857C65.5373 38.6199 66.0633 37.5006 65.6975 36.4859C65.3314 35.4711 64.2127 34.9459 63.1977 35.3109L59.3561 36.6961C59.3477 36.699 59.3391 36.7008 59.3307 36.7039C59.3227 36.7068 59.3154 36.7105 59.3076 36.7137L58.3227 37.0687L55.3498 28.8574L56.4451 28.4625C57.4598 28.0967 57.9859 26.9773 57.6201 25.9627C57.2543 24.948 56.1354 24.4217 55.1203 24.7877L40.0283 30.2287C39.0137 30.5945 38.4875 31.7139 38.8533 32.7285C39.1402 33.5244 39.8908 34.0197 40.6908 34.0197C40.9107 34.0197 41.1344 33.9824 41.3531 33.9033L42.4516 33.5072L45.4244 41.7189L40.5541 43.475C39.5395 43.8408 39.0135 44.9602 39.3793 45.9748C39.6664 46.7709 40.4168 47.266 41.2168 47.266C41.4367 47.266 41.6604 47.2285 41.8793 47.1496L43.9082 46.4182L48.6713 59.5742C46.1396 60.3717 43.5119 61.3727 40.732 62.5986C40.3514 55.1635 34.1711 49.2312 26.6287 49.2312C18.8418 49.2312 12.5066 55.5543 12.5066 63.3262C12.5066 65.8547 13.1676 68.2709 14.3906 70.3803C6.02266 75.4072 0 88.4361 0 97.9402C0 99.0187 0.874414 99.8934 1.95312 99.8934H23.7053C24.784 99.8934 25.6584 99.0187 25.6584 97.9402C25.6584 96.8617 24.784 95.9871 23.7053 95.9871H3.99844C4.75039 87.7518 10.0164 77.1881 16.8293 73.4797C17.2102 73.8445 17.6135 74.191 18.0393 74.517C18.3936 74.7883 18.8109 74.9195 19.225 74.9195C19.8121 74.9193 20.3928 74.6557 20.7773 74.1533C21.433 73.2967 21.2701 72.0709 20.4135 71.4152C19.827 70.9662 19.301 70.4619 18.8346 69.9156C18.7887 69.8555 18.7402 69.798 18.6885 69.7443C17.2236 67.9502 16.4127 65.707 16.4127 63.3268C16.4127 57.7086 20.9955 53.1381 26.6285 53.1381C32.2615 53.1381 36.8441 57.7086 36.8441 63.3268C36.8441 64.9131 36.4883 66.4322 35.7863 67.8424C35.3059 68.808 35.699 69.9805 36.6646 70.4611C37.6305 70.9426 38.8029 70.5486 39.2834 69.583C39.6809 68.7846 39.9967 67.9609 40.2332 67.1166C43.7262 65.4781 46.9443 64.2051 50.002 63.251L52.4174 69.9227C53.1072 71.8338 54.9104 73.0299 56.8379 73.0498L58.6018 77.9219C58.9799 78.9684 59.7453 79.8057 60.7568 80.2789C61.3213 80.5432 61.9236 80.676 62.5273 80.676C63.0035 80.676 63.4807 80.5932 63.94 80.4271L64.5709 80.2002L66.7186 86.1269C67.0064 86.9213 67.7561 87.4152 68.5549 87.4152C68.7758 87.4152 69.0006 87.3775 69.2201 87.2976C70.2342 86.9303 70.7584 85.8102 70.391 84.7959L68.2463 78.8775L68.8699 78.6531C71.0336 77.8705 72.1582 75.4752 71.3764 73.3115L69.6107 68.4385C70.1227 68.0043 70.5438 67.4648 70.8389 66.8379C71.3791 65.6896 71.4406 64.4033 71.0111 63.2137L70.4289 61.6062C77.8025 63.7232 83.2051 70.5894 83.2051 78.4568C83.2051 79.942 83.0184 81.3844 82.6684 82.7623C82.6648 82.7775 82.6603 82.7926 82.6572 82.808C80.7129 90.3762 73.8195 95.9869 65.6373 95.9869H55.2014C52.7463 95.9869 50.749 93.9935 50.749 91.5432C50.749 89.0961 52.7463 87.1051 55.2014 87.1051C56.2801 87.1051 57.1545 86.2305 57.1545 85.1519C57.1545 84.0734 56.2801 83.1988 55.2014 83.1988C50.5924 83.1988 46.8428 86.942 46.8428 91.5432C46.8428 93.1756 47.316 94.699 48.1299 95.9869H41.2443C40.1656 95.9869 39.2912 96.8615 39.2912 97.94C39.2912 99.0185 40.1656 99.8932 41.2443 99.8932H65.6373C75.1379 99.8932 83.2158 93.702 86.0385 85.1496H90.6559C93.6543 85.1496 96.0938 87.5791 96.0938 90.5654C96.0938 93.5549 93.6543 95.9869 90.6559 95.9869H88.5133C87.4346 95.9869 86.5602 96.8615 86.5602 97.94C86.5602 99.0185 87.4346 99.8932 88.5133 99.8932H90.6559C95.8082 99.8932 100 95.7088 100 90.5654C100 85.4254 95.8082 81.2436 90.6559 81.2436ZM46.1264 32.183L51.6752 30.1824L54.648 38.3939L49.0992 40.3945L46.1264 32.183ZM58.8242 41.0408L61.8803 49.4768L49.5389 50.4967L47.5828 45.0941L58.8242 41.0408ZM50.9166 54.3021L63.2588 53.282L67.3379 64.5424C67.4377 64.8189 67.3598 65.0576 67.3043 65.1752C67.2484 65.2939 67.1127 65.5084 66.8289 65.6105L57.1703 69.0955C56.7391 69.25 56.2451 69.0219 56.091 68.5949L50.9166 54.3021ZM62.4127 76.7412C62.3666 76.7197 62.3053 76.6768 62.2752 76.5934L60.6215 72.0256L66.0482 70.0725L67.7035 74.6408C67.7514 74.773 67.6758 74.9314 67.5449 74.9787L62.615 76.7527C62.532 76.7824 62.4594 76.7633 62.4127 76.7412ZM80.1523 38.3529C80.1523 36.8144 80.3164 35.393 80.5977 34.0805H95.4934C95.7746 35.3932 95.9387 36.8144 95.9387 38.3529C95.9387 39.8914 95.7746 41.3127 95.4934 42.6254H80.5977C80.3164 41.3127 80.1523 39.8914 80.1523 38.3529ZM81.3373 10.2389H94.7551C93.142 13.6898 90.3563 16.2195 88.0475 17.8529C85.7379 16.2209 82.9512 13.692 81.3373 10.2389ZM88.0477 22.5836C89.7687 23.8756 92.4514 26.3492 94.2021 30.174H81.8891C83.6408 26.348 86.3252 23.875 88.0477 22.5836ZM81.8891 46.5316H94.2021C92.4514 50.3566 89.7687 52.8305 88.0477 54.1223C86.3252 52.831 83.6406 50.3578 81.8891 46.5316ZM88.0479 58.8543C90.3559 60.4904 93.1398 63.0225 94.7531 66.4725H83.4156C83.0412 65.9221 82.6398 65.3871 82.2123 64.8695C83.8484 62.2266 86.1031 60.2309 88.0479 58.8543Z" fill="black"/>
<path d="M26.6283 56.1592C23.1092 56.1592 20.2461 59.0154 20.2461 62.5262C20.2461 64.5187 21.1545 66.3629 22.7387 67.5853C23.0941 67.8596 23.5139 67.9924 23.9307 67.9924C24.5152 67.9924 25.0936 67.7311 25.4781 67.2326C26.1373 66.3787 25.9793 65.1523 25.1254 64.4932C24.5068 64.0158 24.1523 63.2988 24.1523 62.5262C24.1523 61.1693 25.2631 60.0654 26.6283 60.0654C27.707 60.0654 28.5814 59.1908 28.5814 58.1123C28.5814 57.0338 27.707 56.1592 26.6283 56.1592Z" fill="black"/>
<path d="M32.4746 95.9871C31.3959 95.9871 30.5215 96.8617 30.5215 97.9402C30.5215 99.0188 31.3959 99.8934 32.4746 99.8934H32.4801C33.5588 99.8934 34.4305 99.0188 34.4305 97.9402C34.4305 96.8617 33.5533 95.9871 32.4746 95.9871Z" fill="black"/>
</g>
<defs>
<clipPath id="clip0_559_2">
<rect width="100" height="100" fill="white"/>
</clipPath>
</defs>
</svg>
