<svg width="100" height="100" viewBox="0 0 100 100" fill="none" xmlns="http://www.w3.org/2000/svg">
<path d="M96.875 78.7188V96.875H87.5V78.125H96.875V78.7188Z" fill="#DFB28B"/>
<path d="M81.25 78.125V96.875H71.875V78.125H78.125H81.25Z" fill="#DFB28B"/>
<path d="M56.25 78.125H65.625V96.875H56.25V78.125Z" fill="#DFB28B"/>
<path d="M40.625 78.125H50V96.875H40.625V78.125Z" fill="#DFB28B"/>
<path d="M25 78.125H34.375V96.875H25V78.125Z" fill="#DFB28B"/>
<path d="M12.5 78.125H18.75V96.875H9.375V78.125H12.5Z" fill="#DFB28B"/>
<path d="M87.5 87.5V96.875H81.25V87.5V78.125H87.5V87.5Z" fill="#D3A06C"/>
<path d="M71.875 87.5V96.875H65.625V87.5V78.125H71.875V87.5Z" fill="#D3A06C"/>
<path d="M56.25 87.5V96.875H50V87.5V78.125H56.25V87.5Z" fill="#D3A06C"/>
<path d="M40.625 87.5V96.875H34.375V87.5V78.125H40.625V87.5Z" fill="#D3A06C"/>
<path d="M25 87.5V96.875H18.75V87.5V78.125H25V87.5Z" fill="#D3A06C"/>
<path d="M9.375 87.5V96.875H3.125V78.125H9.375V87.5Z" fill="#D3A06C"/>
<path d="M31.6719 65.9375C30.7969 64.9531 30.1094 63.7812 29.6875 62.5L28.4219 58.7188C28.0781 57.6563 27.5156 56.7031 26.7969 55.8906C28.5 55.1875 29.6875 53.5156 29.6875 51.5625C29.6875 48.9688 27.5938 46.875 25 46.875C24.9375 46.875 24.8906 46.875 24.8281 46.875L23.4375 34.375H21.2031C20.625 34.375 20.0469 34.5469 19.5469 34.8437L7.8125 42.1875L3.125 34.375L9.15625 21.2969C9.9375 19.625 11 18.0938 12.2812 16.8125C12.7188 16.375 13.1875 15.9531 13.6875 15.5625C15.5938 14.0625 17.8594 13 20.3125 12.5L23.4375 3.125L24.8125 4.5C26.9375 6.625 28.125 9.5 28.125 12.5C32.1406 14.5156 35.2656 17.9531 36.8906 22.1406L42.1875 35.9219C41.6719 37.3438 40.75 38.5781 39.5312 39.4844L37.1875 41.25C36.4062 41.8438 35.9375 42.7656 35.9375 43.75V46.875C35.9375 48.5938 36.6406 50.1563 37.7656 51.2969C38.9062 52.4219 40.4688 53.125 42.1875 53.125C44.1562 53.125 46 52.2031 47.1875 50.625L48.8281 48.4375C49.5938 47.4219 50.6406 46.6562 51.8594 46.25L53.5156 45.7031C55.2656 47.4531 56.25 49.8438 56.25 52.3281V52.3594C56.25 54.5469 57 56.6406 58.375 58.3125L56.25 59.375V60.5625C56.25 64.7969 57.9375 68.875 60.9375 71.875L73.5312 69.9375C74.8594 69.7344 76.0938 69.25 77.1562 68.5469C77.7969 70.2188 78.125 72 78.125 73.8125V78.125H71.875H65.625H56.25C52.4219 76.2031 50 72.2969 50 68.0156V67.1875C50 65.0312 49.125 63.0781 47.7188 61.6562C46.2969 60.25 44.3438 59.375 42.1875 59.375C38.4062 59.375 35.25 62.0625 34.5312 65.625H33.3438C32.7656 65.625 32.1875 65.7344 31.6719 65.9375Z" fill="#CF9E76"/>
<path d="M42.1875 35.9219L36.8906 22.1406C35.2656 17.9531 32.1406 14.5156 28.125 12.5C28.125 9.5 26.9375 6.625 24.8125 4.5L23.4375 3.125C27.7188 3.14062 31.8281 4.39062 35.2969 6.59375C38.7812 8.8125 41.6562 12 43.4688 15.9062L47.9375 25.4844C45.2656 26.4688 43.2656 28.875 42.8906 31.8437L42.5938 34.2031C42.5156 34.7969 42.3906 35.375 42.1875 35.9219Z" fill="#B27946"/>
<path d="M23.4375 3.125L20.3125 12.5C17.8594 13 15.5938 14.0625 13.6875 15.5625C13.1875 15.9531 12.7188 16.375 12.2812 16.8125L7.8125 9.375L9.5625 7.98438C13.4844 4.84375 18.3594 3.125 23.3906 3.125H23.4375Z" fill="#B27946"/>
<path d="M63.5469 31.4375C65.8125 35.2031 69.875 37.5 74.2656 37.5H98.4375V56.25H92C89.3125 56.25 86.9219 54.5312 86.0781 51.9687L85.8594 51.3281C85.1094 49.0937 83.25 47.4844 81.0312 47.0156H81.0156C80.7969 46.2969 80.3906 45.6406 79.875 45.125C79.0312 44.2812 77.8594 43.75 76.5625 43.75C74.5156 43.75 72.7812 45.0469 72.1562 46.875H72.1406H69.3594C66.2969 46.875 63.6875 49.0781 63.1875 52.0938L62.7656 54.6875C62.5937 55.6719 61.9688 56.5156 61.0781 56.9688L58.375 58.3125C57 56.6406 56.25 54.5469 56.25 52.3594V52.3281C56.25 49.8438 55.2656 47.4531 53.5156 45.7031L51.8594 46.25C50.6406 46.6562 49.5938 47.4219 48.8281 48.4375L47.1875 50.625C46 52.2031 44.1562 53.125 42.1875 53.125C40.4688 53.125 38.9063 52.4219 37.7656 51.2969C36.6406 50.1563 35.9375 48.5938 35.9375 46.875V43.75C35.9375 42.7656 36.4062 41.8438 37.1875 41.25L39.5312 39.4844C40.75 38.5781 41.6719 37.3438 42.1875 35.9219C42.3906 35.375 42.5156 34.7969 42.5938 34.2031L42.8906 31.8437C43.2656 28.875 45.2656 26.4687 47.9375 25.4844C48.7813 25.1719 49.6875 25 50.6406 25H51.5625L53.7188 22.125C55.3594 19.9375 56.25 17.2656 56.25 14.5313C56.25 13.4063 57.1562 12.5 58.2812 12.5C58.9687 12.5 59.6094 12.8437 59.9844 13.4062C61.625 15.875 62.5 18.7656 62.5 21.7344V25H61.3125C59.1719 25 57.2031 26.2031 56.25 28.125C56.25 28.9844 56.5938 29.7656 57.1719 30.3281C57.7344 30.9062 58.5156 31.25 59.375 31.25H59.6562C60.8281 31.25 61.9219 30.8906 62.8281 30.25L62.8438 30.2656L63.5469 31.4375Z" fill="#CCD1D9"/>
<path d="M65.625 25L65.1406 26.9688C64.7812 28.3438 63.9531 29.5 62.8281 30.25C61.9219 30.8906 60.8281 31.25 59.6563 31.25H59.375C58.5156 31.25 57.7344 30.9062 57.1719 30.3281C56.5938 29.7656 56.25 28.9844 56.25 28.125C57.2031 26.2031 59.1719 25 61.3125 25H62.5H65.625Z" fill="#AAB2BD"/>
<path d="M50 68.0156C50 72.2969 52.4219 76.2031 56.25 78.125H50H40.625C40.625 76.2031 39.5469 74.4531 37.8281 73.6094L34.375 71.875V67.1875C34.375 66.6562 34.4219 66.125 34.5313 65.625C35.25 62.0625 38.4062 59.375 42.1875 59.375C44.3438 59.375 46.2969 60.25 47.7188 61.6562C49.125 63.0781 50 65.0312 50 67.1875V68.0156Z" fill="#E6E9ED"/>
<path d="M18.75 78.125H12.5V65.625V61.2969C12.5 60.6406 12.5781 60 12.7344 59.375C13.1562 57.6094 14.1563 56.0625 15.5156 54.9531C16.9219 53.7969 18.7031 53.125 20.6719 53.125C22.4375 53.125 24.0938 53.6875 25.4531 54.6719C25.9375 55.0313 26.4062 55.4375 26.7969 55.8906C27.5156 56.7031 28.0781 57.6563 28.4219 58.7188L29.6875 62.5C30.1094 63.7812 30.7969 64.9531 31.6719 65.9375C30.2812 66.4844 29.1875 67.6719 28.7969 69.1719L28.125 71.875H34.375L37.8281 73.6094C39.5469 74.4531 40.625 76.2031 40.625 78.125H34.375H25H18.75Z" fill="#FFEAA7"/>
<path d="M28.7969 69.1719C29.1875 67.6719 30.2813 66.4844 31.6719 65.9375C32.1875 65.7344 32.7656 65.625 33.3438 65.625H34.5313C34.4219 66.125 34.375 66.6562 34.375 67.1875V71.875H28.125L28.7969 69.1719Z" fill="#FF826E"/>
<path d="M25 46.875C27.5938 46.875 29.6875 48.9688 29.6875 51.5625C29.6875 53.5156 28.5 55.1875 26.7969 55.8906C26.4062 55.4375 25.9375 55.0313 25.4531 54.6719C24.0938 53.6875 22.4375 53.125 20.6719 53.125C18.7031 53.125 16.9219 53.7969 15.5156 54.9531C14.625 54.1094 14.0625 52.8906 14.0625 51.5625C14.0625 48.9688 16.1562 46.875 18.75 46.875C19.9531 46.875 21.0469 47.3438 21.875 48.0938C22.6562 47.375 23.6875 46.9219 24.8281 46.875H25Z" fill="#FF826E"/>
<path d="M12.7344 59.375C12.5781 60 12.5 60.6406 12.5 61.2969V65.625H6.25L6.67187 63.9219C7.34375 61.25 9.75 59.375 12.5 59.375H12.7344Z" fill="#FF826E"/>
<path d="M63.1875 52.0938C63.6875 49.0781 66.2969 46.875 69.3594 46.875H72.1406H72.1562C71.9688 47.3594 71.875 47.8906 71.875 48.4375V50.6094C71.875 52.1875 72.6562 53.6406 73.9688 54.5156L76.5625 56.25L79.1562 54.5156C80.4688 53.6406 81.25 52.1875 81.25 50.6094V48.4375C81.25 47.9375 81.1719 47.4531 81.0156 47.0156H81.0312C83.25 47.4844 85.1094 49.0937 85.8594 51.3281L86.0781 51.9687C86.9219 54.5312 89.3125 56.25 92 56.25H98.4375V78.125H87.5H81.25H78.125V73.8125C78.125 72 77.7969 70.2187 77.1563 68.5469C76.0938 69.25 74.8594 69.7344 73.5313 69.9375L60.9375 71.875C57.9375 68.875 56.25 64.7969 56.25 60.5625V59.375L58.375 58.3125L61.0781 56.9687C61.9688 56.5156 62.5937 55.6719 62.7656 54.6875L63.1875 52.0938Z" fill="#ECC19C"/>
<path d="M81.25 48.4375V50.6094C81.25 52.1875 80.4688 53.6406 79.1562 54.5156L76.5625 56.25L73.9688 54.5156C72.6563 53.6406 71.875 52.1875 71.875 50.6094V48.4375C71.875 47.8906 71.9688 47.3594 72.1563 46.875C72.7813 45.0469 74.5156 43.75 76.5625 43.75C77.8594 43.75 79.0312 44.2812 79.875 45.125C80.3906 45.6406 80.7969 46.2969 81.0156 47.0156C81.1719 47.4531 81.25 47.9375 81.25 48.4375Z" fill="#DFB28B"/>
<path d="M68.75 57.8125C69.6129 57.8125 70.3125 57.1129 70.3125 56.25C70.3125 55.3871 69.6129 54.6875 68.75 54.6875C67.8871 54.6875 67.1875 55.3871 67.1875 56.25C67.1875 57.1129 67.8871 57.8125 68.75 57.8125Z" fill="black"/>
<path d="M50 35.9375C50.8629 35.9375 51.5625 35.2379 51.5625 34.375C51.5625 33.5121 50.8629 32.8125 50 32.8125C49.1371 32.8125 48.4375 33.5121 48.4375 34.375C48.4375 35.2379 49.1371 35.9375 50 35.9375Z" fill="black"/>
<path d="M18.75 23.4375C19.6129 23.4375 20.3125 22.7379 20.3125 21.875C20.3125 21.0121 19.6129 20.3125 18.75 20.3125C17.8871 20.3125 17.1875 21.0121 17.1875 21.875C17.1875 22.7379 17.8871 23.4375 18.75 23.4375Z" fill="black"/>
<path d="M40.625 67.1875C41.4879 67.1875 42.1875 66.4879 42.1875 65.625C42.1875 64.7621 41.4879 64.0625 40.625 64.0625C39.7621 64.0625 39.0625 64.7621 39.0625 65.625C39.0625 66.4879 39.7621 67.1875 40.625 67.1875Z" fill="black"/>
<path d="M18.75 60.9375C19.6129 60.9375 20.3125 60.2379 20.3125 59.375C20.3125 58.5121 19.6129 57.8125 18.75 57.8125C17.8871 57.8125 17.1875 58.5121 17.1875 59.375C17.1875 60.2379 17.8871 60.9375 18.75 60.9375Z" fill="black"/>
<path d="M17.1875 67.1875H20.3125V73.4375H17.1875V67.1875Z" fill="black"/>
<path d="M59.6488 29.6875H59.3754V32.8125H59.6488C60.566 32.8125 61.4426 32.6266 62.2582 32.3094C64.7957 36.475 69.3848 39.0625 74.2645 39.0625H98.4379V35.9375H74.2645C70.4457 35.9375 66.8504 33.9031 64.8863 30.6281L64.8582 30.5813C65.7035 29.6984 66.3363 28.6 66.6488 27.3469L67.627 23.4375H64.0629V21.7313C64.0629 18.45 63.1004 15.2719 61.2801 12.5391C60.6113 11.5359 59.491 10.9375 58.2863 10.9375C56.302 10.9375 54.6879 12.5516 54.6879 14.5359C54.6879 16.9172 53.902 19.2797 52.4723 21.1844L50.7816 23.4375H50.6473C50.0129 23.4375 49.3973 23.5109 48.7957 23.6328L44.8816 15.2469C41.002 6.93438 32.5676 1.5625 23.3941 1.5625C18.0316 1.5625 12.7707 3.40781 8.5832 6.75938L5.7707 9.00781L10.352 16.6422C9.31602 17.8422 8.4207 19.1734 7.74414 20.6422L1.36133 34.4703L7.29258 44.3563L20.3816 36.1766C20.6301 36.0203 20.916 35.9391 21.2098 35.9391H22.0395L23.116 45.6234C22.6863 45.7625 22.2676 45.9359 21.8754 46.1656C20.927 45.6094 19.852 45.3125 18.7504 45.3125C15.3035 45.3125 12.5004 48.1156 12.5004 51.5625C12.5004 52.7344 12.841 53.8406 13.4363 54.8094C12.6332 55.7047 11.9957 56.7453 11.566 57.8922C8.4957 58.2734 5.92852 60.4781 5.16133 63.5437L4.24883 67.1875H10.9379V76.5625H1.56289V98.4375H98.4379V76.5625H79.6879V73.8063C79.6879 72.2141 79.4488 70.6484 78.9957 69.1328C81.352 67.1703 82.8129 64.2219 82.8129 60.9375H79.6879C79.6879 64.6875 76.9973 67.8234 73.291 68.3937L61.5066 70.2062C59.1191 67.5516 57.8129 64.1562 57.8129 60.5578V60.3406L61.7754 58.3594C63.1113 57.6922 64.0566 56.4125 64.3035 54.9375L64.7332 52.3547C65.1113 50.0844 67.0566 48.4375 69.3582 48.4375H70.3129V50.6172C70.3129 52.7109 71.3535 54.6547 73.0957 55.8172L76.5629 58.1281L80.0301 55.8172C81.7723 54.6547 82.8129 52.7094 82.8129 50.6172V49.5828C83.5191 50.1656 84.077 50.9234 84.3754 51.8172L84.5941 52.4719C85.6582 55.6656 88.6379 57.8125 92.0051 57.8125H98.4379V54.6875H92.0051C89.9848 54.6875 88.1973 53.4 87.5582 51.4828L87.3395 50.8281C86.5254 48.3891 84.5785 46.4969 82.1598 45.7141C81.1441 43.6344 79.0285 42.1875 76.5629 42.1875C74.2598 42.1875 72.266 43.4531 71.1816 45.3125H69.3566C65.5207 45.3125 62.2801 48.0578 61.6504 51.8406L61.2207 54.4219C61.1379 54.9141 60.8238 55.3406 60.377 55.5625L58.891 56.3062C58.1957 55.1141 57.8129 53.7469 57.8129 52.3203C57.8129 50.2 57.2066 48.175 56.0879 46.4312C59.0082 45.1594 60.9379 42.2953 60.9379 39.0625H57.8129C57.8129 41.1922 56.4551 43.0766 54.4332 43.75L51.3582 44.775C49.8426 45.2797 48.5363 46.2219 47.5801 47.4984L45.9395 49.6859C45.0582 50.8609 43.6551 51.5625 42.1879 51.5625C41.466 51.5625 40.791 51.3859 40.1801 51.0922L44.8551 46.4172L42.6457 44.2078L37.9707 48.8828C37.677 48.2719 37.5004 47.5969 37.5004 46.875V43.75C37.5004 43.2609 37.7332 42.7938 38.1254 42.5L40.4723 40.7406C42.4957 39.2234 43.8363 36.9125 44.1504 34.4031L44.4457 32.0375C44.8348 28.9156 47.502 26.5625 50.6473 26.5625H52.3441L54.9723 23.0594C55.4551 22.4156 55.877 21.7297 56.2426 21.0156L60.9379 22.8078V23.4641C58.3379 23.5953 56.027 25.0781 54.852 27.4266L57.6473 28.825C58.3457 27.4297 59.7473 26.5625 61.3066 26.5625H63.6238L63.6176 26.5891C63.1613 28.4141 61.5301 29.6875 59.6488 29.6875ZM73.4379 48.4375C73.4379 46.7141 74.8395 45.3125 76.5629 45.3125C78.2863 45.3125 79.6879 46.7141 79.6879 48.4375V50.6172C79.6879 51.6641 79.1676 52.6359 78.2957 53.2172L76.5629 54.3719L74.8301 53.2156C73.9582 52.6359 73.4379 51.6625 73.4379 50.6172V48.4375ZM38.3426 21.5859C37.9504 20.5641 37.4707 19.5891 36.9238 18.6609L41.2551 15.0516C41.5379 15.5453 41.8066 16.0484 42.0504 16.5688L43.7191 20.1453L38.7441 22.6328L38.3426 21.5859ZM39.4848 12.4578L35.1129 16.1C34.2066 15.0094 33.1816 14.0234 32.0551 13.15L34.9754 8.28438C36.6691 9.43906 38.1926 10.8422 39.4848 12.4578ZM19.1082 11.1734C19.0926 11.1781 19.077 11.1844 19.0598 11.1891L16.4223 5.91563C17.9707 5.35781 19.5832 4.99219 21.2254 4.81719L19.1082 11.1734ZM29.6082 11.1594C29.3816 8.95781 28.6066 6.87812 27.3379 5.08437C29.0551 5.42344 30.7113 5.97656 32.2707 6.725L29.6082 11.1594ZM10.5348 9.19844C11.4863 8.4375 12.5051 7.77188 13.5691 7.19375L16.1098 12.275C14.8754 12.8531 13.716 13.5656 12.6566 14.4109L9.85508 9.74219L10.5348 9.19844ZM18.7504 48.4375C19.7207 48.4375 20.416 48.8812 20.8301 49.2516L21.8754 50.1938L22.9207 49.2531C23.3348 48.8812 24.0301 48.4375 25.0004 48.4375C26.7238 48.4375 28.1254 49.8391 28.1254 51.5625C28.1254 52.5016 27.7066 53.3641 27.016 53.9469C25.2895 52.4563 23.0691 51.5625 20.6723 51.5625C18.9348 51.5625 17.3066 52.025 15.8926 52.8266C15.7191 52.4328 15.6254 52.0062 15.6254 51.5625C15.6254 49.8391 17.027 48.4375 18.7504 48.4375ZM8.25977 64.0625C8.67227 62.7281 9.68008 61.7031 10.9426 61.2297C10.941 61.2516 10.9379 61.275 10.9379 61.2969V64.0625H8.25977ZM14.0629 61.2969C14.0629 57.6531 17.0285 54.6875 20.6723 54.6875C23.5207 54.6875 26.041 56.5047 26.9426 59.2078L28.2051 62.9953C28.4988 63.8781 28.9066 64.7031 29.3957 65.4797C28.3816 66.3094 27.6191 67.4516 27.2832 68.7969L26.1238 73.4375H34.0051L37.1301 75C37.8207 75.3453 38.3332 75.9047 38.6645 76.5625H14.0629V61.2969ZM30.127 70.3125L30.3176 69.5547C30.6207 68.3375 31.6113 67.4422 32.8145 67.2344V70.3125H30.127ZM51.7082 76.5625H41.991C41.541 74.6922 40.3066 73.0938 38.5301 72.2047L35.9379 70.9094V67.1875C35.9379 63.7406 38.741 60.9375 42.1879 60.9375C45.6348 60.9375 48.4379 63.7406 48.4379 67.1875V68.0125C48.4379 71.2484 49.6426 74.2516 51.7082 76.5625ZM85.9379 95.3125H82.8129V79.6875H85.9379V95.3125ZM73.4379 89.0625H79.6879V95.3125H73.4379V89.0625ZM79.6879 85.9375H73.4379V79.6875H79.6879V85.9375ZM70.3129 95.3125H67.1879V79.6875H70.3129V95.3125ZM17.1879 85.9375H10.9379V79.6875H17.1879V85.9375ZM10.9379 89.0625H17.1879V95.3125H10.9379V89.0625ZM20.3129 79.6875H23.4379V95.3125H20.3129V79.6875ZM32.8129 85.9375H26.5629V79.6875H32.8129V85.9375ZM26.5629 89.0625H32.8129V95.3125H26.5629V89.0625ZM35.9379 79.6875H39.0629V95.3125H35.9379V79.6875ZM48.4379 85.9375H42.1879V79.6875H48.4379V85.9375ZM42.1879 89.0625H48.4379V95.3125H42.1879V89.0625ZM51.5629 79.6875H54.6879V95.3125H51.5629V79.6875ZM57.8129 89.0625H64.0629V95.3125H57.8129V89.0625ZM64.0629 85.9375H57.8129V79.6875H64.0629V85.9375ZM4.68789 79.6875H7.81289V95.3125H4.68789V79.6875ZM89.0629 95.3125V89.0625H95.3129V95.3125H89.0629ZM95.3129 85.9375H89.0629V79.6875H95.3129V85.9375ZM38.5973 38.2406L36.2488 40C35.0754 40.8813 34.3754 42.2828 34.3754 43.75V46.875C34.3754 51.1828 37.8801 54.6875 42.1879 54.6875C44.6332 54.6875 46.9707 53.5187 48.4379 51.5625L50.0801 49.3734C50.6535 48.6078 51.4379 48.0422 52.3473 47.7406L52.9973 47.5234C54.0738 48.8938 54.6879 50.5594 54.6879 52.3672C54.6879 54.2437 55.1785 56.0859 56.0863 57.7109L54.6879 58.4094V60.5578C54.6879 65.25 56.5145 69.6609 59.8332 72.9797L60.3926 73.5391L73.766 71.4813C74.6223 71.35 75.4348 71.1125 76.2035 70.7984C76.4332 71.7812 76.5629 72.7859 76.5629 73.8047V76.5625H56.6691C53.5176 74.8562 51.5629 71.6172 51.5629 68.0125V67.1875C51.5629 62.0172 47.3582 57.8125 42.1879 57.8125C38.1145 57.8125 34.6504 60.4266 33.3598 64.0625H33.3473C32.991 64.0625 32.6426 64.0938 32.3004 64.15C31.8316 63.4875 31.4285 62.7828 31.1691 62.0047L29.9066 58.2172C29.6832 57.5484 29.3723 56.9328 29.0223 56.3438C30.4129 55.1781 31.2504 53.4453 31.2504 51.5625C31.2504 48.5406 29.0941 46.0141 26.2395 45.4375L25.1801 35.9031C28.627 35.725 31.6316 33.4859 32.7332 30.1812L29.7691 29.1922C29.0457 31.3578 27.0285 32.8125 24.7473 32.8125H21.2098C20.3301 32.8125 19.4707 33.0594 18.7254 33.525L8.33477 40.0187L4.89102 34.2797L10.5816 21.9516C12.4645 17.8734 16.2176 14.9141 20.6207 14.0328L21.5098 13.8547L24.1113 6.04844C25.6895 7.83281 26.5629 10.0969 26.5629 12.5V13.4656L27.427 13.8969C31.1082 15.7375 33.9488 18.8656 35.427 22.7062L40.4848 35.8594C40.052 36.7875 39.4238 37.6188 38.5973 38.2406ZM41.6613 30.2141L39.8723 25.5609L45.041 22.9766L45.8723 24.7578C43.8582 25.9563 42.3332 27.8922 41.6613 30.2141ZM57.8129 14.5359C57.8129 14.1172 58.4473 13.9234 58.6801 14.2734C59.7145 15.8266 60.3863 17.5625 60.7082 19.375L57.3504 18.0938C57.6504 16.9344 57.8129 15.7375 57.8129 14.5359Z" fill="black"/>
</svg>
