<svg width="100" height="100" viewBox="0 0 100 100" fill="none" xmlns="http://www.w3.org/2000/svg">
<path d="M87.5 3.125V96.875H12.5V3.125H87.5Z" fill="#D3A06C"/>
<path d="M18.75 9.375H81.25V90.625H18.75V9.375Z" fill="#69D6F4"/>
<path d="M48.2188 9.375H52.1719C53.7187 9.375 55.0469 10.5156 55.2656 12.0625L56.2344 18.8906V18.9063C55.6719 18.7969 55.0938 18.75 54.5 18.75H45.5C45.0469 18.75 44.5938 18.7813 44.1562 18.8438V18.8281L45.125 12.0625C45.3437 10.5156 46.6563 9.375 48.2188 9.375Z" fill="#FCD770"/>
<path d="M37.5 34.375C36.6719 34.375 35.9219 34.7031 35.375 35.2344L35.3594 35.2188L34.7031 32.5781C34.4844 31.7031 34.375 30.7969 34.375 29.875C34.375 26.8125 35.625 24.0312 37.6406 22.0156C39.3594 20.2969 41.625 19.1406 44.1562 18.8438C44.5938 18.7813 45.0469 18.75 45.5 18.75H54.5C55.0938 18.75 55.6719 18.7969 56.2344 18.9063C61.5625 19.7188 65.625 24.3281 65.625 29.875C65.625 30.7969 65.5156 31.7031 65.2969 32.5781L64.6406 35.2188L64.625 35.2344C64.0781 34.7031 63.3281 34.375 62.5 34.375H59.375L50 28.125L40.625 34.375H37.5Z" fill="#656D78"/>
<path d="M62.5 34.375C63.3281 34.375 64.0781 34.7031 64.625 35.2344C65.2344 35.7969 65.625 36.6094 65.625 37.5C65.625 38.3594 65.2812 39.1406 64.7031 39.7031C64.1406 40.2812 63.3594 40.625 62.5 40.625H59.375V34.375H62.5Z" fill="#F0D0B4"/>
<path d="M29.6875 75H42.1875H50L46.8594 77.3594C45.7344 78.2031 44.875 79.3281 44.3437 80.6094C43.25 79.6719 41.9219 79.0156 40.4687 78.7188L37.5 78.125V82.4063V82.4687C36.2656 81.6875 34.8281 81.25 33.3125 81.25H31.25V84.2656C31.25 85.375 31.4844 86.4688 31.9375 87.4531C28.0313 87.0156 25 83.7031 25 79.6875C25 78.3906 25.5312 77.2188 26.375 76.375C27.2187 75.5313 28.3906 75 29.6875 75Z" fill="#FCD770"/>
<path d="M68.75 84.2656V81.25H66.6875C65.1719 81.25 63.7344 81.6875 62.5 82.4687C62.5 82.4531 62.5 82.4219 62.5 82.4063V78.125L59.5312 78.7188C58.0781 79.0156 56.75 79.6719 55.6562 80.6094C55.125 79.3281 54.2656 78.2031 53.1406 77.3594L50 75H51.2969H62.5H68.75H70.3125C72.9062 75 75 77.0938 75 79.6875C75 81.6875 74.25 83.5312 73 84.9062C71.75 86.2969 70.0312 87.2344 68.0781 87.4531H68.0625C68.5156 86.4688 68.75 85.375 68.75 84.2656Z" fill="#FCD770"/>
<path d="M68.75 81.25V84.2656C68.75 85.375 68.5156 86.4688 68.0625 87.4531C67.6875 88.3125 67.1406 89.1094 66.4688 89.7812L65.625 90.625H57.8125L60 88.4375C61.5938 86.8437 62.4844 84.7187 62.5 82.4687C63.7344 81.6875 65.1719 81.25 66.6875 81.25H68.75Z" fill="#CCD1D9"/>
<path d="M54.9375 87.9062C55.7969 86.625 56.25 85.125 56.25 83.5781C56.25 82.5469 56.0469 81.5313 55.6562 80.6094C56.75 79.6719 58.0781 79.0156 59.5312 78.7188L62.5 78.125V82.4063V82.4687C62.4844 84.7187 61.5938 86.8437 60 88.4375L57.8125 90.625H53.125L54.9375 87.9062Z" fill="#CCD1D9"/>
<path d="M42.1875 90.625H34.375L33.5312 89.7812C32.8594 89.1094 32.3125 88.3125 31.9375 87.4531C31.4844 86.4688 31.25 85.375 31.25 84.2656V81.25H33.3125C34.8281 81.25 36.2656 81.6875 37.5 82.4687C37.5156 84.7187 38.4063 86.8437 40 88.4375L42.1875 90.625Z" fill="#CCD1D9"/>
<path d="M45.0625 87.9062L46.875 90.625H42.1875L40 88.4375C38.4063 86.8437 37.5156 84.7187 37.5 82.4687C37.5 82.4531 37.5 82.4219 37.5 82.4063V78.125L40.4687 78.7188C41.9219 79.0156 43.25 79.6719 44.3437 80.6094C43.9531 81.5313 43.75 82.5469 43.75 83.5781C43.75 85.125 44.2031 86.625 45.0625 87.9062Z" fill="#CCD1D9"/>
<path d="M44.3437 80.6094C44.875 79.3281 45.7344 78.2031 46.8594 77.3594L50 75L53.1406 77.3594C54.2656 78.2031 55.125 79.3281 55.6562 80.6094C56.0469 81.5312 56.25 82.5469 56.25 83.5781C56.25 85.125 55.7969 86.625 54.9375 87.9062L53.125 90.625H46.875L45.0625 87.9062C44.2031 86.625 43.75 85.125 43.75 83.5781C43.75 82.5469 43.9531 81.5312 44.3437 80.6094Z" fill="#E6E9ED"/>
<path d="M62.5 75H51.2969C54.0313 75 56.25 72.7813 56.25 70.0469C56.25 68.8281 55.75 67.7188 54.9531 66.9219C54.1562 66.125 53.0469 65.625 51.8281 65.625C50.6562 65.625 49.5312 66.0938 48.7031 66.9219L46.875 68.75H42.1875C39.5938 68.75 37.5 66.6562 37.5 64.0625V59.375C41.5938 59.375 45.625 58.7969 49.5156 57.6875C53.4063 56.5625 57.125 54.9062 60.5937 52.75L62.25 51.7187C66.0938 52.9531 68.75 56.5469 68.75 60.6406V75H62.5Z" fill="#FCD770"/>
<path d="M46.875 46.875H53.125C53.2969 46.875 53.4688 46.875 53.6406 46.8438L54.6875 50L61.4062 51.5C61.6875 51.5625 61.9688 51.6406 62.25 51.7187L60.5937 52.75C57.125 54.9062 53.4062 56.5625 49.5156 57.6875C45.625 58.7969 41.5938 59.375 37.5 59.375V64.0625C37.5 66.6562 39.5938 68.75 42.1875 68.75H46.875L48.7031 66.9219C49.5312 66.0938 50.6562 65.625 51.8281 65.625C53.0469 65.625 54.1562 66.125 54.9531 66.9219C55.75 67.7188 56.25 68.8281 56.25 70.0469C56.25 72.7813 54.0313 75 51.2969 75H50H42.1875C36.1406 75 31.25 70.1094 31.25 64.0625V60.6406C31.25 56.25 34.2969 52.4531 38.5938 51.5L45.3125 50L46.3594 46.8594V46.8438C46.5312 46.875 46.7031 46.875 46.875 46.875Z" fill="#F0D0B4"/>
<path d="M59.375 34.375V40.625C59.375 43.9062 56.8594 46.5938 53.6406 46.8438C53.4688 46.875 53.2969 46.875 53.125 46.875H46.875C46.7031 46.875 46.5312 46.875 46.3594 46.8438C43.1406 46.5938 40.625 43.9062 40.625 40.625V34.375L50 28.125L59.375 34.375Z" fill="#F0D0B4"/>
<path d="M40.625 34.375V40.625H37.5C36.6406 40.625 35.8594 40.2812 35.2969 39.7031C34.7188 39.1406 34.375 38.3594 34.375 37.5C34.375 36.6094 34.7656 35.7969 35.375 35.2344C35.9219 34.7031 36.6719 34.375 37.5 34.375H40.625Z" fill="#F0D0B4"/>
<path d="M82.8125 7.8125H17.1875V92.1875H82.8125V7.8125ZM62.5 39.0625H60.9375V35.9375H62.5C63.3625 35.9375 64.0625 36.6391 64.0625 37.5C64.0625 38.3609 63.3625 39.0625 62.5 39.0625ZM63.7766 32.2L63.5891 32.9531C63.2375 32.8687 62.8766 32.8125 62.5 32.8125H59.8484L50 26.2469L40.1516 32.8125H37.5C37.1234 32.8125 36.7625 32.8687 36.4109 32.9531L36.2219 32.1984C36.0344 31.4438 35.9375 30.6625 35.9375 29.8797C35.9375 24.6047 40.2297 20.3125 45.5047 20.3125H54.4953C59.7703 20.3125 64.0625 24.6047 64.0625 29.8797C64.0625 30.6625 63.9656 31.4438 63.7766 32.2ZM62.3453 76.5625L59.225 77.1859C58.1547 77.4 57.1375 77.8062 56.1953 78.3469C55.7516 77.6891 55.2187 77.0922 54.6156 76.5625H62.3453ZM43.8047 78.3469C42.8625 77.8062 41.8453 77.4 40.775 77.1875L37.6547 76.5625H45.3844C44.7797 77.0922 44.2484 77.6891 43.8047 78.3469ZM35.9375 80.0609C35.0922 79.8141 34.2109 79.6875 33.3187 79.6875H29.6875V84.2641C29.6875 84.5484 29.7031 84.8313 29.7281 85.1109C27.8297 84.0312 26.5625 82.0016 26.5625 79.6875C26.5625 77.9641 27.9641 76.5625 29.6875 76.5625H35.9375V80.0609ZM34.6438 88.6828C33.4625 87.5031 32.8125 85.9344 32.8125 84.2641V82.8125H33.3187C34.2469 82.8125 35.1547 83.025 35.9875 83.4187C36.1953 85.5188 37.0578 87.4734 38.4594 89.0625H35.0234L34.6438 88.6828ZM41.0984 87.3266C39.7859 86.0141 39.0625 84.2672 39.0625 82.4109V80.0312L40.1609 80.2516C40.9969 80.4187 41.7922 80.7453 42.5109 81.1984C42.3047 81.9703 42.1875 82.7688 42.1875 83.5797C42.1875 85.4328 42.7312 87.225 43.7578 88.7656L43.9562 89.0625H42.8344L41.0984 87.3266ZM46.3578 87.0328C45.6734 86.0062 45.3125 84.8141 45.3125 83.5797C45.3125 81.6312 46.2438 79.7703 47.8016 78.6016L50 76.9531L52.1984 78.6031C53.7563 79.7703 54.6875 81.6312 54.6875 83.5797C54.6875 84.8141 54.3266 86.0062 53.6422 87.0312L52.2891 89.0625H47.7109L46.3578 87.0328ZM56.2422 88.7656C57.2687 87.2266 57.8125 85.4328 57.8125 83.5797C57.8125 82.7688 57.6953 81.9703 57.4891 81.1984C58.2062 80.7453 59.0031 80.4187 59.8391 80.2516L60.9375 80.0312V82.4109C60.9375 84.2672 60.2141 86.0141 58.9016 87.3266L57.1656 89.0625H56.0438L56.2422 88.7656ZM64.0125 83.4187C64.8453 83.025 65.7531 82.8125 66.6812 82.8125H67.1875V84.2641C67.1875 85.9344 66.5375 87.5031 65.3562 88.6844L64.9781 89.0625H61.5406C62.9438 87.4734 63.8062 85.5188 64.0125 83.4187ZM66.6812 79.6875C65.7891 79.6875 64.9094 79.8141 64.0625 80.0609V76.5625H70.3125C72.0359 76.5625 73.4375 77.9641 73.4375 79.6875C73.4375 82.0016 72.1703 84.0312 70.2719 85.1109C70.2969 84.8313 70.3125 84.5484 70.3125 84.2641V79.6875H66.6812ZM67.1875 73.4375H64.0625V60.9375H60.9375V73.4375H56.8328C57.4422 72.4469 57.8125 71.2922 57.8125 70.0453C57.8125 66.7453 55.1281 64.0625 51.8313 64.0625C50.2328 64.0625 48.7313 64.6844 47.6016 65.8156L46.2281 67.1875H42.1875C40.4641 67.1875 39.0625 65.7859 39.0625 64.0625V60.9109C46.9844 60.6375 54.6875 58.2875 61.4281 54.075L62.4219 53.4531C65.2828 54.6531 67.1875 57.4375 67.1875 60.6453V73.4375ZM37.5 57.8125H35.9375V64.0625C35.9375 67.5094 38.7406 70.3125 42.1875 70.3125H47.5219L49.8109 68.0234C50.3438 67.4922 51.0781 67.1875 51.8313 67.1875C53.4062 67.1875 54.6875 68.4687 54.6875 70.0453C54.6875 71.9156 53.1641 73.4375 51.2937 73.4375H42.1875C37.0172 73.4375 32.8125 69.2328 32.8125 64.0625V60.6453C32.8125 56.9547 35.3281 53.8187 38.9297 53.0187L46.5141 51.3328L47.4813 48.4375H52.5219L53.4859 51.3344L58.1406 52.3687C51.8422 55.9219 44.7547 57.8125 37.5 57.8125ZM53.125 45.3125H46.875C44.2906 45.3125 42.1875 43.2094 42.1875 40.625V35.2109L50 30.0031L57.8125 35.2109V40.625C57.8125 43.2094 55.7094 45.3125 53.125 45.3125ZM39.0625 39.0625H37.5C36.6375 39.0625 35.9375 38.3609 35.9375 37.5C35.9375 36.6391 36.6375 35.9375 37.5 35.9375H39.0625V39.0625ZM52.1703 10.9375C52.9422 10.9375 53.6078 11.5141 53.7156 12.2797L54.4172 17.1875H45.9688L46.6703 12.2781C46.7781 11.5141 47.4422 10.9375 48.2141 10.9375H52.1703ZM20.3125 10.9375H43.8031C43.7 11.2266 43.6188 11.525 43.575 11.8375L42.7672 17.4938C37.0813 18.75 32.8125 23.8219 32.8125 29.8797C32.8125 30.9187 32.9406 31.9547 33.1922 32.9578L33.6594 34.825C33.1281 35.5859 32.8125 36.5047 32.8125 37.5C32.8125 39.5344 34.1234 41.2531 35.9375 41.9V45.3125H39.0625V42.1875H39.2203C39.775 44.9062 41.7594 47.0859 44.3391 47.9797L44.1094 48.6672L38.2516 49.9688C33.2094 51.0891 29.6875 55.4797 29.6875 60.6453V64.0625C29.6875 67.7969 31.3422 71.1453 33.9469 73.4375H29.6875C26.2406 73.4375 23.4375 76.2406 23.4375 79.6875C23.4375 84.1578 26.5844 87.9125 30.8719 88.8188C30.9172 88.9016 30.9687 88.9812 31.0187 89.0625H20.3125V10.9375ZM79.6875 89.0625H68.9828C69.0312 88.9812 69.0828 88.9016 69.1281 88.8188C73.4156 87.9141 76.5625 84.1578 76.5625 79.6875C76.5625 76.2406 73.7594 73.4375 70.3125 73.4375V60.6453C70.3125 55.4797 66.7906 51.0891 61.7484 49.9688L55.8906 48.6672L55.6609 47.9797C58.2406 47.0859 60.225 44.9078 60.7797 42.1891H60.9375V45.3141H64.0625V41.9016C65.8766 41.2547 67.1875 39.5359 67.1875 37.5016C67.1875 36.5062 66.8719 35.5875 66.3406 34.8281L66.8078 32.9609C67.0594 31.9547 67.1875 30.9187 67.1875 29.8797C67.1875 23.9656 63.1156 18.9984 57.6328 17.5953L56.8109 11.8375C56.7656 11.525 56.6859 11.2266 56.5828 10.9375H79.6875V89.0625Z" fill="black"/>
<path d="M10.9375 1.5625V98.4375H89.0625V1.5625H10.9375ZM85.9375 95.3125H14.0625V4.6875H85.9375V95.3125Z" fill="black"/>
</svg>
