<svg width="100" height="100" viewBox="0 0 100 100" fill="none" xmlns="http://www.w3.org/2000/svg">
<path d="M85.9375 29.6875L74.8906 40.7344C73.5781 37.2031 71.5469 34.0312 68.9531 31.3906C68.8906 31.3281 68.8438 31.2812 68.7812 31.2187L78.125 21.875L85.9375 29.6875Z" fill="#5CD6B3"/>
<path d="M39.375 76.25L26.5625 89.0625L18.75 81.25L32.4375 67.5625C35.0781 70.1406 37.7031 72.7187 39.375 76.25Z" fill="#5CD6B3"/>
<path d="M32.4375 67.5625L18.75 81.25L10.9375 73.4375L25.4219 58.9531C26.7344 61.5938 28.5781 63.7031 30.5469 65.7031C31.1719 66.3281 31.7969 66.9531 32.4375 67.5625Z" fill="#FF826E"/>
<path d="M78.125 21.875L68.7812 31.2188C66.1094 28.5469 62.875 26.4375 59.2656 25.1094L70.3125 14.0625L78.125 21.875Z" fill="#FF826E"/>
<path d="M96.875 14.1719C96.875 17.1094 95.7188 19.9062 93.6406 21.9844L90.625 25L75 9.375L78.0156 6.35938C80.0938 4.28125 82.8906 3.125 85.8281 3.125C88.875 3.125 91.6406 4.35938 93.6406 6.35938C95.6406 8.35938 96.875 11.125 96.875 14.1719Z" fill="#AAB2BD"/>
<path d="M26.5625 89.0625L6.70312 96.7031C6.40625 96.8125 6.07812 96.875 5.76562 96.875C4.3125 96.875 3.125 95.6875 3.125 94.2344C3.125 93.9219 3.1875 93.5937 3.29687 93.2969L10.9375 73.4375L18.75 81.25L26.5625 89.0625Z" fill="#CCD1D9"/>
<path d="M90.625 25L85.9375 29.6875L78.125 21.875L70.3125 14.0625L75 9.375L90.625 25Z" fill="#E6E9ED"/>
<path d="M79.6875 51.6406C79.6875 53.5 80.7969 55.1562 82.5 55.8594C82.5156 55.8594 82.5469 55.875 82.5625 55.875C84.2656 56.5937 86.2344 56.2187 87.5469 54.9062L88.7188 53.7344L93.1406 58.1563L91.9688 59.3281C90.6563 60.6406 90.2813 62.6094 91 64.3125C91 64.3281 91.0156 64.3594 91.0156 64.375C91.7188 66.0781 93.375 67.1875 95.2344 67.1875H96.875V73.4375H95.2344C93.375 73.4375 91.7188 74.5469 91.0156 76.25C91.0156 76.2656 91 76.2969 91 76.3125C90.2813 78.0156 90.6563 79.9844 91.9688 81.2969L93.1406 82.4688L88.7188 86.8906L87.5469 85.7188C86.2344 84.4062 84.2656 84.0313 82.5625 84.75C82.5469 84.75 82.5156 84.7656 82.5 84.7656C80.7969 85.4688 79.6875 87.125 79.6875 88.9844V90.625H73.4375V88.9844C73.4375 87.125 72.3281 85.4688 70.625 84.7656C70.6094 84.7656 70.5781 84.75 70.5625 84.75C68.8594 84.0313 66.8906 84.4062 65.5781 85.7188L64.4063 86.8906L60.4531 82.9375C60.7656 82.4531 60.9375 81.875 60.9375 81.25C60.9375 80.2188 60.4219 79.2813 59.6406 78.7188C61.1562 73.8438 64.375 70.6719 67.6094 67.5313C67.3438 68.4219 67.1875 69.3438 67.1875 70.3125C67.1875 75.4844 71.3906 79.6875 76.5625 79.6875C81.7344 79.6875 85.9375 75.4844 85.9375 70.3125C85.9375 65.1406 81.7344 60.9375 76.5625 60.9375C75.2813 60.9375 74.0625 61.2031 72.9531 61.6562C75.0625 58.7031 76.5625 55.0938 76.5625 50H79.6875V51.6406Z" fill="#FFC729"/>
<path d="M76.5625 60.9375C81.7344 60.9375 85.9375 65.1406 85.9375 70.3125C85.9375 75.4844 81.7344 79.6875 76.5625 79.6875C71.3906 79.6875 67.1875 75.4844 67.1875 70.3125C67.1875 69.3438 67.3438 68.4219 67.6094 67.5313V67.5156C69.5 65.6875 71.3906 63.8437 72.9531 61.6562C74.0625 61.2031 75.2812 60.9375 76.5625 60.9375ZM79.6875 70.3125C79.6875 68.5938 78.2812 67.1875 76.5625 67.1875C74.8438 67.1875 73.4375 68.5938 73.4375 70.3125C73.4375 72.0312 74.8438 73.4375 76.5625 73.4375C78.2812 73.4375 79.6875 72.0312 79.6875 70.3125Z" fill="#FCD770"/>
<path d="M50 96.875C46.3281 96.875 43.125 94.375 42.2344 90.8125L42.1875 90.625H57.8125L57.7656 90.8125C57.3125 92.5937 56.2969 94.1094 54.9219 95.1875C53.5625 96.25 51.8438 96.875 50 96.875Z" fill="#AAB2BD"/>
<path d="M57.8125 84.375C59.5312 84.375 60.9375 85.7812 60.9375 87.5C60.9375 88.3594 60.5938 89.1406 60.0156 89.7031C59.4531 90.2812 58.6719 90.625 57.8125 90.625H42.1875C40.4688 90.625 39.0625 89.2188 39.0625 87.5C39.0625 86.6406 39.4063 85.8594 39.9844 85.2969C40.5469 84.7188 41.3281 84.375 42.1875 84.375H57.8125Z" fill="#CCD1D9"/>
<path d="M60.9375 81.25C60.9375 81.875 60.7656 82.4531 60.4531 82.9375C60.3281 83.125 60.1719 83.2969 60.0156 83.4531C59.4531 84.0312 58.6719 84.375 57.8125 84.375H42.1875C40.4688 84.375 39.0625 82.9688 39.0625 81.25C39.0625 80.3906 39.4063 79.6094 39.9844 79.0469C40.0938 78.9219 40.2187 78.8125 40.3594 78.7188C40.875 78.3438 41.5 78.125 42.1875 78.125H50H57.8125C58.5 78.125 59.125 78.3438 59.6406 78.7188C60.4219 79.2813 60.9375 80.2188 60.9375 81.25Z" fill="#CCD1D9"/>
<path d="M74.8906 40.7344C73.5781 37.2031 71.5469 34.0312 68.9531 31.3906C68.8906 31.3281 68.8438 31.2812 68.7812 31.2187C66.1094 28.5469 62.875 26.4375 59.2656 25.1094C56.5312 24.0781 53.5938 23.5 50.5156 23.4375H50.5C51.1875 24.8594 51.5625 26.4375 51.5625 28.125C51.5625 29.3438 51.3594 30.5312 50.9844 31.625V31.6406C51.6563 31.3906 52.375 31.25 53.125 31.25C56.5781 31.25 59.375 34.0469 59.375 37.5C59.375 40.9531 56.5781 43.75 53.125 43.75H43.75H24.1719C23.6875 45.75 23.4375 47.8438 23.4375 50C23.4375 53.6562 24.2031 56.5312 25.4219 58.9531C26.7344 61.5938 28.5781 63.7031 30.5469 65.7031C31.1719 66.3281 31.7969 66.9531 32.4375 67.5625C35.0781 70.1406 37.7031 72.7188 39.375 76.25C39.7656 77.0156 40.0938 77.8438 40.3594 78.7188C40.875 78.3438 41.5 78.125 42.1875 78.125H50H57.8125C58.5 78.125 59.125 78.3438 59.6406 78.7188C61.1562 73.8438 64.375 70.6719 67.6094 67.5312V67.5156C69.5 65.6875 71.3906 63.8438 72.9531 61.6562C75.0625 58.7031 76.5625 55.0938 76.5625 50C76.5625 46.7344 75.9688 43.6094 74.8906 40.7344Z" fill="#FFEAA7"/>
<path d="M36.4062 18.0312C37.7031 17.4844 39.125 17.1875 40.625 17.1875C45 17.1875 48.75 19.7344 50.5 23.4375C51.1875 24.8594 51.5625 26.4375 51.5625 28.125C51.5625 29.3438 51.3594 30.5312 50.9844 31.625V31.6406C51.6562 31.3906 52.375 31.25 53.125 31.25C56.5781 31.25 59.375 34.0469 59.375 37.5C59.375 40.9531 56.5781 43.75 53.125 43.75H43.75H24.1719H10.9375C6.625 43.75 3.125 40.25 3.125 35.9375C3.125 31.875 6.21875 28.5469 10.1875 28.1719V28.1562C9.65625 26.6875 9.375 25.0938 9.375 23.4375C9.375 15.6719 15.6719 9.375 23.4375 9.375C29.2656 9.375 34.2656 12.9219 36.3906 17.9688L36.4062 18.0312Z" fill="#E6E9ED"/>
<path d="M76.5625 75C79.1469 75 81.25 72.8969 81.25 70.3125C81.25 67.7281 79.1469 65.625 76.5625 65.625C73.9781 65.625 71.875 67.7281 71.875 70.3125C71.875 72.8969 73.9781 75 76.5625 75ZM76.5625 68.75C77.4234 68.75 78.125 69.45 78.125 70.3125C78.125 71.175 77.4234 71.875 76.5625 71.875C75.7016 71.875 75 71.175 75 70.3125C75 69.45 75.7016 68.75 76.5625 68.75Z" fill="black"/>
<path d="M92.4375 63.7156C91.9641 62.5812 92.2156 61.2922 93.0766 60.4297L95.35 58.1547L88.7188 51.5234L86.4422 53.7984C85.5813 54.6609 84.2906 54.9109 83.0969 54.4109C81.975 53.9484 81.25 52.8641 81.25 51.6484V48.4375H78.0453C77.9031 45.9172 77.4359 43.4813 76.6609 41.1734L94.7422 23.0922C97.125 20.7094 98.4375 17.5422 98.4375 14.1734C98.4375 7.22031 92.7797 1.5625 85.8266 1.5625C82.4578 1.5625 79.2906 2.875 76.9094 5.25625L58.8469 23.3203C56.5109 22.5359 54.0344 22.0797 51.4766 21.9438C49.3203 18.1766 45.2687 15.625 40.625 15.625C39.4359 15.625 38.2891 15.8031 37.1969 16.1141C34.5 11.0437 29.2609 7.8125 23.4375 7.8125C14.8219 7.8125 7.8125 14.8219 7.8125 23.4375C7.8125 24.6344 7.95937 25.8125 8.22656 26.9656C4.375 28.1312 1.5625 31.7109 1.5625 35.9375C1.5625 41.1078 5.76719 45.3125 10.9375 45.3125H22.2719C22.0125 46.8578 21.875 48.4266 21.875 50C21.875 53.4391 22.5109 56.2375 23.5375 58.6281L9.59844 72.5687L1.84219 92.7344C1.65625 93.2156 1.5625 93.7219 1.5625 94.2391C1.5625 96.5547 3.44688 98.4375 5.76094 98.4375C6.27813 98.4375 6.78438 98.3422 7.26719 98.1578L27.4328 90.4016L37.625 80.2078C37.5484 80.5437 37.5 80.8906 37.5 81.25C37.5 82.4547 37.9703 83.5437 38.7188 84.375C37.9688 85.2063 37.5 86.2953 37.5 87.5C37.5 89.6719 38.9922 91.4875 41 92.0156C42.3312 95.8281 45.8969 98.4375 50 98.4375C54.1031 98.4375 57.6687 95.8281 59 92.0156C61.0078 91.4875 62.5 89.6719 62.5 87.5C62.5 87.3828 62.4734 87.2734 62.4656 87.1594L64.4062 89.1L66.6828 86.825C67.5437 85.9625 68.8297 85.7109 70.0266 86.2094C71.1484 86.6766 71.875 87.7609 71.875 88.9766V92.1875H81.25V88.9766C81.25 87.7609 81.9766 86.675 83.1594 86.1859C84.2937 85.7141 85.5828 85.9625 86.4437 86.825L88.7188 89.1L95.35 82.4688L93.0766 80.1937C92.2156 79.3313 91.9641 78.0422 92.4625 76.8484C92.9266 75.7266 94.0109 75 95.2266 75H98.4375V65.625H95.2266C94.0109 65.625 92.9266 64.8984 92.4375 63.7156ZM69.025 68.3219C70.7297 66.6578 72.4375 64.9578 73.9109 62.9922C74.7609 62.6828 75.6453 62.5 76.5625 62.5C80.8703 62.5 84.375 66.0047 84.375 70.3125C84.375 74.6203 80.8703 78.125 76.5625 78.125C72.2547 78.125 68.75 74.6203 68.75 70.3125C68.75 69.6359 68.8547 68.9703 69.025 68.3219ZM70.9016 31.3094L78.125 24.0844L83.7281 29.6875L75.3828 38.0328C74.2125 35.5766 72.7 33.3172 70.9016 31.3094ZM72.5219 14.0625L75 11.5844L88.4156 25L85.9375 27.4781L72.5219 14.0625ZM85.8266 4.6875C91.0563 4.6875 95.3125 8.94375 95.3125 14.1734C95.3125 16.7063 94.3266 19.0891 92.5344 20.8813L90.625 22.7906L77.2094 9.375L79.1188 7.46562C80.9109 5.675 83.2922 4.6875 85.8266 4.6875ZM70.3125 16.2719L75.9156 21.875L68.6953 29.0953C66.6891 27.2953 64.4313 25.7812 61.975 24.6094L70.3125 16.2719ZM75 50C75 58.1297 70.9062 62.1234 66.5719 66.35C63.5875 69.2609 60.5219 72.2703 58.7375 76.6562C58.4391 76.5953 58.1297 76.5625 57.8125 76.5625H51.5625V68.75C51.5625 66.1656 49.4594 64.0625 46.875 64.0625H43.75C42.8891 64.0625 42.1875 63.3625 42.1875 62.5C42.1875 61.6375 42.8891 60.9375 43.75 60.9375H59.375C61.9594 60.9375 64.0625 58.8344 64.0625 56.25C64.0625 53.6656 61.9594 51.5625 59.375 51.5625H46.875C46.0141 51.5625 45.3125 50.8625 45.3125 50V45.3125H53.125C57.4328 45.3125 60.9375 41.8078 60.9375 37.5C60.9375 33.1922 57.4328 29.6875 53.125 29.6875C53.0812 29.6875 53.0406 29.7 52.9969 29.7C53.0641 29.1781 53.125 28.6562 53.125 28.125C53.125 27.1031 52.9875 26.1141 52.7562 25.1625C65.2125 26.55 75 37.2406 75 50ZM40.625 81.25C40.625 80.3875 41.3266 79.6875 42.1875 79.6875H57.8125C58.6734 79.6875 59.375 80.3875 59.375 81.25C59.375 82.1125 58.6734 82.8125 57.8125 82.8125H42.1875C41.3266 82.8125 40.625 82.1125 40.625 81.25ZM20.9594 81.25L32.4453 69.7641C34.3672 71.6703 36.1516 73.5984 37.4672 75.9469L26.5625 86.8531L20.9594 81.25ZM4.6875 35.9375C4.6875 32.4906 7.49062 29.6875 10.9375 29.6875C14.3844 29.6875 17.1875 32.4906 17.1875 35.9375H20.3125C20.3125 30.9031 16.3203 26.7938 11.3375 26.5828C11.0719 25.5609 10.9375 24.5063 10.9375 23.4375C10.9375 16.5453 16.5453 10.9375 23.4375 10.9375C28.0078 10.9375 32.1328 13.4219 34.3266 17.3453C30.9953 19.3 28.6422 22.7422 28.2031 26.7594C25.475 27.4312 23.4375 29.8797 23.4375 32.8125H26.5625C26.5625 31.0891 27.9641 29.6875 29.6875 29.6875C31.4109 29.6875 32.8125 31.0891 32.8125 32.8125H35.9375C35.9375 29.9453 33.9875 27.55 31.3516 26.8156C31.9922 22.2656 35.9 18.75 40.625 18.75C45.7953 18.75 50 22.9547 50 28.125C50 28.9469 49.8656 29.7516 49.6562 30.5359C47.0938 31.8187 45.3125 34.4437 45.3125 37.5H48.4375C48.4375 34.9156 50.5406 32.8125 53.125 32.8125C55.7094 32.8125 57.8125 34.9156 57.8125 37.5C57.8125 40.0844 55.7094 42.1875 53.125 42.1875H10.9375C7.49062 42.1875 4.6875 39.3844 4.6875 35.9375ZM42.1875 45.3125V50C42.1875 52.5844 44.2906 54.6875 46.875 54.6875H59.375C60.2359 54.6875 60.9375 55.3875 60.9375 56.25C60.9375 57.1125 60.2359 57.8125 59.375 57.8125H43.75C41.1656 57.8125 39.0625 59.9156 39.0625 62.5C39.0625 65.0844 41.1656 67.1875 43.75 67.1875H46.875C47.7359 67.1875 48.4375 67.8875 48.4375 68.75V76.5625H42.1875C41.8703 76.5625 41.5609 76.5953 41.2625 76.6562C39.4781 72.2703 36.4125 69.2609 33.4281 66.35C29.0937 62.1234 25 58.1297 25 50C25 48.4203 25.1891 46.8547 25.4813 45.3125H42.1875ZM30.2141 67.5766L18.75 79.0406L13.1469 73.4375L25.0688 61.5156C26.5359 63.8187 28.3547 65.7406 30.2141 67.5766ZM11.5328 76.2422L23.7578 88.4672L13.4078 92.4484L7.55156 86.5922L11.5328 76.2422ZM6.14687 95.2406C5.47031 95.5031 4.6875 94.9641 4.6875 94.2391C4.6875 94.1062 4.7125 93.9766 4.75781 93.8547L6.32344 89.7828L10.2156 93.675L6.14687 95.2406ZM50 95.3125C47.6922 95.3125 45.6344 94.0844 44.4938 92.1875H55.5062C54.3656 94.0844 52.3078 95.3125 50 95.3125ZM57.8125 89.0625H42.1875C41.3266 89.0625 40.625 88.3625 40.625 87.5C40.625 86.6375 41.3266 85.9375 42.1875 85.9375H57.8125C58.6734 85.9375 59.375 86.6375 59.375 87.5C59.375 88.3625 58.6734 89.0625 57.8125 89.0625ZM95.3125 71.875H95.2266C92.7406 71.875 90.5219 73.3594 89.5531 75.7063C88.5906 78.0141 89.1062 80.6422 90.8656 82.4031L90.9313 82.4688L88.7188 84.6813L88.6531 84.6156C86.8906 82.8531 84.2594 82.3359 81.9047 83.3234C79.6094 84.2734 78.125 86.4906 78.125 88.9766V89.0625H75V88.9766C75 86.4906 73.5156 84.2719 71.1687 83.3016C68.8578 82.3375 66.2297 82.8547 64.4703 84.6156L64.4047 84.6813L62.2875 82.5641C62.4125 82.1438 62.5 81.7094 62.5 81.25C62.5 80.1406 62.0969 79.1344 61.45 78.3297C62.4219 75.7063 63.9453 73.6078 65.7188 71.6703C66.3906 77.0609 70.9922 81.25 76.5625 81.25C82.5938 81.25 87.5 76.3422 87.5 70.3125C87.5 64.2828 82.5938 59.375 76.5625 59.375C76.4094 59.375 76.2609 59.3906 76.1094 59.3969C77.1672 57.2016 77.8938 54.6562 78.0766 51.5625H78.125V51.6484C78.125 54.1344 79.6094 56.3547 81.9547 57.3219C84.2609 58.2875 86.8922 57.7719 88.6531 56.0094L88.7188 55.9438L90.9313 58.1562L90.8656 58.2219C89.1062 59.9828 88.5906 62.6125 89.5734 64.9688C90.5219 67.2656 92.7406 68.75 95.2266 68.75H95.3125V71.875Z" fill="black"/>
</svg>
