<svg width="100" height="100" viewBox="0 0 100 100" fill="none" xmlns="http://www.w3.org/2000/svg">
<g clip-path="url(#clip0_563_6260)">
<path d="M49.999 20.3717H42.4604C41.7279 20.3717 41.0258 20.6652 40.4832 21.1984C39.0045 22.6512 36.2814 24.3828 31.7068 24.3828C26.3012 24.3828 22.1174 21.5502 19.9264 16.4068C19.4928 15.3892 18.4922 14.7316 17.377 14.7316H10.6895C9.34121 14.7316 8.24805 13.6387 8.24805 12.2902C8.24805 10.9418 9.34121 9.84882 10.6895 9.84882H17.377C20.4527 9.84882 23.2166 11.6719 24.4186 14.4932C25.8338 17.8154 28.2859 19.5 31.7068 19.5C34.6309 19.5 36.2324 18.5295 37.0613 17.7154C38.5225 16.2797 40.44 15.4891 42.4604 15.4891H49.999V20.3717Z" fill="#5B5555"/>
<path d="M50 20.3717H57.5387C58.2711 20.3717 58.9732 20.6652 59.5158 21.1984C60.9945 22.6512 63.7176 24.3828 68.2922 24.3828C73.6979 24.3828 77.8816 21.5502 80.0727 16.4068C80.5062 15.3892 81.5068 14.7316 82.6221 14.7316H89.3096C90.6578 14.7316 91.751 13.6387 91.751 12.2902C91.751 10.9418 90.6578 9.84882 89.3096 9.84882H82.6221C79.5463 9.84882 76.7824 11.6719 75.5805 14.4932C74.1652 17.8154 71.7131 19.5 68.2922 19.5C65.3682 19.5 63.7666 18.5295 62.9377 17.7154C61.4766 16.2797 59.559 15.4891 57.5387 15.4891H50V20.3717Z" fill="#5B5555"/>
<path d="M54.8488 94.8644H45.1523L47.5209 9.78003H52.4803L54.8488 94.8644Z" fill="#FCB44D"/>
<path d="M52.6719 16.575C51.8398 16.8835 50.9395 17.0515 50.002 17.0515C49.0645 17.0515 48.1641 16.8835 47.332 16.575L47.5215 9.78003H52.4824L52.6719 16.575Z" fill="#FB9927"/>
<path d="M45.9629 65.7804L45.7422 73.7081H54.2609L54.0402 65.7804H45.9629Z" fill="#FB9927"/>
<path d="M19.1195 78.1865H9.7C5.15176 78.1865 1.46484 74.4994 1.46484 69.9513V69.0031C1.46484 67.7128 2.51074 66.6669 3.80098 66.6669H25.0186C26.3088 66.6669 27.3547 67.7128 27.3547 69.0031V69.9513C27.3547 74.4996 23.6676 78.1865 19.1195 78.1865Z" fill="#FCB44D"/>
<path d="M27.3551 69.0042V69.9503C27.3551 74.4988 23.6687 78.1874 19.1203 78.1874H12.5371C17.0855 78.1874 20.7719 74.4988 20.7719 69.9503V69.0042C20.7719 67.7124 19.7254 66.6681 18.4357 66.6681H25.0189C26.3086 66.6681 27.3551 67.7122 27.3551 69.0042Z" fill="#FB9927"/>
<path d="M14.4096 28.2359C16.4382 28.2359 18.0828 26.5913 18.0828 24.5626C18.0828 22.534 16.4382 20.8894 14.4096 20.8894C12.3809 20.8894 10.7363 22.534 10.7363 24.5626C10.7363 26.5913 12.3809 28.2359 14.4096 28.2359Z" fill="#FCB44D"/>
<path d="M18.083 24.5628C18.083 26.5917 16.4385 28.2363 14.4096 28.2363C13.607 28.2363 12.866 27.9787 12.2617 27.5427C13.5299 26.9642 14.4096 25.6841 14.4096 24.2001C14.4096 22.9736 13.8092 21.8878 12.8859 21.2222C13.3496 21.0082 13.8668 20.8894 14.4096 20.8894C16.4385 20.8894 18.083 22.5339 18.083 24.5628Z" fill="#FB9927"/>
<path d="M90.299 78.1865H80.8797C76.3314 78.1865 72.6445 74.4994 72.6445 69.9513V69.0031C72.6445 67.7128 73.6904 66.6669 74.9807 66.6669H96.1982C97.4885 66.6669 98.5344 67.7128 98.5344 69.0031V69.9513C98.5342 74.4996 94.8473 78.1865 90.299 78.1865Z" fill="#FCB44D"/>
<path d="M98.5348 69.0042V69.9503C98.5348 74.4988 94.8484 78.1874 90.3 78.1874H83.7168C88.2652 78.1874 91.9516 74.4988 91.9516 69.9503V69.0042C91.9516 67.7124 90.9051 66.6681 89.6154 66.6681H96.1986C97.4883 66.6681 98.5348 67.7122 98.5348 69.0042Z" fill="#FB9927"/>
<path d="M85.5912 28.2359C87.6199 28.2359 89.2645 26.5913 89.2645 24.5626C89.2645 22.534 87.6199 20.8894 85.5912 20.8894C83.5625 20.8894 81.918 22.534 81.918 24.5626C81.918 26.5913 83.5625 28.2359 85.5912 28.2359Z" fill="#FCB44D"/>
<path d="M89.2647 24.5628C89.2647 26.5917 87.6201 28.2363 85.5912 28.2363C84.7887 28.2363 84.0477 27.9787 83.4434 27.5427C84.7115 26.9642 85.5912 25.6841 85.5912 24.2001C85.5912 22.9736 84.9908 21.8878 84.0676 21.2222C84.5313 21.0082 85.0484 20.8894 85.5912 20.8894C87.6201 20.8894 89.2647 22.5339 89.2647 24.5628Z" fill="#FB9927"/>
<path d="M49.9992 65.5279C53.5261 65.5279 56.3852 62.6688 56.3852 59.142C56.3852 55.6151 53.5261 52.756 49.9992 52.756C46.4724 52.756 43.6133 55.6151 43.6133 59.142C43.6133 62.6688 46.4724 65.5279 49.9992 65.5279Z" fill="#FB9927"/>
<path d="M56.3867 59.1414C56.3867 62.6687 53.5273 65.5281 50 65.5281C49.1426 65.5281 48.3242 65.3582 47.5762 65.0515C49.9004 64.0964 51.5371 61.8093 51.5371 59.1414C51.5371 56.4734 49.9004 54.1882 47.5762 53.2331C48.3242 52.9265 49.1426 52.7566 50 52.7566C53.5273 52.7566 56.3867 55.616 56.3867 59.1414Z" fill="#F98824"/>
<path d="M49.999 13.2414C52.6218 13.2414 54.748 11.1152 54.748 8.49237C54.748 5.86956 52.6218 3.74335 49.999 3.74335C47.3762 3.74335 45.25 5.86956 45.25 8.49237C45.25 11.1152 47.3762 13.2414 49.999 13.2414Z" fill="#FFD597"/>
<path d="M54.7488 8.49336C54.7488 11.1156 52.6213 13.2408 49.9988 13.2408C49.2531 13.2408 48.5488 13.0703 47.9199 12.7631C49.4992 11.9904 50.5887 10.3699 50.5887 8.49316C50.5887 6.61641 49.4992 4.99336 47.9199 4.2209C48.5486 3.91387 49.2531 3.74316 49.9988 3.74316C52.6213 3.74336 54.7488 5.86855 54.7488 8.49336Z" fill="#FCC16D"/>
<path d="M69.4348 90.8293H30.5664V85.7328C30.5664 84.1148 31.8781 82.8031 33.4961 82.8031H66.5049C68.1229 82.8031 69.4346 84.1148 69.4346 85.7328L69.4348 90.8293Z" fill="#756F6F"/>
<path d="M69.4336 85.7332V90.8289H64.5859V85.7332C64.5859 84.114 63.2734 82.8035 61.6562 82.8035H66.5039C68.123 82.8035 69.4336 84.114 69.4336 85.7332Z" fill="#5B5555"/>
<path d="M75.827 96.2566H24.1719C23.0932 96.2566 22.2188 95.3822 22.2188 94.3035V91.1369C22.2188 90.0582 23.0932 89.1838 24.1719 89.1838H75.8268C76.9055 89.1838 77.7799 90.0582 77.7799 91.1369V94.3035C77.7801 95.3822 76.9055 96.2566 75.827 96.2566Z" fill="#FFD597"/>
<path d="M77.7812 91.1375V94.3035C77.7812 95.3817 76.9062 96.2567 75.8281 96.2567H70.9785C72.0586 96.2567 72.9316 95.3817 72.9316 94.3035V91.1375C72.9316 90.0574 72.0586 89.1844 70.9785 89.1844H75.8281C76.9062 89.1844 77.7812 90.0574 77.7812 91.1375Z" fill="#FCC16D"/>
<path d="M56.7527 69.4054H43.2461C42.1674 69.4054 41.293 68.531 41.293 67.4523V64.9478C41.293 63.8691 42.1674 62.9947 43.2461 62.9947H56.7527C57.8314 62.9947 58.7059 63.8691 58.7059 64.9478V67.4523C58.7059 68.531 57.8314 69.4054 56.7527 69.4054Z" fill="#FFD597"/>
<path d="M58.707 64.948V67.4519C58.707 68.53 57.832 69.405 56.7539 69.405H51.9043C52.9844 69.405 53.8574 68.53 53.8574 67.4519V64.948C53.8574 63.8699 52.9844 62.9949 51.9043 62.9949H56.7539C57.832 62.9949 58.707 63.8699 58.707 64.948Z" fill="#FCC16D"/>
<path d="M96.6996 65.239L87.3979 29.3717C89.3416 28.6385 90.7283 26.7599 90.7283 24.5629C90.7283 22.2386 89.1764 20.2709 87.0547 19.6386V16.1965H89.3092C91.4631 16.1965 93.2154 14.4441 93.2154 12.2902C93.2154 10.1363 91.4631 8.38396 89.3092 8.38396H87.0494C86.9938 7.62576 86.3625 7.02771 85.59 7.02771C84.8178 7.02771 84.1863 7.62595 84.1307 8.38396H82.6219C78.9578 8.38396 75.665 10.5566 74.2326 13.9191C73.0529 16.6888 71.1098 18.0351 68.292 18.0351C65.8631 18.0351 64.598 17.2929 63.9643 16.6705C62.2273 14.964 59.9453 14.0242 57.5387 14.0242H54.0635L54.0408 13.2074C55.3697 12.067 56.2139 10.3769 56.2139 8.49255C56.2139 5.06619 53.4264 2.27869 50 2.27869C46.5736 2.27869 43.7861 5.06619 43.7861 8.49255C43.7861 10.3771 44.6305 12.0672 45.9596 13.2076L45.9369 14.0242H42.4613C40.0547 14.0242 37.7727 14.964 36.0357 16.6705C35.402 17.2931 34.1367 18.0351 31.7078 18.0351C28.8902 18.0351 26.9471 16.6886 25.7672 13.9191C24.335 10.5566 21.042 8.38396 17.3779 8.38396H15.8691C15.8135 7.62576 15.1822 7.02771 14.4098 7.02771C13.6373 7.02771 13.0061 7.62595 12.9504 8.38396H10.6906C8.53672 8.38396 6.78438 10.1363 6.78438 12.2902C6.78438 14.4441 8.53672 16.1965 10.6906 16.1965H12.9449V19.6388C10.8234 20.2711 9.27168 22.2388 9.27168 24.5629C9.27168 26.7599 10.6582 28.6386 12.602 29.3717L3.30039 65.239C1.44082 65.4853 0 67.0773 0 69.0031V69.9513C0 75.3 4.35137 79.6513 9.7 79.6513H19.1195C24.4682 79.6513 28.8195 75.3 28.8195 69.9513V69.0031C28.8195 67.0773 27.3787 65.4853 25.5191 65.239L16.2176 29.3715C18.1611 28.6383 19.5477 26.7597 19.5477 24.5627C19.5477 22.2385 17.9959 20.2709 15.8744 19.6386V16.1963H17.3777C17.9047 16.1963 18.3764 16.5043 18.5793 16.9806C18.8154 17.5349 19.0826 18.0822 19.3734 18.6072C19.7656 19.3148 20.657 19.5705 21.3646 19.1787C22.0723 18.7867 22.3281 17.8951 21.9361 17.1875C21.6939 16.7506 21.4715 16.2947 21.2746 15.8326C20.6105 14.2738 19.0809 13.2666 17.3775 13.2666H15.8742V11.3135H17.3775C19.865 11.3135 22.1002 12.7869 23.0715 15.0672C24.715 18.9254 27.7014 20.9646 31.7074 20.9646C35.1266 20.9646 37.0646 19.7658 38.0885 18.7601C39.2742 17.5951 40.827 16.9535 42.4609 16.9535H45.8549L45.8006 18.9066H42.4609C41.3422 18.9066 40.2754 19.3494 39.4574 20.1533C38.1736 21.4144 35.7871 22.9177 31.7076 22.9177C29.65 22.9177 27.7902 22.4636 26.1797 21.5679C25.4725 21.1744 24.5807 21.4291 24.1875 22.1361C23.7941 22.8431 24.0486 23.7351 24.7557 24.1283C26.8068 25.2691 29.1457 25.8476 31.7076 25.8476C36.7775 25.8476 39.8369 23.8877 41.5105 22.2433C41.7775 21.981 42.115 21.8365 42.4609 21.8365H45.7189L44.8451 53.2277C43.1943 54.6681 42.1482 56.7849 42.1482 59.1427C42.1482 59.9861 42.2871 60.814 42.5475 61.6025C40.9971 61.9261 39.8285 63.3029 39.8285 64.948V67.4525C39.8285 69.3371 41.3619 70.8705 43.2465 70.8705H44.3541L44.0627 81.3383H33.4953C31.0721 81.3383 29.1008 83.3095 29.1008 85.7328V87.7189H24.1725C22.2879 87.7189 20.7545 89.2523 20.7545 91.1369V94.3035C20.7545 96.1881 22.2879 97.7215 24.1725 97.7215H75.8273C77.7119 97.7215 79.2453 96.1881 79.2453 94.3035V91.1369C79.2453 89.2523 77.7119 87.7189 75.8273 87.7189H70.899V85.7328C70.899 83.3095 68.9275 81.3383 66.5045 81.3383H55.9371L55.6457 70.8705H56.7533C58.6379 70.8705 60.1713 69.3371 60.1713 67.4525V64.948C60.1713 63.3029 59.0027 61.9261 57.4523 61.6025C57.7127 60.814 57.8516 59.9859 57.8516 59.1426C57.8516 56.7847 56.8055 54.6679 55.1545 53.2275L54.9658 46.449C54.9434 45.6402 54.277 45.0033 53.4607 45.0254C52.652 45.0478 52.0148 45.7217 52.0373 46.5304L52.1783 51.6008C51.4861 51.4004 50.7557 51.291 49.9998 51.291C49.2439 51.291 48.5135 51.4006 47.8213 51.6008L48.8514 14.598C49.2238 14.6679 49.6072 14.7062 49.9998 14.7062C50.3924 14.7062 50.776 14.6679 51.1484 14.598L51.8451 39.6211C51.8672 40.416 52.5184 41.0453 53.3086 41.0453C53.3223 41.0453 53.3363 41.0451 53.3502 41.0447C54.159 41.0222 54.7961 40.3484 54.7736 39.5396L54.2809 21.8365H57.5387C57.8846 21.8365 58.2221 21.9808 58.4891 22.2433C60.1627 23.8875 63.2221 25.8476 68.292 25.8476C74.3219 25.8476 78.9844 22.6986 81.4203 16.981C81.6232 16.5045 82.0949 16.1965 82.6219 16.1965H84.1252V19.6388C82.0037 20.2713 80.4521 22.2388 80.4521 24.5629C80.4521 26.7599 81.8387 28.6386 83.7824 29.3717L74.481 65.239C72.6215 65.4853 71.1807 67.0773 71.1807 69.0031V69.9513C71.1807 75.3 75.532 79.6513 80.8807 79.6513H90.3002C95.6488 79.6513 100 75.3 100 69.9513V69.0031C100 67.0773 98.5592 65.4853 96.6996 65.239ZM14.4098 34.0713L22.4828 65.2021H6.33633L14.4098 34.0713ZM19.1195 76.7217H9.7C7.17676 76.7217 4.97305 75.3332 3.80859 73.281H25.0107C23.8465 75.3332 21.6428 76.7217 19.1195 76.7217ZM25.8898 69.9513C25.8898 70.0857 25.8848 70.2189 25.877 70.3513H2.94258C2.93477 70.2189 2.92969 70.0857 2.92969 69.9513V69.0031C2.92969 68.5226 3.32051 68.1318 3.80098 68.1318H25.0186C25.499 68.1318 25.8898 68.5226 25.8898 69.0031V69.9513ZM16.618 24.5627C16.618 25.7804 15.6273 26.7711 14.4096 26.7711C13.1918 26.7711 12.2012 25.7804 12.2012 24.5627C12.2012 23.3451 13.1918 22.3543 14.4096 22.3543C15.6273 22.3543 16.618 23.3451 16.618 24.5627ZM12.9449 13.2666H10.6904C10.152 13.2666 9.71387 12.8285 9.71387 12.29C9.71387 11.7515 10.152 11.3135 10.6904 11.3135H12.9447L12.9449 13.2666ZM67.9693 85.7328V87.7189H42.3336C41.5246 87.7189 40.8688 88.3748 40.8688 89.1838C40.8688 89.9928 41.5246 90.6486 42.3336 90.6486H75.8273C76.0967 90.6486 76.3156 90.8678 76.3156 91.1369V94.3035C76.3156 94.5726 76.0967 94.7918 75.8273 94.7918H24.1727C23.9035 94.7918 23.6844 94.5726 23.6844 94.3035V91.1369C23.6844 90.8678 23.9035 90.6486 24.1727 90.6486H35.4205C36.2295 90.6486 36.8853 89.9928 36.8853 89.1838C36.8853 88.3748 36.2295 87.7189 35.4205 87.7189H32.0307V85.7328C32.0307 84.925 32.6877 84.2679 33.4955 84.2679H66.5045C67.3123 84.2679 67.9693 84.925 67.9693 85.7328ZM53.0064 81.3383H46.9938L47.2852 70.8705H52.7152L53.0064 81.3383ZM57.2416 67.4523C57.2416 67.7215 57.0227 67.9406 56.7533 67.9406H43.2467C42.9775 67.9406 42.7584 67.7215 42.7584 67.4523V64.9478C42.7584 64.6787 42.9775 64.4595 43.2467 64.4595H56.7533C57.0227 64.4595 57.2416 64.6787 57.2416 64.9478V67.4523ZM54.9219 59.1426C54.9219 59.9842 54.7084 60.8027 54.3033 61.5301H45.6969C45.2918 60.8027 45.0781 59.9844 45.0781 59.1426C45.0781 56.4285 47.2861 54.2207 50 54.2207C52.7139 54.2207 54.9219 56.4287 54.9219 59.1426ZM46.7158 8.49236C46.7158 6.68142 48.1891 5.20818 50 5.20818C51.8109 5.20818 53.2842 6.68142 53.2842 8.49236C53.2842 10.3033 51.8107 11.7765 50 11.7765C48.1893 11.7765 46.7158 10.3033 46.7158 8.49236ZM90.2859 12.29C90.2859 12.8285 89.8479 13.2666 89.3094 13.2666H87.0551V11.3135H89.3094C89.8479 11.3135 90.2859 11.7515 90.2859 12.29ZM82.6219 13.2666C80.9185 13.2666 79.3889 14.2738 78.7248 15.8326C76.7502 20.4678 73.1426 22.9177 68.292 22.9177C64.2123 22.9177 61.826 21.4144 60.5422 20.1535C59.7242 19.3494 58.6574 18.9066 57.5385 18.9066H54.1992L54.1449 16.9535H57.5385C59.1725 16.9535 60.7252 17.5951 61.9111 18.7601C62.9348 19.7658 64.8728 20.9646 68.292 20.9646C72.2982 20.9646 75.2846 18.9254 76.9281 15.0672C77.8994 12.7869 80.1344 11.3135 82.6219 11.3135H84.1252V13.2666H82.6219ZM93.6635 65.2021H77.5172L85.5902 34.0715L93.6635 65.2021ZM85.5902 22.3545C86.808 22.3545 87.7988 23.3451 87.7988 24.5629C87.7988 25.7806 86.8082 26.7713 85.5902 26.7713C84.3727 26.7713 83.3818 25.7806 83.3818 24.5629C83.3818 23.3451 84.3725 22.3545 85.5902 22.3545ZM74.1102 69.0031C74.1102 68.5226 74.501 68.1318 74.9814 68.1318H96.199C96.6795 68.1318 97.0703 68.5226 97.0703 69.0031V69.9513C97.0703 70.0857 97.0652 70.2189 97.0574 70.3513H74.123C74.1152 70.2189 74.1102 70.0857 74.1102 69.9513V69.0031ZM90.3 76.7217H80.8805C78.3572 76.7217 76.1535 75.3332 74.9891 73.281H96.1914C95.027 75.3332 92.8232 76.7217 90.3 76.7217Z" fill="black"/>
</g>
<defs>
<clipPath id="clip0_563_6260">
<rect width="100" height="100" fill="white"/>
</clipPath>
</defs>
</svg>
