<svg width="100" height="100" viewBox="0 0 100 100" fill="none" xmlns="http://www.w3.org/2000/svg">
<g clip-path="url(#clip0_417_829)">
<path d="M16.666 56.6666H26.666V68.3333H16.666V56.6666Z" fill="#C0D3D8"/>
<path d="M73.334 56.6666H83.334V68.3333H73.334V56.6666Z" fill="#C0D3D8"/>
<path d="M43.334 43.3334H56.6673V53.3334H43.334V43.3334Z" fill="#C0D3D8"/>
<path d="M21.6667 13.3334H25V33.3334H21.6667C17.9867 33.3334 15 30.3467 15 26.6667V20C15 16.32 17.9867 13.3334 21.6667 13.3334Z" fill="#C0D3D8"/>
<path d="M78.3333 33.3334H75V13.3334H78.3333C82.0133 13.3334 85 16.32 85 20V26.6667C85 30.3467 82.0133 33.3334 78.3333 33.3334Z" fill="#C0D3D8"/>
<path d="M66.666 1.66663H33.3327C26.8894 1.66663 21.666 6.88997 21.666 13.3333V33.3333C21.666 39.7766 26.8894 45 33.3327 45H66.666C73.1093 45 78.3327 39.7766 78.3327 33.3333V13.3333C78.3327 6.88997 73.1093 1.66663 66.666 1.66663Z" fill="#D4E3E8"/>
<path d="M71.666 28.3333V18.3333C71.666 13.731 67.9351 10 63.3327 10H36.666C32.0636 10 28.3327 13.731 28.3327 18.3333V28.3333C28.3327 32.9357 32.0636 36.6667 36.666 36.6667H63.3327C67.9351 36.6667 71.666 32.9357 71.666 28.3333Z" fill="#41608C"/>
<path d="M40 26.6666C42.7614 26.6666 45 24.4281 45 21.6666C45 18.9052 42.7614 16.6666 40 16.6666C37.2386 16.6666 35 18.9052 35 21.6666C35 24.4281 37.2386 26.6666 40 26.6666Z" fill="#52BAE6"/>
<path d="M60 26.6666C62.7614 26.6666 65 24.4281 65 21.6666C65 18.9052 62.7614 16.6666 60 16.6666C57.2386 16.6666 55 18.9052 55 21.6666C55 24.4281 57.2386 26.6666 60 26.6666Z" fill="#52BAE6"/>
<path d="M30 51.6666H70C72.76 51.6666 75 53.9066 75 56.6666V73.3333C75 87.1316 63.7983 98.3333 50 98.3333C36.2017 98.3333 25 87.1316 25 73.3333V56.6666C25 53.9066 27.24 51.6666 30 51.6666Z" fill="#D4E3E8"/>
<path d="M18.3333 86.6666V90.8333C18.3333 93.1333 16.4667 95 14.1667 95C11.8667 95 10 93.1333 10 90.8333V76.6666L18.3333 86.6666Z" fill="#C0D3D8"/>
<path d="M18.3333 55V86.6667C18.3333 86.6667 10 86.6667 10 76.6667V60C10 58.1667 10.75 56.5 11.95 55.2834C13.1667 54.0834 14.8333 53.3334 16.6667 53.3334C17.5833 53.3334 18.3333 54.0834 18.3333 55Z" fill="#D4E3E8"/>
<path d="M89.9993 76.6666V90.8333C89.9993 93.1333 88.1327 95 85.8327 95C83.5327 95 81.666 93.1333 81.666 90.8333V86.6666L89.9993 76.6666Z" fill="#C0D3D8"/>
<path d="M89.9993 60V76.6667C89.9993 86.6667 81.666 86.6667 81.666 86.6667V55C81.666 54.0834 82.416 53.3334 83.3327 53.3334C85.166 53.3334 86.8327 54.0834 88.0494 55.2834C89.2494 56.5 89.9993 58.1667 89.9993 60Z" fill="#D4E3E8"/>
<path d="M53.3333 60H46.6667C45.7462 60 45 60.7462 45 61.6667V75C45 75.9205 45.7462 76.6667 46.6667 76.6667H53.3333C54.2538 76.6667 55 75.9205 55 75V61.6667C55 60.7462 54.2538 60 53.3333 60Z" fill="#52BAE6"/>
<path d="M73.3346 28.3334V18.3334C73.3346 12.8184 68.8496 8.33337 63.3346 8.33337H36.668C31.153 8.33337 26.668 12.8184 26.668 18.3334V28.3334C26.668 33.8484 31.153 38.3334 36.668 38.3334H63.3346C68.8496 38.3334 73.3346 33.8484 73.3346 28.3334ZM70.0013 28.3334C70.0013 32.01 67.0113 35 63.3346 35H36.668C32.9913 35 30.0013 32.01 30.0013 28.3334V18.3334C30.0013 14.6567 32.9913 11.6667 36.668 11.6667H63.3346C67.0113 11.6667 70.0013 14.6567 70.0013 18.3334V28.3334Z" fill="black"/>
<path d="M40.0007 15C36.324 15 33.334 17.99 33.334 21.6667C33.334 25.3433 36.324 28.3333 40.0007 28.3333C43.6773 28.3333 46.6673 25.3433 46.6673 21.6667C46.6673 17.99 43.6773 15 40.0007 15ZM40.0007 25C38.1623 25 36.6673 23.505 36.6673 21.6667C36.6673 19.8283 38.1623 18.3333 40.0007 18.3333C41.839 18.3333 43.334 19.8283 43.334 21.6667C43.334 23.505 41.839 25 40.0007 25Z" fill="black"/>
<path d="M60.0007 15C56.324 15 53.334 17.99 53.334 21.6667C53.334 25.3433 56.324 28.3333 60.0007 28.3333C63.6773 28.3333 66.6673 25.3433 66.6673 21.6667C66.6673 17.99 63.6773 15 60.0007 15ZM60.0007 25C58.1623 25 56.6673 23.505 56.6673 21.6667C56.6673 19.8283 58.1623 18.3333 60.0007 18.3333C61.839 18.3333 63.334 19.8283 63.334 21.6667C63.334 23.505 61.839 25 60.0007 25Z" fill="black"/>
<path d="M30.0007 53.3333C30.9223 53.3333 31.6673 52.5883 31.6673 51.6667C31.6673 50.745 30.9223 50 30.0007 50C26.9023 50 24.3157 52.1317 23.5707 55H20.0007C20.0007 53.1617 18.5057 51.6667 16.6673 51.6667C12.0723 51.6667 8.33398 55.405 8.33398 60V90.8333C8.33398 94.05 10.9507 96.6667 14.1673 96.6667C17.384 96.6667 20.0007 94.05 20.0007 90.8333V70H23.334V73.3333C23.334 88.0367 35.2973 100 50.0007 100C64.704 100 76.6673 88.0367 76.6673 73.3333V70H80.0007V90.8333C80.0007 94.05 82.6173 96.6667 85.834 96.6667C89.0507 96.6667 91.6673 94.05 91.6673 90.8333V60C91.6673 55.405 87.929 51.6667 83.334 51.6667C81.4957 51.6667 80.0007 53.1617 80.0007 55H76.4307C75.6857 52.1317 73.099 50 70.0007 50H58.334V46.6667H66.6673C73.509 46.6667 79.1573 41.485 79.909 34.84C83.7523 34.1 86.6673 30.7217 86.6673 26.6667V20C86.6673 15.945 83.7523 12.565 79.909 11.8267C79.1573 5.18167 73.509 0 66.6673 0H33.334C26.4923 0 20.844 5.18167 20.0923 11.8267C16.249 12.5667 13.334 15.945 13.334 20V26.6667C13.334 30.7217 16.249 34.1017 20.0923 34.84C20.844 41.4833 26.4923 46.6667 33.334 46.6667H41.6673V50H36.6673C35.7457 50 35.0007 50.745 35.0007 51.6667C35.0007 52.5883 35.7457 53.3333 36.6673 53.3333H70.0007C71.839 53.3333 73.334 54.8283 73.334 56.6667V73.3333C73.334 86.2 62.8673 96.6667 50.0007 96.6667C37.134 96.6667 26.6673 86.2 26.6673 73.3333V56.6667C26.6673 54.8283 28.1623 53.3333 30.0007 53.3333ZM11.6673 60C11.6673 57.2433 13.9107 55 16.6673 55V84.7267C14.6707 84.15 11.6673 82.345 11.6673 76.6667V60ZM14.1673 93.3333C12.789 93.3333 11.6673 92.2117 11.6673 90.8333V85.6083C13.2207 87.0817 15.0657 87.8517 16.6673 88.16V90.8333C16.6673 92.2117 15.5457 93.3333 14.1673 93.3333ZM20.0007 66.6667V58.3333H23.334V66.6667H20.0007ZM85.834 93.3333C84.4557 93.3333 83.334 92.2117 83.334 90.8333V88.16C84.9357 87.8533 86.7807 87.0817 88.334 85.6083V90.8333C88.334 92.2117 87.2123 93.3333 85.834 93.3333ZM88.334 60V76.6667C88.334 82.3483 85.3273 84.1517 83.334 84.7267V55C86.0907 55 88.334 57.2433 88.334 60ZM80.0007 66.6667H76.6673V58.3333H80.0007V66.6667ZM83.334 20V26.6667C83.334 28.84 81.9407 30.6933 80.0007 31.3817V15.285C81.9407 15.9733 83.334 17.8267 83.334 20ZM16.6673 26.6667V20C16.6673 17.8267 18.0607 15.9733 20.0007 15.285V31.3817C18.0607 30.6933 16.6673 28.84 16.6673 26.6667ZM23.334 33.3333V13.3333C23.334 7.81833 27.819 3.33333 33.334 3.33333H66.6673C72.1823 3.33333 76.6673 7.81833 76.6673 13.3333V33.3333C76.6673 38.8483 72.1823 43.3333 66.6673 43.3333H33.334C27.819 43.3333 23.334 38.8483 23.334 33.3333ZM45.0007 46.6667H55.0007V50H45.0007V46.6667Z" fill="black"/>
<path d="M53.334 78.3334C55.1723 78.3334 56.6673 76.8384 56.6673 75V61.6667C56.6673 59.8284 55.1723 58.3334 53.334 58.3334H46.6673C44.829 58.3334 43.334 59.8284 43.334 61.6667V75C43.334 76.8384 44.829 78.3334 46.6673 78.3334H53.334ZM46.6673 61.6667H53.334L53.3373 75H46.6673V61.6667Z" fill="black"/>
<path d="M51.668 28.3334H48.3346C47.413 28.3334 46.668 29.0784 46.668 30C46.668 30.9217 47.413 31.6667 48.3346 31.6667H51.668C52.5896 31.6667 53.3346 30.9217 53.3346 30C53.3346 29.0784 52.5896 28.3334 51.668 28.3334Z" fill="black"/>
</g>
<defs>
<clipPath id="clip0_417_829">
<rect width="100" height="100" fill="white"/>
</clipPath>
</defs>
</svg>
