<svg width="100" height="100" viewBox="0 0 100 100" fill="none" xmlns="http://www.w3.org/2000/svg">
<path d="M4.6875 4.6875H73.4375V95.3125H4.6875V4.6875Z" fill="#E9F1F2"/>
<path d="M73.4375 73.4375V95.3125H4.6875V4.6875H31.25V45.3125C31.25 52.7717 34.2132 59.9254 39.4876 65.1999C44.7621 70.4743 51.9158 73.4375 59.375 73.4375H73.4375Z" fill="#D0D8DA"/>
<path d="M36.8887 10.9375L45.659 39.7563L67.1871 34.375V10.9375H36.8887Z" fill="#ADE8F4"/>
<path d="M30.6391 10.9375H10.9375V48.4375L39.8516 41.2094L30.6391 10.9375Z" fill="#ADE8F4"/>
<path d="M67.1875 42.1875V89.0625H10.9375V56.25L67.1875 42.1875Z" fill="#ADE8F4"/>
<path d="M31.25 12.9375V43.3594L10.9375 48.4375V10.9375H30.6406L31.25 12.9375Z" fill="#48CAE4"/>
<path d="M67.1875 73.4375V89.0625H10.9375V56.25L31.8437 51.0312C33.1564 57.3623 36.6112 63.0475 41.6261 67.1288C46.6409 71.2101 52.9093 73.4381 59.375 73.4375H67.1875Z" fill="#48CAE4"/>
<path d="M59.6875 31.4375C59.6848 32.2486 59.8469 33.0519 60.1638 33.7985C60.4807 34.5452 60.9459 35.2197 61.5313 35.7812L45.6562 39.75L39.8281 20.6094C41.0936 20.5509 42.3075 20.0907 43.2937 19.2956C44.2799 18.5005 44.987 17.4118 45.3125 16.1875C45.5817 17.179 46.1004 18.0849 46.8192 18.8189C47.538 19.5529 48.4328 20.0905 49.4184 20.3804C50.404 20.6703 51.4475 20.7028 52.4492 20.4748C53.4509 20.2468 54.3775 19.766 55.1406 19.0781C54.957 19.6702 54.8622 20.2863 54.8594 20.9063C54.8621 21.7776 55.0544 22.6378 55.4228 23.4274C55.7912 24.217 56.327 24.917 56.9929 25.4789C57.6588 26.0408 58.439 26.4511 59.2793 26.6814C60.1197 26.9117 61 26.9564 61.8594 26.8125C61.1792 27.376 60.6318 28.0827 60.2564 28.8822C59.8809 29.6817 59.6867 30.5542 59.6875 31.4375Z" fill="#FFEA00"/>
<path d="M20.4531 46.0625C20.8128 45.2066 20.9689 44.2789 20.9093 43.3525C20.8496 42.426 20.5758 41.526 20.1093 40.7233C19.6429 39.9206 18.9965 39.2371 18.2211 38.7266C17.4456 38.2161 16.5623 37.8925 15.6406 37.7813C16.5839 37.3735 17.4069 36.7307 18.0309 35.9142C18.6549 35.0977 19.0591 34.1348 19.2049 33.1176C19.3506 32.1003 19.2331 31.0627 18.8635 30.1038C18.4939 29.1449 17.8846 28.2969 17.0937 27.6406C17.4292 27.6977 17.7692 27.7238 18.1094 27.7188C19.0499 27.7125 19.9758 27.4859 20.8129 27.0571C21.65 26.6282 22.3749 26.0092 22.9294 25.2495C23.484 24.4898 23.8527 23.6108 24.0061 22.6828C24.1594 21.7549 24.0931 20.8039 23.8125 19.9063C24.9045 20.9055 26.3323 21.4577 27.8125 21.4531C28.8445 21.4561 29.8602 21.195 30.7627 20.6945C31.6653 20.194 32.4247 19.4708 32.9688 18.5938L39.8594 41.2031L20.4531 46.0625Z" fill="#FFEA00"/>
<path d="M67.1875 63.2812V89.0625H39.0625L31.6406 81.1094L45.3125 78.125L29.6875 60.9375L48.4375 67.1875L43.75 56.25L57.8125 64.0625L59.375 51.5625L67.1875 63.2812Z" fill="#FFEA00"/>
<path d="M26.4233 68.4625L19.1577 73.9063C19.8887 72.8785 20.2916 71.6536 20.3135 70.3925C20.3354 69.1315 19.9753 67.8933 19.2805 66.8408C18.5857 65.7882 17.5887 64.9704 16.4206 64.495C15.2524 64.0195 13.9677 63.9086 12.7353 64.1768C11.503 64.4451 10.3806 65.0798 9.51564 65.9978C8.65072 66.9157 8.08375 68.0738 7.88924 69.32C7.69472 70.5661 7.88177 71.8419 8.42579 72.9798C8.96981 74.1176 9.84535 75.0643 10.9374 75.6953V89.0625H21.8749V81.0266L29.7389 72.0391C30.1487 71.571 30.3653 70.9647 30.3447 70.343C30.3241 69.7212 30.0679 69.1305 29.628 68.6906C29.2106 68.2735 28.6568 68.0209 28.0682 67.979C27.4796 67.9371 26.8956 68.1087 26.4233 68.4625Z" fill="#FFEA00"/>
<path d="M21.8754 85.9063V89.0625H10.9379V75.7031C9.64789 74.9485 8.671 73.7566 8.18436 72.3435C7.69772 70.9305 7.73355 69.3898 8.28534 68.0009C8.83713 66.6119 9.86835 65.4667 11.192 64.7729C12.5157 64.079 14.0442 63.8824 15.5004 64.2188C15.6353 64.2438 15.7666 64.2858 15.891 64.3438C14.7274 64.6959 13.6923 65.381 12.9135 66.3146C12.1346 67.2481 11.6461 68.3892 11.5082 69.5971C11.3703 70.805 11.589 72.0269 12.1374 73.1119C12.6858 74.197 13.5398 75.0978 14.5941 75.7031V78.125C14.5975 80.1028 15.3508 82.0057 16.7021 83.4498C18.0534 84.8939 19.9022 85.7718 21.8754 85.9063Z" fill="#FFD000"/>
<path d="M54.5625 36.9219C54.5626 37.1207 54.5782 37.3192 54.6094 37.5156L45.6562 39.75L42.5312 29.5156C43.1345 29.299 43.6766 28.9403 44.1118 28.4698C44.547 27.9992 44.8623 27.4308 45.0313 26.8125C45.2098 27.4698 45.554 28.0703 46.031 28.5566C46.5079 29.0429 47.1016 29.3986 47.7553 29.5899C48.4091 29.7811 49.1009 29.8015 49.7648 29.649C50.4286 29.4964 51.0422 29.1762 51.5469 28.7187C51.4248 29.1136 51.3616 29.5242 51.3594 29.9375C51.3612 30.5148 51.4888 31.0847 51.7331 31.6077C51.9775 32.1307 52.3329 32.5942 52.7745 32.9659C53.2162 33.3377 53.7335 33.6088 54.2905 33.7604C54.8475 33.912 55.4309 33.9404 56 33.8438C55.5502 34.2207 55.1883 34.6917 54.94 35.2234C54.6917 35.7552 54.5628 36.335 54.5625 36.9219Z" fill="#FF7373"/>
<path d="M31.25 20.3906V43.3594L20.4531 46.0625C20.8128 45.2066 20.9689 44.2789 20.9093 43.3525C20.8496 42.426 20.5758 41.526 20.1093 40.7233C19.6429 39.9206 18.9965 39.2371 18.2211 38.7266C17.4456 38.2161 16.5623 37.8925 15.6406 37.7812C16.5839 37.3735 17.4069 36.7307 18.0309 35.9142C18.6549 35.0977 19.0591 34.1348 19.2049 33.1176C19.3506 32.1003 19.2331 31.0627 18.8635 30.1038C18.4939 29.1449 17.8846 28.2969 17.0937 27.6406C17.4292 27.6977 17.7692 27.7238 18.1094 27.7188C19.0499 27.7125 19.9758 27.4859 20.8129 27.0571C21.65 26.6282 22.3749 26.0092 22.9294 25.2495C23.484 24.4898 23.8527 23.6108 24.0061 22.6828C24.1594 21.7549 24.0931 20.8039 23.8125 19.9062C24.9045 20.9055 26.3323 21.4577 27.8125 21.4531C29.0386 21.4493 30.2356 21.0793 31.25 20.3906Z" fill="#FFD000"/>
<path d="M67.1875 73.4375V89.0625H39.0625L31.6406 81.1094L45.3125 78.125L29.6875 60.9375L38.1562 63.7656C40.7931 66.8046 44.0525 69.241 47.7135 70.9098C51.3745 72.5785 55.3516 73.4406 59.375 73.4375H67.1875Z" fill="#FFD000"/>
<path d="M62.5 68.75L67.1875 71.875V89.0625H53.125L46.875 84.375L54.6875 82.8125L48.4375 73.4375L59.375 79.6875L56.25 70.3125L62.5 75V68.75Z" fill="#FF7373"/>
<path d="M39.8594 41.2031L29.9844 43.6719C29.8112 42.8266 29.3774 42.0569 28.744 41.4711C28.1105 40.8853 27.3093 40.5129 26.4531 40.4063C27.0962 40.1269 27.657 39.6874 28.082 39.1297C28.507 38.572 28.7819 37.9147 28.8806 37.2205C28.9794 36.5264 28.8985 35.8185 28.6459 35.1644C28.3933 34.5103 27.9772 33.9319 27.4375 33.4844C27.6692 33.5284 27.9048 33.5494 28.1406 33.5469C28.7832 33.5414 29.4155 33.3854 29.9869 33.0915C30.5584 32.7976 31.053 32.374 31.4312 31.8545C31.8095 31.335 32.0607 30.7341 32.1649 30.1001C32.2691 29.466 32.2233 28.8163 32.0312 28.2031C32.7741 28.8927 33.7521 29.2727 34.7656 29.2656C35.239 29.2653 35.7089 29.1861 36.1562 29.0313L39.8594 41.2031Z" fill="#FF7373"/>
<path d="M67.1875 73.4375V89.0625H53.125L46.875 84.375L54.6875 82.8125L48.4375 73.4375L59.375 79.6875L57.2656 73.3594C57.9688 73.4062 58.6719 73.4375 59.375 73.4375H60.4219L62.5 75V73.4375H67.1875Z" fill="#EF5350"/>
<path d="M31.25 32.0781V43.3594L29.9844 43.6719C29.8112 42.8266 29.3774 42.0569 28.744 41.4711C28.1105 40.8853 27.3093 40.5129 26.4531 40.4062C27.0962 40.1269 27.657 39.6874 28.082 39.1297C28.507 38.572 28.7819 37.9147 28.8806 37.2205C28.9794 36.5264 28.8985 35.8185 28.6459 35.1644C28.3933 34.5103 27.9772 33.9319 27.4375 33.4844C27.6692 33.5284 27.9048 33.5493 28.1406 33.5469C28.7348 33.5443 29.3211 33.4115 29.8584 33.1577C30.3956 32.904 30.8707 32.5354 31.25 32.0781Z" fill="#EF5350"/>
<path d="M63.3086 66.1672L64.2477 49.3641L75.5758 54.6469L63.3086 66.1672Z" fill="#FFD000"/>
<path d="M91.6749 5.30747C93.1768 6.00872 94.3387 7.2779 94.9049 8.8358C95.4711 10.3937 95.3952 12.1127 94.694 13.6147L93.372 16.4463L82.0456 11.1582L83.3677 8.32657C84.0689 6.82461 85.3381 5.66273 86.896 5.09654C88.4539 4.53035 90.1729 4.60622 91.6749 5.30747Z" fill="#E9F1F2"/>
<path d="M64.2598 49.3919L82.1051 11.1701L93.4301 16.4576L75.5848 54.6794L64.2598 49.3919Z" fill="#FF7373"/>
<path d="M70.6695 59.2547L63.8711 56.0859L63.3086 66.1672L70.6695 59.2547Z" fill="#93999A"/>
<path d="M65.4805 56.8359L70.6695 59.2547L75.5758 54.6469L69.5461 51.8344C68.2477 53.5469 66.9039 55.2234 65.4805 56.8359Z" fill="#FFB700"/>
<path d="M91.7031 5.27501C91.5469 5.20157 91.3906 5.16563 91.2219 5.10782C91.5652 5.91218 91.7351 6.77987 91.7206 7.65431C91.706 8.52875 91.5074 9.39031 91.1375 10.1828L89.1562 14.4313L93.4047 16.4063L94.725 13.5734C95.4233 12.0721 95.4973 10.355 94.9307 8.79911C94.3641 7.24324 93.2033 5.97579 91.7031 5.27501Z" fill="#D0D8DA"/>
<path d="M79.0305 36.1438L89.1555 14.425L93.4039 16.4063L75.5742 54.6469L69.543 51.8344C73.2529 46.9554 76.4333 41.6956 79.0305 36.1438Z" fill="#EF5350"/>
<path d="M63.7227 58.7391L63.3086 66.1672L70.6695 59.2547L65.4805 56.8359C64.9086 57.4828 64.3133 58.1094 63.7227 58.7391Z" fill="#656B76"/>
<path d="M4.6875 35.9375C4.2731 35.9375 3.87567 36.1021 3.58265 36.3951C3.28962 36.6882 3.125 37.0856 3.125 37.5V95.3125C3.125 95.7269 3.28962 96.1243 3.58265 96.4174C3.87567 96.7104 4.2731 96.875 4.6875 96.875H73.4375C73.8519 96.875 74.2493 96.7104 74.5424 96.4174C74.8354 96.1243 75 95.7269 75 95.3125V64.7484C75 64.334 74.8354 63.9366 74.5424 63.6436C74.2493 63.3506 73.8519 63.1859 73.4375 63.1859C73.0231 63.1859 72.6257 63.3506 72.3326 63.6436C72.0396 63.9366 71.875 64.334 71.875 64.7484V93.75H6.25V37.5C6.25 37.0856 6.08538 36.6882 5.79235 36.3951C5.49933 36.1021 5.1019 35.9375 4.6875 35.9375Z" fill="black"/>
<path d="M67.1875 18.75C67.6019 18.75 67.9994 18.5854 68.2924 18.2924C68.5854 17.9993 68.75 17.6019 68.75 17.1875V10.9375C68.75 10.5231 68.5854 10.1257 68.2924 9.83265C67.9994 9.53962 67.6019 9.375 67.1875 9.375H36.8891C36.645 9.37493 36.4042 9.43207 36.1862 9.54182C35.9681 9.65158 35.7788 9.8109 35.6334 10.007C35.4881 10.2031 35.3907 10.4306 35.349 10.6711C35.3074 10.9117 35.3228 11.1586 35.3938 11.3922L44.1657 40.2109C44.2631 40.5313 44.4609 40.8118 44.7298 41.0113C44.9987 41.2107 45.3246 41.3185 45.6594 41.3188C45.7874 41.3192 45.915 41.3034 46.0391 41.2719L67.5672 35.8906C67.9051 35.806 68.205 35.6109 68.4193 35.3363C68.6336 35.0617 68.75 34.7233 68.75 34.375V23.4375C68.75 23.0231 68.5854 22.6257 68.2924 22.3326C67.9994 22.0396 67.6019 21.875 67.1875 21.875C66.7731 21.875 66.3757 22.0396 66.0827 22.3326C65.7897 22.6257 65.625 23.0231 65.625 23.4375V33.1547L62.086 34.0391C61.5433 33.2801 61.2511 32.3706 61.25 31.4375C61.2479 30.7821 61.3917 30.1345 61.6708 29.5416C61.95 28.9486 62.3576 28.4253 62.8641 28.0094C63.1247 27.7894 63.3061 27.4902 63.3807 27.1575C63.4553 26.8247 63.419 26.4767 63.2774 26.1665C63.1358 25.8563 62.8965 25.601 62.5962 25.4394C62.2959 25.2779 61.951 25.2191 61.6141 25.2719C60.9777 25.3801 60.3254 25.3484 59.7025 25.1791C59.0796 25.0098 58.501 24.707 58.0069 24.2916C57.5129 23.8761 57.1152 23.3581 56.8415 22.7735C56.5677 22.1889 56.4246 21.5518 56.4219 20.9062C56.4249 20.4425 56.4965 19.9818 56.6344 19.5391C56.7354 19.2122 56.7264 18.8612 56.6086 18.54C56.4909 18.2188 56.271 17.9451 55.9827 17.7609C55.6944 17.5768 55.3536 17.4923 55.0127 17.5205C54.6717 17.5488 54.3495 17.6881 54.0954 17.9172C53.5308 18.4265 52.8452 18.7828 52.1039 18.9518C51.3626 19.1209 50.5903 19.0972 49.8607 18.883C49.1312 18.6688 48.4687 18.2713 47.9364 17.7283C47.4042 17.1853 47.0199 16.5149 46.8204 15.7813C46.7311 15.4496 46.535 15.1566 46.2624 14.9476C45.9898 14.7386 45.656 14.6252 45.3125 14.625C44.9689 14.6253 44.6349 14.7389 44.3623 14.9482C44.0897 15.1575 43.8937 15.4509 43.8047 15.7828C43.6181 16.4904 43.2563 17.1397 42.7528 17.6708C42.2492 18.2019 41.6202 18.5978 40.9235 18.8219L38.9969 12.5H65.625V17.1875C65.625 17.6019 65.7897 17.9993 66.0827 18.2924C66.3757 18.5854 66.7731 18.75 67.1875 18.75ZM53.036 36.2953L46.7188 37.8734L44.4079 30.2797C44.6251 30.1255 44.8308 29.9558 45.0235 29.7719C45.6684 30.3857 46.4505 30.8367 47.3047 31.0875C48.1618 31.3422 49.0678 31.3856 49.9454 31.2141C50.2222 32.3641 50.8595 33.3956 51.7641 34.1578C52.226 34.5499 52.7498 34.8625 53.3141 35.0828C53.1756 35.4751 53.0823 35.8819 53.036 36.2953ZM45.3125 19.4937C46.2759 20.6307 47.5515 21.4603 48.9814 21.8799C50.4113 22.2995 51.9329 22.2908 53.3579 21.8547C53.5504 23.3348 54.1755 24.7252 55.1547 25.8517C56.1339 26.9782 57.4237 27.7907 58.8625 28.1875C58.378 29.2024 58.1265 30.3128 58.1266 31.4375C58.1272 32.6125 58.3983 33.7716 58.9188 34.825L56.6797 35.3844C56.7811 35.2565 56.8941 35.1383 57.0172 35.0312C57.2766 34.8092 57.4561 34.5083 57.5283 34.1746C57.6005 33.8409 57.5613 33.4928 57.4169 33.1834C57.2725 32.874 57.0308 32.6205 56.7286 32.4615C56.4265 32.3025 56.0805 32.2469 55.7438 32.3031C55.3986 32.366 55.0438 32.351 54.7051 32.2594C54.3664 32.1678 54.0524 32.0017 53.786 31.7734C53.5171 31.5487 53.3007 31.268 53.1517 30.9509C53.0027 30.6337 52.9248 30.2879 52.9235 29.9375C52.9259 29.6805 52.966 29.4252 53.0422 29.1797C53.1432 28.8523 53.1339 28.5009 53.0156 28.1794C52.8973 27.8579 52.6766 27.5842 52.3875 27.4004C52.0984 27.2166 51.7569 27.1329 51.4156 27.1622C51.0743 27.1915 50.752 27.3321 50.4985 27.5625C50.1921 27.8399 49.8197 28.0341 49.4169 28.1267C49.0141 28.2192 48.5943 28.207 48.1975 28.0912C47.8008 27.9755 47.4403 27.7599 47.1505 27.4652C46.8608 27.1705 46.6513 26.8065 46.5422 26.4078C46.4535 26.0769 46.2585 25.7843 45.9871 25.5751C45.7158 25.3659 45.3833 25.2517 45.0407 25.25C44.6991 25.2498 44.3669 25.3615 44.0948 25.5681C43.8228 25.7747 43.626 26.0647 43.5344 26.3938C43.4901 26.5388 43.4326 26.6795 43.3625 26.8141L41.8438 21.8141C43.1953 21.3823 44.3975 20.578 45.3125 19.4937Z" fill="black"/>
<path d="M17.1875 12.5C17.6019 12.5 17.9993 12.3354 18.2924 12.0424C18.5854 11.7493 18.75 11.3519 18.75 10.9375C18.75 10.5231 18.5854 10.1257 18.2924 9.83265C17.9993 9.53962 17.6019 9.375 17.1875 9.375H10.9375C10.5231 9.375 10.1257 9.53962 9.83265 9.83265C9.53962 10.1257 9.375 10.5231 9.375 10.9375V48.4375C9.37501 48.675 9.42916 48.9094 9.53334 49.1228C9.63752 49.3363 9.78899 49.5232 9.97623 49.6693C10.1635 49.8154 10.3816 49.9169 10.6139 49.9661C10.8463 50.0153 11.0868 50.0108 11.3172 49.9531L40.2313 42.725C40.4365 42.6734 40.6292 42.5807 40.7976 42.4524C40.9659 42.3241 41.1065 42.1629 41.2106 41.9787C41.3148 41.7944 41.3805 41.5909 41.4036 41.3805C41.4268 41.1701 41.4069 40.9572 41.3453 40.7547L32.1266 10.4828C32.0294 10.1635 31.8326 9.88368 31.565 9.68433C31.2973 9.48498 30.9728 9.37658 30.6391 9.375H23.4375C23.0231 9.375 22.6257 9.53962 22.3326 9.83265C22.0396 10.1257 21.875 10.5231 21.875 10.9375C21.875 11.3519 22.0396 11.7493 22.3326 12.0424C22.6257 12.3354 23.0231 12.5 23.4375 12.5H29.4813L31.2375 18.2719C30.8199 18.776 30.2968 19.1823 29.7049 19.462C29.1131 19.7417 28.4671 19.888 27.8125 19.8906C26.7205 19.8963 25.6666 19.4889 24.8625 18.75C24.6084 18.5195 24.2855 18.379 23.9436 18.3503C23.6017 18.3216 23.2599 18.4062 22.9708 18.591C22.6818 18.7759 22.4617 19.0508 22.3444 19.3732C22.2271 19.6956 22.2192 20.0476 22.3219 20.375C22.5476 21.0985 22.5851 21.8676 22.4309 22.6097C22.2767 23.3518 21.9358 24.0422 21.4405 24.6159C20.9452 25.1896 20.3118 25.6275 19.6001 25.8883C18.8885 26.149 18.1221 26.2241 17.3734 26.1063C17.0339 26.0446 16.6836 26.0971 16.377 26.2555C16.0704 26.4139 15.8249 26.6693 15.6788 26.9819C15.5327 27.2945 15.4941 27.6467 15.5692 27.9835C15.6443 28.3203 15.8287 28.6228 16.0938 28.8437C16.6781 29.3294 17.1282 29.9566 17.4013 30.6656C17.6744 31.3746 17.7612 32.1417 17.6536 32.8938C17.5459 33.6459 17.2474 34.3579 16.7864 34.9618C16.3254 35.5658 15.7174 36.0415 15.0203 36.3438C14.7051 36.4795 14.4433 36.7152 14.2754 37.0145C14.1074 37.3138 14.0428 37.6601 14.0913 37.9999C14.1398 38.3397 14.2989 38.654 14.5439 38.8943C14.7889 39.1347 15.1062 39.2877 15.4469 39.3297C16.5259 39.4673 17.5178 39.9935 18.2368 40.8097C18.9559 41.6259 19.3527 42.6763 19.3531 43.7641C19.3485 44.0972 19.305 44.4286 19.2234 44.7516L12.5 46.4359V12.5H17.1875ZM30.9375 41.8281C30.5621 41.1125 30.0385 40.485 29.4016 39.9875C29.9444 39.2378 30.297 38.3674 30.429 37.4513C30.561 36.5351 30.4685 35.6006 30.1594 34.7281C31.0211 34.3914 31.7883 33.8507 32.3952 33.1524C33.002 32.4541 33.4305 31.619 33.6438 30.7188C34.1067 30.8093 34.579 30.8418 35.05 30.8156L37.8734 40.0922L30.9375 41.8281ZM18.9063 37.3141C19.8997 36.2002 20.5429 34.8183 20.7555 33.341C20.9681 31.8638 20.7406 30.3566 20.1016 29.0078C21.7417 28.549 23.1808 27.5538 24.1891 26.1813C24.9469 25.1532 25.4308 23.9493 25.5953 22.6828C26.3131 22.9036 27.0599 23.0158 27.8109 23.0156C29.4014 23.0126 30.9518 22.5164 32.2484 21.5953L34.0766 27.6031C33.708 27.5018 33.3693 27.3131 33.0891 27.0531C32.8359 26.8193 32.5126 26.6758 32.1694 26.6448C31.8262 26.6138 31.4824 26.6971 31.1915 26.8818C30.9006 27.0665 30.6789 27.3421 30.5609 27.6659C30.4429 27.9896 30.4352 28.3433 30.5391 28.6719C30.6607 29.0528 30.6899 29.4572 30.6245 29.8517C30.559 30.2461 30.4006 30.6194 30.1625 30.9406C29.8999 31.3242 29.5321 31.6237 29.1032 31.8031C28.6744 31.9825 28.2028 32.034 27.7453 31.9516C27.4031 31.8825 27.0477 31.9301 26.7357 32.0866C26.4237 32.2431 26.1731 32.4996 26.0239 32.8152C25.8746 33.1308 25.8354 33.4872 25.9123 33.8277C25.9893 34.1681 26.178 34.473 26.4484 34.6938C26.78 34.9713 27.0353 35.329 27.19 35.7328C27.3447 36.1366 27.3938 36.5732 27.3326 37.0013C27.2715 37.4293 27.102 37.8347 26.8404 38.179C26.5788 38.5233 26.2336 38.7952 25.8375 38.9688C25.5209 39.1032 25.2575 39.3383 25.0882 39.6377C24.9189 39.9371 24.853 40.2839 24.9009 40.6245C24.9488 40.9651 25.1078 41.2804 25.3531 41.5215C25.5984 41.7625 25.9164 41.9159 26.2578 41.9578C26.7986 42.0241 27.304 42.2617 27.7 42.6359L22.4656 43.9453C22.4656 43.8844 22.4828 43.825 22.4828 43.7656C22.4832 42.4751 22.1551 41.2057 21.5294 40.077C20.9036 38.9484 20.0009 37.9975 18.9063 37.3141Z" fill="black"/>
<path d="M15.625 70.3125C16.4879 70.3125 17.1875 69.6129 17.1875 68.75C17.1875 67.8871 16.4879 67.1875 15.625 67.1875C14.7621 67.1875 14.0625 67.8871 14.0625 68.75C14.0625 69.6129 14.7621 70.3125 15.625 70.3125Z" fill="black"/>
<path d="M96.4062 8.26719C95.877 6.8159 94.9294 5.55408 93.6832 4.64123C92.437 3.72837 90.9482 3.20545 89.4048 3.13856C87.8615 3.07167 86.333 3.46381 85.0125 4.26542C83.692 5.06703 82.6388 6.24213 81.9859 7.64219L75 22.6078V4.6875C75 4.2731 74.8354 3.87567 74.5424 3.58265C74.2493 3.28962 73.8519 3.125 73.4375 3.125H4.6875C4.2731 3.125 3.87567 3.28962 3.58265 3.58265C3.28962 3.87567 3.125 4.2731 3.125 4.6875V31.25C3.125 31.6644 3.28962 32.0618 3.58265 32.3549C3.87567 32.6479 4.2731 32.8125 4.6875 32.8125C5.1019 32.8125 5.49933 32.6479 5.79235 32.3549C6.08538 32.0618 6.25 31.6644 6.25 31.25V6.25H71.875V29.3094L66.5453 40.7375L10.5578 54.7344C10.2199 54.819 9.92001 55.0141 9.70571 55.2887C9.49141 55.5633 9.37501 55.9017 9.375 56.25V64.075C9.31094 64.1234 9.24219 64.1641 9.17812 64.2156C8.24818 64.9573 7.50071 65.9023 6.99321 66.9781C6.48571 68.0539 6.2317 69.2317 6.25072 70.421C6.26973 71.6104 6.56126 72.7795 7.10289 73.8385C7.64452 74.8975 8.42182 75.8181 9.375 76.5297V89.0625C9.375 89.4769 9.53962 89.8743 9.83265 90.1674C10.1257 90.4604 10.5231 90.625 10.9375 90.625H67.1875C67.6019 90.625 67.9993 90.4604 68.2924 90.1674C68.5854 89.8743 68.75 89.4769 68.75 89.0625V63.5016L75.9375 57.2422C76.1019 57.0988 76.2344 56.9227 76.3266 56.725L84.0625 40.1437C84.1492 39.9577 84.1984 39.7565 84.2073 39.5515C84.2162 39.3464 84.1847 39.1417 84.1144 38.9488C84.0442 38.756 83.9367 38.5789 83.798 38.4276C83.6594 38.2764 83.4923 38.1539 83.3063 38.0672C83.1202 37.9805 82.919 37.9313 82.714 37.9224C82.5089 37.9135 82.3042 37.945 82.1113 38.0152C81.9185 38.0855 81.7414 38.193 81.5901 38.3317C81.4389 38.4703 81.3164 38.6374 81.2297 38.8234L74.1594 53.9797L71.3266 52.6594L88.4969 15.8469L91.3281 17.1687L83.8719 33.1594C83.7789 33.3461 83.7243 33.5495 83.7112 33.7576C83.698 33.9658 83.7267 34.1745 83.7955 34.3713C83.8644 34.5682 83.9719 34.7494 84.1118 34.904C84.2517 35.0587 84.4212 35.1838 84.6102 35.2719C84.7992 35.3601 85.004 35.4095 85.2124 35.4173C85.4208 35.425 85.6287 35.391 85.8237 35.3172C86.0188 35.2433 86.1971 35.1312 86.3481 34.9874C86.4991 34.8435 86.6199 34.6709 86.7031 34.4797L96.1406 14.2406C96.578 13.3121 96.8267 12.3059 96.8723 11.2805C96.9179 10.2551 96.7595 9.23089 96.4062 8.26719ZM87.4578 6.53594C88.3288 6.21909 89.2742 6.16757 90.1745 6.3879C91.0748 6.60823 91.8896 7.09052 92.5159 7.7738C93.1421 8.45709 93.5518 9.3107 93.693 10.2267C93.8342 11.1428 93.7007 12.0801 93.3094 12.9203L92.6484 14.3359L84.1531 10.3734L84.8125 8.95781C85.0712 8.39915 85.4383 7.89741 85.8924 7.48167C86.3465 7.06593 86.8785 6.74448 87.4578 6.53594ZM64.9813 60.0516L66.9172 60.9547L64.9344 62.6734L64.9813 60.0516ZM65.0437 56.6312L65.1047 53.2141L68.5938 54.8437L72.0781 56.4688L69.5 58.7141L65.0437 56.6312ZM65.6688 50.025L82.8328 13.2062L85.6641 14.5266L68.4953 51.3453L65.6688 50.025ZM12.5 57.4703L64.8438 44.3828L62.1687 50.1203C62.0776 50.3164 62.0276 50.5291 62.0219 50.7453L61.9875 52.6609L60.6734 50.6891C60.4965 50.424 60.2428 50.2194 59.9463 50.1026C59.6498 49.9859 59.3247 49.9626 59.0145 50.0359C58.7044 50.1092 58.4241 50.2755 58.2112 50.5126C57.9983 50.7498 57.863 51.0463 57.8234 51.3625L56.5469 61.5672L44.5078 54.8781C44.2229 54.7198 43.8957 54.6544 43.5718 54.6913C43.248 54.7282 42.9437 54.8655 42.7018 55.0838C42.4598 55.3022 42.2922 55.5908 42.2224 55.9092C42.1526 56.2276 42.1841 56.5598 42.3125 56.8594L45.625 64.6047L30.175 59.4484C29.8472 59.3395 29.4926 59.3421 29.1665 59.4561C28.8405 59.57 28.5613 59.7888 28.3728 60.0782C28.1843 60.3677 28.0969 60.7114 28.1245 61.0557C28.152 61.4 28.2929 61.7255 28.525 61.9812L36.0938 70.3125C36.2309 70.4677 36.3975 70.594 36.584 70.6842C36.7704 70.7744 36.9729 70.8267 37.1797 70.8379C37.3865 70.8492 37.5934 70.8192 37.7885 70.7497C37.9836 70.6803 38.163 70.5727 38.3162 70.4333C38.4693 70.2939 38.5933 70.1255 38.6807 69.9377C38.7682 69.75 38.8175 69.5468 38.8258 69.3399C38.834 69.1329 38.801 68.9264 38.7287 68.7323C38.6564 68.5383 38.5463 68.3605 38.4047 68.2094L34.8594 64.3031L47.9375 68.6609C48.2231 68.7559 48.5301 68.7663 48.8215 68.691C49.1129 68.6157 49.3764 68.4578 49.5802 68.2363C49.784 68.0148 49.9195 67.7392 49.9704 67.4425C50.0214 67.1459 49.9855 66.8408 49.8672 66.5641L46.9859 59.8438L57.0531 65.4359C57.2766 65.5601 57.5271 65.6276 57.7827 65.6324C58.0383 65.6372 58.2912 65.5792 58.5191 65.4635C58.7471 65.3478 58.9432 65.178 59.0903 64.9689C59.2373 64.7597 59.3308 64.5177 59.3625 64.2641L60.4047 55.9313L61.8906 58.1594L61.7453 66.1453C61.7408 66.5519 61.8949 66.9443 62.175 67.2391C62.0311 67.2686 61.8922 67.3186 61.7625 67.3875C61.5154 67.5198 61.3085 67.716 61.1634 67.9557C61.0182 68.1954 60.9402 68.4698 60.9375 68.75V71.875L57.1875 69.0625C56.9211 68.8626 56.5978 68.753 56.2648 68.7497C55.9317 68.7464 55.6064 68.8497 55.3361 69.0444C55.0659 69.2391 54.865 69.515 54.7626 69.832C54.6603 70.1489 54.6619 70.4903 54.7672 70.8063L56.6 76.3016L49.2125 72.0828C48.9069 71.9083 48.5513 71.8421 48.2034 71.8948C47.8554 71.9476 47.5355 72.1163 47.2953 72.3736C47.0552 72.6309 46.909 72.9617 46.8803 73.3125C46.8517 73.6632 46.9423 74.0134 47.1375 74.3063L52.0938 81.7406L46.5625 82.8438C46.2674 82.9039 45.9959 83.0481 45.7809 83.2589C45.5658 83.4698 45.4162 83.7383 45.3502 84.0322C45.2841 84.326 45.3045 84.6327 45.4086 84.9153C45.5128 85.1979 45.6965 85.4444 45.9375 85.625L48.4375 87.5H39.7422L34.6562 82.0516L45.6453 79.6516C45.9133 79.5932 46.1613 79.4653 46.3642 79.2808C46.5671 79.0962 46.7179 78.8615 46.8013 78.6002C46.8848 78.3389 46.898 78.0603 46.8396 77.7923C46.7812 77.5243 46.6533 77.2763 46.4688 77.0734L42.6203 72.8406C42.4822 72.6888 42.3156 72.5656 42.1299 72.4782C41.9442 72.3908 41.7431 72.3408 41.5381 72.331C41.3331 72.3213 41.1282 72.3521 40.935 72.4215C40.7419 72.491 40.5643 72.5978 40.4125 72.7359C40.2607 72.874 40.1375 73.0407 40.0501 73.2264C39.9626 73.4121 39.9126 73.6132 39.9029 73.8182C39.8932 74.0232 39.9239 74.2281 39.9934 74.4212C40.0629 74.6144 40.1697 74.7919 40.3078 74.9437L42.3391 77.1766L31.3094 79.5844C31.0399 79.6432 30.7907 79.7724 30.5873 79.9587C30.3839 80.145 30.2334 80.3819 30.1512 80.6452C30.069 80.9085 30.058 81.1889 30.1192 81.4579C30.1805 81.7269 30.3119 81.9748 30.5 82.1766L35.4688 87.5H23.4375V81.6141L30.9156 73.0672C31.5706 72.3209 31.9256 71.3583 31.912 70.3654C31.8984 69.3725 31.5172 68.42 30.842 67.6919C30.1668 66.9639 29.2456 66.512 28.2566 66.4238C27.2676 66.3355 26.281 66.6171 25.4875 67.2141L21.875 69.9281C21.8471 69.38 21.7639 68.8361 21.6266 68.3047C21.2678 66.9307 20.5391 65.6814 19.5198 64.6927C18.5005 63.704 17.2296 63.0137 15.8453 62.6969C14.7445 62.4531 13.6047 62.4435 12.5 62.6688V57.4703ZM12.5 87.5V75.6953C12.4994 75.4216 12.427 75.1528 12.2899 74.9159C12.1528 74.6789 11.9558 74.4822 11.7188 74.3453C11.0546 73.9592 10.4957 73.4154 10.0916 72.762C9.68742 72.1087 9.4504 71.3658 9.40144 70.5991C9.35248 69.8324 9.49311 69.0655 9.81088 68.366C10.1287 67.6666 10.6138 67.0561 11.2235 66.5886C11.8331 66.1212 12.5485 65.811 13.3065 65.6856C14.0645 65.5602 14.8416 65.6235 15.5694 65.8697C16.2971 66.1159 16.953 66.5376 17.4791 67.0974C18.0052 67.6573 18.3854 68.3381 18.5859 69.0797C18.7648 69.7466 18.7941 70.4449 18.6717 71.1245C18.5494 71.8041 18.2784 72.4482 17.8781 73.0109C17.6657 73.3155 17.5687 73.6857 17.6044 74.0553C17.6401 74.4248 17.8063 74.7696 18.0731 75.0278C18.34 75.286 18.69 75.4407 19.0606 75.4642C19.4311 75.4878 19.798 75.3786 20.0953 75.1562L27.3625 69.7063C27.5384 69.5752 27.7565 69.5138 27.975 69.5339C28.1934 69.554 28.3967 69.6541 28.5458 69.815C28.6948 69.9759 28.7792 70.1862 28.7826 70.4056C28.7859 70.6249 28.7081 70.8377 28.5641 71.0031L20.7 80C20.4506 80.2845 20.3129 80.6498 20.3125 81.0281V87.5H12.5ZM53.6453 87.5L50.6078 85.2219L55 84.3438C55.2516 84.2934 55.487 84.1818 55.6853 84.0189C55.8836 83.856 56.0387 83.6468 56.1369 83.4097C56.2351 83.1726 56.2735 82.915 56.2485 82.6596C56.2235 82.4042 56.136 82.1589 55.9937 81.9453L53.4156 78.0781L58.6063 81.0469C58.8809 81.2038 59.1968 81.2737 59.512 81.2473C59.8273 81.2209 60.1271 81.0994 60.3718 80.8989C60.6165 80.6984 60.7946 80.4283 60.8825 80.1244C60.9704 79.8205 60.964 79.4971 60.8641 79.1969L59.3203 74.5672L61.5625 76.25C61.7946 76.4241 62.0707 76.5301 62.3597 76.5562C62.6487 76.5822 62.9392 76.5273 63.1988 76.3975C63.4583 76.2678 63.6766 76.0683 63.8291 75.8215C63.9817 75.5746 64.0625 75.2902 64.0625 75V71.6687L65.625 72.7109V87.5H53.6453ZM65.625 68.9563L63.6844 67.6562C63.9224 67.6042 64.145 67.4972 64.3344 67.3438L65.625 66.2219V68.9563Z" fill="black"/>
</svg>
