<svg width="100" height="100" viewBox="0 0 100 100" fill="none" xmlns="http://www.w3.org/2000/svg">
<g clip-path="url(#clip0_562_2289)">
<path d="M23.4378 39.0625L18.7503 43.75L17.1878 42.1875L15.0159 43.2656C14.8237 43.326 14.6236 43.3576 14.4222 43.3594C14.0718 43.3647 13.7267 43.2745 13.4238 43.0983C13.121 42.9221 12.8719 42.6666 12.7034 42.3594C12.5865 42.1359 12.5198 41.8896 12.5078 41.6377C12.4959 41.3858 12.539 41.1343 12.6342 40.9008C12.7294 40.6672 12.8744 40.4573 13.059 40.2855C13.2437 40.1137 13.4636 39.9843 13.7034 39.9063L20.3128 37.5L23.4378 39.0625Z" fill="#FFB6A4"/>
<path d="M48.4375 7.8125C49.0895 7.81126 49.7255 8.01398 50.2566 8.39227C50.7876 8.77056 51.187 9.30547 51.3989 9.92208C51.6107 10.5387 51.6244 11.2061 51.438 11.8309C51.2516 12.4557 50.8744 13.0065 50.3594 13.4062C50.0119 12.6549 49.4529 12.0212 48.7508 11.5827C48.0486 11.1442 47.2339 10.92 46.4063 10.9375C46.0647 10.936 45.724 10.9727 45.3906 11.0469C45.3821 11.0459 45.3735 11.0467 45.3654 11.0494C45.3573 11.0521 45.3499 11.0566 45.3438 11.0625L45.3125 10.9375C45.315 10.1095 45.645 9.31604 46.2305 8.73052C46.816 8.14501 47.6095 7.81497 48.4375 7.8125Z" fill="#FFD48A"/>
<path d="M57.8125 46.875V50H54.6875L50 46.875L45.3125 43.75L50 42.1875L57.8125 46.875Z" fill="#FF8088"/>
<path d="M43.8437 55.4531L40.625 56.25L36.3438 51.3594C38.2031 50.4688 45.9062 46.875 50 46.875L46.875 54.6875L43.8437 55.4531Z" fill="#FFA1A7"/>
<path d="M57.5938 59.75L54.6875 57.8125V50H57.8125C62.5 53.125 65.625 60.9375 65.625 60.9375H59.375L57.5938 59.75Z" fill="#FFA1A7"/>
<path d="M45.3125 43.75L50 46.875C45.9062 46.875 38.2031 50.4688 36.3438 51.3594L29.6875 43.75H45.3125Z" fill="#FFB3B7"/>
<path d="M51.6875 58.8125L50 59.375L46.875 54.6875L50 46.875L54.6875 50V57.8125L51.6875 58.8125Z" fill="#FFB3B7"/>
<path d="M71.875 60.9375H65.625C65.625 60.9375 62.5 53.125 57.8125 50V46.875C64.0625 46.875 71.875 60.9375 71.875 60.9375Z" fill="#FFB3B7"/>
<path d="M60.9375 32.75V35.9375L57.8125 46.875L50 42.1875L51.5625 39.0625L48.4375 35.9375L53.125 31.25L57.8125 32.8125L59.2656 29.9062L59.7656 30.3125C60.1305 30.6056 60.4251 30.9766 60.6278 31.3984C60.8306 31.8202 60.9364 32.282 60.9375 32.75Z" fill="#EB3542"/>
<path d="M50.3594 13.4063C50.4434 13.6196 50.5114 13.839 50.5625 14.0625L51.5625 18.6719V20.1563C51.5651 20.2088 51.5598 20.2615 51.5469 20.3125C51.497 20.8732 51.2773 21.4054 50.9172 21.8381C50.5571 22.2708 50.0736 22.5835 49.5313 22.7344L48.3281 23.0938L47.6719 23.2969C47.1531 23.4598 46.6008 23.485 46.0694 23.37C45.5379 23.2549 45.0456 23.0036 44.6406 22.6406C44.2689 22.2985 43.9986 21.8606 43.8594 21.375L42.1875 15.2344V14.8125C42.2153 13.9236 42.5419 13.07 43.1146 12.3896C43.6873 11.7092 44.4726 11.2416 45.3438 11.0625C45.3499 11.0566 45.3573 11.0521 45.3654 11.0494C45.3735 11.0467 45.3821 11.0459 45.3906 11.0469C45.724 10.9727 46.0647 10.9361 46.4063 10.9375C47.2339 10.92 48.0486 11.1442 48.7508 11.5827C49.4529 12.0212 50.0119 12.6549 50.3594 13.4063Z" fill="#FFB6A4"/>
<path d="M71.875 1.5625V4.6875L67.1875 7.8125L64.0625 4.6875C64.5318 3.74697 65.2543 2.95611 66.1487 2.404C67.0431 1.85189 68.0739 1.56045 69.125 1.5625H71.875Z" fill="#FFB6A4"/>
<path d="M67.1875 7.8125L64.0625 17.1875L57.8125 28.125L57.5 28.5L53.125 25L59.375 15.625L64.0625 4.6875L67.1875 7.8125Z" fill="#FFB6A4"/>
<path d="M59.2656 29.9062L57.8125 32.8125L53.125 31.25L48.4375 35.9375L45.3125 32.8125L23.4375 39.0625L20.3125 37.5L40.625 28.125L46.875 26.5625L48.4375 23.4375L48.3281 23.0937L49.5313 22.7344C50.0736 22.5835 50.5571 22.2708 50.9172 21.8381C51.2773 21.4054 51.497 20.8732 51.5469 20.3125H51.5625L53.125 25L57.5 28.5L59.2656 29.9062Z" fill="#FFB6A4"/>
<path d="M57.5937 59.75L52.8281 67.9219L51.6875 58.8125L54.6875 57.8125L57.5937 59.75Z" fill="#F99B98"/>
<path d="M54.0469 87.6094L53.125 85.9375V70.3125L52.8281 67.9219L51.6875 58.8125L50 59.375L46.875 54.6875L43.8438 55.4531L46.875 67.1875V77.6875L46.9219 78.0469L48.4375 89.5V95.3125C48.4709 96.0923 48.7811 96.8346 49.3125 97.4063C49.5492 97.7074 49.8471 97.955 50.1864 98.1328C50.5257 98.3105 50.8989 98.4144 51.2813 98.4375C51.8916 98.4479 52.4866 98.2465 52.9652 97.8676C53.4438 97.4888 53.7763 96.9558 53.9063 96.3594L54.4531 93.7344C54.874 91.6935 54.7336 89.5768 54.0469 87.6094Z" fill="#FFC4B5"/>
<path d="M48.4375 89.5V93.75L47.5 96.5781C47.295 97.1916 46.8785 97.7122 46.3251 98.0469C45.7716 98.3816 45.1172 98.5087 44.4787 98.4054C43.8402 98.3021 43.2592 97.9752 42.8395 97.483C42.4197 96.9909 42.1887 96.3656 42.1875 95.7187V87.5L46.875 78.125L46.9219 78.0469L48.4375 89.5Z" fill="#FFB6A4"/>
<path d="M46.875 12.5C47.2869 13.264 47.8578 13.9308 48.5491 14.4555C49.2405 14.9803 50.0362 15.3508 50.8828 15.5422L50.5625 14.0625C50.5114 13.839 50.4434 13.6196 50.3594 13.4062C50.0119 12.6549 49.4529 12.0212 48.7508 11.5827C48.0486 11.1442 47.2339 10.92 46.4063 10.9375C46.0647 10.936 45.724 10.9727 45.3906 11.0469C45.3821 11.0459 45.3735 11.0467 45.3654 11.0494C45.3573 11.0521 45.3499 11.0566 45.3438 11.0625C44.4726 11.2416 43.6873 11.7091 43.1146 12.3896C42.5419 13.07 42.2153 13.9236 42.1875 14.8125V15.2344L42.7063 17.1391C45.4844 16.6641 46.875 12.5 46.875 12.5Z" fill="#FFD48A"/>
<path d="M46.9219 78.0469L46.875 78.125L45.3125 81.25V95.3125C45.3107 95.8887 45.149 96.4532 44.8456 96.9431C44.5422 97.433 44.1088 97.8291 43.5938 98.0875C43.9942 98.3142 44.4461 98.4347 44.9063 98.4375C45.4785 98.437 46.0363 98.2574 46.5015 97.924C46.9666 97.5906 47.3158 97.12 47.5 96.5781L48.4375 93.75V89.5L46.9219 78.0469Z" fill="#F99B98"/>
<path d="M48.6578 14.5516C49.3038 15.0646 50.0693 15.4055 50.8828 15.5422L50.5625 14.0625C50.5114 13.839 50.4435 13.6196 50.3594 13.4062C50.0119 12.6549 49.4529 12.0212 48.7508 11.5827C48.0486 11.1442 47.2339 10.92 46.4063 10.9375C46.1968 10.9474 45.9881 10.9699 45.7812 11.0047C47.1662 11.7663 48.1985 13.0392 48.6578 14.5516Z" fill="#FFE0AB"/>
<path d="M50.8832 15.5422C50.0697 15.4055 49.3041 15.0646 48.6582 14.5516C48.6895 14.6516 48.7379 14.7422 48.7629 14.8453L49.8879 19.3484C49.9831 19.757 49.9947 20.1806 49.9221 20.5937C49.8494 21.0069 49.694 21.4011 49.4652 21.7527C49.2363 22.1043 48.9388 22.406 48.5904 22.6396C48.242 22.8733 47.85 23.0342 47.4379 23.1125L46.4238 23.3984C46.8431 23.4483 47.2681 23.4138 47.6738 23.2969L48.3301 23.0938L49.5332 22.7344C50.0753 22.5832 50.5584 22.2704 50.9182 21.8378C51.278 21.4051 51.4975 20.873 51.5473 20.3125C51.5602 20.2615 51.5655 20.2088 51.5629 20.1563V18.6719L50.8832 15.5422Z" fill="#FFC8BA"/>
<path d="M70.1469 3.98906L65.625 6.25L67.1875 7.8125L71.875 4.6875V1.5625H71.8234C71.7672 2.07431 71.5846 2.56409 71.2919 2.9877C70.9992 3.41131 70.6057 3.75544 70.1469 3.98906Z" fill="#F99B98"/>
<path d="M62.5 15.625L59.8719 20C59.4572 20.6896 58.7918 21.1919 58.015 21.4019C57.2382 21.6119 56.4103 21.5132 55.7047 21.1266L53.125 25L57.5 28.5L57.8125 28.125L64.0625 17.1875L67.1875 7.8125L65.625 6.25L62.5 15.625Z" fill="#F99B98"/>
<path d="M53.125 95.3125V92.1875C53.125 89.0625 50 85.9375 50 85.9375C48.6891 80.6938 49.5781 71.0516 49.8984 68.0813C49.9611 67.4902 49.8526 66.8936 49.5859 66.3625L48.4375 64.0625H50L52.2062 62.9594L51.6875 58.8125L50 59.375L46.875 54.6875L43.8438 55.4531L46.875 67.1875V77.6875L46.9219 78.0469L48.4375 89.5V95.3125C48.4709 96.0923 48.7811 96.8346 49.3125 97.4062C49.6802 97.8437 50.1638 98.1687 50.7078 98.3438C51.3931 98.1844 52.0046 97.7984 52.4433 97.2483C52.882 96.6982 53.1222 96.0161 53.125 95.3125Z" fill="#FFB6A4"/>
<path d="M53.1262 85.9375L51.5637 87.5C51.5637 87.5 51.6043 87.7141 51.659 88.0484C52.5251 89.264 53.0333 90.6978 53.1262 92.1875V95.3125C53.1248 96.0172 52.8852 96.7007 52.4464 97.2521C52.0076 97.8035 51.3954 98.1904 50.709 98.35C50.895 98.4062 51.0881 98.4357 51.2824 98.4375C51.8927 98.4479 52.4878 98.2465 52.9664 97.8676C53.4449 97.4888 53.7775 96.9558 53.9074 96.3594L54.4543 93.7344C54.8752 91.6935 54.7348 89.5768 54.048 87.6094L53.1262 85.9375Z" fill="#FFA1A7"/>
<path d="M53.125 95.3125V92.1875C53.0322 90.6978 52.5239 89.264 51.6578 88.0484C51.9438 89.8078 52.6266 95.3125 50 95.3125C49.4095 95.2876 48.8506 95.0383 48.4375 94.6156V95.3125C48.4709 96.0923 48.7811 96.8346 49.3125 97.4062C49.4864 97.6022 49.6819 97.7778 49.8953 97.9297C49.9406 97.9625 49.9875 97.9937 50.0359 98.025C50.2434 98.1646 50.4696 98.2741 50.7078 98.35C51.3942 98.1904 52.0065 97.8035 52.4452 97.2521C52.884 96.7007 53.1236 96.0172 53.125 95.3125Z" fill="#FF8088"/>
<path d="M45.3125 92.1875V81.25L42.1875 87.5V95.7187C42.1887 96.3656 42.4197 96.9909 42.8395 97.483C43.2592 97.9752 43.8402 98.3021 44.4787 98.4054C45.1172 98.5087 45.7716 98.3816 46.3251 98.0469C46.8785 97.7122 47.295 97.1916 47.5 96.5781L48.4375 93.75V93.4047C48.0869 93.6272 47.6809 93.7468 47.2656 93.75C46.8006 93.7955 46.3362 93.6577 45.9714 93.3658C45.6066 93.0739 45.3702 92.6511 45.3125 92.1875Z" fill="#FF5C67"/>
<path d="M57.5005 28.5L53.1255 25C52.6706 24.9995 52.2241 25.1226 51.8337 25.3563C51.4434 25.59 51.1239 25.9254 50.9095 26.3267C50.6951 26.7279 50.5938 27.1799 50.6164 27.6343C50.639 28.0886 50.7848 28.5283 51.038 28.9063L51.563 29.6875L53.1255 31.25L57.813 32.8125L59.2661 29.9063L57.5005 28.5Z" fill="#FFC2B3"/>
<path d="M15.625 40.625H18.2812C18.5899 40.6251 18.8916 40.5337 19.1484 40.3625L22.1031 38.3922L20.3125 37.5L14.2188 39.7188C14.3431 39.9876 14.5414 40.2155 14.7904 40.3759C15.0393 40.5364 15.3288 40.6228 15.625 40.625Z" fill="#FFC4B5"/>
<path d="M23.4375 37.5L44.7375 30.4C45.36 30.1927 45.9015 29.7946 46.2851 29.2623C46.6688 28.7301 46.8752 28.0905 46.875 27.4344V26.5625L40.625 28.125L20.3125 37.5L22.0984 38.3922L23.4375 37.5Z" fill="#FFC4B5"/>
<path d="M54.1062 40.7141L54.2859 40.4453C54.5322 40.0766 54.6973 39.6597 54.77 39.2223C54.8428 38.7849 54.8217 38.337 54.708 37.9085C54.5944 37.4799 54.3908 37.0804 54.1109 36.7365C53.8309 36.3926 53.481 36.1123 53.0844 35.9141L51.2859 35.0141C51.0728 34.9045 50.8883 34.7465 50.7472 34.5528C50.6061 34.359 50.5123 34.1349 50.4734 33.8984L48.4375 35.9375L51.5625 39.0625L50 42.1875L57.8125 46.875L58.3984 44.825L54.7078 42.9797C54.5094 42.8807 54.3344 42.7405 54.1943 42.5686C54.0543 42.3967 53.9524 42.197 53.8955 41.9827C53.8386 41.7684 53.828 41.5444 53.8643 41.3257C53.9007 41.107 53.9831 40.8985 54.1062 40.7141Z" fill="#CD2E3A"/>
<path d="M51.2187 42.9188L50 42.1875L45.3125 43.75L50 46.875L54.6875 50H57.8125L52.4813 46.8016C51.8402 46.4133 51.36 45.8076 51.1282 45.0948C50.8965 44.3821 50.9286 43.6098 51.2187 42.9188Z" fill="#FF5C67"/>
<path d="M40.6254 50L46.8754 51.5625L47.8629 52.2203L50.0004 46.875C46.6396 47.2433 43.3621 48.1613 40.2988 49.5922L40.6254 50Z" fill="#FF8088"/>
<path d="M57.8125 53.125V50H54.6875V53.9063L57.8125 53.125Z" fill="#FF8088"/>
<path d="M50 46.875L45.3125 43.75H35.625L40.2984 49.5922C43.3617 48.1613 46.6392 47.2433 50 46.875Z" fill="#FFA1A7"/>
<path d="M51.5633 54.6875L54.6883 53.9063V50L50.0008 46.875L47.8633 52.2203L51.5633 54.6875Z" fill="#FFA1A7"/>
<path d="M65.5442 17.6812L68.5004 8.81563L72.7426 5.9875C72.9565 5.84477 73.1319 5.65144 73.2532 5.42466C73.3745 5.19789 73.438 4.94468 73.4379 4.6875V1.5625C73.4379 1.1481 73.2733 0.750672 72.9803 0.457646C72.6873 0.164621 72.2898 7.28749e-07 71.8754 7.28749e-07H69.1192C67.777 -0.00482679 66.4602 0.366281 65.318 1.07129C64.1759 1.77631 63.254 2.78705 62.6567 3.98906H62.666C62.652 4.01719 62.6317 4.04063 62.6192 4.06875L57.9957 14.8766L54.9504 19.4453L57.5504 21.1797L60.6754 16.4922C60.7289 16.413 60.7744 16.3288 60.8114 16.2406L64.5895 7.42344L65.3989 8.23438L62.6301 16.5469L57.1176 26.1922L54.4614 24.0688L53.1254 20.0609V18.6688C53.125 18.5569 53.1135 18.4455 53.0911 18.3359L52.1004 13.8047C52.5324 13.2518 52.8342 12.6086 52.9833 11.9229C53.1324 11.2373 53.125 10.5268 52.9616 9.84444C52.7982 9.16206 52.483 8.5253 52.0396 7.98153C51.5961 7.43776 51.0358 7.00098 50.4002 6.70368C49.7646 6.40638 49.0702 6.25621 48.3686 6.26435C47.6669 6.27249 46.9762 6.43872 46.3477 6.75068C45.7192 7.06264 45.1691 7.5123 44.7383 8.06621C44.3076 8.62011 44.0073 9.26401 43.8598 9.95C42.9107 10.3647 42.101 11.0439 41.5274 11.9065C40.9539 12.769 40.6408 13.7784 40.6254 14.8141V15.2281C40.6256 15.3669 40.644 15.5051 40.6801 15.6391L42.3551 21.7922C42.5698 22.5612 42.9964 23.2542 43.5864 23.7922C44.246 24.3919 45.0657 24.7871 45.9457 24.9297L45.8004 25.2219L40.2473 26.6094C40.1523 26.6329 40.0597 26.6654 39.9707 26.7063L19.7176 36.0531L13.152 38.4375C12.6967 38.605 12.2824 38.8678 11.9369 39.2085C11.5914 39.5491 11.3228 39.9596 11.1489 40.4125C10.9854 40.8463 10.9163 41.31 10.9462 41.7726C10.9762 42.2352 11.1044 42.6862 11.3223 43.0953C11.7131 43.8105 12.341 44.3671 13.0978 44.6694C13.8547 44.9717 14.6932 45.0007 15.4692 44.7516C15.5458 44.7269 15.6205 44.6966 15.6926 44.6609L16.8661 44.0828L17.6379 44.8547C17.9309 45.1476 18.3283 45.3122 18.7426 45.3122C19.1569 45.3122 19.5543 45.1476 19.8473 44.8547L24.2489 40.4531L44.8504 34.5672L49.6614 39.375L48.8926 40.9141L45.0598 42.1875H29.6879C29.3875 42.1872 29.0935 42.2736 28.8409 42.4362C28.5883 42.5987 28.3879 42.8307 28.2638 43.1042C28.1396 43.3777 28.097 43.6812 28.1409 43.9784C28.1848 44.2756 28.3134 44.5538 28.5114 44.7797L39.4489 57.2797C39.6388 57.4975 39.8853 57.6583 40.1612 57.7444C40.437 57.8305 40.7313 57.8384 41.0114 57.7672L42.7161 57.3406L45.3129 67.3875V77.6891C45.3129 77.7575 45.3176 77.8259 45.327 77.8938L46.8754 89.6031V93.4984L46.0145 96.0797C45.9283 96.3424 45.7512 96.5658 45.5151 96.7095C45.2789 96.8533 44.9992 96.9081 44.7263 96.864C44.4533 96.8199 44.2051 96.6799 44.0262 96.4691C43.8473 96.2583 43.7495 95.9905 43.7504 95.7141V87.8688L45.9379 83.5109L43.1411 82.1141L40.7973 86.8016C40.6865 87.0178 40.6276 87.257 40.6254 87.5V95.7141C40.6236 96.5909 40.8914 97.447 41.3924 98.1666C41.8934 98.8861 42.6035 99.4343 43.4265 99.7368C44.2494 100.039 45.1455 100.082 45.9933 99.8578C46.841 99.6341 47.5995 99.1552 48.1661 98.4859C48.6634 99.0914 49.322 99.5435 50.0657 99.79C50.8094 100.036 51.6078 100.067 52.3682 99.8787C53.1287 99.6902 53.8202 99.2901 54.3627 98.7248C54.9051 98.1594 55.2763 97.452 55.4332 96.6844L55.977 94.0547C56.4559 91.7394 56.301 89.3377 55.5285 87.1031C55.4998 87.0186 55.4632 86.937 55.4192 86.8594L54.6879 85.5344V70.3125C54.6877 70.2477 54.6835 70.183 54.6754 70.1188L54.4051 67.9563L54.4645 67.9922L58.0864 61.9563L58.5082 62.2375C58.7653 62.4082 59.0669 62.4995 59.3754 62.5H71.8754C72.1474 62.4999 72.4145 62.4288 72.6506 62.2937C72.8866 62.1587 73.0833 61.9644 73.2212 61.73C73.3591 61.4957 73.4335 61.2294 73.437 60.9575C73.4405 60.6856 73.3729 60.4175 73.2411 60.1797C72.4754 58.7984 66.1489 47.7406 59.7817 45.675L62.4379 36.3672C62.4783 36.2275 62.4993 36.0829 62.5004 35.9375V32.7516C62.5022 32.0484 62.3448 31.354 62.0402 30.7202C61.7355 30.0865 61.2914 29.5299 60.7411 29.0922L59.5879 28.1688L65.4192 17.9688C65.4714 17.8778 65.5133 17.7814 65.5442 17.6812ZM50.7364 49.2438L53.1254 50.8359V56.6859L50.6379 57.5156L48.6317 54.5047L50.7364 49.2438ZM55.1567 48.4375L48.8332 44.2188L49.8082 43.8937L56.2504 47.7594V48.4375H55.1567ZM52.0411 41.5922L52.9567 39.7609C53.1031 39.4676 53.1535 39.1356 53.1008 38.812C53.0481 38.4884 52.8949 38.1895 52.6629 37.9578L50.6473 35.9375L53.5489 33.0375L57.3192 34.2953C57.6758 34.4146 58.0635 34.4012 58.411 34.2577C58.7586 34.1142 59.0428 33.8502 59.2114 33.5141L59.3676 33.1844V35.7188L56.8676 44.4875L52.0411 41.5922ZM49.9129 10.5078C49.8239 10.4438 49.7489 10.3672 49.6551 10.3078C49.0704 9.94693 48.4275 9.69001 47.7551 9.54844C47.9661 9.43812 48.1999 9.37873 48.4379 9.375C48.7736 9.37758 49.0992 9.4896 49.3654 9.69405C49.6316 9.89849 49.8238 10.1842 49.9129 10.5078ZM45.3707 20.9672L43.7504 15.0188V14.8141C43.7793 14.2711 43.9916 13.7541 44.3527 13.3476C44.7138 12.9411 45.2022 12.6692 45.7379 12.5766C46.5054 12.3987 47.3121 12.5318 47.9817 12.9469C48.2437 13.1049 48.4714 13.3138 48.6515 13.5612C48.8316 13.8086 48.9603 14.0896 49.0301 14.3875L50.0004 18.8375V20.15C49.9829 20.4053 49.8841 20.6483 49.7185 20.8435C49.5529 21.0386 49.3292 21.1756 49.0801 21.2344L47.2176 21.8047C46.9588 21.8863 46.6834 21.9005 46.4176 21.8458C46.1518 21.7911 45.9044 21.6694 45.6989 21.4922C45.5426 21.3513 45.4289 21.1694 45.3707 20.9672ZM18.7504 41.5406L18.2926 41.0828C18.062 40.8524 17.765 40.6999 17.4434 40.6466C17.1217 40.5934 16.7915 40.6421 16.4989 40.7859L14.4676 41.7844C14.3801 41.7986 14.2905 41.7791 14.2168 41.7298C14.1432 41.6805 14.091 41.6051 14.0707 41.5188C14.0848 41.4845 14.106 41.4537 14.133 41.4284C14.1599 41.4031 14.192 41.3838 14.227 41.3719L20.2082 39.1984L20.7942 39.4906L18.7504 41.5406ZM44.8848 31.3109L25.377 36.8828L41.1473 29.6047L47.2536 28.0781C47.4725 28.0237 47.6771 27.9224 47.8533 27.7814C48.0294 27.6403 48.1729 27.4628 48.2739 27.2609L49.7567 24.2922L50.0004 24.2188C50.3744 24.1016 50.732 23.9372 51.0645 23.7297L51.652 25.4906C51.7461 25.7767 51.9215 26.0291 52.1567 26.2172L57.3129 30.3391L57.0332 30.8984L53.6317 29.7641C53.3564 29.6725 53.0611 29.6594 52.7788 29.7261C52.4964 29.7929 52.2383 29.937 52.0332 30.1422L48.4379 33.7281L46.4176 31.7078C46.2206 31.5111 45.9747 31.3706 45.7052 31.3008C45.4357 31.2311 45.1525 31.2346 44.8848 31.3109ZM44.8442 45.3125L45.8582 45.9891C42.7367 46.8999 39.6918 48.0556 36.752 49.4453L33.1254 45.3125H44.8442ZM38.9067 51.9C41.6963 50.6048 44.5951 49.5591 47.5692 48.775L45.7317 53.3672L41.1848 54.5047L38.9067 51.9ZM52.927 93.4203L52.3832 96.05C52.3221 96.2915 52.1804 96.5049 51.9815 96.655C51.7826 96.805 51.5385 96.8826 51.2895 96.875C50.7629 96.875 50.0082 95.9547 50.0082 95.3125V89.4984C50.0083 89.43 50.0036 89.3616 49.9942 89.2937L48.4379 77.5859V67.1875C48.4378 67.0552 48.421 66.9234 48.3879 66.7953L45.7317 56.5813L46.1786 56.4703L48.6926 60.2422C48.8717 60.5072 49.1283 60.7104 49.4273 60.8239C49.7263 60.9375 50.0531 60.9559 50.3629 60.8766L51.5551 70.4078V85.9375C51.5549 86.2016 51.6222 86.4613 51.7504 86.6922L52.6082 88.2547C53.1635 89.9195 53.2696 91.7013 52.9161 93.4203H52.927ZM53.802 63.0406L53.4082 59.8906L54.4692 59.5375L55.4942 60.2203L53.802 63.0406ZM56.2504 56.9766V51.5625H57.2989C59.793 53.7184 61.7981 56.3819 63.1801 59.375H59.8442L56.2504 56.9766ZM69.1286 59.375H66.6504C65.6707 57.2172 63.0567 52.0656 59.3754 49.2188V48.8125C62.5395 50.1828 66.4723 55.1562 69.1286 59.375ZM69.1192 3.125H70.3129V3.85156L67.3864 5.80156L66.0754 4.49063C66.4572 4.06053 66.9259 3.71639 67.4507 3.48097C67.9754 3.24555 68.5441 3.12422 69.1192 3.125Z" fill="black"/>
</g>
<defs>
<clipPath id="clip0_562_2289">
<rect width="100" height="100" fill="white"/>
</clipPath>
</defs>
</svg>
