<svg width="100" height="100" viewBox="0 0 100 100" fill="none" xmlns="http://www.w3.org/2000/svg">
<path d="M50 87.5C70.7107 87.5 87.5 70.7107 87.5 50C87.5 29.2893 70.7107 12.5 50 12.5C29.2893 12.5 12.5 29.2893 12.5 50C12.5 70.7107 29.2893 87.5 50 87.5Z" fill="#69D6F4"/>
<path d="M43.75 84.375H50V85.9375C49.8437 86.4688 49.6719 86.9687 49.4687 87.4687H49.4531C49.4687 87.4844 49.4687 87.5 49.4531 87.5C47.1719 93.125 41.6719 96.875 35.5 96.875H18.2031C9.875 96.875 3.125 90.125 3.125 81.7969V78.125H12.5H15.625L18.75 84.375H43.75Z" fill="#CCD1D9"/>
<path d="M37.5 65.625C39.2188 65.625 40.625 67.0312 40.625 68.75C40.625 69.6094 40.2812 70.3906 39.7031 70.9531C39.1406 71.5312 38.3594 71.875 37.5 71.875H12.5C10.7812 71.875 9.375 70.4688 9.375 68.75C9.375 67.8906 9.71875 67.1094 10.2969 66.5469C10.8594 65.9688 11.6406 65.625 12.5 65.625H15.9063H37.2187H37.5Z" fill="#FCD770"/>
<path d="M37.5 71.875L43.75 84.375H18.75L15.625 78.125H12.5V71.875H37.5Z" fill="#FFEAA7"/>
<path d="M93.75 68.75H68.75C67.0312 68.75 65.625 70.1562 65.625 71.875V84.0937V93.75C65.625 95.4688 67.0312 96.875 68.75 96.875H93.75C95.4688 96.875 96.875 95.4688 96.875 93.75V71.875C96.875 70.1562 95.4688 68.75 93.75 68.75Z" fill="#D3A06C"/>
<path d="M87.5 68.75V75H75V68.75H82.4844H87.5Z" fill="#B27946"/>
<path d="M31.25 17.5156V17.625C31.25 20.3906 30.4219 23.1094 28.8906 25.4219L25 31.25L19.6094 39.3281C19.0781 40.1406 18.1563 40.625 17.1875 40.625C16.2187 40.625 15.2969 40.1406 14.7656 39.3281L14.2656 38.5938L5.48437 25.4219C3.95312 23.1094 3.125 20.3906 3.125 17.625V17.1875C3.125 13.3125 4.70312 9.78125 7.25 7.25C9.78125 4.70312 13.3125 3.125 17.1875 3.125C24.9531 3.125 31.25 9.42188 31.25 17.1875V17.5156Z" fill="#FF826E"/>
<path d="M17.1875 25C21.5022 25 25 21.5022 25 17.1875C25 12.8728 21.5022 9.375 17.1875 9.375C12.8728 9.375 9.375 12.8728 9.375 17.1875C9.375 21.5022 12.8728 25 17.1875 25Z" fill="#FCD770"/>
<path d="M72.2188 31.9531C71.75 32.1875 71.2813 32.4063 70.7969 32.6094C70.4844 32.7344 70.125 32.8125 69.7812 32.8125C69.0781 32.8125 68.4375 32.5312 67.4062 31.25C67.2656 30.9375 67.1875 30.5781 67.1875 30.2188C67.1875 29.875 67.2656 29.5156 67.3906 29.2031C67.5938 28.7188 67.8125 28.25 68.0469 27.7813C68.875 25.9375 69.8125 24.1406 70.8594 22.4063C71.3437 21.5625 71.8594 20.75 72.4063 19.9375C73.7031 17.9375 75.1406 16.0313 76.7187 14.2031C77.7187 13 78.7812 11.8438 79.9062 10.7188L82.8125 7.8125L84 6.625C85.2344 5.39062 86.9219 4.6875 88.6875 4.6875C90.5156 4.6875 92.1719 5.4375 93.375 6.625C94.5625 7.82812 95.3125 9.48437 95.3125 11.3125C95.3125 13.0781 94.6094 14.7656 93.375 16L92.1875 17.1875L89.2812 20.0937C88.1562 21.2187 87 22.2812 85.7969 23.2812C83.9687 24.8594 82.0625 26.2969 80.0625 27.5937C79.25 28.1406 78.4375 28.6562 77.5937 29.1406C75.8594 30.1875 74.0625 31.125 72.2188 31.9531Z" fill="#E6E9ED"/>
<path d="M92.1875 17.1875L96.875 31.25L95.3125 32.8125L85.7969 23.2969V23.2812C87 22.2812 88.1562 21.2187 89.2812 20.0937L92.1875 17.1875Z" fill="#FCD770"/>
<path d="M82.8125 7.8125L79.9062 10.7188C78.7812 11.8438 77.7187 13 76.7187 14.2031H76.7031L67.1875 4.6875L68.75 3.125L82.8125 7.8125Z" fill="#FCD770"/>
<path d="M62.5 20.3125L70.8594 22.4063C69.8125 24.1406 68.875 25.9375 68.0469 27.7813L60.0469 23.7813L59.375 23.4375L59.7812 23.0312L62.5 20.3125Z" fill="#FCD770"/>
<path d="M77.5937 29.1406L79.6875 37.5L76.5625 40.625L72.2188 31.9531C74.0625 31.125 75.8594 30.1875 77.5937 29.1406Z" fill="#FCD770"/>
<path d="M26.5625 17.1875C26.5625 12.0172 22.3578 7.8125 17.1875 7.8125C12.0172 7.8125 7.8125 12.0172 7.8125 17.1875C7.8125 22.3578 12.0172 26.5625 17.1875 26.5625C22.3578 26.5625 26.5625 22.3578 26.5625 17.1875ZM10.9375 17.1875C10.9375 13.7406 13.7406 10.9375 17.1875 10.9375C20.6344 10.9375 23.4375 13.7406 23.4375 17.1875C23.4375 20.6344 20.6344 23.4375 17.1875 23.4375C13.7406 23.4375 10.9375 20.6344 10.9375 17.1875Z" fill="black"/>
<path d="M81.3184 16.4691L83.5281 14.2594L85.7378 16.4691L83.5281 18.6788L81.3184 16.4691Z" fill="black"/>
<path d="M85.7383 12.0511L87.948 9.84144L90.1577 12.0511L87.948 14.2609L85.7383 12.0511Z" fill="black"/>
<path d="M77.0117 20.7769L79.1098 18.6787L81.3195 20.8884L79.2214 22.9866L77.0117 20.7769Z" fill="black"/>
<path d="M93.75 67.1875H85.0828C87.6906 61.8641 89.0625 55.9766 89.0625 50C89.0625 42.0625 86.6937 34.5016 82.2484 28.0063C83.4281 27.1828 84.5797 26.3188 85.7 25.411L95.3125 35.0219L98.6625 31.6719L93.975 17.6078L94.475 17.1078C96.0234 15.5625 96.875 13.5063 96.875 11.3156C96.875 6.80002 93.2 3.12502 88.6828 3.12502C86.4969 3.12502 84.4391 3.97659 82.8906 5.5219L82.3875 6.02502L68.3266 1.33752L64.9781 4.68752L74.5906 14.3C73.6812 15.4188 72.8187 16.5719 71.9953 17.75C65.4984 13.3063 57.9375 10.9375 50 10.9375C43.9609 10.9375 38.0094 12.3391 32.6422 15.0016C31.5734 7.42034 25.0594 1.56252 17.1875 1.56252C8.57188 1.56252 1.5625 8.5719 1.5625 17.1875V17.6172C1.5625 20.711 2.47031 23.7078 4.1875 26.2844L12.5734 38.8625C11.5016 42.4641 10.9375 46.2047 10.9375 50C10.9375 54.8688 11.8203 59.5875 13.5516 64.0625H12.5C9.91562 64.0625 7.8125 66.1657 7.8125 68.75C7.8125 70.7844 9.12344 72.5032 10.9375 73.15V76.5625H1.5625V81.7953C1.5625 90.9719 9.02812 98.4375 18.2047 98.4375H35.5C41.9203 98.4375 47.7234 94.6907 50.4703 89.05C55.1719 88.9953 59.7328 88.1235 64.0641 86.4485V93.75C64.0641 96.3344 66.1672 98.4375 68.7516 98.4375H93.7516C96.3359 98.4375 98.4391 96.3344 98.4391 93.75V71.875C98.4375 69.2907 96.3344 67.1875 93.75 67.1875ZM76.5625 70.3125H85.9375V73.4375H76.5625V70.3125ZM68.75 67.1875H64.0844C64.9891 62.4625 65.525 57.1813 65.6094 51.5625H85.8859C85.6484 57.0422 84.1625 62.3938 81.5469 67.1875H68.75ZM51.5141 85.6219L51.5625 82.8125H44.7156L39.7328 72.8453C40.7359 72.2969 41.5109 71.4016 41.9 70.3125H60.1984C58.0859 78.7282 54.7969 84.2907 51.5141 85.6219ZM41.9 67.1875C41.3719 65.7063 40.1297 64.5688 38.5797 64.2C37.9484 60.1828 37.5984 55.9453 37.5313 51.5625H62.4844C62.3953 57.3391 61.8156 62.6047 60.9 67.1875H41.9ZM14.1219 48.4375C14.2203 46.1375 14.5141 43.861 15.0438 41.6375C15.6922 41.9922 16.425 42.1875 17.1875 42.1875C18.6891 42.1875 20.0828 41.4406 20.9172 40.1922L25.8359 32.8125H35.9156C35.0109 37.5375 34.475 42.8188 34.3906 48.4375H14.1219ZM39.1094 32.8125H60.9109C61.8578 37.5906 62.3859 42.9094 62.4719 48.4375H37.5297C37.6203 42.6625 38.1922 37.3922 39.1094 32.8125ZM50 14.0625C52.7766 14.0625 55.6328 17.2063 57.925 22.6781L56.7375 23.8656L58.775 24.8844C59.3063 26.3922 59.7891 27.9906 60.2125 29.6875H39.8109C42.2531 19.9828 46.2594 14.0625 50 14.0625ZM67.3125 25.6594L62.0125 23.0094L62.9797 22.0438L68.4703 23.4156C68.0672 24.1531 67.6859 24.9032 67.3125 25.6594ZM66 28.4969C65.9875 28.525 65.9734 28.5531 65.9609 28.5813C65.8078 28.936 65.7266 29.3094 65.6781 29.6875H63.4188C63.1875 28.7078 62.9359 27.7594 62.6703 26.8328L66 28.4969ZM85.8766 48.4375H65.5969C65.5141 42.9406 65 37.636 64.0844 32.8125H66.5594C67.3219 33.7578 68.4734 34.375 69.7797 34.375C70.3422 34.375 70.8922 34.2625 71.4172 34.0391C71.4469 34.0266 71.4734 34.0125 71.5031 34L76.1344 43.2625L81.4172 37.9781L79.3953 29.8891C79.4797 29.8375 79.5609 29.7813 79.6453 29.7281C83.4562 35.286 85.5891 41.6922 85.8766 48.4375ZM76.5844 31.5297L77.9562 37.0203L76.9891 37.986L74.3391 32.686C75.0969 32.3141 75.8469 31.9328 76.5844 31.5297ZM94.8625 30.1531L88.0844 23.375C88.8703 22.6672 89.6422 21.9422 90.3922 21.1906L91.5031 20.0797L94.8625 30.1531ZM88.6828 6.25002C91.4766 6.25002 93.75 8.5219 93.75 11.3156C93.75 12.6703 93.2234 13.9422 92.2656 14.8985L88.1828 18.9813C82.9906 24.1735 76.9344 28.2735 70.1891 31.1656C69.5281 31.4438 68.75 30.9281 68.75 30.2203C68.75 30.0797 68.7781 29.9422 68.8328 29.8125C71.7266 23.0641 75.825 17.0094 81.0172 11.8156L85.0984 7.73284C86.0578 6.77502 87.3312 6.25002 88.6828 6.25002ZM69.8484 5.13752L79.9203 8.49534L78.8094 9.60784C78.0578 10.3594 77.3328 11.1313 76.625 11.9156L69.8484 5.13752ZM70.1094 20.6047L62.0219 18.5813L60.3063 20.2969C59.2797 18.0672 58.1438 16.2047 56.9203 14.75C61.6953 15.6766 66.2094 17.5672 70.2719 20.3531C70.2172 20.4391 70.1609 20.5203 70.1094 20.6047ZM32.7484 18.486C36.0125 16.6969 39.5313 15.4235 43.1797 14.7203C40.4234 17.986 38.1375 23.1969 36.5859 29.6875H27.9188L30.1875 26.2844C31.7422 23.9516 32.5937 21.2688 32.7484 18.486ZM4.6875 17.6172V17.1875C4.6875 10.2953 10.2953 4.68752 17.1875 4.68752C24.0797 4.68752 29.6875 10.2953 29.6875 17.1875V17.6172C29.6875 20.0938 28.9609 22.4906 27.5875 24.5516L18.3156 38.4578C17.8109 39.2141 16.5625 39.2141 16.0578 38.4578L6.78594 24.5516C5.41406 22.4922 4.6875 20.0938 4.6875 17.6172ZM14.1031 51.5625H34.4063C34.4719 55.8844 34.8047 60.0719 35.4016 64.0625H16.9313C15.2391 60.0907 14.2875 55.8985 14.1031 51.5625ZM12.5 67.1875H37.5C38.3609 67.1875 39.0625 67.8875 39.0625 68.75C39.0625 69.6125 38.3609 70.3125 37.5 70.3125H12.5C11.6391 70.3125 10.9375 69.6125 10.9375 68.75C10.9375 67.8875 11.6391 67.1875 12.5 67.1875ZM14.0625 73.4375H36.5344L41.2219 82.8125H19.7156L16.5906 76.5625H14.0625V73.4375ZM35.5 95.3125H18.2047C10.7516 95.3125 4.6875 89.2485 4.6875 81.7953V79.6875H14.6594L17.7844 85.9375H48.3672C46.5812 91.4797 41.3531 95.3125 35.5 95.3125ZM56.8187 85.2813C59.575 82.0157 61.8625 76.8032 63.4141 70.3125H64.35C64.175 70.8032 64.0625 71.325 64.0625 71.875V83.0672C61.7188 84.0672 59.3 84.8063 56.8187 85.2813ZM95.3125 93.75C95.3125 94.6125 94.6109 95.3125 93.75 95.3125H68.75C67.8891 95.3125 67.1875 94.6125 67.1875 93.75V71.875C67.1875 71.0125 67.8891 70.3125 68.75 70.3125H73.4375V76.5625H89.0625V70.3125H93.75C94.6109 70.3125 95.3125 71.0125 95.3125 71.875V93.75Z" fill="black"/>
<path d="M89.0625 89.0625H92.1875V92.1875H89.0625V89.0625Z" fill="black"/>
<path d="M82.8125 89.0625H85.9375V92.1875H82.8125V89.0625Z" fill="black"/>
<path d="M20.3125 76.5625H23.4375V79.6875H20.3125V76.5625Z" fill="black"/>
<path d="M26.5625 76.5625H29.6875V79.6875H26.5625V76.5625Z" fill="black"/>
<path d="M32.8125 76.5625H35.9375V79.6875H32.8125V76.5625Z" fill="black"/>
<path d="M42.1875 54.6875H45.3125V57.8125H42.1875V54.6875Z" fill="black"/>
<path d="M48.4375 54.6875H51.5625V57.8125H48.4375V54.6875Z" fill="black"/>
<path d="M54.6875 54.6875H57.8125V57.8125H54.6875V54.6875Z" fill="black"/>
<path d="M48.4375 42.1875H51.5625V45.3125H48.4375V42.1875Z" fill="black"/>
<path d="M42.1875 42.1875H45.3125V45.3125H42.1875V42.1875Z" fill="black"/>
<path d="M54.6875 42.1875H57.8125V45.3125H54.6875V42.1875Z" fill="black"/>
</svg>
