<svg width="100" height="100" viewBox="0 0 100 100" fill="none" xmlns="http://www.w3.org/2000/svg">
<g clip-path="url(#clip0_561_59)">
<path d="M42.1875 71.875V79.6875L40.625 84.375H37.5V82.8125V78.125L38.125 76.875L40.625 71.875H42.1875Z" fill="#6E6E6E"/>
<path d="M62.5 82.8125V84.375H59.375L57.8125 79.6875V71.875H59.375L61.875 76.875L62.5 78.125V82.8125Z" fill="#6E6E6E"/>
<path d="M57.8125 79.6875L59.375 84.375H40.625L42.1875 79.6875H57.8125Z" fill="#9C9C9C"/>
<path d="M42.1875 71.875H57.8125V79.6875H42.1875V71.875Z" fill="#ADADAD"/>
<path d="M98.4375 71.875V76.5625H62.5L61.875 76.875L59.375 71.875H70.3125H79.6875H85.9375H98.4375Z" fill="#D9D9D9"/>
<path d="M40.625 71.875L38.125 76.875L37.5 76.5625H1.5625V71.875H14.0625H20.3125H29.6875H40.625Z" fill="#D9D9D9"/>
<path d="M38.125 76.875L37.5 78.125V82.8125H1.5625V76.5625H37.5L38.125 76.875Z" fill="#D9D9D9"/>
<path d="M98.4375 76.5625V82.8125H62.5V78.125L61.875 76.875L62.5 76.5625H98.4375Z" fill="#D9D9D9"/>
<path d="M81.25 45.2969C88.875 45.1094 98.4375 43.75 98.4375 43.75C98.4753 44.8216 98.2813 45.8887 97.8688 46.8784C97.4562 47.8681 96.8347 48.757 96.0469 49.4844C94.3335 50.9241 92.2482 51.8503 90.0312 52.1563C88.8125 52.375 87.4219 52.5781 85.8594 52.7969C73.9603 54.2082 61.9816 54.8397 50 54.6875C37.9921 54.8381 25.9871 54.2013 14.0625 52.7812C12.5312 52.5781 11.1719 52.3594 9.96875 52.1563C5.125 51.2969 1.5625 48.6875 1.5625 43.75C1.5625 43.75 4.29688 44.1406 8 44.5312C11.2344 44.875 15.2031 45.2031 18.75 45.2969C19.2812 45.3125 19.7969 45.3125 20.3125 45.3125H79.6875C80.2031 45.3125 80.7188 45.3125 81.25 45.2969Z" fill="#484C6B"/>
<path d="M93.75 25C93.75 25 93.75 39.0625 81.25 39.0625V31.875C84.4239 31.2866 87.5517 30.472 90.6094 29.4375C91.5291 29.116 92.3258 28.5158 92.8887 27.7205C93.4516 26.9252 93.7526 25.9743 93.75 25Z" fill="#292B3D"/>
<path d="M81.25 31.875C70.9349 33.6874 60.4721 34.5244 50 34.375C39.528 34.5244 29.0651 33.6874 18.75 31.875C15.5761 31.2866 12.4483 30.472 9.39064 29.4375C8.47089 29.116 7.67419 28.5158 7.11133 27.7205C6.54846 26.9252 6.2474 25.9743 6.25002 25C12.4651 25.8781 18.7253 26.3998 25 26.5625C33.299 27.5351 41.6446 28.0567 50 28.125C58.3555 28.0567 66.7011 27.5351 75 26.5625C78.9063 26.5625 83.5938 26.1719 87.3125 25.7812C91.0313 25.3906 93.75 25 93.75 25C93.7526 25.9743 93.4516 26.9252 92.8887 27.7205C92.3258 28.5158 91.5291 29.116 90.6094 29.4375C87.5517 30.472 84.4239 31.2866 81.25 31.875Z" fill="#484C6B"/>
<path d="M85.9375 59.375V71.875H79.6875V65.625H70.3125V71.875H59.375H57.8125V64.0625H42.1875V71.875H40.625H29.6875V65.625H20.3125V71.875H14.0625V59.375H85.9375Z" fill="#32C9A6"/>
<path d="M85.9375 53.4063V59.375H14.0625V52.7812C25.9871 54.2013 37.992 54.8381 50 54.6875C61.9816 54.8397 73.9603 54.2082 85.8594 52.7969L85.9375 53.4063Z" fill="#0B9E7B"/>
<path d="M81.25 40.625V45.2969C80.7188 45.3125 80.2031 45.3125 79.6875 45.3125H20.3125C19.7969 45.3125 19.2812 45.3125 18.75 45.2969V40.625H81.25Z" fill="#2EB998"/>
<path d="M70.3125 65.625H79.6875V71.875H70.3125V65.625Z" fill="#F7F7F7"/>
<path d="M73.4375 18.75L75 26.5625C66.7011 27.5351 58.3555 28.0567 50 28.125C41.6445 28.0567 33.2989 27.5351 25 26.5625L26.5625 18.75C34.1806 20.9298 42.0769 21.9827 50 21.875C57.9231 21.9827 65.8194 20.9298 73.4375 18.75Z" fill="#60658F"/>
<path d="M42.1875 64.0625H57.8125V71.875H42.1875V64.0625Z" fill="#F7F7F7"/>
<path d="M56.25 34.375V40.625H43.75V34.375H50H56.25Z" fill="#A1000D"/>
<path d="M50 34.375H56.25V40.625H81.25V31.875C70.9349 33.6874 60.472 34.5244 50 34.375Z" fill="#007D5F"/>
<path d="M18.75 39.0625V40.625H43.75V34.375H50C39.528 34.5244 29.0651 33.6874 18.75 31.875V39.0625Z" fill="#007D5F"/>
<path d="M20.3125 65.625H29.6875V71.875H20.3125V65.625Z" fill="#F7F7F7"/>
<path d="M18.75 31.875V39.0625C6.25002 39.0625 6.25002 25 6.25002 25C6.2474 25.9743 6.54846 26.9252 7.11133 27.7205C7.67419 28.5158 8.47089 29.116 9.39064 29.4375C12.4483 30.472 15.5761 31.2866 18.75 31.875Z" fill="#292B3D"/>
<path d="M26.5625 43.75H29.6875V46.875H26.5625V43.75Z" fill="black"/>
<path d="M75 57.8125H78.125V60.9375H75V57.8125Z" fill="black"/>
<path d="M98.4375 70.3125H87.5V54.1344C88.525 53.9781 89.4531 53.8344 90.2922 53.6891C96.4609 52.6109 100 48.9891 100 43.75C100 43.526 99.9519 43.3047 99.8589 43.101C99.7659 42.8972 99.6302 42.7159 99.461 42.5692C99.2918 42.4225 99.093 42.3139 98.8781 42.2507C98.6632 42.1875 98.4373 42.1713 98.2156 42.2031C98.1219 42.2172 89.9484 43.3734 82.8125 43.6766V40.5344C92.6391 39.6156 95.3125 30.1391 95.3125 25C95.3125 24.776 95.2644 24.5547 95.1714 24.351C95.0784 24.1472 94.9427 23.9659 94.7735 23.8192C94.6043 23.6725 94.4055 23.5639 94.1906 23.5007C93.9757 23.4375 93.7498 23.4213 93.5281 23.4531C87.8074 24.2529 82.0502 24.765 76.2781 24.9875L75 18.5937V15.625H71.875V17.5828C64.7336 19.443 57.3795 20.3607 50 20.3125C45.372 20.3163 40.7503 19.9685 36.175 19.2719L35.7062 22.3609C40.4367 23.0808 45.215 23.4407 50 23.4375C57.4984 23.4904 64.9725 22.5804 72.2391 20.7297L73.4688 26.875C73.5408 27.2279 73.7326 27.5451 74.0116 27.7729C74.2906 28.0007 74.6398 28.1251 75 28.125C80.5441 28.0126 86.0777 27.5917 91.575 26.8641C91.2027 27.3702 90.6857 27.7515 90.0922 27.9578C84.9313 29.7734 72.8594 32.8125 50 32.8125C27.1406 32.8125 15.0688 29.7734 9.90781 27.9687C9.31434 27.7624 8.79735 27.3811 8.425 26.875C13.9225 27.599 19.4561 28.0163 25 28.125C25.3602 28.1251 25.7094 28.0007 25.9884 27.7729C26.2674 27.5451 26.4592 27.2279 26.5312 26.875L27.7609 20.7328C28.8547 21.0266 30.4656 21.4203 32.5172 21.8156L33.1078 18.7469C30.8297 18.3078 29.1359 17.8734 28.125 17.5906V15.625H25V18.5937L23.7219 24.9859C17.9498 24.7632 12.1926 24.2511 6.47188 23.4516C6.25006 23.4197 6.02399 23.436 5.80901 23.4993C5.59403 23.5625 5.39517 23.6712 5.22592 23.8181C5.05667 23.965 4.921 24.1465 4.8281 24.3505C4.7352 24.5544 4.68725 24.7759 4.6875 25C4.6875 30.1391 7.36094 39.6156 17.1875 40.5344V43.6766C10.0531 43.3734 1.875 42.2172 1.78437 42.2031C1.56269 42.1713 1.33675 42.1875 1.12189 42.2507C0.907017 42.3139 0.708236 42.4225 0.539014 42.5692C0.369791 42.7159 0.234082 42.8972 0.141084 43.101C0.0480849 43.3047 -2.98494e-05 43.526 1.38928e-08 43.75C1.38928e-08 48.9891 3.53906 52.6109 9.70781 53.6891C10.5469 53.8344 11.475 53.9844 12.5 54.1344V70.3125H1.5625C1.1481 70.3125 0.750671 70.4771 0.457646 70.7701C0.16462 71.0632 1.38928e-08 71.4606 1.38928e-08 71.875V82.8125C1.38928e-08 83.2269 0.16462 83.6243 0.457646 83.9174C0.750671 84.2104 1.1481 84.375 1.5625 84.375H32.8125V81.25H3.125V78.125H32.8125V75H3.125V73.4375H38.0969L36.1016 77.4266C35.9934 77.6435 35.9373 77.8826 35.9375 78.125V84.375C35.9375 84.7894 36.1021 85.1868 36.3951 85.4799C36.6882 85.7729 37.0856 85.9375 37.5 85.9375H62.5C62.9144 85.9375 63.3118 85.7729 63.6049 85.4799C63.8979 85.1868 64.0625 84.7894 64.0625 84.375V78.125C64.0652 77.8832 64.0117 77.6442 63.9063 77.4266L61.9031 73.4375H96.875V75H67.1875V78.125H96.875V81.25H73.4375V84.375H98.4375C98.8519 84.375 99.2493 84.2104 99.5424 83.9174C99.8354 83.6243 100 83.2269 100 82.8125V71.875C100 71.4606 99.8354 71.0632 99.5424 70.7701C99.2493 70.4771 98.8519 70.3125 98.4375 70.3125ZM90.9375 30.9734C90.3247 32.6994 89.237 34.2172 87.7996 35.3522C86.3622 36.4873 84.6335 37.1933 82.8125 37.3891V33.1391C85.564 32.5903 88.2779 31.867 90.9375 30.9734ZM54.6875 35.9375V39.0625H45.3125V35.9375H54.6875ZM42.1875 39.0625H20.3125V33.7391C27.5475 34.9347 34.8567 35.6265 42.1875 35.8094V39.0625ZM9.0625 30.9734C11.7221 31.867 14.436 32.5903 17.1875 33.1391V37.3891C15.3665 37.1933 13.6378 36.4873 12.2004 35.3522C10.7629 34.2172 9.67526 32.6994 9.0625 30.9734ZM3.35 45.5656C8.97514 46.3198 14.6383 46.757 20.3125 46.875H23.4375V43.75H20.3125V42.1875H73.4375V39.0625H57.8125V35.8094C65.1433 35.6265 72.4525 34.9347 79.6875 33.7391V39.0625H76.5625V42.1875H79.6875V43.75H32.8125V46.875H79.6875C85.3617 46.757 91.0249 46.3198 96.65 45.5656C95.7797 48.8469 92.5391 50.125 89.7547 50.6094C83.1813 51.7578 70.9484 53.125 50 53.125C29.0516 53.125 16.8188 51.7578 10.2453 50.6094C7.46094 50.125 4.21875 48.8438 3.35 45.5656ZM21.875 70.3125V67.1875H28.125V70.3125H21.875ZM43.3141 81.25H56.6859L57.2062 82.8125H42.7938L43.3141 81.25ZM56.25 78.125H43.75V73.4375H56.25V78.125ZM56.25 70.3125H43.75V65.625H56.25V70.3125ZM39.0625 78.4938L40.625 75.3688V79.4312L39.4984 82.8125H39.0625V78.4938ZM60.9375 82.8125H60.5016L59.375 79.4344V75.3719L60.9375 78.4969V82.8125ZM71.875 70.3125V67.1875H78.125V70.3125H71.875ZM81.25 70.3125V65.625C81.25 65.2106 81.0854 64.8132 80.7924 64.5201C80.4993 64.2271 80.1019 64.0625 79.6875 64.0625H70.3125C69.8981 64.0625 69.5007 64.2271 69.2076 64.5201C68.9146 64.8132 68.75 65.2106 68.75 65.625V70.3125H59.375V64.0625C59.375 63.6481 59.2104 63.2507 58.9174 62.9576C58.6243 62.6646 58.2269 62.5 57.8125 62.5H42.1875C41.7731 62.5 41.3757 62.6646 41.0826 62.9576C40.7896 63.2507 40.625 63.6481 40.625 64.0625V70.3125H31.25V65.625C31.25 65.2106 31.0854 64.8132 30.7924 64.5201C30.4993 64.2271 30.1019 64.0625 29.6875 64.0625H20.3125C19.8981 64.0625 19.5007 64.2271 19.2076 64.5201C18.9146 64.8132 18.75 65.2106 18.75 65.625V70.3125H15.625V60.9375H71.875V57.8125H15.625V54.5531C27.0392 55.8045 38.5181 56.3711 50 56.25C61.4819 56.3711 72.9608 55.8045 84.375 54.5531V57.8125H81.25V60.9375H84.375V70.3125H81.25Z" fill="black"/>
<path d="M67.1875 81.25H70.3125V84.375H67.1875V81.25Z" fill="black"/>
</g>
<defs>
<clipPath id="clip0_561_59">
<rect width="100" height="100" fill="white"/>
</clipPath>
</defs>
</svg>
