<svg width="100" height="100" viewBox="0 0 100 100" fill="none" xmlns="http://www.w3.org/2000/svg">
<g clip-path="url(#clip0_562_4014)">
<path fill-rule="evenodd" clip-rule="evenodd" d="M5.97108 19.116H24.7971C26.8671 19.116 28.5631 20.81 28.5631 22.882V41.708C28.5631 43.778 26.8691 45.474 24.7971 45.474H5.97108C3.90108 45.474 2.20508 43.78 2.20508 41.708V22.88C2.20508 20.81 3.89908 19.116 5.97108 19.116Z" fill="#D71B5A"/>
<path d="M16.3805 38.4944C19.8048 37.9393 22.1308 34.7133 21.5757 31.2889C21.0206 27.8646 17.7946 25.5386 14.3703 26.0937C10.9459 26.6488 8.61993 29.8748 9.17504 33.2992C9.73015 36.7235 12.9561 39.0495 16.3805 38.4944Z" fill="#EAEAEA"/>
<path fill-rule="evenodd" clip-rule="evenodd" d="M57.6682 68.182H79.3822C81.7702 68.182 83.7242 70.136 83.7242 72.524V94.238C83.7242 96.626 81.7702 98.58 79.3822 98.58H57.6682C55.2802 98.58 53.3262 96.626 53.3262 94.238V72.524C53.3262 70.136 55.2802 68.182 57.6682 68.182Z" fill="#FCB13C"/>
<path fill-rule="evenodd" clip-rule="evenodd" d="M3.80078 67.552H46.5608V94.884C46.5608 96.92 44.9008 98.58 42.8648 98.58H7.49678C5.46078 98.58 3.80078 96.92 3.80078 94.884V67.552Z" fill="#ED2224"/>
<path fill-rule="evenodd" clip-rule="evenodd" d="M4.94473 57.54L39.1067 48.386C41.0727 47.86 43.1067 49.034 43.6347 51L45.1047 56.486L3.80073 67.552L2.33073 62.066C1.80473 60.1 2.97873 58.066 4.94473 57.54Z" fill="#ED2224"/>
<path fill-rule="evenodd" clip-rule="evenodd" d="M66.2711 16.082C75.5591 16.082 83.0891 23.612 83.0891 32.9C83.0891 39.272 78.7331 44.756 75.2611 49.768H57.3491C53.8571 44.73 49.4551 39.318 49.4551 32.9C49.4551 23.612 56.9831 16.082 66.2711 16.082Z" fill="#FFDC97"/>
<path fill-rule="evenodd" clip-rule="evenodd" d="M59.3887 58.692L60.9587 61.026C61.6027 61.982 62.5927 62.51 63.7467 62.51H68.7947C69.9467 62.51 70.9387 61.982 71.5827 61.026L73.1527 58.692H59.3887Z" fill="white"/>
<path fill-rule="evenodd" clip-rule="evenodd" d="M58.1144 49.768H74.4264C77.3784 49.768 77.3784 54.23 74.4264 54.23H58.1144C55.1624 54.23 55.1624 49.768 58.1144 49.768Z" fill="white"/>
<path fill-rule="evenodd" clip-rule="evenodd" d="M58.1144 58.692H74.4264C77.3784 58.692 77.3784 54.23 74.4264 54.23H58.1144C55.1624 54.23 55.1624 58.692 58.1144 58.692Z" fill="white"/>
<path fill-rule="evenodd" clip-rule="evenodd" d="M74.6535 35.426L61.6055 42.96V27.894L74.6535 35.426Z" fill="#FFDC97"/>
<path fill-rule="evenodd" clip-rule="evenodd" d="M97.8147 32.332H91.0507C90.8387 32.332 90.6607 32.394 90.5547 32.586C90.4967 32.69 90.4707 32.814 90.4707 32.932C90.4707 33.298 90.6747 33.532 91.0527 33.532H97.8167C98.0287 33.532 98.2067 33.47 98.3127 33.278C98.3707 33.174 98.3967 33.05 98.3967 32.932C98.3967 32.566 98.1907 32.332 97.8147 32.332Z" fill="#010101"/>
<path fill-rule="evenodd" clip-rule="evenodd" d="M5.97069 17.722H24.7967C27.6407 17.722 29.9627 20.044 29.9627 22.888V41.714C29.9627 44.558 27.6407 46.88 24.7967 46.88H5.97069C3.12669 46.88 0.804688 44.558 0.804688 41.714V22.888C0.804688 20.044 3.12669 17.722 5.97069 17.722ZM75.1627 36.752L62.3047 44.176C61.3267 44.742 60.2047 44.01 60.2047 42.904V27.9C60.2047 26.752 61.5047 26.11 62.4147 26.758L75.3467 34.224C76.4587 34.864 76.1807 36.164 75.1627 36.752ZM63.0047 40.546L71.8607 35.432L63.0047 30.318V40.546ZM58.1147 55.636C57.0147 55.636 57.0147 57.298 58.1147 57.298H74.4267C75.5267 57.298 75.5267 55.636 74.4267 55.636H58.1147ZM77.3247 54.236C78.3387 52.838 78.2727 50.84 77.1327 49.532L77.4587 49.068C80.8207 44.292 84.4887 39.084 84.4887 32.906C84.4887 22.846 76.3327 14.688 66.2707 14.688C56.2107 14.688 48.0527 22.844 48.0527 32.906C48.0527 39.298 51.9387 44.502 55.4467 49.49C54.2747 50.79 54.1927 52.824 55.2167 54.236C53.5147 56.58 54.9487 60.098 58.1127 60.098H58.6467L59.7967 61.808C60.2487 62.48 60.8287 63.004 61.5027 63.362C62.1847 63.724 62.9427 63.914 63.7447 63.914H68.7927C69.5947 63.914 70.3527 63.724 71.0347 63.362C71.7087 63.004 72.2887 62.478 72.7407 61.808L73.8907 60.098H74.4247C77.5927 60.1 79.0267 56.58 77.3247 54.236ZM70.5287 60.1L70.4227 60.256C70.2307 60.54 69.9927 60.758 69.7227 60.902C69.4587 61.042 69.1447 61.116 68.7947 61.116H63.7467C63.3947 61.116 63.0807 61.042 62.8187 60.902C62.5487 60.758 62.3107 60.54 62.1187 60.256L62.0127 60.1H70.5287ZM64.8767 1.388C64.8767 -0.446003 67.6667 -0.446003 67.6667 1.388V8.152C67.6667 9.986 64.8767 9.986 64.8767 8.152V1.388ZM34.7267 34.326C33.9567 34.326 33.3327 33.702 33.3327 32.932C33.3327 32.162 33.9567 31.538 34.7267 31.538H41.4907C42.2607 31.538 42.8847 32.162 42.8847 32.932C42.8847 33.702 42.2607 34.326 41.4907 34.326H34.7267ZM42.9767 11.616C41.6747 10.314 43.6547 8.334 44.9567 9.636L49.7387 14.418C51.0407 15.72 49.0607 17.7 47.7587 16.398L42.9767 11.616ZM97.8147 31.532C99.6567 31.532 99.6567 34.332 97.8147 34.332H91.0507C89.2087 34.332 89.2087 31.532 91.0507 31.532H97.8147ZM87.5867 9.638C88.8887 8.336 90.8687 10.316 89.5667 11.618L84.7827 16.4C83.4807 17.702 81.5007 15.722 82.8027 14.42L87.5867 9.638ZM74.4267 48.374H74.4327H74.5327C74.7867 48.01 74.9787 47.736 75.1727 47.462C78.2887 43.036 81.6887 38.208 81.6887 32.908C81.6887 24.394 74.7867 17.49 66.2707 17.49C57.7567 17.49 50.8527 24.392 50.8527 32.908C50.8527 38.174 54.1867 42.888 57.2847 47.264L58.0687 48.374H74.4267ZM58.1047 51.174H74.4367C75.5247 51.182 75.5247 52.836 74.4267 52.836H58.1147C57.0167 52.836 57.0167 51.182 58.1047 51.174ZM31.7627 89.232L21.7767 94.998C20.7127 95.61 19.6827 94.77 19.6827 93.626V82.244C19.6827 81.096 20.9827 80.454 21.8927 81.102L31.7767 86.808C32.7227 87.352 32.6927 88.712 31.7627 89.232ZM22.4807 91.372L28.2927 88.016L22.4807 84.66V91.372ZM5.20069 75.534H9.11869L13.6627 68.958H5.20069V75.534ZM12.5127 75.534L17.0567 68.958H25.7587L21.2147 75.534H12.5127ZM24.6047 75.534H33.3067L37.8507 68.958H29.1487L24.6047 75.534ZM36.6987 75.534L41.2427 68.958H45.1607V75.534H36.6987ZM45.1607 78.334H5.20069V94.89C5.20069 96.154 6.23469 97.186 7.49669 97.186H42.8647C44.1287 97.186 45.1607 96.152 45.1607 94.89V78.334ZM33.5147 51.338L39.6087 56.516L43.3927 55.502L42.2847 51.366C41.9567 50.14 40.6947 49.414 39.4687 49.742L33.5147 51.338ZM36.3287 57.396L27.9267 59.648L21.8327 54.47L30.2347 52.218L36.3287 57.396ZM24.6467 60.526L18.5527 55.348L10.1507 57.6L16.2447 62.778L24.6467 60.526ZM12.9647 63.656L4.79069 65.846L3.68269 61.71C3.35669 60.488 4.08469 59.224 5.30669 58.896L6.87069 58.476L12.9647 63.656ZM4.58469 56.196C1.87669 56.922 0.254687 59.726 0.980688 62.436L2.40069 67.738V76.936V94.892C2.40069 97.7 4.68869 99.988 7.49669 99.988H42.8647C45.6727 99.988 47.9607 97.7 47.9607 94.892V76.936V67.56C47.9607 66.786 47.3347 66.16 46.5607 66.16H14.4287L45.4667 57.844C46.2127 57.644 46.6567 56.878 46.4567 56.132L44.9867 50.646C44.2627 47.94 41.4547 46.316 38.7467 47.042L4.58469 56.196ZM65.4827 84.386C66.2507 84.386 66.9787 84.562 67.6267 84.874V73.904C67.6267 73.13 68.2527 72.504 69.0267 72.504C69.3167 72.504 69.5867 72.592 69.8107 72.744L75.8107 76.208C76.4787 76.594 76.7067 77.45 76.3187 78.116C75.9327 78.784 75.0767 79.012 74.4107 78.624L70.4267 76.324V89.33C70.4267 90.696 69.8727 91.932 68.9787 92.826C67.0587 94.746 63.9067 94.746 61.9867 92.826C58.9167 89.754 61.0467 84.386 65.4827 84.386ZM63.3387 89.33C63.3387 92.15 67.6267 92.15 67.6267 89.33C67.6267 86.51 63.3387 86.51 63.3387 89.33ZM57.6687 66.788C54.5067 66.788 51.9267 69.37 51.9267 72.53V94.244C51.9267 97.406 54.5087 99.986 57.6687 99.986H79.3827C82.5447 99.986 85.1247 97.404 85.1247 94.244V72.53C85.1247 69.368 82.5427 66.788 79.3827 66.788H57.6687ZM79.3827 69.588H57.6687C56.0527 69.588 54.7267 70.914 54.7267 72.53V94.244C54.7267 95.86 56.0527 97.186 57.6687 97.186H79.3827C80.9987 97.186 82.3247 95.858 82.3247 94.244V72.53C82.3247 70.916 80.9987 69.588 79.3827 69.588ZM20.8147 26.868C17.8307 23.884 12.9347 23.884 9.95269 26.868C6.96869 29.852 6.96869 34.748 9.95269 37.73C12.9367 40.714 17.8327 40.714 20.8147 37.73C23.7967 34.748 23.7967 29.852 20.8147 26.868ZM18.8347 28.848C16.9387 26.952 13.8267 26.952 11.9307 28.848C10.0347 30.744 10.0347 33.856 11.9307 35.752C13.8267 37.648 16.9387 37.648 18.8347 35.752C20.7307 33.856 20.7307 30.744 18.8347 28.848ZM24.7967 20.522H5.97069C4.67269 20.522 3.60469 21.59 3.60469 22.888V41.714C3.60469 43.012 4.67269 44.08 5.97069 44.08H24.7967C26.0947 44.08 27.1627 43.012 27.1627 41.714V22.888C27.1607 21.59 26.0947 20.522 24.7967 20.522Z" fill="#010101"/>
</g>
<defs>
<clipPath id="clip0_562_4014">
<rect width="100" height="100" fill="white"/>
</clipPath>
</defs>
</svg>
