<svg width="100" height="100" viewBox="0 0 100 100" fill="none" xmlns="http://www.w3.org/2000/svg">
<g clip-path="url(#clip0_563_7478)">
<path d="M73.4375 78.0156V90.5L59.375 92.1875L58.8906 92.125C56.5312 91.5781 54.6875 86.9219 54.6875 81.25C54.6875 75.2031 56.7812 70.3125 59.375 70.3125L97.9531 65.6875C95.5937 66.2344 93.75 70.8906 93.75 76.5625C93.75 82.6094 95.8438 87.5 98.4375 87.5L82.8125 89.375V76.875L73.4375 78V78.0156Z" fill="#EAEAEA"/>
<path d="M82.8125 89.375V96.875L78.125 90.625L73.4375 98.4375V90.5V78.0156L82.8125 76.875V89.375Z" fill="#ED1C24"/>
<path d="M98.4377 87.5L97.3127 87.6406L82.8127 89.375V84.6875C84.5639 84.4643 86.1709 83.6016 87.3246 82.2653C88.4783 80.9291 89.0973 79.2135 89.0627 77.4484C89.0627 77.3672 89.0627 77.2922 89.0627 77.2031V77.1406C89.0741 76.4333 88.9348 75.7317 88.6539 75.0824C88.3731 74.4332 87.9572 73.8512 87.4339 73.3752C86.9106 72.8992 86.2919 72.5401 85.619 72.3219C84.9462 72.1036 84.2345 72.0312 83.5315 72.1094L59.3752 75C58.8479 75.0543 58.3424 75.2386 57.9039 75.5364C57.4654 75.8342 57.1076 76.2362 56.8627 76.7062C56.0192 77.9941 55.5505 79.4911 55.5092 81.03C55.4678 82.5689 55.8553 84.089 56.6283 85.4203C56.8506 85.8913 57.1655 86.3126 57.5542 86.6592C57.943 87.0058 58.3975 87.2705 58.8908 87.4375L59.3752 87.5L73.4377 85.8125V90.5L59.3752 92.1875L58.8908 92.125C58.7383 92.094 58.591 92.0414 58.4533 91.9688C58.3114 91.9025 58.1755 91.8241 58.0471 91.7344C58.0351 91.7332 58.0239 91.7277 58.0158 91.7188C57.9065 91.6406 57.7815 91.5469 57.6721 91.4531C57.5145 91.3083 57.3682 91.1516 57.2346 90.9844C57.1025 90.8324 56.9823 90.6705 56.8752 90.5C56.6333 90.1473 56.4192 89.7764 56.2346 89.3906C56.1096 89.125 56.0002 88.8437 55.8752 88.5469C55.7971 88.3281 55.719 88.0937 55.6408 87.8594C55.5442 87.5942 55.4659 87.3228 55.4065 87.0469C55.3283 86.7812 55.2658 86.5 55.2033 86.2188C55.0064 85.3544 54.8706 84.4772 54.7971 83.5937V83.5469C54.7209 82.7837 54.6844 82.017 54.6877 81.25C54.6877 75.2031 56.7815 70.3125 59.3752 70.3125L97.9533 65.6875C97.8963 65.6926 97.8419 65.7144 97.7971 65.75C95.5158 66.4375 93.7502 71.0156 93.7502 76.5625C93.7502 82.6094 95.844 87.5 98.4377 87.5Z" fill="#DAD4D4"/>
<path d="M79.6875 77.25V80.1016C79.7095 82.0737 79.1289 84.0056 78.0235 85.639C76.9182 87.2723 75.3405 88.5294 73.5016 89.2422L73.4375 89.2656V98.4375L78.125 90.625L82.8125 96.875V76.875L79.6875 77.25Z" fill="#C1272D"/>
<path d="M98.4375 37.5L98.0938 37.5469L59.375 42.1875L21.3281 37.7031H21.3125L14.1406 36.8594L6.25 35.9375L42.5469 31.5781C44.3841 31.3594 46.2409 31.3594 48.0781 31.5781L98.4375 37.5Z" fill="#7070F2"/>
<path d="M98.4375 51.5625L98.0938 51.6094L59.375 56.25C59.2588 56.2508 59.143 56.2351 59.0312 56.2031C57.4687 55.8125 56.25 52.8438 56.25 49.2188C56.25 45.3281 57.6562 42.1875 59.375 42.1875L98.0938 37.5469C96.5312 37.9375 95.3125 40.9062 95.3125 44.5312C95.3125 48.4219 96.7188 51.5625 98.4375 51.5625Z" fill="#EAEAEA"/>
<path d="M98.4375 65.625C98.2739 65.6227 98.1108 65.6437 97.9531 65.6875L59.375 70.3125C59.2588 70.3133 59.143 70.2976 59.0312 70.2656C57.4687 69.875 56.25 66.9063 56.25 63.2813C56.25 59.3906 57.6562 56.25 59.375 56.25L98.0938 51.6094C96.5312 52 95.3125 54.9688 95.3125 58.5938C95.3125 62.4844 96.7188 65.625 98.4375 65.625Z" fill="#EAEAEA"/>
<path d="M98.0938 51.6094C97.0938 51.8594 96.2344 53.1563 95.75 55.0156L59.375 59.375C57.9063 59.375 56.6562 61.6875 56.3281 64.8125C56.2812 64.3281 56.25 63.8125 56.25 63.2813C56.25 59.3906 57.6563 56.25 59.375 56.25L98.0938 51.6094Z" fill="#DAD4D4"/>
<path d="M98.0938 37.5469C97.0938 37.7969 96.2344 39.0937 95.75 40.9531L59.375 45.3125C57.9063 45.3125 56.6562 47.625 56.3281 50.75C56.2812 50.2656 56.25 49.75 56.25 49.2187C56.25 45.3281 57.6563 42.1875 59.375 42.1875L98.0938 37.5469Z" fill="#DAD4D4"/>
<path d="M21.3279 37.7031L59.3747 42.1875C57.656 42.1875 56.2497 45.3281 56.2497 49.2188C56.2497 52.8438 57.4685 55.8125 59.031 56.2031L47.8122 54.8906L40.9372 54.0781L20.5154 51.6719C19.8015 49.63 19.4678 47.4746 19.531 45.3125C19.531 41.6406 20.281 38.5469 21.3122 37.7031H21.3279Z" fill="#5E5EEA"/>
<path d="M59.0308 56.2031C59.1426 56.2351 59.2583 56.2508 59.3746 56.25C57.6558 56.25 56.2496 59.3906 56.2496 63.2812C56.2496 66.9062 57.4683 69.875 59.0308 70.2656L49.4527 69.1406L46.8433 68.8438C46.0244 66.832 45.6358 64.671 45.7027 62.5C45.7027 58.7969 46.6089 55.6875 47.8121 54.8906L59.0308 56.2031Z" fill="#99E0D4"/>
<path d="M59.0312 70.2656C59.143 70.2976 59.2588 70.3133 59.375 70.3125C56.7812 70.3125 54.6875 75.2031 54.6875 81.25C54.6875 86.9219 56.5312 91.5781 58.8906 92.125L49.5625 91.0312C47.9844 89.0937 46.875 84.8906 46.875 80.0156C46.875 75.2656 47.9219 71.1562 49.4531 69.1406L59.0312 70.2656Z" fill="#FFCA3A"/>
<path d="M49.5625 91.0312L43.25 90.2969C41.6875 88.3125 40.625 84.1562 40.625 79.3594C40.625 74.5625 41.7031 70.3906 43.2656 68.4219L46.8437 68.8438L49.4531 69.1406C47.9219 71.1562 46.875 75.2656 46.875 80.0156C46.875 84.8906 47.9844 89.0937 49.5625 91.0312Z" fill="#F7931E"/>
<path d="M40.9376 54.0781L47.8126 54.8906C46.6095 55.6875 45.7033 58.7969 45.7033 62.5C45.6364 64.671 46.0249 66.832 46.8439 68.8438L43.2658 68.4219L40.7189 68.125C39.4742 65.9433 38.8983 63.4439 39.0626 60.9375C39.0404 58.5215 39.6895 56.1468 40.9376 54.0781Z" fill="#7070F2"/>
<path d="M40.7191 68.125L43.266 68.4219C41.7035 70.3906 40.6254 74.5469 40.6254 79.3594C40.6254 84.1719 41.6879 88.3125 43.2504 90.2969L17.9066 87.3125C16.2746 84.106 15.4995 80.532 15.6566 76.9375C15.6566 71.6875 16.9535 67.2188 18.7504 65.5312L40.7191 68.125Z" fill="#FFCA3A"/>
<path d="M20.5156 51.6719L40.9375 54.0781C39.6894 56.1468 39.0402 58.5215 39.0625 60.9375C38.8981 63.4439 39.4741 65.9433 40.7188 68.125L18.75 65.5312L12.4844 64.7969L6.25 64.0625C4.53125 64.0625 3.125 60.9219 3.125 57.0312C3.125 53.1406 4.53125 50 6.25 50L13.8906 50.8906V50.9063L20.5156 51.6719Z" fill="#99E0D4"/>
<path d="M59.0312 70.2656L49.4531 69.1406L46.8437 68.8438C46.2726 67.5194 45.9241 66.1098 45.8125 64.6719L56.4844 65.8906C56.8906 68.25 57.8594 69.9688 59.0312 70.2656Z" fill="#5BD3C7"/>
<path d="M46.8438 68.8438L43.2656 68.4219L40.7188 68.125C39.8966 66.8657 39.4025 65.4209 39.2812 63.9219L45.8125 64.6719C45.9241 66.1098 46.2726 67.5194 46.8438 68.8438Z" fill="#5858DD"/>
<path d="M40.7188 68.125L18.75 65.5312L12.4844 64.7969L6.25 64.0625C4.96875 64.0625 3.85938 62.3125 3.375 59.7969L12.4219 60.8281L23.0156 62.0469L39.2812 63.9219C39.4025 65.4209 39.8966 66.8657 40.7188 68.125Z" fill="#5BD3C7"/>
<path d="M14.1403 36.8594L21.3122 37.7031C20.281 38.5469 19.531 41.6406 19.531 45.3125C19.4678 47.4746 19.8014 49.63 20.5153 51.6719L13.8903 50.9063V50.8906C12.84 48.6631 12.3621 46.2088 12.4997 43.75C12.4781 41.3539 13.0412 38.9887 14.1403 36.8594Z" fill="#99E0D4"/>
<path d="M12.4835 64.7969L18.7491 65.5312C16.9522 67.2187 15.6553 71.6875 15.6553 76.9375C15.4982 80.532 16.2733 84.106 17.9053 87.3125L11.671 86.5781C10.0257 83.3703 9.24486 79.7891 9.40533 76.1875C9.40533 70.9531 10.6866 66.4844 12.4835 64.7969Z" fill="#F7931E"/>
<path d="M6.25 35.9375L14.1406 36.8594C13.0415 38.9887 12.4784 41.3539 12.5 43.75C12.3624 46.2088 12.8403 48.6631 13.8906 50.8906L6.25 50C4.53125 50 3.125 46.8594 3.125 42.9688C3.125 39.0781 4.53125 35.9375 6.25 35.9375Z" fill="#5E5EEA"/>
<path d="M59.0312 56.2031L20.5156 51.6719C20.133 50.698 19.8757 49.6794 19.75 48.6406L56.75 53C57.2344 54.75 58.0625 55.9688 59.0312 56.2031Z" fill="#5B52D8"/>
<path d="M13.8906 50.9063V50.8906C13.3553 49.9502 13.0052 48.9159 12.8594 47.8438L19.75 48.6406C19.8757 49.6794 20.133 50.698 20.5156 51.6719L13.8906 50.9063Z" fill="#5BD3C7"/>
<path d="M13.8906 50.8906L6.25 50C5.07813 50 4.04688 48.5312 3.51562 46.3594C3.82807 46.6717 4.24616 46.8556 4.6875 46.875L12.8594 47.8438C13.0052 48.9159 13.3553 49.9502 13.8906 50.8906Z" fill="#5B52D8"/>
<path d="M6.25 64.0625L12.4844 64.7969C10.6875 66.4844 9.40625 70.9531 9.40625 76.1875C9.24578 79.7891 10.0266 83.3703 11.6719 86.5781L6.25 85.9375C3.65625 85.9375 1.5625 81.0469 1.5625 75C1.5625 68.9531 3.65625 64.0625 6.25 64.0625Z" fill="#FFCA3A"/>
<path d="M58.8906 92.125L49.5625 91.0312C48.5394 89.5904 47.8459 87.942 47.5312 86.2031L48.7656 86.3438L55.4062 87.0625C56.1406 89.8438 57.4219 91.7813 58.8906 92.125Z" fill="#F7931E"/>
<path d="M49.5625 91.0312L43.25 90.2969C42.261 88.8654 41.5848 87.2416 41.2656 85.5312L41.9375 85.6094L47.5313 86.2031C47.8459 87.942 48.5394 89.5904 49.5625 91.0312Z" fill="#F15A24"/>
<path d="M43.25 90.2969L17.9063 87.3125C17.101 85.9182 16.5408 84.3961 16.25 82.8125L41.2656 85.5313C41.5848 87.2416 42.261 88.8654 43.25 90.2969Z" fill="#F7931E"/>
<path d="M17.9063 87.3125L11.6719 86.5781C10.8687 85.1996 10.3084 83.6933 10.0156 82.125L14.5469 82.625L16.25 82.8125C16.5408 84.3961 17.101 85.9182 17.9063 87.3125Z" fill="#F15A24"/>
<path d="M11.6719 86.5781L6.25 85.9375C4.65625 85.9375 3.26563 84.1094 2.42188 81.2969L7.79687 81.8906L10.0156 82.125C10.3084 83.6933 10.8687 85.1996 11.6719 86.5781Z" fill="#F7931E"/>
<path d="M98.4734 53.125L98.5 53.1125C98.9043 53.1008 99.2884 52.9327 99.5713 52.6436C99.8543 52.3545 100.014 51.967 100.017 51.5625C100.019 51.3581 99.9812 51.1553 99.9045 50.9658C99.8279 50.7764 99.7144 50.604 99.5707 50.4586C99.427 50.3133 99.2559 50.198 99.0672 50.1192C98.8786 50.0405 98.6763 50 98.4719 50C98.0312 49.8594 96.875 47.9578 96.875 44.5312C96.875 41.1047 98.0328 39.2031 98.4734 39.0625L98.4953 39.0515C98.8787 39.0242 99.2385 38.8566 99.5061 38.5807C99.7736 38.3047 99.9301 37.9399 99.9455 37.5559C99.961 37.1719 99.8344 36.7956 99.5899 36.4991C99.3454 36.2025 99.0002 36.0065 98.6203 35.9484L48.2625 30.0265C46.3022 29.7937 44.3212 29.7937 42.3609 30.0265L6.06406 34.3859H6.04063C3.10156 34.589 1.5625 38.7984 1.5625 42.9687C1.46027 45.4484 2.11417 47.9005 3.4375 50C2.11371 52.0993 1.45977 54.5515 1.5625 57.0312C1.47858 59.418 2.07464 61.7795 3.28125 63.8406C1.12344 66.0125 0 70.5187 0 75C0 81.1594 2.11094 87.3953 6.14687 87.5L59.1922 93.7406C59.2529 93.7476 59.3139 93.7508 59.375 93.75C59.4371 93.7503 59.4993 93.7466 59.5609 93.739L71.875 92.2609V98.4375C71.8749 98.7793 71.9869 99.1116 72.1937 99.3837C72.4006 99.6557 72.6909 99.8525 73.0203 99.9437C73.1563 99.9808 73.2966 99.9997 73.4375 100C73.7071 99.9999 73.9721 99.9301 74.2068 99.7973C74.4414 99.6645 74.6377 99.4733 74.7766 99.2422L78.2687 93.4219L81.5625 97.8125C81.7593 98.0748 82.0336 98.2686 82.3466 98.3664C82.6596 98.4642 82.9955 98.461 83.3066 98.3573C83.6177 98.2536 83.8883 98.0546 84.0801 97.7886C84.2718 97.5225 84.375 97.2029 84.375 96.875V90.7625L98.6234 89.0515C99.0192 89.0045 99.382 88.808 99.6376 88.5022C99.8932 88.1965 100.022 87.8047 99.9986 87.4068C99.9749 87.009 99.8 86.6353 99.5098 86.3622C99.2196 86.0891 98.836 85.9371 98.4375 85.9375C97.3438 85.9375 95.3125 82.3781 95.3125 76.5625C95.3125 70.7969 97.2312 67.4594 98.4375 67.1875C98.8539 67.1887 99.2538 67.0251 99.5498 66.7323C99.8458 66.4394 100.014 66.0413 100.017 65.625C100.02 65.243 99.8823 64.8734 99.6293 64.5872C99.3763 64.301 99.0264 64.1186 98.6469 64.075C98.5851 64.0676 98.5231 64.0635 98.4609 64.0625C98.0125 63.8906 96.875 61.9937 96.875 58.5937C96.875 55.1562 98.0328 53.2656 98.4734 53.125ZM50.4484 89.564C48.9734 86.6053 48.2811 83.3179 48.4375 80.0156C48.3232 76.8452 48.9396 73.691 50.2391 70.7969L55.3844 71.4015C53.79 74.4329 53.0113 77.8268 53.125 81.25C53.072 84.2817 53.6576 87.2907 54.8437 90.0812L50.4484 89.564ZM44.1422 88.8219C42.7159 85.8786 42.0442 82.6268 42.1875 79.3594C42.062 76.162 42.6971 72.9806 44.0406 70.0765L46.9625 70.4203C45.7996 73.4826 45.2393 76.7407 45.3125 80.0156C45.2637 83.1187 45.7646 86.2059 46.7922 89.1344L44.1422 88.8219ZM18.8859 85.8531C17.696 83.0389 17.1273 80.001 17.2188 76.9468C17.0361 73.5559 17.7885 70.18 19.3937 67.1875L40.5859 69.6765C40.6328 69.6765 40.675 69.7047 40.7219 69.7047C40.7338 69.7054 40.7458 69.7054 40.7578 69.7047C39.5727 72.7827 38.9969 76.0617 39.0625 79.3594C39.0173 82.4324 39.5069 85.49 40.5094 88.3953L18.8859 85.8531ZM12.6469 85.1203C11.445 82.3 10.8723 79.2516 10.9688 76.1875C10.7837 72.8036 11.5295 69.4336 13.125 66.4437L16.0344 66.7859C14.6632 69.9921 13.9991 73.4562 14.0875 76.9422C14.051 79.8228 14.4729 82.691 15.3375 85.439L12.6469 85.1203ZM6.28437 62.5C5.84375 62.3594 4.6875 60.4578 4.6875 57.0312C4.6875 53.6344 5.82188 51.7406 6.2375 51.5719L13.6391 52.4344C13.6656 52.4344 13.6859 52.4547 13.7109 52.4578L45.1391 56.1453C44.4398 58.1895 44.1019 60.3398 44.1406 62.5C44.1366 64.0136 44.2985 65.5232 44.6234 67.0015L41.6344 66.6515C40.9009 64.8387 40.5569 62.8919 40.625 60.9375C40.6236 60.0041 40.7284 59.0737 40.9375 58.164C40.9837 57.9641 40.99 57.757 40.9561 57.5546C40.9223 57.3522 40.8489 57.1584 40.7401 56.9844C40.6314 56.8104 40.4894 56.6594 40.3223 56.5403C40.1553 56.4211 39.9664 56.336 39.7664 56.2898C39.5664 56.2437 39.3594 56.2373 39.1569 56.2712C38.9545 56.3051 38.7608 56.3785 38.5868 56.4872C38.4127 56.5959 38.2618 56.7379 38.1426 56.905C38.0235 57.072 37.9384 57.261 37.8922 57.4609C37.6308 58.6013 37.4992 59.7675 37.5 60.9375C37.4831 62.731 37.7118 64.5185 38.1797 66.25L18.8234 63.975H18.7906L12.5625 63.2406C12.5484 63.2406 12.5359 63.2406 12.5219 63.2406L6.28437 62.5ZM15.0625 38.5437L21.1297 39.2547H21.1453L55.8641 43.3469C55.0523 45.1962 54.6509 47.1994 54.6875 49.2187C54.6748 50.9199 54.9522 52.6108 55.5078 54.2187L21.6906 50.2484C21.2749 48.6366 21.0742 46.9769 21.0938 45.3125C21.0915 44.3347 21.1516 43.3577 21.2734 42.3875C21.2997 42.1839 21.2856 41.9772 21.232 41.7791C21.1784 41.581 21.0862 41.3954 20.9609 41.2329C20.8355 41.0704 20.6794 40.9342 20.5014 40.832C20.3234 40.7298 20.127 40.6637 19.9234 40.6375C19.7199 40.6112 19.5132 40.6253 19.3151 40.6789C19.1169 40.7326 18.9313 40.8247 18.7688 40.95C18.6063 41.0754 18.4701 41.2315 18.368 41.4095C18.2658 41.5875 18.1997 41.7839 18.1734 41.9875C18.0347 43.0903 17.9663 44.2009 17.9688 45.3125C17.9641 46.8393 18.1069 48.3631 18.3953 49.8625L14.9078 49.4531C14.2888 47.6175 14.0025 45.6862 14.0625 43.75C14.0608 41.9667 14.4002 40.1995 15.0625 38.5437ZM59.375 43.75C59.4366 43.7502 59.4982 43.7465 59.5594 43.739L94.5594 39.5437C94.0087 41.1483 93.735 42.8349 93.75 44.5312C93.7126 46.5548 94.1162 48.5622 94.9328 50.414L59.3922 54.6734C58.9391 54.4937 57.8125 52.614 57.8125 49.2187C57.8125 45.7922 58.9688 43.8906 59.375 43.75ZM47.9688 67.3937C47.4832 65.8085 47.246 64.1577 47.2656 62.5C47.1554 60.4465 47.548 58.397 48.4094 56.5297L55.8688 57.4047C55.0537 59.2548 54.6507 61.2599 54.6875 63.2812C54.6748 64.9824 54.9522 66.6733 55.5078 68.2812L47.9688 67.3937ZM59.3969 68.7375C58.9406 68.5578 57.8125 66.6781 57.8125 63.2812C57.8125 59.8547 58.9688 57.9531 59.375 57.8125C59.4371 57.8128 59.4993 57.8091 59.5609 57.8015L94.5609 53.6062C94.0097 55.2107 93.7355 56.8973 93.75 58.5937C93.7194 60.6188 94.1355 62.6258 94.9688 64.4719L59.3969 68.7375ZM42.7313 33.125C44.4466 32.9219 46.18 32.9219 47.8953 33.125L85.2078 37.5125L59.375 40.614L21.5109 36.1515H21.4953L19.5125 35.9187L42.7313 33.125ZM6.22969 37.5L11.8672 38.1609C11.2528 39.9603 10.9387 41.8486 10.9375 43.75C10.9229 45.5319 11.1185 47.3092 11.5203 49.0453L6.28437 48.4375C5.84375 48.2969 4.6875 46.3953 4.6875 42.9687C4.6875 39.5969 5.80625 37.7031 6.22969 37.5078V37.5ZM6.25 84.375C5.15625 84.375 3.125 80.8156 3.125 75C3.125 69.2187 5.12187 65.6781 6.22656 65.6328L9.77969 66.05C8.4166 69.2517 7.75642 72.7087 7.84375 76.1875C7.80852 79.0742 8.23526 81.948 9.10781 84.7L6.43281 84.3875C6.37221 84.3794 6.31114 84.3752 6.25 84.375ZM79.375 89.6875C79.2229 89.4805 79.0214 89.3148 78.7889 89.2057C78.5563 89.0965 78.3002 89.0473 78.0438 89.0625C77.7896 89.0771 77.5428 89.1537 77.3249 89.2855C77.1071 89.4173 76.9247 89.6004 76.7937 89.8187L75 92.7969V79.3937L81.25 78.6406V92.1875L79.375 89.6875ZM84.375 87.614V78.264L85.3562 78.1453C85.768 78.0962 86.1433 77.8855 86.3997 77.5597C86.6561 77.2338 86.7725 76.8195 86.7234 76.4078C86.6743 75.9961 86.4637 75.6207 86.1378 75.3643C85.812 75.1079 85.3976 74.9915 84.9859 75.0406L82.6422 75.325H82.6312L73.2562 76.45C73.2391 76.45 73.225 76.4625 73.2078 76.464L71.2609 76.7C70.8657 76.747 70.5033 76.943 70.2477 77.2481C69.9921 77.5531 69.8626 77.9442 69.8855 78.3416C69.9084 78.7389 70.0821 79.1125 70.3711 79.3861C70.6601 79.6598 71.0426 79.8128 71.4406 79.814C71.5023 79.8142 71.5638 79.8106 71.625 79.8031L71.875 79.7719V89.114L59.375 90.614L59.2375 90.5984C58.1594 90.3375 56.25 87.0047 56.25 81.25C56.25 75.4344 58.2812 71.875 59.375 71.875C59.4371 71.8753 59.4993 71.8716 59.5609 71.864L93.9062 67.7469C92.7217 70.5324 92.1362 73.5359 92.1875 76.5625C92.0744 79.9828 92.849 83.3742 94.4359 86.4062L84.375 87.614Z" fill="black"/>
</g>
<defs>
<clipPath id="clip0_563_7478">
<rect width="100" height="100" fill="white"/>
</clipPath>
</defs>
</svg>
