<svg width="100" height="100" viewBox="0 0 100 100" fill="none" xmlns="http://www.w3.org/2000/svg">
<g clip-path="url(#clip0_419_2645)">
<path d="M1.66602 85H98.3325V98.3333H1.66602V85Z" fill="#29ABE2"/>
<path d="M1.66602 71.6667H84.9992V85.0001H1.66602V71.6667Z" fill="#FBB03B"/>
<path d="M48.3333 56.6668C52.9357 56.6668 56.6666 52.9358 56.6666 48.3334C56.6666 43.7311 52.9357 40.0001 48.3333 40.0001C43.731 40.0001 40 43.7311 40 48.3334C40 52.9358 43.731 56.6668 48.3333 56.6668Z" fill="#0071BC"/>
<path d="M64.9993 56.6668C69.6017 56.6668 73.3326 52.9358 73.3326 48.3334C73.3326 43.7311 69.6017 40.0001 64.9993 40.0001C60.397 40.0001 56.666 43.7311 56.666 48.3334C56.666 52.9358 60.397 56.6668 64.9993 56.6668Z" fill="#29ABE2"/>
<path d="M89.9993 56.6668C94.6017 56.6668 98.3326 52.9358 98.3326 48.3334C98.3326 43.7311 94.6017 40.0001 89.9993 40.0001C85.397 40.0001 81.666 43.7311 81.666 48.3334C81.666 52.9358 85.397 56.6668 89.9993 56.6668Z" fill="#0071BC"/>
<path d="M23.3328 33.2885C23.3328 33.2885 44.9994 28.2885 44.9994 46.6218C45.0238 55.1122 41.5458 63.237 35.3861 69.0801C32.5442 71.8124 28.2865 72.4511 24.7678 70.6734L23.3328 69.9551L21.8978 70.6734C18.379 72.4511 14.1213 71.8124 11.2795 69.0801C5.11968 63.237 1.64177 55.1122 1.66614 46.6218C1.66614 28.2885 23.3328 33.2885 23.3328 33.2885Z" fill="#DA4836"/>
<path d="M11.666 85H18.3327V98.3333H11.666V85Z" fill="#0071BC"/>
<path d="M81.666 85H88.3327V98.3333H81.666V85Z" fill="#0071BC"/>
<path d="M68.334 71.6667H75.0006V85.0001H68.334V71.6667Z" fill="#F15A24"/>
<path d="M11.666 71.6667H24.9993V78.3334H11.666V71.6667Z" fill="#DA4836"/>
<path d="M29.7623 18.2885H33.334V20.1934C33.334 23.7436 30.4558 26.6218 26.9056 26.6218H23.334V24.7168C23.334 21.1664 26.2121 18.2885 29.7623 18.2885Z" fill="#009245"/>
<path d="M6.66731 1.66687H90.0005C91.8415 1.66687 93.3338 3.15916 93.3338 5.0002C93.3338 6.84123 91.8415 8.33352 90.0005 8.33352H6.66731C4.82627 8.33352 3.33398 6.84123 3.33398 5.0002C3.33398 3.15916 4.82648 1.66687 6.66731 1.66687Z" fill="#0071BC"/>
<path d="M80.0001 48.3335C79.9943 53.8564 84.4668 58.3382 89.9897 58.3439C95.5126 58.3495 99.9944 53.8772 100 48.3543C100.005 43.3339 96.2874 39.0877 91.3101 38.43L83.8334 10.0002H90.0001C92.7615 10.0002 95.0001 7.76169 95.0001 5.00023C95.0001 2.23878 92.7615 0.000244141 90.0001 0.000244141H6.66693C3.90548 0.000244141 1.66694 2.23878 1.66694 5.00023C1.66694 7.76169 3.90548 10.0002 6.66693 10.0002H13.3336V31.2585C10.3446 31.5943 7.49922 32.7208 5.09027 34.5218C1.71194 37.2102 0.000280786 41.2802 0.000280786 46.6218C-0.0363858 55.4299 3.51944 63.8724 9.84693 70.0001H1.66694C0.746529 70.0001 0.000280786 70.7464 0.000280786 71.6668V98.3334C0.000280786 99.2538 0.746529 100 1.66694 100H98.3334C99.2538 100 100 99.2538 100 98.3334V85.0001C100 84.0797 99.2538 83.3334 98.3334 83.3334H86.6668V71.6668C86.6668 70.7464 85.9205 70.0001 85.0001 70.0001H36.8202C40.3585 66.5282 43.0779 62.3107 44.7802 57.6551C49.1435 59.3599 54.1045 57.7718 56.6668 53.8501C59.7066 58.4612 65.9087 59.7351 70.5197 56.6953C75.1307 53.6556 76.4047 47.4535 73.3649 42.8424C71.8351 40.5216 69.4083 38.9425 66.6668 38.4835V10.0002H80.3818L87.8968 38.5602C83.2939 39.5556 80.0066 43.6241 80.0001 48.3335ZM5.00027 5.00023C5.00027 4.07982 5.74652 3.33357 6.66693 3.33357H90.0001C90.9205 3.33357 91.6668 4.07982 91.6668 5.00023C91.6668 5.92065 90.9205 6.6669 90.0001 6.6669H6.66693C5.74652 6.6669 5.00027 5.92065 5.00027 5.00023ZM46.6669 38.4902C46.12 38.5837 45.5821 38.7231 45.0585 38.9068C44.2437 37.2012 43.0533 35.702 41.5769 34.5218C39.1681 32.7202 36.3227 31.5933 33.3335 31.2568V25.0585C34.4085 23.6642 34.9944 21.9544 35.0002 20.1935V18.2885C35.0002 17.3681 34.254 16.6219 33.3335 16.6219V10.0002H46.6669V38.4902ZM24.9869 31.3118C24.9715 30.3006 24.8973 29.2912 24.7652 28.2885H26.9052C27.9677 28.2877 29.0198 28.0764 30.0002 27.6669V31.0002C28.3238 30.9777 26.6479 31.0818 24.9869 31.3118ZM31.6669 19.9552V20.1935C31.6631 22.8219 29.5336 24.9514 26.9052 24.9552H25.0002V24.7169C25.004 22.0885 27.1336 19.959 29.7619 19.9552H31.6669ZM16.6669 10.0002H30.0002V16.6219H29.7619C26.8156 16.6315 24.1088 18.2458 22.7002 20.8335C21.8909 18.985 20.8732 17.2348 19.6669 15.6169L17.0002 17.6169C19.9527 21.5758 21.5811 26.3654 21.6536 31.3035C20.0013 31.0768 18.3344 30.9754 16.6669 31.0002V10.0002ZM7.15693 37.1368C12.7819 32.6535 22.8586 34.8918 22.9602 34.9135C23.2069 34.9668 23.4619 34.9668 23.7086 34.9135C23.8086 34.8885 33.8535 32.6402 39.5019 37.1318C42.0452 39.1535 43.3352 42.3468 43.3352 46.6218C43.3587 54.6618 40.0625 62.3547 34.2252 67.8834C31.891 70.1211 28.3988 70.6416 25.5136 69.1818L24.0786 68.4651C23.6096 68.2307 23.0575 68.2307 22.5886 68.4651L21.1536 69.1818C20.0923 69.7143 18.9225 69.9943 17.7352 70.0001H17.7102C15.7452 70.0093 13.8544 69.2497 12.4419 67.8834C6.60527 62.3545 3.30965 54.6614 3.33361 46.6218C3.33361 42.3518 4.62027 39.1668 7.15693 37.1368ZM13.3336 73.3334H23.3336V76.6668H13.3336V73.3334ZM3.33361 73.3334H10.0003V78.3334C10.0003 79.2538 10.7465 80.0001 11.6669 80.0001H25.0002C25.9206 80.0001 26.6669 79.2538 26.6669 78.3334V73.3334H66.6668V83.3334H3.33361V73.3334ZM86.6668 86.6667V96.6667H83.3334V86.6667H86.6668ZM80.0001 96.6667H20.0002V86.6667H80.0001V96.6667ZM16.6669 86.6667V96.6667H13.3336V86.6667H16.6669ZM70.0001 83.3334V73.3334H73.3335V83.3334H70.0001ZM3.33361 86.6667H10.0003V96.6667H3.33361V86.6667ZM96.6667 96.6667H90.0001V86.6667H96.6667V96.6667ZM83.3334 83.3334H76.6668V73.3334H83.3334V83.3334ZM48.3335 55.0001C47.4431 54.9974 46.5623 54.8153 45.7435 54.4651C46.3635 51.897 46.6735 49.2637 46.6669 46.6218C46.6725 45.0818 46.5014 43.5462 46.1568 42.0452C49.6298 40.8227 53.4364 42.647 54.6589 46.1199C55.8814 49.5929 54.057 53.3995 50.5841 54.622C49.8612 54.8764 49.1 55.0043 48.3335 55.0001ZM71.6668 48.3335C71.6668 52.0153 68.682 55.0001 65.0001 55.0001C61.3183 55.0001 58.3335 52.0153 58.3335 48.3335C58.3335 44.6516 61.3183 41.6668 65.0001 41.6668C68.682 41.6668 71.6668 44.6516 71.6668 48.3335ZM63.3335 38.4835C60.6085 38.946 58.1958 40.5141 56.6668 42.8168C55.1379 40.5141 52.7252 38.946 50.0002 38.4835V10.0002H63.3335V38.4835ZM90.0001 41.6668C93.682 41.6668 96.6667 44.6516 96.6667 48.3335C96.6667 52.0153 93.682 55.0001 90.0001 55.0001C86.3182 55.0001 83.3334 52.0153 83.3334 48.3335C83.3334 44.6516 86.3182 41.6668 90.0001 41.6668Z" fill="black"/>
<path d="M20.0006 41.6668V38.3335C13.0006 38.3335 8.33398 40.3168 8.33398 50.0001H11.6673C11.6673 42.9252 13.8506 41.6668 20.0006 41.6668Z" fill="black"/>
<path d="M8.33398 53.3334H11.6673V56.6667H8.33398V53.3334Z" fill="black"/>
<path d="M23.334 90H70.0006V93.3333H23.334V90Z" fill="black"/>
<path d="M73.334 90H76.6673V93.3333H73.334V90Z" fill="black"/>
<path d="M30 76.6667H56.6666V80.0001H30V76.6667Z" fill="black"/>
<path d="M60 76.6667H63.3333V80.0001H60V76.6667Z" fill="black"/>
</g>
<defs>
<clipPath id="clip0_419_2645">
<rect width="100" height="100" fill="white"/>
</clipPath>
</defs>
</svg>
