<svg width="100" height="100" viewBox="0 0 100 100" fill="none" xmlns="http://www.w3.org/2000/svg">
<g clip-path="url(#clip0_563_7890)">
<path d="M98.5352 30.6648V26.5928C98.5352 25.7018 98.035 24.8861 97.2406 24.4824L53.7316 2.35918C52.5756 1.77129 51.2969 1.46484 50 1.46484C48.7031 1.46484 47.4244 1.77129 46.2684 2.35918L2.75938 24.4822C1.96523 24.8861 1.46484 25.7016 1.46484 26.5926V30.6646C1.46484 31.9723 2.5248 33.0322 3.83242 33.0322H96.1676C97.4752 33.0324 98.5352 31.9725 98.5352 30.6648Z" fill="#FED2A4"/>
<path d="M97.2398 24.4822L92.8191 22.2344C93.1896 22.6586 93.4047 23.2082 93.4047 23.7912V30.6648C93.4047 31.9725 92.3447 33.0324 91.0371 33.0324H96.1668C97.4744 33.0324 98.5344 31.9725 98.5344 30.6648V26.5928C98.5344 25.7018 98.0342 24.8861 97.2398 24.4822Z" fill="#FFBD86"/>
<path d="M16.694 24.4799L49.1303 7.98672C49.3998 7.84961 49.6979 7.77832 50.0002 7.77832C50.3026 7.77832 50.6006 7.8498 50.8701 7.98672L83.3065 24.4799C84.416 25.0441 84.0147 26.7189 82.77 26.7189H17.2305C15.9856 26.7189 15.5844 25.0441 16.694 24.4799Z" fill="#F6A96C"/>
<path d="M96.5617 92.2217H3.4375V88.2758C3.4375 86.9682 4.49746 85.9082 5.80508 85.9082H94.1943C95.502 85.9082 96.5619 86.9682 96.5619 88.2758L96.5617 92.2217Z" fill="#FFBD86"/>
<path d="M94.1943 85.9082H88.6699C89.9775 85.9082 91.0375 86.9682 91.0375 88.2758V92.2217H96.5619V88.2758C96.5619 86.9682 95.502 85.9082 94.1943 85.9082Z" fill="#F6A96C"/>
<path d="M96.9568 98.5352H3.04316C2.17148 98.5352 1.46484 97.8285 1.46484 96.9568V93.8C1.46484 92.9283 2.17148 92.2217 3.04316 92.2217H96.9566C97.8283 92.2217 98.535 92.9283 98.535 93.8V96.9568C98.5352 97.8285 97.8285 98.5352 96.9568 98.5352Z" fill="#FED2A4"/>
<path d="M96.9559 92.2217H91.6289C92.5006 92.2217 93.2072 92.9283 93.2072 93.8V96.9568C93.2072 97.8285 92.5006 98.5352 91.6289 98.5352H96.9559C97.8275 98.5352 98.5342 97.8285 98.5342 96.9568V93.8C98.5342 92.9283 97.8275 92.2217 96.9559 92.2217Z" fill="#FFBD86"/>
<path d="M26.3234 85.9082H6.59375V81.9623C6.59375 80.6547 7.65371 79.5947 8.96133 79.5947H23.9559C25.2635 79.5947 26.3234 80.6547 26.3234 81.9623V85.9082Z" fill="#FED2A4"/>
<path d="M23.9561 39.3459H8.96133C7.65371 39.3459 6.59375 38.2859 6.59375 36.9783V33.0324H26.3234V36.9783C26.3234 38.2859 25.2635 39.3459 23.9561 39.3459Z" fill="#FED2A4"/>
<path d="M20.8012 33.0324V36.9783C20.8012 38.2859 19.7412 39.3459 18.4336 39.3459H23.958C25.2656 39.3459 26.3256 38.2859 26.3256 36.9783V33.0324H20.8012Z" fill="#FFBD86"/>
<path d="M20.8012 85.9082V81.9623C20.8012 80.6547 19.7412 79.5947 18.4336 79.5947H23.958C25.2656 79.5947 26.3256 80.6547 26.3256 81.9623V85.9082H20.8012Z" fill="#FFBD86"/>
<path d="M9.75195 39.3459H23.1682V79.5945H9.75195V39.3459Z" fill="#FFBD86"/>
<path d="M18.0371 39.3459H23.1668V79.5945H18.0371V39.3459Z" fill="#F6A96C"/>
<path d="M93.4055 85.9082H73.6758V81.9623C73.6758 80.6547 74.7357 79.5947 76.0434 79.5947H91.0379C92.3455 79.5947 93.4055 80.6547 93.4055 81.9623V85.9082Z" fill="#FED2A4"/>
<path d="M91.0379 39.3459H76.0434C74.7357 39.3459 73.6758 38.2859 73.6758 36.9783V33.0324H93.4055V36.9783C93.4055 38.2859 92.3455 39.3459 91.0379 39.3459Z" fill="#FED2A4"/>
<path d="M87.8812 33.0324V36.9783C87.8812 38.2859 86.8213 39.3459 85.5137 39.3459H91.0381C92.3457 39.3459 93.4057 38.2859 93.4057 36.9783V33.0324H87.8812Z" fill="#FFBD86"/>
<path d="M87.8812 85.9082V81.9623C87.8812 80.6547 86.8213 79.5947 85.5137 79.5947H91.0381C92.3457 79.5947 93.4057 80.6547 93.4057 81.9623V85.9082H87.8812Z" fill="#FFBD86"/>
<path d="M76.832 39.3459H90.2482V79.5945H76.832V39.3459Z" fill="#FFBD86"/>
<path d="M85.1191 39.3459H90.2488V79.5945H85.1191V39.3459Z" fill="#F6A96C"/>
<path d="M65.3902 79.5945H34.6117C33.3041 79.5945 32.2441 78.5346 32.2441 77.2269V41.7135C32.2441 40.4058 33.3041 39.3459 34.6117 39.3459H65.39C66.6977 39.3459 67.7576 40.4058 67.7576 41.7135V77.2269C67.7578 78.5346 66.6977 79.5945 65.3902 79.5945Z" fill="#DC8758"/>
<path d="M65.3897 39.3459H59.0762C60.3838 39.3459 61.4438 40.4058 61.4438 41.7135V77.2269C61.4438 78.5346 60.3838 79.5945 59.0762 79.5945H65.3897C66.6973 79.5945 67.7572 78.5346 67.7572 77.2269V41.7135C67.7572 40.4058 66.6971 39.3459 65.3897 39.3459Z" fill="#C86D36"/>
<path d="M38.5566 72.492V46.4486C38.5566 46.0127 38.91 45.6594 39.3459 45.6594H60.6541C61.09 45.6594 61.4434 46.0127 61.4434 46.4486V72.4918C61.4434 72.9277 61.09 73.281 60.6541 73.281H39.3457C38.91 73.281 38.5566 72.9277 38.5566 72.492Z" fill="#8AC9FE"/>
<path d="M38.5566 59.4703V72.492C38.5566 72.928 38.91 73.2813 39.3459 73.2813H52.3676C52.3674 65.6535 46.184 59.4703 38.5566 59.4703Z" fill="#FFE177"/>
<path d="M53.8127 64.8692H46.1889C45.2713 64.8692 44.6352 63.9541 44.9547 63.0942L48.7666 52.8313C49.1916 51.6869 50.8102 51.6869 51.2352 52.8313L55.0471 63.0942C55.3664 63.9541 54.7303 64.8692 53.8127 64.8692Z" fill="#FD8087"/>
<path d="M60.6541 44.1945H39.3459C38.1031 44.1945 37.0918 45.2058 37.0918 46.4486V72.4918C37.0918 73.7346 38.1031 74.7459 39.3459 74.7459H60.6541C61.8969 74.7459 62.9082 73.7346 62.9082 72.4918V46.4486C62.9082 45.2058 61.8969 44.1945 60.6541 44.1945ZM40.0215 61.0238C41.3199 61.1783 42.5846 61.5361 43.7654 62.0865L43.5807 62.584C43.2639 63.4373 43.3848 64.3932 43.9045 65.1406C44.4242 65.8879 45.2777 66.334 46.1881 66.334H48.7605C49.8873 67.9799 50.5859 69.8437 50.8166 71.8162H40.0215V61.0238ZM46.4012 63.4043L50 53.7152L53.5988 63.4041H46.4012V63.4043ZM59.9785 71.8162H53.7613C53.5801 69.8883 53.04 68.0391 52.1645 66.334H53.8119C54.7223 66.334 55.5758 65.8879 56.0955 65.1406C56.6152 64.3932 56.7361 63.4373 56.4191 62.584L52.6074 52.3215C52.1982 51.2199 51.1748 50.5082 49.9998 50.5082C48.8248 50.5082 47.8014 51.2201 47.3924 52.3213L44.7873 59.3346C43.2809 58.6609 41.6709 58.2351 40.0213 58.0767V47.1244H59.9783V71.8162H59.9785Z" fill="black"/>
<path d="M65.3902 37.881H34.6117C32.4986 37.881 30.7793 39.6004 30.7793 41.7135V77.2269C30.7793 79.34 32.4986 81.0594 34.6117 81.0594H65.3902C67.5033 81.0594 69.2227 79.34 69.2227 77.2269V41.7135C69.2227 39.6004 67.5033 37.881 65.3902 37.881ZM66.293 77.2269C66.293 77.7248 65.8881 78.1297 65.3902 78.1297H34.6117C34.1139 78.1297 33.709 77.7248 33.709 77.2269V41.7135C33.709 41.2156 34.1139 40.8107 34.6117 40.8107H65.3902C65.8881 40.8107 66.293 41.2156 66.293 41.7135V77.2269Z" fill="black"/>
<path d="M48.4665 6.68104L16.0301 23.174C14.9165 23.7402 14.3639 24.9371 14.6549 26.1523C14.9461 27.3674 15.9813 28.1836 17.2307 28.1836H82.7702C84.0194 28.1836 85.0545 27.3672 85.3459 26.1523C85.637 24.9371 85.0844 23.7402 83.9708 23.174L51.5346 6.68124C50.5891 6.20018 49.4114 6.20038 48.4665 6.68104ZM18.4036 25.2541L49.795 9.29237C49.9212 9.22792 50.0795 9.22772 50.2065 9.29257L81.5975 25.2541H18.4036Z" fill="black"/>
<path d="M94.8701 36.9783V34.498H96.168C98.2809 34.498 100 32.7781 100 30.6641V26.5918C100 25.1428 99.1971 23.8342 97.9043 23.1766L82.4082 15.2957C81.6877 14.9291 80.8055 15.2164 80.4385 15.9375C80.0719 16.6584 80.3592 17.5404 81.0803 17.9072L96.5762 25.7879C96.8811 25.943 97.0703 26.251 97.0703 26.5918V30.6641C97.0703 31.1627 96.6656 31.5684 96.168 31.5684H3.83203C3.33438 31.5684 2.92969 31.1627 2.92969 30.6641V26.5918C2.92969 26.251 3.11914 25.943 3.42363 25.7881L46.9297 3.66621C47.4066 3.42441 47.9094 3.23926 48.4248 3.11582C49.9572 2.74648 51.6469 2.94219 53.0684 3.66523L74.9863 14.8098C75.7074 15.1764 76.5891 14.8887 76.9561 14.168C77.3227 13.4469 77.0354 12.565 76.3143 12.1982L54.3965 1.05371C53.0406 0.364258 51.5203 0 50 0C49.2365 0 48.4756 0.0900391 47.7406 0.266992C47.0043 0.443359 46.2861 0.707812 45.6037 1.05352L2.09551 23.1768C0.80293 23.8342 0 25.1428 0 26.5918V30.6641C0 32.7781 1.71914 34.498 3.83203 34.498H5.12988V36.9783C5.12988 38.8605 6.49512 40.427 8.28652 40.7475V78.1932C6.49512 78.5137 5.12988 80.0801 5.12988 81.9623V84.5066C3.33828 84.8271 1.97305 86.3936 1.97305 88.2758V90.9539C0.82207 91.3885 0 92.4988 0 93.8008V96.957C0 98.635 1.36504 100 3.04297 100H74.5957C75.4049 100 76.0605 99.3443 76.0605 98.5352C76.0605 97.726 75.4049 97.0703 74.5957 97.0703H3.04297C2.98047 97.0703 2.92969 97.0195 2.92969 96.957V93.8008C2.92969 93.7373 2.98047 93.6855 3.04297 93.6855H96.957C97.0195 93.6855 97.0703 93.7373 97.0703 93.8008V96.957C97.0703 97.0195 97.0195 97.0703 96.957 97.0703H81.4316C80.6225 97.0703 79.9668 97.726 79.9668 98.5352C79.9668 99.3443 80.6225 100 81.4316 100H96.957C98.635 100 100 98.635 100 96.957V93.8008C100 92.499 99.1779 91.3887 98.027 90.9539V88.2758C98.027 86.3936 96.6617 84.8271 94.8701 84.5066V81.9623C94.8701 80.0801 93.5049 78.5137 91.7135 78.1932V40.7475C93.5051 40.427 94.8701 38.8605 94.8701 36.9783ZM91.9404 36.9783C91.9404 37.4762 91.5356 37.8811 91.0379 37.8811H76.0434C75.5455 37.8811 75.1406 37.4762 75.1406 36.9783V34.498H91.9406V36.9783H91.9404ZM78.2973 78.1297V40.8107H88.7838V78.1297H78.2973ZM72.2109 81.9621V84.4432H27.7891V81.9621C27.7891 80.0801 26.424 78.5139 24.6328 78.1932V53.418C24.6328 52.6088 23.9771 51.9531 23.168 51.9531C22.3588 51.9531 21.7031 52.6088 21.7031 53.418V78.1297H11.2162V40.8107H21.7031V46.582C21.7031 47.3912 22.3588 48.0469 23.168 48.0469C23.9771 48.0469 24.6328 47.3912 24.6328 46.582V40.7473C26.424 40.4266 27.7891 38.8604 27.7891 36.9783V34.498H72.2109V36.9783C72.2109 38.8605 73.5762 40.4268 75.3676 40.7475V78.1932C73.576 78.5137 72.2109 80.0801 72.2109 81.9621ZM8.05957 34.498H24.8596V36.9783C24.8596 37.4762 24.4547 37.8811 23.9568 37.8811H23.1719C23.1707 37.8811 23.1693 37.8809 23.1682 37.8809C23.167 37.8809 23.1656 37.8811 23.1645 37.8811H8.96211C8.46445 37.8811 8.05957 37.4762 8.05957 36.9783V34.498ZM8.96211 81.0594H23.9566C24.4545 81.0594 24.8594 81.4643 24.8594 81.9621V84.4432H8.05957V81.9621C8.05957 81.4645 8.46445 81.0594 8.96211 81.0594ZM95.0973 90.7559H4.90273V88.2758C4.90273 87.7779 5.30762 87.373 5.80547 87.373H94.1947C94.6926 87.373 95.0975 87.7779 95.0975 88.2758L95.0973 90.7559ZM91.9404 84.4434H75.1406V81.9623C75.1406 81.4645 75.5455 81.0596 76.0434 81.0596H91.0379C91.5356 81.0596 91.9404 81.4645 91.9404 81.9623V84.4434Z" fill="black"/>
</g>
<defs>
<clipPath id="clip0_563_7890">
<rect width="100" height="100" fill="white"/>
</clipPath>
</defs>
</svg>
