<svg width="100" height="100" viewBox="0 0 100 100" fill="none" xmlns="http://www.w3.org/2000/svg">
<path d="M95.3125 50C95.3125 75.0254 75.0254 95.3125 50 95.3125C24.9746 95.3125 4.6875 75.0254 4.6875 50C4.6875 24.9746 24.9746 4.6875 50 4.6875C76.5625 4.6875 58.3729 25.2271 66.5728 33.4271C74.7729 41.6271 95.3125 23.4375 95.3125 50Z" fill="#E3E4E2"/>
<path d="M50 26.5625C54.3147 26.5625 57.8125 23.0647 57.8125 18.75C57.8125 14.4353 54.3147 10.9375 50 10.9375C45.6853 10.9375 42.1875 14.4353 42.1875 18.75C42.1875 23.0647 45.6853 26.5625 50 26.5625Z" fill="#85BB40"/>
<path d="M50 57.8125C54.3147 57.8125 57.8125 54.3147 57.8125 50C57.8125 45.6853 54.3147 42.1875 50 42.1875C45.6853 42.1875 42.1875 45.6853 42.1875 50C42.1875 54.3147 45.6853 57.8125 50 57.8125Z" fill="#EB5849"/>
<path d="M50 89.0625C54.3147 89.0625 57.8125 85.5647 57.8125 81.25C57.8125 76.9353 54.3147 73.4375 50 73.4375C45.6853 73.4375 42.1875 76.9353 42.1875 81.25C42.1875 85.5647 45.6853 89.0625 50 89.0625Z" fill="#F8BC1E"/>
<path d="M27.9023 35.7155C32.2171 35.7155 35.7148 32.2177 35.7148 27.903C35.7148 23.5882 32.2171 20.0905 27.9023 20.0905C23.5876 20.0905 20.0898 23.5882 20.0898 27.903C20.0898 32.2177 23.5876 35.7155 27.9023 35.7155Z" fill="#2C9547"/>
<path d="M18.75 57.8125C23.0647 57.8125 26.5625 54.3147 26.5625 50C26.5625 45.6853 23.0647 42.1875 18.75 42.1875C14.4353 42.1875 10.9375 45.6853 10.9375 50C10.9375 54.3147 14.4353 57.8125 18.75 57.8125Z" fill="#0093B9"/>
<path d="M81.25 57.8125C85.5647 57.8125 89.0625 54.3147 89.0625 50C89.0625 45.6853 85.5647 42.1875 81.25 42.1875C76.9353 42.1875 73.4375 45.6853 73.4375 50C73.4375 54.3147 76.9353 57.8125 81.25 57.8125Z" fill="#D83D69"/>
<path d="M72.0977 79.9095C76.4124 79.9095 79.9102 76.4118 79.9102 72.097C79.9102 67.7823 76.4124 64.2845 72.0977 64.2845C67.7829 64.2845 64.2852 67.7823 64.2852 72.097C64.2852 76.4118 67.7829 79.9095 72.0977 79.9095Z" fill="#F7CE2C"/>
<path d="M27.9023 79.9095C32.2171 79.9095 35.7148 76.4118 35.7148 72.097C35.7148 67.7823 32.2171 64.2845 27.9023 64.2845C23.5876 64.2845 20.0898 67.7823 20.0898 72.097C20.0898 76.4118 23.5876 79.9095 27.9023 79.9095Z" fill="#57C3C1"/>
<path d="M95.3414 88.8197C95.2863 89.6526 94.9071 90.4307 94.285 90.9873C93.6629 91.5438 92.8475 91.8344 92.0137 91.7969L20.1953 88.559L20.8125 79.2035L92.4336 85.4301C93.2654 85.5023 94.0357 85.8977 94.5794 86.5314C95.123 87.1651 95.3966 87.9866 95.3414 88.8197Z" fill="#4E4E4F"/>
<path d="M33.2682 80.2872L32.6854 89.1221L20.1953 88.559L20.8125 79.2043L33.2682 80.2872Z" fill="#C9C9C8"/>
<path d="M20.8119 79.2043C20.334 78.2739 19.6429 77.4696 18.795 76.857C17.9472 76.2443 16.9665 75.8408 15.933 75.6792C14.8996 75.5176 13.8425 75.6025 12.8481 75.9271C11.8537 76.2516 10.9501 76.8066 10.2109 77.5467L4.91211 82.8528L9.46797 88.8086C10.1034 89.6395 10.9263 90.3085 11.8694 90.7609C12.8125 91.2133 13.8492 91.4365 14.8949 91.4121C15.9407 91.3877 16.9659 91.1165 17.8869 90.6206C18.8079 90.1248 19.5987 89.4182 20.1947 88.5586L20.8119 79.2043Z" fill="#A17835"/>
<path d="M92.5683 83.8744L21.7494 77.7174C21.0788 76.7022 20.1908 75.849 19.1497 75.2196C18.1086 74.5901 16.9404 74.2003 15.7299 74.0782C14.5195 73.9562 13.297 74.105 12.1512 74.514C11.0054 74.9229 9.96491 75.5817 9.10524 76.4426L3.80641 81.7486C3.539 82.0164 3.37789 82.3722 3.35299 82.7499C3.3281 83.1275 3.44112 83.5013 3.67106 83.8019L8.22672 89.759C8.98674 90.7637 9.97027 91.5776 11.0994 92.1362C12.2285 92.6949 13.4722 92.9829 14.732 92.9775C14.7981 92.9775 14.8645 92.9767 14.9312 92.9752C16.073 92.9544 17.1976 92.6925 18.2311 92.2067C19.2646 91.7209 20.1837 91.0222 20.9283 90.1562L91.9425 93.3582C92.0136 93.3614 92.0845 93.3631 92.155 93.3631C93.3599 93.3568 94.5179 92.8959 95.3976 92.0726C96.2772 91.2493 96.8137 90.1242 96.8996 88.9224C96.9748 87.6832 96.5648 86.4634 95.7564 85.5212C94.9479 84.579 93.8046 83.9884 92.5683 83.8744ZM31.6078 81.7111L31.2263 87.4924L28.1037 87.3517L28.4943 81.4406L31.6078 81.7111ZM14.8584 89.8502C14.0582 89.8731 13.2641 89.7044 12.5423 89.3582C11.8205 89.0119 11.1919 88.4982 10.7089 87.8597L6.98395 82.9894L11.3164 78.6508C11.8573 78.1089 12.5139 77.6965 13.2369 77.4445C13.9598 77.1925 14.7305 77.1073 15.491 77.1955C16.2516 77.2836 16.9824 77.5427 17.6285 77.9534C18.2747 78.3641 18.8196 78.9158 19.2222 79.567L18.6662 87.9904C18.2057 88.5595 17.6262 89.0209 16.9683 89.3422C16.3105 89.6635 15.5903 89.8369 14.8584 89.8502ZM22.266 80.899L25.3799 81.1697L24.9812 87.2107L21.8588 87.0699L22.266 80.899ZM93.7814 88.7166C93.7528 89.1414 93.5591 89.5382 93.2418 89.8222C92.9245 90.1061 92.5088 90.2547 92.0834 90.2361L34.349 87.6328L34.7218 81.9816L92.2978 86.9873C92.7213 87.0263 93.113 87.2287 93.3899 87.5514C93.6668 87.8742 93.8072 88.2921 93.7814 88.7166Z" fill="black"/>
<path d="M94.5713 29.4827C93.4832 28.8122 92.3166 28.2783 91.098 27.8928L90.1504 30.8706C91.1246 31.1782 92.0572 31.6046 92.9271 32.1401L94.5713 29.4827Z" fill="black"/>
<path d="M69.3613 21.4727C68.8211 25.8336 68.5662 28.7908 69.8887 30.1129C70.5992 30.823 71.7815 31.0779 73.4006 31.0779C74.794 31.0779 76.5113 30.8891 78.5295 30.6391C81.2602 30.3012 84.3555 29.918 87.3166 30.2701L87.6861 27.1674C84.3481 26.7695 81.0527 27.1775 78.142 27.5385C76.7691 27.7086 73.2557 28.1439 72.1416 27.8602C71.8578 26.7469 72.2934 23.2312 72.4635 21.8562C73.1309 16.4668 74.0455 9.08535 68.9516 3.32227L66.6094 5.39062C70.7697 10.099 70.0217 16.1412 69.3613 21.4727Z" fill="black"/>
<path d="M11.6756 71.1195C8.00581 64.4572 6.13599 56.9534 6.2506 49.3481C6.36521 41.7428 8.46028 34.2987 12.3292 27.75C16.1981 21.2013 21.7072 15.7742 28.3132 12.004C34.9192 8.23371 42.3939 6.25052 50.0001 6.25C56.0743 6.25 59.9747 7.32305 61.9256 9.53125C64.2206 12.1289 63.7045 16.2945 63.1581 20.7055C62.5342 25.7445 61.8885 30.9539 65.4678 34.5336C69.0471 38.1133 74.2569 37.467 79.296 36.8434C83.7073 36.2965 87.8737 35.7811 90.4702 38.0758C92.677 40.0254 93.7501 43.9258 93.7501 50C93.7523 60.5308 89.9541 70.7086 83.0534 78.6633L85.4135 80.7117C92.8074 72.1885 96.8772 61.2834 96.8751 50C96.8751 42.9783 95.4567 38.3113 92.5391 35.7328C88.8868 32.5051 83.8155 33.1334 78.9112 33.7406C74.419 34.2969 70.1776 34.8223 67.6776 32.3223C65.1776 29.8223 65.703 25.5801 66.2592 21.0887C66.8667 16.1844 67.4948 11.1131 64.267 7.46074C61.6887 4.54336 57.0217 3.125 50.0001 3.125C41.8511 3.1274 33.8434 5.25353 26.7665 9.29377C19.6896 13.334 13.7879 19.1489 9.64309 26.1651C5.49831 33.1812 3.25364 41.1565 3.13037 49.3045C3.00709 57.4526 5.00947 65.4921 8.94009 72.6305L11.6756 71.1195Z" fill="black"/>
<path d="M50 9.375C48.1458 9.375 46.3332 9.92483 44.7915 10.955C43.2498 11.9851 42.0482 13.4493 41.3386 15.1623C40.6291 16.8754 40.4434 18.7604 40.8051 20.579C41.1669 22.3975 42.0598 24.068 43.3709 25.3791C44.682 26.6902 46.3525 27.5831 48.171 27.9449C49.9896 28.3066 51.8746 28.1209 53.5877 27.4114C55.3007 26.7018 56.7649 25.5002 57.795 23.9585C58.8252 22.4168 59.375 20.6042 59.375 18.75C59.3723 16.2644 58.3837 13.8815 56.6261 12.1239C54.8685 10.3663 52.4856 9.37774 50 9.375ZM50 25C48.7639 25 47.5555 24.6334 46.5277 23.9467C45.4999 23.2599 44.6988 22.2838 44.2258 21.1418C43.7527 19.9997 43.6289 18.7431 43.8701 17.5307C44.1113 16.3183 44.7065 15.2047 45.5806 14.3306C46.4547 13.4565 47.5683 12.8612 48.7807 12.6201C49.9931 12.3789 51.2497 12.5027 52.3918 12.9758C53.5338 13.4488 54.5099 14.2499 55.1967 15.2777C55.8834 16.3055 56.25 17.5139 56.25 18.75C56.2481 20.407 55.5891 21.9957 54.4174 23.1674C53.2457 24.3391 51.657 24.9981 50 25Z" fill="black"/>
<path d="M50 40.625C48.1458 40.625 46.3332 41.1748 44.7915 42.205C43.2498 43.2351 42.0482 44.6993 41.3386 46.4123C40.6291 48.1254 40.4434 50.0104 40.8051 51.829C41.1669 53.6475 42.0598 55.318 43.3709 56.6291C44.682 57.9402 46.3525 58.8331 48.171 59.1949C49.9896 59.5566 51.8746 59.3709 53.5877 58.6614C55.3007 57.9518 56.7649 56.7502 57.795 55.2085C58.8252 53.6668 59.375 51.8542 59.375 50C59.3723 47.5144 58.3837 45.1315 56.6261 43.3739C54.8685 41.6163 52.4856 40.6277 50 40.625ZM50 56.25C48.7639 56.25 47.5555 55.8834 46.5277 55.1967C45.4999 54.5099 44.6988 53.5338 44.2258 52.3918C43.7527 51.2497 43.6289 49.9931 43.8701 48.7807C44.1113 47.5683 44.7065 46.4547 45.5806 45.5806C46.4547 44.7065 47.5683 44.1112 48.7807 43.8701C49.9931 43.6289 51.2497 43.7527 52.3918 44.2258C53.5338 44.6988 54.5099 45.4999 55.1967 46.5277C55.8834 47.5555 56.25 48.7639 56.25 50C56.2481 51.657 55.5891 53.2457 54.4174 54.4174C53.2457 55.5891 51.657 56.2481 50 56.25Z" fill="black"/>
<path d="M34.5316 21.2738C32.998 19.74 30.98 18.7855 28.8215 18.5729C26.663 18.3602 24.4975 18.9026 22.6941 20.1076C20.8906 21.3125 19.5608 23.1056 18.9311 25.1811C18.3014 27.2567 18.4109 29.4863 19.2409 31.4902C20.0709 33.4941 21.57 35.1482 23.4828 36.1707C25.3957 37.1931 27.6039 37.5207 29.7312 37.0976C31.8584 36.6745 33.7732 35.5269 35.1492 33.8503C36.5252 32.1737 37.2773 30.0718 37.2773 27.9029C37.2807 26.6713 37.0398 25.4512 36.5685 24.3133C36.0972 23.1754 35.4049 22.1423 34.5316 21.2738ZM32.3217 32.3222C31.4476 33.1963 30.334 33.7916 29.1216 34.0328C27.9092 34.2739 26.6525 34.1502 25.5105 33.6771C24.3684 33.2041 23.3923 32.403 22.7055 31.3752C22.0187 30.3474 21.6522 29.139 21.6522 27.9029C21.6522 26.6667 22.0187 25.4583 22.7055 24.4305C23.3923 23.4027 24.3684 22.6016 25.5105 22.1286C26.6525 21.6556 27.9092 21.5318 29.1216 21.773C30.334 22.0142 31.4476 22.6094 32.3217 23.4835C33.4937 24.6556 34.1522 26.2453 34.1522 27.9029C34.1522 29.5604 33.4937 31.1501 32.3217 32.3222Z" fill="black"/>
<path d="M28.125 50C28.125 48.1458 27.5752 46.3332 26.545 44.7915C25.5149 43.2498 24.0507 42.0482 22.3377 41.3386C20.6246 40.6291 18.7396 40.4434 16.921 40.8051C15.1025 41.1669 13.432 42.0598 12.1209 43.3709C10.8098 44.682 9.91688 46.3525 9.55514 48.171C9.19341 49.9896 9.37906 51.8746 10.0886 53.5877C10.7982 55.3007 11.9998 56.7649 13.5415 57.795C15.0832 58.8252 16.8958 59.375 18.75 59.375C21.2356 59.3723 23.6185 58.3837 25.3761 56.6261C27.1337 54.8685 28.1223 52.4856 28.125 50ZM18.75 56.25C17.5139 56.25 16.3055 55.8834 15.2777 55.1967C14.2499 54.5099 13.4488 53.5338 12.9758 52.3918C12.5027 51.2497 12.3789 49.9931 12.6201 48.7807C12.8613 47.5683 13.4565 46.4547 14.3306 45.5806C15.2047 44.7065 16.3183 44.1113 17.5307 43.8701C18.7431 43.6289 19.9997 43.7527 21.1418 44.2258C22.2838 44.6988 23.2599 45.4999 23.9467 46.5277C24.6334 47.5555 25 48.7639 25 50C24.9981 51.657 24.3391 53.2457 23.1674 54.4174C21.9957 55.5891 20.407 56.2481 18.75 56.25Z" fill="black"/>
<path d="M35.6678 77.3523C36.4829 76.1473 37.0063 74.7691 37.1967 73.3268C37.3872 71.8845 37.2393 70.4177 36.7649 69.0424C36.2904 67.6672 35.5025 66.4212 34.4633 65.4031C33.4241 64.3849 32.1622 63.6226 30.7775 63.1765C29.3928 62.7303 27.9233 62.6125 26.4852 62.8325C25.0471 63.0524 23.6799 63.604 22.4919 64.4436C21.3038 65.2832 20.3274 66.3878 19.64 67.6699C18.9526 68.9521 18.573 70.3766 18.5312 71.8308L21.6551 71.9191C21.6829 70.9498 21.936 70.0002 22.3942 69.1455C22.8524 68.2908 23.5032 67.5545 24.2951 66.9948C25.087 66.4351 25.9983 66.0673 26.9569 65.9206C27.9155 65.7738 28.8951 65.8522 29.8181 66.1494C30.7412 66.4467 31.5825 66.9546 32.2753 67.6331C32.9682 68.3116 33.4937 69.142 33.8102 70.0586C34.1267 70.9753 34.2256 71.953 34.099 72.9145C33.9724 73.8759 33.6239 74.7947 33.0809 75.5982L35.6678 77.3523Z" fill="black"/>
<path d="M42.5 75.625L44.9986 77.502C45.6546 76.6274 46.5285 75.9401 47.5331 75.5086C48.5376 75.0772 49.6378 74.9167 50.7237 75.0432C51.8097 75.1697 52.8435 75.5787 53.722 76.2295C54.6005 76.8802 55.293 77.75 55.7305 78.752L58.5937 77.5C57.9375 75.9977 56.899 74.6936 55.5815 73.7179C54.2641 72.7421 52.7139 72.1288 51.0855 71.9391C49.4571 71.7494 47.8075 71.9899 46.301 72.6366C44.7946 73.2834 43.484 74.3138 42.5 75.625Z" fill="black"/>
<path d="M75.6674 77.2285L77.4572 79.7903C77.9107 79.4734 78.3356 79.1174 78.7268 78.7262C80.0379 77.4151 80.9308 75.7446 81.2925 73.926C81.6543 72.1075 81.4686 70.2225 80.759 68.5094C80.0495 66.7963 78.8479 65.3322 77.3061 64.302C75.7644 63.2719 73.9519 62.722 72.0977 62.722C70.2435 62.722 68.4309 63.2719 66.8892 64.302C65.3475 65.3322 64.1459 66.7963 63.4363 68.5094C62.7267 70.2225 62.5411 72.1075 62.9028 73.926C63.2645 75.7446 64.1574 77.4151 65.4686 78.7262C65.7023 78.9597 65.948 79.181 66.2047 79.3891L68.1719 76.961C67.9998 76.8214 67.8351 76.673 67.6783 76.5164C66.8042 75.6424 66.2089 74.5287 65.9678 73.3163C65.7266 72.1039 65.8504 70.8473 66.3234 69.7052C66.7964 68.5632 67.5975 67.587 68.6253 66.9003C69.6531 66.2135 70.8615 65.8469 72.0977 65.8469C73.3338 65.8469 74.5422 66.2135 75.57 66.9003C76.5978 67.587 77.3989 68.5632 77.8719 69.7052C78.345 70.8473 78.4687 72.1039 78.2276 73.3163C77.9864 74.5287 77.3911 75.6424 76.517 76.5164C76.2551 76.7782 75.9708 77.0164 75.6674 77.2285Z" fill="black"/>
<path d="M90.625 50C90.625 48.1458 90.0752 46.3332 89.045 44.7915C88.0149 43.2498 86.5507 42.0482 84.8377 41.3386C83.1246 40.6291 81.2396 40.4434 79.421 40.8051C77.6025 41.1669 75.932 42.0598 74.6209 43.3709C73.3098 44.682 72.4169 46.3525 72.0551 48.171C71.6934 49.9896 71.8791 51.8746 72.5886 53.5877C73.2982 55.3007 74.4998 56.7649 76.0415 57.795C77.5832 58.8252 79.3958 59.375 81.25 59.375C83.7356 59.3723 86.1185 58.3837 87.8761 56.6261C89.6337 54.8685 90.6223 52.4856 90.625 50ZM81.25 56.25C80.0139 56.25 78.8055 55.8834 77.7777 55.1967C76.7499 54.5099 75.9488 53.5338 75.4758 52.3918C75.0027 51.2497 74.8789 49.9931 75.1201 48.7807C75.3613 47.5683 75.9565 46.4547 76.8306 45.5806C77.7047 44.7065 78.8183 44.1113 80.0307 43.8701C81.2431 43.6289 82.4997 43.7527 83.6418 44.2258C84.7838 44.6988 85.7599 45.4999 86.4467 46.5277C87.1334 47.5555 87.5 48.7639 87.5 50C87.4981 51.657 86.8391 53.2457 85.6674 54.4174C84.4957 55.5891 82.907 56.2481 81.25 56.25Z" fill="black"/>
</svg>
