<svg width="100" height="100" viewBox="0 0 100 100" fill="none" xmlns="http://www.w3.org/2000/svg">
<path d="M51.082 75.333C51.082 88.0111 61.3598 98.2889 74.0379 98.2889C86.716 98.2889 96.9938 88.0111 96.9938 75.333C90.6328 68.9721 80.3201 68.9721 73.9592 75.333H74.1164C67.7559 68.9723 57.443 68.9723 51.082 75.333Z" fill="#F23466"/>
<path opacity="0.1" d="M93.4088 72.6252C92.9563 84.9047 82.8607 94.7211 70.4707 94.7211C65.0404 94.7211 60.0516 92.8346 56.1211 89.6824C60.3281 94.9287 66.7904 98.2887 74.0383 98.2887C86.7164 98.2887 96.9941 88.0109 96.9941 75.3328C95.9029 74.2416 94.6932 73.3422 93.4088 72.6252Z" fill="black"/>
<path d="M36.4314 45.9055C30.9697 49.3824 12.3512 62.9111 8.12187 88.0699C7.20136 93.5451 11.4516 98.5273 17.0035 98.5273H30.3254C34.532 98.5273 37.9424 95.117 37.9424 90.9103V46.7326C37.9424 45.9566 37.0859 45.4887 36.4314 45.9055Z" fill="#F9C5B5"/>
<path opacity="0.1" d="M36.5068 45.9055C35.9088 46.2861 35.1529 46.7875 34.2758 47.4111V89.0916C34.2758 92.2359 31.7266 94.7851 28.5822 94.7851H13.3369C11.8025 94.7851 10.3689 94.4031 9.11523 93.7371C10.6158 96.5586 13.5896 98.5271 17.0789 98.5271H30.4008C34.6074 98.5271 38.0178 95.1168 38.0178 90.9102V46.7324C38.0178 45.9566 37.1613 45.4887 36.5068 45.9055Z" fill="black"/>
<path d="M52.2488 23.8598C52.2488 23.8598 41.2256 39.6111 27.6275 39.6111C14.0295 39.6111 3.00586 23.8598 3.00586 23.8598C3.00586 23.8598 14.0291 8.1084 27.6271 8.1084C41.2252 8.1084 52.2488 23.8598 52.2488 23.8598Z" fill="#E3E3E3"/>
<path opacity="0.1" d="M27.6275 35.0541C17.2859 35.0541 8.43477 25.9447 4.78789 21.5812C3.63965 22.9551 3.00586 23.8598 3.00586 23.8598C3.00586 23.8598 14.0291 39.6111 27.6271 39.6111C41.2252 39.6111 52.2484 23.8598 52.2484 23.8598C52.2484 23.8598 51.6148 22.9553 50.4664 21.5812C46.8205 25.9447 37.9695 35.0541 27.6275 35.0541Z" fill="black"/>
<path d="M18.7565 28.0113C23.6557 32.9105 31.599 32.9105 36.4983 28.0113C41.3975 23.1121 41.3975 15.1688 36.4983 10.2695V10.2264C33.7459 8.94297 30.7549 8.1084 27.6272 8.1084C24.4994 8.1084 21.5088 8.94297 18.7563 10.2264V10.2695C13.8573 15.1689 13.8573 23.1121 18.7565 28.0113Z" fill="#3A9CB4"/>
<path d="M27.6272 23.8451C30.5483 23.8451 32.9164 21.477 32.9164 18.5559C32.9164 15.6347 30.5483 13.2666 27.6272 13.2666C24.706 13.2666 22.3379 15.6347 22.3379 18.5559C22.3379 21.477 24.706 23.8451 27.6272 23.8451Z" fill="#342E30"/>
<path d="M90.1306 14.5717C89.3355 14.5717 88.5404 14.2683 87.9337 13.6617C80.0234 5.75154 67.1521 5.75134 59.2415 13.6617C58.0281 14.8752 56.0611 14.875 54.8476 13.6617C53.6341 12.4482 53.6341 10.4812 54.8476 9.26775C65.1808 -1.06565 81.9943 -1.06565 92.3277 9.26775C93.5412 10.4812 93.5412 12.4482 92.3277 13.6617C91.7208 14.2683 90.9257 14.5717 90.1306 14.5717Z" fill="#342E30"/>
<path d="M53.9363 57.1898C53.9363 59.458 52.0977 61.2967 49.8295 61.2967C47.5613 61.2967 45.7227 59.458 45.7227 57.1898C45.7227 54.9217 49.8295 49.2482 49.8295 49.2482C49.8295 49.2482 53.9363 54.9217 53.9363 57.1898Z" fill="#65CDEF"/>
<path d="M73.9545 64.5672C73.9545 64.5672 58.2031 53.5439 58.2031 39.9459C58.2031 26.3478 73.9545 15.3246 73.9545 15.3246C73.9545 15.3246 89.7059 26.3478 89.7059 39.9459C89.7059 53.5439 73.9545 64.5672 73.9545 64.5672Z" fill="#E3E3E3"/>
<path opacity="0.1" d="M62.7602 39.9459C62.7602 29.6043 71.8695 20.7531 76.233 17.1063C74.8592 15.958 73.9545 15.3242 73.9545 15.3242C73.9545 15.3242 58.2031 26.3475 58.2031 39.9455C58.2031 53.5436 73.9545 64.567 73.9545 64.567C73.9545 64.567 74.859 63.9334 76.233 62.785C71.8695 59.1387 62.7602 50.2875 62.7602 39.9459Z" fill="black"/>
<path d="M69.8033 31.0752C64.9041 35.9744 64.9041 43.9178 69.8033 48.817C74.7025 53.7162 82.6459 53.7162 87.5451 48.817H87.5883C88.8717 46.0646 89.7062 43.0736 89.7062 39.9459C89.7062 36.8182 88.8717 33.8275 87.5883 31.075H87.5451C82.6459 26.1756 74.7027 26.1756 69.8033 31.0752Z" fill="#3A9CB4"/>
<path d="M79.258 45.2346C82.1792 45.2346 84.5473 42.8665 84.5473 39.9453C84.5473 37.0241 82.1792 34.6561 79.258 34.6561C76.3368 34.6561 73.9688 37.0241 73.9688 39.9453C73.9688 42.8665 76.3368 45.2346 79.258 45.2346Z" fill="#342E30"/>
<path d="M98.0353 74.2918C94.6809 70.9373 90.2207 69.0897 85.4766 69.0897C81.2426 69.0897 77.235 70.5611 74.0375 73.2623C67.0668 67.3861 56.6035 67.7293 50.0408 74.2918C49.7645 74.568 49.6094 74.9426 49.6094 75.3332C49.6094 88.8031 60.5682 99.7619 74.0381 99.7619C87.508 99.7619 98.4668 88.8031 98.4668 75.3332C98.4666 74.9426 98.3115 74.5678 98.0353 74.2918ZM72.6143 75.9326C72.8506 76.4627 73.377 76.8059 73.9596 76.8059H74.1168C74.6996 76.8059 75.2262 76.4623 75.4623 75.9322C78.2016 73.4145 81.7332 72.0354 85.4768 72.0354C88.8477 72.0354 92.0447 73.1568 94.6482 75.2176C82.9824 85.918 64.9883 85.9608 53.2734 75.3428C58.9234 70.7568 67.1893 70.9514 72.6143 75.9326ZM74.0379 96.816C63.3875 96.816 54.524 89.0258 52.8432 78.8442C58.9707 83.7602 66.4312 86.2201 73.8928 86.2201C81.4904 86.2201 89.0869 83.6701 95.2764 78.5734C93.7098 88.8873 84.7826 96.816 74.0379 96.816Z" fill="black"/>
<path d="M38.6956 43.7291C38.2493 43.4636 37.6958 43.4529 37.2396 43.7008C36.9778 43.8429 30.7517 47.2654 23.8419 54.4152C17.4634 61.0152 9.30714 72.1654 6.67296 87.8064C6.16183 90.8416 7.01007 93.932 9.0007 96.2859C10.9968 98.6463 13.9138 100 17.0038 100H30.3257C35.3378 100 39.4155 95.9224 39.4155 90.9101V44.9949C39.4157 44.4756 39.1421 43.9947 38.6956 43.7291ZM36.47 90.9101C36.47 94.298 33.7138 97.0543 30.3259 97.0543H17.004C14.7823 97.0543 12.6851 96.0808 11.2499 94.3838C9.82023 92.6933 9.21085 90.4744 9.57804 88.2959C12.0796 73.4431 19.8275 62.8279 25.8868 56.5384C30.0991 52.166 34.1056 49.2144 36.47 47.6418V90.9101Z" fill="black"/>
<path d="M23.5664 87.4123C19.8012 87.4123 16.002 88.5318 16.002 91.0332C16.002 91.8467 16.6613 92.506 17.4748 92.506C18.1965 92.506 18.7971 91.9869 18.923 91.3017C19.3592 90.9467 21.0369 90.3582 23.5664 90.3582C26.0959 90.3582 27.7734 90.9467 28.2098 91.3017C28.3361 91.9869 28.9363 92.506 29.658 92.506C30.4715 92.506 31.1309 91.8467 31.1309 91.0332C31.1309 88.5318 27.3314 87.4123 23.5664 87.4123Z" fill="black"/>
<path d="M27.6273 41.084C41.8289 41.084 52.9873 25.373 53.4552 24.7043C53.8101 24.1973 53.8101 23.5223 53.4552 23.0152C53.0933 22.498 46.3373 12.9867 36.7255 8.70059L39.2777 3.21875C39.621 2.48145 39.3015 1.60527 38.564 1.26211C37.8269 0.91875 36.9507 1.23828 36.6074 1.97578L33.9664 7.64922C32.6179 7.22422 31.2244 6.91699 29.7943 6.75859V1.47285C29.7943 0.659375 29.1349 0 28.3214 0C27.508 0 26.8486 0.659375 26.8486 1.47285V6.65293C25.3654 6.7127 23.9173 6.93926 22.5136 7.29883L20.0353 1.97559C19.6919 1.23809 18.816 0.91875 18.0787 1.26191C17.3414 1.60508 17.0218 2.48125 17.365 3.21855L19.6908 8.21445C9.46558 12.2148 2.17573 22.4773 1.79937 23.0152C1.44448 23.5223 1.44448 24.1973 1.79937 24.7043C2.26733 25.3732 13.4257 41.084 27.6273 41.084ZM38.6998 19.1404C38.6998 22.098 37.548 24.8785 35.4568 26.9699C33.3656 29.0611 30.5849 30.2131 27.6271 30.2131C24.6693 30.2131 21.889 29.0613 19.7976 26.9699C15.5142 22.6865 15.4832 15.7393 19.6996 11.4143C22.1851 10.2963 24.8568 9.58144 27.6271 9.58144C30.3986 9.58144 33.0732 10.2998 35.5626 11.4225C37.5855 13.5006 38.6998 16.2342 38.6998 19.1404ZM14.3822 14.5348C13.8753 15.9965 13.6091 17.5479 13.6091 19.1404C13.6091 22.8848 15.0673 26.4051 17.715 29.0527C20.3626 31.7006 23.883 33.1586 27.6273 33.1586C31.3716 33.1586 34.8921 31.7004 37.5396 29.0527C40.1875 26.4051 41.6455 22.885 41.6455 19.1404C41.6455 17.5514 41.3802 16.0037 40.8757 14.5449C45.5562 17.9275 49.0398 22.0998 50.408 23.86C47.9312 27.0463 38.5244 38.1385 27.6277 38.1385C16.7292 38.1385 7.32143 27.0434 4.84663 23.8592C6.21284 22.0973 9.69604 17.9189 14.3822 14.5348Z" fill="black"/>
<path d="M20.8652 18.5559C20.8652 22.2846 23.8986 25.318 27.6273 25.318C31.3561 25.318 34.3895 22.2846 34.3895 18.5559C34.3895 14.8272 31.3561 11.7938 27.6273 11.7938C23.8986 11.7938 20.8652 14.8272 20.8652 18.5559ZM31.4438 18.5559C31.4438 20.6602 29.7316 22.3723 27.6273 22.3723C25.523 22.3723 23.8109 20.6602 23.8109 18.5559C23.8109 16.4516 25.523 14.7395 27.6273 14.7395C29.7318 14.7395 31.4438 16.4514 31.4438 18.5559Z" fill="black"/>
<path d="M72.4961 39.9459C72.4961 43.6746 75.5295 46.708 79.2582 46.708C82.9869 46.708 86.0203 43.6746 86.0203 39.9459C86.0203 36.2172 82.9869 33.1838 79.2582 33.1838C75.5295 33.1838 72.4961 36.2172 72.4961 39.9459ZM79.2582 36.1295C81.3625 36.1295 83.0746 37.8416 83.0746 39.9459C83.0746 42.0502 81.3625 43.7623 79.2582 43.7623C77.1539 43.7623 75.4418 42.0502 75.4418 39.9459C75.4418 37.8416 77.1539 36.1295 79.2582 36.1295Z" fill="black"/>
<path d="M89.5998 32.0094C85.5994 21.7842 75.3369 14.4944 74.7992 14.118C74.2922 13.7629 73.6172 13.7629 73.1102 14.118C72.4412 14.586 56.7305 25.7444 56.7305 39.9461C56.7305 54.1479 72.4414 65.3063 73.1102 65.7742C73.3637 65.9518 73.6592 66.0403 73.9545 66.0403C74.2498 66.0403 74.5453 65.9516 74.7988 65.7742C75.316 65.4123 84.8273 58.6563 89.1133 49.0446L94.5957 51.5967C94.7969 51.6905 95.0082 51.7348 95.2162 51.7348C95.7711 51.7348 96.3027 51.4196 96.5523 50.883C96.8957 50.1457 96.5762 49.2696 95.8387 48.9264L90.165 46.2854C90.59 44.9369 90.8973 43.5432 91.0557 42.1133H96.3412C97.1547 42.1133 97.8141 41.4539 97.8141 40.6405C97.8141 39.827 97.1547 39.1676 96.3412 39.1676H91.1611C91.1014 37.6844 90.8748 36.2364 90.5152 34.8326L95.8385 32.3545C96.5758 32.0112 96.8953 31.1352 96.5521 30.3979C96.2088 29.6606 95.3328 29.3412 94.5955 29.6842L89.5998 32.0094ZM88.233 39.9459C88.233 42.7174 87.5145 45.392 86.392 47.8815C84.3137 49.9043 81.5799 51.0186 78.6736 51.0186C75.716 51.0186 72.9355 49.8668 70.8441 47.7756C68.7529 45.6844 67.601 42.9037 67.601 39.9461C67.601 36.9885 68.7527 34.208 70.8441 32.1166C72.9355 30.0254 75.716 28.8737 78.6736 28.8737C81.5836 28.8737 84.3205 29.9907 86.4 32.0184C87.518 34.5039 88.233 37.1756 88.233 39.9459ZM73.9537 62.727C70.7674 60.2551 59.676 50.8635 59.676 39.9459C59.676 29.0475 70.7713 19.6397 73.9555 17.1649C75.7172 18.5317 79.8955 22.0149 83.2797 26.7012C81.818 26.1942 80.2666 25.9278 78.6738 25.9278C74.9295 25.9278 71.4092 27.386 68.7615 30.0336C66.1137 32.6813 64.6557 36.2014 64.6557 39.9459C64.6557 43.6905 66.1139 47.2106 68.7615 49.8582C71.4092 52.5061 74.9295 53.9641 78.6738 53.9641C80.2629 53.9641 81.8105 53.6991 83.2693 53.1944C79.8863 57.8754 75.7135 61.3592 73.9537 62.727Z" fill="black"/>
<path d="M17.3654 79.8422C17.5283 79.9 17.6943 79.9273 17.858 79.9273C18.464 79.9273 19.032 79.5506 19.2461 78.9467C19.2947 78.8095 24.2211 65.1642 33.7558 58.9773C34.4383 58.5347 34.6324 57.6224 34.1896 56.94C33.7469 56.2576 32.8346 56.0636 32.1523 56.5062C21.7883 63.2312 16.6822 77.3633 16.4699 77.9617C16.198 78.7281 16.5988 79.5701 17.3654 79.8422Z" fill="black"/>
<path d="M60.2811 14.7031C67.6172 7.36719 79.5543 7.36719 86.8902 14.7031C87.7553 15.5682 88.9055 16.0445 90.1287 16.0445C91.352 16.0445 92.5021 15.5682 93.3672 14.7031C95.1529 12.9174 95.1529 10.0121 93.3672 8.22637C88.0914 2.95039 81.0662 0.0449219 73.5857 0.0449219C66.1053 0.0449219 59.0801 2.95039 53.8043 8.22637C52.9393 9.09141 52.4629 10.2414 52.4629 11.4648C52.4629 12.6883 52.9393 13.8383 53.8043 14.7033C55.5902 16.4889 58.4957 16.4885 60.2811 14.7031ZM55.8873 10.3092C60.6066 5.58965 66.8922 2.99063 73.5859 2.99063C80.2797 2.99063 86.565 5.58965 91.2846 10.3092C91.5934 10.618 91.7633 11.0283 91.7633 11.4646C91.7633 11.9012 91.5932 12.3117 91.2846 12.6201C90.9758 12.9287 90.5654 13.0988 90.1291 13.0988C89.6928 13.0988 89.282 12.9287 88.9736 12.6201C84.7313 8.37773 79.1588 6.25684 73.5861 6.25684C68.0135 6.25684 62.4408 8.37793 58.1984 12.6201C57.5613 13.2572 56.5248 13.2572 55.8875 12.6201C55.5787 12.3113 55.4088 11.901 55.4088 11.4646C55.4086 11.0283 55.5785 10.6178 55.8873 10.3092Z" fill="black"/>
<path d="M55.4094 57.1898C55.4094 54.6426 52.0518 49.8063 51.0227 48.3846C50.7457 48.002 50.302 47.7754 49.8297 47.7754C49.3574 47.7754 48.9137 48.002 48.6367 48.3846C47.6076 49.8063 44.25 54.6426 44.25 57.1898C44.25 60.2664 46.7531 62.7695 49.8297 62.7695C52.9063 62.7695 55.4094 60.2666 55.4094 57.1898ZM47.1957 57.1898C47.1957 56.3248 48.4154 54.0316 49.8289 51.8557C51.2459 54.0434 52.4637 56.3496 52.4637 57.1898C52.4637 58.6422 51.282 59.8238 49.8297 59.8238C48.3773 59.8238 47.1957 58.6424 47.1957 57.1898Z" fill="black"/>
</svg>
