<svg width="100" height="100" viewBox="0 0 100 100" fill="none" xmlns="http://www.w3.org/2000/svg">
<path fill-rule="evenodd" clip-rule="evenodd" d="M55.7773 47.4467L59.9049 54.5959L66.173 65.4525C66.9441 66.7881 66.9441 68.3168 66.173 69.6523C65.402 70.9879 64.0779 71.7523 62.5359 71.7523H49.9998H37.4635C35.9213 71.7523 34.5975 70.9879 33.8264 69.6523C33.0553 68.3168 33.0553 66.7881 33.8264 65.4525L40.0945 54.5959L44.2223 47.4465C44.6078 46.7787 44.785 46.1176 44.785 45.3465V30.7588H55.2147V45.3467C55.2147 46.118 55.3918 46.7789 55.7773 47.4467Z" fill="#E4E8EB"/>
<path fill-rule="evenodd" clip-rule="evenodd" d="M44.4799 28.2477H55.5211C56.4674 28.2477 57.2393 29.0196 57.2393 29.966V31.694C57.2393 32.6403 56.4674 33.4121 55.5211 33.4121H44.4799C43.5336 33.4121 42.7617 32.6403 42.7617 31.694V29.966C42.7617 29.0196 43.5336 28.2477 44.4799 28.2477Z" fill="#CAD0D7"/>
<path d="M50.5182 59.1832C50.7969 57.4643 49.6293 55.845 47.9104 55.5664C46.1916 55.2877 44.5722 56.4553 44.2936 58.1742C44.0149 59.8931 45.1825 61.5124 46.9014 61.791C48.6203 62.0697 50.2396 60.9021 50.5182 59.1832Z" fill="#F76C82"/>
<path fill-rule="evenodd" clip-rule="evenodd" d="M48.1836 62.3289C48.1836 64.4136 49.8736 66.1037 51.9584 66.1037C54.0432 66.1037 55.7332 64.4136 55.7332 62.3289C55.7332 60.2441 54.0432 58.5541 51.9584 58.5541C49.8736 58.5539 48.1836 60.2439 48.1836 62.3289Z" fill="#66D4F1"/>
<path d="M13.4518 37.812C15.3419 37.5057 16.6257 35.725 16.3193 33.835C16.0129 31.9449 14.2323 30.661 12.3422 30.9674C10.4521 31.2738 9.16831 33.0544 9.4747 34.9445C9.7811 36.8346 11.5617 38.1184 13.4518 37.812Z" fill="#FDCD56"/>
<path fill-rule="evenodd" clip-rule="evenodd" d="M13.5006 26.808L22.0896 21.8492C22.4684 21.6307 22.6852 21.2551 22.6852 20.8178V10.9C22.6852 10.4627 22.4684 10.0871 22.0896 9.86858L13.5006 4.90979C13.1219 4.69104 12.6883 4.69104 12.3096 4.90979L3.72051 9.86838C3.3418 10.0871 3.125 10.4625 3.125 10.9V20.8178C3.125 21.2551 3.3418 21.6307 3.72051 21.8492L12.3096 26.808C12.6883 27.0266 13.1219 27.0266 13.5006 26.808Z" fill="#66D4F1"/>
<path fill-rule="evenodd" clip-rule="evenodd" d="M25.9514 4.85944C24.994 6.51783 25.5622 8.63834 27.2206 9.59596C28.879 10.5536 30.9995 9.98522 31.9571 8.32682C32.9145 6.66842 32.3463 4.54772 30.6879 3.5903C29.0293 2.63268 26.9088 3.20104 25.9514 4.85944Z" fill="#FDCD56"/>
<path fill-rule="evenodd" clip-rule="evenodd" d="M84.092 58.078C85.0495 59.7364 87.1702 60.3045 88.8286 59.3471C90.487 58.3897 91.0551 56.269 90.0977 54.6106C89.1403 52.9522 87.0196 52.384 85.3612 53.3414C83.7028 54.2989 83.1346 56.4196 84.092 58.078Z" fill="#FDCD56"/>
<path fill-rule="evenodd" clip-rule="evenodd" d="M87.0943 96.8751C89.0041 96.8751 90.5617 95.3175 90.5617 93.4077C90.5617 91.4979 89.0041 89.9403 87.0943 89.9403C85.1846 89.9403 83.627 91.4979 83.627 93.4077C83.627 95.3175 85.1846 96.8751 87.0943 96.8751Z" fill="#FDCD56"/>
<path fill-rule="evenodd" clip-rule="evenodd" d="M68.0432 85.8754C69.0006 87.5338 71.1213 88.102 72.7797 87.1446C74.4381 86.1872 75.0063 84.0665 74.0489 82.4081C73.0915 80.7497 70.9707 80.1815 69.3123 81.1389C67.654 82.0965 67.0858 84.217 68.0432 85.8754Z" fill="#FDCD56"/>
<path fill-rule="evenodd" clip-rule="evenodd" d="M87.69 85.8252L96.2791 80.8664C96.6578 80.6479 96.8746 80.2723 96.8746 79.835V69.9172C96.8746 69.4799 96.6578 69.1043 96.2791 68.8858L87.69 63.927C87.3113 63.7084 86.8777 63.7084 86.499 63.927L77.91 68.8858C77.5313 69.1043 77.3145 69.4799 77.3145 69.9172V79.835C77.3145 80.2723 77.5313 80.6479 77.91 80.8664L86.499 85.8252C86.8777 86.0438 87.3113 86.0438 87.69 85.8252Z" fill="#F76C82"/>
<path fill-rule="evenodd" clip-rule="evenodd" d="M51.9672 64.7358C50.6348 64.7358 49.5504 63.6561 49.5504 62.3282C49.5504 61.0022 50.6348 59.9215 51.9672 59.9215C53.2904 59.9215 54.3748 61.0022 54.3748 62.3282C54.3748 63.6559 53.2904 64.7358 51.9672 64.7358ZM45.6359 58.6856C45.6359 57.7006 46.4353 56.8983 47.4279 56.8983C48.1906 56.8983 48.843 57.3844 49.1004 58.0625C48.2367 58.6424 47.5658 59.475 47.1799 60.4508C46.3066 60.3323 45.6359 59.5862 45.6359 58.6856ZM51.9672 57.187C51.8752 57.187 51.7834 57.1897 51.6916 57.1934C51.076 55.4319 49.3943 54.1637 47.4277 54.1637C44.9283 54.1637 42.9066 56.1936 42.9066 58.6856C42.9066 60.9975 44.6525 62.9081 46.8947 63.1735C47.299 65.6069 49.4125 67.4704 51.9672 67.4704C54.7975 67.4704 57.1039 65.1639 57.1039 62.3282C57.1039 59.4942 54.7975 57.187 51.9672 57.187ZM61.5332 45.6682C61.4412 45.3182 61.4873 44.945 61.6711 44.6307C61.8549 44.3165 62.149 44.0875 62.498 43.994L67.9289 42.5413C68.6549 42.3456 69.3992 42.7774 69.6014 43.5079C69.7943 44.2366 69.3625 44.9864 68.6273 45.1813L66.3943 45.7813L78.2666 52.6309C78.9189 53.0094 79.1396 53.8458 78.7629 54.4999C78.5146 54.9374 78.0553 55.1834 77.5775 55.1834C77.3478 55.1834 77.1088 55.1247 76.8975 54.9997L65.0342 48.1483L65.6314 50.3823C65.8244 51.1127 65.3926 51.8627 64.6574 52.0584C63.9314 52.2514 63.1779 51.8206 62.985 51.0918L61.5332 45.6682ZM32.0818 51.5999C31.9715 51.6311 31.8521 51.6457 31.7326 51.6457C31.1262 51.6457 30.5748 51.2442 30.4094 50.6323C30.2164 49.9043 30.6484 49.1547 31.3742 48.9588L33.6072 48.3588L21.7441 41.5075C21.0918 41.1307 20.8711 40.2946 21.2479 39.6403C21.6246 38.986 22.4607 38.7637 23.1133 39.1405L34.9766 45.9918L34.3793 43.7561C34.1863 43.0274 34.6184 42.2776 35.3441 42.0819C36.0793 41.8872 36.8236 42.3208 37.0258 43.0487L38.4777 48.4729C38.6707 49.2008 38.2387 49.9504 37.5129 50.1463L32.0818 51.5999ZM95.5146 79.7325L87.0975 84.5899L78.6895 79.7325V70.0196L87.0975 65.1622L95.5146 70.0196V79.7325ZM89.2016 93.4077C89.2016 94.5665 88.2551 95.5075 87.0973 95.5075C85.9395 95.5075 85.0022 94.5665 85.0022 93.4077C85.0022 92.2499 85.9395 91.3071 87.0973 91.3071C88.2551 91.3071 89.2016 92.2499 89.2016 93.4077ZM71.0531 86.242C69.8953 86.242 68.9488 85.2983 68.9488 84.1424C68.9488 82.9846 69.8953 82.0409 71.0531 82.0409C72.2109 82.0409 73.1482 82.9846 73.1482 84.1424C73.1482 85.2983 72.2109 86.242 71.0531 86.242ZM85.0022 56.3432C85.0022 55.1854 85.9395 54.2434 87.0973 54.2434C88.2551 54.2434 89.2016 55.1854 89.2016 56.3432C89.2016 57.502 88.2551 58.4448 87.0973 58.4448C85.9395 58.4448 85.0022 57.502 85.0022 56.3432ZM97.5637 68.0448L88.4664 62.7922V60.9801C90.4697 60.3883 91.9307 58.5348 91.9307 56.3432C91.9307 53.6774 89.7619 51.5098 87.0971 51.5098C84.4322 51.5098 82.2637 53.6776 82.2637 56.3432C82.2637 58.5348 83.734 60.3883 85.7371 60.9801V62.7922L76.6307 68.0448C76.2172 68.2891 75.9506 68.7405 75.9506 69.2284V79.7325L74.3793 80.6403C73.5154 79.8161 72.3393 79.3069 71.0529 79.3069C68.3881 79.3069 66.2193 81.4764 66.2193 84.1422C66.2193 86.8061 68.3881 88.9766 71.0529 88.9766C73.7178 88.9766 75.8863 86.8061 75.8863 84.1422C75.8863 83.7518 75.8404 83.3713 75.7484 83.0075L77.3197 82.1014L85.7369 86.9588V88.7719C83.7336 89.3637 82.2635 91.2163 82.2635 93.4079C82.2635 96.0747 84.432 98.2422 87.0969 98.2422C89.7617 98.2422 91.9305 96.0745 91.9305 93.4079C91.9305 91.2163 90.4693 89.3637 88.4662 88.7719V86.9588L97.5635 81.7073C97.9861 81.4629 98.2436 81.0116 98.2436 80.5237V69.2284C98.2438 68.7405 97.9865 68.2891 97.5637 68.0448ZM12.9043 36.4901C11.7465 36.4901 10.8092 35.5483 10.8092 34.3905C10.8092 33.2327 11.7465 32.2907 12.9043 32.2907C14.0713 32.2907 15.0086 33.2327 15.0086 34.3905C15.0086 35.5483 14.0713 36.4901 12.9043 36.4901ZM4.49609 11.0022L12.9041 6.14478L21.3213 11.0022V20.717L12.9041 25.5717L4.49609 20.717V11.0022ZM28.9576 4.49165C30.1154 4.49165 31.0619 5.4354 31.0619 6.59321C31.0619 7.752 30.1154 8.69302 28.9576 8.69302C27.7998 8.69302 26.8533 7.752 26.8533 6.59321C26.8533 5.4354 27.7998 4.49165 28.9576 4.49165ZM14.2734 29.7536V27.9415L23.3707 22.6889C23.7934 22.4454 24.06 21.9942 24.06 21.5053V11.0022L25.6312 10.0934C26.4951 10.9194 27.6713 11.4278 28.9576 11.4278C31.6225 11.4278 33.7912 9.25903 33.7912 6.59341C33.7912 3.92759 31.6225 1.75806 28.9576 1.75806C26.2928 1.75806 24.1242 3.92759 24.1242 6.59341C24.1242 6.98403 24.1701 7.36352 24.2619 7.72642L22.6906 8.63247L13.5934 3.38267C13.1707 3.13638 12.6469 3.13638 12.2242 3.38267L2.44707 9.02935C2.02441 9.2729 1.75781 9.72407 1.75781 10.2129V21.5055C1.75781 21.9944 2.02441 22.4456 2.44707 22.6891L11.5443 27.9417V29.7538C9.54102 30.3456 8.0709 32.1991 8.0709 34.3907C8.0709 37.0563 10.2486 39.2241 12.9045 39.2241C15.5785 39.2241 17.7471 37.0563 17.7471 34.3907C17.7469 32.1989 16.2766 30.3454 14.2734 29.7536ZM64.9975 68.9719C65.5121 68.0879 65.5121 67.0276 64.9975 66.1372L54.5953 48.1311C54.0898 47.2499 53.851 46.3649 53.851 45.3477V34.7793H46.1598V45.3477C46.1598 46.3649 45.9209 47.2481 45.4062 48.1311L35.0133 66.1372C34.4986 67.0276 34.4986 68.0879 35.0133 68.9719C35.5186 69.8569 36.4375 70.3844 37.4668 70.3844H62.5439C63.5732 70.3842 64.492 69.8569 64.9975 68.9719ZM44.1289 29.9668C44.1289 29.7756 44.2943 29.6149 44.4873 29.6149H55.5234C55.7164 29.6149 55.8727 29.7756 55.8727 29.9668V31.6934C55.8727 31.8846 55.7164 32.0444 55.5234 32.0444H44.4873C44.2943 32.0444 44.1289 31.8844 44.1289 31.6934V29.9668ZM67.3682 70.3393C68.3697 68.5979 68.3697 66.5157 67.359 64.7698L56.966 46.7637C56.6996 46.3024 56.5893 45.8788 56.5893 45.3477V34.5879C57.7654 34.1524 58.6109 33.0211 58.6109 31.6934V29.9668C58.6109 28.2631 57.2232 26.8811 55.5234 26.8811H44.4873C42.7781 26.8811 41.3998 28.2631 41.3998 29.9668V31.6934C41.3998 33.0211 42.2453 34.1524 43.4215 34.5879V45.3475C43.4215 45.8786 43.3111 46.3022 43.0447 46.7635L32.6426 64.7696C31.641 66.5155 31.641 68.5977 32.6426 70.3391C33.6441 72.0795 35.4545 73.1188 37.4668 73.1188H62.5439C64.5564 73.119 66.3574 72.0797 67.3682 70.3393Z" fill="black"/>
</svg>
