<svg width="100" height="100" viewBox="0 0 100 100" fill="none" xmlns="http://www.w3.org/2000/svg">
<g clip-path="url(#clip0_419_1148)">
<path d="M88.5684 11.4336H11.4336V88.5684H88.5684V11.4336Z" fill="#57A4FF"/>
<path d="M68.2773 35.627H39.5332V64.3711H68.2773V35.627Z" fill="#78B9EB"/>
<path d="M86.0352 27.6699H79.4922V34.2129H86.0352V27.6699Z" fill="#78B9EB"/>
<path d="M86.0352 38.6719H79.4922V45.2148H86.0352V38.6719Z" fill="#78B9EB"/>
<path d="M64.3711 35.627H35.627V64.3711H64.3711V35.627Z" fill="#FFB655"/>
<path d="M98.5352 16.5684H88.5664V21.9068H98.5352V16.5684Z" fill="#FFE477"/>
<path d="M98.5352 28.873H88.5664V34.2115H98.5352V28.873Z" fill="#FFE477"/>
<path d="M98.5352 41.1777H88.5664V46.5162H98.5352V41.1777Z" fill="#FFE477"/>
<path d="M98.5352 53.4824H88.5664V58.8209H98.5352V53.4824Z" fill="#FFE477"/>
<path d="M98.5352 65.7871H88.5664V71.1256H98.5352V65.7871Z" fill="#FFE477"/>
<path d="M98.5352 78.0918H88.5664V83.4303H98.5352V78.0918Z" fill="#FFE477"/>
<path d="M11.4336 16.5684H1.46484V21.9068H11.4336V16.5684Z" fill="#FFE477"/>
<path d="M11.4336 28.873H1.46484V34.2115H11.4336V28.873Z" fill="#FFE477"/>
<path d="M11.4336 41.1777H1.46484V46.5162H11.4336V41.1777Z" fill="#FFE477"/>
<path d="M11.4336 53.4824H1.46484V58.8209H11.4336V53.4824Z" fill="#FFE477"/>
<path d="M11.4336 65.7871H1.46484V71.1256H11.4336V65.7871Z" fill="#FFE477"/>
<path d="M11.4336 78.0918H1.46484V83.4303H11.4336V78.0918Z" fill="#FFE477"/>
<path d="M83.4303 88.5664H78.0918V98.5352H83.4303V88.5664Z" fill="#FFD422"/>
<path d="M71.1256 88.5664H65.7871V98.5352H71.1256V88.5664Z" fill="#FFD422"/>
<path d="M58.8209 88.5664H53.4824V98.5352H58.8209V88.5664Z" fill="#FFD422"/>
<path d="M46.5162 88.5664H41.1777V98.5352H46.5162V88.5664Z" fill="#FFD422"/>
<path d="M34.2115 88.5664H28.873V98.5352H34.2115V88.5664Z" fill="#FFD422"/>
<path d="M21.9068 88.5664H16.5684V98.5352H21.9068V88.5664Z" fill="#FFD422"/>
<path d="M83.4303 1.46484H78.0918V11.4336H83.4303V1.46484Z" fill="#FFD422"/>
<path d="M71.1256 1.46484H65.7871V11.4336H71.1256V1.46484Z" fill="#FFD422"/>
<path d="M58.8209 1.46484H53.4824V11.4336H58.8209V1.46484Z" fill="#FFD422"/>
<path d="M46.5162 1.46484H41.1777V11.4336H46.5162V1.46484Z" fill="#FFD422"/>
<path d="M34.2115 1.46484H28.873V11.4336H34.2115V1.46484Z" fill="#FFD422"/>
<path d="M21.9068 1.46484H16.5684V11.4336H21.9068V1.46484Z" fill="#FFD422"/>
<path d="M82.1289 27.6699H75.5859V34.2129H82.1289V27.6699Z" fill="#FF3F62"/>
<path d="M82.1289 38.6719H75.5859V45.2148H82.1289V38.6719Z" fill="#FF3F62"/>
<path d="M98.5352 16.5684H88.5664V21.9068H98.5352V16.5684Z" fill="#FFE477"/>
<path d="M98.5352 28.873H88.5664V34.2115H98.5352V28.873Z" fill="#FFE477"/>
<path d="M98.5352 41.1777H88.5664V46.5162H98.5352V41.1777Z" fill="#FFE477"/>
<path d="M98.5352 53.4824H88.5664V58.8209H98.5352V53.4824Z" fill="#FFE477"/>
<path d="M98.5352 65.7871H88.5664V71.1256H98.5352V65.7871Z" fill="#FFE477"/>
<path d="M98.5352 78.0918H88.5664V83.4303H98.5352V78.0918Z" fill="#FFE477"/>
<path d="M83.4303 88.5664H78.0918V98.5352H83.4303V88.5664Z" fill="#FFD422"/>
<path d="M71.1256 88.5664H65.7871V98.5352H71.1256V88.5664Z" fill="#FFD422"/>
<path d="M58.8209 88.5664H53.4824V98.5352H58.8209V88.5664Z" fill="#FFD422"/>
<path d="M46.5162 88.5664H41.1777V98.5352H46.5162V88.5664Z" fill="#FFD422"/>
<path d="M34.2115 88.5664H28.873V98.5352H34.2115V88.5664Z" fill="#FFD422"/>
<path d="M21.9068 88.5664H16.5684V98.5352H21.9068V88.5664Z" fill="#FFD422"/>
<path d="M83.4303 1.46484H78.0918V11.4336H83.4303V1.46484Z" fill="#FFD422"/>
<path d="M71.1256 1.46484H65.7871V11.4336H71.1256V1.46484Z" fill="#FFD422"/>
<path d="M58.8209 1.46484H53.4824V11.4336H58.8209V1.46484Z" fill="#FFD422"/>
<path d="M46.5162 1.46484H41.1777V11.4336H46.5162V1.46484Z" fill="#FFD422"/>
<path d="M34.2115 1.46484H28.873V11.4336H34.2115V1.46484Z" fill="#FFD422"/>
<path d="M21.9068 1.46484H16.5684V11.4336H21.9068V1.46484Z" fill="#FFD422"/>
<path d="M23.1523 11.4336H11.4336V88.5684H23.1523V11.4336Z" fill="#006DF0"/>
<path d="M39.5332 35.627H35.627V64.3711H39.5332V35.627Z" fill="#FF9811"/>
<path d="M5.37109 41.1777H1.46484V46.5162H5.37109V41.1777Z" fill="#FFD422"/>
<path d="M5.37109 28.873H1.46484V34.2115H5.37109V28.873Z" fill="#FFD422"/>
<path d="M5.37109 16.5684H1.46484V21.9068H5.37109V16.5684Z" fill="#FFD422"/>
<path d="M5.37109 78.0918H1.46484V83.4303H5.37109V78.0918Z" fill="#FFD422"/>
<path d="M5.37109 53.4824H1.46484V58.8209H5.37109V53.4824Z" fill="#FFD422"/>
<path d="M5.37109 65.7871H1.46484V71.1256H5.37109V65.7871Z" fill="#FFD422"/>
<path d="M92.4688 41.1777H88.5625V46.5162H92.4688V41.1777Z" fill="#FFD422"/>
<path d="M92.4688 28.873H88.5625V34.2115H92.4688V28.873Z" fill="#FFD422"/>
<path d="M92.4688 16.5684H88.5625V21.9068H92.4688V16.5684Z" fill="#FFD422"/>
<path d="M92.4688 78.0918H88.5625V83.4303H92.4688V78.0918Z" fill="#FFD422"/>
<path d="M92.4688 53.4824H88.5625V58.8209H92.4688V53.4824Z" fill="#FFD422"/>
<path d="M92.4688 65.7871H88.5625V71.1256H92.4688V65.7871Z" fill="#FFD422"/>
<path d="M79.4922 27.6699H75.5859V34.2129H79.4922V27.6699Z" fill="#C70024"/>
<path d="M79.4922 38.6719H75.5859V45.2148H79.4922V38.6719Z" fill="#C70024"/>
<path d="M82.2109 79.2969H79.2812V82.2266H82.2109V79.2969Z" fill="black"/>
<path d="M77.3281 79.2969H74.3984V82.2266H77.3281V79.2969Z" fill="black"/>
<path d="M67.5625 79.2969H64.6328V82.2266H67.5625V79.2969Z" fill="black"/>
<path d="M72.4453 79.2969H69.5156V82.2266H72.4453V79.2969Z" fill="black"/>
<path d="M82.2109 74.252H79.2812V77.1816H82.2109V74.252Z" fill="black"/>
<path d="M77.3281 74.252H74.3984V77.1816H77.3281V74.252Z" fill="black"/>
<path d="M67.5625 74.252H64.6328V77.1816H67.5625V74.252Z" fill="black"/>
<path d="M72.4453 74.252H69.5156V77.1816H72.4453V74.252Z" fill="black"/>
<path d="M47.4609 39.0625H44.5312V41.9922H47.4609V39.0625Z" fill="black"/>
<path d="M52.3438 39.0625H49.4141V41.9922H52.3438V39.0625Z" fill="black"/>
<path d="M42.5781 39.0625H39.6484V41.9922H42.5781V39.0625Z" fill="black"/>
<path d="M100 23.3725V15.1041H90.0312V9.96875H84.8959V0H76.6275V9.96875H72.5912V0H64.3229V9.96875H60.2865V0H52.0182V9.96875H47.9816V0H39.7135V9.97832L35.677 9.97695V0H27.4088V9.97441L23.3723 9.97305V0H15.1041V9.97031L9.96875 9.96875V15.1041H0V23.3725H9.96875V27.4088H0V35.6772H9.96875V39.7135H0V47.9818H9.96875V52.0182H0V60.2865H9.96875V64.3229H0V72.5912H9.96875V76.6275H0V84.8959H9.96875V90.0215L15.1041 90.0221V100H23.3723V90.023L27.4088 90.0234V100H35.677V90.0246L39.7135 90.025V100H47.9816V90.0262L52.0182 90.0266V100H60.2865V90.0275L64.3229 90.0279V100H72.5912V90.0291L76.6275 90.0295V100H84.8959V90.0307L90.0312 90.0312V84.8959H100V76.6275H90.0312V76.123L87.1016 76.1133V87.1016H12.8965V12.8963H87.1016V73.1934L90.0312 73.2031V72.5912H100V64.3229H90.0312V60.2865H100V52.0182H90.0312V47.9818H100V39.7135H90.0312V35.6772H100V27.4088H90.0312V23.3725H100ZM90.032 18.0338H97.0703V20.4428H90.032V18.0338ZM79.5572 2.92969H81.9662V9.96797H79.5572V2.92969ZM67.2525 2.92969H69.6615V9.96797H67.2525V2.92969ZM54.9479 2.92969H57.3568V9.96797H54.9479V2.92969ZM30.3385 2.92969H32.7473V9.96797H30.3385V2.92969ZM18.0338 2.92969H20.4426V9.96797H18.0338V2.92969ZM9.96797 20.4428H2.92969V18.0338H9.96797V20.4428ZM9.96797 32.7475H2.92969V30.3385H9.96797V32.7475ZM9.96797 45.0522H2.92969V42.6432H9.96797V45.0522ZM9.96797 69.6615H2.92969V67.2525H9.96797V69.6615ZM9.96797 81.9662H2.92969V79.5572H9.96797V81.9662ZM20.4428 97.0703H18.0338V90.032H20.4426L20.4428 97.0703ZM32.7475 97.0703H30.3387V90.032H32.7475V97.0703ZM45.0522 97.0703H42.6434V90.032H45.0522V97.0703ZM57.3568 97.0703H54.9479V90.032H57.3568V97.0703ZM69.6615 97.0703H67.2525V90.032H69.6615V97.0703ZM81.9662 97.0703H79.5572V90.032H81.9662V97.0703ZM90.032 79.5572H97.0703V81.9662H90.032V79.5572ZM9.96797 57.3568H2.92969V54.9479H9.96797V57.3568ZM42.6432 2.92969H45.052V9.96797H42.6432V2.92969ZM90.032 67.2525H97.0703V69.6615H90.032V67.2525ZM90.032 54.9479H97.0703V57.3568H90.032V54.9479ZM90.032 42.6432H97.0703V45.0522H90.032V42.6432ZM90.032 30.3385H97.0703V32.7475H90.032V30.3385Z" fill="black"/>
<path d="M69.3457 40.1367V37.207H65.8373V34.1627H62.793V30.6641L59.8633 30.6543V34.1627H57.1289V30.6641L54.1992 30.6543V34.1627H51.4648V30.6641L48.5352 30.6543V34.1627H45.8008V30.6641L42.8711 30.6543V34.1627H40.1367V30.6641L37.207 30.6543V34.1627H34.1627V37.207H30.6641L30.6543 40.127L34.1627 40.1338V42.8711H30.6641L30.6543 45.791L34.1627 45.7979V48.5352H30.6641L30.6543 51.4551L34.1627 51.4619V54.1992H30.6641L30.6543 57.1191L34.1627 57.126V59.8633H30.6641L30.6543 62.7832L34.1627 62.79V65.8373H37.207V69.3359L40.1367 69.3457V65.8373H42.8711V69.3359L45.8008 69.3457V65.8373H48.5352V69.3359L51.4648 69.3457V65.8373H54.1992V69.3359L57.1289 69.3457V65.8373H59.8633V69.3359L62.793 69.3457V65.8373H65.8373V62.7861L69.3457 62.793V59.8633H65.8373V57.1221L69.3457 57.1289V54.1992H65.8373V51.458L69.3457 51.4648V48.5352H65.8373V45.7939L69.3457 45.8008V42.8711H65.8373V40.1299L69.3457 40.1367ZM62.9076 62.9076H37.0924V37.0924H62.9076V62.9076Z" fill="black"/>
<path d="M60.2871 50.7969H57.3574V59H60.2871V50.7969Z" fill="white"/>
<path d="M60.2871 41.0312H57.3574V43.9609H60.2871V41.0312Z" fill="white"/>
<path d="M60.2871 45.9141H57.3574V48.8438H60.2871V45.9141Z" fill="white"/>
<path d="M39.8984 60.4549L46.5273 60.4648V57.5352H39.9082L39.8984 60.4549Z" fill="black"/>
<path d="M54.0703 17.7734H51.1406V20.7031H54.0703V17.7734Z" fill="white"/>
<path d="M49.1875 17.7734H46.2578V20.7031H49.1875V17.7734Z" fill="white"/>
<path d="M82.4883 17.7734H56.0234V20.7031H82.4883V17.7734Z" fill="white"/>
<path d="M28.7207 42.8711H22.6562V30.0781H15.2012L15.1914 33.0078H19.7266V45.791L28.7207 45.8008V42.8711Z" fill="black"/>
<path d="M28.7207 37.2168L27.2461 37.207V17.7734H15.2012L15.1914 20.7031H24.3164V40.127L28.7207 40.1367V37.2168Z" fill="black"/>
<path d="M16.959 48.5352V54.6875H15.2012L15.1914 57.6172H19.8887V51.4648H28.7109L28.7207 48.5449L16.959 48.5352Z" fill="black"/>
<path d="M28.7207 54.209L20.8984 54.1992V66.9922H15.2012L15.1914 69.9121L23.8281 69.9219V57.1289H28.7109L28.7207 54.209Z" fill="black"/>
<path d="M15.2012 79.2969V82.2266H27.7012V62.793H28.7104V59.8633H24.7715V79.2969H15.2012Z" fill="black"/>
<path d="M47.3314 79.2969H36.2637V82.2266H47.3314V79.2969Z" fill="white"/>
<path d="M57.0957 79.2969H54.166V82.2266H57.0957V79.2969Z" fill="white"/>
<path d="M52.2129 79.2969H49.2832V82.2266H52.2129V79.2969Z" fill="white"/>
<path d="M83.5938 26.2045H74.1211V35.6771H83.5938V26.2045ZM80.6641 32.7474H77.0508V29.1342H80.6641V32.7474Z" fill="black"/>
<path d="M83.5938 37.207H74.1211V46.6797H83.5938V37.207ZM80.6641 43.75H77.0508V40.1367H80.6641V43.75Z" fill="black"/>
<path d="M82.2266 54.3125L79.2969 54.3025V66.6171L82.2266 66.6269V54.3125Z" fill="black"/>
</g>
<defs>
<clipPath id="clip0_419_1148">
<rect width="100" height="100" fill="white"/>
</clipPath>
</defs>
</svg>
