<svg width="100" height="100" viewBox="0 0 100 100" fill="none" xmlns="http://www.w3.org/2000/svg">
<g clip-path="url(#clip0_561_303)">
<path d="M83.521 79.6402C83.521 83.9824 85.0735 87.9219 87.5911 90.8057H26.2385C25.6106 90.8057 25.0182 90.5069 24.6543 89.9952C23.6221 88.5438 21.7246 85.1295 21.7246 79.6402C21.7246 74.1508 23.6221 70.7365 24.6543 69.2851C25.0182 68.7734 25.6108 68.4746 26.2385 68.4746H87.5911C85.0737 71.3586 83.521 75.2979 83.521 79.6402Z" fill="#FB3A82"/>
<path d="M40.4417 68.475L23.1406 87.2155C22.3848 85.3971 21.7246 82.8814 21.7246 79.6411C21.7246 74.1508 23.6211 70.7367 24.6543 69.2855C25.0176 68.7738 25.6094 68.475 26.2383 68.475H40.4417Z" fill="#FB1466"/>
<path d="M90.2729 79.6402C90.2729 83.9824 91.8255 87.9219 94.3431 90.8057H32.0569C32.0569 90.8057 28.4766 87.1805 28.4766 79.6402C28.4766 72.0998 32.0569 68.4746 32.0569 68.4746H94.3431C91.8257 71.3586 90.2729 75.2979 90.2729 79.6402Z" fill="#E0D3CE"/>
<path d="M40.4414 68.475L28.5391 81.3675C28.498 80.8168 28.4746 80.2406 28.4746 79.641C28.4746 72.1 32.0547 68.475 32.0547 68.475H40.4414Z" fill="#CDBFBB"/>
<path d="M90.271 79.6409C90.271 83.9836 91.8236 87.9217 94.3414 90.8059H86.961C84.4434 87.9217 82.8906 83.9836 82.8906 79.6409C82.8906 75.2983 84.4432 71.3574 86.961 68.476H94.3414C91.8236 71.3576 90.271 75.2985 90.271 79.6409Z" fill="#CDBFBB"/>
<path d="M98.5341 66.3909C98.5341 67.2855 98.1709 68.096 97.5849 68.682C96.999 69.2679 96.1884 69.6312 95.2939 69.6312H33.3692C31.5801 69.6312 30.1289 68.18 30.1289 66.3909C30.1289 65.4964 30.4922 64.6839 31.0781 64.0979C31.6641 63.512 32.4746 63.1487 33.3692 63.1487H95.2939C97.0829 63.1487 98.5341 64.5999 98.5341 66.3909Z" fill="#FB3A82"/>
<path d="M45.3576 63.1487L39.3751 69.6312H33.3692C31.5801 69.6312 30.1289 68.18 30.1289 66.3909C30.1289 65.4964 30.4922 64.6839 31.0781 64.0979C31.6641 63.512 32.4746 63.1487 33.3692 63.1487H45.3576Z" fill="#FB1466"/>
<path d="M98.5365 66.3895C98.5365 67.2845 98.1727 68.0958 97.5877 68.6808C97 69.2684 96.1887 69.6323 95.2937 69.6323H89.0078C89.9027 69.6323 90.7141 69.2684 91.299 68.6808C91.884 68.0958 92.2478 67.2845 92.2478 66.3895C92.2478 64.5997 90.7977 63.1495 89.0078 63.1495H95.2937C97.0836 63.1495 98.5365 64.5997 98.5365 66.3895Z" fill="#FB1466"/>
<path d="M95.2944 96.131H33.37C31.5799 96.131 30.1289 94.68 30.1289 92.89C30.1289 91.0999 31.5799 89.6489 33.37 89.6489H95.2944C97.0845 89.6489 98.5355 91.0999 98.5355 92.89C98.5355 94.6798 97.0843 96.131 95.2944 96.131Z" fill="#FB3A82"/>
<path d="M98.5365 92.8897C98.5365 93.7846 98.1727 94.596 97.5877 95.1809C97 95.7659 96.1887 96.1298 95.2937 96.1298H89.0078C89.9027 96.1298 90.7141 95.7659 91.299 95.1809C91.884 94.596 92.2478 93.7846 92.2478 92.8897C92.2478 91.0999 90.7977 89.6497 89.0078 89.6497H95.2937C97.0836 89.6497 98.5365 91.0999 98.5365 92.8897Z" fill="#FB1466"/>
<path d="M44.13 58.7207L38.8977 53.4884L3.27928 86.3692C0.92554 88.542 0.851711 92.2366 3.11678 94.5017C5.38185 96.7668 9.07643 96.6929 11.2493 94.3392L44.13 58.7207Z" fill="#873F30"/>
<path d="M11.0923 94.5036C8.90225 96.6937 5.32817 96.7123 3.11779 94.5019C2.46388 93.848 2.00586 93.0757 1.74219 92.2544C3.69573 92.8897 5.92467 92.4251 7.4657 90.8839C7.51981 90.8298 7.57391 90.7723 7.62625 90.7167L40.5078 55.0976L44.1309 58.7207L11.2495 94.3396C11.1972 94.3954 11.1447 94.4511 11.0923 94.5036Z" fill="#6C3328"/>
<path d="M49.2828 41.0908L37.2344 55.4629L42.1563 60.3846L56.5282 48.3362L49.2828 41.0908Z" fill="#873F30"/>
<path d="M49.2816 41.0908L45.3884 45.7348L46.5565 46.903C47.4163 47.7628 47.4163 49.1569 46.5565 50.0167L39.1719 57.4014L42.1551 60.3844L56.527 48.336L49.2816 41.0908Z" fill="#6C3328"/>
<path d="M39.0598 63.3357L34.282 58.5579C32.9008 57.1767 32.9008 54.9372 34.282 53.556C35.6633 52.1747 37.9027 52.1747 39.284 53.556L44.0617 58.3337C45.443 59.715 45.443 61.9544 44.0617 63.3357C42.6805 64.7169 40.441 64.7169 39.0598 63.3357Z" fill="#BA5D4F"/>
<path d="M44.0605 63.3355C43.3693 64.0267 42.4637 64.3715 41.5613 64.3715C40.6557 64.3715 39.7498 64.0267 39.0588 63.3355L35.4375 59.7142C36.1287 60.4054 37.0344 60.7502 37.9385 60.7484C38.8426 60.7502 39.7482 60.4054 40.4395 59.7142C41.8217 58.332 41.8201 56.0929 40.4395 54.7123L44.0607 58.3336C45.4428 59.716 45.4428 61.9533 44.0605 63.3355Z" fill="#A34F41"/>
<path d="M55.5254 8.24249L66.134 18.8511L49.4789 35.5061L38.8703 24.8975L55.5254 8.24249Z" fill="#BA5D4F"/>
<path d="M72.7168 58.7581L62.1082 48.1495L78.7632 31.4945L89.3718 42.1031L72.7168 58.7581Z" fill="#A34F41"/>
<path d="M35.8854 28.5535L35.5169 28.1849C34.1194 26.7875 34.1194 24.522 35.5169 23.1245L53.7468 4.89458C55.1443 3.4971 57.4097 3.4971 58.8072 4.89458L59.1758 5.26314C60.5733 6.66062 60.5733 8.92608 59.1758 10.3236L40.9458 28.5535C39.5486 29.9508 37.2829 29.9508 35.8854 28.5535Z" fill="#873F30"/>
<path d="M69.0655 61.7329L69.4341 62.1014C70.8316 63.4989 73.097 63.4989 74.4945 62.1014L92.7245 43.8715C94.1219 42.474 94.1219 40.2086 92.7245 38.8111L92.3559 38.4425C90.9584 37.045 88.693 37.045 87.2955 38.4425L69.0655 56.6725C67.6683 58.0697 67.6683 60.3354 69.0655 61.7329Z" fill="#6C3328"/>
<path d="M70.7383 14.954L82.6517 26.8674L57.4976 52.0215L45.5842 40.1081L70.7383 14.954Z" fill="#FCC16D"/>
<path d="M51.4609 46.0056L76.615 20.8515L82.6448 26.8812L57.4907 52.0353L51.4609 46.0056Z" fill="#FCA62F"/>
<path d="M70.7968 14.4527L67.878 13.2595C66.8774 12.8505 65.7292 13.0816 64.9647 13.8461L44.4697 34.3411C43.7054 35.1053 43.4742 36.2538 43.8832 37.2544L45.0764 40.1732C45.5602 41.3568 47.0934 41.6654 47.9975 40.7613L71.3849 17.374C72.289 16.4699 71.9802 14.9367 70.7968 14.4527Z" fill="#873F30"/>
<path d="M83.1651 26.8228L84.3583 29.7416C84.7673 30.7422 84.5363 31.8905 83.7718 32.6549L63.2768 53.1499C62.5125 53.9142 61.3641 54.1455 60.3635 53.7365L57.4447 52.5433C56.2611 52.0595 55.9525 50.5263 56.8566 49.6222L80.2438 26.2349C81.1481 25.3308 82.6812 25.6394 83.1651 26.8228Z" fill="#6C3328"/>
<path d="M95.2944 88.1838H94.2047C93.7186 87.4291 93.2924 86.6232 92.9428 85.7787C92.6332 85.031 91.7764 84.6761 91.0289 84.9855C90.2814 85.2951 89.9263 86.1519 90.2357 86.8994C90.4168 87.3369 90.6193 87.7637 90.8326 88.1838H33.3699C32.9273 88.1838 32.4996 88.2465 32.0931 88.3613C31.1773 86.8086 29.9402 83.9212 29.9402 79.6401C29.9402 79.0014 29.9685 78.3717 30.0236 77.7547H58.0894C58.8986 77.7547 59.5542 77.0989 59.5542 76.2899C59.5542 75.4809 58.8986 74.825 58.0894 74.825H31.2574L34.6994 71.0964H90.825C90.2222 72.2797 89.7498 73.5285 89.4148 74.825H70.1599C69.3507 74.825 68.695 75.4809 68.695 76.2899C68.695 77.0989 69.3507 77.7547 70.1599 77.7547H88.9021C88.8447 78.3501 88.8115 78.951 88.8089 79.5573C88.8054 80.3663 89.4586 81.0249 90.2678 81.0284H90.274C91.0801 81.0284 91.7352 80.3766 91.7387 79.5698C91.7516 76.4938 92.6041 73.5711 94.202 71.0964H95.2946C97.8893 71.0964 100.001 68.9853 100.001 66.3905C100.001 63.7958 97.8893 61.6846 95.2946 61.6846H76.9828L93.76 44.9072C94.7127 43.9547 95.2372 42.6882 95.2372 41.3412C95.2372 39.9941 94.7125 38.7276 93.7602 37.7755L93.3914 37.4065C92.4389 36.4542 91.1724 35.9294 89.8254 35.9294C88.5968 35.9294 87.4361 36.3671 86.5187 37.1665L83.9257 34.5735L84.8085 33.6907C85.9935 32.5059 86.3495 30.7381 85.7153 29.1871L84.5222 26.2683C84.1106 25.2616 83.2302 24.5317 82.1655 24.3128L80.1282 22.2755C79.5559 21.7034 78.6285 21.7034 78.0564 22.2755C77.4844 22.8475 77.4844 23.7751 78.0564 24.347L79.0588 25.3493L55.9726 48.4354L49.1832 41.6462L72.2697 18.56L73.1683 19.4586C73.4542 19.7448 73.8292 19.8877 74.2041 19.8877C74.5789 19.8877 74.9539 19.7448 75.24 19.4586C75.8121 18.8865 75.8121 17.959 75.2398 17.3871L73.3062 15.4535C73.0872 14.3888 72.3574 13.5083 71.3507 13.0966C71.3505 13.0966 71.3505 13.0966 71.3505 13.0966L68.4319 11.9034C66.8815 11.2696 65.1133 11.6251 63.9283 12.8101L63.0455 13.6929L60.4521 11.0999C61.2515 10.1825 61.689 9.02176 61.689 7.79323C61.689 6.44614 61.1644 5.17972 60.2121 4.22756L59.8433 3.85861C58.8908 2.90625 57.6243 2.38144 56.2772 2.38144C54.9302 2.38144 53.6637 2.90606 52.7112 3.85861L34.4814 22.0884C33.5289 23.0409 33.0043 24.3073 33.0043 25.6544C33.0043 27.0015 33.5289 28.2679 34.4814 29.2203L34.8498 29.5888C35.8024 30.5414 37.0688 31.066 38.4159 31.066C39.6446 31.066 40.8052 30.6283 41.7228 29.8289L44.3159 32.4223L43.4329 33.3053C42.2481 34.4901 41.8923 36.2579 42.5263 37.8087L43.7195 40.7273C44.1267 41.7234 44.9931 42.4478 46.0427 42.675L38.6977 51.4366C36.8848 50.6883 34.718 51.0491 33.247 52.5202C32.3023 53.465 31.782 54.721 31.782 56.057C31.782 56.655 31.8871 57.2367 32.0869 57.7818L28.7558 60.8568C28.1614 61.4057 28.1243 62.3323 28.6732 62.9268C28.9618 63.2397 29.3552 63.3981 29.7499 63.3981C30.1052 63.3981 30.4615 63.2696 30.7431 63.0096L33.8213 60.1682L37.4502 63.7971L10.1731 93.3454C9.39516 94.188 8.33518 94.6647 7.18849 94.6878C6.04003 94.7099 4.96365 94.2768 4.1527 93.4657C3.34175 92.6545 2.90776 91.5766 2.93062 90.4299C2.95347 89.2832 3.43023 88.2232 4.27302 87.4453L25.6694 67.6935C26.2638 67.1446 26.3009 66.2179 25.752 65.6235C25.2036 65.0292 24.2768 64.9919 23.6821 65.5409L2.28568 85.2927C0.85168 86.6166 0.0405367 88.4201 0.00147365 90.3713C-0.0375894 92.3225 0.701093 94.1573 2.08099 95.5372C3.42633 96.8827 5.20369 97.6183 7.10001 97.6183C7.14884 97.6183 7.19786 97.6179 7.24689 97.6169C9.19808 97.5779 11.0018 96.7667 12.3255 95.3327L21.1049 85.8222C21.8207 88.2764 22.8307 89.9594 23.46 90.8442C24.0952 91.7374 25.1337 92.2706 26.238 92.2706H28.7058C28.679 92.4733 28.6638 92.6797 28.6638 92.8897C28.6638 95.4845 30.7749 97.5956 33.3697 97.5956H95.2944C97.8891 97.5956 100 95.4845 100 92.8897C100 90.2949 97.8891 88.1838 95.2944 88.1838ZM97.0704 66.3905C97.0704 67.3698 96.2737 68.1667 95.2942 68.1667H37.4039L39.8389 65.529C40.394 65.7317 40.9778 65.8343 41.5618 65.8343C42.7308 65.8343 43.8991 65.4266 44.8357 64.6143H95.2944C96.2737 64.6143 97.0704 65.4112 97.0704 66.3905ZM52.878 49.4846L44.396 56.5955L41.0235 53.2231L48.1344 44.741L52.878 49.4846ZM46.4877 61.6846C46.6459 60.7598 46.5445 59.799 46.1822 58.9209L54.9436 51.5759C55.171 52.6253 55.8954 53.4919 56.8913 53.8991L59.8101 55.0923C60.3205 55.3009 60.8543 55.4023 61.3832 55.4023C62.4613 55.4023 63.5188 54.9804 64.3135 54.1857L65.1965 53.3026L67.7897 55.8958C66.3704 57.5275 66.176 59.8604 67.2067 61.6844H46.4877V61.6846ZM89.8256 38.8593C90.3902 38.8593 90.9207 39.0792 91.3197 39.478L91.6885 39.847C92.0877 40.246 92.3074 40.7769 92.3074 41.3412C92.3074 41.9056 92.0877 42.4363 91.6883 42.8355L73.4583 61.0654C73.0593 61.4645 72.5284 61.6844 71.9642 61.6844C71.3999 61.6844 70.869 61.4647 70.47 61.0654L70.1015 60.6969C69.2774 59.8729 69.2774 58.5322 70.1015 57.7082L88.3314 39.4782C88.7302 39.079 89.2611 38.8593 89.8256 38.8593ZM84.4374 39.2286L69.8517 53.8144L67.2682 51.2311L81.854 36.6452L84.4374 39.2286ZM57.8935 50.6579L81.2807 27.2706C81.3549 27.1964 81.4358 27.1749 81.5045 27.1749C81.5297 27.1749 81.5532 27.1779 81.5739 27.182C81.6514 27.1976 81.7557 27.2441 81.81 27.3773L83.0032 30.2961C83.1895 30.7517 83.085 31.2709 82.7368 31.6189L62.2418 52.1143C61.8941 52.4622 61.3746 52.5669 60.9189 52.3806L58.0003 51.1874C57.8671 51.1331 57.8206 51.029 57.805 50.9512C57.7894 50.8735 57.7919 50.7594 57.8935 50.6579ZM38.4163 28.1367C37.8518 28.1367 37.3211 27.9169 36.9221 27.5177L36.5535 27.1492C36.1543 26.7501 35.9346 26.2195 35.9346 25.655C35.9346 25.0903 36.1543 24.5599 36.5535 24.1606L54.7835 5.93071C55.1825 5.53148 55.7134 5.31175 56.2776 5.31175C56.8423 5.31175 57.3728 5.53168 57.7718 5.93051L58.1406 6.29946C58.5398 6.69849 58.7595 7.22936 58.7595 7.79382C58.7595 8.35828 58.5398 8.88895 58.1404 9.28817L39.9106 27.5181C39.5114 27.9168 38.9807 28.1367 38.4163 28.1367ZM43.8042 27.7673L58.3902 13.1814L60.9736 15.7648L46.3877 30.3508L43.8042 27.7673ZM45.5046 35.3768L65.9998 14.8816C66.2332 14.6482 66.5438 14.5242 66.8606 14.5242C67.0161 14.5242 67.1729 14.5541 67.3229 14.6154L70.2415 15.8086C70.3745 15.8629 70.421 15.967 70.4366 16.0447C70.4522 16.1224 70.4495 16.2363 70.3479 16.3379L46.9609 39.7251C46.8593 39.8267 46.7455 39.8292 46.6675 39.8138C46.59 39.7982 46.4859 39.7517 46.4316 39.6185L45.2382 36.6997C45.0521 36.2442 45.1566 35.7251 45.5046 35.3768ZM34.7119 56.057C34.7119 55.5037 34.9275 54.9831 35.3188 54.5919C36.1268 53.7841 37.4411 53.7841 38.2491 54.5919L43.0267 59.3695C43.8347 60.1775 43.8347 61.492 43.0267 62.2998C42.2187 63.1077 40.9042 63.1077 40.0964 62.2998L35.319 57.5222C34.9275 57.1308 34.7119 56.6105 34.7119 56.057ZM25.8477 89.1461C25.1977 88.2322 24.05 86.2662 23.5016 83.2263L27.013 79.4227C27.0124 79.4952 27.0106 79.5675 27.0106 79.6401C27.0106 84.157 28.2362 87.3974 29.2827 89.3408H26.2384C26.0803 89.3408 25.9344 89.2682 25.8477 89.1461ZM95.2944 94.6659H33.3699C32.3906 94.6659 31.5937 93.869 31.5937 92.8897C31.5937 91.9102 32.3906 91.1135 33.3699 91.1135H95.2944C96.2739 91.1135 97.0706 91.9104 97.0706 92.8897C97.0704 93.8692 96.2737 94.6659 95.2944 94.6659Z" fill="black"/>
<path d="M40.9824 81.4789C40.1734 81.4789 39.5176 82.1347 39.5176 82.9437C39.5176 83.7527 40.1734 84.4086 40.9824 84.4086H75.1093C75.9185 84.4086 76.5741 83.7527 76.5741 82.9437C76.5741 82.1347 75.9185 81.4789 75.1093 81.4789H40.9824Z" fill="black"/>
</g>
<defs>
<clipPath id="clip0_561_303">
<rect width="100" height="100" fill="white"/>
</clipPath>
</defs>
</svg>
