<svg width="100" height="100" viewBox="0 0 100 100" fill="none" xmlns="http://www.w3.org/2000/svg">
<path d="M42.1875 52.8664V42.03C42.1875 40.2166 41.6616 38.4421 40.6734 36.9215C39.6852 35.4009 38.2772 34.1996 36.62 33.4631L29.9808 30.5123C29.4284 30.2668 28.9591 29.8664 28.6297 29.3595C28.3003 28.8526 28.125 28.2611 28.125 27.6567V25L29.9379 22.2806C30.7935 20.9973 31.25 19.4894 31.25 17.9471V12.5C31.25 10.428 30.4269 8.44086 28.9618 6.97573C27.4966 5.5106 25.5095 4.6875 23.4375 4.6875C21.3655 4.6875 19.3784 5.5106 17.9132 6.97573C16.4481 8.44086 15.625 10.428 15.625 12.5V17.9471C15.625 19.4894 16.0815 20.9973 16.9371 22.2806L18.75 25V27.6566C18.75 28.2611 18.5747 28.8526 18.2453 29.3595C17.9159 29.8664 17.4466 30.2668 16.8942 30.5123L10.255 33.4631C8.59779 34.1996 7.18981 35.4009 6.20163 36.9215C5.21345 38.4421 4.68749 40.2166 4.6875 42.03V60.9375H34.1164C35.697 57.3285 38.5785 54.447 42.1875 52.8664Z" fill="#12A08B"/>
<path d="M42.1875 52.8664V42.0275C42.1869 39.8371 41.4189 37.7161 40.017 36.0331C37.416 43.3213 32.6247 49.6267 26.2998 54.0852C19.9749 58.5438 12.4259 60.9372 4.6875 60.9375H34.1164C35.697 57.3285 38.5785 54.447 42.1875 52.8664Z" fill="#0F8876"/>
<path d="M89.745 33.4631L83.1058 30.5123C82.5534 30.2668 82.0841 29.8664 81.7547 29.3595C81.4253 28.8526 81.25 28.2611 81.25 27.6567V25L83.0629 22.2806C83.9185 20.9973 84.375 19.4894 84.375 17.9471V12.5C84.375 10.428 83.5519 8.44086 82.0868 6.97573C80.6216 5.5106 78.6345 4.6875 76.5625 4.6875C74.4905 4.6875 72.5034 5.5106 71.0382 6.97573C69.5731 8.44086 68.75 10.428 68.75 12.5V17.9471C68.75 19.4894 69.2065 20.9973 70.0621 22.2806L71.875 25V27.6566C71.875 28.2611 71.6997 28.8526 71.3703 29.3595C71.0409 29.8664 70.5716 30.2668 70.0192 30.5123L63.38 33.4631C61.7228 34.1996 60.3148 35.4009 59.3266 36.9215C58.3384 38.4421 57.8125 40.2166 57.8125 42.03V54.6873C59.9721 56.3098 61.6759 58.4628 62.7586 60.9375H95.3125V42.03C95.3125 40.2166 94.7865 38.4421 93.7984 36.9215C92.8102 35.4009 91.4022 34.1996 89.745 33.4631Z" fill="#12A08B"/>
<path d="M85.9375 42.1875H89.0625V60.9375H85.9375V42.1875Z" fill="#25BFA5"/>
<path d="M62.6191 60.6319C62.6662 60.7335 62.7137 60.8348 62.7587 60.9375H95.3125V42.03C95.3125 39.8387 94.5445 37.7168 93.1421 36.0331C90.8149 42.5476 86.7328 48.2923 81.3466 52.6332C75.9603 56.974 69.4794 59.7421 62.6191 60.6319Z" fill="#0F8876"/>
<path d="M85.9375 48.2379V60.9375H89.0625V44.1683C88.1146 45.5943 87.0705 46.954 85.9375 48.2379Z" fill="#1FA38C"/>
<path d="M63.1825 33.4631L56.5433 30.5123C55.9909 30.2668 55.5216 29.8664 55.1922 29.3595C54.8628 28.8526 54.6875 28.2611 54.6875 27.6567V25L56.5004 22.2806C57.356 20.9973 57.8125 19.4894 57.8125 17.9471V12.5C57.8125 10.428 56.9894 8.44086 55.5243 6.97573C54.0591 5.5106 52.072 4.6875 50 4.6875C47.928 4.6875 45.9409 5.5106 44.4757 6.97573C43.0106 8.44086 42.1875 10.428 42.1875 12.5V17.9471C42.1875 19.4894 42.644 20.9973 43.4996 22.2806L45.3125 25V27.6566C45.3125 28.2611 45.1372 28.8526 44.8078 29.3595C44.4784 29.8664 44.0091 30.2668 43.4567 30.5123L36.8175 33.4631C35.1603 34.1996 33.7523 35.4009 32.7641 36.9215C31.7759 38.4421 31.25 40.2166 31.25 42.03V60.9375H34.1164C35.3326 58.151 37.3353 55.7799 39.8791 54.1147C42.4229 52.4495 45.3972 51.5625 48.4375 51.5625C51.4778 51.5625 54.4521 52.4495 56.9959 54.1147C59.5397 55.7799 61.5424 58.151 62.7586 60.9375H68.75V42.03C68.75 40.2166 68.224 38.4421 67.2359 36.9215C66.2477 35.4009 64.8397 34.1996 63.1825 33.4631Z" fill="#25BFA5"/>
<path d="M54.5625 52.8105C58.2285 54.379 61.1594 57.285 62.7592 60.9375H68.7506V42.03C68.7506 39.8387 67.9826 37.7168 66.5801 36.0331C64.2186 42.6375 60.0557 48.4492 54.5625 52.8105Z" fill="#21AC94"/>
<path d="M10.9375 42.1875H14.0625V60.9375H10.9375V42.1875Z" fill="#25BFA5"/>
<path d="M76.5625 70.884V63.4911L69.4993 61.7975C68.5105 59.4113 68.1333 58.501 67.1445 56.1149L70.9538 49.8985C68.1286 47.0732 68.5519 47.4965 65.7267 44.6712L59.5101 48.4806C57.124 47.4918 56.2137 47.1146 53.8276 46.1257L52.134 39.0625H44.741L43.0475 46.1257C40.6613 47.1145 39.751 47.4917 37.3649 48.4805L31.1485 44.6712C28.3232 47.4964 28.7465 47.0731 25.9212 49.8983L29.7306 56.1149C28.7418 58.501 28.3646 59.4113 27.3757 61.7974L20.3125 63.491V70.8839L27.3757 72.5775C28.3645 74.9637 28.7417 75.874 29.7305 78.2601L25.9212 84.4765C28.7464 87.3018 28.3231 86.8785 31.1483 89.7038L37.3649 85.8945C39.751 86.8832 40.6613 87.2604 43.0474 88.2493L44.741 95.3125H52.1339L53.8275 88.2493C56.2137 87.2605 57.124 86.8833 59.5101 85.8945L65.7265 89.7038C68.5518 86.8786 68.1285 87.3019 70.9538 84.4767L67.1445 78.2601C68.1332 75.874 68.5104 74.9637 69.4993 72.5776L76.5625 70.884ZM48.4373 82.8125C45.347 82.8125 42.326 81.8961 39.7565 80.1792C37.187 78.4623 35.1843 76.022 34.0017 73.1669C32.8191 70.3118 32.5096 67.1702 33.1125 64.1392C33.7154 61.1083 35.2036 58.3242 37.3888 56.139C39.574 53.9538 42.3581 52.4656 45.389 51.8627C48.42 51.2598 51.5616 51.5693 54.4167 52.7519C57.2718 53.9345 59.7121 55.9372 61.429 58.5067C63.1459 61.0762 64.0623 64.0972 64.0623 67.1875C64.0623 71.3315 62.4161 75.3058 59.4858 78.236C56.5556 81.1663 52.5813 82.8125 48.4373 82.8125Z" fill="#846FC1"/>
<path d="M45.3125 64.0625V57.8125H51.5625V64.0625H57.8125V70.3125H51.5625V76.5625H45.3125V70.3125H39.0625V64.0625H45.3125Z" fill="#F7AC52"/>
<path d="M5.42609 70.7972C4.90708 69.2047 4.47406 67.5855 4.12891 65.9466L7.18715 65.3034C7.50891 66.8322 7.91277 68.3425 8.39698 69.8278L5.42609 70.7972Z" fill="#CECEF2"/>
<path d="M8.9401 78.8805C8.07291 77.3097 7.29668 75.6903 6.61523 74.0305L9.50639 72.8445C10.1422 74.3931 10.8664 75.904 11.6756 77.3695L8.9401 78.8805Z" fill="#CECEF2"/>
<path d="M28.9866 98.1619C21.6641 94.4773 15.4299 88.9455 10.9004 82.1133L13.5051 80.3867C17.7336 86.7651 23.5534 91.9295 30.3893 95.3695L28.9866 98.1619Z" fill="#CECEF2"/>
<path d="M71.014 98.1619L69.6113 95.3695C71.3245 94.5083 72.9793 93.5356 74.5651 92.4578L76.322 95.0422C74.6227 96.197 72.8496 97.2391 71.014 98.1619Z" fill="#CECEF2"/>
<path d="M80.541 91.8099L78.5039 89.4402C80.1277 88.0435 81.6477 86.5305 83.052 84.9133L85.4121 86.9618C83.9081 88.6938 82.2801 90.3141 80.541 91.8099Z" fill="#CECEF2"/>
<path d="M87.9795 83.7295L85.4492 81.8954C89.0489 76.9474 91.5584 71.2924 92.8123 65.3034L95.8706 65.9466C94.5268 72.3654 91.8373 78.4263 87.9795 83.7295Z" fill="#CECEF2"/>
<path d="M43.541 90.3066L44.7413 95.3125H52.1342L53.8278 88.2493C56.214 87.2605 57.1243 86.8833 59.5104 85.8945L65.7268 89.7039C68.5521 86.8786 68.1288 87.3019 70.9541 84.4767L67.1448 78.2601C68.1335 75.874 68.5107 74.9637 69.4996 72.5776L76.5628 70.884V63.4911L71.5569 62.2908C65.9087 74.7067 55.957 84.6584 43.541 90.3066Z" fill="#705EA4"/>
<path d="M53.0371 70.3125H57.813V64.0625H56.7446C55.9285 66.3678 54.669 68.4911 53.0371 70.3125Z" fill="#D29246"/>
<path d="M45.3125 75.8437V76.5625H51.5625V73.3491C49.6193 74.4961 47.5114 75.3374 45.3125 75.8437Z" fill="#D29246"/>
<path d="M10.9375 60.9375H14.0625V59.7544C13.0372 60.0184 11.9955 60.2393 10.9375 60.4172V60.9375Z" fill="#1FA38C"/>
<path d="M48.4375 50C45.0381 50 41.7151 51.008 38.8886 52.8966C36.0622 54.7852 33.8592 57.4695 32.5583 60.6101C31.2574 63.7507 30.9171 67.2066 31.5803 70.5406C32.2434 73.8747 33.8804 76.9372 36.2841 79.3409C38.6878 81.7446 41.7503 83.3816 45.0844 84.0448C48.4184 84.7079 51.8743 84.3676 55.0149 83.0667C58.1555 81.7658 60.8398 79.5628 62.7284 76.7364C64.617 73.9099 65.625 70.5869 65.625 67.1875C65.6199 62.6307 63.8074 58.262 60.5852 55.0398C57.3631 51.8176 52.9943 50.0051 48.4375 50ZM48.4375 81.25C45.6562 81.25 42.9374 80.4252 40.6248 78.88C38.3122 77.3348 36.5098 75.1386 35.4455 72.569C34.3811 69.9994 34.1026 67.1719 34.6452 64.444C35.1878 61.7162 36.5271 59.2105 38.4938 57.2438C40.4605 55.2771 42.9662 53.9378 45.6941 53.3952C48.4219 52.8526 51.2494 53.1311 53.819 54.1954C56.3886 55.2598 58.5848 57.0622 60.1301 59.3748C61.6753 61.6874 62.5 64.4062 62.5 67.1875C62.4958 70.9158 61.0129 74.4902 58.3766 77.1266C55.7402 79.7629 52.1658 81.2458 48.4375 81.25Z" fill="black"/>
<path d="M53.125 56.25H43.75V62.5H37.5V71.875H43.75V78.125H53.125V71.875H59.375V62.5H53.125V56.25ZM56.25 65.625V68.75H50V75H46.875V68.75H40.625V65.625H46.875V59.375H50V65.625H56.25Z" fill="black"/>
<path d="M7.18715 65.3034L4.12891 65.9466C4.47406 67.5855 4.90708 69.2047 5.42609 70.7972L8.39698 69.8278C7.91277 68.3425 7.50891 66.8322 7.18715 65.3034Z" fill="black"/>
<path d="M9.50639 72.8445L6.61523 74.0305C7.29668 75.6903 8.07291 77.3097 8.9401 78.8805L11.6756 77.3695C10.8664 75.904 10.1422 74.3931 9.50639 72.8445Z" fill="black"/>
<path d="M13.5051 80.3867L10.9004 82.1133C15.4299 88.9455 21.6641 94.4773 28.9866 98.1619L30.3893 95.3695C23.5534 91.9295 17.7335 86.7651 13.5051 80.3867Z" fill="black"/>
<path d="M69.6113 95.3695L71.014 98.1619C72.8496 97.2391 74.6227 96.197 76.322 95.0422L74.5651 92.4578C72.9793 93.5356 71.3245 94.5083 69.6113 95.3695Z" fill="black"/>
<path d="M78.5059 89.4402L80.5429 91.8099C82.282 90.3141 83.9101 88.6938 85.4141 86.9618L83.0539 84.9133C81.6497 86.5305 80.1296 88.0435 78.5059 89.4402Z" fill="black"/>
<path d="M85.4492 81.8954L87.9795 83.7295C91.8373 78.4263 94.5268 72.3654 95.8706 65.9466L92.8123 65.3034C91.5584 71.2924 89.0489 76.9474 85.4492 81.8954Z" fill="black"/>
<path d="M10.9375 42.1875H14.0625V60.9375H10.9375V42.1875Z" fill="black"/>
<path d="M90.3797 32.0353L83.7402 29.0844C83.4642 28.9615 83.2296 28.7612 83.065 28.5078C82.9003 28.2544 82.8126 27.9587 82.8125 27.6566V25.473L84.3632 23.1472C85.3913 21.608 85.9393 19.7981 85.9375 17.947V12.5C85.9375 10.0136 84.9498 7.62903 83.1916 5.87087C81.4335 4.11272 79.0489 3.125 76.5625 3.125C74.0761 3.125 71.6915 4.11272 69.9334 5.87087C68.1752 7.62903 67.1875 10.0136 67.1875 12.5V17.947C67.1857 19.7981 67.7337 21.6081 68.762 23.1474L70.3125 25.473V27.6566C70.3124 27.9588 70.2246 28.2545 70.06 28.5079C69.8953 28.7613 69.6607 28.9615 69.3846 29.0844L63.2812 31.797L57.1777 29.0844C56.9017 28.9615 56.6671 28.7612 56.5025 28.5078C56.3378 28.2544 56.2501 27.9587 56.25 27.6566V25.473L57.8007 23.1472C58.8288 21.6079 59.3767 19.7981 59.375 17.947V12.5C59.375 10.0136 58.3873 7.62903 56.6291 5.87087C54.871 4.11272 52.4864 3.125 50 3.125C47.5136 3.125 45.129 4.11272 43.3709 5.87087C41.6127 7.62903 40.625 10.0136 40.625 12.5V17.947C40.6233 19.7981 41.1713 21.6081 42.1995 23.1474L43.75 25.473V27.6566C43.7499 27.9588 43.6621 28.2545 43.4975 28.5079C43.3328 28.7613 43.0982 28.9615 42.8221 29.0844L36.7188 31.797L30.6152 29.0844C30.3392 28.9615 30.1046 28.7612 29.94 28.5078C29.7753 28.2544 29.6876 27.9587 29.6875 27.6566V25.473L31.2382 23.1472C32.2663 21.608 32.8143 19.7981 32.8125 17.947V12.5C32.8125 10.0136 31.8248 7.62903 30.0666 5.87087C28.3085 4.11272 25.9239 3.125 23.4375 3.125C20.9511 3.125 18.5665 4.11272 16.8084 5.87087C15.0502 7.62903 14.0625 10.0136 14.0625 12.5V17.947C14.0607 19.7981 14.6087 21.6081 15.637 23.1474L17.1875 25.473V27.6566C17.1874 27.9588 17.0996 28.2545 16.935 28.5079C16.7703 28.7613 16.5357 28.9615 16.2596 29.0844L9.62028 32.0353C7.68765 32.8955 6.04567 34.2973 4.89295 36.0711C3.74023 37.8449 3.12615 39.9147 3.125 42.0301V60.9375H6.25V42.0301C6.25082 40.5191 6.68944 39.0407 7.5128 37.7737C8.33616 36.5067 9.50899 35.5054 10.8894 34.8909L17.5285 31.9401C18.3569 31.5715 19.0607 30.9707 19.5548 30.2105C20.0489 29.4503 20.312 28.5632 20.3125 27.6566V24.527L18.2373 21.4142C17.5517 20.3879 17.1864 19.1812 17.1875 17.947V12.5C17.1875 10.8424 17.846 9.25268 19.0181 8.08058C20.1902 6.90848 21.7799 6.25 23.4375 6.25C25.0951 6.25 26.6848 6.90848 27.8569 8.08058C29.029 9.25268 29.6875 10.8424 29.6875 12.5V17.947C29.6886 19.1811 29.3233 20.3878 28.6379 21.414L26.5625 24.527V27.6566C26.563 28.5632 26.8261 29.4503 27.3202 30.2105C27.8142 30.9707 28.518 31.5714 29.3463 31.9401L33.4598 33.7683C32.2764 34.7953 31.3272 36.0643 30.6765 37.4896C30.0257 38.9149 29.6884 40.4633 29.6875 42.0301V43.9224L23.9454 49.6645L27.9823 56.2525L26.2371 60.4637L18.75 62.2589V72.1161L26.2369 73.9113L27.9821 78.1225L23.9452 84.7103L30.9145 91.6796L37.5025 87.6427L41.7137 89.3879L43.5089 96.875H53.3661L55.1613 89.3881L59.3725 87.6429L65.9603 91.6798L72.9296 84.7105L68.8927 78.1225L70.6379 73.9113L78.125 72.1161V62.2589L70.6381 60.4637L68.8929 56.2525L72.9298 49.6647L70.3125 47.0474V42.0301C70.3116 40.4633 69.9743 38.9149 69.3235 37.4896C68.6727 36.0643 67.7236 34.7953 66.5402 33.7683L70.6535 31.9401C71.4819 31.5715 72.1857 30.9707 72.6798 30.2105C73.1739 29.4503 73.437 28.5632 73.4375 27.6566V24.527L71.3623 21.4142C70.6767 20.3879 70.3114 19.1812 70.3125 17.947V12.5C70.3125 10.8424 70.971 9.25268 72.1431 8.08058C73.3152 6.90848 74.9049 6.25 76.5625 6.25C78.2201 6.25 79.8098 6.90848 80.9819 8.08058C82.154 9.25268 82.8125 10.8424 82.8125 12.5V17.947C82.8136 19.1811 82.4483 20.3878 81.7629 21.414L79.6875 24.527V27.6566C79.688 28.5632 79.9511 29.4503 80.4452 30.2105C80.9392 30.9707 81.643 31.5714 82.4713 31.9401L89.1106 34.8909C90.491 35.5054 91.6638 36.5067 92.4872 37.7737C93.3106 39.0407 93.7492 40.5191 93.75 42.0301V60.9375H96.875V42.0301C96.8738 39.9147 96.2598 37.8449 95.107 36.0711C93.9543 34.2973 92.3123 32.8955 90.3797 32.0353ZM68.9781 50.1324L65.3963 55.9774L68.3609 63.1313L75 64.7232V69.6518L68.3605 71.2437L65.3961 78.3976L68.9779 84.2428L65.4926 87.7281L59.6476 84.1463L52.4937 87.1107L50.9018 93.75H45.9732L44.3813 87.1105L37.2274 84.1461L31.3822 87.7279L27.8969 84.2426L31.4787 78.3976L28.5143 71.2437L21.875 69.6518V64.7232L28.5145 63.1313L31.4789 55.9774L27.8971 50.1322L31.3824 46.6469L37.2274 50.2287L44.3813 47.2643L45.9732 40.625H50.9018L52.4937 47.2645L59.6476 50.2289L65.4928 46.6471L67.1875 48.3418V48.4375H67.2832L68.9781 50.1324ZM67.1875 42.0301V43.9224L65.9605 42.6954L59.3725 46.7323L55.1613 44.9871L53.3661 37.5H43.5089L41.7137 44.9869L37.5025 46.7321L32.8125 43.8582V42.0302C32.8133 40.5191 33.2519 39.0407 34.0753 37.7737C34.8987 36.5067 36.0715 35.5054 37.4519 34.8909L44.091 31.9401C44.9194 31.5715 45.6232 30.9708 46.1173 30.2105C46.6114 29.4503 46.8745 28.5632 46.875 27.6566V24.527L44.7998 21.4142C44.1142 20.3879 43.7489 19.1812 43.75 17.947V12.5C43.75 10.8424 44.4085 9.25269 45.5806 8.08058C46.7527 6.90848 48.3424 6.25 50 6.25C51.6576 6.25 53.2473 6.90848 54.4194 8.08058C55.5915 9.25269 56.25 10.8424 56.25 12.5V17.947C56.2511 19.1811 55.8858 20.3878 55.2004 21.414L53.125 24.527V27.6566C53.1255 28.5632 53.3886 29.4503 53.8827 30.2105C54.3767 30.9707 55.0805 31.5714 55.9088 31.9401L62.5481 34.8909C63.9285 35.5054 65.1013 36.5067 65.9247 37.7737C66.7481 39.0407 67.1867 40.5191 67.1875 42.0301Z" fill="black"/>
<path d="M85.9375 42.1875H89.0625V60.9375H85.9375V42.1875Z" fill="black"/>
</svg>
