<svg width="100" height="100" viewBox="0 0 100 100" fill="none" xmlns="http://www.w3.org/2000/svg">
<g clip-path="url(#clip0_562_1121)">
<path d="M76.8292 27.8467H79.3708C79.6987 27.8467 79.9645 28.1125 79.9645 28.4404V58.6242H83.8661C84.3386 58.6242 84.7948 58.7955 85.1507 59.106L90.8517 64.0838V28.4404C90.8517 28.1125 91.1175 27.8467 91.4454 27.8467H93.8665C94.3686 27.8467 94.644 27.2623 94.3243 26.875L85.863 16.6248C85.6265 16.3383 85.1882 16.3369 84.9497 16.6219L76.3739 26.8721C76.0505 27.2586 76.3253 27.8467 76.8292 27.8467Z" fill="#00F2A6"/>
<path d="M76.8292 27.8467H79.3708C79.6987 27.8467 79.9645 28.1125 79.9645 28.4404V58.6242H83.8661C84.3386 58.6242 84.7948 58.7955 85.1507 59.106L90.8517 64.0838V28.4404C90.8517 28.1125 91.1175 27.8467 91.4454 27.8467H93.8665C94.3686 27.8467 94.644 27.2623 94.3243 26.875L85.863 16.6248C85.6265 16.3383 85.1882 16.3369 84.9497 16.6219L76.3739 26.8721C76.0505 27.2586 76.3253 27.8467 76.8292 27.8467Z" fill="#00F2A6"/>
<path d="M85.1073 25.1613L89.0347 20.4672L85.863 16.625C85.6265 16.3385 85.1882 16.3371 84.9497 16.6221L76.3739 26.8722C76.0505 27.2588 76.3253 27.8469 76.8292 27.8469H79.3708C79.6987 27.8469 79.9645 28.1127 79.9645 28.4406V58.6244H83.8661C84.1392 58.6244 84.4061 58.6832 84.652 58.7916V26.4144C84.6522 25.9562 84.8134 25.5127 85.1073 25.1613Z" fill="#05E39C"/>
<path d="M59.3903 40.9311V58.6242H70.2774V40.9311C70.2774 40.6031 70.5432 40.3373 70.8712 40.3373H73.2923C73.7944 40.3373 74.0698 39.7529 73.7501 39.3656L65.2888 29.1154C65.0522 28.8289 64.614 28.8275 64.3755 29.1125L55.7997 39.3627C55.4763 39.7492 55.7511 40.3373 56.2552 40.3373H58.7968C59.1245 40.3373 59.3903 40.6031 59.3903 40.9311Z" fill="#00F2A6"/>
<path d="M59.3905 40.9311V58.6242H64.078V38.9051C64.078 38.4469 64.2391 38.0033 64.5331 37.6518L68.4604 32.9576L65.2888 29.1154C65.0522 28.8289 64.6139 28.8275 64.3755 29.1125L55.7997 39.3627C55.4763 39.7492 55.7511 40.3373 56.2552 40.3373H58.7968C59.1247 40.3373 59.3905 40.6031 59.3905 40.9311Z" fill="#05E39C"/>
<path d="M6.95234 30.2482C6.40586 30.2482 5.96289 30.6912 5.96289 31.2377V97.7174H19.6562V30.2482H6.95234Z" fill="#838383"/>
<path d="M13.2023 30.2482H6.95234C6.40586 30.2482 5.96289 30.6912 5.96289 31.2377V97.7174H12.2129V31.2379C12.2129 30.6914 12.6559 30.2482 13.2023 30.2482Z" fill="#5A5A5A"/>
<path d="M18.7761 85.9412C14.9843 85.7558 11.7708 88.3771 11.03 91.9082C10.2609 91.6431 9.43627 91.4972 8.57709 91.4972C5.34779 91.4972 2.59486 93.5308 1.52572 96.3869C1.28451 97.031 1.7683 97.7174 2.456 97.7174H19.6568V86.039C19.3681 85.9902 19.0747 85.9558 18.7761 85.9412Z" fill="#00F2A6"/>
<path d="M42.9334 71.0715L50.1402 64.7787V17.433C50.1402 16.8865 49.6973 16.4435 49.1508 16.4435H20.6457C20.0992 16.4435 19.6562 16.8865 19.6562 17.433V97.7174H42.265V72.5428C42.265 71.9789 42.5088 71.4424 42.9334 71.0715Z" fill="#CECECE"/>
<path d="M26.8957 16.4435H20.6457C20.0992 16.4435 19.6562 16.8865 19.6562 17.433V97.7174H25.9062V17.433C25.9062 16.8865 26.3492 16.4435 26.8957 16.4435Z" fill="#BFBFBF"/>
<path d="M31.7695 29.6223H27.2949C26.9713 29.6223 26.709 29.36 26.709 29.0363V24.5617C26.709 24.2381 26.9713 23.9758 27.2949 23.9758H31.7695C32.0932 23.9758 32.3555 24.2381 32.3555 24.5617V29.0363C32.3555 29.36 32.0932 29.6223 31.7695 29.6223Z" fill="white"/>
<path d="M42.7617 29.6223H38.2871C37.9635 29.6223 37.7012 29.36 37.7012 29.0363V24.5617C37.7012 24.2381 37.9635 23.9758 38.2871 23.9758H42.7617C43.0854 23.9758 43.3477 24.2381 43.3477 24.5617V29.0363C43.3477 29.36 43.0854 29.6223 42.7617 29.6223Z" fill="white"/>
<path d="M31.7695 41.2162H27.2949C26.9713 41.2162 26.709 40.9539 26.709 40.6302V36.1556C26.709 35.832 26.9713 35.5697 27.2949 35.5697H31.7695C32.0932 35.5697 32.3555 35.832 32.3555 36.1556V40.6302C32.3555 40.9539 32.0932 41.2162 31.7695 41.2162Z" fill="white"/>
<path d="M42.7617 41.2162H38.2871C37.9635 41.2162 37.7012 40.9539 37.7012 40.6302V36.1556C37.7012 35.832 37.9635 35.5697 38.2871 35.5697H42.7617C43.0854 35.5697 43.3477 35.832 43.3477 36.1556V40.6302C43.3477 40.9539 43.0854 41.2162 42.7617 41.2162Z" fill="white"/>
<path d="M31.7695 52.8103H27.2949C26.9713 52.8103 26.709 52.548 26.709 52.2244V47.7498C26.709 47.4262 26.9713 47.1638 27.2949 47.1638H31.7695C32.0932 47.1638 32.3555 47.4262 32.3555 47.7498V52.2244C32.3555 52.548 32.0932 52.8103 31.7695 52.8103Z" fill="white"/>
<path d="M42.7617 52.8103H38.2871C37.9635 52.8103 37.7012 52.548 37.7012 52.2244V47.7498C37.7012 47.4262 37.9635 47.1638 38.2871 47.1638H42.7617C43.0854 47.1638 43.3477 47.4262 43.3477 47.7498V52.2244C43.3477 52.548 43.0854 52.8103 42.7617 52.8103Z" fill="white"/>
<path d="M31.7695 64.4043H27.2949C26.9713 64.4043 26.709 64.142 26.709 63.8184V59.3438C26.709 59.0201 26.9713 58.7578 27.2949 58.7578H31.7695C32.0932 58.7578 32.3555 59.0201 32.3555 59.3438V63.8184C32.3555 64.142 32.0932 64.4043 31.7695 64.4043Z" fill="white"/>
<path d="M42.7617 64.4043H38.2871C37.9635 64.4043 37.7012 64.142 37.7012 63.8184V59.3438C37.7012 59.0201 37.9635 58.7578 38.2871 58.7578H42.7617C43.0854 58.7578 43.3477 59.0201 43.3477 59.3438V63.8184C43.3477 64.142 43.0854 64.4043 42.7617 64.4043Z" fill="white"/>
<path d="M31.7695 75.9984H27.2949C26.9713 75.9984 26.709 75.7361 26.709 75.4125V70.9379C26.709 70.6142 26.9713 70.3519 27.2949 70.3519H31.7695C32.0932 70.3519 32.3555 70.6142 32.3555 70.9379V75.4125C32.3555 75.7361 32.0932 75.9984 31.7695 75.9984Z" fill="white"/>
<path d="M42.2666 72.5428C42.2666 71.9789 42.5103 71.4424 42.9352 71.0715L43.3117 70.7426C43.2311 70.5154 43.0164 70.3517 42.7617 70.3517H38.2871C37.9635 70.3517 37.7012 70.6141 37.7012 70.9377V75.4123C37.7012 75.7359 37.9635 75.9982 38.2871 75.9982H42.2666V72.5428Z" fill="white"/>
<path d="M31.7695 87.5924H27.2949C26.9713 87.5924 26.709 87.3301 26.709 87.0064V82.5318C26.709 82.2082 26.9713 81.9459 27.2949 81.9459H31.7695C32.0932 81.9459 32.3555 82.2082 32.3555 82.5318V87.0064C32.3555 87.3301 32.0932 87.5924 31.7695 87.5924Z" fill="white"/>
<path d="M42.2666 81.9461H38.2871C37.9635 81.9461 37.7012 82.2084 37.7012 82.532V87.0066C37.7012 87.3303 37.9635 87.5926 38.2871 87.5926H42.2666V81.9461Z" fill="white"/>
<path d="M96.6855 71.6553H72.1133V97.7174H95.6959C96.2424 97.7174 96.6854 97.2744 96.6854 96.7279L96.6855 71.6553Z" fill="#FFF0AD"/>
<path d="M72.1133 71.6553H79.9258V97.7174H72.1133V71.6553Z" fill="#FFE177"/>
<path d="M42.2656 72.5428V97.7174H72.1141V71.6553L57.1898 58.6242L42.9342 71.0717C42.5094 71.4424 42.2656 71.9789 42.2656 72.5428Z" fill="#FFF6CE"/>
<path d="M48.5156 74.1053C48.5156 73.5414 48.7594 73.0049 49.1842 72.634L61.2096 62.134L57.1898 58.6242L42.9342 71.0717C42.5094 71.4426 42.2656 71.9789 42.2656 72.543V97.7176H48.5156V74.1053Z" fill="#FFF0AD"/>
<path d="M51.291 97.7174H63.0887V79.2396C63.0887 78.6932 62.6457 78.2502 62.0992 78.2502H52.2807C51.7342 78.2502 51.2912 78.6932 51.2912 79.2396V97.7174H51.291Z" fill="#FD6930"/>
<path d="M56.968 78.2502H52.2805C51.734 78.2502 51.291 78.6932 51.291 79.2396V97.7174H55.9785V79.2396C55.9785 78.6932 56.4215 78.2502 56.968 78.2502Z" fill="#FD5426"/>
<path d="M96.6863 79.8127H80.7832C80.4596 79.8127 80.1973 80.075 80.1973 80.3986V87.7564C80.1973 88.0801 80.4596 88.3424 80.7832 88.3424H96.6863V79.8127Z" fill="#DFF6FD"/>
<path d="M80.7832 79.8127C80.4596 79.8127 80.1973 80.075 80.1973 80.3986V87.7564C80.1973 88.0801 80.4596 88.3424 80.7832 88.3424H85.9441V79.8127H80.7832Z" fill="#99E6FC"/>
<path d="M83.8637 58.6242H57.1895L72.1137 71.6553H97.9379C98.4863 71.6553 98.7416 70.9752 98.3283 70.6142L85.1482 59.106C84.7924 58.7953 84.3359 58.6242 83.8637 58.6242Z" fill="#FD6930"/>
<path d="M57.1895 58.6242L72.1137 71.6553H79.9262L65.002 58.6242H57.1895Z" fill="#FD5426"/>
<path d="M33.8201 24.5617C33.8201 23.4308 32.9002 22.5109 31.7693 22.5109H27.2949C26.1641 22.5109 25.2441 23.4308 25.2441 24.5617V29.0363C25.2441 30.1672 26.1641 31.0871 27.2949 31.0871H31.7693C32.9002 31.0871 33.8201 30.1672 33.8201 29.0363V24.5617ZM30.8904 28.1574H28.1738V25.4406H30.8904V28.1574Z" fill="black"/>
<path d="M44.8125 24.5617C44.8125 23.4308 43.8926 22.5109 42.7617 22.5109H38.2871C37.1562 22.5109 36.2363 23.4308 36.2363 24.5617V29.0363C36.2363 30.1672 37.1562 31.0871 38.2871 31.0871H42.7617C43.8926 31.0871 44.8125 30.1672 44.8125 29.0363V24.5617ZM41.8828 28.1574H39.166V25.4406H41.8828V28.1574Z" fill="black"/>
<path d="M33.8201 36.1557C33.8201 35.0248 32.9002 34.1049 31.7693 34.1049H27.2949C26.1641 34.1049 25.2441 35.0248 25.2441 36.1557V40.6303C25.2441 41.7611 26.1641 42.6811 27.2949 42.6811H31.7693C32.9002 42.6811 33.8201 41.7611 33.8201 40.6303V36.1557ZM30.8904 39.7514H28.1738V37.0346H30.8904V39.7514Z" fill="black"/>
<path d="M44.8125 36.1557C44.8125 35.0248 43.8926 34.1049 42.7617 34.1049H38.2871C37.1562 34.1049 36.2363 35.0248 36.2363 36.1557V40.6303C36.2363 41.7611 37.1562 42.6811 38.2871 42.6811H42.7617C43.8926 42.6811 44.8125 41.7611 44.8125 40.6303V36.1557ZM41.8828 39.7514H39.166V37.0346H41.8828V39.7514Z" fill="black"/>
<path d="M33.8201 47.7498C33.8201 46.6189 32.9002 45.699 31.7693 45.699H27.2949C26.1641 45.699 25.2441 46.6189 25.2441 47.7498V52.2242C25.2441 53.3551 26.1641 54.275 27.2949 54.275H31.7693C32.9002 54.275 33.8201 53.3551 33.8201 52.2242V47.7498ZM30.8904 51.3455H28.1738V48.6289H30.8904V51.3455Z" fill="black"/>
<path d="M44.8125 47.7498C44.8125 46.6189 43.8926 45.699 42.7617 45.699H38.2871C37.1562 45.699 36.2363 46.6189 36.2363 47.7498V52.2242C36.2363 53.3551 37.1562 54.275 38.2871 54.275H42.7617C43.8926 54.275 44.8125 53.3551 44.8125 52.2242V47.7498ZM41.8828 51.3455H39.166V48.6289H41.8828V51.3455Z" fill="black"/>
<path d="M33.8201 59.3439C33.8201 58.2131 32.9002 57.2932 31.7693 57.2932H27.2949C26.1641 57.2932 25.2441 58.2131 25.2441 59.3439V63.8183C25.2441 64.9492 26.1641 65.8691 27.2949 65.8691H31.7693C32.9002 65.8691 33.8201 64.9492 33.8201 63.8183V59.3439ZM30.8904 62.9394H28.1738V60.2228H30.8904V62.9394Z" fill="black"/>
<path d="M42.7617 57.2932H38.2871C37.1562 57.2932 36.2363 58.2131 36.2363 59.3439V63.8183C36.2363 64.9492 37.1562 65.8691 38.2871 65.8691H42.7617C43.8926 65.8691 44.8125 64.9492 44.8125 63.8183V59.3439C44.8125 58.2131 43.8926 57.2932 42.7617 57.2932ZM41.8828 62.9394H39.166V60.2228H41.8828V62.9394Z" fill="black"/>
<path d="M33.8201 70.9379C33.8201 69.807 32.9002 68.8871 31.7693 68.8871H27.2949C26.1641 68.8871 25.2441 69.807 25.2441 70.9379V75.4125C25.2441 76.5434 26.1641 77.4633 27.2949 77.4633H31.7693C32.9002 77.4633 33.8201 76.5434 33.8201 75.4125V70.9379ZM30.8904 74.5336H28.1738V71.8168H30.8904V74.5336Z" fill="black"/>
<path d="M31.7693 80.481H27.2949C26.1641 80.481 25.2441 81.401 25.2441 82.5318V87.0064C25.2441 88.1373 26.1641 89.0572 27.2949 89.0572H31.7693C32.9002 89.0572 33.8201 88.1373 33.8201 87.0064V82.5318C33.8201 81.401 32.9002 80.481 31.7693 80.481ZM30.8904 86.1277H28.1738V83.4109H30.8904V86.1277Z" fill="black"/>
<path d="M99.2925 69.5107L92.3164 63.4195V52.832C92.3164 52.0228 91.6607 51.3672 90.8515 51.3672C90.0424 51.3672 89.3867 52.0228 89.3867 52.832V60.8615L86.1127 58.0027C85.49 57.4588 84.6916 57.1592 83.8644 57.1592H81.4293V28.4404C81.4293 27.3053 80.5058 26.3818 79.3709 26.3818H78.6937L85.4006 18.3656L92.0175 26.3818H91.4451C90.3099 26.3818 89.3867 27.3055 89.3867 28.4404V45.9961C89.3867 46.8053 90.0424 47.4609 90.8515 47.4609C91.6607 47.4609 92.3164 46.8053 92.3164 45.9961V29.3115H93.8664C94.6716 29.3115 95.3851 28.859 95.7285 28.1305C96.0718 27.4019 95.9666 26.5637 95.4539 25.9426L86.9925 15.6924C86.6017 15.2187 86.0254 14.9461 85.4113 14.9443C85.4091 14.9443 85.4072 14.9441 85.4048 14.9441C84.7935 14.9441 84.2183 15.2131 83.8263 15.6818L75.2504 25.932C74.7318 26.5519 74.622 27.392 74.964 28.1242C75.3062 28.8566 76.0209 29.3115 76.8293 29.3115H78.4998V57.1592H71.7431V41.8021H73.2931C74.0984 41.8021 74.8119 41.3498 75.1552 40.6213C75.4986 39.8928 75.3935 39.0547 74.8808 38.4332L66.4197 28.1834C66.0291 27.7097 65.4531 27.4371 64.839 27.4349C64.8365 27.4349 64.8343 27.4347 64.8318 27.4347C64.2205 27.4347 63.6455 27.7035 63.2531 28.1724L54.6773 38.4226C54.1588 39.0426 54.049 39.8826 54.391 40.6148C54.7332 41.3472 55.4478 41.8021 56.2562 41.8021H57.9267V57.1592H57.1908C56.847 57.1592 56.5033 57.2797 56.2275 57.5205L51.607 61.5551V29.7851C51.607 28.976 50.9513 28.3203 50.1422 28.3203C49.333 28.3203 48.6773 28.976 48.6773 29.7851V64.1133L43.1609 68.9301C43.0314 68.9043 42.8988 68.8871 42.7619 68.8871H38.2873C37.1564 68.8871 36.2365 69.807 36.2365 70.9379V75.4125C36.2365 76.5433 37.1564 77.4633 38.2873 77.4633H40.8021V80.481H38.2873C37.1564 80.481 36.2365 81.401 36.2365 82.5318V87.0064C36.2365 88.1373 37.1564 89.0572 38.2873 89.0572H40.8021V96.2525H21.1224V17.9082H48.6767V22.9492C48.6767 23.7584 49.3324 24.414 50.1416 24.414C50.9507 24.414 51.6064 23.7584 51.6064 22.9492V17.433C51.6064 16.0797 50.5052 14.9787 49.1521 14.9787H20.6472C19.2939 14.9787 18.1929 16.0799 18.1929 17.433V28.7834H6.95367C5.60035 28.7834 4.49937 29.8846 4.49937 31.2377V35.8035H3.97847C3.16929 35.8035 2.51363 36.4592 2.51363 37.2683C2.51363 38.0775 3.16929 38.7332 3.97847 38.7332H4.49937V42.0707H3.97847C3.16929 42.0707 2.51363 42.7263 2.51363 43.5355C2.51363 44.3447 3.16929 45.0004 3.97847 45.0004H4.49937V48.3379H3.97847C3.16929 48.3379 2.51363 48.9935 2.51363 49.8027C2.51363 50.6119 3.16929 51.2676 3.97847 51.2676H4.49937V54.6051H3.97847C3.16929 54.6051 2.51363 55.2607 2.51363 56.0699C2.51363 56.8791 3.16929 57.5347 3.97847 57.5347H4.49937V60.8722H3.97847C3.16929 60.8722 2.51363 61.5279 2.51363 62.3371C2.51363 63.1463 3.16929 63.8019 3.97847 63.8019H4.49937V67.1396H3.97847C3.16929 67.1396 2.51363 67.7953 2.51363 68.6045C2.51363 69.4137 3.16929 70.0693 3.97847 70.0693H4.49937V73.4068H3.97847C3.16929 73.4068 2.51363 74.0625 2.51363 74.8717C2.51363 75.6808 3.16929 76.3365 3.97847 76.3365H4.49937V79.674H3.97847C3.16929 79.674 2.51363 80.3297 2.51363 81.1388C2.51363 81.948 3.16929 82.6037 3.97847 82.6037H4.49937V91.0211C2.53726 92.0248 0.956011 93.7334 0.154643 95.8736C-0.126021 96.6236 -0.0203566 97.4648 0.436675 98.1244C0.896245 98.7869 1.65132 99.1824 2.45679 99.1824H95.6974C97.0508 99.1824 98.1515 98.0812 98.1515 96.7281V73.1082C98.9273 73.0299 99.5871 72.5287 99.866 71.7845C100.171 70.9732 99.9455 70.0806 99.2925 69.5107ZM18.1927 96.2525H3.1857C4.2148 94.2592 6.30093 92.9621 8.57789 92.9621C9.25191 92.9621 9.91656 93.0734 10.5533 93.293C10.9503 93.4295 11.3877 93.3896 11.7535 93.1822C12.1191 92.9748 12.3781 92.6203 12.4644 92.209C13.0441 89.4463 15.4093 87.4926 18.1927 87.4002V96.2525ZM18.1927 84.4707C14.5339 84.5517 11.3425 86.8047 10.0316 90.1506C9.5525 90.0723 9.06695 90.0326 8.57808 90.0326C8.19058 90.0326 7.80718 90.0593 7.42906 90.1086V82.6035H18.1927V84.4707ZM18.1927 79.674H7.42906V76.3365H18.1927V79.674ZM18.1927 73.4068H7.42906V70.0693H18.1927V73.4068ZM18.1927 67.1396H7.42906V63.8019H18.1927V67.1396ZM18.1927 60.8722H7.42906V57.5347H18.1927V60.8722ZM18.1927 54.6051H7.42906V51.2676H18.1927V54.6051ZM18.1927 48.3379H7.42906V45.0004H18.1927V48.3379ZM18.1927 42.0707H7.42906V38.7332H18.1927V42.0707ZM18.1927 35.8035H7.42906V31.7131H18.1927V35.8035ZM40.8015 86.1277H39.1656V83.4109H40.8015V86.1277ZM40.8015 72.5428V74.5336H39.1656V71.8168H40.8794C40.8281 72.0533 40.8015 72.2965 40.8015 72.5428ZM64.8271 30.8562L71.4443 38.8724H70.8718C69.7367 38.8724 68.8132 39.7961 68.8132 40.931V57.1592H60.856V40.931C60.856 39.7959 59.9324 38.8724 58.7974 38.8724H58.1205L64.8271 30.8562ZM70.6498 96.2525H64.5541V90.7226C64.5541 89.9135 63.8984 89.2578 63.0892 89.2578C62.28 89.2578 61.6244 89.9135 61.6244 90.7226V96.2525H52.7566V79.715H61.6244V83.8867C61.6244 84.6959 62.28 85.3515 63.0892 85.3515C63.8984 85.3515 64.5541 84.6959 64.5541 83.8867V79.2396C64.5541 77.8863 63.4529 76.7855 62.0998 76.7855H52.2812C50.9279 76.7855 49.8269 77.8865 49.8269 79.2396V96.2525H43.7312V72.5428C43.7312 72.4017 43.7921 72.2678 43.8982 72.175L57.1904 60.5687L70.6498 72.3209V96.2525ZM95.222 86.8775H87.4097V81.2775H95.222V86.8775ZM95.222 78.348H80.784C79.6531 78.348 78.7332 79.268 78.7332 80.3988V87.7566C78.7332 88.8875 79.6531 89.8074 80.784 89.8074H95.222V96.2527H73.5795V73.1201H95.222V78.348ZM84.48 81.2777V86.8777H81.6629V81.2777H84.48ZM72.6642 70.1904L61.0953 60.0888H83.8646C83.9826 60.0888 84.0966 60.1316 84.1859 60.2094L95.6168 70.1904H72.6642Z" fill="black"/>
<path d="M67.1334 19.6852H62.4166C61.3328 19.6852 60.4512 18.8033 60.4512 17.7195C60.4512 16.9103 59.7955 16.2547 58.9863 16.2547C58.1771 16.2547 57.5215 16.9103 57.5215 17.7195C57.5215 20.4187 59.7174 22.6148 62.4166 22.6148H63.3102V24.2945C63.3102 25.1037 63.9658 25.7594 64.775 25.7594C65.5842 25.7594 66.2398 25.1037 66.2398 24.2945V22.6148H67.1334C69.8326 22.6148 72.0285 20.4187 72.0285 17.7195V16.7189C72.0285 14.0197 69.8326 11.8238 67.1334 11.8238H62.4166C61.3328 11.8238 60.4512 10.942 60.4512 9.85839V8.85781C60.4512 7.77402 61.333 6.89238 62.4166 6.89238H67.1334C68.2172 6.89238 69.0988 7.77421 69.0988 8.85781C69.0988 9.66699 69.7545 10.3227 70.5637 10.3227C71.3729 10.3227 72.0285 9.66699 72.0285 8.85781C72.0285 6.15859 69.8326 3.96269 67.1334 3.96269H66.2398V2.28281C66.2398 1.47363 65.5842 0.817963 64.775 0.817963C63.9658 0.817963 63.3102 1.47363 63.3102 2.28281V3.96269H62.4166C59.7174 3.96269 57.5215 6.15859 57.5215 8.85781V9.85839C57.5215 12.5576 59.7174 14.7535 62.4166 14.7535H67.1334C68.2172 14.7535 69.0988 15.6353 69.0988 16.7189V17.7195C69.0988 18.8033 68.217 19.6852 67.1334 19.6852Z" fill="black"/>
</g>
<defs>
<clipPath id="clip0_562_1121">
<rect width="100" height="100" fill="white"/>
</clipPath>
</defs>
</svg>
