<svg width="100" height="100" viewBox="0 0 100 100" fill="none" xmlns="http://www.w3.org/2000/svg">
<g clip-path="url(#clip0_430_1980)">
<path d="M96.2901 91.5615L95.0782 88.0355C94.5096 86.3816 92.4125 85.883 91.1606 87.1041L89.1583 89.057C88.8643 89.3437 88.6495 89.7015 88.5344 90.0957L87.5368 93.5162C87.3274 94.234 87.467 95.0082 87.9139 95.6076L89.3803 97.5748C90.5907 99.1984 93.1463 98.6681 93.6106 96.6968L93.6795 96.4041C93.7936 95.9199 94.0563 95.4834 94.4309 95.156L95.6045 94.1302C96.334 93.4929 96.6049 92.4775 96.2901 91.5615Z" fill="#FF6F7F"/>
<path d="M39.0722 13.7304L50 50L39.0722 87.08C39.0097 87.0234 38.9746 86.9921 38.9746 86.9921C37.9238 86.0429 36.2558 86.3906 35.6699 87.6777C35.1816 88.7539 33.8984 89.2109 32.8398 88.6874L24.2051 84.4238C20.1738 82.4335 19.2363 78.3652 20.7695 75.2968C22.2851 72.2656 23.4316 69.0332 23.8281 65.6542C24.2656 61.916 23.9922 56.8437 25.584 53.4218C26.6308 51.1757 26.2676 48.5253 24.6582 46.6425L21.5625 43.0175C20.6894 41.996 20.0273 40.8125 19.6094 39.5351C19.6094 39.5117 18.4453 35.2226 13.875 33.2773L6.51951 30.1484C4.72654 29.3847 4.33396 27.8183 4.02927 27.3613C2.79099 24.9335 4.23044 21.996 6.90622 21.4863L12.6777 20.3867C13.3769 20.2539 13.0078 20.2382 22.4629 23.0957C24.1133 23.5937 25.623 21.9921 25.0312 20.375L23.6093 16.4902C22.7129 14.0449 25.5761 11.4921 27.9238 12.5918C27.957 12.6074 34.1718 15.5195 34.1718 15.5195C35.9062 16.33 37.9707 15.6406 38.8672 13.9492C38.9355 13.873 39.0058 13.8007 39.0722 13.7304Z" fill="#5C84D9"/>
<path d="M92.3916 27.2793C92.3877 27.2793 91.8135 27.9609 91.7334 29.002L91.2354 35.3809C91.0908 37.2422 89.5127 38.666 87.6455 38.6211C86.2256 38.5859 84.9248 39.4082 84.3486 40.707L80.6904 48.9355C80.0186 50.4512 81.1943 52.1387 82.8486 52.0312C84.2529 51.9395 85.3818 53.166 85.1728 54.5566L84.915 56.2773C84.6846 57.8145 85.7549 58.6621 86.1025 59.2754C87.0732 60.6269 86.6416 62.5234 85.1807 63.3203C84.1025 63.9082 83.54 65.1348 83.7998 66.334L84.6631 70.3379C84.8076 71.0039 85.1904 71.5918 85.7412 71.9922L87.708 73.4219C89.4854 74.7148 89.8154 77.2344 88.4307 78.9414C86.7393 81.0293 85.042 83.7031 82.2373 84.3223C79.7744 84.8652 76.9697 85.8789 74.4912 84.9492C74.4853 84.9473 71.2354 83.7285 68.8994 82.8535L60.5117 50L68.8994 12.2383C69.6397 12.6953 70.5478 13.2266 71.7334 13.9414C73.96 15.2871 75.6064 15.4121 79.2314 16.0781C79.9365 16.207 80.5772 16.5645 81.0576 17.0957L83.5264 19.8301C83.9619 20.3105 84.5303 20.6504 85.1611 20.8066L90.5889 22.1465C92.8623 22.709 93.8154 25.418 92.3916 27.2793Z" fill="#FF6F7F"/>
<path d="M32.1226 38.6107C32.1226 31.0849 32.3644 23.0392 34.3439 15.5898C34.2865 15.5666 34.2285 15.5459 34.1718 15.5195C34.1718 15.5195 27.957 12.6074 27.9238 12.5918C25.5761 11.4921 22.7129 14.0449 23.6093 16.4902L25.0312 20.375C25.623 21.9921 24.1133 23.5937 22.4629 23.0957C13.0078 20.2382 13.3769 20.2539 12.6777 20.3867L6.90622 21.4863C4.23044 21.996 2.79099 24.9335 4.02927 27.3613C4.33396 27.8183 4.72654 29.3847 6.51951 30.1484L13.875 33.2773C18.4453 35.2226 19.6094 39.5117 19.6094 39.5351C20.0273 40.8125 20.6894 41.996 21.5625 43.0175L24.6582 46.6425C26.2676 48.5253 26.6308 51.1757 25.584 53.4218C23.9922 56.8439 24.2656 61.916 23.8281 65.6542C23.4316 69.0332 22.2851 72.2656 20.7695 75.2968C19.2363 78.3652 20.1738 82.4335 24.2051 84.4238L32.8398 88.6874C33.8984 89.2109 35.1816 88.7539 35.6699 87.6777C36.2558 86.3906 37.9238 86.0429 38.9746 86.9921C38.9746 86.9921 39.0097 87.0234 39.0722 87.08L43.7338 71.2626C36.4763 62.3582 32.1226 50.9935 32.1226 38.6107Z" fill="#4677D4"/>
<path d="M68.9004 12.2383V82.8535C67.5879 82.3613 66.5625 81.9766 66.5625 81.9766C63.5684 80.8477 61.1016 82.8242 58.6445 84.2598C56.5039 85.5098 55.3223 87.918 55.6445 90.375C55.875 92.1289 54.4199 93.6445 52.6563 93.4844C50.5352 93.291 46.4004 93.6992 44.752 92.209C44.7402 92.1992 39.832 87.7656 39.0723 87.0801V13.7305C40.6309 12.123 41.9004 12.0332 44.2715 11.7793C46.1699 11.5742 47.6797 10.0918 47.916 8.19727L48.5293 3.29687C48.6582 2.25 49.5488 1.46484 50.6035 1.46484H52.6953C56.0449 1.46484 59.8027 3.02148 62.1973 5.72266L65.7305 9.70703C66.6816 10.7793 67.4863 11.3711 68.9004 12.2383Z" fill="#EAEAEA"/>
<path d="M39.0723 64.5195V87.0801C39.832 87.7656 44.7402 92.1992 44.752 92.209C46.4004 93.6992 50.5352 93.291 52.6563 93.4844C54.4199 93.6445 55.875 92.1289 55.6445 90.375C55.3223 87.918 56.5039 85.5098 58.6445 84.2598C58.7818 84.1797 58.9189 84.0975 59.0564 84.0146C50.7445 79.4672 43.8187 72.7043 39.0723 64.5195Z" fill="#E2E2E2"/>
<path d="M90.1381 86.0545C88.5791 87.7079 87.5662 88.1848 87.1285 89.6846L86.1308 93.1051C85.7947 94.2575 86.0224 95.52 86.7398 96.4823L88.2062 98.4495C90.1632 101.075 94.288 100.21 95.0367 97.0319C95.097 96.8487 95.0871 96.5274 95.3951 96.2583L96.5687 95.2325C97.7517 94.1987 98.1863 92.5704 97.6755 91.0844L96.4636 87.5585C95.5451 84.8854 92.1574 84.085 90.1381 86.0545ZM94.641 93.0266L93.4673 94.0524C92.3775 95.0049 92.2263 96.2518 92.1851 96.3604C92.0066 97.1182 91.0242 97.328 90.5552 96.6987L89.0888 94.7315C88.9177 94.5018 88.8632 94.2006 88.9435 93.9256C89.9986 90.4456 89.8791 90.4001 90.1816 90.1049L92.1839 88.152C92.6628 87.6848 93.4726 87.868 93.6935 88.5108L94.9054 92.0368C95.0269 92.3913 94.9232 92.7797 94.641 93.0266Z" fill="black"/>
<path d="M18.2174 39.9902C19.3022 43.3051 21.1766 44.5967 23.5448 47.5938C24.779 49.0377 25.0583 51.082 24.2559 52.8035C22.5225 56.5303 22.8067 61.784 22.3735 65.4828C22.0299 68.4109 21.0768 71.4066 19.4594 74.6412C17.4741 78.6148 18.9793 83.4764 23.5569 85.7363C32.1838 89.8715 32.3327 90.3705 33.7629 90.3701C35.0932 90.3701 36.3987 89.6164 37.0034 88.2836C37.1758 87.9047 37.6684 87.785 38.0014 88.0857C38.4151 88.4576 43.5131 93.0645 43.77 93.2941L43.7698 93.2945C45.9133 95.2324 50.3274 94.7422 52.5239 94.9422C55.2198 95.1873 57.4501 92.8703 57.0969 90.1834C56.8508 88.3074 57.7483 86.4783 59.3835 85.5234C61.7661 84.1314 63.7827 82.4928 66.0477 83.3471L68.3858 84.224H68.3864C68.5487 84.285 73.8296 86.2643 73.9776 86.3191L73.9774 86.3195C76.8829 87.4094 79.8333 86.3512 82.5538 85.7514C85.894 85.0139 87.7323 82.1303 89.569 79.8629C91.485 77.5008 91.029 74.0248 88.57 72.2357L86.6032 70.8061C86.344 70.6176 86.1635 70.3404 86.0958 70.0279L85.2323 66.0227C85.111 65.4631 85.3786 64.8801 85.8829 64.6051C88.0854 63.4035 88.7692 60.551 87.3354 58.4797C86.9069 57.7705 86.2446 57.293 86.3645 56.4932L86.6221 54.773C86.9704 52.4557 85.0885 50.4162 82.7544 50.5682C82.1973 50.6047 81.8051 50.0357 82.0297 49.5295L85.6883 41.2998C86.0251 40.541 86.778 40.0637 87.611 40.0844C90.2249 40.1516 92.4895 38.1586 92.6964 35.4937C93.2751 29.1518 93.0008 28.8904 93.5557 28.1684C95.6198 25.4701 94.2378 21.5393 90.9407 20.7234L85.5143 19.384C84.619 19.1623 84.5346 18.6322 82.145 16.1123C80.9196 14.7574 79.6258 14.6551 78.0063 14.3701C73.9616 13.6586 73.9006 13.6027 69.67 10.991C69.6694 10.9906 69.6686 10.9904 69.668 10.99C67.1715 9.56348 66.803 8.5791 63.2936 4.75039C60.6954 1.82051 56.6342 0 52.695 0H50.6032C48.8106 0 47.294 1.34043 47.0756 3.11504L46.4622 8.01602C46.3094 9.24141 45.3436 10.19 44.1153 10.3227C41.5305 10.5979 39.9069 10.765 38.0204 12.7107C38.0012 12.7305 37.9383 12.7967 37.9575 12.777C37.7918 12.9508 37.6776 13.0652 37.5727 13.2631C37.0418 14.2648 35.8204 14.673 34.7932 14.193C34.7932 14.193 28.6206 11.3008 28.545 11.2652C25.0385 9.62285 20.878 13.2949 22.2336 16.9938L23.6555 20.8783C23.8346 21.3678 23.3784 21.8418 22.8866 21.6934C13.2102 18.7687 13.5133 18.7344 12.4383 18.941L6.63208 20.0473C2.99517 20.74 1.04087 24.7264 2.72446 28.0268C3.48482 29.5195 4.12193 30.7191 5.94614 31.4961L13.3012 34.625C15.6034 35.6047 17.4026 37.5318 18.2174 39.9902ZM93.5055 28.2307C93.429 28.3256 93.3192 28.4252 93.1835 28.5113C93.3028 28.4348 93.4116 28.3404 93.5055 28.2307ZM18.1622 39.76C18.1678 39.7969 18.1751 39.8336 18.1836 39.8699C18.1774 39.8443 18.1694 39.8066 18.1622 39.76ZM5.30923 26.6443C4.56196 25.1 5.4772 23.2494 7.18071 22.925C14.8395 21.4656 12.6028 21.8943 13.0311 21.8102C13.5159 21.8783 15.8924 22.6398 22.0399 24.4979C24.844 25.3441 27.4133 22.6215 26.4069 19.8713L24.9848 15.9859C24.5434 14.7816 26.1268 13.3676 27.2995 13.9168C27.3327 13.9324 33.5504 16.8459 33.5516 16.8465C34.8801 17.4674 36.3446 17.4637 37.6071 16.9482V60.3523C37.6071 61.1611 38.2629 61.8172 39.0719 61.8172C39.8803 61.8172 40.5368 61.1623 40.5368 60.3523V14.3592C41.5501 13.4939 42.5004 13.4408 44.4286 13.2355C47.0157 12.9561 49.0475 10.9588 49.3694 8.3793L49.9831 3.47598C50.0213 3.16465 50.2881 2.92988 50.6034 2.92988H52.6952C55.7741 2.92988 59.0737 4.40762 61.1012 6.69473C64.6542 10.5213 64.8456 11.3721 67.4354 13.048V27.9334C67.4354 28.7424 68.0911 29.3982 68.9003 29.3982C69.7092 29.3982 70.3651 28.7424 70.3651 27.9334V14.8279C73.4881 16.699 74.261 16.6541 78.9688 17.5193C79.3587 17.5906 79.7053 17.7838 79.971 18.0775L82.4417 20.8141C83.0749 21.5127 83.8936 22.0018 84.8106 22.2291L90.2376 23.5686C91.4878 23.8779 92.0137 25.3633 91.2286 26.3893L91.2342 26.3936C90.5663 27.1611 90.3059 28.4678 90.2737 28.8879L89.7755 35.2674C89.6913 36.3531 88.7735 37.184 87.6825 37.1566C85.6628 37.1059 83.8292 38.267 83.0108 40.1117L79.352 48.3416C78.2331 50.8654 80.193 53.6713 82.9448 53.4926C83.4167 53.4611 83.7952 53.8711 83.7249 54.3391L83.4671 56.0596C83.1378 58.2551 84.5926 59.5824 84.829 59.9973C84.8547 60.0428 84.8829 60.0869 84.9135 60.1293C85.371 60.7664 85.1694 61.6578 84.4801 62.0336C82.8426 62.9266 81.9745 64.8223 82.3686 66.642L83.2323 70.648C83.4534 71.6664 84.0387 72.5645 84.8805 73.1764L86.8469 74.6057C87.9467 75.4059 88.1512 76.9607 87.2932 78.0186C85.7026 79.9816 84.1585 82.3975 81.9227 82.891C79.6321 83.3963 77.0094 84.3283 75.0065 83.577C74.9835 83.5684 70.395 81.8486 70.3653 81.8375V33.7924C70.3653 32.9834 69.7094 32.3275 68.9004 32.3275C68.0913 32.3275 67.4356 32.9834 67.4356 33.7924V80.7387L67.0794 80.6051C63.4764 79.2465 60.6594 81.385 57.9061 82.9939C55.2503 84.5447 53.7926 87.5164 54.1924 90.565C54.3008 91.3881 53.6176 92.0998 52.7895 92.0248C50.8934 91.852 46.8901 92.1436 45.727 91.1146C45.6243 91.0223 41.3401 87.1527 40.5374 86.4281V66.2117C40.5374 65.4066 39.8858 64.7469 39.0725 64.7469C38.2612 64.7469 37.6077 65.4061 37.6077 66.2117V84.985C36.2276 84.9824 34.943 85.7391 34.3364 87.0715C34.1907 87.3928 33.8071 87.5305 33.4889 87.373L24.8542 83.1094C21.6903 81.5475 20.8415 78.4303 22.0803 75.9512C23.852 72.4078 24.8999 69.0953 25.2836 65.8238C25.7229 62.0717 25.4663 57.1486 26.9124 54.0402C28.1979 51.2822 27.7504 48.0047 25.7729 45.6908C23.2989 42.6006 21.8442 41.652 21.0024 39.0791L20.9991 39.0801C20.8198 38.4061 20.3352 37.3221 19.6827 36.3246C18.3971 34.359 16.5876 32.8391 14.4493 31.9289L7.0938 28.8004C5.90493 28.2941 5.6895 27.2762 5.30923 26.6443Z" fill="black"/>
</g>
<defs>
<clipPath id="clip0_430_1980">
<rect width="100" height="100" fill="white"/>
</clipPath>
</defs>
</svg>
