<svg width="100" height="100" viewBox="0 0 100 100" fill="none" xmlns="http://www.w3.org/2000/svg">
<g clip-path="url(#clip0_562_4168)">
<path d="M48.2845 13.4596C53.2124 13.4596 57.819 14.4239 61.7428 16.2641C61.4544 9.1207 55.5409 3.41693 48.2845 3.41693C41.0281 3.41693 35.1146 9.1207 34.8262 16.2641C38.75 14.4239 43.3566 13.4596 48.2845 13.4596Z" fill="#B57A4E"/>
<path d="M41.2841 14.1508C42.3224 9.03144 46.2958 4.97105 51.3854 3.7778C50.389 3.54434 49.3514 3.41693 48.2833 3.41693C41.027 3.41693 35.1134 9.1207 34.8242 16.2641C36.8178 15.3295 38.9868 14.6215 41.2841 14.1508Z" fill="#9B5729"/>
<path d="M79.7494 90.0622C77.4728 89.9394 75.3495 89.0009 73.726 87.3873L62.5946 76.3216H58.5587L48.2841 92.0535L38.0088 76.3216H31.227C23.2733 76.3216 16.8027 82.7539 16.8027 90.6603V95.8636C16.8027 96.4274 17.2605 96.8844 17.8251 96.8844H78.7431C79.3077 96.8844 79.7647 96.4274 79.7647 95.8636V90.6603C79.7647 90.4597 79.7578 90.2606 79.7494 90.0622Z" fill="#FF6666"/>
<path d="M32.6918 77.1097L32.1768 76.3216H31.2262C23.2733 76.3216 16.8027 82.7539 16.8027 90.6596V95.8636C16.8027 96.4274 17.2605 96.8844 17.8251 96.8844H23.9981C23.4335 96.8844 22.9765 96.4274 22.9765 95.8636V90.6596C22.9765 84.392 27.0445 79.0544 32.6918 77.1097Z" fill="#FE3745"/>
<path d="M62.5928 76.3216H58.5576L48.2831 92.0535L38.0077 76.3216H32.1758L44.1944 94.7238C44.9681 95.9071 46.2094 96.6861 47.5865 96.8844H48.9781C50.356 96.6861 51.5973 95.9071 52.3709 94.7238L63.6823 77.4042L62.5928 76.3216Z" fill="#DEF9FF"/>
<path d="M54.1166 74.9437V70.942C53.0424 71.1274 51.9392 71.2251 50.8123 71.2251H45.7547C44.6279 71.2251 43.5239 71.1274 42.4497 70.942V74.9437C42.4497 75.7036 41.8271 76.3216 41.0626 76.3216H38.0078L48.2824 92.0535L58.5577 76.3216H55.5036C54.7392 76.3216 54.1166 75.7028 54.1166 74.9437Z" fill="#F8D5AB"/>
<path d="M42.0095 75.9477C41.7615 76.1789 41.4289 76.3216 41.0626 76.3216H38.0078L48.2831 92.0535L50.4057 88.8026L42.0095 75.9477Z" fill="#EAC092"/>
<path d="M48.2841 13.4596C33.9545 13.4596 22.3379 21.6208 22.3379 35.7078V42.4217C22.6759 42.3309 23.0299 42.279 23.3969 42.279H26.6714V37.8776C26.6714 37.271 27.1681 36.7774 27.7792 36.7774H44.9096C48.0705 36.7774 51.081 35.1119 52.7679 32.4302C52.9709 32.1067 53.3226 31.9137 53.7079 31.9137C54.0924 31.9137 54.4426 32.1067 54.6463 32.4302C56.3331 35.1119 59.3445 36.7767 62.5046 36.7767H68.789C69.4001 36.7767 69.8968 37.2703 69.8968 37.8776V42.2782H73.1721C73.5383 42.2782 73.8923 42.3309 74.2303 42.4217V35.7078C74.2295 21.6208 62.6137 13.4596 48.2841 13.4596Z" fill="#B57A4E"/>
<path d="M48.2841 13.4596C33.9545 13.4596 22.3379 21.6208 22.3379 35.7078V42.4217C22.6759 42.3309 23.0299 42.279 23.3969 42.279H26.6714V37.8776C26.6714 37.271 27.1681 36.7774 27.7792 36.7774H28.5162V35.7078C28.5162 22.6485 38.4993 14.6833 51.3732 13.59C50.3601 13.5038 49.3293 13.4596 48.2841 13.4596Z" fill="#9B5729"/>
<path d="M76.1152 53.7201C76.7843 53.0136 77.1963 52.0684 77.1963 51.0269V46.2364C77.1963 44.0506 75.3943 42.2783 73.171 42.2783H69.9941V50.0145C72.5309 50.3327 74.7305 51.725 76.1152 53.7201Z" fill="#FFE2B8"/>
<path d="M21.1137 54.2855C21.1869 53.8681 21.4974 53.5256 21.9186 53.4195C23.5001 53.0228 25.0772 52.8939 26.5916 53.0167C26.5802 52.755 26.5733 52.4918 26.5733 52.2278V42.2783H23.3964C21.1732 42.2783 19.3711 44.0506 19.3711 46.2364V51.0269C19.3711 52.3789 20.0616 53.5714 21.1137 54.2855Z" fill="#FFE2B8"/>
<path d="M61.1363 66.6932C60.7465 66.3064 60.5313 65.7907 60.5313 65.2421C60.5313 64.6943 60.7465 64.1793 61.1363 63.7918C61.2638 63.6643 61.4072 63.5583 61.5598 63.4698C60.6442 62.0919 60.1102 60.4424 60.1102 58.6678C60.1102 53.8491 64.0401 49.9428 68.8871 49.9428C69.2625 49.9428 69.6317 49.9695 69.9949 50.0145V37.8776C69.9949 37.2154 69.4547 36.679 68.7894 36.679H62.5051C59.3785 36.679 56.3985 35.0311 54.7291 32.3783C54.5086 32.0273 54.1226 31.8152 53.7076 31.8152C53.2918 31.8152 52.9057 32.0273 52.6852 32.3783C51.0167 35.0311 48.0358 36.679 44.9101 36.679H27.7797C27.1136 36.679 26.5742 37.2154 26.5742 37.8776L26.5918 53.0167C29.5039 53.254 32.1811 54.4274 34.1976 56.4316C37.2623 59.4781 38.3945 64.0412 37.2272 68.6372C37.1807 68.8188 37.0891 68.979 36.9663 69.1095C39.6007 70.4606 42.5899 71.2251 45.7554 71.2251H50.8137C55.0099 71.2251 58.8956 69.8823 62.0565 67.6088L61.1363 66.6932Z" fill="#FFE2B8"/>
<path d="M31.8706 36.679H27.7797C27.1136 36.679 26.5742 37.2154 26.5742 37.8776L26.5918 53.0175C28.0581 53.1365 29.4635 53.4943 30.7559 54.0749C30.6964 53.4668 30.6651 52.8511 30.6651 52.2278V37.8776C30.6651 37.2154 31.2045 36.679 31.8706 36.679Z" fill="#FFC987"/>
<path d="M87.104 39.2295C86.8705 39.2295 86.6607 39.0869 86.5745 38.8694C85.4278 35.9847 84.5573 35.1142 81.6718 33.9667C81.4552 33.8805 81.3125 33.6707 81.3125 33.4373C81.3125 33.2038 81.4544 32.994 81.6718 32.9078C84.5573 31.7611 85.4278 30.8906 86.5745 28.0043C86.6607 27.7877 86.8705 27.6458 87.104 27.6458C87.3375 27.6458 87.5473 27.7877 87.6335 28.0043C88.7802 30.8906 89.6515 31.7611 92.5362 32.9078C92.7536 32.994 92.8963 33.2038 92.8963 33.4373C92.8963 33.6707 92.7536 33.8805 92.5362 33.9667C89.6515 35.1134 88.7802 35.984 87.6335 38.8694C87.5473 39.0869 87.3375 39.2295 87.104 39.2295Z" fill="#FFAF10"/>
<path d="M83.699 31.9976C83.6814 31.9907 83.6654 31.9816 83.6486 31.9732C83.1108 32.2959 82.4684 32.5912 81.6718 32.9078C81.4552 32.994 81.3125 33.2046 81.3125 33.438C81.3125 33.6715 81.4544 33.8813 81.6718 33.9675C84.5573 35.1142 85.4278 35.9847 86.5745 38.8702C86.6607 39.0876 86.8705 39.2295 87.104 39.2295C87.3375 39.2295 87.5473 39.0876 87.6335 38.8702C87.9562 38.0584 88.2568 37.4069 88.5864 36.8629C87.4473 34.0079 86.5715 33.139 83.699 31.9976Z" fill="#F39600"/>
<path d="M12.1138 39.289C11.8803 39.289 11.6705 39.1464 11.5843 38.9297C10.4376 36.0435 9.56707 35.173 6.68161 34.0263C6.46417 33.94 6.32227 33.7302 6.32227 33.4968C6.32227 33.2633 6.46417 33.0535 6.68161 32.9673C9.56707 31.8206 10.4376 30.9501 11.5843 28.0646C11.6705 27.8479 11.8803 27.7045 12.1138 27.7045C12.3472 27.7045 12.557 27.8472 12.6433 28.0646C13.79 30.9501 14.6605 31.8206 17.5459 32.9673C17.7626 33.0535 17.9053 33.2633 17.9053 33.4968C17.9053 33.7302 17.7634 33.94 17.5459 34.0263C14.6605 35.173 13.79 36.0435 12.6433 38.9297C12.557 39.1464 12.3472 39.289 12.1138 39.289Z" fill="#FFCB00"/>
<path d="M8.69807 32.0578C8.68205 32.0517 8.66756 32.0433 8.65306 32.0357C8.11595 32.3569 7.47507 32.6514 6.68161 32.9673C6.46494 33.0535 6.32227 33.2633 6.32227 33.4967C6.32227 33.7302 6.46494 33.94 6.68161 34.0262C9.56707 35.1729 10.4376 36.0435 11.5843 38.9297C11.6705 39.1463 11.8803 39.289 12.1138 39.289C12.3472 39.289 12.557 39.1463 12.6433 38.9297C12.9637 38.1232 13.2628 37.4747 13.5893 36.933C12.4487 34.0697 11.5744 33.2007 8.69807 32.0578Z" fill="#FFAF10"/>
<path d="M20.4916 15.962C20.3016 15.962 20.1315 15.846 20.0621 15.6706C19.132 13.3306 18.4263 12.6241 16.0864 11.6949C15.9109 11.6247 15.7949 11.4553 15.7949 11.2661C15.7949 11.0761 15.9109 10.906 16.0864 10.8358C18.4263 9.90577 19.132 9.20004 20.0621 6.86009C20.1323 6.68462 20.3016 6.56865 20.4916 6.56865C20.6808 6.56865 20.851 6.68462 20.9204 6.86009C21.8504 9.20004 22.5561 9.90577 24.8961 10.8358C25.0716 10.906 25.1875 11.0761 25.1875 11.2661C25.1875 11.4553 25.0716 11.6247 24.8961 11.6949C22.5561 12.6249 21.8504 13.3306 20.9204 15.6706C20.851 15.846 20.6808 15.962 20.4916 15.962Z" fill="#FFAF10"/>
<path d="M22.0236 13.5496C21.1248 11.289 20.4313 10.5527 18.2768 9.66696C17.7366 10.1049 17.0523 10.452 16.0864 10.8358C15.9109 10.906 15.7949 11.0761 15.7949 11.2653C15.7949 11.4553 15.9109 11.6247 16.0864 11.6941C18.4263 12.6241 19.132 13.3306 20.0621 15.6706C20.1323 15.846 20.3016 15.962 20.4916 15.962C20.6808 15.962 20.851 15.846 20.9204 15.6706C21.2866 14.7505 21.6185 14.0844 22.0282 13.5564C22.0266 13.5542 22.0251 13.5519 22.0236 13.5496Z" fill="#F39600"/>
<path d="M17.7013 68.5769L2.00301 85.8424C1.28584 86.5549 1.28508 87.7116 2.00301 88.4242C2.72017 89.1375 3.8829 89.1375 4.60007 88.4242L21.9685 72.8189L17.7013 68.5769Z" fill="#C7C8CA"/>
<path d="M19.3462 70.2119L17.7013 68.5769L2.00301 85.8424C1.28584 86.5549 1.28508 87.7116 2.00301 88.4242C2.72017 89.1375 3.8829 89.1375 4.60007 88.4242L5.39048 87.7139C4.86939 87.0005 4.93042 85.9972 5.57816 85.3541L19.3462 70.2119Z" fill="#A7A9AC"/>
<path d="M34.1984 56.4316C31.1328 53.3852 26.543 52.2591 21.9195 53.4195C21.4602 53.5347 21.1284 53.9315 21.0971 54.4007L20.4219 64.6325L25.9479 70.1257L36.2415 69.4543C36.713 69.4238 37.112 69.0934 37.228 68.6372C38.3953 64.0412 37.2631 59.4788 34.1984 56.4316Z" fill="#9B5729"/>
<path d="M25.0699 54.4487C24.2307 54.4762 23.383 54.583 22.5392 54.7768L21.8945 64.5432L24.7144 59.826L25.0699 54.4487Z" fill="#7F441C"/>
<path d="M24.1987 73.6581C23.818 74.0373 23.1947 74.0373 22.8132 73.6581L16.8676 67.7476C16.4869 67.3692 16.4869 66.7497 16.8676 66.3705L18.8268 64.4242C19.2075 64.045 19.8308 64.045 20.2115 64.4242L26.1572 70.334C26.5379 70.7132 26.5379 71.3327 26.1572 71.7111L24.1987 73.6581Z" fill="#8A8C8E"/>
<path d="M19.235 68.9889L21.4262 66.8107C21.665 66.5734 21.9884 66.4735 22.3028 66.5025L20.2115 64.4242C19.8308 64.045 19.2075 64.045 18.826 64.4242L16.8676 66.3713C16.4869 66.7497 16.4869 67.3692 16.8676 67.7484L18.9176 69.7854C18.9107 69.4978 19.0152 69.2071 19.235 68.9889Z" fill="#6D6E71"/>
<path d="M68.8863 51.4084C64.8541 51.4084 61.5742 54.6646 61.5742 58.6686C61.5742 59.7664 61.8214 60.8086 62.2624 61.7425C62.3723 61.7318 62.4829 61.7264 62.595 61.7264C62.8117 61.7264 63.0261 61.7455 63.2351 61.7837C63.1985 61.5777 63.1795 61.3671 63.1795 61.1542C63.1795 60.2128 63.5472 59.3285 64.2155 58.664C64.8823 58.0017 65.7674 57.6363 66.7081 57.6363C67.6488 57.6363 68.5338 58.001 69.2006 58.664L69.9582 59.417C70.0253 58.5846 70.3832 57.811 70.9828 57.2136C71.6497 56.5506 72.5347 56.1859 73.4754 56.1859C74.4169 56.1859 75.3019 56.5506 75.9679 57.2129L76.0702 57.3143C75.4293 53.9559 72.453 51.4084 68.8863 51.4084Z" fill="#FF99A3"/>
<path d="M62.595 61.7264C62.8117 61.7264 63.0261 61.7455 63.2352 61.7837C63.1985 61.5777 63.1795 61.3671 63.1795 61.1542C63.1795 60.2761 63.5029 59.4506 64.0889 58.8036C64.0881 58.7586 64.0858 58.7136 64.0858 58.6686C64.0858 54.5296 66.9858 51.0666 70.8753 50.1709C70.2359 50.0237 69.5706 49.9435 68.8863 49.9435C64.0393 49.9435 60.1094 53.8498 60.1094 58.6686C60.1094 59.9206 60.3764 61.11 60.854 62.1857C61.3797 61.8874 61.9748 61.7264 62.595 61.7264Z" fill="#FF6666"/>
<path d="M90.3419 96.8844C90.0687 96.8844 89.7964 96.7807 89.5873 96.5739L82.7208 89.7486C81.9205 89.9661 81.0935 90.0775 80.2618 90.0775C77.7914 90.0775 75.4698 89.1215 73.7249 87.3873L59.6753 73.4209C59.2847 73.0333 59.0703 72.5175 59.0703 71.9698C59.0703 71.422 59.2847 70.907 59.6746 70.5186C60.0644 70.1318 60.5832 69.9174 61.1348 69.9174C61.6857 69.9174 62.2045 70.1311 62.5944 70.5179L70.5564 78.4334L71.7497 77.2463L61.1348 66.6932C60.745 66.3064 60.5298 65.7907 60.5298 65.2421C60.5298 64.6943 60.745 64.1793 61.1348 63.7918C61.5247 63.4042 62.0427 63.1906 62.5944 63.1906C63.146 63.1906 63.664 63.4042 64.0539 63.7918L74.6695 74.344L75.8635 73.1569L65.2479 62.6046C64.8588 62.217 64.6436 61.7021 64.6436 61.1535C64.6436 60.6057 64.8588 60.0899 65.2479 59.7024C65.6377 59.3148 66.1565 59.1012 66.7074 59.1012C67.259 59.1012 67.777 59.3148 68.1669 59.7024L78.7833 70.2547L79.9773 69.0675L72.0152 61.1535C71.6261 60.7659 71.4109 60.2502 71.4109 59.7024C71.4109 59.1546 71.6261 58.6396 72.0159 58.2513C72.405 57.8644 72.9231 57.6508 73.4755 57.6508C74.0271 57.6508 74.5451 57.8644 74.9357 58.252L85.1447 68.4007V64.7363C85.1447 63.3126 86.3097 62.1552 87.741 62.1552C89.173 62.1552 90.3373 63.3126 90.3373 64.7363V73.9267C91.6625 76.0797 92.0356 78.7165 91.3612 81.1609L98.2215 87.9809C98.4222 88.1808 98.5359 88.4524 98.5359 88.7354C98.5359 89.0185 98.4222 89.2901 98.2215 89.49L91.0956 96.5732C90.8866 96.7807 90.6135 96.8844 90.3419 96.8844Z" fill="#FFC987"/>
<path d="M47.646 55.0881H50.031C50.8405 55.0881 51.4958 54.4327 51.4958 53.6232C51.4958 52.8138 50.8405 52.1584 50.031 52.1584H48V48.6054C48 47.7959 47.3439 47.1405 46.5352 47.1405C45.7257 47.1405 45.0703 47.7959 45.0703 48.6054V52.5246C45.0703 53.9383 46.2262 55.0881 47.646 55.0881Z" fill="black"/>
<path d="M42.4185 44.0925C41.8486 43.5196 40.9209 43.5165 40.3471 44.0864C38.4169 46.0045 35.2766 46.0045 33.3471 44.0864C32.7734 43.5165 31.8456 43.5196 31.2757 44.0925C30.705 44.667 30.7081 45.594 31.2818 46.1647C32.8161 47.6898 34.831 48.452 36.8467 48.452C38.8624 48.452 40.8781 47.689 42.4124 46.1647C42.9861 45.594 42.9892 44.667 42.4185 44.0925Z" fill="black"/>
<path d="M59.7206 48.452C61.7356 48.452 63.752 47.6898 65.2863 46.1647C65.8601 45.594 65.8623 44.667 65.2924 44.0933C64.7225 43.5196 63.7948 43.5165 63.221 44.0864C61.2908 46.0052 58.1505 46.0052 56.2203 44.0864C55.6465 43.5165 54.7188 43.5196 54.1481 44.0933C53.5782 44.667 53.5812 45.594 54.155 46.1647C55.6892 47.6898 57.7042 48.452 59.7206 48.452Z" fill="black"/>
<path d="M40.5238 58.3428C39.9531 58.9165 39.9561 59.8443 40.5299 60.4142C42.6547 62.526 45.447 63.5812 48.2455 63.5812C51.0638 63.5812 53.8867 62.5115 56.0382 60.3737C56.612 59.8031 56.6143 58.8753 56.0443 58.3016C55.4744 57.7279 54.5467 57.7256 53.9729 58.2955C50.8243 61.4251 45.7202 61.4434 42.5952 58.3367C42.0214 57.766 41.0937 57.7691 40.5238 58.3428Z" fill="black"/>
<path d="M81.1309 35.3286C83.6425 36.3265 84.2155 36.8987 85.2127 39.4096C85.5224 40.1901 86.2648 40.6944 87.104 40.6944C87.9433 40.6944 88.6848 40.1901 88.9946 39.4103C89.9933 36.8987 90.5655 36.3265 93.0763 35.3286C93.8568 35.0188 94.3604 34.2765 94.3604 33.4373C94.3604 32.598 93.8568 31.8557 93.0771 31.5459C90.5655 30.548 89.9933 29.9758 88.9946 27.4619C88.6841 26.6837 87.9417 26.1809 87.104 26.1809C86.2655 26.1809 85.5232 26.6837 85.2134 27.4634C84.2155 29.9758 83.6425 30.548 81.1317 31.5459C80.352 31.8557 79.8477 32.598 79.8477 33.4373C79.8477 34.2773 80.352 35.0188 81.1309 35.3286ZM87.104 30.3641C87.8746 31.7801 88.7611 32.6667 90.1779 33.4373C88.7611 34.2078 87.8746 35.0944 87.104 36.5104C86.3334 35.0944 85.4477 34.2086 84.0309 33.4373C85.4477 32.6667 86.3334 31.7801 87.104 30.3641Z" fill="black"/>
<path d="M6.14069 35.3873C8.65231 36.386 9.22528 36.9582 10.2224 39.4691C10.5314 40.2496 11.2738 40.7531 12.1138 40.7531C12.9523 40.7531 13.6946 40.2503 14.0044 39.4706C15.0023 36.9582 15.5745 36.386 18.0869 35.3873C18.8666 35.0776 19.3701 34.336 19.3701 33.4968C19.3701 32.6575 18.8666 31.9152 18.0869 31.6062C15.5745 30.6075 15.0023 30.0353 14.0044 27.5229C13.6946 26.7432 12.9523 26.2396 12.1138 26.2396C11.2738 26.2396 10.5314 26.7439 10.2232 27.5229C9.22528 30.0353 8.65231 30.6075 6.13993 31.6062C5.36096 31.9159 4.85742 32.6583 4.85742 33.4968C4.85742 34.3352 5.36097 35.0776 6.14069 35.3873ZM12.1138 30.4236C12.8844 31.8396 13.7709 32.7262 15.1869 33.4968C13.7709 34.2673 12.8844 35.1539 12.1138 36.5699C11.3432 35.1539 10.4567 34.2673 9.04064 33.4968C10.4567 32.7262 11.3432 31.8396 12.1138 30.4236Z" fill="black"/>
<path d="M15.5454 13.056C17.5077 13.8357 17.9205 14.2485 18.7002 16.2107C18.994 16.9493 19.6966 17.4269 20.4916 17.4269C21.2858 17.4269 21.9885 16.95 22.2815 16.2115C23.062 14.2485 23.4747 13.8357 25.437 13.056C26.1755 12.763 26.6524 12.0603 26.6524 11.2653C26.6524 10.4719 26.1763 9.76921 25.437 9.47471C23.4747 8.69422 23.062 8.28147 22.2822 6.31994C21.9885 5.58141 21.2858 5.10381 20.4916 5.10381C19.6966 5.10381 18.994 5.58065 18.701 6.31918C17.9213 8.28147 17.5077 8.69422 15.5432 9.47547C14.8062 9.76921 14.3301 10.4719 14.3301 11.2653C14.3301 12.0603 14.8077 12.763 15.5454 13.056ZM20.4909 9.32899C21.0051 10.1575 21.5994 10.7519 22.4272 11.2653C21.5994 11.7788 21.0051 12.3731 20.4909 13.2009C19.9774 12.3731 19.3838 11.7788 18.5553 11.2653C19.3838 10.7511 19.9774 10.1575 20.4909 9.32899Z" fill="black"/>
<path d="M99.2544 86.9417L98.2992 85.9926C97.7255 85.4227 96.7978 85.425 96.2278 85.9987C95.6572 86.5725 95.6602 87.5002 96.2339 88.0701L96.903 88.7354L90.3417 95.2578L83.7537 88.7095C83.3829 88.3402 82.8428 88.1983 82.3369 88.3349C81.6609 88.5187 80.9629 88.6126 80.2617 88.6126C78.1819 88.6126 76.2265 87.8084 74.7578 86.3482L60.7082 72.3817C60.5953 72.2696 60.5358 72.1269 60.5358 71.9697C60.5358 71.8126 60.5953 71.6699 60.7082 71.5577C60.9386 71.3288 61.3323 71.3288 61.5612 71.557L69.524 79.4725C70.0955 80.0401 71.0179 80.0401 71.5893 79.4718L72.7826 78.2846C73.0595 78.01 73.2144 77.6361 73.2144 77.2462C73.2144 76.8564 73.0595 76.4825 72.7826 76.2071L62.1677 65.6556C62.0548 65.5427 61.9945 65.4 61.9945 65.2428C61.9945 65.0857 62.0548 64.943 62.167 64.8309C62.3974 64.602 62.7903 64.6012 63.0207 64.8316L73.6371 75.3831C74.2077 75.9515 75.1309 75.9508 75.7024 75.3831L76.8964 74.196C77.1725 73.9213 77.3282 73.5467 77.3282 73.1576C77.3282 72.767 77.1725 72.3932 76.8964 72.1185L66.2808 61.5662C66.1678 61.4541 66.1083 61.3114 66.1083 61.1542C66.1083 60.9971 66.1678 60.8544 66.2808 60.7422C66.5112 60.5126 66.9033 60.5134 67.1345 60.7422L77.7501 71.2945C78.3215 71.8622 79.2439 71.8629 79.8154 71.2945L81.0094 70.1074C81.2863 69.8327 81.442 69.4589 81.442 69.0683C81.442 68.6784 81.2863 68.3045 81.0102 68.0299L73.0481 60.1159C72.9352 60.0037 72.8756 59.861 72.8756 59.7031C72.8756 59.5459 72.9359 59.4033 73.0481 59.2919C73.2785 59.0622 73.6714 59.0622 73.9026 59.2919L84.1115 69.4406C84.5311 69.8579 85.1606 69.9815 85.7068 69.7541C86.2531 69.5268 86.6086 68.9935 86.6086 68.4014V64.737C86.6094 64.1221 87.1168 63.6208 87.7408 63.6208C88.3642 63.6208 88.8723 64.1213 88.8723 64.737V73.9274C88.8723 74.1991 88.9471 74.4646 89.0897 74.6957C90.2021 76.5031 90.5149 78.718 89.948 80.7726C89.8077 81.2822 89.9526 81.8277 90.328 82.2008L91.3503 83.217C91.9241 83.7877 92.851 83.7847 93.4217 83.2109C93.9916 82.6372 93.9894 81.7095 93.4156 81.1395L92.9708 80.697C93.4309 78.2518 93.0189 75.7013 91.802 73.5299V64.737C91.802 62.5062 89.9801 60.6911 87.7401 60.6911C85.5016 60.6919 83.6797 62.5062 83.6789 64.737V64.8797L79.0051 60.2334C79.0853 59.7229 79.128 59.2011 79.128 58.6686C79.128 56.9077 78.6771 55.2506 77.8836 53.804C78.3757 52.9915 78.6603 52.0424 78.6603 51.0277V46.2372C78.6603 44.1452 77.4541 42.3271 75.6932 41.4237V35.7085C75.6932 28.5422 72.8779 22.4753 67.5511 18.1631C66.2167 17.0828 64.7389 16.1352 63.1451 15.3265C62.3943 7.82827 56.0153 1.95284 48.2829 1.95284C40.5497 1.95284 34.1715 7.82827 33.42 15.3265C31.8262 16.1352 30.3484 17.0828 29.0148 18.1631C23.6879 22.4753 20.8719 28.5422 20.8719 35.7085V41.4237C19.1117 42.3278 17.9055 44.1459 17.9055 46.2372V51.0277C17.9055 52.5604 18.5548 53.9436 19.5924 54.9309L19.0789 62.7167C18.5937 62.8037 18.1474 63.0326 17.7926 63.3858L15.8341 65.3329C15.371 65.7929 15.1162 66.4063 15.1162 67.0602C15.1162 67.6377 15.3161 68.1832 15.6816 68.6204L0.939947 84.8337C0.333406 85.4509 0 86.2665 0 87.1332C0 88.0137 0.344851 88.8415 0.970465 89.4633C1.59303 90.0828 2.42158 90.4238 3.30126 90.4238C4.16796 90.4238 4.98279 90.0935 5.60306 89.4923L21.9247 74.8277C22.3657 75.2016 22.9188 75.4076 23.5055 75.4076C24.1579 75.4076 24.7705 75.155 25.2306 74.6973L27.1898 72.7502C27.5453 72.3962 27.7765 71.9514 27.8658 71.4685L36.3352 70.9161C36.5793 70.9001 36.8136 70.849 37.0341 70.7696C38.2883 71.3517 39.6105 71.8103 40.9854 72.1353V74.8567H31.2258C22.4649 74.8567 15.3375 81.946 15.3375 90.6596V95.8636C15.3375 97.2338 16.4529 98.3493 17.8239 98.3493H78.7419C80.1137 98.3493 81.2291 97.2338 81.2291 95.8636V91.4973C81.5747 91.4668 81.9196 91.4202 82.2606 91.3561L88.5557 97.613C89.0333 98.0876 89.668 98.3493 90.3417 98.3493C91.0162 98.3493 91.6502 98.0876 92.1278 97.613L99.2537 90.5291C99.7282 90.0576 99.9998 89.4038 99.9998 88.7354C100.001 88.0678 99.7282 87.4132 99.2544 86.9417ZM55.582 72.136C56.2809 71.972 56.966 71.7721 57.6351 71.5387C57.6183 71.6806 57.6061 71.824 57.6061 71.9697C57.6061 72.9104 57.9746 73.7947 58.6429 74.46L59.0427 74.8567H55.582V72.136ZM75.9679 57.2129C75.3018 56.5506 74.4168 56.1859 73.4753 56.1859C72.5346 56.1859 71.6496 56.5506 70.9828 57.2136C70.3823 57.811 70.0245 58.5846 69.9582 59.417L69.1998 58.664C68.5337 58.001 67.6487 57.6363 66.708 57.6363C65.7673 57.6363 64.8823 58.0017 64.2155 58.664C63.5471 59.3285 63.1794 60.2128 63.1794 61.1542C63.1794 61.3671 63.1985 61.5777 63.2351 61.7837C63.026 61.7455 62.8117 61.7264 62.5942 61.7264C62.4828 61.7264 62.3722 61.7318 62.2623 61.7425C61.8206 60.8086 61.5742 59.7664 61.5742 58.6686C61.5742 54.6646 64.8541 51.4084 68.8862 51.4084C72.4522 51.4084 75.4285 53.9559 76.0693 57.3143L75.9679 57.2129ZM75.7313 51.0269C75.7313 51.049 75.7291 51.0712 75.7291 51.0933C74.5267 50.0175 73.0694 49.2195 71.4589 48.8037V43.7431H73.1709C74.5831 43.7431 75.7313 44.8616 75.7313 46.2364V51.0269ZM48.2837 4.88178C53.9104 4.88178 58.6452 8.74685 59.9399 13.9448C56.4029 12.6684 52.4463 11.9947 48.2837 11.9947C44.1211 11.9947 40.1644 12.6684 36.6267 13.9448C37.9221 8.74685 42.657 4.88178 48.2837 4.88178ZM20.836 46.2364C20.836 44.8616 21.985 43.7431 23.3964 43.7431H25.1085V51.5129C23.9297 51.5411 22.7388 51.7036 21.5623 51.9989C21.4067 52.0378 21.2579 52.092 21.1168 52.1568C20.9382 51.8173 20.836 51.4343 20.836 51.0269V46.2364ZM3.62093 87.3339C3.60262 87.3507 3.58507 87.3675 3.56753 87.385C3.47674 87.475 3.37298 87.4941 3.30126 87.4941C3.2303 87.4941 3.12654 87.475 3.03575 87.385C2.94802 87.2988 2.9297 87.2004 2.9297 87.1332C2.9297 87.0661 2.94802 86.9677 3.03575 86.8807C3.0533 86.8639 3.07009 86.8456 3.08687 86.8273L17.7552 70.6956L19.8373 72.7647L3.62093 87.3339ZM23.5055 72.281L18.2527 67.0594L19.5184 65.8013L24.7713 71.0229L23.5055 72.281ZM35.8713 68.01L26.5108 68.6204L26.3628 68.4732L31.6103 65.3726C32.3069 64.9613 32.538 64.0633 32.126 63.3668C31.7148 62.6702 30.8168 62.439 30.1203 62.8503L24.2448 66.3217L27.7284 60.4958C28.1435 59.8008 27.9176 58.902 27.2226 58.4862C26.5283 58.0712 25.6296 58.2978 25.2138 58.9921L22.0865 64.2228L21.927 64.0633L22.5397 54.7768C23.5208 54.551 24.5088 54.4365 25.4808 54.4365C28.4677 54.4365 31.196 55.5145 33.1644 57.4707C35.7996 60.0899 36.8021 64.013 35.8713 68.01ZM35.2297 55.3932C33.2926 53.4676 30.7978 52.2095 28.0382 51.7288V38.1438H33.7893C34.5987 38.1438 35.2541 37.4885 35.2541 36.679C35.2541 35.8703 34.5987 35.2141 33.7893 35.2141H27.7788C26.3063 35.2141 25.1085 36.4089 25.1085 37.8776V40.8134H23.8023V35.7078C23.8023 29.4562 26.2422 24.1766 30.8588 20.439C35.2518 16.8829 41.4401 14.9236 48.2837 14.9236C55.1273 14.9236 61.3155 16.8829 65.7085 20.439C70.3244 24.1766 72.7643 29.4562 72.7643 35.7078V40.8134H71.4589V37.8776C71.4589 36.4089 70.261 35.2141 68.7886 35.2141H62.5042C59.8766 35.2141 57.3719 33.8286 55.9688 31.6001C55.4782 30.8173 54.6329 30.3511 53.7067 30.3511C52.7812 30.3511 51.9351 30.8173 51.4445 31.5985C50.0415 33.8286 47.5375 35.2149 44.9092 35.2149H40.6252C39.8165 35.2149 39.1604 35.8703 39.1604 36.6798C39.1604 37.4885 39.8165 38.1446 40.6252 38.1446H44.9092C48.4027 38.1446 51.7368 36.3715 53.7067 33.4906C55.6766 36.3708 59.0107 38.1446 62.5042 38.1446H68.5292V48.4871C63.0466 48.6763 58.6445 53.1693 58.6445 58.6686C58.6445 60.2982 59.0336 61.8386 59.721 63.2066C59.2975 63.7971 59.0656 64.5013 59.0656 65.2428C59.0656 66.0119 59.3158 66.7413 59.7713 67.3463C57.1415 68.879 54.0805 69.7602 50.8136 69.7602H45.7553C43.2856 69.7602 40.9335 69.2559 38.7965 68.3488C39.8295 63.466 38.5203 58.664 35.2297 55.3932ZM41.0632 77.7864C42.6364 77.7864 43.9151 76.5108 43.9151 74.9429V72.6075C44.5216 72.6609 45.135 72.6899 45.7553 72.6899H50.8136C51.4331 72.6899 52.0465 72.6617 52.6523 72.6075V74.9429C52.6523 76.5108 53.9317 77.7864 55.5049 77.7864H55.8521L48.2837 89.374L40.7153 77.7864H41.0632ZM18.2672 95.4196V90.6596C18.2672 83.5611 24.08 77.7864 31.2258 77.7864H31.3837L42.9003 95.4196H18.2672ZM53.6662 95.4196L56.9416 90.4047C57.3841 89.7272 57.1933 88.8201 56.5166 88.3776C55.8391 87.9351 54.9312 88.1258 54.4887 88.8026L51.1455 93.9219C50.6267 94.7169 49.7996 95.2586 48.865 95.4196H47.7015C46.7677 95.2586 45.9407 94.7169 45.4219 93.9219L34.8826 77.7864H37.2156L47.0569 92.8546C47.3277 93.2681 47.7885 93.5176 48.2837 93.5176C48.7781 93.5176 49.2396 93.2681 49.5097 92.8546L59.3509 77.7864H61.684L58.1882 83.1385C57.7457 83.816 57.9364 84.7239 58.6139 85.1664C59.2907 85.6089 60.1986 85.4181 60.6411 84.7406L63.9263 79.7113L72.6925 88.4257C74.2436 89.9676 76.1876 90.9754 78.2994 91.3622V95.4196H53.6662Z" fill="black"/>
<path d="M80.2618 88.6126C80.963 88.6126 81.6611 88.5188 82.3363 88.3349C82.8421 88.1983 83.3823 88.3402 83.7538 88.7095L90.3419 95.2578L91.8029 93.8052L84.677 86.722C83.7943 86.9623 82.8818 87.0844 81.9647 87.0844C79.2403 87.0844 76.6798 86.03 74.7549 84.1173L70.5084 79.896C70.1513 79.8845 69.7973 79.7441 69.5234 79.4725L61.5613 71.557C61.3317 71.3289 60.9388 71.3289 60.7076 71.5577C60.5947 71.6699 60.5352 71.8126 60.5352 71.9697C60.5352 72.1277 60.5954 72.2696 60.7083 72.3817L74.758 86.3482C76.2266 87.8085 78.1813 88.6126 80.2618 88.6126Z" fill="#FFAF68"/>
</g>
<defs>
<clipPath id="clip0_562_4168">
<rect width="100" height="100" fill="white"/>
</clipPath>
</defs>
</svg>
