<svg width="100" height="100" viewBox="0 0 100 100" fill="none" xmlns="http://www.w3.org/2000/svg">
<g clip-path="url(#clip0_559_2283)">
<path d="M93.3901 80.9852C98.0774 79.0424 100.302 73.6675 98.3593 68.9802C96.4164 64.293 91.0416 62.0682 86.3543 64.0111C81.667 65.954 79.4422 71.3288 81.3851 76.0161C83.328 80.7034 88.7028 82.9281 93.3901 80.9852Z" fill="#5290DB"/>
<path d="M37.0484 16.2102C41.2551 16.2102 44.6652 12.8 44.6652 8.59336C44.6652 4.38672 41.2551 0.976562 37.0484 0.976562C32.8418 0.976562 29.4316 4.38672 29.4316 8.59336C29.4316 12.8 32.8418 16.2102 37.0484 16.2102Z" fill="#5290DB"/>
<path d="M44.4695 99.0234C49.0587 99.0234 52.7789 95.3032 52.7789 90.714C52.7789 86.1249 49.0587 82.4047 44.4695 82.4047C39.8804 82.4047 36.1602 86.1249 36.1602 90.714C36.1602 95.3032 39.8804 99.0234 44.4695 99.0234Z" fill="#5290DB"/>
<path d="M81.1941 28.1871C87.3862 28.1871 92.4059 23.1675 92.4059 16.9754C92.4059 10.7833 87.3862 5.76367 81.1941 5.76367C75.0021 5.76367 69.9824 10.7833 69.9824 16.9754C69.9824 23.1675 75.0021 28.1871 81.1941 28.1871Z" fill="#5290DB"/>
<path d="M12.1883 60.9996C18.3803 60.9996 23.4 55.98 23.4 49.7879C23.4 43.5958 18.3803 38.5762 12.1883 38.5762C5.99622 38.5762 0.976562 43.5958 0.976562 49.7879C0.976562 55.98 5.99622 60.9996 12.1883 60.9996Z" fill="#5290DB"/>
<path d="M53.5156 72.8516C65.9205 72.8516 75.9766 62.7955 75.9766 50.3906C75.9766 37.9858 65.9205 27.9297 53.5156 27.9297C41.1108 27.9297 31.0547 37.9858 31.0547 50.3906C31.0547 62.7955 41.1108 72.8516 53.5156 72.8516Z" fill="#F5C84C"/>
<path d="M91.7461 74.7441C91.1703 74.6394 90.5773 74.5844 89.9715 74.5844C89.3656 74.5844 88.7727 74.639 88.1969 74.7441C85.8633 75.1691 84.0781 76.9894 83.6113 79.2683C85.2484 80.7793 87.4352 81.7031 89.8383 81.7031C92.3488 81.7031 94.623 80.6949 96.2809 79.0629C95.7519 76.8808 94.009 75.1562 91.7461 74.7441Z" fill="#FC657E"/>
<path d="M89.8379 67.6144C87.9266 67.6144 86.377 69.1641 86.377 71.0754C86.377 72.9867 87.9266 74.5363 89.8379 74.5363C91.7496 74.5363 93.2992 72.9867 93.2992 71.0754C93.2992 69.1641 91.7492 67.6144 89.8379 67.6144Z" fill="#F9D0B4"/>
<path d="M38.6301 10.4394C38.1527 10.3523 37.6609 10.307 37.1586 10.307C36.6562 10.307 36.1645 10.3523 35.6871 10.4394C33.752 10.7918 32.2719 12.3011 31.8848 14.1914C33.2422 15.4441 35.0555 16.2101 37.0484 16.2101C39.1301 16.2101 41.016 15.3742 42.3906 14.0207C41.9516 12.2113 40.5062 10.7812 38.6301 10.4394Z" fill="#F5C84C"/>
<path d="M39.0715 9.42949C40.1921 8.30888 40.1921 6.49202 39.0715 5.37142C37.9509 4.25081 36.134 4.25081 35.0134 5.37142C33.8928 6.49202 33.8928 8.30888 35.0134 9.42949C36.134 10.5501 37.9509 10.5501 39.0715 9.42949Z" fill="#F9D0B4"/>
<path d="M46.1949 92.7281C45.6742 92.6332 45.1379 92.5836 44.5895 92.5836C44.0414 92.5836 43.5047 92.6332 42.984 92.7281C40.873 93.1129 39.2582 94.7594 38.8359 96.8211C40.3168 98.1879 42.2949 99.0235 44.4688 99.0235C46.7398 99.0235 48.7969 98.1113 50.2969 96.6348C49.8184 94.6613 48.2418 93.1012 46.1949 92.7281Z" fill="#B2E26D"/>
<path d="M44.4687 92.5407C46.1979 92.5407 47.5996 91.1389 47.5996 89.4098C47.5996 87.6807 46.1979 86.2789 44.4687 86.2789C42.7396 86.2789 41.3379 87.6807 41.3379 89.4098C41.3379 91.1389 42.7396 92.5407 44.4687 92.5407Z" fill="#F9D0B4"/>
<path d="M83.5227 19.6926C82.8199 19.5645 82.0961 19.4977 81.3566 19.4977C80.6172 19.4977 79.893 19.5645 79.1906 19.6926C76.3422 20.2114 74.1633 22.4332 73.5938 25.2153C75.5918 27.0594 78.2609 28.1871 81.1945 28.1871C84.2586 28.1871 87.0348 26.9567 89.0586 24.9645C88.4117 22.3012 86.2844 20.1957 83.5227 19.6926Z" fill="#70D6F9"/>
<path d="M81.1934 19.4398C83.5265 19.4398 85.418 17.5484 85.418 15.2152C85.418 12.882 83.5265 10.9906 81.1934 10.9906C78.8602 10.9906 76.9688 12.882 76.9688 15.2152C76.9688 17.5484 78.8602 19.4398 81.1934 19.4398Z" fill="#F9D0B4"/>
<path d="M14.5168 52.5051C13.8141 52.377 13.0902 52.3102 12.3508 52.3102C11.6113 52.3102 10.8871 52.377 10.1848 52.5051C7.33633 53.0238 5.15742 55.2457 4.58789 58.0278C6.58594 59.8719 9.25508 60.9996 12.1887 60.9996C15.2527 60.9996 18.0289 59.7692 20.0527 57.777C19.4059 55.1137 17.2785 53.0082 14.5168 52.5051Z" fill="#B598F9"/>
<path d="M15.1694 51.0108C16.8189 49.3612 16.8189 46.6868 15.1694 45.0372C13.5198 43.3876 10.8453 43.3876 9.19578 45.0372C7.54622 46.6868 7.54622 49.3612 9.19578 51.0108C10.8453 52.6603 13.5198 52.6604 15.1694 51.0108Z" fill="#F9D0B4"/>
<path d="M67.4602 64.9774L63.0309 63.8625C60.6832 63.2715 58.8371 62.259 58.8609 62.2711C57.8957 61.7953 57.2844 60.8125 57.2844 59.7363V58.4051C56.1547 58.9965 54.8727 59.3332 53.5152 59.3332C52.1578 59.3332 50.8762 58.9965 49.7461 58.4051V59.7363C49.7461 60.8125 49.1348 61.7953 48.1695 62.2711C46.8652 62.9141 45.727 63.4277 43.9996 63.8625L39.5703 64.9774C38.7746 65.1777 38.1156 65.6699 37.6816 66.3195C41.743 70.3563 47.3375 72.8516 53.5156 72.8516C59.6938 72.8516 65.2883 70.3563 69.3488 66.3195C68.9148 65.6699 68.2559 65.1777 67.4602 64.9774Z" fill="#70D6F9"/>
<path d="M60.5273 41.3668C59.9926 40.8058 59.1227 40.7543 58.5129 41.2328C57.5488 41.9894 55.8805 42.925 53.5242 42.925C51.1621 42.925 49.4852 41.9851 48.5168 41.2273C47.9074 40.7504 47.0395 40.8039 46.5055 41.364L46.5027 41.3672C45.7523 42.1539 45.334 43.1992 45.334 44.2863V51.1523C45.334 55.6519 49.0156 59.3336 53.5152 59.3336C58.0148 59.3336 61.6965 55.6519 61.6965 51.1523V44.2863C61.6961 43.1988 61.2773 42.1535 60.5273 41.3668Z" fill="#F9D0B4"/>
<path d="M62.2215 44.9168C62.0426 44.9168 61.8676 44.932 61.6965 44.9586V51.152C61.6965 51.3363 61.6883 51.5192 61.6758 51.7008C61.8539 51.7293 62.0352 51.7484 62.2215 51.7484C64.1078 51.7484 65.6371 50.2192 65.6371 48.3328C65.6371 46.4465 64.1078 44.9168 62.2215 44.9168Z" fill="#F9D0B4"/>
<path d="M45.3352 51.152V44.9586C45.1641 44.932 44.9891 44.9168 44.8102 44.9168C42.9238 44.9168 41.3945 46.4461 41.3945 48.3324C41.3945 50.2188 42.9238 51.7481 44.8102 51.7481C44.9965 51.7481 45.1777 51.7289 45.3559 51.7004C45.3437 51.5192 45.3352 51.3363 45.3352 51.152Z" fill="#F9D0B4"/>
<path d="M61.6656 37.9383C61.3918 37.9383 61.1543 37.7269 61.1504 37.4531C61.0875 32.8945 55.882 32.0379 50.6977 32.9332C46.3023 33.6922 43.0898 37.5039 43.0898 41.9641V45.3844C43.5953 45.0891 44.1816 44.9168 44.8094 44.9168C44.9883 44.9168 45.1633 44.932 45.3344 44.9586V44.2859C45.3344 43.1988 45.7527 42.1535 46.5031 41.3668L46.5059 41.3637C47.0398 40.8039 47.9078 40.7504 48.5172 41.2269C49.4855 41.9848 51.1625 42.9246 53.5246 42.9246C55.8809 42.9246 57.5492 41.9891 58.5133 41.2324C59.123 40.7539 59.993 40.8055 60.5277 41.3664C61.2781 42.1531 61.6965 43.1984 61.6965 44.2855V44.9582C61.8676 44.9316 62.0426 44.9164 62.2215 44.9164C62.8566 44.9164 63.4496 45.093 63.959 45.3949V42.5867C63.9586 38.5055 62.4848 37.9383 61.6656 37.9383Z" fill="#5B5D60"/>
<path d="M58.8609 62.2711C58.6675 62.1758 58.4929 62.0555 58.3304 61.9227L55.048 65.6809C54.7906 65.9758 54.8207 66.4234 55.1156 66.6809L57.2519 68.5469C57.5468 68.8043 57.9945 68.7742 58.2519 68.4793L62.4281 63.6981C60.3757 63.1016 58.839 62.2602 58.8609 62.2711Z" fill="#9BE5F9"/>
<path d="M51.9832 65.6809L48.7008 61.9227C48.5379 62.0555 48.3633 62.1758 48.1703 62.2711C47.025 62.8359 46.0066 63.3008 44.6055 63.7004L48.7797 68.4793C49.0371 68.7742 49.4848 68.8043 49.7797 68.5469L51.916 66.6809C52.2105 66.4234 52.2406 65.9758 51.9832 65.6809Z" fill="#9BE5F9"/>
<path d="M57.2852 59.7363V58.4047C56.1555 58.9961 54.8734 59.3328 53.516 59.3328C52.1586 59.3328 50.877 58.9961 49.7469 58.4047V59.7363C49.7469 60.5968 49.3516 61.3929 48.7012 61.9226L51.9836 65.6808C52.0816 65.7929 52.1371 65.9273 52.1531 66.0644H54.8785C54.8945 65.9269 54.9504 65.7929 55.048 65.6808L58.3305 61.9226C57.6805 61.3929 57.2852 60.5968 57.2852 59.7363Z" fill="#F9D0B4"/>
<path d="M89.8375 62.3558C84.2344 62.3558 79.6758 66.9144 79.6758 72.5179C79.6758 78.1211 84.2344 82.6797 89.8375 82.6797C95.441 82.6797 99.9996 78.1211 99.9996 72.5179C99.9996 66.9144 95.441 62.3558 89.8375 62.3558ZM89.8375 80.7265C85.3113 80.7265 81.6289 77.0441 81.6289 72.5179C81.6289 67.9918 85.3113 64.309 89.8375 64.309C94.3641 64.309 98.0465 67.9914 98.0465 72.5179C98.0465 77.0445 94.3641 80.7265 89.8375 80.7265Z" fill="black"/>
<path d="M37.0484 0C32.3102 0 28.4551 3.85508 28.4551 8.59336C28.4551 13.3316 32.3102 17.1867 37.0484 17.1867C41.7867 17.1867 45.6418 13.3316 45.6418 8.59336C45.6418 3.85508 41.7867 0 37.0484 0ZM37.0484 15.2336C33.3871 15.2336 30.4082 12.2551 30.4082 8.59336C30.4082 4.93164 33.3871 1.95313 37.0484 1.95313C40.7098 1.95313 43.6887 4.93203 43.6887 8.59336C43.6887 12.2547 40.7098 15.2336 37.0484 15.2336Z" fill="black"/>
<path d="M44.4691 81.4285C39.3492 81.4285 35.1836 85.5942 35.1836 90.7141C35.1836 95.834 39.3488 100 44.4691 100C49.5895 100 53.7547 95.8344 53.7547 90.7145C53.7547 85.5945 49.5891 81.4285 44.4691 81.4285ZM44.4691 98.0469C40.4258 98.0469 37.1367 94.7574 37.1367 90.7145C37.1367 86.6715 40.4262 83.382 44.4691 83.382C48.5121 83.382 51.8016 86.6715 51.8016 90.7145C51.8016 94.7574 48.5121 98.0469 44.4691 98.0469Z" fill="black"/>
<path d="M81.1941 4.78711C74.4734 4.78711 69.0059 10.2547 69.0059 16.9754C69.0059 23.6961 74.4734 29.1637 81.1941 29.1637C87.9148 29.1637 93.3824 23.6961 93.3824 16.9754C93.3824 10.2547 87.9152 4.78711 81.1941 4.78711ZM81.1941 27.2105C75.5504 27.2105 70.959 22.6191 70.959 16.9754C70.959 11.3316 75.5504 6.74023 81.1941 6.74023C86.8379 6.74023 91.4293 11.3316 91.4293 16.9754C91.4293 22.6191 86.8383 27.2105 81.1941 27.2105Z" fill="black"/>
<path d="M12.1883 37.5996C5.46758 37.5996 0 43.0672 0 49.7879C0 56.5086 5.46758 61.9762 12.1883 61.9762C18.909 61.9762 24.3766 56.5086 24.3766 49.7879C24.3766 43.0672 18.909 37.5996 12.1883 37.5996ZM12.1883 60.023C6.54453 60.023 1.95312 55.4316 1.95312 49.7879C1.95312 44.1441 6.54453 39.5527 12.1883 39.5527C17.832 39.5527 22.4234 44.1441 22.4234 49.7879C22.4234 55.4316 17.832 60.023 12.1883 60.023Z" fill="black"/>
<path d="M82.7754 89.4922H81.8379V88.5937C81.8379 87.8906 81.291 87.3438 80.5879 87.3438C79.9238 87.3438 79.3379 87.8906 79.3379 88.5547V89.4922H78.4395C77.7363 89.4922 77.1895 90.0391 77.1895 90.7422C77.1504 91.4062 77.6973 91.9922 78.4395 91.9922H79.3379V92.8906C79.3379 93.5937 79.8848 94.1406 80.5879 94.1406C81.252 94.1406 81.8379 93.5937 81.8379 92.9297V91.9922H82.7363C83.4395 91.9922 83.9863 91.4453 83.9863 90.7422C83.9863 90.0781 83.4395 89.4922 82.7754 89.4922Z" fill="#70D6F9"/>
<path d="M66.877 100C67.6105 100 68.2051 99.4054 68.2051 98.6719C68.2051 97.9384 67.6105 97.3438 66.877 97.3438C66.1434 97.3438 65.5488 97.9384 65.5488 98.6719C65.5488 99.4054 66.1434 100 66.877 100Z" fill="#F5C84C"/>
<path d="M21.543 80.9277C20.332 80.6934 19.3555 79.7559 19.1211 78.5449C19.1211 78.5059 19.0039 78.5059 19.0039 78.5449C18.7695 79.7559 17.793 80.6934 16.582 80.9277C16.543 80.9277 16.543 81.0059 16.582 81.0449C17.793 81.2793 18.7695 82.2168 19.0039 83.4277C19.0039 83.4668 19.1211 83.4668 19.1211 83.4277C19.3555 82.2168 20.332 81.2793 21.543 81.0449C21.582 81.0059 21.582 80.9277 21.543 80.9277Z" fill="#FC657E"/>
<path d="M23.582 0C22.8484 0 22.2539 0.594531 22.2539 1.32812C22.2539 2.06172 22.8484 2.65625 23.582 2.65625C24.3156 2.65625 24.9102 2.06172 24.9102 1.32812C24.9102 0.594531 24.3152 0 23.582 0Z" fill="#87D147"/>
<path d="M17.2461 12.5781C15.4883 12.2656 14.1211 10.8984 13.7695 9.17969C13.7695 9.10156 13.6133 9.10156 13.6133 9.17969C13.2617 10.8984 11.8945 12.2656 10.1367 12.5781C10.0586 12.5781 10.0586 12.6953 10.1367 12.7344C11.8945 13.0469 13.2617 14.4141 13.6133 16.1328C13.6133 16.2109 13.7695 16.2109 13.7695 16.1328C14.1211 14.4141 15.4883 13.0469 17.2461 12.7344C17.3242 12.6953 17.3242 12.5781 17.2461 12.5781Z" fill="#F5C84C"/>
<path d="M53.5156 26.9531C40.5922 26.9531 30.0781 37.4672 30.0781 50.3906C30.0781 63.3141 40.5922 73.8281 53.5156 73.8281C66.4391 73.8281 76.9531 63.3141 76.9531 50.3906C76.9531 37.4672 66.4391 26.9531 53.5156 26.9531ZM53.5156 71.875C41.6691 71.875 32.0312 62.2371 32.0312 50.3906C32.0312 38.5441 41.6691 28.9062 53.5156 28.9062C65.3621 28.9062 75 38.5441 75 50.3906C75 62.2371 65.3621 71.875 53.5156 71.875Z" fill="black"/>
<path d="M97.1553 78.5519C96.4401 76.0684 94.4342 74.241 91.921 73.7832C90.6432 73.5504 89.2995 73.5504 88.0217 73.7832C85.396 74.2617 83.3046 76.268 82.6936 78.8949C82.5714 79.4203 82.8979 79.9449 83.4233 80.0672C83.4975 80.0844 83.5721 80.0926 83.6452 80.0926C84.0893 80.0926 84.4909 79.7879 84.5956 79.3371C85.0299 77.4687 86.5124 76.043 88.3717 75.7043C89.4194 75.5137 90.5233 75.5137 91.5706 75.7043C93.3491 76.0285 94.7698 77.3266 95.2784 79.0922C95.4276 79.6101 95.9678 79.9098 96.4874 79.7601C97.0053 79.6113 97.3046 79.0703 97.1553 78.5519Z" fill="black"/>
<path d="M89.8379 66.6379C87.391 66.6379 85.4004 68.6289 85.4004 71.0758C85.4004 73.5226 87.3914 75.5133 89.8379 75.5133C92.2844 75.5133 94.2754 73.5226 94.2754 71.0758C94.2754 68.6289 92.2848 66.6379 89.8379 66.6379ZM89.8379 73.5601C88.468 73.5601 87.3535 72.4457 87.3535 71.0758C87.3535 69.7058 88.4684 68.591 89.8379 68.591C91.2074 68.591 92.3223 69.7058 92.3223 71.0758C92.3223 72.4457 91.2078 73.5601 89.8379 73.5601Z" fill="black"/>
<path d="M43.2714 13.5375C42.6581 11.4242 40.9464 9.86877 38.8046 9.47854C37.7265 9.28206 36.5909 9.28206 35.5112 9.47854C33.2952 9.88206 31.5151 11.5711 30.9753 13.7817C30.8476 14.3055 31.1683 14.834 31.6925 14.9617C31.7702 14.9809 31.848 14.9899 31.9249 14.9899C32.3648 14.9899 32.7636 14.6906 32.873 14.2446C33.23 12.7821 34.403 11.6653 35.8616 11.3996C36.7105 11.2449 37.6066 11.2449 38.4546 11.3996C39.8628 11.6563 40.9898 12.684 41.396 14.0817C41.5464 14.5996 42.0878 14.8977 42.6062 14.7473C43.1245 14.5969 43.4222 14.0555 43.2714 13.5375Z" fill="black"/>
<path d="M37.048 3.55078C34.927 3.55078 33.2012 5.27617 33.2012 7.39766C33.2012 9.51875 34.927 11.2441 37.048 11.2441C39.1691 11.2441 40.8949 9.51875 40.8949 7.39766C40.8945 5.27617 39.1687 3.55078 37.048 3.55078ZM37.048 9.29102C36.0039 9.29102 35.1543 8.4418 35.1543 7.39766C35.1543 6.35352 36.0039 5.50391 37.048 5.50391C38.0922 5.50391 38.9418 6.35352 38.9418 7.39766C38.9418 8.4418 38.0922 9.29102 37.048 9.29102Z" fill="black"/>
<path d="M51.2036 96.2359C50.5793 93.9426 48.6825 92.1883 46.3707 91.7672C45.2024 91.5547 43.9774 91.5547 42.8098 91.7672C40.4157 92.2035 38.4985 94.0304 37.9254 96.4219C37.8 96.9465 38.1235 97.4734 38.6481 97.5992C38.7243 97.6176 38.8012 97.6262 38.8762 97.6262C39.3176 97.6262 39.7176 97.325 39.8254 96.8769C40.218 95.2379 41.5266 93.9863 43.1602 93.6886C44.0965 93.5183 45.0836 93.5179 46.0207 93.6886C47.5965 93.9758 48.8914 95.1769 49.3192 96.7488C49.4606 97.2695 49.9993 97.5762 50.5176 97.4344C51.0383 97.2933 51.345 96.7566 51.2036 96.2359Z" fill="black"/>
<path d="M44.4691 85.3024C42.2039 85.3024 40.3613 87.145 40.3613 89.4098C40.3613 91.6746 42.2039 93.5176 44.4691 93.5176C46.7344 93.5176 48.577 91.675 48.577 89.4098C48.5766 87.145 46.7344 85.3024 44.4691 85.3024ZM44.4691 91.5641C43.2813 91.5641 42.3145 90.5977 42.3145 89.4094C42.3145 88.2215 43.2813 87.2551 44.4691 87.2551C45.657 87.2551 46.6238 88.2215 46.6238 89.4094C46.6234 90.5977 45.657 91.5641 44.4691 91.5641Z" fill="black"/>
<path d="M89.9015 24.3422C89.0367 21.4215 86.6598 19.2719 83.6976 18.732C82.1637 18.4524 80.548 18.4524 79.0152 18.732C75.9215 19.2957 73.4414 21.6567 72.6973 24.7465C72.5711 25.2707 72.8937 25.7984 73.4183 25.9246C73.4949 25.943 73.5723 25.952 73.6476 25.952C74.0887 25.952 74.4883 25.6512 74.5965 25.2039C75.1598 22.8649 77.0316 21.0785 79.3656 20.6535C80.6683 20.4164 82.0441 20.416 83.3476 20.6535C85.5808 21.0606 87.3746 22.6863 88.0285 24.8965C88.182 25.4137 88.7242 25.7086 89.2422 25.5559C89.7594 25.4027 90.0547 24.8594 89.9015 24.3422Z" fill="black"/>
<path d="M81.1934 10.0137C78.3254 10.0137 75.9922 12.3469 75.9922 15.2148C75.9922 18.0828 78.3258 20.416 81.1934 20.416C84.0609 20.416 86.3945 18.0828 86.3945 15.2148C86.3945 12.3469 84.0613 10.0137 81.1934 10.0137ZM81.1934 18.4633C79.4023 18.4633 77.9453 17.0062 77.9453 15.2152C77.9453 13.4242 79.4023 11.9672 81.1934 11.9672C82.9844 11.9672 84.4414 13.4242 84.4414 15.2152C84.4414 17.0062 82.9844 18.4633 81.1934 18.4633Z" fill="black"/>
<path d="M20.9501 57.3476C20.1474 54.3687 17.6907 52.0906 14.6919 51.5445C13.1599 51.2652 11.5434 51.2648 10.0095 51.5445C6.86649 52.1168 4.37626 54.5223 3.66493 57.6726C3.54579 58.1988 3.87626 58.7215 4.40243 58.8402C4.47509 58.8566 4.54735 58.8644 4.61845 58.8644C5.06493 58.8644 5.46805 58.5562 5.5704 58.1027C6.10907 55.718 7.98876 53.8976 10.3602 53.466C11.6638 53.2281 13.0399 53.2285 14.3419 53.466C16.6036 53.8777 18.4571 55.6008 19.0645 57.8558C19.2048 58.3765 19.7419 58.684 20.2614 58.5449C20.7817 58.4043 21.0903 57.8687 20.9501 57.3476Z" fill="black"/>
<path d="M12.1875 42.8262C9.31953 42.8262 6.98633 45.1594 6.98633 48.0273C6.98633 50.8953 9.31992 53.2285 12.1875 53.2285C15.0551 53.2285 17.3887 50.8953 17.3887 48.0273C17.3887 45.1594 15.0555 42.8262 12.1875 42.8262ZM12.1875 51.2758C10.3965 51.2758 8.93945 49.8187 8.93945 48.0277C8.93945 46.2367 10.3965 44.7797 12.1875 44.7797C13.9785 44.7797 15.4355 46.2367 15.4355 48.0277C15.4355 49.8187 13.9785 51.2758 12.1875 51.2758Z" fill="black"/>
<path d="M33.3386 14.4703C32.8746 14.1973 32.2753 14.3512 32.0015 14.8164L17.4007 39.6149C17.1273 40.0797 17.282 40.6782 17.7468 40.952C17.9023 41.0434 18.073 41.0871 18.2417 41.0871C18.5761 41.0871 18.9019 40.9153 19.0839 40.6059L33.6847 15.8075C33.9581 15.3426 33.8031 14.7442 33.3386 14.4703Z" fill="black"/>
<path d="M39.6718 83.5625L19.9097 58.3246C19.5773 57.9004 18.9628 57.8254 18.5386 58.1578C18.114 58.4902 18.0394 59.1039 18.3714 59.5289L38.1335 84.7668C38.3261 85.0125 38.6136 85.141 38.9035 85.141C39.114 85.141 39.3261 85.0734 39.5046 84.9332C39.9292 84.6012 40.0038 83.9871 39.6718 83.5625Z" fill="black"/>
<path d="M82.1182 76.1289C81.9119 75.6308 81.3408 75.3929 80.8424 75.6L52.4041 87.3676C51.9061 87.5738 51.669 88.1449 51.8752 88.6433C52.0307 89.0195 52.3944 89.2465 52.778 89.2465C52.9022 89.2465 53.0291 89.2226 53.151 89.1722L81.5893 77.4047C82.0873 77.1984 82.3244 76.6273 82.1182 76.1289Z" fill="black"/>
<path d="M89.4876 62.982L84.07 28.2597C83.9868 27.7269 83.49 27.3621 82.9548 27.4453C82.422 27.5285 82.0575 28.0277 82.1407 28.5605L87.5583 63.2828C87.6333 63.7648 88.0489 64.109 88.522 64.109C88.572 64.109 88.6228 64.1051 88.6739 64.0972C89.2064 64.0144 89.5708 63.5152 89.4876 62.982Z" fill="black"/>
<path d="M69.9543 14.3562L45.2266 9.15036C44.7008 9.03904 44.1809 9.37693 44.0699 9.90466C43.959 10.4324 44.2965 10.9504 44.8246 11.0613L69.5523 16.2672C69.6199 16.2816 69.6879 16.2883 69.7547 16.2883C70.2063 16.2883 70.6121 15.9726 70.709 15.5129C70.8199 14.9851 70.4824 14.4672 69.9543 14.3562Z" fill="black"/>
<path d="M30.7064 49.1754L23.8134 49.0453C23.2689 49.0324 22.8287 49.4641 22.8185 50.0031C22.8088 50.5426 23.2373 50.9879 23.7767 50.9981L30.6697 51.1281H30.6884C31.2189 51.1281 31.6545 50.7031 31.6646 50.1699C31.6748 49.6309 31.2459 49.1856 30.7064 49.1754Z" fill="black"/>
<path d="M46.2651 28.6644L41.1725 15.5187C40.9776 15.0164 40.4127 14.7652 39.9092 14.9609C39.4065 15.1558 39.1565 15.7215 39.3514 16.2242L44.444 29.3699C44.594 29.7566 44.9631 29.9937 45.3549 29.9937C45.4721 29.9937 45.5912 29.9726 45.7072 29.9277C46.2104 29.7332 46.46 29.1672 46.2651 28.6644Z" fill="black"/>
<path d="M82.0867 66.8395L73.434 61.7059C72.9699 61.4305 72.3711 61.5832 72.0957 62.0477C71.8207 62.5113 71.9735 63.1105 72.4375 63.3855L81.0903 68.5191C81.2465 68.6121 81.418 68.6562 81.5875 68.6562C81.9211 68.6562 82.2457 68.4852 82.4282 68.1777C82.7035 67.7137 82.5504 67.1145 82.0867 66.8395Z" fill="black"/>
<path d="M73.6078 24.4023C73.1856 24.0664 72.5711 24.1371 72.2356 24.5586L66.5387 31.7199C66.2028 32.1422 66.2727 32.7562 66.6946 33.0922C66.8742 33.2351 67.0891 33.3043 67.302 33.3043C67.5895 33.3043 67.8743 33.1781 68.0668 32.9355L73.7637 25.7742C74.0996 25.3523 74.0297 24.7379 73.6078 24.4023Z" fill="black"/>
<path d="M48.8278 71.6375C48.3008 71.5149 47.7774 71.841 47.6539 72.3656L45.395 82.0141C45.2723 82.5391 45.5985 83.0645 46.1231 83.1875C46.1981 83.2051 46.2731 83.2133 46.3465 83.2133C46.7899 83.2133 47.1911 82.9094 47.2969 82.459L49.5559 72.8106C49.6789 72.286 49.3528 71.7606 48.8278 71.6375Z" fill="black"/>
<path d="M70.0527 65.6215C69.4727 64.8316 68.6367 64.2664 67.6996 64.0305L63.2703 62.9156C61.1465 62.3809 59.4336 61.4699 59.3418 61.4207C59.3262 61.4117 59.3102 61.4035 59.2937 61.3953C58.657 61.0816 58.2617 60.4457 58.2617 59.7363V58.7078C58.2617 58.1684 57.8246 57.7313 57.2852 57.7313C56.7457 57.7313 56.3086 58.1684 56.3086 58.7078V59.7363C56.3086 61.1734 57.0977 62.4629 58.3715 63.1176C58.6289 63.2805 59.0332 63.4625 59.6848 63.7438C60.4023 64.0535 61.5242 64.4902 62.793 64.8098L67.2223 65.9246C67.7199 66.05 68.1664 66.3531 68.4785 66.7781C68.6695 67.0387 68.966 67.1766 69.2664 67.1766C69.4672 67.1766 69.6695 67.1149 69.8441 66.9871C70.2785 66.6672 70.3719 66.0563 70.0527 65.6215Z" fill="black"/>
<path d="M49.7467 57.666C49.2073 57.666 48.7702 58.1031 48.7702 58.6426V59.7363C48.7702 60.4457 48.3748 61.0816 47.7381 61.3953C46.5596 61.9762 45.4475 62.4914 43.7616 62.9156L39.3323 64.0305C38.4471 64.2531 37.6733 64.7516 37.0944 65.4715C36.7565 65.8918 36.8233 66.5062 37.2436 66.8445C37.4237 66.9895 37.6401 67.0602 37.8545 67.0602C38.1401 67.0602 38.4233 66.9355 38.6163 66.6957C38.9268 66.3094 39.3397 66.0426 39.8092 65.9242L44.2385 64.8094C46.11 64.3383 47.3221 63.7777 48.6018 63.1469C49.9104 62.502 50.7233 61.1949 50.7233 59.7363V58.6426C50.7233 58.1031 50.2858 57.666 49.7467 57.666Z" fill="black"/>
<path d="M61.2348 40.693C60.3516 39.7676 58.923 39.6695 57.9102 40.4644C57.0477 41.1414 55.5867 41.9484 53.5242 41.9484C51.4566 41.9484 49.9871 41.1379 49.1188 40.4582C48.107 39.6668 46.6801 39.766 45.7957 40.693C44.8684 41.6656 44.3574 42.9418 44.3574 44.2859V51.1519C44.3574 56.2016 48.4656 60.3094 53.5148 60.3094C58.5641 60.3094 62.6723 56.2012 62.6723 51.1519V44.2859C62.6727 42.9418 62.1621 41.666 61.2348 40.693ZM60.7195 51.1519C60.7195 55.1246 57.4879 58.3562 53.5152 58.3562C49.5426 58.3562 46.3109 55.1246 46.3109 51.1519V44.2859C46.3109 43.4461 46.6301 42.6488 47.2129 42.0379C47.3125 41.9336 47.4465 41.8805 47.5824 41.8805C47.6984 41.8805 47.816 41.9187 47.9152 41.9965C49.0258 42.8656 50.9004 43.9015 53.5246 43.9015C56.1449 43.9015 58.0113 42.868 59.1164 42.0008C59.334 41.8301 59.6375 41.848 59.8211 42.0406C60.4004 42.6484 60.7199 43.4457 60.7199 44.2859V51.1519H60.7195Z" fill="black"/>
<path d="M62.2227 43.9402C61.6832 43.9402 61.2461 44.3774 61.2461 44.9168C61.2461 45.4563 61.6832 45.8934 62.2227 45.8934C63.5672 45.8934 64.6613 46.9875 64.6613 48.3324C64.6613 49.6774 63.5672 50.7715 62.2227 50.7715C61.6832 50.7715 61.2461 51.2086 61.2461 51.7481C61.2461 52.2875 61.6832 52.7246 62.2227 52.7246C64.6441 52.7246 66.6145 50.7543 66.6145 48.3324C66.6145 45.9106 64.6441 43.9402 62.2227 43.9402Z" fill="black"/>
<path d="M44.8102 50.7719C43.4652 50.7719 42.3711 49.6777 42.3711 48.3328C42.3711 46.9879 43.4652 45.8937 44.8102 45.8937C45.3496 45.8937 45.7867 45.4566 45.7867 44.9172C45.7867 44.3777 45.3496 43.9406 44.8102 43.9406C42.3883 43.9406 40.418 45.9109 40.418 48.3328C40.418 50.7547 42.3883 52.725 44.8102 52.725C45.3496 52.725 45.7867 52.2879 45.7867 51.7484C45.7867 51.209 45.3496 50.7719 44.8102 50.7719Z" fill="black"/>
<path d="M62.1062 36.998C61.9852 35.5195 61.3566 34.273 60.273 33.373C57.5969 31.1512 53.0207 31.541 50.5316 31.9707C45.6539 32.8129 42.1133 37.016 42.1133 41.9641V45.1902C42.1133 45.7297 42.5504 46.1668 43.0898 46.1668C43.6293 46.1668 44.0664 45.7297 44.0664 45.1902V41.9641C44.0664 37.9688 46.925 34.5754 50.8641 33.8953C54.4836 33.2703 57.5332 33.6371 59.0254 34.8758C59.7832 35.5051 60.159 36.3523 60.1742 37.4652C60.184 38.2645 60.8531 38.9148 61.6656 38.9148C62.4777 38.9148 62.982 40.3223 62.982 42.5871V45.2309C62.982 45.7703 63.4191 46.2074 63.9586 46.2074C64.498 46.2074 64.9352 45.7703 64.9352 45.2309V42.5871C64.9352 38.1684 63.2035 37.1801 62.1062 36.998Z" fill="black"/>
<path d="M62.7419 63.3391C62.336 62.9844 61.7185 63.0254 61.3642 63.4321L57.6935 67.6348L55.9606 66.1211L58.8271 62.8395C59.1817 62.4332 59.1403 61.8164 58.7341 61.4617C58.3286 61.1071 57.711 61.1481 57.3563 61.5547L54.3138 65.0379C53.7024 65.7379 53.7743 66.8047 54.4743 67.4156L56.611 69.2821C56.9298 69.5602 57.3247 69.6969 57.7185 69.6969C58.1884 69.6969 58.656 69.5016 58.9888 69.1207L62.8356 64.7164C63.1899 64.311 63.1481 63.6942 62.7419 63.3391Z" fill="black"/>
<path d="M52.718 65.0387L49.6227 61.4949C49.2684 61.0887 48.6509 61.0473 48.245 61.402C47.8387 61.7567 47.7973 62.3735 48.152 62.7797L51.0712 66.1219L49.3384 67.6352L45.5887 63.3426C45.2341 62.936 44.6165 62.8949 44.211 63.2496C43.8048 63.6043 43.7634 64.2215 44.118 64.6274L48.043 69.1211C48.3391 69.4606 48.7497 69.6641 49.1993 69.6946C49.2384 69.6973 49.2766 69.6985 49.3153 69.6985C49.7227 69.6985 50.1114 69.5532 50.4216 69.2824L52.5579 67.4168C52.897 67.1207 53.1005 66.7102 53.1309 66.261C53.1606 65.8117 53.0141 65.3778 52.718 65.0387Z" fill="black"/>
<path d="M54.5293 65.0879H52.3203C51.7809 65.0879 51.3438 65.525 51.3438 66.0645C51.3438 66.6039 51.7809 67.041 52.3203 67.041H54.5293C55.0687 67.041 55.5059 66.6039 55.5059 66.0645C55.5059 65.525 55.0687 65.0879 54.5293 65.0879Z" fill="black"/>
</g>
<defs>
<clipPath id="clip0_559_2283">
<rect width="100" height="100" fill="white"/>
</clipPath>
</defs>
</svg>
