<svg width="100" height="100" viewBox="0 0 100 100" fill="none" xmlns="http://www.w3.org/2000/svg">
<g clip-path="url(#clip0_430_1125)">
<path d="M31.9859 83.0315L46.4086 68.6088C47.5229 67.4946 47.5229 65.6881 46.4086 64.5741C45.2943 63.4598 43.4879 63.4598 42.3738 64.5741L46.0498 60.8981C47.1641 59.7838 47.1641 57.9774 46.0498 56.8633C44.9355 55.7491 43.1291 55.7491 42.015 56.8633L40.0889 58.7895C41.2029 57.6752 41.2029 55.869 40.0889 54.7547C38.9746 53.6405 37.1682 53.6405 36.0541 54.7547L33.6723 57.1366C34.7865 56.0223 34.7865 54.2159 33.6723 53.1018C32.558 51.9875 30.7516 51.9875 29.6375 53.1018L13.9939 68.7454C12.4125 70.3268 11.39 72.3807 11.0813 74.5957L10.6383 77.7737L1.46484 86.9469L12.5252 98.0073L21.1465 89.386L31.9859 83.0315Z" fill="#FFCEC0"/>
<path d="M46.4082 68.6094L44.2598 70.7578L31.1348 57.6328C30.0898 56.5859 29.2285 55.4238 28.5508 54.1875L29.6367 53.1016C30.1953 52.5449 30.9258 52.2656 31.6543 52.2656C32.3848 52.2656 33.1152 52.5449 33.6719 53.1016C34.7871 54.2168 34.7871 56.0215 33.6719 57.1367L36.0547 54.7539C36.6113 54.1973 37.3418 53.918 38.0703 53.918C38.8008 53.918 39.5313 54.1973 40.0879 54.7539C41.2031 55.8691 41.2031 57.6758 40.0879 58.7891L42.0156 56.8633C42.5723 56.3066 43.3027 56.0273 44.0313 56.0273C44.7617 56.0273 45.4922 56.3066 46.0488 56.8633C47.1641 57.9766 47.1641 59.7832 46.0488 60.8984L42.373 64.5742C42.9297 64.0156 43.6602 63.7383 44.3906 63.7383C45.1211 63.7383 45.8516 64.0156 46.4082 64.5742C47.5234 65.6875 47.5234 67.4941 46.4082 68.6094Z" fill="#FDB0A0"/>
<path d="M46.4082 68.6094L31.9863 83.0313L21.1465 89.3867L12.5254 98.0078L1.46484 86.9473H1.4668L9.50586 94.9863L18.127 86.3652L28.9648 80.0117L43.3887 65.5879C43.9004 65.0762 44.1777 64.416 44.2168 63.7441C44.2754 63.7402 44.332 63.7383 44.3906 63.7383C45.1211 63.7383 45.8516 64.0156 46.4082 64.5742C47.5234 65.6875 47.5234 67.4941 46.4082 68.6094Z" fill="#FDB0A0"/>
<path d="M44.3754 77.8789L35.785 87.2289C34.8332 88.2646 33.6393 89.048 32.31 89.5082L28.2252 90.9228C27.0105 91.3435 25.6795 91.272 24.5166 90.724L20.6621 88.9068L16.6426 84.8873L21.4645 80.0654C24.2496 77.2802 28.765 77.2802 31.5502 80.0654L32.3848 80.9L37.5623 75.7224C39.4256 73.8591 42.4465 73.8591 44.3098 75.7224C44.8984 76.3109 44.9271 77.2558 44.3754 77.8789Z" fill="#FFCEC0"/>
<path d="M44.7715 76.8359C44.7715 77.207 44.6406 77.5801 44.375 77.8789L35.7852 87.2285C34.832 88.2656 33.6387 89.0488 32.3105 89.5078L28.2246 90.9238C27.0098 91.3437 25.6797 91.2715 24.5156 90.7246L20.6621 88.9062L17.8164 86.0605L21.6699 87.8789C22.834 88.4258 24.1641 88.498 25.3789 88.0762L29.4648 86.6621C30.793 86.2031 31.9863 85.4199 32.9395 84.3828L41.5293 75.0332C41.6914 74.8496 41.8027 74.6387 41.8652 74.416C42.7617 74.5918 43.6172 75.0293 44.3105 75.7227C44.6172 76.0293 44.7715 76.4316 44.7715 76.8359Z" fill="#FDB0A0"/>
<path d="M68.0142 16.9686L53.5916 31.3912C52.4773 32.5055 52.4773 34.3119 53.5916 35.426C54.7058 36.5403 56.5123 36.5403 57.6263 35.426L53.9503 39.102C52.8361 40.2162 52.8361 42.0227 53.9503 43.1367C55.0646 44.251 56.871 44.251 57.9851 43.1367L59.9113 41.2106C58.7972 42.3248 58.7972 44.1311 59.9113 45.2453C61.0255 46.3596 62.832 46.3596 63.946 45.2453L66.3279 42.8635C65.2136 43.9778 65.2136 45.7842 66.3279 46.8983C67.4421 48.0125 69.2486 48.0125 70.3626 46.8983L86.0062 31.2547C87.5876 29.6733 88.6101 27.6194 88.9189 25.4043L89.3619 22.2264L98.5351 13.0532L87.4748 1.9928L78.8535 10.6141L68.0142 16.9686Z" fill="#D5887A"/>
<path d="M98.5342 13.0527L89.3603 22.2266L88.9189 25.4043C88.6103 27.6191 87.5869 29.6738 86.0049 31.2539L70.3623 46.8984C69.8037 47.4551 69.0732 47.7344 68.3447 47.7344C67.6142 47.7344 66.8838 47.4551 66.3271 46.8984C65.708 46.2793 65.4326 45.4453 65.5029 44.6367C66.1474 44.582 66.7803 44.3066 67.2764 43.8125L82.9189 28.168C84.501 26.5879 85.5224 24.5332 85.833 22.3184L86.2744 19.1406L95.4482 9.9668L98.5342 13.0527Z" fill="#C86F5C"/>
<path d="M55.6241 22.1212L64.2145 12.7712C65.1663 11.7354 66.3602 10.952 67.6895 10.4919L71.7743 9.07721C72.9889 8.6565 74.32 8.72799 75.4829 9.27604L79.3374 11.0932L83.3569 15.1128L78.535 19.9346C75.7499 22.7198 71.2344 22.7198 68.4493 19.9346L67.6147 19.1001L62.4372 24.2776C60.5739 26.1409 57.553 26.1409 55.6897 24.2776C55.101 23.6891 55.0723 22.7442 55.6241 22.1212Z" fill="#D5887A"/>
<path d="M16.968 31.9859L31.3906 46.4086C32.5049 47.5229 34.3113 47.5229 35.4254 46.4086C36.5396 45.2943 36.5396 43.4879 35.4254 42.3738L39.1014 46.0498C40.2156 47.1641 42.0221 47.1641 43.1361 46.0498C44.2504 44.9355 44.2504 43.1291 43.1361 42.015L41.21 40.0889C42.3242 41.2029 44.1305 41.2029 45.2447 40.0889C46.359 38.9746 46.359 37.1682 45.2447 36.0541L42.8629 33.6719C43.9771 34.7861 45.7836 34.7861 46.8977 33.6719C48.0119 32.5576 48.0119 30.7512 46.8977 29.6371L31.2541 13.9936C29.6727 12.4121 27.6188 11.3896 25.4037 11.0809L22.2258 10.6379L13.0525 1.46484L1.99219 12.5252L10.6135 21.1465L16.968 31.9859Z" fill="#A34F41"/>
<path d="M47.7344 31.6543C47.7344 32.3848 47.4551 33.1152 46.8984 33.6719C46.1523 34.418 45.0957 34.666 44.1445 34.4102C44.0215 33.9414 43.7734 33.498 43.4062 33.1289L27.7617 17.4863C26.1816 15.9043 24.127 14.8809 21.9121 14.5723L18.7344 14.1309L9.56055 4.95703L13.0527 1.46484L22.2266 10.6387L25.4043 11.0801C27.6191 11.3887 29.6738 12.4121 31.2539 13.9941L46.8984 29.6367C47.4551 30.1953 47.7344 30.9258 47.7344 31.6543Z" fill="#873F30"/>
<path d="M22.1196 44.375L12.7696 35.7846C11.7338 34.8328 10.9504 33.6389 10.4903 32.3096L9.07562 28.2248C8.65492 27.0102 8.7264 25.6791 9.27445 24.5162L11.0916 20.6617L15.1112 16.6422L19.933 21.4641C22.7182 24.2492 22.7182 28.7647 19.933 31.5498L19.0985 32.3844L24.276 37.5619C26.1393 39.4252 26.1393 42.4461 24.276 44.3094C23.6875 44.8981 22.7426 44.9268 22.1196 44.375Z" fill="#A34F41"/>
<path d="M83.031 68.0141L68.6083 53.5914C67.4941 52.4772 65.6876 52.4772 64.5736 53.5914C63.4593 54.7057 63.4593 56.5121 64.5736 57.6262L60.8976 53.9502C59.7833 52.836 57.9769 52.836 56.8628 53.9502C55.7486 55.0645 55.7486 56.8709 56.8628 57.985L58.789 59.9112C57.6748 58.7971 55.8685 58.7971 54.7542 59.9112C53.64 61.0254 53.64 62.8319 54.7542 63.9459L57.1361 66.3278C56.0218 65.2135 54.2154 65.2135 53.1013 66.3278C51.9871 67.442 51.9871 69.2485 53.1013 70.3625L68.7449 86.0061C70.3263 87.5875 72.3802 88.61 74.5953 88.9188L77.7732 89.3617L86.9462 98.5348L98.0066 87.4744L89.3853 78.8531L83.031 68.0141Z" fill="#FFDFD0"/>
<path d="M70.5898 55.5723C70.0859 56.2949 69.5117 56.9844 68.8691 57.6289L54.6172 71.8789L53.1016 70.3633C52.5449 69.8047 52.2656 69.0742 52.2656 68.3457C52.2656 67.6152 52.5449 66.8848 53.1016 66.3281C54.2168 65.2129 56.0215 65.2129 57.1367 66.3281L54.7539 63.9453C54.1973 63.3887 53.918 62.6582 53.918 61.9297C53.918 61.1992 54.1973 60.4687 54.7539 59.9121C55.8691 58.7969 57.6758 58.7969 58.7891 59.9121L56.8633 57.9844C56.3066 57.4277 56.0273 56.6973 56.0273 55.9687C56.0273 55.2383 56.3066 54.5078 56.8633 53.9512C57.9766 52.8359 59.7832 52.8359 60.8984 53.9512L64.5742 57.6269C64.0156 57.0703 63.7383 56.3398 63.7383 55.6094C63.7383 54.8789 64.0156 54.1484 64.5742 53.5918C65.6875 52.4766 67.4941 52.4766 68.6094 53.5918L70.5898 55.5723Z" fill="#FFCEC0"/>
<path d="M86.9473 98.5352L94.9863 90.4941L86.3652 81.873L80.0117 71.0352L65.5879 56.6113C65.0762 56.0996 64.416 55.8223 63.7441 55.7832C63.7402 55.7246 63.7383 55.668 63.7383 55.6094C63.7383 54.8789 64.0156 54.1484 64.5742 53.5918C65.6875 52.4766 67.4941 52.4766 68.6094 53.5918L83.0313 68.0137L89.3867 78.8535L98.0078 87.4746L86.9473 98.5352Z" fill="#FFCEC0"/>
<path d="M77.8781 55.625L87.2281 64.2154C88.2639 65.1671 89.0473 66.3611 89.5074 67.6904L90.9221 71.7752C91.3428 72.9898 91.2713 74.3208 90.7232 75.4837L88.9061 79.3382L84.8865 83.3578L80.0646 78.5359C77.2795 75.7507 77.2795 71.2353 80.0646 68.4501L80.8992 67.6156L75.7217 62.438C73.8584 60.5748 73.8584 57.5539 75.7217 55.6906C76.3102 55.1019 77.2551 55.0732 77.8781 55.625Z" fill="#FFDFD0"/>
<path d="M90.7246 75.4844L88.9063 79.3379L85.8867 82.3574L87.7031 78.5039C88.252 77.3418 88.3242 76.0098 87.9023 74.7949L86.4883 70.7109C86.0273 69.3809 85.2441 68.1875 84.209 67.2363L74.8594 58.6445C74.7129 58.5156 74.5488 58.418 74.377 58.3535C74.5234 57.3789 74.9727 56.4395 75.7227 55.6895C76.0293 55.3828 76.4316 55.2285 76.8359 55.2285C77.207 55.2285 77.5801 55.3594 77.8789 55.625L87.2285 64.2148C88.2656 65.168 89.0488 66.3613 89.5078 67.6895L90.9238 71.7754C91.3438 72.9902 91.2715 74.3203 90.7246 75.4844Z" fill="#FFCEC0"/>
<path d="M66.1013 54.8699C70.5379 50.4222 70.5347 43.2205 66.0914 38.7771C61.648 34.3336 54.4459 34.3306 49.9984 38.7674C45.5508 34.3306 38.3488 34.3338 33.9053 38.7771C29.4619 43.2205 29.4588 50.4222 33.8953 54.8699L48.4531 69.4283C49.3064 70.2818 50.6902 70.2818 51.5435 69.4283L66.1013 54.8699Z" fill="#FC78A8"/>
<path d="M66.1035 54.8691L51.5449 69.4277C50.6914 70.2812 49.3086 70.2812 48.4551 69.4277L46.666 67.6387L60.8731 53.4297C65.3106 48.9824 65.3066 41.7793 60.8633 37.3359C60.1035 36.5762 59.2637 35.9473 58.3711 35.4473C61.1738 35.5273 63.9531 36.6387 66.0918 38.7773C70.5352 43.2207 70.5391 50.4219 66.1035 54.8691Z" fill="#FC5A95"/>
<path d="M12.0888 77.976L12.5318 74.7981C12.7949 72.9106 13.682 71.129 15.0294 69.7813L21.3908 63.42C21.9628 62.8479 21.9628 61.9204 21.3908 61.3485C20.8187 60.7764 19.8912 60.7764 19.3193 61.3485L12.958 67.7098C11.1625 69.5051 9.98061 71.879 9.63022 74.3938L9.25522 77.0854L0.429053 85.9112C-0.143018 86.4832 -0.143018 87.4108 0.429053 87.9827C0.71499 88.2686 1.08999 88.4118 1.46479 88.4118C1.8396 88.4118 2.2146 88.2688 2.50054 87.9827L11.6736 78.8096C11.899 78.5842 12.0449 78.2916 12.0888 77.976Z" fill="black"/>
<path d="M40.073 72.8721C38.7933 73.0604 37.5085 73.7038 36.5257 74.6866L32.3806 78.8317C30.2478 76.8315 27.3027 76.0586 24.4445 76.7618C23.6589 76.9553 23.1789 77.7489 23.3722 78.5344C23.5658 79.32 24.3599 79.7997 25.1449 79.6067C27.0912 79.127 29.0984 79.6862 30.5136 81.1014L31.348 81.9358C31.9201 82.5079 32.8476 82.5079 33.4195 81.9358L38.5972 76.7583C39.8865 75.4692 41.9839 75.4692 43.273 76.7583C43.3125 76.7977 43.3156 76.8604 43.2812 76.9036L34.7052 86.2379C33.9203 87.0922 32.9259 87.7444 31.8296 88.1243L27.7447 89.5389C26.8867 89.836 25.9617 89.7866 25.1402 89.3993L21.5166 87.6907L17.6777 83.8516C17.1056 83.2795 16.1781 83.2795 15.6062 83.8516C15.0341 84.4237 15.0341 85.351 15.6062 85.9231L19.0716 89.3887L11.4888 96.9715C10.9167 97.5436 10.9167 98.4711 11.4888 99.043C11.7748 99.329 12.1498 99.4721 12.5246 99.4721C12.8994 99.4721 13.2744 99.3291 13.5603 99.043L21.6234 90.9799L23.8912 92.0491C24.7548 92.4563 25.6804 92.6616 26.6101 92.6614C27.314 92.6614 28.0205 92.5438 28.7037 92.3071L32.7886 90.8924C34.3419 90.3545 35.7507 89.4303 36.8628 88.22L45.4533 78.87C45.4593 78.8633 45.4654 78.8567 45.4712 78.8499C46.5343 77.6493 46.4789 75.8204 45.3449 74.6866C44.8291 74.1706 44.2439 73.7653 43.6199 73.4684L47.0212 70.067L47.4179 70.4639C48.1294 71.1756 49.0642 71.5313 49.999 71.5313C50.6113 71.5313 51.2222 71.3756 51.7716 71.0704C51.8642 71.1842 51.9613 71.2946 52.0654 71.3987L67.7089 87.0422C69.5042 88.8377 71.8781 90.0196 74.3929 90.37L77.0845 90.745L85.9103 99.5708C86.1962 99.8567 86.5712 99.9998 86.946 99.9998C87.3208 99.9998 87.6959 99.8569 87.9818 99.5708C88.5539 98.9987 88.5539 98.0711 87.9818 97.4993L78.8087 88.3262C78.5834 88.1008 78.2908 87.9551 77.9751 87.9112L74.7972 87.4682C72.9097 87.2051 71.1281 86.318 69.7804 84.9706L54.1369 69.327C54.065 69.2551 54.0039 69.1762 53.9505 69.0932L55.89 67.1536L64.9621 76.2256C65.248 76.5116 65.623 76.6547 65.9978 76.6547C66.3726 76.6547 66.7476 76.5118 67.0335 76.2256C67.6056 75.6536 67.6056 74.726 67.0335 74.1542L57.9615 65.0821L59.9248 63.1188L69.275 72.469C69.5609 72.7549 69.9359 72.8981 70.3107 72.8981C70.6855 72.8981 71.0605 72.7551 71.3464 72.469C71.9185 71.8969 71.9185 70.9694 71.3464 70.3975L61.9962 61.0473L63.9595 59.084L73.2246 68.3491C73.5105 68.635 73.8855 68.7782 74.2603 68.7782C74.6351 68.7782 75.0101 68.6352 75.2961 68.3491C75.8681 67.777 75.8681 66.8495 75.2961 66.2776L66.031 57.0125L67.1376 55.9057C67.138 55.9053 67.1384 55.9049 67.139 55.9045C67.4271 55.6157 67.6968 55.3153 67.9517 55.0067L72.931 59.986C73.1203 61.2631 73.705 62.4926 74.6861 63.4737L78.8312 67.6188C76.831 69.7518 76.0574 72.6969 76.7613 75.5551C76.9257 76.2231 77.524 76.67 78.1824 76.67C78.2984 76.67 78.4162 76.6561 78.5337 76.627C79.3193 76.4336 79.7992 75.6399 79.6058 74.8543C79.1265 72.9081 79.6853 70.901 81.1007 69.4856L81.9351 68.6512C82.5072 68.0791 82.5072 67.1516 81.9351 66.5797L76.7576 61.402C75.4685 60.1129 75.4685 58.0153 76.7576 56.7262C76.7972 56.6866 76.8599 56.6838 76.9031 56.718L79.4578 59.0651C80.0533 59.6124 80.98 59.5731 81.5275 58.9774C82.0748 58.3817 82.0357 57.4549 81.4398 56.9077L78.8695 54.5461C78.8628 54.5401 78.8562 54.534 78.8494 54.5282C77.6488 53.4653 75.8201 53.5207 74.6861 54.6545C74.1703 55.1706 73.765 55.7555 73.4679 56.3795L69.6441 52.5557C69.6214 52.5331 69.597 52.5122 69.5738 52.4901C70.2031 51.2047 70.6052 49.8364 70.7802 48.4436C71.0005 48.2926 71.2093 48.1231 71.3982 47.934L87.0417 32.2905C88.8373 30.4952 90.0191 28.1213 90.3695 25.6065L90.7445 22.9149L99.5703 14.0891C100.142 13.517 100.142 12.5895 99.5703 12.0176C98.9982 11.4456 98.0707 11.4456 97.4988 12.0176L88.3257 21.1907C88.1003 21.4161 87.9546 21.7086 87.9107 22.0243L87.4677 25.2022C87.2046 27.0897 86.3175 28.8713 84.9701 30.219L70.6736 44.5155C70.4876 43.4905 70.1773 42.4842 69.7417 41.5208L76.2251 35.0374C76.7972 34.4653 76.7972 33.5377 76.2251 32.9659C75.6531 32.3938 74.7255 32.3938 74.1537 32.9659L68.1806 38.9389C67.8574 38.5241 67.5089 38.1227 67.1277 37.7415C66.8451 37.4588 66.5521 37.193 66.2505 36.9424L72.4683 30.7247C73.0404 30.1526 73.0404 29.225 72.4683 28.6532C71.8962 28.0811 70.9687 28.0811 70.3968 28.6532L63.7396 35.3104C62.8074 34.8504 61.8302 34.5122 60.8318 34.2918L68.3484 26.7752C68.9205 26.2032 68.9205 25.2756 68.3484 24.7038C67.7763 24.1317 66.8488 24.1317 66.2769 24.7038C66.2769 24.7038 56.9736 34.0108 56.9554 34.0311C56.1861 34.0957 55.4214 34.2293 54.6718 34.4315C54.657 34.4178 54.6412 34.4049 54.6269 34.3907C54.0857 33.8495 54.0857 32.9688 54.6269 32.4274L59.9855 27.0688C61.2628 26.8795 62.4921 26.295 63.4732 25.3137L67.6183 21.1686C69.7513 23.1688 72.6964 23.9422 75.5544 23.2385C76.34 23.045 76.8201 22.2514 76.6267 21.4659C76.4333 20.6803 75.6394 20.2008 74.8541 20.3936C72.9072 20.8731 70.9005 20.3139 69.4853 18.8989L68.6509 18.0645C68.0789 17.4922 67.1513 17.4924 66.5794 18.0645L61.4017 23.242C60.1125 24.5311 58.015 24.5311 56.7259 23.242C56.6865 23.2026 56.6834 23.1399 56.7177 23.0967L65.2937 13.7624C66.0787 12.9081 67.073 12.2559 68.1693 11.876L72.2542 10.4614C73.1124 10.1643 74.0375 10.2137 74.8587 10.601L78.4824 12.3096L82.3214 16.1487C82.8935 16.7209 83.821 16.7208 84.3929 16.1487C84.965 15.5766 84.965 14.6493 84.3929 14.0772L80.9271 10.6114L88.5099 3.02856C89.082 2.45649 89.082 1.52896 88.5099 0.95708C87.938 0.384814 87.0105 0.38501 86.4384 0.95708L78.3753 9.02017L76.1078 7.95103C74.59 7.2354 72.8808 7.1436 71.2953 7.69302L67.2103 9.10747C65.657 9.64536 64.2482 10.5696 63.1361 11.7799L54.5457 21.1299C54.5396 21.1366 54.5335 21.1432 54.5277 21.15C53.4646 22.3506 53.5201 24.1795 54.6541 25.3133C55.1701 25.8293 55.755 26.2344 56.3791 26.5315L52.5552 30.3553C51.147 31.7635 50.9214 33.9083 51.8689 35.5581C51.2187 35.9135 50.5919 36.327 49.999 36.8032C49.1796 36.1452 48.297 35.6045 47.3744 35.177C47.5703 35.0381 47.7582 34.8831 47.9333 34.7077C49.6169 33.0241 49.6169 30.2848 47.9333 28.6012L44.7726 25.4405C44.2005 24.8684 43.273 24.8684 42.7011 25.4405C42.1291 26.0126 42.1291 26.9401 42.7011 27.512L45.8619 30.6727C46.4031 31.2139 46.4031 32.0946 45.8619 32.636C45.5998 32.8981 45.2511 33.0426 44.8802 33.0426C44.5093 33.0426 44.1607 32.8983 43.8986 32.636C43.8529 32.5903 35.0365 23.7739 35.0365 23.7739C34.4644 23.2018 33.5369 23.2018 32.965 23.7739C32.3929 24.3459 32.3929 25.2735 32.965 25.8454L41.1328 34.0131C40.0201 34.084 38.9152 34.2969 37.848 34.6549L30.7238 27.5307C30.1517 26.9586 29.2242 26.9586 28.6523 27.5307C28.0802 28.1028 28.0802 29.0303 28.6523 29.6022L35.046 35.9959C34.2746 36.4881 33.5431 37.0678 32.8701 37.7409C32.8691 37.7418 26.7742 31.6504 26.7742 31.6504C26.2021 31.0784 25.2746 31.0784 24.7027 31.6504C24.1306 32.2225 24.1306 33.15 24.7027 33.7219L31.0376 40.0569C30.5115 40.9057 30.0927 41.8024 29.7828 42.7286C29.7828 42.7286 27.1265 40.0815 27.0722 40.0407C26.8873 38.7536 26.3007 37.5137 25.3126 36.5258L21.1675 32.3807C23.1677 30.2479 23.9412 27.3028 23.2375 24.4446C23.0439 23.659 22.2498 23.1793 21.4648 23.3723C20.6792 23.5659 20.1992 24.3594 20.3925 25.145C20.8718 27.0915 20.313 29.0985 18.8978 30.5137L18.0634 31.3481C17.4914 31.9202 17.4914 32.8477 18.0634 33.4196L23.241 38.5973C24.53 39.8864 24.53 41.984 23.241 43.2731C23.2013 43.3124 23.1388 43.3157 23.0957 43.2813L13.7613 34.7053C12.907 33.9204 12.2548 32.926 11.875 31.8297L10.4603 27.7448C10.1632 26.8866 10.2126 25.9618 10.6 25.1403L12.3085 21.5167L16.1478 17.6784C16.7199 17.1063 16.7199 16.1788 16.1478 15.6069C15.5757 15.0348 14.6482 15.0348 14.0763 15.6069L10.6107 19.0723L3.02788 11.4895C2.45581 10.9172 1.52827 10.9174 0.956396 11.4895C0.384326 12.0616 0.384326 12.9891 0.956396 13.561L9.01948 21.6241L7.95034 23.8916C7.23472 25.4094 7.14312 27.1184 7.69233 28.7041L9.10698 32.7891C9.64487 34.3424 10.5691 35.7512 11.7794 36.8633C11.7794 36.8633 21.1427 45.4659 21.1496 45.4717C21.7251 45.9813 22.4449 46.2338 23.1632 46.2338C23.9437 46.2338 24.7224 45.9358 25.3128 45.3454C25.8287 44.8293 26.2339 44.2444 26.531 43.6204L29.1285 46.2178C29.0494 47.8965 29.2988 49.5875 29.8726 51.1872C29.4044 51.3991 28.9746 51.6924 28.6009 52.0661L24.207 56.46C23.6349 57.0321 23.6349 57.9596 24.207 58.5315C24.4929 58.8174 24.8679 58.9606 25.2427 58.9606C25.6175 58.9606 25.9925 58.8176 26.2785 58.5315L30.6724 54.1375C30.8365 53.9735 31.0125 53.8758 31.1736 53.8168C31.649 54.5506 32.2056 55.2465 32.8458 55.8905L23.7736 64.9627C23.2015 65.5348 23.2015 66.4623 23.7736 67.0342C24.0595 67.3202 24.4345 67.4633 24.8093 67.4633C25.1841 67.4633 25.5591 67.3204 25.8451 67.0342L34.9169 57.9624L36.8802 59.9256L27.5304 69.2754C26.9583 69.8475 26.9583 70.775 27.5304 71.3469C27.8164 71.6329 28.1914 71.776 28.5662 71.776C28.941 71.776 29.316 71.6331 29.6019 71.3469L38.9517 61.9971L40.915 63.9604L31.6505 73.2249C31.0785 73.7969 31.0785 74.7245 31.6505 75.2963C31.9365 75.5823 32.3115 75.7254 32.6863 75.7254C33.0611 75.7254 33.4361 75.5825 33.722 75.2963L42.9865 66.0319L44.9498 67.9952L40.073 72.8721ZM49.4894 68.3924L34.933 53.8354C31.0742 49.967 31.0781 43.6766 34.9416 39.8129C36.875 37.8795 39.416 36.9125 41.9572 36.9125C44.4941 36.9125 47.0316 37.8764 48.9642 39.8043C49.5361 40.3749 50.4615 40.3749 51.0334 39.8043C54.9019 35.9454 61.1923 35.9493 65.056 39.8129C68.9191 43.676 68.9234 49.9655 65.066 53.8342L50.5082 68.3926C50.2277 68.6733 49.7707 68.6733 49.4894 68.3924Z" fill="black"/>
<path d="M21.19 11.6738C21.4154 11.8992 21.708 12.0449 22.0236 12.0888L25.2015 12.5318C27.089 12.7949 28.8707 13.682 30.2183 15.0294L37.8128 22.624C38.0988 22.9099 38.4738 23.0531 38.8486 23.0531C39.2234 23.0531 39.5984 22.9101 39.8843 22.624C40.4564 22.0519 40.4564 21.1244 39.8843 20.5525L32.2898 12.958C30.4945 11.1625 28.1207 9.98061 25.6058 9.63022L22.9142 9.25522L14.0884 0.429053C13.5164 -0.143018 12.5888 -0.143018 12.0169 0.429053C11.4449 1.00112 11.4449 1.92866 12.0169 2.50054L21.19 11.6738Z" fill="black"/>
<path d="M90.9792 78.3759L92.0484 76.1083C92.764 74.5906 92.8556 72.8816 92.3064 71.2959L90.8917 67.2109C90.3539 65.6576 89.4296 64.2488 88.2193 63.1367L86.5302 61.5847C85.9345 61.0373 85.0078 61.0765 84.4605 61.6724C83.9132 62.2681 83.9523 63.1949 84.5482 63.7421L86.2373 65.2941C87.0915 66.0791 87.7437 67.0734 88.1236 68.1697L89.5382 72.2546C89.8353 73.1128 89.7859 74.0376 89.3986 74.8591L87.69 78.4828L83.8509 82.3218C83.2789 82.8939 83.2789 83.8212 83.8509 84.3933C84.1369 84.6794 84.5119 84.8224 84.8867 84.8224C85.2615 84.8224 85.6365 84.6794 85.9224 84.3933L89.388 80.9279L96.9708 88.5107C97.2568 88.7968 97.6318 88.9398 98.0066 88.9398C98.3814 88.9398 98.7564 88.7968 99.0423 88.5107C99.6144 87.9386 99.6144 87.0111 99.0423 86.4392L90.9792 78.3759Z" fill="black"/>
</g>
<defs>
<clipPath id="clip0_430_1125">
<rect width="100" height="100" fill="white"/>
</clipPath>
</defs>
</svg>
