<svg width="100" height="100" viewBox="0 0 100 100" fill="none" xmlns="http://www.w3.org/2000/svg">
<path d="M40.625 82.8125V96.875H10.9375V73.9219C12.8594 75.9688 15.4219 77.6094 18.4531 78.8594C23.375 80.9062 29.5312 81.9062 36.1719 81.9062L40.625 82.8125Z" fill="#B4DD7F"/>
<path d="M46.8753 73.4844C43.0003 73.5625 32.719 73.2344 25.094 68.5938L25.0003 68.75L18.7503 78.125L18.4534 78.8594C15.4222 77.6094 12.8597 75.9688 10.9378 73.9219C9.51592 72.4063 8.45342 70.6875 7.81279 68.75C3.12529 54.6875 18.7503 50 18.7503 50C25.0003 57.8125 31.2503 50 31.2503 50H53.3128C53.6722 50.0625 54.0159 50.1094 54.344 50.1094C44.2972 56.7031 46.8753 73.4375 46.8753 73.4375V73.4844Z" fill="#B4DD7F"/>
<path d="M90.625 96.875H50C50 84.375 54.6875 79.6875 54.6875 79.6875L54.6406 79.5C56.4375 79.0469 58.2188 78.5156 59.9688 77.9219L60.9375 78.125C60.9375 78.125 68.75 87.5 82.8125 84.375C84.5469 83.9844 86.0781 83.4063 87.4062 82.6563L87.5 82.8125C90.625 89.0625 90.625 96.875 90.625 96.875Z" fill="#FF826E"/>
<path d="M90.625 56.25C93.0156 59.8437 94.5 64.3594 94.6094 68.7344L93.75 68.75H84.375L83.8906 68.7656C83.8906 70.25 83.6094 71.8437 82.8125 73.4375C79.5625 79.9375 71.5625 77.0625 68.4531 75.625L68.75 75V59.375C71.5625 59.375 72.6875 57.6875 73.1406 56.3281C73.4219 55.4844 74.25 54.9375 75.1406 55.0312C76.5625 55.1719 78.4687 55.0312 79.4687 53.4688C79.9062 53.9844 80.7031 54.375 81.25 54.6875L85.9375 57.4063C86.7656 57.9063 87.7969 57.9531 88.6562 57.5156L90.625 56.25Z" fill="#FF826E"/>
<path d="M59.3747 70.3125L54.6872 71.875V68.75H53.1247C51.5622 68.75 50.3122 69.375 49.9997 70.3125L48.4372 73.4375C48.4372 73.4375 47.8591 73.4844 46.8747 73.4844V73.4375C46.8747 73.4375 44.2966 56.7031 54.3434 50.1094H54.3591C55.3747 49.4375 56.5153 48.875 57.8122 48.4375L58.0466 48.7344C57.4059 49.8594 56.9372 51.375 57.8122 53.125C58.7966 55.1094 61.0466 55.2031 62.5622 55.0156C63.3591 54.9062 64.0778 55.4063 64.3122 56.1719C64.7184 57.5469 65.8122 59.375 68.7497 59.375V75L68.4528 75.625C67.6559 75.2656 67.1872 75 67.1872 75C67.1872 75 67.1872 73.4375 65.6247 71.875C64.0622 70.3125 60.9372 71.875 60.9372 71.875C60.9372 71.0312 60.1872 70.1094 59.3747 70.3125Z" fill="#FF826E"/>
<path d="M78.1247 46.875C79.6872 48.4375 79.6872 51.5625 79.6872 51.5625C78.9059 52.3437 79.0153 52.9688 79.4684 53.4688C78.4684 55.0313 76.5622 55.1719 75.1403 55.0313C74.2497 54.9375 73.4215 55.4844 73.1403 56.3281C72.6872 57.6875 71.5622 59.375 68.7497 59.375C65.8122 59.375 64.7184 57.5469 64.3122 56.1719C64.0778 55.4062 63.359 54.9062 62.5622 55.0156C61.0465 55.2031 58.7965 55.1094 57.8122 53.125C56.9372 51.375 57.4059 49.8594 58.0465 48.7344C58.5622 47.8594 59.1872 47.2031 59.3747 46.875L59.4215 46.7812C60.2653 47.1875 61.2809 47.5469 62.4997 47.8281V48.4375C62.4997 48.4375 62.4997 53.125 68.7497 53.125C74.9997 53.125 74.9997 48.4375 74.9997 48.4375V47.8281C76.2184 47.5469 77.234 47.1875 78.0778 46.7812L78.1247 46.875Z" fill="#FC6E51"/>
<path d="M56.2491 35.9375C56.2491 35.9375 52.5304 43.3594 59.421 46.7812L59.3741 46.875C59.1866 47.2031 58.5616 47.8594 58.046 48.7344L57.8116 48.4375C56.5148 48.875 55.3741 49.4375 54.3585 50.1094C54.3585 50.1094 54.3585 50.1094 54.3429 50.1094C54.0148 50.1094 53.671 50.0625 53.3116 50C51.2804 49.625 49.1085 48.2188 49.9991 43.75C49.9991 43.75 46.8741 42.1875 46.8741 37.5C46.8741 32.8125 49.9991 31.25 49.9991 31.25C49.9991 31.25 43.7491 25 48.4366 18.75C53.1241 12.5 57.8116 10.9375 70.3116 10.9375C82.8116 10.9375 90.6241 17.1875 87.4991 28.125C87.4991 28.125 90.6241 29.6875 90.6241 34.375C90.6241 39.0625 87.4991 40.625 87.4991 40.625C87.4991 40.625 89.0616 42.1875 89.0616 45.3125C89.0616 48.4375 85.9366 50 85.9366 50L85.6241 50.625L84.3741 50C83.5773 49.4688 81.7804 49.2031 81.2491 50L79.6866 51.5625C79.6866 51.5625 79.6866 48.4375 78.1241 46.875L78.0773 46.7812C84.9679 43.3594 81.2491 35.9375 81.2491 35.9375L81.2023 35.8906C82.2023 34.9062 82.8116 33.5312 82.8116 32.0312C82.8116 29.7812 81.4366 27.8281 79.4835 27L79.6866 26.5625C78.1241 18.75 70.3116 20.3125 70.3116 20.3125C71.8741 23.4375 70.3116 25 70.3116 25C68.7491 23.4375 60.9366 20.3125 60.9366 20.3125C57.8116 21.875 57.8116 26.5625 57.8116 26.5625L58.0148 27C56.0616 27.8281 54.6866 29.7812 54.6866 32.0312C54.6866 33.5312 55.296 34.9062 56.296 35.8906L56.2491 35.9375Z" fill="#E6E9ED"/>
<path d="M42.1875 17.5C37.9531 21.3437 26.5625 20.3125 26.5625 20.3125C26.5625 20.3125 21.625 20.3125 18.9219 18.5156L18.75 18.75V26.5625C18.75 26.5625 14.0625 26.5625 14.0625 31.25C14.0625 35.9375 18.75 35.9375 18.75 35.9375V42.1875C18.75 42.1875 4.6875 40.625 4.6875 21.875C4.6875 3.125 28.125 4.6875 28.125 4.6875C28.125 4.6875 43.75 6.25 43.75 14.0625C43.75 15.5156 43.1562 16.6406 42.1875 17.5Z" fill="#656D78"/>
<path d="M90.6259 56.25L88.6572 57.5156C87.7978 57.9531 86.7665 57.9063 85.9384 57.4063L81.2509 54.6875C80.704 54.375 79.9072 53.9844 79.4697 53.4688C79.0165 52.9688 78.9072 52.3438 79.6884 51.5625L81.2509 50C81.7822 49.2031 83.579 49.4688 84.3759 50L85.6259 50.625L90.6259 53.125C91.4384 53.6094 91.4072 55.7188 90.6259 56.25Z" fill="#F0D0B4"/>
<path d="M79.4844 27C81.4375 27.8281 82.8125 29.7812 82.8125 32.0312C82.8125 33.5312 82.2031 34.9062 81.2031 35.8906C80.2188 36.8906 78.8438 37.5 77.3438 37.5C74.5938 37.5 72.2969 35.4531 71.9375 32.7969C71.8906 32.5469 71.875 32.2969 71.875 32.0312C71.875 29.0156 74.3281 26.5625 77.3438 26.5625C78.0938 26.5625 78.8281 26.7188 79.4844 27Z" fill="#69D6F4"/>
<path d="M65.625 32.0312C65.625 32.2969 65.6094 32.5469 65.5625 32.7969C65.2031 35.4531 62.9062 37.5 60.1562 37.5C58.6562 37.5 57.2812 36.8906 56.2969 35.8906C55.2969 34.9062 54.6875 33.5312 54.6875 32.0312C54.6875 29.7812 56.0625 27.8281 58.0156 27C58.6719 26.7188 59.4062 26.5625 60.1562 26.5625C63.1719 26.5625 65.625 29.0156 65.625 32.0312Z" fill="#69D6F4"/>
<path d="M93.75 68.75L94.6094 68.7344C94.7656 74.3594 92.6719 79.75 87.4062 82.6562C86.0781 83.4062 84.5469 83.9844 82.8125 84.375C68.75 87.5 60.9375 78.125 60.9375 78.125L59.9688 77.9219C60.5469 77.7344 60.9375 77.1719 60.9375 76.5625V71.875C60.9375 71.875 64.0625 70.3125 65.625 71.875C67.1875 73.4375 67.1875 75 67.1875 75C67.1875 75 67.6563 75.2656 68.4531 75.625C71.5625 77.0625 79.5625 79.9375 82.8125 73.4375C83.6094 71.8437 83.8906 70.25 83.8906 68.7656L84.375 68.75H93.75Z" fill="#F0D0B4"/>
<path d="M54.6875 68.75V71.875L59.375 70.3125C60.1875 70.1094 60.9375 71.0312 60.9375 71.875V76.5625C60.9375 77.1719 60.5469 77.7344 59.9687 77.9219C58.2187 78.5156 56.4375 79.0469 54.6406 79.5C48.4687 81.0937 42.125 81.9062 36.1719 81.9062C29.5312 81.9062 23.375 80.9062 18.4531 78.8594L18.75 78.125L25 68.75L25.0937 68.5938C32.7187 73.2344 43 73.5625 46.875 73.4844C47.8594 73.4844 48.4375 73.4375 48.4375 73.4375L50 70.3125C50.3125 69.375 51.5625 68.75 53.125 68.75H54.6875Z" fill="#F0D0B4"/>
<path d="M75 48.4375C75 48.4375 75 53.125 68.75 53.125C62.5 53.125 62.5 48.4375 62.5 48.4375V47.8281C64.1875 48.2188 66.25 48.4375 68.75 48.4375C71.25 48.4375 73.3125 48.2188 75 47.8281V48.4375Z" fill="#F0D0B4"/>
<path d="M56.2969 35.8906C57.2813 36.8906 58.6563 37.5 60.1563 37.5C62.9063 37.5 65.2032 35.4531 65.5626 32.7969L65.6251 32.8125H71.8751L71.9376 32.7969C72.2969 35.4531 74.5938 37.5 77.3438 37.5C78.8438 37.5 80.2188 36.8906 81.2032 35.8906L81.2501 35.9375C81.2501 35.9375 84.9688 43.3594 78.0782 46.7813C77.2344 47.1875 76.2188 47.5469 75.0001 47.8281C73.3126 48.2188 71.2501 48.4375 68.7501 48.4375C66.2501 48.4375 64.1876 48.2188 62.5001 47.8281C61.2813 47.5469 60.2657 47.1875 59.4219 46.7813C52.5313 43.3594 56.2501 35.9375 56.2501 35.9375L56.2969 35.8906Z" fill="#F0D0B4"/>
<path d="M60.1562 26.5625C59.4062 26.5625 58.6719 26.7187 58.0156 27L57.8125 26.5625C57.8125 26.5625 57.8125 21.875 60.9375 20.3125C60.9375 20.3125 68.75 23.4375 70.3125 25C70.3125 25 71.875 23.4375 70.3125 20.3125C70.3125 20.3125 78.125 18.75 79.6875 26.5625L79.4844 27C78.8281 26.7187 78.0938 26.5625 77.3438 26.5625C74.3281 26.5625 71.875 29.0156 71.875 32.0312C71.875 32.2969 71.8906 32.5469 71.9375 32.7969L71.875 32.8125H65.625L65.5625 32.7969C65.6094 32.5469 65.625 32.2969 65.625 32.0312C65.625 29.0156 63.1719 26.5625 60.1562 26.5625Z" fill="#F0D0B4"/>
<path d="M31.2656 45.2188L31.25 45.3125V50C31.25 50 25 57.8125 18.75 50V42.1875V35.9375C18.75 35.9375 14.0625 35.9375 14.0625 31.25C14.0625 26.5625 18.75 26.5625 18.75 26.5625V18.75L18.9219 18.5156C21.625 20.3125 26.5625 20.3125 26.5625 20.3125C26.5625 20.3125 37.9531 21.3438 42.1875 17.5V34.375C42.1875 34.375 42.1875 45.3125 32.8125 45.3125C32.2656 45.3125 31.75 45.2813 31.2656 45.2188Z" fill="#F0D0B4"/>
<path d="M30.3867 28.8281L28.9883 26.0328C26.6289 27.2109 24.1523 26.0391 24.1273 26.0281L22.7383 28.8281C22.8414 28.8797 24.4914 29.6859 26.6883 29.6859C27.8227 29.6859 29.1008 29.4719 30.3867 28.8281Z" fill="black"/>
<path d="M33.5023 26.0281L32.1133 28.8281C32.2164 28.8797 33.8664 29.6859 36.0633 29.6859C37.1961 29.6859 38.4742 29.4719 39.7617 28.8281L38.3633 26.0328C36.0039 27.2125 33.5273 26.0406 33.5023 26.0281Z" fill="black"/>
<path d="M27.4301 36.2L25.6973 38.8C27.566 40.0453 29.4223 40.461 31.0691 40.461C34.2598 40.461 36.6566 38.9 36.8066 38.8L35.0738 36.2C35.0332 36.2266 31.2082 38.7203 27.4301 36.2Z" fill="black"/>
<path d="M94.8844 76.4141C97.2563 70.5125 96.2531 62.5797 92.4703 56.3156C92.6891 55.8016 92.8016 55.1969 92.7859 54.5438C92.7547 53.2891 92.2609 52.2844 91.3234 51.7266L88.3016 50.2156C89.3969 49.2266 90.625 47.6047 90.625 45.3125C90.625 43.3781 90.1203 41.9297 89.6141 40.9641C90.7609 39.8531 92.1875 37.7875 92.1875 34.375C92.1875 30.6219 90.4625 28.4969 89.2797 27.4812C90.3125 22.9937 89.6344 19.0109 87.2922 15.9078C84.1141 11.6953 78.0844 9.375 70.3125 9.375C57.1266 9.375 52.1547 11.1891 47.1875 17.8125C43.4719 22.7656 45.5281 28.0453 47.7609 31.0344C46.6375 32.1719 45.3125 34.2109 45.3125 37.5C45.3125 41.3422 47.1219 43.4781 48.3047 44.4641C48.1203 46.0266 48.3141 47.3391 48.8203 48.4375H32.8125V46.875C41.4641 46.875 43.75 38.6984 43.75 34.375V18.1125C44.7547 16.9734 45.3125 15.5969 45.3125 14.0625C45.3125 4.94062 28.975 3.20156 28.2281 3.12812C27.7094 3.09375 15.4953 2.3625 8.25313 9.13906C4.85 12.3234 3.125 16.6078 3.125 21.875C3.125 38.1969 13.3938 42.4375 17.1875 43.4469V48.9C14.8687 49.8062 9.52813 52.3594 6.88438 57.4516C5.07188 60.9422 4.88594 64.9094 6.33125 69.2438C6.975 71.1766 8.00625 72.925 9.375 74.5V98.4375H42.1875V83.1984C45.2391 82.9437 48.3406 82.4953 51.4328 81.8547C50.0203 84.6922 48.4375 89.5109 48.4375 96.875V98.4375H92.1875V96.875C92.1875 96.5594 92.1516 89.4969 89.4188 83.2359C91.8719 81.5578 93.7359 79.275 94.8844 76.4141ZM85.3391 67.1875C84.8234 63.1781 82.6406 60.1891 82.5 60L80 61.875C80.0406 61.9297 84.0766 67.4141 81.4141 72.7391C80.6578 74.2531 79.5734 75.2062 78.1016 75.6547C75.5484 76.4312 72.4156 75.5547 70.3125 74.7281V60.7578C72.3828 60.3031 73.9219 58.9344 74.6234 56.8234C74.675 56.6672 74.8234 56.5844 74.9844 56.5891C76.8859 56.7906 78.4625 56.425 79.6219 55.5672C79.8656 55.7125 80.1047 55.8453 80.3187 55.9609L85.1359 58.7516C85.8328 59.1703 86.6109 59.3797 87.3922 59.3797C88.0641 59.3797 88.7359 59.2234 89.3594 58.9125L90.1016 58.4391C91.6578 61.175 92.6156 64.2062 92.925 67.1891L85.3391 67.1875ZM61.8094 69.8906C61.6437 69.6719 61.4562 69.4703 61.2422 69.3016C60.5844 68.7891 59.7656 68.6062 58.8812 68.8297L57.6266 69.2469C57.3078 67.3781 57.1359 63.8234 58.9172 62.0406L56.7078 59.8312C54.6688 61.8703 54.2562 64.8578 54.3078 67.1859H53.125C50.9188 67.1859 49.1453 68.1656 48.5625 69.6922L48.1906 70.4359C47.9906 65.7406 48.4609 56.2719 54.8328 51.6906C55.1969 51.6859 55.5172 51.6656 55.7875 51.6375C55.8469 52.325 56.0312 53.0531 56.4156 53.8203C57.4906 55.9703 59.7469 56.9437 62.8141 56.6156C63.4828 58.8453 65.0469 60.2844 67.1891 60.7531V71.2969C67.0422 71.1203 66.9078 70.9437 66.7313 70.7656C65.275 69.3156 63.2234 69.5047 61.8094 69.8906ZM20.6938 78.025L25.5859 70.6859C35.2812 75.8547 47.8484 75.0484 48.5484 74.9953L49.4359 74.9328L51.3969 71.0109L51.4797 70.8125C51.5422 70.6844 52.0703 70.3125 53.125 70.3125V74.0437L59.3766 71.9547L59.4656 76.4484C45.8875 81.0453 30.8875 81.5734 20.6938 78.025ZM42.1875 64.0625H45.2609C44.875 67.2828 44.9891 70.1641 45.1344 71.9203C44.2766 71.9031 43.2859 71.8625 42.1875 71.7812V64.0625ZM72.4547 21.7641C72.9297 21.7953 73.4609 21.8672 74.0031 22.0156C75.6797 22.4719 76.8578 23.4656 77.5719 25.0234C77.4938 25.0203 77.4219 25 77.3438 25C73.7344 25 70.7859 27.7437 70.3922 31.25H67.1094C66.7156 27.7437 63.7672 25 60.1578 25C59.9547 25 59.7625 25.0437 59.5641 25.0594C59.7656 24.0641 60.1875 22.8156 61.0984 22.0625C64.1891 23.3344 68.3594 25.2531 69.2094 26.1031L70.3125 27.2094L71.4172 26.1047C72.0859 25.4359 72.8562 23.9047 72.4547 21.7641ZM77.3438 35.9375C75.1906 35.9375 73.4375 34.1844 73.4375 32.0312C73.4375 29.8781 75.1906 28.125 77.3438 28.125C79.4969 28.125 81.25 29.8781 81.25 32.0312C81.25 34.1844 79.4969 35.9375 77.3438 35.9375ZM60.1562 28.125C62.3094 28.125 64.0625 29.8781 64.0625 32.0312C64.0625 34.1844 62.3094 35.9375 60.1562 35.9375C58.0031 35.9375 56.25 34.1844 56.25 32.0312C56.25 29.8781 58.0031 28.125 60.1562 28.125ZM57.0813 38.3234C58.0141 38.7812 59.0484 39.0625 60.1562 39.0625C63.2078 39.0625 65.7844 37.0969 66.7562 34.375H70.7453C71.7156 37.0969 74.2937 39.0625 77.3453 39.0625C78.4516 39.0625 79.4859 38.7828 80.4172 38.325C80.7469 39.6719 80.9313 41.5828 79.9391 43.1891C78.4469 45.6 74.5781 46.875 68.75 46.875C62.9328 46.875 59.0672 45.6047 57.5719 43.2031C56.5641 41.5875 56.7484 39.6734 57.0813 38.3234ZM78.0953 51.0656C77.5781 51.8312 77.5094 52.5359 77.5813 53.0328C77.5859 53.0641 77.5984 53.0906 77.6031 53.1203C77.0656 53.4469 76.3172 53.5812 75.3109 53.4797C73.7016 53.2969 72.1672 54.3 71.6562 55.8375C71.2094 57.1859 70.2859 57.8125 68.75 57.8125C67.1703 57.8125 66.2344 57.1484 65.8063 55.7219C65.3547 54.2125 63.9 53.2703 62.3578 53.4594C60.7203 53.6719 59.6578 53.3234 59.2094 52.4266C58.4938 50.9938 59.1094 49.8344 59.9656 48.7C60.2812 48.8187 60.6375 48.9094 60.9766 49.0109C61.2422 51.2469 63.0781 54.6875 68.75 54.6875C74.4219 54.6875 76.2578 51.2469 76.5234 49.0094C76.8531 48.9109 77.1984 48.8219 77.5062 48.7078C77.8734 49.4672 78.0375 50.4219 78.0953 51.0656ZM64.4531 49.7328C65.775 49.9016 67.1937 50 68.75 50C70.3047 50 71.7219 49.9016 73.0422 49.7328C72.5375 50.5938 71.3859 51.5625 68.75 51.5625C66.1078 51.5625 64.9578 50.6063 64.4531 49.7328ZM89.6156 55.0422L87.8969 56.1453C87.5234 56.3109 87.0953 56.2828 86.7219 56.0578L82.0016 53.3172L81.8063 53.2125C81.5766 53.0875 81.1156 52.8375 80.8328 52.6266L82.3969 51.0625C82.6719 51.0281 83.2516 51.1312 83.5062 51.3016L89.6344 54.375C89.6766 54.5656 89.6672 54.8672 89.6156 55.0422ZM51.1047 30.1453C50.8891 29.9297 45.8578 24.7953 49.6875 19.6875C53.9703 13.9781 58.2109 12.5 70.3125 12.5C77.0797 12.5 82.2234 14.3781 84.7969 17.7891C86.7375 20.3609 87.1406 23.6937 85.9984 27.6953L85.675 28.9156L86.7812 29.5125C86.8734 29.5625 89.0625 30.7844 89.0625 34.375C89.0625 37.9656 86.8734 39.1875 86.8016 39.2266L84.9484 40.1828L86.3781 41.7125C86.4234 41.7609 87.5 42.9391 87.5 45.3125C87.5 47.4094 85.2531 48.5953 85.2391 48.6016L85.2938 48.7125L85.1484 48.6391C84.5125 48.2437 83.6438 47.9844 82.7984 47.9375C81.9844 47.9016 81.2922 48.0703 80.7438 48.4031C80.6203 48.0187 80.4578 47.6344 80.2672 47.2562C81.2266 46.5719 82.0156 45.7703 82.5969 44.8312C84.6203 41.5562 83.6469 37.8203 83.025 36.1391C83.8656 34.9812 84.375 33.5687 84.375 32.0312C84.375 29.5766 83.1063 27.4172 81.1937 26.1594C80.2078 21.4187 77.1937 19.6469 74.825 19C72.3469 18.325 70.1016 18.7625 70.0062 18.7797L68 19.1812L68.9141 21.0109C69.2109 21.6047 69.3562 22.1016 69.4125 22.5062C66.7078 20.9672 62.5422 19.2719 61.5172 18.8609L60.8656 18.6L60.2375 18.9141C56.8391 20.6141 56.3375 24.8828 56.2625 26.1812C54.375 27.4437 53.125 29.5937 53.125 32.0312C53.125 33.5687 53.6344 34.9812 54.475 36.1391C53.8531 37.8203 52.8797 41.5578 54.9031 44.8312C55.4328 45.6891 56.1219 46.4406 56.9688 47.0859C55.8609 47.4812 54.8547 47.9625 53.9375 48.5141C53.2234 48.4266 52.5 48.2094 52.025 47.7312C51.3469 47.0469 51.1797 45.8109 51.5312 44.0547L51.7359 42.9094L50.7188 42.3609C50.6266 42.3125 48.4375 41.0906 48.4375 37.5C48.4375 33.9094 50.6266 32.6875 50.6984 32.6484L52.6375 31.6781L51.1047 30.1453ZM32.8125 43.75C30.7734 43.75 28.9766 43.3031 27.3203 42.3828L25.8031 45.1156C27.0328 45.7984 28.325 46.2547 29.6859 46.5391V49.3969C28.9406 50.1734 27.0266 51.9094 24.7672 51.9094C24.7625 51.9094 24.7578 51.9094 24.7531 51.9094C23.2281 51.9031 21.7359 51.0609 20.3109 49.4219V34.375H18.7484C18.2266 34.375 15.6234 34.225 15.6234 31.25C15.6234 28.3953 18.025 28.1359 18.7484 28.125H20.3109V20.9078C22.975 21.8109 25.8813 21.8656 26.4203 21.8687C27.4625 21.9625 35.3891 22.5781 40.6234 20.2875V34.3703C40.6234 34.7547 40.4938 43.75 32.8125 43.75ZM6.25 21.875C6.25 17.5125 7.63906 13.9969 10.3797 11.4281C16.6219 5.57968 27.9125 6.2375 27.9688 6.24218C31.9234 6.64218 42.1875 8.825 42.1875 14.0625C42.1875 14.9766 41.8609 15.7016 41.1578 16.3437C38.1219 19.1172 29.6937 19.0266 26.5641 18.75C24.0141 18.7453 18.75 17.975 18.75 15.625C18.75 15.0344 18.9344 14.9094 19.0141 14.8547C19.9172 14.2391 22.7328 14.8422 24.4203 15.5125L25.5797 12.6109C24.6531 12.2406 19.8969 10.4828 17.2609 12.2656C16.5156 12.7719 15.625 13.7656 15.625 15.625C15.625 17.1531 16.2453 18.3062 17.1875 19.1781V25.1969C14.9297 25.7547 12.5 27.5531 12.5 31.25C12.5 34.9469 14.9297 36.7453 17.1875 37.3031V40.2422C13.7063 39.1719 6.25 35.3109 6.25 21.875ZM9.65 58.9078C11.7719 54.8031 16.3094 52.6187 18.2688 51.8359C20.2359 53.9594 22.4188 55.0359 24.7688 55.0359C28.1859 55.0359 30.8578 52.6906 31.9453 51.5625H50.2812C47.8781 54.2828 46.5219 57.65 45.7922 60.9375H42.1875V57.8125H39.0625V71.4578C32.4844 70.5828 24.1328 68.1641 20.075 61.6719L17.425 63.3297C18.8875 65.6687 20.7891 67.5391 22.9266 69.0453L17.7406 76.8234C17.6297 76.7703 17.5062 76.725 17.3969 76.6703C13.1844 74.5766 10.4578 71.7469 9.29531 68.2562C8.12969 64.7609 8.25 61.6172 9.65 58.9078ZM39.0625 95.3125H12.5V77.3578C13.5547 78.1234 14.7203 78.8297 16.0063 79.4688C21.3531 82.125 28.4688 83.4531 36.225 83.4531C37.1625 83.4531 38.1094 83.4312 39.0625 83.3922V95.3125ZM88.9938 95.3125H51.5891C51.9328 85.2203 55.5234 81.0891 55.7781 80.8094C57.2281 80.4219 58.6703 79.9984 60.0953 79.5234C61.5625 81.0844 67.4188 86.5828 77.1125 86.5828C78.9844 86.5828 80.9984 86.3766 83.1516 85.8984C84.4062 85.6187 85.5688 85.2266 86.6594 84.7547C88.3141 88.6906 88.8359 93.0453 88.9938 95.3125ZM82.4734 82.8484C70.65 85.4797 63.6875 78.7953 62.3703 77.3812C62.4453 77.1187 62.5 76.8469 62.5 76.5625V72.9484C63.2672 72.7266 64.1625 72.625 64.5203 72.9797C65.5625 74.0219 65.6234 74.9953 65.625 75V75.9078L66.4125 76.3578C66.6469 76.4906 71.2406 79.0734 75.9391 79.0734C76.9703 79.0734 78.0062 78.9484 79.0016 78.6469C81.3109 77.9469 83.0641 76.4297 84.2094 74.1359C84.8563 72.8406 85.2109 71.5531 85.3641 70.3125H93.0047C92.9062 72.0609 92.5906 73.7406 91.9844 75.2484C90.4016 79.1906 87.1125 81.8187 82.4734 82.8484Z" fill="black"/>
<path d="M74.3051 43.4875L72.5723 40.8875C68.8395 43.3781 65.0832 40.9859 64.9238 40.8828L63.1973 43.4875C63.3473 43.5875 65.7441 45.1484 68.9348 45.1484C70.5785 45.1484 72.4363 44.7328 74.3051 43.4875Z" fill="black"/>
</svg>
