<svg width="100" height="100" viewBox="0 0 100 100" fill="none" xmlns="http://www.w3.org/2000/svg">
<g clip-path="url(#clip0_559_713)">
<path d="M48.0113 75.6472C55.2545 75.6472 61.1262 69.7755 61.1262 62.5324C61.1262 55.2893 55.2545 49.4175 48.0113 49.4175C40.7682 49.4175 34.8965 55.2893 34.8965 62.5324C34.8965 69.7755 40.7682 75.6472 48.0113 75.6472Z" fill="#0F7A4F"/>
<path d="M61.1256 62.533C61.1256 69.7752 55.2529 75.6478 48.0107 75.6478C44.9203 75.6478 42.0795 74.5787 39.8379 72.7894C41.0145 73.1367 42.2592 73.322 43.5488 73.322C50.791 73.322 56.6617 67.4494 56.6617 60.2072C56.6617 56.0552 54.7322 52.3523 51.7217 49.9506C57.1572 51.5506 61.1256 56.5785 61.1256 62.533Z" fill="#0C6842"/>
<path d="M68.2398 44.3137C75.483 44.3137 81.3547 38.442 81.3547 31.1988C81.3547 23.9557 75.483 18.084 68.2398 18.084C60.9967 18.084 55.125 23.9557 55.125 31.1988C55.125 38.442 60.9967 44.3137 68.2398 44.3137Z" fill="#158F5E"/>
<path d="M81.3557 31.1992C81.3557 38.4416 75.483 44.314 68.2408 44.314C67.1932 44.314 66.1746 44.1912 65.1992 43.959C70.9742 42.5855 75.2705 37.3937 75.2705 31.1992C75.2705 25.0027 70.9742 19.8109 65.1992 18.4394C66.1748 18.2072 67.1932 18.0844 68.2408 18.0844C75.483 18.0844 81.3557 23.9551 81.3557 31.1992Z" fill="#0F7A4F"/>
<path d="M85.4195 62.177C92.6627 62.177 98.5344 56.3052 98.5344 49.0621C98.5344 41.819 92.6627 35.9473 85.4195 35.9473C78.1764 35.9473 72.3047 41.819 72.3047 49.0621C72.3047 56.3052 78.1764 62.177 85.4195 62.177Z" fill="#158F5E"/>
<path d="M98.535 49.0631C98.535 56.3055 92.6623 62.1779 85.4201 62.1779C84.2279 62.1779 83.073 62.018 81.9746 61.7195C88.4014 60.8729 93.3609 55.3748 93.3609 48.7178C93.3609 42.6676 89.2637 37.5734 83.6916 36.0613C84.2574 35.9873 84.835 35.9482 85.4203 35.9482C92.6623 35.948 98.535 41.8188 98.535 49.0631Z" fill="#0F7A4F"/>
<path d="M77.0014 72.3617C71.3473 72.3617 66.7637 67.7781 66.7637 62.124V39.7334C66.7637 34.0793 71.3473 29.4957 77.0014 29.4957C82.6555 29.4957 87.2391 34.0793 87.2391 39.7334V62.124C87.2391 67.7781 82.6555 72.3617 77.0014 72.3617Z" fill="#D2F0A2"/>
<path d="M87.2402 39.7332V62.1234C87.2402 67.7775 82.6553 72.3625 77.0012 72.3625C76.133 72.3625 75.29 72.2553 74.4863 72.0504C78.925 70.9305 82.2105 66.9094 82.2105 62.1234V39.7332C82.2105 36.906 81.0652 34.3463 79.2117 32.4949C77.9279 31.2111 76.3047 30.2668 74.4863 29.8084C75.2902 29.6035 76.133 29.4963 77.0012 29.4963C79.8283 29.4963 82.3881 30.6416 84.2414 32.4951C86.0949 34.3463 87.2402 36.906 87.2402 39.7332Z" fill="#BCEA73"/>
<path d="M24.8549 46.7449C19.2008 46.7449 14.6172 42.1613 14.6172 36.5072V22.1757C14.6172 16.5216 19.2008 11.938 24.8549 11.938C30.509 11.938 35.0926 16.5216 35.0926 22.1757V36.5072C35.0926 42.1613 30.509 46.7449 24.8549 46.7449Z" fill="#D2F0A2"/>
<path d="M35.0918 22.1755V36.508C35.0918 42.1621 30.5088 46.7451 24.8547 46.7451C23.8869 46.7451 22.9484 46.6105 22.0607 46.3587C26.357 45.1433 29.5039 41.1943 29.5039 36.508V22.1755C29.5039 19.3484 28.3586 16.7888 26.5051 14.9371C25.2877 13.7177 23.7639 12.8066 22.0605 12.3246C22.9482 12.0728 23.8867 11.9382 24.8545 11.9382C27.6816 11.9382 30.2414 13.0835 32.0928 14.9369C33.9465 16.7888 35.0918 19.3486 35.0918 22.1755Z" fill="#BCEA73"/>
<path d="M39.2078 65.5988C47.7924 65.5988 54.7516 58.6396 54.7516 50.055C54.7516 41.4705 47.7924 34.5113 39.2078 34.5113C30.6232 34.5113 23.6641 41.4705 23.6641 50.055C23.6641 58.6396 30.6232 65.5988 39.2078 65.5988Z" fill="#1CA56F"/>
<path d="M54.7514 50.0541C54.7514 58.6386 47.792 65.598 39.2074 65.598C36.7432 65.598 34.4137 65.0244 32.3438 64.0021C39.5723 62.6676 45.049 56.3326 45.049 48.7177C45.049 42.5972 41.5117 37.3041 36.3707 34.7697C37.2896 34.6 38.2379 34.5121 39.2074 34.5121C47.792 34.5121 54.7514 41.4715 54.7514 50.0541Z" fill="#158F5E"/>
<path d="M68.2398 53.3781C68.2398 71.3922 63.618 71.0709 57.9168 71.0709C52.2156 71.0709 47.5938 71.3922 47.5938 53.3781C47.5938 35.3641 53.4191 15.04 57.9168 15.04C62.4144 15.04 68.2398 35.3641 68.2398 53.3781Z" fill="#A3E440"/>
<path d="M68.2398 53.3781C68.2398 71.3922 63.618 71.0709 57.9168 71.0709C52.2156 71.0709 47.5938 71.3922 47.5938 53.3781C47.5938 35.3641 53.4191 15.04 57.9168 15.04C62.4144 15.04 68.2398 35.3641 68.2398 53.3781Z" fill="#A3E440"/>
<path d="M68.2398 53.3778C68.2398 71.3928 63.6191 71.0705 57.9178 71.0705C56.9891 71.0705 56.0875 71.0795 55.2305 71.0147C59.6273 70.6879 62.8652 68.4526 62.8652 53.3778C62.8652 38.8244 59.0613 22.7651 55.2305 17.1307C56.1412 15.7903 57.0541 15.0406 57.9178 15.0406C62.4154 15.0408 68.2398 35.3651 68.2398 53.3778Z" fill="#99D53B"/>
<path d="M1.56836 66.523C1.56836 80.398 7.82246 80.1505 15.5371 80.1505C23.2518 80.1505 29.5059 80.398 29.5059 66.523C29.5059 52.648 21.6232 36.9937 15.5371 36.9937C9.45098 36.9937 1.56836 52.648 1.56836 66.523Z" fill="#A3E440"/>
<path d="M1.56836 66.523C1.56836 80.398 7.82246 80.1505 15.5371 80.1505C23.2518 80.1505 29.5059 80.398 29.5059 66.523C29.5059 52.648 21.6232 36.9937 15.5371 36.9937C9.45098 36.9937 1.56836 52.648 1.56836 66.523Z" fill="#99D53B"/>
<path d="M29.5055 66.5228C29.5055 80.3986 23.2523 80.1508 15.5379 80.1508C14.5352 80.1508 13.5596 80.1547 12.6172 80.1312C18.9287 79.9771 23.6641 78.5959 23.6641 66.5226C23.6641 54.7969 18.0354 41.801 12.6172 38.0568C13.6104 37.3681 14.5955 36.9935 15.5379 36.9935C21.6232 36.9937 29.5055 52.647 29.5055 66.5228Z" fill="#8DC637"/>
<path d="M42.8258 67.0445C42.8258 77.2982 38.2039 77.1154 32.5027 77.1154C26.8016 77.1154 22.1797 77.2984 22.1797 67.0445C22.1797 56.7906 28.0051 45.222 32.5027 45.222C37.0004 45.222 42.8258 56.7908 42.8258 67.0445Z" fill="#A3E440"/>
<path d="M42.8258 67.0445C42.8258 77.2982 38.2039 77.1154 32.5027 77.1154C26.8016 77.1154 22.1797 77.2984 22.1797 67.0445C22.1797 56.7906 28.0051 45.222 32.5027 45.222C37.0004 45.222 42.8258 56.7908 42.8258 67.0445Z" fill="#A3E440"/>
<path d="M42.8256 67.0437C42.8256 77.2984 38.2055 77.115 32.5025 77.115C31.4393 77.115 30.4148 77.1209 29.4492 77.0642C33.6596 76.8203 36.7188 75.3863 36.7188 67.0437C36.7188 59.023 33.1543 50.1984 29.4492 46.7334C30.4793 45.7695 31.5232 45.2213 32.5025 45.2213C37.0018 45.2214 42.8256 56.791 42.8256 67.0437Z" fill="#99D53B"/>
<path d="M97.8449 72.0396C97.8449 79.4297 94.5139 79.2978 90.4049 79.2978C86.2959 79.2978 82.9648 79.4297 82.9648 72.0396C82.9648 64.6496 87.1633 56.3119 90.4049 56.3119C93.6465 56.3119 97.8449 64.6496 97.8449 72.0396Z" fill="#A3E440"/>
<path d="M97.8449 72.0396C97.8449 79.4297 94.5139 79.2978 90.4049 79.2978C86.2959 79.2978 82.9648 79.4297 82.9648 72.0396C82.9648 64.6496 87.1633 56.3119 90.4049 56.3119C93.6465 56.3119 97.8449 64.6496 97.8449 72.0396Z" fill="#A3E440"/>
<path d="M97.8447 72.0404C97.8447 79.4291 94.5123 79.2982 90.4035 79.2982C89.5295 79.2982 88.6904 79.3041 87.9121 79.2416C90.7957 79.0133 92.858 77.8564 92.858 72.0402C92.858 66.4699 90.4738 60.3633 87.9121 57.6902C88.7471 56.8162 89.6037 56.3107 90.4035 56.3107C93.6461 56.3111 97.8447 64.6498 97.8447 72.0404Z" fill="#99D53B"/>
<path d="M98.4318 85.9853H91.8709V80.7545C93.5986 80.7203 95.2135 80.5398 96.5721 79.5959C98.4404 78.2978 99.3107 75.8967 99.3107 72.0396C99.3107 67.7519 97.9018 62.7545 95.8389 59.256C98.5244 56.5172 100 52.9195 100 49.0621C100 41.8553 94.6477 35.6717 87.5348 34.6367C86.4887 32.4838 84.8008 30.6996 82.7225 29.5299C81.8828 22.1572 75.6906 16.6191 68.2406 16.6191C66.3086 16.6191 64.4412 16.9916 62.6785 17.7213C61.1648 14.9412 59.5912 13.575 57.9176 13.575C56.2207 13.575 54.6504 14.9576 53.1176 17.8019C51.8998 20.0613 50.7033 23.2646 49.657 27.0648C48.9377 29.6783 48.3146 32.4857 47.7988 35.3734C45.2029 33.8471 42.2687 33.0465 39.2076 33.0465C38.3104 33.0465 37.4254 33.1174 36.5586 33.2539V22.1758C36.5586 17.2685 33.4602 12.8469 28.8482 11.1732C28.0879 10.8973 27.2477 11.29 26.9715 12.0504C26.6955 12.8109 27.0883 13.651 27.8488 13.9269C31.3061 15.1818 33.6289 18.4965 33.6289 22.1756V33.9894C30.7965 34.9734 28.2738 36.6892 26.3209 38.9529V36.5605L29.1359 33.7455C29.708 33.1732 29.708 32.2459 29.1359 31.6738C28.5639 31.1019 27.6363 31.1019 27.0645 31.6738L26.3209 32.4174V23.4896C26.3209 22.6805 25.665 22.0248 24.8561 22.0248C24.0471 22.0248 23.3912 22.6805 23.3912 23.4896V25.6801L21.9139 24.2027C21.3418 23.6308 20.4143 23.6308 19.8424 24.2027C19.2703 24.775 19.2703 25.7023 19.8424 26.2744L23.3914 29.8234V41.183C21.2551 38.1039 18.7428 35.8373 16.0834 35.5601V22.1758C16.0834 18.5094 18.3951 15.198 21.8361 13.9365C22.5957 13.658 22.9855 12.8166 22.707 12.0568C22.4285 11.2972 21.5873 10.9082 20.8273 11.1857C16.2375 12.8687 13.1535 17.2851 13.1535 22.1758V36.0758C10.3275 37.3439 7.43809 40.7767 4.95195 45.9176C1.91582 52.1947 0.103516 59.8978 0.103516 66.523C0.103516 73.306 1.56211 77.4789 4.69355 79.6545C7.26387 81.4404 10.5535 81.6015 14.0723 81.6144V85.9853H1.46484C0.655859 85.9853 0 86.641 0 87.4502C0 88.2594 0.655859 88.915 1.46484 88.915H98.4318C99.241 88.915 99.8967 88.2594 99.8967 87.4502C99.8967 86.641 99.2408 85.9853 98.4318 85.9853ZM27.8305 78.3723C28.851 78.526 29.9281 78.5666 31.0379 78.5767V85.9855H26.3205V79.7008C26.8588 79.333 27.3637 78.8945 27.8305 78.3723ZM33.9678 78.5769C35.2855 78.5654 36.5574 78.5113 37.7426 78.2742V85.9853H33.9678V78.5769ZM49.3885 69.7935C50.7752 71.4863 52.4621 72.1332 54.2406 72.3812C52.3973 73.5537 50.2584 74.1826 48.0107 74.1826C46.4211 74.1826 44.8926 73.8697 43.4551 73.2564C44.0184 71.6215 44.2908 69.5701 44.2908 67.0447C44.2908 66.7963 44.2852 66.5451 44.2787 66.2939C45.293 65.9777 46.2705 65.5652 47.2061 65.0654C47.7289 67.1004 48.4502 68.648 49.3885 69.7935ZM40.7346 77.0629C41.2283 76.7199 41.6674 76.3137 42.0553 75.8426C43.7982 76.6256 45.65 77.0504 47.5756 77.1059V85.9853H40.6725L40.7346 77.0629ZM50.5051 76.8978C52.657 76.5305 54.6787 75.689 56.4525 74.4219V85.9853H50.5051V76.8978ZM59.3822 72.5305C60.5244 72.5129 61.6641 72.4408 62.7494 72.1549V85.9853H59.3822V72.5305ZM68.8762 70.6435V85.9853H65.6793V70.5992C65.9436 70.3607 66.2 70.0943 66.4465 69.7935C66.7375 69.4383 67.0074 69.0435 67.2574 68.6086C67.7293 69.3185 68.2697 70.0596 68.8762 70.6435ZM71.8059 72.6117C72.9625 73.1844 74.2209 73.5693 75.5373 73.7342V85.9853H71.8059V72.6117ZM78.467 73.7334C79.5188 73.6014 80.5449 73.3277 81.5191 72.9201C81.6461 76.2644 82.5184 78.4 84.2398 79.5959C85.5984 80.5398 87.2143 80.7258 88.941 80.7576V85.9851H78.4668V73.7334H78.467ZM94.9006 77.19C94.1959 77.6795 93.1303 77.8 91.8709 77.8267V75.1721C91.898 75.1486 91.9254 75.1254 91.9512 75.0996L94.2772 72.7736C94.8492 72.2014 94.8492 71.274 94.2772 70.7019C93.7049 70.1301 92.7775 70.1301 92.2055 70.7019L91.8709 71.0365V66.856C91.8709 66.0469 91.2152 65.3912 90.4061 65.3912C89.5969 65.3912 88.9412 66.0469 88.9412 66.856V77.8271C87.6803 77.8004 86.6164 77.6801 85.9115 77.1902C84.915 76.4978 84.4307 74.8133 84.4307 72.0398C84.4307 68.8332 85.3123 65.0959 86.7889 62.0424C88.2918 58.935 89.8051 57.7769 90.4061 57.7769C91.007 57.7769 92.5201 58.935 94.023 62.0424C95.4998 65.0959 96.3812 68.8332 96.3812 72.0398C96.3812 74.8131 95.8969 76.4976 94.9006 77.19ZM97.0703 49.0621C97.0703 51.9764 96.0152 54.7049 94.0867 56.8437C92.9389 55.5984 91.6828 54.8471 90.4061 54.8471C89.832 54.8471 89.2623 54.9988 88.7047 55.2789V39.7334C88.7047 39.0881 88.65 38.4556 88.549 37.8385C93.5 39.2201 97.0703 43.7996 97.0703 49.0621ZM68.4242 37.6877C69.4723 33.9053 73.0719 30.9605 77.0022 30.9605C81.8397 30.9605 85.775 34.8959 85.775 39.7334V58.0187C83.6984 60.9156 82.1144 65.3734 81.6445 69.5707C81.6375 69.5748 81.6303 69.5781 81.6234 69.5824C80.6562 70.1832 79.5838 70.581 78.467 70.7693V62.1775L81.282 59.3625C81.8541 58.7902 81.8541 57.8629 81.282 57.2908C80.7098 56.7189 79.7824 56.7189 79.2104 57.2908L78.467 58.0342V49.1066C78.467 48.2974 77.8113 47.6418 77.0022 47.6418C76.193 47.6418 75.5373 48.2974 75.5373 49.1066V51.2971L74.0602 49.8197C73.4881 49.2476 72.5605 49.2474 71.9887 49.8195C71.4164 50.3916 71.4164 51.3191 71.9885 51.891L75.5375 55.4402V70.7736C72.382 70.2426 69.7232 68.0211 68.6816 64.9131C68.6791 64.9055 68.6756 64.8986 68.673 64.891C69.3762 62.057 69.7055 58.2971 69.7055 53.3779C69.7055 48.417 69.2512 42.9769 68.4242 37.6877ZM57.9174 16.5049C58.2592 16.5049 59.9674 17.7334 62.0801 23.7439C62.3482 24.507 63.1836 24.9086 63.9478 24.64C64.7109 24.3719 65.1123 23.5357 64.8439 22.7723C64.5408 21.9101 64.2359 21.1119 63.9291 20.3726C65.2973 19.8262 66.7443 19.5488 68.2406 19.5488C73.6578 19.5488 78.2434 23.2119 79.5307 28.309C78.7158 28.1287 77.8705 28.0308 77.0022 28.0308C73.1971 28.0308 69.7117 29.8889 67.5512 32.8369C67.3301 31.7584 67.0953 30.6937 66.8439 29.6517C66.6541 28.8654 65.8631 28.3812 65.0764 28.5713C64.29 28.7611 63.8062 29.5523 63.9959 30.3389C65.7625 37.6627 66.7756 46.0601 66.7756 53.3779C66.7756 61.0426 65.9266 65.8047 64.1799 67.9367C63.0563 69.3084 61.6248 69.5572 59.3822 69.5984V62.0998L64.1344 57.3476C64.7064 56.7754 64.7064 55.848 64.1344 55.276C63.5621 54.7041 62.6348 54.7041 62.0627 55.276L59.3822 57.9564V45.7482C59.3822 44.939 58.7266 44.2834 57.9174 44.2834C57.1082 44.2834 56.4525 44.939 56.4525 45.7482V48.8105L54.3691 46.7271C53.7969 46.1553 52.8695 46.1553 52.2975 46.7271C51.7254 47.2994 51.7254 48.2267 52.2975 48.7988L56.448 52.9494C56.4496 52.951 56.4512 52.9521 56.4525 52.9535V69.5984C54.21 69.5572 52.7783 69.3082 51.6549 67.9367C49.9082 65.8047 49.0592 61.0426 49.0592 53.3779C49.0592 45.173 50.3387 35.6269 52.4814 27.8424C55.0471 18.5222 57.4582 16.5049 57.9174 16.5049ZM39.2074 35.9762C42.1289 35.9762 44.9105 36.8562 47.283 38.523C46.5393 43.5359 46.1295 48.6713 46.1295 53.3781C46.1295 56.7935 46.2887 59.649 46.6209 62.0254C45.8086 62.5301 44.9514 62.9473 44.058 63.2748C43.5859 59.3287 42.4096 55.2492 40.6723 51.6555V48.1039L43.7594 45.0168C44.3314 44.4447 44.3314 43.5174 43.7594 42.9453C43.1873 42.3734 42.2598 42.3732 41.6879 42.9455L40.6725 43.9609V42.2699C40.6725 41.4607 40.0166 40.8051 39.2076 40.8051C38.3986 40.8051 37.7428 41.4607 37.7428 42.2699V46.9414C36.0373 44.8785 34.2287 43.7572 32.5031 43.7572C30.4295 43.7572 28.4945 45.2773 26.8367 47.4756C26.5404 46.7984 26.2258 46.125 25.8949 45.4617C27.8518 39.7879 33.201 35.9762 39.2074 35.9762ZM6.36523 77.2486C4.93477 76.2547 3.0332 74.0617 3.0332 66.523C3.0332 60.318 4.73633 53.0918 7.58926 47.193C10.1553 41.8871 13.275 38.4586 15.5373 38.4586C17.9023 38.4586 21.8795 42.6002 24.9186 50.5152C24 52.2316 23.2252 54.0898 22.6348 55.8547C22.3781 56.6219 22.792 57.4519 23.5592 57.7084C24.3264 57.9658 25.1564 57.5512 25.4131 56.784C27.4994 50.5473 30.7176 46.6869 32.5027 46.6869C33.7127 46.6869 35.9592 48.6392 38.0322 52.9258C40.1166 57.2357 41.3609 62.5139 41.3609 67.0445C41.3609 71.0924 40.6092 73.5824 39.0627 74.6568C37.8492 75.4998 36.059 75.6256 33.9676 75.6461V71.1666L38.7197 66.4144C39.2918 65.8422 39.2918 64.9148 38.7197 64.3428C38.1477 63.7709 37.2201 63.7709 36.6482 64.3428L33.9676 67.0234V59.8519C33.9676 59.0428 33.3117 58.3871 32.5027 58.3871C31.6938 58.3871 31.0379 59.0428 31.0379 59.8519V75.6473C28.9461 75.6281 27.1562 75.5002 25.9428 74.657C24.3963 73.5826 23.6445 71.0926 23.6445 67.0447C23.6445 65.8605 23.7273 64.6195 23.8908 63.356C23.9945 62.5539 23.4283 61.8193 22.626 61.7154C21.8234 61.6129 21.0891 62.1779 20.9854 62.9805C20.8059 64.368 20.7148 65.7353 20.7148 67.0449C20.7148 72.1941 21.8449 75.3775 24.2711 77.0633C24.39 77.1459 24.5115 77.2221 24.634 77.2959C22.7689 78.5482 20.152 78.6713 17.002 78.6842V63.3887L19.2512 61.1394C19.8232 60.5672 19.8232 59.6398 19.2512 59.0678C18.6791 58.4959 17.7516 58.4959 17.1797 59.0678L17.002 59.2455V55.2129C17.002 54.4037 16.3461 53.748 15.5371 53.748C14.7281 53.748 14.0723 54.4037 14.0723 55.2129V67.7435L12.2279 65.8992C11.6559 65.3273 10.7283 65.3273 10.1564 65.8992C9.58438 66.4715 9.58438 67.3988 10.1564 67.9709L13.8654 71.6799C13.9301 71.7445 13.9998 71.8008 14.0725 71.8508V78.6846C10.9328 78.6721 8.23106 78.5445 6.36523 77.2486ZM17.002 81.6137C19.2631 81.6043 21.4426 81.5334 23.3908 81.0088V85.9853H17.002V81.6137Z" fill="black"/>
</g>
<defs>
<clipPath id="clip0_559_713">
<rect width="100" height="100" fill="white"/>
</clipPath>
</defs>
</svg>
