<svg width="100" height="100" viewBox="0 0 100 100" fill="none" xmlns="http://www.w3.org/2000/svg">
<g clip-path="url(#clip0_319_2178)">
<path d="M75.2635 36.1431V40.6995C75.2635 42.2962 74.1365 43.6706 72.5711 43.9837L64.2197 45.654C63.6383 47.7319 62.8143 49.7075 61.7771 51.5485L66.5018 58.6356C67.3875 59.9642 67.2123 61.7329 66.0832 62.8618L62.8613 66.0837C61.7324 67.2126 59.9637 67.3876 58.6352 66.5022L51.548 61.7776C49.707 62.8147 47.7316 63.6388 45.6535 64.22L43.9832 72.5714C43.6701 74.1368 42.2955 75.2638 40.699 75.2638H36.1426C34.5459 75.2638 33.1715 74.1368 32.8584 72.5714L31.1881 64.22C29.1102 63.6386 27.1346 62.8145 25.2936 61.7776L18.2064 66.5022C16.8779 67.388 15.1092 67.2128 13.9803 66.0837L10.7584 62.8618C9.62949 61.7329 9.45449 59.9642 10.3398 58.6356L15.0645 51.5485C14.0273 49.7075 13.2033 47.7321 12.6219 45.654L4.27051 43.9837C2.70508 43.6706 1.57812 42.296 1.57812 40.6995V36.1431C1.57812 34.5464 2.70508 33.172 4.27051 32.8589L12.6219 31.1886C13.2033 29.1106 14.0273 27.1351 15.0645 25.294L10.3408 18.2067C9.45508 16.8782 9.63027 15.1095 10.7594 13.9806L13.9813 10.7587C15.1102 9.62978 16.8789 9.45479 18.2074 10.3401L25.2945 15.0647C27.1355 14.0276 29.1109 13.2036 31.1891 12.6224L32.8594 4.271C33.1725 2.70557 34.5471 1.57861 36.1436 1.57861H40.7C42.2967 1.57861 43.6711 2.70557 43.9842 4.271L45.6545 12.6224C47.7324 13.2038 49.708 14.0278 51.549 15.0647L58.6361 10.3401C59.9646 9.45439 61.7334 9.62959 62.8623 10.7587L66.0842 13.9806C67.2131 15.1095 67.3881 16.8782 66.5027 18.2067L61.7781 25.2938C62.8152 27.1349 63.6393 29.1105 64.2207 31.1884L72.5721 32.8587C74.1365 33.172 75.2635 34.5464 75.2635 36.1431Z" fill="#BFBFBF"/>
<path d="M54.5914 38.4212C54.5914 47.3515 47.352 54.5909 38.4217 54.5909C29.4914 54.5909 22.252 47.3515 22.252 38.4212C22.252 29.4909 29.4914 22.2515 38.4217 22.2515C47.352 22.2515 54.5914 29.4909 54.5914 38.4212Z" fill="#E2E2E2"/>
<path d="M46.4625 38.4212C46.4625 42.862 42.8625 46.462 38.4217 46.462C33.9809 46.462 30.3809 42.862 30.3809 38.4212C30.3809 33.9804 33.9809 30.3804 38.4217 30.3804C42.8625 30.3804 46.4625 33.9804 46.4625 38.4212Z" fill="#6D6D6D"/>
<path d="M41.5797 38.4211C41.5797 42.0105 39.2273 45.0498 35.9803 46.0834C32.7334 45.0498 30.3809 42.0105 30.3809 38.4211C30.3809 34.8316 32.7332 31.7924 35.9803 30.7588C39.2273 31.7924 41.5797 34.8316 41.5797 38.4211Z" fill="#999999"/>
<path d="M98.4219 72.7134V75.7075C98.4219 76.7565 97.6812 77.6599 96.6525 77.8655L91.1645 78.9632C90.7824 80.3286 90.2408 81.627 89.5594 82.8366L92.6643 87.4938C93.2461 88.3669 93.1312 89.5292 92.3893 90.2712L90.2721 92.3884C89.5303 93.1302 88.3678 93.2454 87.4947 92.6634L82.8375 89.5585C81.6275 90.2399 80.3295 90.7813 78.9641 91.1636L77.8664 96.6517C77.6607 97.6806 76.7574 98.421 75.708 98.421H72.7139C71.6646 98.421 70.7615 97.6804 70.5555 96.6517L69.4578 91.1636C68.0924 90.7815 66.7939 90.2399 65.5844 89.5585L60.9271 92.6634C60.0541 93.2452 58.8918 93.1304 58.1498 92.3884L56.0326 90.2712C55.2908 89.5294 55.1756 88.3669 55.7576 87.4938L58.8625 82.8366C58.1811 81.6267 57.6395 80.3286 57.2574 78.9632L51.7693 77.8655C50.7404 77.6599 50 76.7565 50 75.7075V72.7134C50 71.6644 50.7406 70.761 51.7693 70.555L57.2574 69.4573C57.6395 68.0919 58.1811 66.7935 58.8625 65.5839L55.7576 60.9267C55.1758 60.0538 55.2906 58.8913 56.0326 58.1493L58.1498 56.0321C58.8916 55.2903 60.0541 55.1751 60.9271 55.7571L65.5844 58.862C66.7943 58.1806 68.0924 57.6392 69.4578 57.2569L70.5555 51.7688C70.7611 50.7399 71.6644 49.9995 72.7139 49.9995H75.708C76.7572 49.9995 77.6604 50.7401 77.8664 51.7688L78.9641 57.2569C80.3295 57.639 81.6279 58.1806 82.8375 58.862L87.4947 55.7571C88.3678 55.1753 89.5301 55.2901 90.2721 56.0321L92.3893 58.1493C93.1311 58.8911 93.2463 60.0536 92.6643 60.9267L89.5594 65.5839C90.2408 66.7938 90.7822 68.0919 91.1645 69.4573L96.6525 70.555C97.6812 70.761 98.4219 71.6642 98.4219 72.7134Z" fill="#5D7EAC"/>
<path d="M86.316 74.2105C86.316 80.896 80.8963 86.3158 74.2107 86.3158C67.5252 86.3158 62.1055 80.896 62.1055 74.2105C62.1055 67.525 67.5252 62.1052 74.2107 62.1052C80.8963 62.1052 86.316 67.525 86.316 74.2105Z" fill="#ABC5FF"/>
<path d="M81.4734 74.2106C81.4734 78.2219 78.2217 81.4737 74.2104 81.4737C70.199 81.4737 66.9473 78.2219 66.9473 74.2106C66.9473 70.1993 70.199 66.9475 74.2104 66.9475C78.2217 66.9475 81.4734 70.1993 81.4734 74.2106Z" fill="#5D7EAC"/>
<path d="M76.6316 74.2106C76.6316 77.3727 74.6102 80.0615 71.7895 81.0588C68.9688 80.0615 66.9473 77.3727 66.9473 74.2106C66.9473 71.0484 68.9688 68.3596 71.7895 67.3623C74.6102 68.3596 76.6316 71.0484 76.6316 74.2106Z" fill="#809DED"/>
<path d="M24.6205 33.6713C24.0963 35.1951 23.8307 36.7932 23.8307 38.4209C23.8307 46.4662 30.376 53.0117 38.4215 53.0117C41.516 53.0117 44.4717 52.0557 46.9693 50.2473C47.6756 49.7359 48.6631 49.8937 49.1744 50.6002C49.6857 51.3066 49.5279 52.2938 48.8215 52.8053C45.7816 55.0064 42.1855 56.1699 38.4217 56.1699C28.6352 56.1699 20.673 48.208 20.673 38.4213C20.673 36.4432 20.9967 34.4996 21.6348 32.6445C21.9186 31.8199 22.8166 31.3814 23.6414 31.6652C24.4656 31.9484 24.9039 32.8467 24.6205 33.6713ZM52.0975 47.1945C52.3279 47.3129 52.574 47.3689 52.8166 47.3689C53.39 47.3689 53.9434 47.0555 54.2229 46.5102C55.4963 44.0268 56.1695 41.2297 56.1695 38.4213C56.1695 28.6348 48.2076 20.6727 38.4209 20.6727C33.765 20.6727 29.3656 22.4621 26.0322 25.7117C25.4078 26.3203 25.3951 27.3201 26.0037 27.9443C26.6123 28.5686 27.6119 28.5816 28.2363 27.9729C30.9764 25.3018 34.5932 23.8305 38.4205 23.8305C46.4658 23.8305 53.0113 30.3758 53.0113 38.4213C53.0113 40.7639 52.4734 43.0006 51.4125 45.0693C51.015 45.8449 51.3215 46.7965 52.0975 47.1945ZM51.3252 61.9545C50.9516 61.167 50.0096 60.8311 49.2219 61.2051C47.9402 61.8133 46.5965 62.316 45.2281 62.6988C44.6557 62.859 44.2219 63.3268 44.1055 63.9098L42.4352 72.2609C42.2703 73.0855 41.5402 73.6842 40.6992 73.6842H36.1428C35.3018 73.6842 34.5719 73.0857 34.4068 72.2609L32.7365 63.9098C32.6199 63.3268 32.1859 62.859 31.6139 62.6988C29.6807 62.1578 27.815 61.3848 26.0688 60.4012C25.5506 60.1094 24.9125 60.1334 24.418 60.4631L17.3309 65.1877C16.6313 65.6541 15.6918 65.5609 15.0969 64.9664L11.875 61.7443C11.2803 61.1496 11.1875 60.2102 11.6537 59.5103L16.3783 52.4232C16.7082 51.9285 16.7322 51.2906 16.4402 50.7725C15.4564 49.026 14.6834 47.1602 14.1426 45.2273C13.9824 44.6549 13.5146 44.2211 12.9316 44.1047L4.58047 42.4344C3.75586 42.2695 3.15723 41.5395 3.15723 40.6984V36.142C3.15723 35.301 3.75566 34.5711 4.58047 34.4061L12.9316 32.7357C13.5146 32.6191 13.9824 32.1852 14.1426 31.6131C14.6836 29.6799 15.4566 27.8143 16.4402 26.068C16.732 25.55 16.708 24.9119 16.3783 24.4172L11.6541 17.3309C11.1877 16.6311 11.2807 15.6918 11.8754 15.0969L15.0973 11.875C15.692 11.2803 16.6316 11.1875 17.3312 11.6537L24.4184 16.3783C24.9129 16.7082 25.5512 16.732 26.0691 16.4402C27.8154 15.4566 29.6811 14.6836 31.6143 14.1426C32.1867 13.9824 32.6205 13.5146 32.7369 12.9316L34.4072 4.58047C34.5721 3.75586 35.3021 3.15723 36.1432 3.15723H40.6996C41.5406 3.15723 42.2705 3.75566 42.4355 4.58047L44.1059 12.9316C44.2225 13.5146 44.6564 13.9824 45.2285 14.1426C47.1617 14.6836 49.0273 15.4566 50.7736 16.4402C51.2918 16.732 51.9299 16.708 52.4244 16.3783L59.5115 11.6537C60.2111 11.1873 61.1504 11.2805 61.7455 11.875L64.9674 15.0969C65.5621 15.6916 65.6549 16.6311 65.1887 17.3309L60.4641 24.418C60.1342 24.9127 60.1102 25.5506 60.4021 26.0688C61.3857 27.815 62.1588 29.6807 62.6998 31.6139C62.86 32.1863 63.3277 32.6201 63.9107 32.7365L72.2619 34.4068C73.0865 34.5717 73.6852 35.3018 73.6852 36.1428V40.6992C73.6852 41.5402 73.0867 42.2701 72.2619 42.4352L63.9107 44.1055C63.3277 44.2221 62.86 44.6561 62.6998 45.2283C62.3074 46.6307 61.7896 48.0063 61.1607 49.317C60.7834 50.1031 61.115 51.0463 61.9012 51.4234C62.6873 51.801 63.6307 51.4691 64.0076 50.683C64.5752 49.5 65.0625 48.2701 65.4611 47.0156L72.8812 45.5316C75.176 45.0723 76.842 43.0398 76.842 40.6988V36.1424C76.842 33.8014 75.176 31.7691 72.8803 31.3098L65.4604 29.8258C64.9736 28.2937 64.3568 26.8043 63.6178 25.3787L67.8154 19.082C69.1139 17.1342 68.8551 14.5189 67.1996 12.8635L63.9777 9.6416C62.3221 7.98633 59.7068 7.72754 57.7592 9.02578L51.4625 13.2234C50.0369 12.4846 48.5475 11.8676 47.0154 11.3809L45.5314 3.96094C45.0727 1.66602 43.0402 0 40.6992 0H36.1428C33.8018 0 31.7695 1.66602 31.3102 3.96172L29.8262 11.3816C28.2941 11.8684 26.8047 12.4852 25.3791 13.2242L19.0828 9.02656C17.1352 7.72813 14.5197 7.98672 12.8643 9.64238L9.64238 12.8643C7.98711 14.5195 7.72813 17.1348 9.02656 19.0828L13.2242 25.3795C12.4854 26.8051 11.8684 28.2945 11.3816 29.8266L3.96152 31.3105C1.66602 31.7695 0 33.802 0 36.143V40.6994C0 43.0404 1.66602 45.0727 3.96172 45.532L11.3816 47.016C11.8682 48.5479 12.4852 50.0373 13.2242 51.4631L9.02656 57.7598C7.72813 59.7076 7.98691 62.3229 9.64238 63.9783L12.8643 67.2002C14.5195 68.8555 17.135 69.1143 19.0828 67.816L25.3795 63.6184C26.8051 64.3572 28.2945 64.9742 29.8266 65.4609L31.3105 72.8811C31.7695 75.176 33.802 76.8422 36.143 76.8422H40.6994C43.0404 76.8422 45.0727 75.1762 45.532 72.8805L47.016 65.4605C48.2326 65.074 49.4268 64.6039 50.5762 64.0582C51.3639 63.6842 51.6994 62.7424 51.3252 61.9545ZM74.2105 68.5264C77.3449 68.5264 79.8947 71.0762 79.8947 74.2105C79.8947 75.0826 80.6018 75.7895 81.4736 75.7895C82.3457 75.7895 83.0525 75.0824 83.0525 74.2105C83.0525 69.335 79.0859 65.3684 74.2104 65.3684C69.3348 65.3684 65.3682 69.335 65.3682 74.2105C65.3682 79.0861 69.3348 83.0527 74.2104 83.0527C76.1852 83.0527 78.0531 82.4158 79.6125 81.2111C80.3025 80.6779 80.4297 79.6863 79.8967 78.9961C79.3635 78.3061 78.3717 78.1787 77.6816 78.7119C76.6801 79.4855 75.4797 79.8947 74.2104 79.8947C71.076 79.8947 68.5262 77.3449 68.5262 74.2105C68.5262 71.0762 71.0762 68.5264 74.2105 68.5264ZM38.4211 48.0408C33.1166 48.0408 28.8014 43.7252 28.8014 38.4211C28.8014 33.117 33.117 28.8014 38.4211 28.8014C43.7252 28.8014 48.0408 33.117 48.0408 38.4211C48.0408 43.7252 43.7254 48.0408 38.4211 48.0408ZM38.4211 44.883C41.9842 44.883 44.883 41.984 44.883 38.4211C44.883 34.8582 41.984 31.9592 38.4211 31.9592C34.8582 31.9592 31.9592 34.8582 31.9592 38.4211C31.9592 41.984 34.8578 44.883 38.4211 44.883ZM96.9613 69.007L92.3955 68.0939C92.1174 67.2664 91.7824 66.4584 91.3943 65.6773L93.9775 61.8027C94.9734 60.3086 94.775 58.3027 93.5053 57.0332L91.3881 54.916C90.1184 53.6465 88.1125 53.4479 86.6186 54.4438L82.7439 57.027C81.9629 56.6387 81.1549 56.3037 80.3273 56.0258L79.4143 51.46C79.0621 49.6992 77.5033 48.4213 75.7078 48.4213H72.7135C70.9182 48.4213 69.3592 49.6992 69.007 51.46L68.0939 56.0258C67.2664 56.3039 66.4584 56.6389 65.6773 57.027L61.8027 54.4438C60.3086 53.4481 58.3027 53.6463 57.0332 54.916L54.916 57.0332C53.6463 58.3029 53.4479 60.3088 54.4438 61.8027L57.027 65.6773C56.493 66.7512 56.0603 67.8758 55.7369 69.0322C55.5019 69.8721 55.9924 70.7432 56.832 70.9783C57.6719 71.2133 58.543 70.723 58.7781 69.8832C59.1219 68.6543 59.6133 67.4688 60.2383 66.3592C60.5301 65.841 60.5061 65.2029 60.1764 64.7084L57.0715 60.0512C56.9076 59.8053 56.9402 59.4752 57.1492 59.2662L59.2664 57.149C59.4754 56.9402 59.8055 56.9078 60.0514 57.0713L64.7086 60.1762C65.2031 60.5061 65.8412 60.5299 66.3594 60.2381C67.4691 59.6131 68.6545 59.1217 69.8834 58.7779C70.4559 58.6178 70.8896 58.15 71.0061 57.567L72.1035 52.0793C72.1613 51.7896 72.418 51.5793 72.7135 51.5793H75.7078C76.0031 51.5793 76.2598 51.7896 76.3178 52.0793L77.4152 57.5674C77.5318 58.1504 77.9658 58.6182 78.5379 58.7783C79.7668 59.1221 80.9523 59.6135 82.0619 60.2385C82.5799 60.5303 83.2182 60.5063 83.7127 60.1766L88.3699 57.0717C88.6158 56.9078 88.9459 56.9402 89.1549 57.1494L91.2721 59.2666C91.4809 59.4756 91.5135 59.8057 91.3498 60.0516L88.2449 64.7088C87.915 65.2035 87.891 65.8414 88.183 66.3596C88.808 67.4693 89.2994 68.6547 89.6432 69.8836C89.8033 70.4561 90.2711 70.8898 90.8541 71.0062L96.3418 72.1037C96.6314 72.1615 96.8418 72.4182 96.8418 72.7137V75.708C96.8418 76.0033 96.6314 76.26 96.3418 76.318L90.8537 77.4154C90.2707 77.532 89.8029 77.966 89.6428 78.5381C89.299 79.767 88.8076 80.9525 88.1826 82.0621C87.8908 82.5803 87.9148 83.2184 88.2445 83.7129L91.3494 88.3701C91.5133 88.616 91.4807 88.9461 91.2717 89.1551L89.1545 91.2723C88.9457 91.4812 88.6156 91.5137 88.3695 91.35L83.7123 88.2451C83.2178 87.9154 82.5795 87.8914 82.0615 88.1832C80.9518 88.8082 79.7664 89.2996 78.5375 89.6434C77.965 89.8035 77.5312 90.2713 77.4148 90.8543L76.3174 96.342C76.2596 96.6316 76.0029 96.842 75.7074 96.842H72.7131C72.4178 96.842 72.1611 96.6316 72.1031 96.342L71.0057 90.8539C70.8891 90.2709 70.4551 89.8031 69.883 89.643C68.6541 89.2992 67.4686 88.8078 66.359 88.1828C65.8408 87.891 65.2025 87.915 64.7082 88.2447L60.051 91.3496C59.8051 91.5135 59.475 91.4811 59.266 91.2719L57.1488 89.1547C56.94 88.9457 56.9074 88.6156 57.0711 88.3697L60.176 83.7125C60.5059 83.2178 60.5299 82.5799 60.2379 82.0617C59.6129 80.952 59.1215 79.7666 58.7777 78.5377C58.6176 77.9652 58.1498 77.5314 57.5668 77.415L52.0789 76.3176C51.7893 76.2598 51.5789 76.0031 51.5789 75.7076V72.7133C51.5789 72.418 51.7893 72.1613 52.0789 72.1033L52.4148 72.0361C53.2699 71.865 53.8246 71.0332 53.6533 70.1781C53.4822 69.3231 52.6514 68.7693 51.7951 68.9397L51.4592 69.0068C49.6988 69.3592 48.4209 70.918 48.4209 72.7135V75.7078C48.4209 77.5031 49.6988 79.0621 51.4596 79.4143L56.0254 80.3273C56.3035 81.1549 56.6385 81.9629 57.0266 82.7439L54.4434 86.6186C53.4473 88.1127 53.6459 90.1186 54.9156 91.3881L57.0328 93.5053C58.3025 94.775 60.3084 94.9734 61.8023 93.9775L65.6769 91.3943C66.458 91.7826 67.266 92.1176 68.0936 92.3955L69.0066 96.9613C69.3592 98.7221 70.918 100 72.7135 100H75.7078C77.5031 100 79.0621 98.7221 79.4143 96.9613L80.3273 92.3955C81.1549 92.1174 81.9629 91.7824 82.7439 91.3943L86.6186 93.9775C88.1127 94.9734 90.1186 94.775 91.3881 93.5053L93.5053 91.3881C94.775 90.1184 94.9734 88.1125 93.9775 86.6186L91.3943 82.7439C91.7826 81.9629 92.1176 81.1549 92.3955 80.3273L96.9613 79.4143C98.7219 79.0621 99.9998 77.5033 99.9998 75.7078V72.7135C100 70.918 98.7221 69.3592 96.9613 69.007Z" fill="black"/>
</g>
<defs>
<clipPath id="clip0_319_2178">
<rect width="100" height="100" fill="white"/>
</clipPath>
</defs>
</svg>
