<svg width="100" height="100" viewBox="0 0 100 100" fill="none" xmlns="http://www.w3.org/2000/svg">
<path d="M79.281 91.4864C73.9794 91.4864 69.4403 87.8793 68.2438 82.7145C66.8825 76.843 65.277 61.9 49.9876 61.9C46.7231 61.9 43.5501 62.8363 40.8118 64.6078C39.5204 65.4434 39.1505 67.1676 39.986 68.459C40.8216 69.75 42.5454 70.1203 43.8372 69.2848C45.672 68.0977 47.7989 67.4703 49.9872 67.4703C60.386 67.4703 61.331 77.5645 62.8169 83.9727C64.6028 91.6766 71.3724 97.0571 79.281 97.0571H97.0583V91.4867L79.281 91.4864Z" fill="#FC5D3D"/>
<path d="M31.1316 90.0614C30.2418 88.8067 28.5031 88.511 27.2488 89.4001C25.323 90.7653 23.0574 91.4868 20.6957 91.4868H2.94141V97.0571H20.6957C24.218 97.0571 27.598 95.9809 30.4703 93.9446C31.725 93.0552 32.0211 91.3165 31.1316 90.0614Z" fill="#FC5D3D"/>
<path d="M60.4199 90.0637C59.5305 88.8086 57.7922 88.5129 56.5371 89.402C55.3703 90.229 54.0773 90.8153 52.7152 91.152L52.7207 73.5961L47.1504 73.5946L47.1449 91.1282C39.357 89.134 38.8699 82.3641 37.1586 74.984C35.3727 67.2801 28.6031 61.8997 20.6945 61.8997H2.93945V67.47H15.3746V85.5278H20.9449V67.4805C26.1379 67.5926 30.5543 71.159 31.732 76.2418C33.0934 82.1133 34.6988 97.0563 49.9883 97.0563C53.509 97.0563 56.8875 95.9809 59.7586 93.9458C61.0137 93.0571 61.3094 91.3188 60.4199 90.0637Z" fill="#72C1E8"/>
<path d="M79.2825 61.9001C76.4172 61.9001 73.5817 62.634 71.0817 64.0227C69.7372 64.7696 69.2524 66.4653 69.9993 67.8098C70.7477 69.1571 72.4446 69.6379 73.7864 68.8922C75.3883 68.0024 77.1973 67.5192 79.0325 67.4782V86.0977H84.6028V67.47H97.0598V61.8997H79.2825V61.9001Z" fill="#72C1E8"/>
<path d="M49.9989 2.94299C37.4263 2.94299 27.1981 13.1086 27.1641 25.7309C27.1352 36.4871 34.6184 45.6969 44.9122 48.043C48.2544 53.8293 47.0813 51.7985 49.9993 56.8492C52.8161 51.9731 51.7544 53.811 55.086 48.043C65.4696 45.6766 72.8606 36.4024 72.8337 25.7309C72.802 13.1274 62.588 2.94299 49.9989 2.94299Z" fill="#878787"/>
<path d="M49.5095 50.7316C49.0427 50.4621 48.8829 49.8645 49.1525 49.3977L52.1349 44.2352C52.2712 44 52.4989 43.832 52.7634 43.7715C62.9493 41.4492 68.0603 33.8371 68.0603 25.8777C68.0603 17.675 62.5587 10.716 55.0286 8.52383C54.5111 8.37305 54.2134 7.83125 54.3642 7.31328C54.515 6.79531 55.0564 6.49727 55.5751 6.64844C63.9236 9.07891 70.0138 16.7961 70.0138 25.8777C70.0138 34.7395 64.4216 43.118 53.6134 45.5809L50.8443 50.3742C50.5743 50.8402 49.9786 51.0023 49.5095 50.7316ZM51.3911 7.86211C50.9302 7.82656 50.4665 7.80859 49.9982 7.80859C49.4591 7.80859 49.022 7.37148 49.0216 6.83242C49.0212 6.29297 49.4583 5.85586 49.9978 5.85547H50.0056C50.5161 5.85547 51.0325 5.87539 51.5419 5.91445C52.0794 5.95586 52.4818 6.42539 52.4404 6.96328C52.3989 7.49727 51.9345 7.90234 51.3911 7.86211Z" fill="#EFEFEF"/>
<path d="M64.7898 25.7344C64.7898 30.343 62.6832 34.4574 59.3754 37.1723C56.8199 39.2637 53.5574 40.5262 49.9984 40.5262C46.4395 40.5262 43.177 39.2637 40.6215 37.1723C37.3133 34.4574 35.207 30.343 35.207 25.7344C35.207 17.559 41.8309 10.9352 49.9984 10.9352C58.166 10.9352 64.7898 17.5594 64.7898 25.7344Z" fill="#F2E1D6"/>
<path d="M59.375 36.2824V37.1723C56.8195 39.2637 53.557 40.5262 49.998 40.5262C46.4391 40.5262 43.1766 39.2637 40.6211 37.1723V36.2824C40.6211 32.0844 44.0207 28.6777 48.2262 28.6777H51.7703C55.9754 28.6777 59.375 32.0848 59.375 36.2824Z" fill="#13BF6D"/>
<path d="M54.9332 15.7602L53.1234 16.7047C52.6586 16.9473 52.1418 17.0743 51.6172 17.0743H47.9902C46.6445 17.0743 45.8047 18.2078 45.8047 19.6071V20.9821H54.1949C55.4258 19.67 55.8613 17.6727 54.9332 15.7602Z" fill="#7C7B7A"/>
<path d="M50.0035 28.6778C47.6867 28.6778 45.8086 26.7996 45.8086 24.4828V20.9821H54.1988V24.4828C54.1984 26.7996 52.3203 28.6778 50.0035 28.6778Z" fill="#FFB69F"/>
<path d="M59.1945 93.1496C56.4891 95.0668 53.3059 96.0801 49.9887 96.0801C35.5531 96.0801 34.1336 82.2692 32.684 76.0215C31.4133 70.5395 26.5949 66.6262 20.9664 66.5043C20.4289 66.4926 19.9688 66.9246 19.9688 67.4809V85.5281C19.9688 86.0676 20.4059 86.5047 20.9453 86.5047C21.4848 86.5047 21.9219 86.0676 21.9219 85.5281V68.527C26.2195 69.034 29.7887 72.1793 30.7813 76.4629C32.0676 82.0067 33.8707 98.0336 49.9887 98.0336C53.7129 98.0336 57.2871 96.8957 60.3238 94.7434C62.0156 93.5442 62.4164 91.1918 61.2176 89.4992C60.018 87.8071 57.6648 87.4071 55.973 88.6055C55.2625 89.109 54.4992 89.5168 53.6926 89.825L53.6977 73.5969C53.6977 73.0574 53.2609 72.6203 52.7215 72.6199C52.7211 72.6199 52.7211 72.6199 52.7211 72.6199C52.182 72.6199 51.7445 73.0571 51.7445 73.5961L51.7391 91.152C51.7391 91.7836 52.332 92.2531 52.9504 92.1004C54.4477 91.7301 55.8449 91.0906 57.1023 90.1992C57.9164 89.6231 59.0473 89.8153 59.6238 90.6289C60.2004 91.4422 60.0078 92.5731 59.1945 93.1496Z" fill="black"/>
<path d="M2.93945 68.4469H14.398V85.5281C14.398 86.0676 14.8352 86.5047 15.3746 86.5047C15.9141 86.5047 16.3512 86.0676 16.3512 85.5281V67.4703C16.3512 66.9309 15.9141 66.4938 15.3746 66.4938H2.93945C2.4 66.4938 1.96289 66.9309 1.96289 67.4703C1.96289 68.0098 2.4 68.4469 2.93945 68.4469Z" fill="black"/>
<path d="M1.96289 61.9C1.96289 62.4395 2.4 62.8766 2.93945 62.8766H20.6945C28.1453 62.8766 34.5246 67.9461 36.207 75.2051C37.9051 82.518 38.4773 89.9172 46.9023 92.0746C47.5254 92.2332 48.1211 91.7602 48.1211 91.1289L48.127 73.5953C48.127 73.0559 47.6902 72.6188 47.1508 72.6184C46.6117 72.6184 46.1738 73.0555 46.1738 73.5946L46.1684 89.8059C40.1762 87.6043 39.7242 81.7231 38.1098 74.7637C36.2207 66.6149 29.0594 60.9235 20.6945 60.9235H2.93945C2.4 60.9235 1.96289 61.3606 1.96289 61.9Z" fill="black"/>
<path d="M97.0651 60.9258C97.0608 60.9219 97.0608 60.9219 97.0569 60.9219H79.2796C76.2483 60.9258 73.2483 61.6992 70.6077 63.168C68.7749 64.1824 68.1397 66.4848 69.1468 68.2852C70.1417 70.0859 72.4241 70.7586 74.2561 69.7461C75.428 69.0937 76.7057 68.6836 78.053 68.5234V73.7734C78.053 74.3125 78.4905 74.75 79.0296 74.75C79.569 74.75 80.0061 74.3125 80.0061 73.7734V67.4766C80.0061 66.9187 79.546 66.4879 79.01 66.5039C77.01 66.5469 75.0413 67.0781 73.3108 68.0391C72.4054 68.5309 71.3253 68.1879 70.8499 67.3359C70.3632 66.4609 70.6874 65.3613 71.553 64.875C73.9085 63.5664 76.5804 62.875 79.2796 62.875H97.0569C97.596 62.875 98.0335 62.4375 98.0335 61.8984C98.0339 61.3633 97.5999 60.9258 97.0651 60.9258Z" fill="black"/>
<path d="M79.0293 78.6562C79.5686 78.6562 80.0059 78.219 80.0059 77.6797C80.0059 77.1403 79.5686 76.7031 79.0293 76.7031C78.49 76.7031 78.0527 77.1403 78.0527 77.6797C78.0527 78.219 78.49 78.6562 79.0293 78.6562Z" fill="black"/>
<path d="M78.0527 86.0977C78.0527 86.6367 78.4902 87.0742 79.0293 87.0742C79.5688 87.0742 80.0059 86.6367 80.0059 86.0977V81.5859C80.0059 81.0469 79.5688 80.6094 79.0293 80.6094C78.4902 80.6094 78.0527 81.0469 78.0527 81.5859V86.0977Z" fill="black"/>
<path d="M97.0586 66.4938H84.6016C84.0621 66.4938 83.625 66.9309 83.625 67.4703V86.0981C83.625 86.6375 84.0621 87.0746 84.6016 87.0746C85.141 87.0746 85.5781 86.6375 85.5781 86.0981V68.4469H97.0586C97.5981 68.4469 98.0352 68.0098 98.0352 67.4703C98.0352 66.9309 97.5981 66.4938 97.0586 66.4938Z" fill="black"/>
<path d="M41.3434 65.4277C43.9231 63.759 46.9121 62.8766 49.9883 62.8766C64.361 62.8766 65.8063 76.5227 67.2934 82.9352C68.593 88.5449 73.5231 92.4633 79.2821 92.4633H97.059C97.5985 92.4633 98.0356 92.0262 98.0356 91.4867C98.0356 90.9473 97.5985 90.5102 97.059 90.5102H79.2821C74.4371 90.5102 70.2895 87.2141 69.1961 82.4941C67.909 76.9469 66.1051 60.9238 49.9883 60.9238C46.5348 60.9238 43.1785 61.9145 40.2824 63.7883C38.5363 64.9176 38.0375 67.2438 39.1672 68.9898C40.2938 70.7309 42.6274 71.2316 44.3684 70.1051C46.0453 69.0207 47.9887 68.4473 49.9883 68.4473C59.5328 68.4473 60.3153 77.5098 61.8664 84.1938C63.7559 92.3426 70.9172 98.034 79.2821 98.034H97.059C97.5985 98.034 98.0356 97.5969 98.0356 97.0574C98.0356 96.518 97.5985 96.0809 97.059 96.0809H79.2821C71.8313 96.0809 65.452 91.0113 63.7692 83.7527C62.277 77.3105 61.225 66.4941 49.9883 66.4941C47.6113 66.4941 45.3012 67.1758 43.3078 68.4652C42.4707 69.007 41.3481 68.766 40.8071 67.9289C40.2641 67.0895 40.5035 65.9707 41.3434 65.4277Z" fill="black"/>
<path d="M2.94141 98.0352H14.6602C15.1992 98.0352 15.6367 97.5938 15.6367 97.0586C15.6367 96.5195 15.1992 96.082 14.6602 96.082H2.94141C2.40195 96.082 1.96484 96.5195 1.96484 97.0586C1.96484 97.5938 2.40195 98.0352 2.94141 98.0352Z" fill="black"/>
<path d="M1.96484 91.4883C1.96484 92.0273 2.40195 92.4648 2.94141 92.4648H20.7031C23.2656 92.4648 25.7227 91.6797 27.8125 90.1953C28.6277 89.6273 29.7492 89.7984 30.3359 90.625C30.9164 91.459 30.7121 92.5718 29.9059 93.1484C27.6754 94.7265 25.0699 95.7109 22.3668 95.9922C21.8348 96.0488 21.4391 96.534 21.4961 97.0664C21.5566 97.623 22.0551 97.9957 22.5703 97.9375C25.6055 97.6211 28.5352 96.5156 31.0352 94.7422C32.7211 93.5453 33.1328 91.1984 31.9297 89.4961C30.7465 87.8273 28.3996 87.384 26.6832 88.6054C24.9215 89.8515 22.8512 90.5117 20.6949 90.5117H2.94141C2.40195 90.5117 1.96484 90.9492 1.96484 91.4883Z" fill="black"/>
<path d="M18.5664 98.0352C19.1057 98.0352 19.543 97.5979 19.543 97.0586C19.543 96.5193 19.1057 96.082 18.5664 96.082C18.0271 96.082 17.5898 96.5193 17.5898 97.0586C17.5898 97.5979 18.0271 98.0352 18.5664 98.0352Z" fill="black"/>
<path d="M50 41.5039C58.6297 41.5039 65.773 34.5129 65.7652 25.7344C65.7652 16.9945 58.7039 9.96523 50 9.95703C41.2832 9.96523 34.2305 17.0125 34.2305 25.7344C34.2305 34.4941 41.3527 41.5039 50 41.5039ZM53.741 20.0051H46.7816V19.6066C46.7816 18.832 47.1555 18.0504 47.991 18.0504H51.6176C52.2965 18.0504 52.9738 17.8844 53.5762 17.5703L54.3887 17.1461C54.582 18.1379 54.352 19.1852 53.741 20.0051ZM46.7859 21.9582H53.2231V24.4824C53.2231 26.257 51.7793 27.7008 50.0047 27.7008C48.2301 27.7008 46.7863 26.257 46.7863 24.4824L46.7859 21.9582ZM48.2281 29.6543H51.7719C55.4266 29.6543 58.4004 32.6277 58.4004 36.2828V36.698C56.0445 38.5 53.0938 39.5496 50 39.5496C46.9813 39.5496 44.0078 38.5438 41.5996 36.698V36.2828C41.5996 32.6277 44.573 29.6543 48.2281 29.6543ZM50 11.9102C57.5641 11.9184 63.8078 18.0141 63.8164 25.7344C63.8129 29.1863 62.5348 32.4594 60.2551 34.9836C59.7309 31.5461 57.1594 28.7746 53.8285 27.952C54.6625 27.0332 55.1762 25.8184 55.1762 24.4828V21.3402C56.4559 19.7535 56.8469 17.4637 55.8121 15.3336C55.5727 14.8414 54.9742 14.6391 54.4816 14.8945L52.6723 15.8391C52.348 16.0082 51.9832 16.0977 51.6176 16.0977H47.991C46.1586 16.0977 44.8285 17.5734 44.8285 19.607C44.8285 19.9738 44.8332 21.3469 44.8332 24.4828C44.8332 25.8176 45.3461 27.032 46.1793 27.9504C42.8445 28.7707 40.2695 31.5441 39.7453 34.984C37.4645 32.4598 36.184 29.1863 36.184 25.7344C36.1914 18.0352 42.4129 11.9184 50 11.9102Z" fill="black"/>
<path d="M30.5617 13.75C30.1043 13.4922 29.4875 13.668 29.2336 14.1211C28.968 14.5898 29.1359 15.1836 29.6047 15.4492C30.0598 15.7074 30.6594 15.5563 30.9324 15.082V15.0781C31.2008 14.6074 31.0265 14.007 30.5617 13.75Z" fill="black"/>
<path d="M26.1875 25.793C26.1875 36.8641 33.8039 46.3117 44.2773 48.8945L49.1523 57.3359C49.5344 57.9895 50.4742 57.982 50.8438 57.3359L55.7223 48.8945C66.4039 46.2602 73.8125 36.6504 73.8125 25.7891C73.8125 12.6242 63.1602 1.97344 49.9961 1.96484C42.8004 1.96484 36.0664 5.17188 31.5191 10.7578C31.1926 11.1621 31.2293 11.7812 31.6637 12.1328C32.066 12.4609 32.7066 12.3945 33.0348 11.9922C37.2109 6.86328 43.3945 3.92187 50 3.91797C61.9617 3.91797 71.8594 13.6391 71.8594 25.7891C71.8594 36.0508 64.8707 44.8125 54.8711 47.0898C54.6055 47.1484 54.375 47.3203 54.2422 47.5547L50 54.8984L45.7578 47.5547C45.6211 47.3203 45.3945 47.1484 45.1293 47.0898C35.2855 44.8477 28.1371 35.8906 28.141 25.793C28.141 23.3633 28.5379 20.8867 29.391 18.4766C29.5707 17.9688 29.3047 17.4102 28.7969 17.2305C28.3008 17.0508 27.7266 17.3281 27.5512 17.8242C26.6473 20.3703 26.1875 23.0559 26.1875 25.793Z" fill="black"/>
<path d="M79.3633 22.8984C79.3633 23.4375 79.8008 23.875 80.3398 23.875H86.5234C87.0625 23.875 87.5 23.4375 87.5 22.8984C87.5 22.3594 87.0625 21.9219 86.5234 21.9219H80.3398C79.8008 21.9219 79.3633 22.3594 79.3633 22.8984Z" fill="black"/>
<path d="M94.6602 27.2109H80.3398C79.8008 27.2109 79.3633 27.6484 79.3633 28.1875C79.3633 28.7266 79.8008 29.1641 80.3398 29.1641H94.6602C95.1992 29.1641 95.6367 28.7266 95.6367 28.1875C95.6367 27.6484 95.1992 27.2109 94.6602 27.2109Z" fill="black"/>
<path d="M80.3398 34.4492H94.6602C95.1992 34.4492 95.6367 34.0117 95.6367 33.4727C95.6367 32.9336 95.1992 32.4961 94.6602 32.4961H80.3398C79.8008 32.4961 79.3633 32.9336 79.3633 33.4727C79.3633 34.0117 79.8008 34.4492 80.3398 34.4492Z" fill="black"/>
<path d="M77.6554 57.2148C78.1711 57.3008 78.6855 56.9301 78.7648 56.3906L81.1828 39.7383H94.6594C95.1984 39.7383 95.6359 39.3008 95.6359 38.7617C95.6359 38.2227 95.1984 37.7852 94.6594 37.7852H80.339C79.8469 37.7852 79.4406 38.1367 79.3703 38.6211L76.8312 56.1094C76.7508 56.641 77.1242 57.1426 77.6554 57.2148Z" fill="black"/>
<path d="M4.36328 22.8984C4.36328 23.4375 4.80078 23.875 5.33984 23.875H11.5234C12.0625 23.875 12.5 23.4375 12.5 22.8984C12.5 22.3594 12.0625 21.9219 11.5234 21.9219H5.33984C4.80078 21.9219 4.36328 22.3594 4.36328 22.8984Z" fill="black"/>
<path d="M5.33984 29.1641H19.6602C20.1992 29.1641 20.6367 28.7266 20.6367 28.1875C20.6367 27.6484 20.1992 27.2109 19.6602 27.2109H5.33984C4.80078 27.2109 4.36328 27.6484 4.36328 28.1875C4.36328 28.7266 4.80078 29.1641 5.33984 29.1641Z" fill="black"/>
<path d="M5.33984 34.4492H19.6602C20.1992 34.4492 20.6367 34.0117 20.6367 33.4727C20.6367 32.9336 20.1992 32.4961 19.6602 32.4961H5.33984C4.80078 32.4961 4.36328 32.9336 4.36328 33.4727C4.36328 34.0117 4.80078 34.4492 5.33984 34.4492Z" fill="black"/>
<path d="M4.39755 39.0195L9.40927 57.1094C9.55107 57.6199 10.0835 57.9336 10.6124 57.7891C11.1421 57.6398 11.4354 57.1008 11.2921 56.5898L6.62021 39.7383H19.6593C20.1983 39.7383 20.6358 39.3008 20.6358 38.7617C20.6358 38.2227 20.2022 37.7891 19.6671 37.7852C19.6632 37.7852 19.6632 37.7852 19.6593 37.7852H5.33896C4.68154 37.7852 4.22646 38.4082 4.39755 39.0195Z" fill="black"/>
</svg>
