<svg width="100" height="100" viewBox="0 0 100 100" fill="none" xmlns="http://www.w3.org/2000/svg">
<path d="M48.4375 89.0625C71.737 89.0625 90.625 70.1745 90.625 46.875C90.625 23.5755 71.737 4.6875 48.4375 4.6875C25.138 4.6875 6.25 23.5755 6.25 46.875C6.25 70.1745 25.138 89.0625 48.4375 89.0625Z" fill="#BBF58B"/>
<path d="M48.4375 84.375C69.1482 84.375 85.9375 67.5857 85.9375 46.875C85.9375 26.1643 69.1482 9.375 48.4375 9.375C27.7268 9.375 10.9375 26.1643 10.9375 46.875C10.9375 67.5857 27.7268 84.375 48.4375 84.375Z" fill="#80E1B8"/>
<path d="M73.4383 37.3609C73.3671 33.3922 71.803 29.5961 69.0577 26.7292C66.3125 23.8623 62.5876 22.1352 58.6258 21.8922C55.6162 21.7343 52.6253 22.4515 50.0146 23.9572C47.404 25.4628 45.2853 27.6925 43.9148 30.3765C42.0027 33.8076 39.3184 36.7465 36.0742 38.9609C34.0741 40.4244 32.4515 42.3435 31.341 44.5592C30.2304 46.7749 29.6639 49.2233 29.6883 51.7015C29.7594 55.67 31.3233 59.4659 34.0682 62.3328C36.8132 65.1996 40.5376 66.9269 44.4992 67.1703C47.5092 67.3282 50.5005 66.611 53.1117 65.1054C55.7228 63.5997 57.8421 61.3701 59.2133 58.6859C61.124 55.2549 63.8073 52.3158 67.0508 50.1015C69.0514 48.6384 70.6744 46.7194 71.7852 44.5037C72.8961 42.2879 73.4627 39.8394 73.4383 37.3609Z" fill="#3ABA80"/>
<path d="M37.8917 14.0703C36.163 14.0592 34.4633 14.5132 32.9703 15.3846C31.4774 16.256 30.2462 17.5128 29.4057 19.0234C28.7326 20.1054 28.3098 21.3242 28.1682 22.5906C28.1098 23.2816 27.8831 23.9479 27.5081 24.5312C27.1331 25.1146 26.6211 25.5974 26.0167 25.9375C24.8951 26.5336 23.9358 27.3943 23.2219 28.4449C22.508 29.4954 22.061 30.7043 21.9196 31.9665C21.7783 33.2288 21.9468 34.5066 22.4107 35.689C22.8746 36.8715 23.6198 37.923 24.5817 38.7525C25.5437 39.582 26.6933 40.1644 27.9312 40.4493C29.169 40.7342 30.4576 40.7131 31.6854 40.3876C32.9132 40.0621 34.0431 39.4422 34.9772 38.5816C35.9114 37.7209 36.6216 36.6455 37.0463 35.4484C37.2904 34.7337 37.7012 34.0875 38.2446 33.5631C38.788 33.0387 39.4485 32.6512 40.1713 32.4328C42.3048 31.8057 44.146 30.4407 45.366 28.5815C46.5859 26.7223 47.1053 24.49 46.8314 22.2832C46.5574 20.0764 45.5079 18.0388 43.8703 16.5344C42.2327 15.0299 40.1137 14.1566 37.8917 14.0703Z" fill="#FFC569"/>
<path d="M54.6871 39.0625V45.3125C57.9791 45.3097 61.2138 46.1736 64.066 47.8175C66.9182 49.4613 69.2873 51.8272 70.9351 54.677C72.583 57.5269 73.4514 60.7604 73.4532 64.0524C73.455 67.3444 72.59 70.5789 70.9452 73.4305C69.3004 76.2822 66.9339 78.6505 64.0834 80.2975C61.233 81.9444 57.9992 82.8118 54.7072 82.8125C51.4152 82.8132 48.1811 81.9472 45.33 80.3015C42.4788 78.6558 40.1112 76.2885 38.4652 73.4375H31.5215C33.2227 77.6429 36.036 81.3062 39.6601 84.0347C43.2843 86.7633 47.5825 88.4543 52.0943 88.9266C56.6061 89.3989 61.1613 88.6347 65.272 86.7158C69.3826 84.7969 72.8936 81.7957 75.4288 78.0338C77.964 74.2719 79.4278 69.891 79.6634 65.3607C79.8989 60.8304 78.8974 56.3213 76.766 52.3168C74.6347 48.3122 71.4539 44.963 67.5644 42.6281C63.675 40.2933 59.2236 39.0607 54.6871 39.0625Z" fill="#2070A1"/>
<path d="M61.6758 24.139L72.7227 35.1859L52.8383 55.0703L41.7914 44.0234L61.6758 24.139Z" fill="#92E5EB"/>
<path d="M44.002 46.2344L50.6311 52.8635L46.2117 57.2829L39.5825 50.6538L44.002 46.2344Z" fill="#34B2E4"/>
<path d="M40.6895 51.7594L45.1089 56.1788L40.6895 60.5982L36.27 56.1788L40.6895 51.7594Z" fill="#92E5EB"/>
<path d="M70.5137 19.7188L77.1428 26.3479L70.5137 32.977L63.8845 26.3479L70.5137 19.7188Z" fill="#68CBF2"/>
<path d="M23.4375 67.1875H48.4375V73.4375H23.4375V67.1875Z" fill="#92E5EB"/>
<path d="M46.875 89.0625H64.0625C65.7201 89.0625 67.3098 89.721 68.4819 90.8931C69.654 92.0652 70.3125 93.6549 70.3125 95.3125H40.625C40.625 93.6549 41.2835 92.0652 42.4556 90.8931C43.6277 89.721 45.2174 89.0625 46.875 89.0625Z" fill="#34B2E4"/>
<path d="M61.6797 40C59.4939 42.1869 56.5751 43.4862 53.4872 43.6466C50.3994 43.8071 47.3616 42.8174 44.9609 40.8688L41.7891 44.0406L52.8375 55.0891L72.7281 35.1953L69.6031 32.0703L61.6797 40Z" fill="#68CBF2"/>
<path d="M69.0162 43.5938C68.6366 43.9775 68.3373 44.433 68.1357 44.9337C67.9341 45.4344 67.8344 45.9702 67.8422 46.5099C67.8501 47.0496 67.9654 47.5823 68.1814 48.0769C68.3975 48.5715 68.7099 49.0181 69.1005 49.3906C73.5781 53.7918 76.2324 59.7189 76.5341 65.9901C76.8359 72.2613 74.7629 78.4158 70.7287 83.2266C73.673 80.7663 76.0109 77.6606 77.5606 74.1505C79.1104 70.6404 79.8304 66.8204 79.6647 62.987C79.4991 59.1536 78.4523 55.41 76.6055 52.0467C74.7588 48.6834 72.1618 45.7909 69.0162 43.5938Z" fill="#34B2E4"/>
<path d="M74.9371 25.4406C74.3567 26.021 73.6677 26.4814 72.9094 26.7955C72.1511 27.1096 71.3384 27.2713 70.5176 27.2713C69.6968 27.2713 68.884 27.1096 68.1257 26.7955C67.3674 26.4814 66.6784 26.021 66.098 25.4406L65.4512 24.7937L63.8887 26.3562L70.5184 32.9859L77.1465 26.3562L75.584 24.7937L74.9371 25.4406Z" fill="#2070A1"/>
<path d="M44.002 46.25L42.4395 47.8125L44.191 49.5656C44.9879 50.3646 45.4686 51.425 45.5445 52.5509C45.6203 53.6767 45.2861 54.792 44.6035 55.6906L46.2113 57.2984L50.6254 52.8734L44.002 46.25Z" fill="#2070A1"/>
<path d="M40.6875 51.7688L39.125 53.3313L39.7719 53.9782C40.3577 54.5642 40.6868 55.3589 40.6868 56.1875C40.6868 57.0162 40.3577 57.8109 39.7719 58.3969L39.125 59.0454L40.6875 60.6079L45.1062 56.1875L40.6875 51.7688Z" fill="#68CBF2"/>
<path d="M26.5625 67.1875H23.4375V73.4375H48.4375V70.3125H29.6875C28.8587 70.3125 28.0638 69.9833 27.4778 69.3972C26.8917 68.8112 26.5625 68.0163 26.5625 67.1875Z" fill="#68CBF2"/>
<path d="M48.4375 92.1875C47.6475 92.1865 46.8875 91.8852 46.3113 91.3447C45.7351 90.8042 45.3859 90.0649 45.3344 89.2766C43.9901 89.616 42.7973 90.3937 41.9444 91.4868C41.0915 92.5799 40.6273 93.9261 40.625 95.3125H70.3125C70.3068 94.2123 70.0074 93.1334 69.4453 92.1875H48.4375Z" fill="#2070A1"/>
<path d="M37.5 26.5625C39.2259 26.5625 40.625 25.1634 40.625 23.4375C40.625 21.7116 39.2259 20.3125 37.5 20.3125C35.7741 20.3125 34.375 21.7116 34.375 23.4375C34.375 25.1634 35.7741 26.5625 37.5 26.5625Z" fill="#68CBF2"/>
<path d="M19.6869 48.0218L21.3385 47.7468C22.7408 47.5115 24.1797 47.8316 25.3499 48.6393C26.5202 49.447 27.3299 50.6788 27.6072 52.0734C27.7712 52.8893 27.7467 53.7318 27.5358 54.5368C27.3249 55.3418 26.933 56.088 26.39 56.7187L23.4541 60.1453C22.9037 60.7872 22.212 61.293 21.4334 61.623C20.6548 61.9529 19.8103 62.0981 18.9662 62.0471C18.1221 61.9961 17.3013 61.7503 16.5681 61.329C15.8349 60.9077 15.2092 60.3223 14.74 59.6187L14.4275 59.1406C13.8498 58.2784 13.5294 57.2695 13.5036 56.232C13.4779 55.1944 13.748 54.171 14.2822 53.2812L15.8854 50.6093C16.2935 49.9282 16.845 49.344 17.5014 48.8972C18.1578 48.4504 18.9036 48.1517 19.6869 48.0218Z" fill="#FFC569"/>
<path d="M41.7391 24.6125C41.0162 24.831 40.3557 25.2185 39.8123 25.7429C39.2689 26.2672 38.8582 26.9135 38.6141 27.6281C38.072 29.1471 37.0731 30.461 35.7545 31.3896C34.4359 32.3182 32.8623 32.816 31.2495 32.8146C29.6368 32.8133 28.064 32.3128 26.747 31.382C25.43 30.4511 24.4333 29.1355 23.8938 27.6156C23.1229 28.4734 22.5518 29.4915 22.2214 30.5964C21.8911 31.7014 21.8098 32.8658 21.9834 34.006C22.157 35.1461 22.5812 36.2336 23.2254 37.1902C23.8696 38.1467 24.7179 38.9486 25.7091 39.5381C26.7004 40.1276 27.81 40.4901 28.958 40.5994C30.1061 40.7087 31.2642 40.5622 32.3489 40.1703C33.4335 39.7785 34.4179 39.1511 35.231 38.3333C36.0442 37.5154 36.666 36.5275 37.0516 35.4406C37.2957 34.726 37.7064 34.0797 38.2498 33.5554C38.7932 33.031 39.4537 32.6435 40.1766 32.425C42.4893 31.7446 44.449 30.1957 45.6452 28.1026C46.8415 26.0096 47.1814 23.5349 46.5938 21.1969C45.3877 22.8306 43.6842 24.0291 41.7391 24.6125Z" fill="#F06E7A"/>
<path d="M25.0177 55.45C24.4672 56.092 23.7756 56.5978 22.997 56.9277C22.2184 57.2577 21.3739 57.4028 20.5298 57.3518C19.6857 57.3008 18.8649 57.055 18.1317 56.6337C17.3985 56.2124 16.7728 55.627 16.3036 54.9234L15.9911 54.4453C15.4914 53.6879 15.188 52.818 15.1083 51.9141L14.2896 53.2781C13.7553 54.1668 13.4847 55.189 13.5094 56.2257C13.534 57.2623 13.8528 58.2705 14.4286 59.1328L14.7411 59.6109C15.2103 60.3145 15.836 60.8999 16.5692 61.3212C17.3024 61.7425 18.1232 61.9883 18.9673 62.0393C19.8114 62.0903 20.6559 61.9452 21.4345 61.6152C22.2131 61.2853 22.9047 60.7795 23.4552 60.1375L26.3911 56.7188C26.8907 56.1286 27.2594 55.4393 27.473 54.6962C27.6866 53.9531 27.7401 53.1731 27.6302 52.4078L25.0177 55.45Z" fill="#F06E7A"/>
<path d="M48.4377 3.125C38.3141 3.12225 28.5028 6.63047 20.6762 13.0517C12.8495 19.4729 7.49198 28.4097 5.51671 38.3387C3.54143 48.2678 5.07069 58.5746 9.84382 67.5024C14.617 76.4302 22.3385 83.4264 31.6924 87.2984C31.882 87.377 32.0852 87.4175 32.2905 87.4175C32.4957 87.4176 32.6989 87.3772 32.8886 87.2987C33.0782 87.2202 33.2505 87.1052 33.3957 86.9601C33.5408 86.815 33.656 86.6427 33.7346 86.4531C33.8132 86.2635 33.8537 86.0603 33.8537 85.8551C33.8538 85.6498 33.8134 85.4466 33.7349 85.257C33.6564 85.0673 33.5413 84.895 33.3962 84.7498C33.2511 84.6047 33.0789 84.4895 32.8893 84.4109C25.3234 81.2775 18.881 75.9306 14.4072 69.0715C9.93339 62.2125 7.63692 54.1615 7.81898 45.9744C8.00104 37.7873 10.6531 29.8463 15.4274 23.1929C20.2018 16.5395 26.8754 11.4843 34.5731 8.69028C42.2709 5.89624 50.6333 5.49381 58.5638 7.53576C66.4942 9.57771 73.6224 13.9687 79.0136 20.1329C84.4047 26.2971 87.8071 33.9467 88.7745 42.0785C89.7419 50.2103 88.2291 58.4446 84.4346 65.7016C84.2421 66.0687 84.2034 66.4973 84.3269 66.893C84.4504 67.2888 84.726 67.6192 85.0932 67.8117C85.4604 68.0042 85.8889 68.043 86.2847 67.9194C86.6804 67.7959 87.0109 67.5203 87.2034 67.1531C90.6913 60.4851 92.4003 53.0301 92.1653 45.5086C91.9302 37.9871 89.7591 30.6534 85.8617 24.2161C81.9643 17.7788 76.4723 12.4557 69.9166 8.76104C63.3608 5.0664 55.9629 3.12519 48.4377 3.125Z" fill="black"/>
<path d="M68.6437 41.4891L73.8328 36.3C74.1257 36.007 74.2903 35.6096 74.2903 35.1953C74.2903 34.781 74.1257 34.3837 73.8328 34.0906L72.7281 32.986L77.1469 28.5656L78.2531 29.6719C78.3982 29.8174 78.5705 29.9329 78.7602 30.0117C78.9499 30.0906 79.1533 30.1314 79.3587 30.1317C79.5642 30.132 79.7677 30.0918 79.9576 30.0134C80.1475 29.9351 80.3201 29.8201 80.4656 29.675C80.6111 29.5299 80.7266 29.3576 80.8055 29.1679C80.8844 28.9782 80.9251 28.7749 80.9254 28.5694C80.9257 28.364 80.8855 28.1605 80.8072 27.9705C80.7288 27.7806 80.6138 27.608 80.4688 27.4625L69.4141 16.4063C69.1194 16.1216 68.7247 15.9642 68.315 15.9677C67.9053 15.9713 67.5134 16.1356 67.2237 16.4253C66.934 16.715 66.7697 17.1069 66.7661 17.5166C66.7626 17.9263 66.9201 18.3209 67.2047 18.6156L68.3094 19.7203L63.8891 24.1406L62.7844 23.036C62.4858 22.7537 62.0906 22.5964 61.6797 22.5964C61.2688 22.5964 60.8735 22.7537 60.575 23.036L54.1687 29.4422C53.8841 29.7369 53.7266 30.1316 53.7302 30.5413C53.7338 30.9509 53.8981 31.3428 54.1878 31.6325C54.4775 31.9222 54.8694 32.0866 55.2791 32.0901C55.6887 32.0937 56.0834 31.9362 56.3781 31.6516L61.6734 26.3563L62.7781 27.461L66.0938 30.7813L70.5141 35.2L60.2328 45.4813L52.8359 52.8766L43.9969 44.0375L51.9656 36.0688C52.2502 35.7741 52.4077 35.3794 52.4042 34.9697C52.4006 34.56 52.2363 34.1681 51.9466 33.8784C51.6569 33.5887 51.265 33.4244 50.8553 33.4208C50.4456 33.4173 50.0509 33.5748 49.7563 33.8594L40.6938 42.9219C40.4008 43.2149 40.2363 43.6123 40.2363 44.0266C40.2363 44.4409 40.4008 44.8383 40.6938 45.1313L41.7984 46.236L38.4844 49.5516C38.1915 49.8446 38.0269 50.2419 38.0269 50.6563C38.0269 51.0706 38.1915 51.4679 38.4844 51.7609L35.1562 55.0828C34.8633 55.3758 34.6988 55.7732 34.6988 56.1875C34.6988 56.6018 34.8633 56.9992 35.1562 57.2922L39.5828 61.7188C39.8758 62.0117 40.2732 62.1762 40.6875 62.1762C41.1018 62.1762 41.4992 62.0117 41.7922 61.7188L45.1063 58.4031C45.3993 58.6961 45.7966 58.8606 46.2109 58.8606C46.6253 58.8606 47.0226 58.6961 47.3156 58.4031L50.625 55.0828L51.7297 56.1875C52.0227 56.4804 52.4201 56.645 52.8344 56.645C53.2487 56.645 53.646 56.4804 53.9391 56.1875L61.7188 48.4094C64.0842 49.4621 66.1808 51.0362 67.8517 53.014C69.5225 54.9918 70.7243 57.3219 71.367 59.83C72.0097 62.338 72.0767 64.959 71.563 67.4966C71.0492 70.0342 69.9681 72.4227 68.4004 74.4832C66.8328 76.5438 64.8193 78.223 62.5108 79.3951C60.2022 80.5673 57.6584 81.2019 55.0698 81.2516C52.4812 81.3014 49.9148 80.7648 47.563 79.6822C45.2111 78.5995 43.1347 76.9989 41.4891 75H48.4375C48.8519 75 49.2493 74.8354 49.5424 74.5424C49.8354 74.2493 50 73.8519 50 73.4375C50 73.0231 49.8354 72.6257 49.5424 72.3327C49.2493 72.0396 48.8519 71.875 48.4375 71.875H25V68.75H48.4375C48.8519 68.75 49.2493 68.5854 49.5424 68.2924C49.8354 67.9993 50 67.6019 50 67.1875C50 66.7731 49.8354 66.3757 49.5424 66.0827C49.2493 65.7896 48.8519 65.625 48.4375 65.625H23.4375C23.0231 65.625 22.6257 65.7896 22.3326 66.0827C22.0396 66.3757 21.875 66.7731 21.875 67.1875V73.4375C21.875 73.8519 22.0396 74.2493 22.3326 74.5424C22.6257 74.8354 23.0231 75 23.4375 75H30.5125C33.1393 80.8531 37.8039 85.5521 43.6375 88.2219C42.2761 88.8418 41.1213 89.8395 40.3103 91.0964C39.4993 92.3533 39.0662 93.8167 39.0625 95.3125C39.0625 95.7269 39.2271 96.1243 39.5201 96.4174C39.8132 96.7104 40.2106 96.875 40.625 96.875H70.3125C70.7269 96.875 71.1243 96.7104 71.4174 96.4174C71.7104 96.1243 71.875 95.7269 71.875 95.3125C71.8691 93.6531 71.3339 92.0388 70.3472 90.7045C69.3606 89.3703 67.9739 88.3856 66.3891 87.8938C70.5192 85.8679 74.0531 82.8051 76.6453 79.0047C76.7608 78.8351 76.8418 78.6444 76.8837 78.4435C76.9255 78.2427 76.9273 78.0355 76.8891 77.8339C76.8509 77.6323 76.7733 77.4402 76.6608 77.2686C76.5484 77.0969 76.4032 76.9491 76.2336 76.8336C76.064 76.7181 75.8733 76.6371 75.6724 76.5953C75.4715 76.5534 75.2644 76.5516 75.0628 76.5898C74.8612 76.6281 74.6691 76.7056 74.4974 76.8181C74.3258 76.9306 74.178 77.0757 74.0625 77.2453C71.7913 80.5882 68.6934 83.2862 65.0704 85.0769C61.4473 86.8675 57.4224 87.6898 53.3873 87.4638C49.3522 87.2377 45.4444 85.971 42.044 83.7869C38.6436 81.6028 35.8664 78.5756 33.9828 75H37.6C39.2746 77.6236 41.5302 79.8268 44.1924 81.4392C46.8546 83.0516 49.852 84.03 52.9528 84.2988C56.0536 84.5675 59.1746 84.1194 62.0745 82.989C64.9744 81.8587 67.5755 80.0764 69.6764 77.78C71.7774 75.4837 73.3219 72.7349 74.1907 69.7461C75.0594 66.7574 75.2289 63.6089 74.6862 60.5441C74.1435 57.4794 72.9031 54.5806 71.061 52.0719C69.2188 49.5632 66.8242 47.5118 64.0625 46.0766L66.3672 43.7719C71.278 46.5816 75.0024 51.078 76.8487 56.4261C78.695 61.7742 78.5378 67.6106 76.4063 72.8516C76.3277 73.0421 76.2876 73.2463 76.2882 73.4524C76.2889 73.6584 76.3303 73.8623 76.4101 74.0523C76.4899 74.2424 76.6065 74.4147 76.7532 74.5595C76.8998 74.7042 77.0737 74.8185 77.2648 74.8958C77.4558 74.9731 77.6603 75.0118 77.8663 75.0098C78.0724 75.0077 78.276 74.9649 78.4655 74.8838C78.6549 74.8027 78.8265 74.685 78.9703 74.5373C79.114 74.3897 79.2271 74.215 79.3031 74.0235C81.6625 68.2161 81.8864 61.7604 79.935 55.8036C77.9836 49.8468 73.9819 44.7748 68.6437 41.4891ZM70.5187 21.9375L74.9375 26.3563L70.5187 30.7813L68.3078 28.5703L66.0938 26.3563L70.5187 21.9375ZM40.6875 58.3985L38.4766 56.1875L40.6875 53.9781L42.8969 56.1875L40.6875 58.3985ZM46.2109 55.0828L41.7922 50.6641L44.0016 48.4547L48.4203 52.8735L46.2109 55.0828ZM64.0625 90.625C65.0317 90.6262 65.9768 90.9272 66.7681 91.4866C67.5595 92.0461 68.1585 92.8367 68.4828 93.75H42.4547C42.779 92.8367 43.378 92.0461 44.1694 91.4866C44.9607 90.9272 45.9058 90.6262 46.875 90.625H64.0625Z" fill="black"/>
<path d="M42.1875 23.4375C42.1875 22.5104 41.9126 21.6041 41.3975 20.8333C40.8824 20.0624 40.1504 19.4616 39.2938 19.1068C38.4373 18.752 37.4948 18.6592 36.5855 18.8401C35.6762 19.0209 34.841 19.4674 34.1854 20.1229C33.5299 20.7785 33.0834 21.6137 32.9026 22.523C32.7217 23.4323 32.8145 24.3748 33.1693 25.2313C33.5241 26.0879 34.1249 26.8199 34.8958 27.335C35.6666 27.8501 36.5729 28.125 37.5 28.125C38.7432 28.125 39.9355 27.6311 40.8146 26.7521C41.6936 25.873 42.1875 24.6807 42.1875 23.4375ZM35.9375 23.4375C35.9375 23.1285 36.0291 22.8264 36.2008 22.5694C36.3725 22.3125 36.6166 22.1122 36.9021 21.9939C37.1876 21.8757 37.5017 21.8447 37.8048 21.905C38.1079 21.9653 38.3863 22.1141 38.6049 22.3326C38.8234 22.5512 38.9722 22.8296 39.0325 23.1327C39.0928 23.4358 39.0618 23.7499 38.9436 24.0354C38.8253 24.321 38.625 24.565 38.3681 24.7367C38.1111 24.9084 37.809 25 37.5 25C37.0856 25 36.6882 24.8354 36.3951 24.5424C36.1021 24.2493 35.9375 23.8519 35.9375 23.4375Z" fill="black"/>
<path d="M38.5171 35.9672C38.6779 35.4818 38.9535 35.0424 39.3204 34.6863C39.6874 34.3302 40.1349 34.068 40.6249 33.9219C43.1025 33.1808 45.2374 31.5858 46.6506 29.42C48.0638 27.2542 48.6639 24.6578 48.3443 22.0915C48.0247 19.5253 46.8062 17.1553 44.905 15.4022C43.0038 13.6491 40.543 12.6264 37.9593 12.5156C35.9521 12.4994 33.977 13.0201 32.2386 14.0236C30.5002 15.0272 29.0616 16.4771 28.0718 18.2234C27.2811 19.502 26.7848 20.9403 26.6187 22.4344C26.584 22.8691 26.4449 23.2891 26.2131 23.6585C25.9814 24.0279 25.6638 24.3359 25.2874 24.5562C23.5963 25.4582 22.2222 26.8568 21.3504 28.5637C20.4785 30.2705 20.1507 32.2036 20.4112 34.1024C20.6717 36.0013 21.5079 37.7747 22.8072 39.1837C24.1065 40.5927 25.8065 41.5696 27.678 41.9828C28.339 42.1199 29.0124 42.1885 29.6874 42.1875C31.6232 42.1972 33.5138 41.6033 35.0964 40.4885C36.6789 39.3736 37.8746 37.7932 38.5171 35.9672ZM28.3155 38.9188C27.1101 38.6458 26.0123 38.0225 25.1602 37.1273C24.3081 36.2321 23.7397 35.1049 23.5265 33.8875C23.2953 32.5906 23.4832 31.2538 24.0631 30.071C24.643 28.8882 25.5847 27.9209 26.7515 27.3094C27.5823 26.8515 28.2876 26.1963 28.8054 25.4014C29.3231 24.6066 29.6373 23.6965 29.7202 22.7516C29.837 21.7137 30.1863 20.7155 30.7421 19.8312C31.4222 18.6046 32.4063 17.5735 33.5999 16.8369C34.7934 16.1003 36.1564 15.683 37.5577 15.625H37.828C39.6763 15.7009 41.4376 16.4301 42.7986 17.6828C44.1596 18.9356 45.0319 20.6307 45.2603 22.4663C45.4887 24.3019 45.0584 26.159 44.0459 27.7071C43.0334 29.2552 41.5044 30.3938 39.7312 30.9203C38.7717 31.2076 37.8944 31.7193 37.1719 32.413C36.4495 33.1066 35.9026 33.9624 35.5765 34.9094C35.0634 36.3483 34.0422 37.55 32.7049 38.2884C31.3676 39.0268 29.8066 39.251 28.3155 38.9188Z" fill="black"/>
<path d="M29.6875 34.375C30.5504 34.375 31.25 33.6754 31.25 32.8125C31.25 31.9496 30.5504 31.25 29.6875 31.25C28.8246 31.25 28.125 31.9496 28.125 32.8125C28.125 33.6754 28.8246 34.375 29.6875 34.375Z" fill="black"/>
<path d="M16.0416 58.75L15.7291 58.2813C15.6218 58.0983 15.4783 57.9391 15.3074 57.8134C15.1366 57.6877 14.9419 57.5981 14.7353 57.55C14.5287 57.502 14.3145 57.4965 14.1057 57.5339C13.8969 57.5714 13.6979 57.6509 13.5208 57.7678C13.3438 57.8846 13.1924 58.0363 13.0758 58.2135C12.9593 58.3907 12.8801 58.5899 12.843 58.7987C12.8059 59.0076 12.8117 59.2218 12.8601 59.4283C12.9085 59.6349 12.9984 59.8294 13.1244 60L13.4447 60.4797C14.0441 61.3876 14.8473 62.1429 15.7902 62.6855C16.7332 63.228 17.7898 63.5428 18.876 63.6047C19.0228 63.6141 19.1682 63.6188 19.3119 63.6188C20.3262 63.6208 21.3287 63.402 22.2499 62.9776C23.1711 62.5531 23.9888 61.9332 24.6463 61.161L27.5791 57.7344C28.5238 56.6385 29.1075 55.2778 29.2504 53.838C29.3933 52.3981 29.0886 50.9492 28.3777 49.689C27.6668 48.4287 26.5845 47.4185 25.2783 46.796C23.9721 46.1736 22.5057 45.9693 21.0791 46.211L19.4307 46.4875C18.425 46.6529 17.4673 47.035 16.6239 47.6072C15.7805 48.1795 15.0716 48.9282 14.5463 49.8016L12.9416 52.4735C12.8359 52.6496 12.766 52.8449 12.7358 53.0481C12.7055 53.2512 12.7156 53.4584 12.7655 53.6577C12.8153 53.857 12.9039 54.0445 13.0262 54.2095C13.1485 54.3746 13.3022 54.5139 13.4783 54.6196C13.6545 54.7252 13.8497 54.7952 14.0529 54.8254C14.2561 54.8556 14.4632 54.8455 14.6625 54.7957C14.8618 54.7458 15.0493 54.6572 15.2144 54.5349C15.3794 54.4126 15.5187 54.259 15.6244 54.0828L17.2244 51.4063C17.5157 50.9199 17.9093 50.5028 18.378 50.1839C18.8467 49.865 19.3792 49.6519 19.9385 49.5594L21.5885 49.2844C22.382 49.1483 23.1983 49.2607 23.9255 49.6063C24.6527 49.952 25.2554 50.5138 25.651 51.2151C26.0466 51.9164 26.2159 52.7228 26.1356 53.5239C26.0553 54.3251 25.7294 55.0818 25.2025 55.6907L22.2682 59.1157C21.8757 59.5757 21.3818 59.9384 20.8253 60.1751C20.2689 60.4118 19.6651 60.5161 19.0614 60.4798C18.4578 60.4434 17.8709 60.2674 17.3468 59.9656C16.8228 59.6638 16.376 59.2445 16.0416 58.7407V58.75Z" fill="black"/>
<path d="M20.3125 56.25C21.1754 56.25 21.875 55.5504 21.875 54.6875C21.875 53.8246 21.1754 53.125 20.3125 53.125C19.4496 53.125 18.75 53.8246 18.75 54.6875C18.75 55.5504 19.4496 56.25 20.3125 56.25Z" fill="black"/>
<path d="M84.2198 40.6422C84.1548 39.972 83.9413 39.3248 83.5948 38.7474C83.2483 38.1701 82.7775 37.6773 82.2166 37.3047C81.8718 37.0835 81.4539 37.0066 81.053 37.0905C80.652 37.1744 80.3 37.4124 80.0728 37.7533C79.8456 38.0942 79.7614 38.5107 79.8382 38.9131C79.9151 39.3155 80.147 39.6716 80.4838 39.9047C80.658 40.0219 80.8042 40.1762 80.912 40.3564C81.0197 40.5366 81.0863 40.7384 81.1071 40.9474C81.1278 41.1563 81.1022 41.3673 81.032 41.5652C80.9618 41.7631 80.8488 41.943 80.701 42.0922C79.8494 42.9463 79.3711 44.1033 79.3711 45.3094C79.3711 46.5156 79.8494 47.6725 80.701 48.5266C80.8452 48.6758 81.0176 48.7949 81.2082 48.8768C81.3988 48.9586 81.6039 49.0018 81.8113 49.0036C82.0188 49.0054 82.2245 48.9658 82.4166 48.8873C82.6086 48.8087 82.7831 48.6927 82.9298 48.546C83.0765 48.3993 83.1925 48.2248 83.2711 48.0328C83.3496 47.8408 83.3892 47.635 83.3874 47.4275C83.3856 47.2201 83.3424 47.015 83.2606 46.8244C83.1787 46.6338 83.0596 46.4614 82.9104 46.3172C82.6438 46.0496 82.4941 45.6872 82.4941 45.3094C82.4941 44.9316 82.6438 44.5693 82.9104 44.3016C83.3864 43.827 83.7509 43.2524 83.9773 42.6194C84.2038 41.9865 84.2866 41.3111 84.2198 40.6422Z" fill="black"/>
<path d="M59.3174 59.4859C58.8271 59.2235 58.2746 59.0994 57.7192 59.1269C57.1637 59.1545 56.6262 59.3325 56.1643 59.6421L53.8205 61.2046C53.4757 61.4346 53.2364 61.7922 53.1553 62.1986C53.0741 62.605 53.1577 63.027 53.3877 63.3718C53.6177 63.7166 53.9752 63.9559 54.3817 64.0371C54.7881 64.1182 55.2101 64.0346 55.5549 63.8046L57.8127 62.1874V64.3749C57.812 64.9306 57.9625 65.4759 58.2479 65.9526C58.5333 66.4293 58.9429 66.8194 59.433 67.0812C59.9091 67.3482 60.4527 67.4708 60.9973 67.4342C61.5419 67.3976 62.0641 67.2033 62.5002 66.8749C62.5002 67.2893 62.6648 67.6868 62.9578 67.9798C63.2509 68.2728 63.6483 68.4374 64.0627 68.4374C64.4771 68.4374 64.8745 68.2728 65.1676 67.9798C65.4606 67.6868 65.6252 67.2893 65.6252 66.8749C65.6259 66.3193 65.4754 65.774 65.19 65.2973C64.9046 64.8206 64.495 64.4305 64.0049 64.1687C63.5288 63.9017 62.9853 63.7791 62.4406 63.8157C61.896 63.8523 61.3738 64.0466 60.9377 64.3749V62.1874C60.9375 61.6326 60.7867 61.0883 60.5013 60.6125C60.216 60.1367 59.8068 59.7473 59.3174 59.4859Z" fill="black"/>
<path d="M34.375 48.4375C35.2379 48.4375 35.9375 47.7379 35.9375 46.875C35.9375 46.0121 35.2379 45.3125 34.375 45.3125C33.5121 45.3125 32.8125 46.0121 32.8125 46.875C32.8125 47.7379 33.5121 48.4375 34.375 48.4375Z" fill="black"/>
<path d="M65.625 59.375C66.4879 59.375 67.1875 58.6754 67.1875 57.8125C67.1875 56.9496 66.4879 56.25 65.625 56.25C64.7621 56.25 64.0625 56.9496 64.0625 57.8125C64.0625 58.6754 64.7621 59.375 65.625 59.375Z" fill="black"/>
<path d="M54.6875 20.3125C54.6875 20.7269 54.8521 21.1243 55.1451 21.4174C55.4382 21.7104 55.8356 21.875 56.25 21.875C56.6644 21.875 57.0618 21.7104 57.3549 21.4174C57.6479 21.1243 57.8125 20.7269 57.8125 20.3125C57.8125 18.6549 57.154 17.0652 55.9819 15.8931C54.8098 14.721 53.2201 14.0625 51.5625 14.0625C51.1481 14.0625 50.7507 14.2271 50.4576 14.5201C50.1646 14.8132 50 15.2106 50 15.625C50 16.0394 50.1646 16.4368 50.4576 16.7299C50.7507 17.0229 51.1481 17.1875 51.5625 17.1875C52.3913 17.1875 53.1862 17.5167 53.7722 18.1028C54.3583 18.6888 54.6875 19.4837 54.6875 20.3125Z" fill="black"/>
<path d="M53.5831 72.9797L56.7081 76.1047C57.0028 76.3893 57.3975 76.5468 57.8072 76.5432C58.2169 76.5396 58.6088 76.3753 58.8985 76.0856C59.1882 75.7959 59.3525 75.404 59.3561 74.9943C59.3596 74.5847 59.2021 74.19 58.9175 73.8953L55.7925 70.7703C55.4978 70.4857 55.1031 70.3282 54.6935 70.3317C54.2838 70.3353 53.8919 70.4996 53.6022 70.7893C53.3125 71.079 53.1482 71.4709 53.1446 71.8806C53.141 72.2903 53.2985 72.685 53.5831 72.9797Z" fill="black"/>
</svg>
