<svg width="100" height="100" viewBox="0 0 100 100" fill="none" xmlns="http://www.w3.org/2000/svg">
<g clip-path="url(#clip0_563_7687)">
<path d="M91.9975 1.46484H8.00098C6.96914 1.46484 6.13281 2.30117 6.13281 3.33301V96.6672C6.13281 97.699 6.96914 98.5354 8.00098 98.5354H91.9975C93.0293 98.5354 93.8656 97.699 93.8656 96.6672V3.3332C93.8656 2.30137 93.0291 1.46484 91.9975 1.46484Z" fill="#EAAE8E"/>
<path d="M13.1641 96.6672V3.33321C13.1641 2.30137 14.0004 1.46504 15.0322 1.46504H8.00098C6.96914 1.46504 6.13281 2.30137 6.13281 3.33321V96.6674C6.13281 97.6992 6.96914 98.5356 8.00098 98.5356H15.0322C14.0004 98.5354 13.1641 97.699 13.1641 96.6672Z" fill="#E39B74"/>
<path d="M86.725 7.49609H13.2734C12.6607 7.49609 12.1641 7.99277 12.1641 8.60547V91.3945C12.1641 92.0072 12.6607 92.5041 13.2734 92.5041H86.725C87.3377 92.5041 87.8344 92.0074 87.8344 91.3945V8.60566C87.8344 7.99297 87.3377 7.49609 86.725 7.49609Z" fill="#E39B74"/>
<path d="M19.1953 91.3947V8.60567C19.1953 7.99297 19.692 7.49629 20.3047 7.49629H13.2734C12.6607 7.49629 12.1641 7.99297 12.1641 8.60567V91.3947C12.1641 92.0074 12.6607 92.5043 13.2734 92.5043H20.3047C19.692 92.5043 19.1953 92.0074 19.1953 91.3947Z" fill="#DD8858"/>
<path d="M81.1332 13.5273H18.8652C18.4951 13.5273 18.1953 13.8273 18.1953 14.1973V85.8029C18.1953 86.173 18.4953 86.4728 18.8652 86.4728H22.9812L23.8084 85.1469H74.6115L76.773 86.4728H81.133C81.5031 86.4728 81.8031 86.1729 81.8031 85.8029V14.1975C81.8031 13.8273 81.5033 13.5273 81.1332 13.5273Z" fill="#8BCAFF"/>
<path d="M26.3984 14.1975C26.3984 13.8273 26.6984 13.5275 27.0684 13.5275H18.8652C18.4951 13.5275 18.1953 13.8275 18.1953 14.1975V85.8031C18.1953 86.1732 18.4953 86.473 18.8652 86.473H22.9812L23.8084 85.1471H26.3982V14.1975H26.3984Z" fill="#60B9FE"/>
<path d="M46.3766 82.3014C45.0074 80.6178 42.9211 79.6811 40.751 79.6811H36.1533C36.0791 79.6811 36.0053 79.6784 35.9318 79.6735L34.5879 80.427L33.4648 83.7473V85.7981L34.252 86.4729H47.9787C47.9787 84.787 47.2576 83.3852 46.3766 82.3014Z" fill="#FFDECF"/>
<path d="M35.9318 79.6735L35.6701 78.7669C35.6701 78.7669 35.1492 78.8645 33.066 75.1294C30.9826 71.3942 32.1057 63.1012 32.1057 63.1012L31.957 62.8032C31.957 62.8032 22.9805 70.9387 22.9805 86.4729H34.2518C34.2518 86.4729 33.5941 82.7182 35.9318 79.6735Z" fill="#5895B7"/>
<path d="M32.1057 63.101L31.957 62.803C31.957 62.803 22.9805 70.9385 22.9805 86.4727H28.5795C28.5795 80.0079 30.1344 74.8257 31.9498 70.9768C31.5463 67.2327 32.1057 63.101 32.1057 63.101Z" fill="#477B9E"/>
<path d="M65.7425 59.2126L58.6653 62.2229C57.4872 62.7241 56.18 61.8595 56.18 60.5794V59.2847C56.178 59.2874 49.4071 68.3663 43.8415 66.1694C38.2751 63.9722 42.1325 54.2686 42.1325 54.2686L41.7518 53.5515L34.2526 58.2321C34.2526 58.2321 27.4444 67.2362 33.1766 77.8899C33.7677 78.9882 34.9067 79.6813 36.154 79.6813H40.7516C42.9218 79.6813 45.0081 80.6181 46.3772 82.3017C47.2585 83.3852 47.9794 84.7872 47.9794 86.4729H56.18L57.1716 85.3587C57.1716 85.3587 57.1716 84.8704 59.3688 75.1294C61.5661 65.3884 68.988 64.6556 68.988 64.6556L69.5661 63.7856C69.5661 63.7856 68.2114 61.5097 65.7425 59.2126Z" fill="#477B9E"/>
<path d="M40.4579 78.6751C35.7112 69.8532 39.294 62.1284 40.8975 59.4169C41.163 56.7075 42.1325 54.2684 42.1325 54.2684L41.7518 53.5513L34.2526 58.2319C34.2526 58.2319 27.4444 67.236 33.1766 77.8897C33.7677 78.988 34.9067 79.6811 36.154 79.6811H40.7516C40.9335 79.6811 41.1143 79.6901 41.2948 79.7032C40.9591 79.4206 40.6727 79.0745 40.4579 78.6751Z" fill="#3F6D8E"/>
<path d="M69.5656 63.7856C57.1383 63.7856 56.1797 86.4729 56.1797 86.4729H76.7729C76.7729 69.06 69.5656 63.7856 69.5656 63.7856Z" fill="#5895B7"/>
<path d="M50.0752 20.5789C40.8914 20.5789 34.252 27.9556 34.252 36.3494V58.232C37.4072 56.4959 41.7512 53.5513 41.7512 53.5513L42.0414 54.0502L42.8152 53.5513C42.8152 53.5513 45.0184 52.4291 45.0184 47.556C45.0184 47.556 42.0828 45.222 42.0828 41.9017C42.0828 38.5814 42.0828 32.5755 42.0828 32.5755L56.1791 34.2683V60.7746C56.1791 62.0548 57.4863 62.9193 58.6645 62.4181L66.473 59.0966C67.1322 58.8164 67.5602 58.1693 67.5602 57.4531V38.0638C67.5602 38.0638 66.6932 20.5789 50.0752 20.5789Z" fill="#5895B7"/>
<path d="M41.2344 36.3494C41.2344 28.9877 46.342 22.4095 53.7934 20.9027C52.6506 20.6937 51.4148 20.5787 50.0752 20.5787C40.8914 20.5787 34.252 27.9554 34.252 36.3492V58.2318C36.7506 56.8572 39.9922 54.7259 41.2344 53.8976V36.3494Z" fill="#477B9E"/>
<path d="M55.4794 42.2109C55.4794 42.2109 52.2241 48.347 48.969 48.347C45.7138 48.347 44.6884 47.3216 44.6884 47.3216L44.2239 47.7282V49.0952C44.2239 50.9075 43.2897 52.5919 41.7522 53.5515C41.7522 53.5515 36.7276 64.0839 42.7155 66.631C47.2085 68.5419 52.5972 64.1862 56.1802 60.4099V47.6638V41.4415L55.4794 42.2109Z" fill="#FFDECF"/>
<path d="M48.6019 51.9878C49.5132 51.0243 50.0386 49.737 50.0386 48.3778V48.137C49.6849 48.2692 49.327 48.347 48.969 48.347C45.7138 48.347 44.6884 47.3216 44.6884 47.3216L44.2239 47.7282V49.0952C44.2239 50.9075 43.2897 52.5919 41.7522 53.5515C41.7522 53.5515 36.7276 64.0839 42.7155 66.631C44.703 67.4763 46.8657 67.0942 48.9698 66.0796C48.8224 66.0306 48.6757 65.9759 48.53 65.914C44.2786 64.1058 45.5784 58.272 46.6899 55.0403C47.086 53.8903 47.7665 52.871 48.6019 51.9878Z" fill="#FFCEBE"/>
<path d="M47.8717 25.9593C44.041 25.9593 40.9355 29.0648 40.9355 32.8955V40.8488C40.9355 42.3888 41.2955 43.9167 42.0479 45.2603C43.0699 47.0861 44.9926 49.0078 48.5582 49.0078C48.6098 49.0078 48.6611 49.0076 48.7123 49.0072C52.8533 48.9689 56.1809 45.5812 56.1809 41.44V34.2683C56.1809 29.6792 52.4607 25.9593 47.8717 25.9593Z" fill="#FFEEE5"/>
<path d="M48.4262 45.2603C47.6738 43.9167 47.3139 42.3886 47.3139 40.8488V32.8955C47.3139 30.1552 48.9033 27.7871 51.21 26.6601C50.1875 26.2105 49.0582 25.9593 47.8697 25.9593C44.0391 25.9593 40.9336 29.0648 40.9336 32.8955V40.8488C40.9336 42.3888 41.2936 43.9167 42.0459 45.2603C43.068 47.0861 44.9906 49.0078 48.5563 49.0078C48.608 49.0078 48.6592 49.0076 48.7104 49.0072C49.7742 48.9974 50.7838 48.765 51.6977 48.357C50.1074 47.6392 49.0813 46.4304 48.4262 45.2603Z" fill="#FFDECF"/>
<path d="M81.1336 87.9377C82.3107 87.9377 83.2686 86.9801 83.2686 85.8029V14.1973C83.2686 13.0201 82.3109 12.0623 81.1336 12.0623H18.8654C17.6883 12.0623 16.7305 13.0199 16.7305 14.1973V85.8029C16.7305 86.9799 17.6881 87.9377 18.8654 87.9377H81.1336ZM57.7625 85.008C58.5053 77.326 61.2926 65.7606 69.0443 65.2676C70.3529 66.5086 74.9701 71.8092 75.2912 85.008H57.7625ZM21.5424 85.008H19.6604V14.9922H80.3389V85.008H78.2205C77.8635 69.757 71.9885 63.9168 70.6793 62.8023C70.3506 62.2891 69.4762 60.9986 68.1107 59.5176C68.6865 58.923 69.0264 58.1197 69.0264 57.2576V38.0639C69.0264 38.0396 69.0258 38.0154 69.0246 37.9914C69.015 37.7998 68.7641 33.2447 66.3479 28.6406C64.067 24.2947 59.3926 19.1141 50.0762 19.1141C45.3186 19.1141 40.9123 20.9545 37.6695 24.2963C34.5219 27.5398 32.7883 31.8205 32.7883 36.3494V57.7738C32.335 58.4576 31.4463 59.9318 30.6947 61.9854C29.1559 63.5086 22.0238 71.2881 21.5424 85.008ZM54.7777 27.3523C49.0182 21.6008 39.4701 25.074 39.4701 32.975V40.8486C39.4701 43.9635 40.7561 46.7178 42.759 48.4498C42.759 49.152 42.7904 49.6115 42.5703 50.2828C42.2984 51.1119 41.7437 51.8295 40.9764 52.3084L35.7178 55.5906V36.3492C35.7178 28.3273 42.0246 22.0436 50.0762 22.0436C56.3465 22.0436 60.9338 24.6936 63.7104 29.9201C65.7613 33.7807 66.0715 37.7342 66.0967 38.1078V57.2576C66.0967 57.3867 66.0197 57.5029 65.9012 57.5535C65.8109 57.5918 65.2316 57.8381 58.0924 60.875C57.8787 60.965 57.6453 60.8113 57.6453 60.5791C57.6453 56.1998 57.6453 43.4633 57.6453 41.441V41.4398V34.2682C57.6451 31.69 56.6496 29.2217 54.7777 27.3523ZM48.5578 47.5428C44.7344 47.5428 42.4 44.5566 42.4 40.8488V32.9752C42.4 30.0303 44.6742 27.6125 47.5336 27.4355C51.3131 27.2047 54.7156 30.2846 54.7156 34.2682V41.4398C54.7154 44.7211 52.1281 47.5285 48.5578 47.5428ZM54.7154 48.0924V59.8182C44.6926 70.0859 37.9443 65.8592 42.9137 54.5344C44.3572 53.492 45.3637 51.8855 45.6225 50.0445C48.7353 51.0254 52.265 50.3471 54.7154 48.0924ZM32.7061 85.008H24.4746C24.7646 77.5393 27.2303 71.9598 29.4266 68.417C29.2785 72.9705 30.9512 77.3689 32.2414 79.1477V79.1479C32.6432 79.7018 33.149 80.1578 33.7262 80.4934C33.1066 81.7992 32.7357 83.358 32.7061 85.008ZM35.6389 85.008C35.6709 83.6789 35.9957 82.3082 36.7002 81.1461H40.752C43.3518 81.1461 45.4828 82.7719 46.259 85.008H35.6389ZM54.8133 85.008H49.2984C48.6008 81.5555 45.335 78.2164 40.752 78.2164H36.1543C35.5707 78.2164 34.9691 77.9238 34.6049 77.4156C34.3039 76.9981 33.5631 75.3496 33.3227 74.6248C31.398 69.2027 32.5348 63.3975 35.2805 59.3174C36.657 58.4582 37.5834 57.8799 38.9613 57.0199C37.5117 62.518 38.3621 67.6791 43.9418 68.4807C48.2064 69.0926 52.6232 65.9018 55.7283 62.9379C56.6504 63.8131 58.0291 64.0852 59.2389 63.5709L65.4203 60.9416C66.009 61.5385 66.5145 62.118 66.9305 62.6312C58.6418 64.6697 55.5461 76.4883 54.8133 85.008Z" fill="black"/>
<path d="M53.4174 93.9689H86.7252C88.1447 93.9689 89.2994 92.8141 89.2994 91.3945V8.60566C89.2994 7.18613 88.1447 6.03125 86.7252 6.03125H13.2736C11.8541 6.03125 10.6992 7.18613 10.6992 8.60566V91.3947C10.6992 92.8143 11.8541 93.9691 13.2736 93.9691H46.5814C47.3906 93.9691 48.0463 93.3135 48.0463 92.5043C48.0463 91.6951 47.3906 91.0395 46.5814 91.0395H13.6291V8.96094H86.3699V91.0393H53.4174C52.6082 91.0393 51.9525 91.6949 51.9525 92.5041C51.9525 93.3133 52.6084 93.9689 53.4174 93.9689Z" fill="black"/>
<path d="M93.8656 48.047C94.6748 48.047 95.3305 47.3913 95.3305 46.5821V3.333C95.3305 1.49511 93.8354 0 91.9975 0H8.00097C6.16308 0 4.66797 1.49531 4.66797 3.333V96.6668C4.66797 98.5047 6.16308 99.9998 8.00097 99.9998H91.9975C93.8354 99.9998 95.3305 98.5047 95.3305 96.6668V53.4181C95.3305 52.6089 94.6748 51.9532 93.8656 51.9532C93.0565 51.9532 92.4008 52.6089 92.4008 53.4181V96.667C92.4008 96.8895 92.2197 97.0703 91.9975 97.0703H8.00097C7.77851 97.0703 7.59765 96.8893 7.59765 96.667V3.333C7.59765 3.11054 7.77871 2.92968 8.00097 2.92968H91.9975C92.2199 2.92968 92.4008 3.11074 92.4008 3.333V46.5821C92.4008 47.3913 93.0567 48.047 93.8656 48.047Z" fill="black"/>
</g>
<defs>
<clipPath id="clip0_563_7687">
<rect width="100" height="100" fill="white"/>
</clipPath>
</defs>
</svg>
