<svg width="100" height="100" viewBox="0 0 100 100" fill="none" xmlns="http://www.w3.org/2000/svg">
<g clip-path="url(#clip0_562_2951)">
<path d="M89.8113 81.7921C91.2089 83.9061 92.0238 86.4394 92.0238 89.1655H81.3948V94.0863H69.3879C62.3216 94.0863 56.5938 88.3585 56.5938 81.2922C56.5938 73.0626 63.2644 66.3328 71.494 66.3328H81.3948V70.6632H95.7636C95.7636 75.3045 93.3996 79.3888 89.8113 81.7921Z" fill="#FF7D97"/>
<path d="M17.9512 81.2922C22.3055 94.1641 36.2701 101.069 49.1422 96.7149C44.7876 83.8427 30.8231 76.9378 17.9512 81.2922Z" fill="#5CD0B3"/>
<path d="M66.7455 47.3372C65.6863 44.5757 66.1989 41.4712 68.0493 39.1637C76.0646 29.1681 78.5663 15.462 74.05 3.02533C69.5799 2.32854 64.9976 1.96833 60.3327 1.96833C51.3563 1.96833 42.6923 3.30345 34.5278 5.7867C26.521 8.22192 21.4514 16.0386 22.3747 24.3566C23.0428 30.3741 22.7869 36.4748 21.6079 42.4294C20.1946 49.5646 21.1433 56.9537 24.2041 63.5536C27.0149 69.616 29.1623 76.0505 30.548 82.7645C31.5932 87.827 38.4036 88.7955 40.8188 84.225L44.3834 77.4716C46.0191 74.3735 49.2354 72.4347 52.739 72.4347H56.593C60.0716 72.4347 62.8919 69.6146 62.8917 66.1358C62.8917 65.0133 63.5001 63.9791 64.4813 63.4337L67.8523 61.5598C69.9082 60.417 70.8103 57.9355 69.9678 55.7393L66.7455 47.3372ZM43.0292 47.4189C38.2643 47.8358 34.2172 46.0669 33.9899 43.4677C33.7625 40.8687 37.4409 38.4236 42.2059 38.0067C46.9708 37.5899 51.0179 39.3588 51.2453 41.958C51.4726 44.5572 47.7942 47.002 43.0292 47.4189Z" fill="white"/>
<path d="M97.7318 70.6632C97.7318 69.5762 96.8503 68.6948 95.7634 68.6948H83.3629V62.3962C83.3629 61.3092 82.4815 60.4278 81.3946 60.4278C80.3077 60.4278 79.4262 61.3092 79.4262 62.3962V64.3645H71.4939C69.1759 64.3645 66.9655 64.8361 64.9533 65.6888C65.0501 65.4654 65.2184 65.275 65.4391 65.1538L68.8089 63.2799C72.2322 61.2087 72.8609 57.5706 71.8066 55.0344L68.5845 46.6318C67.9526 45.0748 67.9018 42.4079 69.5844 40.3959C74.471 34.5525 78.251 25.3659 78.251 15.715C78.251 11.1425 77.4595 6.64864 75.9008 2.35393C75.6567 1.67859 75.0642 1.19064 74.3537 1.08042C69.7539 0.364142 65.0358 0 60.3334 0C57.5522 0 54.7453 0.128138 51.9916 0.379888C49.3802 0.61845 49.7383 4.5374 52.3497 4.29884C54.9853 4.05792 57.6701 3.93667 60.3334 3.93667C64.4354 3.93667 68.5551 4.22601 72.5784 4.79683C73.7299 8.32605 74.3145 11.999 74.3145 15.7152C74.3145 23.7696 71.5456 31.6612 66.5138 37.9318C63.6351 41.5192 64.016 45.4559 64.9078 48.0409L68.1298 56.4437C68.6321 57.7037 68.1749 59.1896 66.8956 59.8391L63.5259 61.713C61.9197 62.6046 60.9237 64.2995 60.9237 66.136C60.9196 68.5195 58.9768 70.4622 56.5934 70.4663H52.7394C48.574 70.4663 44.7263 72.7713 42.6438 76.5524L39.0792 83.3058C38.7426 83.9376 37.9261 85.1956 35.9712 85.1956C34.0162 85.1956 32.7803 83.8475 32.4754 82.3671C31.0877 75.6287 28.8989 68.9981 25.9897 62.7251C23.9921 58.4162 22.9349 53.6629 22.9349 48.9782C22.9349 46.9093 23.0947 44.8258 23.539 42.8114C25.1825 35.3603 24.6873 27.5886 24.3304 24.1398C24.2712 23.5667 24.234 22.9844 24.234 22.4057C24.234 14.9786 29.3225 9.28935 35.3728 7.58812C36.4178 7.29425 37.0652 6.15458 36.6916 5.13558C36.145 3.64476 34.8333 3.66937 34.241 3.8168C28.1669 5.32749 20.2973 12.007 20.2973 22.4057C20.2973 23.1281 20.3473 23.8574 20.4194 24.5766C20.954 29.9124 20.8778 36.808 19.6773 42.0477C19.1598 44.3068 18.9982 46.6517 18.9982 48.9782C18.9982 54.3325 20.1156 59.2088 22.4192 64.3824C24.5721 69.218 26.4108 74.2062 27.7337 79.324H19.9192V77.3557C19.9192 76.2688 19.0378 75.3874 17.9509 75.3874C16.864 75.3874 15.9825 76.2688 15.9825 77.3557V79.324H4.23591C3.149 79.324 2.26758 80.2055 2.26758 81.2924C2.26758 82.3793 3.149 83.2607 4.23591 83.2607H16.5783C19.0073 89.3667 23.5431 94.2969 29.4796 97.228C36.9673 100.925 44.3836 100.439 49.7723 98.5794C50.8 98.2247 51.3545 97.114 51.0063 96.0842C49.4434 91.4639 46.6913 87.4255 42.9993 84.3108L43.5536 83.2605H47.3424C47.3424 84.3474 48.2238 85.2288 49.3107 85.2288C50.3977 85.2288 51.2791 84.3474 51.2791 83.2605H54.7559C55.7212 90.4735 61.915 96.0547 69.3877 96.0547H79.4262V98.023C79.4262 99.1099 80.3077 99.9913 81.3946 99.9913C82.4815 99.9913 83.3629 99.1099 83.3629 98.023V91.1338H92.0236C93.1105 91.1338 93.9919 90.2524 93.9919 89.1655C93.9919 86.7039 93.4166 84.3714 92.3867 82.3021C95.7628 79.4018 97.7318 75.172 97.7318 70.6632ZM46.5295 95.4234C41.3872 96.6641 36.0237 96.072 31.2245 93.699C26.6507 91.4373 23.0512 87.7871 20.8744 83.2605H28.6423C29.3172 86.3547 32.0624 89.132 35.9753 89.132C38.0531 89.132 39.5793 88.3837 40.6576 87.4879C43.1835 89.6696 45.179 92.367 46.5295 95.4234ZM54.7386 79.3238H45.6315L46.124 78.3908C47.4233 75.9304 49.9583 74.403 52.7396 74.403H56.0861C55.4023 75.9369 54.9396 77.5909 54.7386 79.3238ZM71.4939 68.3012H79.4262V70.6632C79.4262 75.4387 75.5412 79.3238 70.7656 79.3238H58.7101C59.6571 73.0911 65.0293 68.3012 71.4939 68.3012ZM79.4262 92.118H69.3877C64.0902 92.118 59.6693 88.2935 58.7412 83.2605H75.0959C77.4837 83.2605 79.4262 85.203 79.4262 87.5908V92.118ZM83.3535 87.1972C83.2115 84.1827 81.4473 81.5854 78.9165 80.2609C79.701 79.5937 80.4029 78.8321 81.0047 77.994C85.5974 78.9528 89.0977 82.62 89.8874 87.1972H83.3535ZM90.1694 79.0044C88.2495 76.8242 85.7119 75.1921 82.8029 74.3815C82.9785 73.8141 83.1151 73.2297 83.2094 72.6315H93.6248C93.1983 75.073 91.9868 77.3087 90.1694 79.0044ZM42.9099 26.3056C46.6173 27.8679 50.4813 29.1548 54.3953 30.1307C55.8474 30.4928 57.415 30.0539 58.4838 28.9849C59.2526 28.2164 60.4986 28.2164 61.2676 28.9849C62.0362 29.7535 62.0362 30.9999 61.2676 31.7687C59.2272 33.8093 56.2287 34.6454 53.4429 33.9506C49.3328 32.9257 45.2749 31.5742 41.3813 29.9334C39.2189 29.0221 36.7016 29.7903 35.3964 31.76C34.3988 33.2658 33.1828 34.608 31.727 35.6751C30.9738 36.2272 29.7355 36.2939 28.9688 35.2985C28.3055 34.4372 28.4799 33.1979 29.3454 32.5403C30.4299 31.7163 31.3615 30.7225 32.1144 29.5856C34.4642 26.0393 39.0042 24.6593 42.9099 26.3056ZM50.6886 61.6088C50.6886 60.5219 51.57 59.6405 52.6569 59.6405H56.0031C57.09 59.6405 57.9714 60.5219 57.9714 61.6088C57.9714 62.6957 57.09 63.5772 56.0031 63.5772H52.6569C51.57 63.5772 50.6886 62.6957 50.6886 61.6088ZM53.2071 41.7865C52.885 38.1046 47.8831 35.5345 42.0352 36.0461C36.1873 36.5577 31.7075 39.9572 32.0298 43.6391C32.3518 47.3211 37.3537 49.8911 43.2016 49.3796C49.0495 48.868 53.5293 45.4685 53.2071 41.7865ZM42.8613 45.4577C39.1807 45.7797 36.0895 44.8117 35.9568 43.2955C35.8241 41.7793 38.7004 40.2894 42.381 39.9674C46.0616 39.6454 49.1529 40.6134 49.2856 42.1296C49.418 43.6456 46.5419 45.1357 42.8613 45.4577ZM45.3727 3.58433C45.3727 4.67145 44.4915 5.55267 43.4044 5.55267C42.3173 5.55267 41.436 4.67145 41.436 3.58433C41.436 2.49722 42.3173 1.616 43.4044 1.616C44.4915 1.616 45.3727 2.49722 45.3727 3.58433Z" fill="black"/>
</g>
<defs>
<clipPath id="clip0_562_2951">
<rect width="100" height="100" fill="white"/>
</clipPath>
</defs>
</svg>
