<svg width="100" height="100" viewBox="0 0 100 100" fill="none" xmlns="http://www.w3.org/2000/svg">
<path fill-rule="evenodd" clip-rule="evenodd" d="M41.7069 72.3997H58.2904L71.8641 77.4231C76.2493 79.2208 76.5597 85.9767 77.0628 91.238C77.1924 92.5931 76.1406 93.7504 74.7795 93.7504H25.2201C23.8566 93.7504 22.8042 92.5894 22.9371 91.2327C23.4445 86.0542 23.7973 79.0278 28.1333 77.4231L41.7069 72.3997Z" fill="#00ABE0"/>
<path fill-rule="evenodd" clip-rule="evenodd" d="M49.9989 75.9534C53.1326 75.9534 56.1294 74.6691 58.2907 72.3999V64.6306H41.707L41.7071 72.3999C43.8683 74.6691 46.8651 75.9534 49.9989 75.9534Z" fill="#FDC28C"/>
<path fill-rule="evenodd" clip-rule="evenodd" d="M62.649 50.042L57.9261 40.1775L40.6287 40.3985L37.3509 50.042C32.7142 50.2934 35.5429 56.6952 37.458 58.0777C38.0014 58.4702 38.7103 58.551 39.3282 58.2908C39.3555 61.5776 39.8089 62.2774 40.688 63.3262C45.7721 70.5551 54.2278 70.5551 59.3118 63.3262C60.191 62.2774 60.6443 61.5776 60.6717 58.2908C61.2896 58.551 61.9984 58.4702 62.5418 58.0777C64.457 56.6952 67.2856 50.2934 62.649 50.042Z" fill="#FDC28C"/>
<path fill-rule="evenodd" clip-rule="evenodd" d="M60.8479 53.7975C60.4235 47.5362 57.8621 50.7781 56.9058 44.2973C56.5871 43.1608 55.7943 42.2168 54.7301 41.7067C53.3915 44.5789 46.6057 44.5789 45.2671 41.7067C44.2028 42.2168 43.41 43.1608 43.0914 44.2973C42.135 50.7781 39.5737 47.5362 39.1492 53.7975C34.7419 47.0496 35.136 34.6931 40.9229 34.5827C42.4316 31.2267 46.3488 29.8075 49.9986 29.8532C54.294 29.7995 61.7831 34.3627 63.1183 38.2071C64.5783 42.4105 63.7645 49.3321 60.8479 53.7975Z" fill="#3C3D46"/>
<path d="M82.8062 50.6099C88.8508 50.6099 93.751 45.7097 93.751 39.665C93.751 33.6204 88.8508 28.7202 82.8062 28.7202C76.7615 28.7202 71.8613 33.6204 71.8613 39.665C71.8613 45.7097 76.7615 50.6099 82.8062 50.6099Z" fill="#29AF5C"/>
<path d="M66.853 28.1395C72.8977 28.1395 77.7979 23.2393 77.7979 17.1946C77.7979 11.15 72.8977 6.24982 66.853 6.24982C60.8084 6.24982 55.9082 11.15 55.9082 17.1946C55.9082 23.2393 60.8084 28.1395 66.853 28.1395Z" fill="#E04141"/>
<path d="M17.1948 50.6099C23.2395 50.6099 28.1397 45.7097 28.1397 39.665C28.1397 33.6204 23.2395 28.7202 17.1948 28.7202C11.1502 28.7202 6.25 33.6204 6.25 39.665C6.25 45.7097 11.1502 50.6099 17.1948 50.6099Z" fill="#FE5694"/>
<path d="M33.148 28.1395C39.1926 28.1395 44.0928 23.2393 44.0928 17.1946C44.0928 11.15 39.1926 6.24982 33.148 6.24982C27.1033 6.24982 22.2031 11.15 22.2031 17.1946C22.2031 23.2393 27.1033 28.1395 33.148 28.1395Z" fill="#FDBF00"/>
<path fill-rule="evenodd" clip-rule="evenodd" d="M14.4359 34.461C15.5595 34.461 16.5586 34.9936 17.195 35.8199C17.8314 34.9936 18.8305 34.461 19.9542 34.461C21.8766 34.461 23.435 36.0194 23.435 37.9418C23.435 40.091 18.7037 44.6724 17.195 46.4317C15.6938 44.681 10.9551 40.0821 10.9551 37.9418C10.9551 36.0194 12.5135 34.461 14.4359 34.461Z" fill="#FFACD6"/>
<path fill-rule="evenodd" clip-rule="evenodd" d="M87.3435 39.8518L82.1276 45.0677C81.4775 45.7178 80.4171 45.7178 79.767 45.0677L77.0129 42.3136C76.3629 41.6635 76.3629 40.6031 77.0129 39.9531L82.2288 34.7371C82.5539 34.4121 82.9495 34.2482 83.4091 34.2482H86.8309C87.3824 34.2482 87.8323 34.6981 87.8323 35.2497V38.6714C87.8323 39.1311 87.6685 39.5267 87.3435 39.8518Z" fill="#80D09F"/>
<path d="M34.6738 14.6908C34.6738 15.2301 35.1111 15.6674 35.6504 15.6674C36.1898 15.6674 36.627 15.2301 36.627 14.6908C36.627 13.7298 36.2374 12.8596 35.6075 12.2298C34.9777 11.6 34.1075 11.2103 33.1465 11.2103C32.1855 11.2103 31.3152 11.6 30.6855 12.2298C30.0557 12.8596 29.666 13.7298 29.666 14.6908C29.666 15.6518 30.0556 16.522 30.6855 17.1518C31.3153 17.7816 32.1855 18.1713 33.1465 18.1713C33.5683 18.1713 33.9502 18.3423 34.2265 18.6186C34.5028 18.8949 34.6738 19.2768 34.6738 19.6986C34.6738 20.1204 34.5028 20.5023 34.2265 20.7786C33.9502 21.0549 33.5683 21.2259 33.1465 21.2259C32.7248 21.2259 32.3428 21.0549 32.0665 20.7786C31.7902 20.5023 31.6192 20.1204 31.6192 19.6986C31.6192 19.1593 31.182 18.722 30.6426 18.722C30.1033 18.722 29.666 19.1593 29.666 19.6986C29.666 20.6596 30.0557 21.5298 30.6855 22.1596C31.3152 22.7894 32.1855 23.1791 33.1465 23.1791C34.1075 23.1791 34.9777 22.7894 35.6075 22.1596C36.2374 21.5298 36.627 20.6596 36.627 19.6986C36.627 18.7376 36.2374 17.8673 35.6075 17.2376C34.9777 16.6078 34.1075 16.2181 33.1465 16.2181C32.7247 16.2181 32.3427 16.0471 32.0665 15.7708C31.7902 15.4945 31.6192 15.1126 31.6192 14.6908C31.6192 14.269 31.7902 13.8871 32.0665 13.6108C32.3428 13.3345 32.7248 13.1635 33.1465 13.1635C33.5683 13.1635 33.9502 13.3345 34.2265 13.6108C34.5028 13.8871 34.6738 14.269 34.6738 14.6908Z" fill="#FF7213"/>
<path d="M34.1231 10.1047C34.1231 9.56537 33.6859 9.12811 33.1465 9.12811C32.6072 9.12811 32.1699 9.56537 32.1699 10.1047V12.1869C32.1699 12.7262 32.6072 13.1635 33.1465 13.1635C33.6859 13.1635 34.1231 12.7262 34.1231 12.1869V10.1047Z" fill="#FF7213"/>
<path d="M34.1231 22.2025C34.1231 21.6632 33.6859 21.2259 33.1465 21.2259C32.6072 21.2259 32.1699 21.6632 32.1699 22.2025V24.2848C32.1699 24.8241 32.6072 25.2614 33.1465 25.2614C33.6859 25.2614 34.1231 24.8241 34.1231 24.2848V22.2025Z" fill="#FF7213"/>
<path fill-rule="evenodd" clip-rule="evenodd" d="M62.746 14.4867H70.9592C71.7659 14.4867 72.4239 15.1449 72.4239 15.9515V21.4966C72.4239 22.3032 71.7658 22.9614 70.9592 22.9614H63.4785C62.6719 22.9614 61.2812 22.3033 61.2812 21.4966V15.9515C61.2812 15.1447 61.9393 14.4867 62.746 14.4867Z" fill="#EEA2A2"/>
<path d="M63.4609 15.2191C63.4609 15.7585 63.8982 16.1957 64.4375 16.1957C64.9769 16.1957 65.4141 15.7585 65.4141 15.2191V11.7659C65.4141 11.7278 65.4305 11.6923 65.4568 11.6661C65.4829 11.6399 65.5184 11.6235 65.5565 11.6235H68.1505C68.2302 11.6235 68.2929 11.6866 68.2929 11.7659V15.2191C68.2929 15.7585 68.7301 16.1957 69.2695 16.1957C69.8088 16.1957 70.2461 15.7585 70.2461 15.2191V11.7659C70.2461 10.6144 69.303 9.67029 68.1505 9.67029H65.5565C64.9792 9.67029 64.455 9.90582 64.0758 10.2851C63.6965 10.6644 63.4609 11.1886 63.4609 11.7659V15.2191Z" fill="#EEA2A2"/>
<path fill-rule="evenodd" clip-rule="evenodd" d="M49.9985 69.7255C46.1368 69.7255 42.5561 67.6651 39.9112 63.9226C38.9735 62.7984 38.4972 61.9361 38.3792 59.409C37.8483 59.3714 37.3274 59.1891 36.8838 58.8699C35.2361 57.679 33.2929 53.8542 34.0172 51.3904C34.2553 50.5761 34.9999 49.1913 37.2969 49.067C37.8382 49.0367 38.2958 49.4505 38.3243 49.9892C38.353 50.5276 37.9418 50.988 37.4026 51.0173C36.2859 51.0776 36.009 51.5426 35.891 51.9407C35.4354 53.4969 36.9327 56.495 38.0272 57.2862C38.2939 57.478 38.6458 57.5184 38.9469 57.3912C39.2481 57.2645 39.5918 57.2964 39.8644 57.4754C40.135 57.6543 40.2998 57.9574 40.3039 58.2831C40.3285 61.3802 40.7209 61.8488 41.435 62.6996C41.4534 62.7206 41.4696 62.7425 41.4859 62.7652C43.7564 65.994 46.7797 67.7725 49.9983 67.7725C53.2191 67.7725 56.2422 65.9941 58.5127 62.7652C58.5292 62.7425 58.5453 62.7208 58.5636 62.6996C59.2758 61.8488 59.6683 61.3802 59.6948 58.2831C59.6969 57.9573 59.8616 57.6545 60.1342 57.4754C60.4069 57.2963 60.7507 57.2651 61.0498 57.3912C61.3529 57.5185 61.7049 57.4781 61.9693 57.2864C63.0661 56.495 64.5634 53.4969 64.1076 51.9407C63.9896 51.5424 63.7129 51.0777 62.596 51.0173C62.0569 50.9878 61.6438 50.5277 61.6743 49.9892C61.7028 49.4507 62.1626 49.0373 62.7018 49.067C64.9987 49.1911 65.7413 50.5762 65.9814 51.3904C66.7037 53.8544 64.7628 57.6791 63.1128 58.87C62.6713 59.1889 62.1504 59.3714 61.6194 59.4088C61.4994 61.936 61.0233 62.7985 60.0874 63.9226C57.4427 67.6649 53.8598 69.7256 49.9985 69.7255Z" fill="black"/>
<path fill-rule="evenodd" clip-rule="evenodd" d="M49.8323 30.8274C46.8294 30.8274 43.1935 31.9146 41.8141 34.9822C41.6596 35.3263 41.3198 35.5508 40.9413 35.5582C39.8224 35.5794 38.9129 36.2326 38.2436 37.4991C36.5734 40.6556 36.8601 46.3842 38.6789 50.7863C39.0595 49.6536 39.6128 49.0342 40.276 48.3955C41.0105 47.6898 41.7022 47.0232 42.1254 44.1542C42.1315 44.1131 42.1417 44.0728 42.1519 44.0331C42.5468 42.6258 43.5293 41.4568 44.8455 40.8256C45.0816 40.7128 45.3521 40.6988 45.5983 40.7867C45.8427 40.8744 46.0439 41.0572 46.1538 41.2937C46.5893 42.2299 48.172 42.8837 49.999 42.8837C51.8282 42.8836 53.4108 42.23 53.8462 41.2937C53.9561 41.0571 54.1575 40.8746 54.4016 40.7867C54.648 40.6986 54.9184 40.7128 55.1544 40.8256C56.4708 41.4567 57.4534 42.6261 57.8481 44.0331C57.8583 44.0728 57.8664 44.1133 57.8725 44.1542C58.2977 47.0231 58.9894 47.69 59.7239 48.3955C60.3872 49.0336 60.9385 49.653 61.3189 50.7848C62.9324 46.8743 63.3596 41.8729 62.1979 38.5267C61.0627 35.2576 54.0721 30.8282 50.0783 30.8282C50.056 30.8281 50.0336 30.8282 50.0112 30.8286C50.0031 30.8286 49.9949 30.8286 49.9867 30.8286C49.936 30.8276 49.885 30.8275 49.8323 30.8274ZM39.149 54.774C38.8256 54.774 38.5162 54.612 38.3331 54.3316C35.0353 49.2831 34.1868 40.9907 36.5163 36.5858C37.4157 34.8857 38.7135 33.8828 40.2944 33.6545C42.2314 30.0821 46.52 28.8311 50.001 28.8752C50.0234 28.875 50.0457 28.875 50.0681 28.875C54.5768 28.875 62.5173 33.496 64.0432 37.8858C65.671 42.5746 64.6271 49.7985 61.6669 54.3316C61.4371 54.6831 61.0097 54.8484 60.6028 54.7424C60.1961 54.6362 59.903 54.2824 59.8745 53.8634C59.6855 51.069 59.1054 50.5104 58.369 49.8032C57.482 48.9487 56.4748 47.9807 55.952 44.5056C55.7791 43.9314 55.4473 43.4246 55.0018 43.0395C53.8117 44.3468 51.7425 44.8369 49.999 44.8369C48.2576 44.8368 46.1884 44.3468 44.9981 43.0395C44.5527 43.4244 44.221 43.9314 44.0481 44.5056C43.5252 47.9805 42.5181 48.9487 41.629 49.8032C40.8947 50.5103 40.3126 51.0691 40.1235 53.8634C40.095 54.2823 39.802 54.6364 39.3971 54.7424C39.3138 54.7637 39.2323 54.7741 39.149 54.774Z" fill="black"/>
<path fill-rule="evenodd" clip-rule="evenodd" d="M41.4621 73.533L28.4717 78.34C25.0069 79.6226 24.4555 85.5132 24.012 90.2457C23.9776 90.6138 23.9428 90.976 23.9083 91.3301C23.8716 91.7083 23.9896 92.0686 24.2399 92.3473C24.4924 92.6238 24.8401 92.7766 25.2205 92.7766L74.7812 92.7765C75.1616 92.7765 75.5095 92.624 75.7597 92.3473C76.0101 92.0706 76.13 91.7105 76.0934 91.3321C76.0588 90.9738 76.0263 90.6098 75.9916 90.2396C75.5441 85.3431 75.0375 79.7946 71.5097 78.334L58.5376 73.533C56.2429 75.6996 53.1665 76.9312 49.9988 76.9312C46.8331 76.9312 43.7569 75.6997 41.4621 73.533ZM74.7812 94.7295H25.2206C24.2948 94.7295 23.4098 94.3391 22.7933 93.6575C22.177 92.9779 21.8737 92.0605 21.9653 91.1388C22 90.7889 22.0324 90.4288 22.067 90.0646C22.5615 84.786 23.1758 78.2174 27.7941 76.5085L41.3685 71.4847C41.7348 71.3492 42.1456 71.4448 42.4141 71.7272C44.3815 73.793 47.1464 74.9779 49.9988 74.9779C52.8534 74.9777 55.6161 73.793 57.5854 71.7272C57.8542 71.4446 58.265 71.3495 58.6312 71.4848L72.2056 76.5085C72.2157 76.5121 72.2258 76.5166 72.236 76.5209C76.8727 78.4212 77.4626 84.8754 77.9366 90.0605C77.9693 90.4286 78.0038 90.7909 78.0364 91.1469C78.1261 92.0665 77.8227 92.9821 77.2042 93.6616C76.5878 94.339 75.7048 94.7297 74.7812 94.7295Z" fill="black"/>
<path fill-rule="evenodd" clip-rule="evenodd" d="M58.2912 73.3767C57.7519 73.3767 57.3145 72.9395 57.3145 72.4004L57.3145 64.6306C57.3145 64.0914 57.7519 63.654 58.291 63.654C58.8302 63.654 59.2675 64.0915 59.2675 64.6308L59.2676 72.4003C59.2676 72.9393 58.8301 73.3767 58.2912 73.3767Z" fill="black"/>
<path fill-rule="evenodd" clip-rule="evenodd" d="M41.707 73.3767C41.1659 73.3767 40.7305 72.9395 40.7305 72.4004L40.7306 64.6306C40.7306 64.0914 41.1658 63.654 41.707 63.654C42.2463 63.654 42.6836 64.0915 42.6836 64.6308L42.6837 72.4003C42.6837 72.9393 42.2462 73.3767 41.707 73.3767Z" fill="black"/>
<path fill-rule="evenodd" clip-rule="evenodd" d="M82.8071 29.6953C77.3098 29.6953 72.8379 34.1676 72.8379 39.6642C72.8379 45.1609 77.3097 49.6331 82.8069 49.6331C88.3044 49.633 92.776 45.1611 92.776 39.6642C92.7761 34.1675 88.3042 29.6955 82.8071 29.6953ZM82.8071 51.5861C76.2336 51.5861 70.8848 46.2382 70.8848 39.6642C70.8849 33.0903 76.2335 27.7426 82.8069 27.7426C89.3806 27.7425 94.7292 33.0905 94.7292 39.6642C94.7294 46.238 89.3805 51.5862 82.8071 51.5861Z" fill="black"/>
<path fill-rule="evenodd" clip-rule="evenodd" d="M66.8539 7.22388C61.3566 7.22388 56.8847 11.696 56.8847 17.1928C56.885 22.6897 61.3566 27.1618 66.8538 27.1618C72.3512 27.1616 76.8229 22.6897 76.8229 17.1928C76.8231 11.696 72.3511 7.22399 66.8539 7.22388ZM66.8539 29.1147C60.2804 29.1147 54.9316 23.7665 54.9316 17.1928C54.9317 10.6191 60.2803 5.27084 66.8538 5.27084C73.4274 5.27084 78.7761 10.6191 78.7761 17.1928C78.7762 23.7664 73.4273 29.1147 66.8539 29.1147Z" fill="black"/>
<path fill-rule="evenodd" clip-rule="evenodd" d="M17.1938 29.6953C11.6965 29.6953 7.22463 34.1676 7.22463 39.6642C7.22481 45.1609 11.6965 49.6331 17.1937 49.6331C22.689 49.633 27.1628 45.1611 27.1628 39.6642C27.163 34.1675 22.6889 29.6955 17.1938 29.6953ZM17.1938 51.5861C10.6203 51.5861 5.27148 46.2382 5.27148 39.6642C5.27154 33.0903 10.6203 27.7426 17.1937 27.7426C23.7673 27.7425 29.116 33.0905 29.116 39.6642C29.116 46.238 23.7672 51.5862 17.1938 51.5861Z" fill="black"/>
<path fill-rule="evenodd" clip-rule="evenodd" d="M33.147 7.22388C27.6497 7.22388 23.1778 11.696 23.1778 17.1928C23.1778 22.6897 27.6496 27.1618 33.1468 27.1618C38.6443 27.1616 43.1159 22.6897 43.1159 17.1928C43.1159 11.696 38.6441 7.22399 33.147 7.22388ZM33.147 29.1147C26.5735 29.1147 21.2246 23.7665 21.2246 17.1928C21.2247 10.6191 26.5734 5.27084 33.1468 5.27084C39.7205 5.27084 45.0691 10.6191 45.0691 17.1928C45.0692 23.7664 39.7204 29.1147 33.147 29.1147Z" fill="black"/>
<path fill-rule="evenodd" clip-rule="evenodd" d="M14.6408 35.8852C13.4037 35.8852 12.3965 36.8916 12.3965 38.1288C12.3966 39.337 15.4828 42.6724 16.8012 44.0968C16.9376 44.2447 17.0698 44.3869 17.1939 44.522C17.3201 44.3839 17.4543 44.239 17.5947 44.0874C18.911 42.6672 21.9892 39.3417 21.9892 38.1288C21.9892 36.8914 20.9821 35.8853 19.7451 35.8853C19.0433 35.8852 18.3963 36.2047 17.967 36.7616C17.782 37.0015 17.4971 37.1424 17.1939 37.1424C16.8909 37.1422 16.6039 37.0017 16.4187 36.7616C15.9916 36.2047 15.3425 35.8853 14.6408 35.8852ZM17.1939 46.9592C16.9092 46.9592 16.6384 46.8347 16.4513 46.6184C16.191 46.314 15.8084 45.9012 15.3669 45.4231C12.6733 42.5116 10.4434 39.9535 10.4434 38.1288C10.4435 35.8147 12.3274 33.932 14.6405 33.932C15.5805 33.9319 16.4696 34.2386 17.1939 34.7952C17.9163 34.2384 18.8052 33.932 19.7451 33.932C22.0605 33.9319 23.9423 35.8147 23.9423 38.1288C23.9426 39.9582 21.7166 42.5107 19.029 45.4146C18.5835 45.8956 18.1989 46.3112 17.9344 46.6184C17.7494 46.8345 17.4787 46.9594 17.1939 46.9592Z" fill="black"/>
<path fill-rule="evenodd" clip-rule="evenodd" d="M83.4108 35.2235C83.2094 35.2235 83.0627 35.2843 82.9203 35.4267L77.7039 40.6428C77.4333 40.9126 77.4333 41.3525 77.7039 41.6224L80.4587 44.3768C80.7292 44.6464 81.1666 44.6467 81.4372 44.3768L86.6539 39.1603C86.7962 39.0181 86.8571 38.8718 86.8571 38.6705L86.8573 35.2487C86.8573 35.2363 86.8449 35.2237 86.8327 35.2237L83.4108 35.2235ZM80.9489 46.5312C80.241 46.5312 79.5756 46.2567 79.0771 45.7577L76.3225 43.0034C75.291 41.9719 75.2909 40.2935 76.3224 39.2618L81.539 34.0457C82.0455 33.5385 82.6925 33.2706 83.4107 33.2706L86.8328 33.2704C87.9232 33.2704 88.8102 34.158 88.8102 35.2487L88.8104 38.6705C88.8104 39.3873 88.5417 40.0347 88.0351 40.5415L82.8187 45.7576C82.3202 46.2565 81.6549 46.5313 80.9489 46.5312Z" fill="black"/>
<path fill-rule="evenodd" clip-rule="evenodd" d="M33.1472 23.1772C31.2287 23.1772 29.666 21.6161 29.666 19.6969C29.6661 19.1576 30.1035 18.7204 30.6426 18.7204C31.1817 18.7202 31.6191 19.1576 31.6191 19.6969C31.6192 20.5389 32.3048 21.2242 33.147 21.2242C33.9894 21.2242 34.675 20.539 34.675 19.6969C34.675 18.8545 33.9893 18.1694 33.147 18.1694C31.2287 18.1693 29.666 16.6082 29.666 14.6888C29.6661 12.7695 31.2285 11.2081 33.147 11.2081C35.0656 11.208 36.6281 12.7696 36.6281 14.6888C36.6282 15.2281 36.1907 15.6654 35.6515 15.6654C35.1126 15.6653 34.675 15.2281 34.675 14.6888C34.675 13.8464 33.9893 13.1613 33.147 13.1613C32.3049 13.1611 31.6191 13.8465 31.6191 14.6888C31.6192 15.5309 32.3048 16.2163 33.147 16.2163C35.0656 16.2162 36.6281 17.7778 36.6281 19.6969C36.6282 21.616 35.0656 23.1774 33.1472 23.1772Z" fill="black"/>
<path fill-rule="evenodd" clip-rule="evenodd" d="M33.1466 13.1611C32.6074 13.1611 32.1699 12.724 32.1699 12.1848V10.1023C32.1699 9.56309 32.6073 9.12582 33.1465 9.12582C33.6856 9.12571 34.123 9.56326 34.123 10.1024L34.1232 12.1847C34.1232 12.7239 33.6856 13.1613 33.1466 13.1611Z" fill="black"/>
<path fill-rule="evenodd" clip-rule="evenodd" d="M33.1466 25.2598C32.6074 25.2598 32.1699 24.8227 32.1699 24.2834V22.2008C32.1699 21.6613 32.6073 21.2242 33.1465 21.2242C33.6856 21.2242 34.123 21.6615 34.123 22.2008L34.1232 24.2832C34.1232 24.8227 33.6856 25.2599 33.1466 25.2598Z" fill="black"/>
<path fill-rule="evenodd" clip-rule="evenodd" d="M63.4786 16.1936C63.21 16.1936 62.9903 16.4128 62.9903 16.682L62.9903 21.4947C62.9903 21.7641 63.21 21.9831 63.4785 21.9831L70.2271 21.9829C70.4977 21.9829 70.7173 21.7642 70.7173 21.4948L70.7174 16.682C70.7174 16.4128 70.4975 16.1937 70.227 16.1937L63.4786 16.1936ZM70.2271 23.9364H63.4786C62.1338 23.9364 61.0371 22.8411 61.0371 21.4948L61.0373 16.682C61.0373 15.3357 62.1337 14.2406 63.4785 14.2406L70.2271 14.2405C71.5739 14.2405 72.6704 15.3358 72.6704 16.682L72.6705 21.4947C72.6705 22.841 71.5738 23.9364 70.2271 23.9364Z" fill="black"/>
<path fill-rule="evenodd" clip-rule="evenodd" d="M69.2695 16.1936C68.7305 16.1936 68.2929 15.7565 68.2929 15.2172V11.7637C68.2929 11.6878 68.2278 11.6211 68.1505 11.6211L65.5566 11.621C65.4813 11.621 65.4141 11.6879 65.4141 11.7637L65.4143 15.2172C65.4143 15.7564 64.9766 16.1937 64.4375 16.1937C63.8984 16.1936 63.4609 15.7565 63.4609 15.2172V11.7637C63.4609 10.6081 64.4009 9.66827 65.5565 9.66827L68.1505 9.66815C69.3061 9.66815 70.2481 10.6082 70.2481 11.7637L70.2483 15.2172C70.2483 15.7564 69.8106 16.1937 69.2695 16.1936Z" fill="black"/>
</svg>
