<svg width="100" height="100" viewBox="0 0 100 100" fill="none" xmlns="http://www.w3.org/2000/svg">
<g clip-path="url(#clip0_319_2259)">
<path d="M89.0629 42.1875C89.0629 35.9375 81.2504 31.25 81.2504 31.25C80.7034 35.9307 79.1665 40.4414 76.7419 44.4824C74.3173 48.5234 71.0605 52.0021 67.1879 54.6875C64.0629 51.5625 65.6254 43.75 65.6254 43.75C53.1254 48.4375 53.1254 59.375 53.1254 59.375V84.375C53.1254 84.375 48.4379 85.9375 43.7504 81.25C43.7504 81.25 37.5004 89.0625 43.7504 95.3125L46.8754 98.4375V100H100V26.5625H98.4379C92.1879 29.6875 89.0629 42.1875 89.0629 42.1875Z" fill="#FF9901"/>
<path d="M85.9375 84.375C87.5 81.25 81.25 76.5625 81.25 76.5625C79.6875 85.9375 70.3125 89.0625 70.3125 89.0625C68.75 79.6875 60.9375 79.6875 60.9375 79.6875C62.5 90.625 46.875 98.4375 46.875 98.4375V100H100V79.6875H98.4375L85.9375 84.375Z" fill="#F9C87A"/>
<path d="M98.4379 79.6875L79.666 70.3016L79.6879 63.125L98.4379 50H100V79.6875H98.4379Z" fill="#2290D3"/>
<path d="M20.3125 20.3125L20.1094 25L19.3438 42.125V42.1875H26.5625V37.5H28.125C29.7826 37.5 31.3723 36.8415 32.5444 35.6694C33.7165 34.4973 34.375 32.9076 34.375 31.25V20.3125H20.3125Z" fill="#F9C87A"/>
<path d="M40.625 75L26.5625 42.1875H0V100H35.9375V98.4375L32.8125 75H40.625Z" fill="#D8531E"/>
<path d="M14.0625 62.5H30.7406L28.5078 54.6875H14.0625V62.5Z" fill="#F9C87A"/>
<path d="M9.3744 15.625C9.2739 11.9998 10.616 8.48296 13.1061 5.84641C15.5962 3.20986 19.0307 1.66915 22.6557 1.5625C26.2806 1.66915 29.7152 3.20986 32.2052 5.84641C34.6953 8.48296 36.0374 11.9998 35.9369 15.625" fill="#F26522"/>
<path d="M9.375 20.3125C9.58593 21.8669 9.60168 23.4417 9.42188 25C8.46875 34.5312 1.5625 43.75 1.5625 43.75L18.75 45.3125L19.3438 42.1875V42.1406L22.5625 25L23.4375 20.3125H9.375Z" fill="#F26522"/>
<path d="M34.1516 68.75H25C23.3439 68.7549 21.7571 69.415 20.586 70.586C19.415 71.7571 18.7549 73.3439 18.75 75V89.0625C18.75 89.8913 18.4208 90.6862 17.8347 91.2722C17.2487 91.8583 16.4538 92.1875 15.625 92.1875H0V98.4375H15.625C18.1114 98.4375 20.496 97.4498 22.2541 95.6916C24.0123 93.9335 25 91.5489 25 89.0625V78.125C25 77.2962 25.3292 76.5013 25.9153 75.9153C26.5013 75.3292 27.2962 75 28.125 75H35.9375L34.1516 68.75Z" fill="#F9C87A"/>
<path d="M7.03125 45.3125C5.58085 45.3125 4.18985 45.8887 3.16426 46.9143C2.13867 47.9398 1.5625 49.3308 1.5625 50.7812V74.2188C1.5625 75.6692 2.13867 77.0601 3.16426 78.0857C4.18985 79.1113 5.58085 79.6875 7.03125 79.6875C8.48165 79.6875 9.87265 79.1113 10.8982 78.0857C11.9238 77.0601 12.5 75.6692 12.5 74.2188V50.7812C12.5 49.3308 11.9238 47.9398 10.8982 46.9143C9.87265 45.8887 8.48165 45.3125 7.03125 45.3125Z" fill="#146FB4"/>
<path d="M1.5625 62.5H12.5V59.375H1.5625V62.5Z" fill="#055177"/>
<path d="M3.125 15.625H42.1875V20.3125H3.125V15.625Z" fill="#FF9901"/>
<path d="M43.75 65.625L38.3875 45.7375C38.1339 44.7236 37.5486 43.8235 36.7248 43.1803C35.901 42.537 34.8858 42.1876 33.8406 42.1875H26.5625L35.9375 75H56.25V65.625H43.75Z" fill="#F26522"/>
<path d="M60.9375 64.0625H79.6875V68.75H60.9375V64.0625Z" fill="#F9C87A"/>
<path d="M60.9375 68.75V64.0625L56.25 65.625V75H65.625L70.3125 68.75H60.9375Z" fill="#D8531E"/>
<path opacity="0.2" d="M34.375 20.3125V25H9.42188C9.60168 23.4417 9.58593 21.8669 9.375 20.3125H34.375Z" fill="#055177"/>
<path d="M67.645 25.4579L66.0825 27.0204C65.9332 27.1645 65.8142 27.3369 65.7323 27.5276C65.6504 27.7182 65.6073 27.9232 65.6055 28.1307C65.6037 28.3382 65.6433 28.5439 65.7218 28.736C65.8004 28.928 65.9164 29.1024 66.0631 29.2491C66.2098 29.3958 66.3843 29.5119 66.5763 29.5904C66.7683 29.669 66.9741 29.7085 67.1815 29.7067C67.389 29.7049 67.594 29.6618 67.7847 29.5799C67.9753 29.498 68.1477 29.379 68.2919 29.2298L69.8544 27.6673C70.139 27.3726 70.2965 26.9779 70.2929 26.5682C70.2893 26.1585 70.125 25.7666 69.8353 25.4769C69.5456 25.1872 69.1537 25.0229 68.744 25.0193C68.3344 25.0158 67.9397 25.1733 67.645 25.4579Z" fill="black"/>
<path d="M86.395 19.2079L84.8325 20.7704C84.6832 20.9145 84.5642 21.0869 84.4823 21.2776C84.4004 21.4682 84.3573 21.6732 84.3555 21.8807C84.3537 22.0882 84.3933 22.2939 84.4718 22.486C84.5504 22.678 84.6664 22.8524 84.8131 22.9991C84.9598 23.1458 85.1343 23.2619 85.3263 23.3404C85.5183 23.419 85.7241 23.4585 85.9315 23.4567C86.139 23.4549 86.344 23.4118 86.5347 23.3299C86.7253 23.248 86.8977 23.129 87.0419 22.9798L88.6044 21.4173C88.889 21.1226 89.0465 20.7279 89.0429 20.3182C89.0393 19.9085 88.875 19.5166 88.5853 19.2269C88.2956 18.9372 87.9037 18.7729 87.494 18.7693C87.0844 18.7658 86.6897 18.9233 86.395 19.2079Z" fill="black"/>
<path d="M69.2075 40.1673C69.5005 40.4602 69.8978 40.6248 70.3122 40.6248C70.7265 40.6248 71.1238 40.4602 71.4169 40.1673L72.9794 38.6048C73.264 38.3101 73.4215 37.9154 73.4179 37.5057C73.4143 37.096 73.25 36.7041 72.9603 36.4144C72.6706 36.1247 72.2787 35.9604 71.869 35.9568C71.4594 35.9533 71.0647 36.1108 70.77 36.3954L69.2075 37.9579C68.9146 38.2509 68.75 38.6483 68.75 39.0626C68.75 39.4769 68.9146 39.8743 69.2075 40.1673Z" fill="black"/>
<path d="M35.9381 76.5625H43.7506C44.165 76.5625 44.5624 76.3979 44.8554 76.1049C45.1485 75.8118 45.3131 75.4144 45.3131 75C45.3131 74.5856 45.1485 74.1882 44.8554 73.8951C44.5624 73.6021 44.165 73.4375 43.7506 73.4375H37.1162L33.5443 60.9375H40.8678L42.2412 66.0328C42.3309 66.3644 42.5273 66.6573 42.8002 66.866C43.073 67.0747 43.407 67.1877 43.7506 67.1875H54.6881V73.4375H50.0006C49.5862 73.4375 49.1887 73.6021 48.8957 73.8951C48.6027 74.1882 48.4381 74.5856 48.4381 75C48.4381 75.4144 48.6027 75.8118 48.8957 76.1049C49.1887 76.3979 49.5862 76.5625 50.0006 76.5625H65.6256C65.8681 76.5625 66.1074 76.506 66.3243 76.3975C66.5413 76.2891 66.73 76.1316 66.8756 75.9375L71.0943 70.3125H79.6881C80.1025 70.3125 80.4999 70.1479 80.7929 69.8549C81.086 69.5618 81.2506 69.1644 81.2506 68.75V64.0625C81.2506 63.6481 81.086 63.2507 80.7929 62.9576C80.4999 62.6646 80.1025 62.5 79.6881 62.5H60.9381C60.9256 62.5 60.9146 62.5 60.9021 62.5C60.7461 62.5006 60.5912 62.5254 60.4428 62.5734L55.999 64.0625H44.9475L39.9037 45.3594C39.5675 44.0063 38.7877 42.8049 37.6889 41.9468C36.59 41.0886 35.2354 40.6233 33.8412 40.625H28.1256V39.0625C30.1968 39.06 32.1825 38.2361 33.6471 36.7715C35.1117 35.3069 35.9356 33.3212 35.9381 31.25V21.875H42.1881C42.6025 21.875 42.9999 21.7104 43.2929 21.4174C43.586 21.1243 43.7506 20.7269 43.7506 20.3125V15.625C43.7506 15.2106 43.586 14.8132 43.2929 14.5201C42.9999 14.2271 42.6025 14.0625 42.1881 14.0625H37.4256C37.15 10.303 35.4851 6.78054 32.7551 4.18109C30.0251 1.58163 26.4254 0.0912054 22.6568 0C18.8883 0.0912054 15.2886 1.58163 12.5586 4.18109C9.82858 6.78054 8.16369 10.303 7.88807 14.0625H3.12557C2.71117 14.0625 2.31375 14.2271 2.02072 14.5201C1.72769 14.8132 1.56307 15.2106 1.56307 15.625V20.3125C1.56307 20.7269 1.72769 21.1243 2.02072 21.4174C2.31375 21.7104 2.71117 21.875 3.12557 21.875H7.93339C8.04058 24.3716 7.73222 26.8686 7.02089 29.2641C6.90838 29.6629 6.95892 30.0901 7.1614 30.4517C7.36388 30.8133 7.70171 31.0797 8.10057 31.1922C8.49944 31.3047 8.92665 31.2542 9.28825 31.0517C9.64984 30.8492 9.91619 30.5114 10.0287 30.1125C10.816 27.4405 11.1658 24.6587 11.0646 21.875H21.5553L17.4771 43.6281L4.34432 42.4328C5.53487 40.5582 6.60929 38.6124 7.56151 36.6063C7.73867 36.2314 7.75967 35.8016 7.6199 35.4113C7.48012 35.021 7.19102 34.7022 6.8162 34.525C6.44137 34.3478 6.01152 34.3268 5.62121 34.4666C5.2309 34.6064 4.91211 34.8955 4.73495 35.2703C3.48956 37.9116 2.00967 40.4358 0.313074 42.8125C0.144471 43.0351 0.0385978 43.2988 0.00647066 43.5762C-0.0256565 43.8535 0.0171361 44.1345 0.130396 44.3897C0.243656 44.6449 0.423244 44.8652 0.650475 45.0274C0.877706 45.1897 1.14428 45.2882 1.42245 45.3125L2.55057 45.4156C1.75741 46.0677 1.11769 46.8866 0.676954 47.8139C0.236214 48.7413 0.00527652 49.7545 0.000573589 50.7812V74.2188C0.000573589 76.0836 0.741364 77.872 2.05998 79.1906C3.37859 80.5092 5.16702 81.25 7.03182 81.25C8.89663 81.25 10.6851 80.5092 12.0037 79.1906C13.3223 77.872 14.0631 76.0836 14.0631 74.2188V65.625H31.635L32.0818 67.1875H25.0006C22.9293 67.19 20.9436 68.0139 19.479 69.4785C18.0145 70.9431 17.1906 72.9288 17.1881 75V89.0625C17.1881 89.4769 17.0235 89.8743 16.7304 90.1674C16.4374 90.4604 16.04 90.625 15.6256 90.625H1.56307C1.14867 90.625 0.751245 90.7896 0.458219 91.0826C0.165194 91.3757 0.000573589 91.7731 0.000573589 92.1875C0.000573589 92.6019 0.165194 92.9993 0.458219 93.2924C0.751245 93.5854 1.14867 93.75 1.56307 93.75H15.6256C16.8688 93.75 18.0611 93.2561 18.9401 92.3771C19.8192 91.498 20.3131 90.3057 20.3131 89.0625V75C20.3131 73.7568 20.8069 72.5645 21.686 71.6854C22.5651 70.8064 23.7574 70.3125 25.0006 70.3125H32.9693L33.8615 73.4375H28.1256C26.8824 73.4375 25.6901 73.9314 24.811 74.8104C23.9319 75.6895 23.4381 76.8818 23.4381 78.125V89.0625C23.4356 91.1337 22.6117 93.1194 21.1471 94.584C19.6825 96.0486 17.6968 96.8725 15.6256 96.875H1.56307C1.14867 96.875 0.751245 97.0396 0.458219 97.3326C0.165194 97.6257 0.000573589 98.0231 0.000573589 98.4375C0.000573589 98.8519 0.165194 99.2493 0.458219 99.5424C0.751245 99.8354 1.14867 100 1.56307 100H15.6256C18.5254 99.9967 21.3054 98.8433 23.3559 96.7928C25.4064 94.7424 26.5598 91.9623 26.5631 89.0625V78.125C26.5631 77.7106 26.7277 77.3132 27.0207 77.0201C27.3137 76.7271 27.7112 76.5625 28.1256 76.5625H31.4459L34.3896 98.6438C34.4396 99.019 34.6242 99.3634 34.909 99.6129C35.1938 99.8623 35.5595 99.9999 35.9381 100C36.0081 99.9999 36.078 99.9952 36.1475 99.9859C36.5581 99.9311 36.9301 99.7155 37.1818 99.3865C37.4335 99.0574 37.5442 98.6419 37.4896 98.2312L34.5975 76.5625H35.9381ZM78.1256 67.1875H62.5006V65.625H78.1256V67.1875ZM60.9381 70.3125H67.1881L64.8443 73.4375H57.8131V66.7516L59.3756 66.2312V68.75C59.3756 69.1644 59.5402 69.5618 59.8332 69.8549C60.1263 70.1479 60.5237 70.3125 60.9381 70.3125ZM32.6568 57.8125L32.2099 56.25H39.6084L40.0303 57.8125H32.6568ZM33.8459 43.75C34.5463 43.752 35.2257 43.9892 35.7751 44.4236C36.3245 44.858 36.712 45.4643 36.8756 46.1453L38.7615 53.125H31.3131L28.635 43.75H33.8459ZM22.6568 3.125C25.5958 3.21177 28.4011 4.37275 30.5419 6.38827C32.6826 8.40379 34.0104 11.1341 34.274 14.0625H11.0396C11.3032 11.1341 12.631 8.40379 14.7718 6.38827C16.9126 4.37275 19.7178 3.21177 22.6568 3.125ZM4.68807 17.1875H40.6256V18.75H4.68807V17.1875ZM32.8131 21.875V31.25C32.8131 32.4932 32.3192 33.6855 31.4401 34.5646C30.5611 35.4436 29.3688 35.9375 28.1256 35.9375H26.5631C26.1487 35.9375 25.7512 36.1021 25.4582 36.3951C25.1652 36.6882 25.0006 37.0856 25.0006 37.5V40.625H21.2193L23.5631 28.125H29.6881C30.1025 28.125 30.4999 27.9604 30.7929 27.6674C31.086 27.3743 31.2506 26.9769 31.2506 26.5625C31.2506 26.1481 31.086 25.7507 30.7929 25.4576C30.4999 25.1646 30.1025 25 29.6881 25H24.149L24.7349 21.875H32.8131ZM3.12557 59.375H10.9381V62.5H3.12557V59.375ZM3.12557 56.25V50.7812C3.12557 49.7452 3.53712 48.7517 4.26969 48.0191C5.00225 47.2865 5.99582 46.875 7.03182 46.875C8.06783 46.875 9.0614 47.2865 9.79396 48.0191C10.5265 48.7517 10.9381 49.7452 10.9381 50.7812V56.25H3.12557ZM7.03182 78.125C5.99582 78.125 5.00225 77.7135 4.26969 76.9809C3.53712 76.2483 3.12557 75.2548 3.12557 74.2188V65.625H10.9381V74.2188C10.9381 74.7317 10.837 75.2397 10.6407 75.7136C10.4444 76.1875 10.1567 76.6182 9.79396 76.9809C9.43123 77.3436 9.00061 77.6313 8.52668 77.8277C8.05275 78.024 7.5448 78.125 7.03182 78.125ZM14.0631 62.5V54.6875H28.51L30.7428 62.5H14.0631ZM14.0631 51.5625V50.7812C14.056 49.1407 13.47 47.5554 12.4084 46.3047L18.6099 46.875H18.7521C19.1162 46.8747 19.4687 46.7473 19.7489 46.5149C20.029 46.2824 20.2192 45.9593 20.2865 45.6016L20.6334 43.75H25.385L27.6178 51.5625H14.0631Z" fill="black"/>
<path d="M99.7173 49.1047C99.5996 48.9365 99.45 48.7931 99.2769 48.6828C99.1039 48.5724 98.9108 48.4972 98.7086 48.4616C98.5065 48.4259 98.2993 48.4303 98.0989 48.4747C97.8985 48.5191 97.7088 48.6026 97.5407 48.7203L81.9157 59.6578C81.7454 59.7745 81.5999 59.9237 81.4876 60.097C81.3754 60.2702 81.2985 60.464 81.2616 60.6671C81.2246 60.8702 81.2283 61.0786 81.2723 61.2803C81.3164 61.482 81.4 61.673 81.5183 61.8421C81.6366 62.0113 81.7873 62.1554 81.9616 62.266C82.1359 62.3767 82.3303 62.4516 82.5338 62.4867C82.7373 62.5217 82.9456 62.516 83.1469 62.47C83.3481 62.4241 83.5383 62.3386 83.7063 62.2187L99.3313 51.2812C99.4997 51.1637 99.6432 51.0142 99.7537 50.8412C99.8642 50.6682 99.9395 50.4751 99.9753 50.2729C100.011 50.0708 100.007 49.8636 99.9625 49.6631C99.9183 49.4627 99.8349 49.2729 99.7173 49.1047Z" fill="black"/>
<path d="M99.137 78.2892L83.512 70.4767C83.1413 70.2912 82.7122 70.2606 82.3189 70.3916C81.9257 70.5226 81.6006 70.8044 81.4151 71.1751C81.2297 71.5458 81.1991 71.975 81.3301 72.3682C81.4611 72.7614 81.7429 73.0865 82.1136 73.272L97.7386 81.0845C98.1093 81.2699 98.5384 81.3005 98.9317 81.1695C99.3249 81.0386 99.65 80.7567 99.8355 80.386C100.021 80.0154 100.051 79.5862 99.9205 79.193C99.7895 78.7997 99.5077 78.4746 99.137 78.2892Z" fill="black"/>
<path d="M93.75 65.625C93.75 65.2106 93.5854 64.8132 93.2924 64.5201C92.9993 64.2271 92.6019 64.0625 92.1875 64.0625H89.0625C88.6481 64.0625 88.2507 64.2271 87.9576 64.5201C87.6646 64.8132 87.5 65.2106 87.5 65.625C87.5 66.0394 87.6646 66.4368 87.9576 66.7299C88.2507 67.0229 88.6481 67.1875 89.0625 67.1875H92.1875C92.6019 67.1875 92.9993 67.0229 93.2924 66.7299C93.5854 66.4368 93.75 66.0394 93.75 65.625Z" fill="black"/>
<path d="M96.7124 58.6767C96.6206 58.4931 96.4936 58.3294 96.3385 58.195C96.1834 58.0605 96.0034 57.9579 95.8087 57.8931C95.6139 57.8282 95.4083 57.8023 95.2036 57.817C94.9989 57.8316 94.7991 57.8864 94.6155 57.9782L91.4905 59.5407C91.1199 59.7262 90.838 60.0513 90.707 60.4445C90.5761 60.8378 90.6067 61.2669 90.7921 61.6376C90.9775 62.0083 91.3026 62.2901 91.6959 62.4211C92.0891 62.5521 92.5183 62.5215 92.889 62.336L96.014 60.7735C96.1975 60.6818 96.3612 60.5547 96.4957 60.3996C96.6301 60.2446 96.7327 60.0645 96.7976 59.8698C96.8624 59.6751 96.8883 59.4695 96.8737 59.2648C96.8591 59.06 96.8043 58.8602 96.7124 58.6767Z" fill="black"/>
<path d="M90.1326 71.7938L94.8201 73.3563C95.015 73.4213 95.2208 73.4472 95.4257 73.4326C95.6307 73.418 95.8308 73.3632 96.0145 73.2713C96.1983 73.1793 96.3621 73.0521 96.4967 72.8969C96.6313 72.7417 96.734 72.5614 96.799 72.3665C96.8639 72.1716 96.8898 71.9657 96.8752 71.7608C96.8606 71.5559 96.8058 71.3558 96.7139 71.172C96.622 70.9883 96.4948 70.8244 96.3395 70.6898C96.1843 70.5552 96.0041 70.4525 95.8091 70.3876L91.1216 68.8251C90.9267 68.7601 90.7209 68.7342 90.5159 68.7488C90.311 68.7634 90.1109 68.8182 89.9272 68.9102C89.7434 69.0021 89.5796 69.1293 89.445 69.2845C89.3104 69.4398 89.2077 69.62 89.1427 69.8149C89.0778 70.0099 89.0519 70.2157 89.0665 70.4206C89.0811 70.6256 89.1359 70.8256 89.2278 71.0094C89.3197 71.1931 89.4469 71.357 89.6022 71.4916C89.7574 71.6262 89.9376 71.7289 90.1326 71.7938Z" fill="black"/>
<path d="M82.7915 76.8188C82.8252 76.6164 82.8186 76.4093 82.7722 76.2094C82.7259 76.0095 82.6406 75.8207 82.5212 75.6538C82.4019 75.4869 82.2509 75.3451 82.0767 75.2365C81.9026 75.128 81.7088 75.0548 81.5064 75.0212C81.3039 74.9875 81.0969 74.9941 80.897 75.0404C80.6971 75.0868 80.5083 75.1721 80.3414 75.2914C80.1744 75.4108 80.0326 75.5618 79.9241 75.7359C79.8155 75.9101 79.7423 76.1039 79.7087 76.3063C79.2587 78.597 78.2741 80.7491 76.835 82.5872C75.396 84.4254 73.5432 85.8978 71.4274 86.8844C70.8675 84.4834 69.5411 82.3299 67.6487 80.7496C65.7563 79.1692 63.4008 78.248 60.9384 78.1251C60.7144 78.125 60.4931 78.1731 60.2893 78.2661C60.0856 78.3591 59.9042 78.4948 59.7575 78.6641C59.6108 78.8333 59.5022 79.0321 59.4391 79.2469C59.3759 79.4618 59.3597 79.6877 59.3915 79.9094C60.7743 89.5969 46.3212 96.9672 46.1759 97.0407C45.9923 97.133 45.8288 97.2606 45.6945 97.4162C45.5603 97.5717 45.458 97.7522 45.3935 97.9472C45.329 98.1423 45.3036 98.3482 45.3187 98.5531C45.3337 98.758 45.389 98.9579 45.4814 99.1415C45.5737 99.325 45.7013 99.4886 45.8568 99.6228C46.0124 99.757 46.1928 99.8593 46.3879 99.9238C46.583 99.9883 46.7888 100.014 46.9938 99.9987C47.1987 99.9836 47.3986 99.9283 47.5821 99.836C48.2212 99.5157 62.3665 92.3141 62.6165 81.536C64.6478 82.1204 67.8759 83.9016 68.779 89.3188C68.8163 89.541 68.9012 89.7525 69.0279 89.9389C69.1546 90.1252 69.3201 90.2819 69.513 90.3982C69.706 90.5146 69.9218 90.5879 70.1457 90.613C70.3696 90.6381 70.5963 90.6145 70.8103 90.5438C71.2259 90.4048 81.0946 87.0063 82.7915 76.8188Z" fill="black"/>
<path d="M97.7402 25.1642C93.5667 27.2517 90.7339 32.8204 89.1324 36.9517C87.3382 34.0979 84.9183 31.6898 82.0558 29.9095C81.8298 29.772 81.5726 29.6942 81.3083 29.6833C81.044 29.6724 80.7813 29.7287 80.5447 29.8471C80.3081 29.9654 80.1055 30.1419 79.9558 30.36C79.806 30.5781 79.7141 30.8306 79.6886 31.0939C79.3281 34.7143 78.3004 38.2367 76.6574 41.4829C76.4709 41.853 76.4391 42.282 76.5689 42.6755C76.6987 43.069 76.9795 43.3949 77.3496 43.5814C77.5669 43.6917 77.8073 43.749 78.0511 43.7485C78.3407 43.7488 78.6247 43.6686 78.8714 43.5169C79.118 43.3651 79.3177 43.1478 79.448 42.8892C80.8617 40.0933 81.8658 37.1086 82.4292 34.0267C84.523 35.7204 87.5011 38.7407 87.5011 42.1876C87.5015 42.5687 87.6412 42.9365 87.8939 43.2218C88.1466 43.5071 88.4948 43.6903 88.8731 43.7367C89.2514 43.7832 89.6336 43.6898 89.9478 43.4741C90.262 43.2585 90.4866 42.9354 90.5792 42.5657C91.3996 39.2845 94.5371 30.2595 99.1371 27.9595C99.3206 27.8677 99.4843 27.7406 99.6187 27.5855C99.7531 27.4304 99.8557 27.2504 99.9206 27.0557C99.9854 26.861 100.011 26.6554 99.9967 26.4507C99.9821 26.246 99.9273 26.0462 99.8355 25.8626C99.7437 25.6791 99.6166 25.5154 99.4615 25.381C99.3065 25.2465 99.1264 25.144 98.9317 25.0791C98.737 25.0143 98.5314 24.9884 98.3267 25.003C98.122 25.0176 97.9222 25.0723 97.7386 25.1642H97.7402Z" fill="black"/>
<path d="M66.0828 55.7921C66.3326 56.042 66.6597 56.1998 67.0107 56.2398C67.3618 56.2798 67.716 56.1997 68.0156 56.0125C70.7107 54.1842 73.1202 51.967 75.1656 49.4328C75.4294 49.1131 75.5553 48.7017 75.5158 48.2891C75.4762 47.8765 75.2744 47.4965 74.9547 47.2328C74.635 46.969 74.2236 46.843 73.811 46.8826C73.3984 46.9222 73.0185 47.124 72.7547 47.4437C71.2145 49.3149 69.4728 51.0106 67.5609 52.5C66.3906 49.9843 66.8484 45.6125 67.1578 44.0625C67.2123 43.7893 67.1929 43.5065 67.1013 43.2434C67.0098 42.9802 66.8497 42.7464 66.6374 42.566C66.4251 42.3856 66.1685 42.2652 65.894 42.2173C65.6196 42.1695 65.3374 42.1958 65.0766 42.2937C51.7187 47.2984 51.5625 58.8843 51.5625 59.375C51.5625 59.7894 51.7271 60.1868 52.0201 60.4798C52.3132 60.7728 52.7106 60.9375 53.125 60.9375C53.5394 60.9375 53.9368 60.7728 54.2299 60.4798C54.5229 60.1868 54.6875 59.7894 54.6875 59.375C54.8926 56.5871 55.8382 53.9045 57.4267 51.6044C59.0152 49.3042 61.1889 47.4697 63.7234 46.2906C63.5172 49.1531 63.6922 53.4015 66.0828 55.7921Z" fill="black"/>
<path d="M44.0631 83.6125C45.3615 84.7222 46.9066 85.5051 48.5693 85.8957C50.2321 86.2863 51.9642 86.2733 53.6209 85.8578C53.9319 85.7539 54.2022 85.5547 54.3938 85.2886C54.5853 85.0225 54.6883 84.7029 54.6881 84.375V79.6875C54.6881 79.2731 54.5235 78.8757 54.2304 78.5826C53.9374 78.2896 53.54 78.125 53.1256 78.125C52.7112 78.125 52.3137 78.2896 52.0207 78.5826C51.7277 78.8757 51.5631 79.2731 51.5631 79.6875V83.0609C50.3005 83.0901 49.0467 82.8444 47.8885 82.3409C46.7302 81.8375 45.6953 81.0883 44.8553 80.1453C44.6999 79.9899 44.5135 79.869 44.3083 79.7905C44.103 79.712 43.8835 79.6776 43.6641 79.6897C43.4447 79.7018 43.2303 79.7601 43.0349 79.8606C42.8395 79.9612 42.6676 80.1019 42.5303 80.2734C40.0662 83.3547 36.9193 90.6922 42.6459 96.4172C42.9406 96.7018 43.3353 96.8593 43.7449 96.8557C44.1546 96.8522 44.5465 96.6879 44.8362 96.3982C45.1259 96.1085 45.2903 95.7166 45.2938 95.3069C45.2974 94.8972 45.1399 94.5025 44.8553 94.2078C41.0506 90.4016 42.7928 85.8547 44.0631 83.6125Z" fill="black"/>
<path d="M94.1108 82.8625C93.71 82.7683 93.2882 82.8361 92.9371 83.0511C92.586 83.2662 92.334 83.6111 92.2358 84.0109C92.1499 84.3563 89.9639 92.4688 74.7171 95.3391C74.3345 95.4105 73.9925 95.6221 73.7577 95.9324C73.523 96.2428 73.4125 96.6295 73.4479 97.017C73.4832 97.4046 73.6619 97.7649 73.949 98.0276C74.236 98.2903 74.6107 98.4365 74.9999 98.4375C75.0974 98.4371 75.1947 98.4277 75.2905 98.4094C92.6967 95.1281 95.178 85.1469 95.2749 84.7235C95.3644 84.3225 95.2925 83.9024 95.0746 83.5542C94.8568 83.2059 94.5105 82.9574 94.1108 82.8625Z" fill="black"/>
<path d="M84.6373 47.5703C82.6184 50.4353 80.1215 52.9316 77.2561 54.95C77.0853 55.0639 76.9387 55.2103 76.8246 55.3808C76.7104 55.5513 76.631 55.7427 76.5908 55.9439C76.5506 56.1452 76.5505 56.3524 76.5903 56.5537C76.6302 56.755 76.7094 56.9465 76.8232 57.1172C77.0532 57.462 77.4108 57.7012 77.8172 57.7824C78.0184 57.8226 78.2256 57.8228 78.4269 57.7829C78.6282 57.743 78.8197 57.6639 78.9904 57.55C82.2031 55.3087 84.9944 52.5173 87.2357 49.3047C87.3538 49.1341 87.4367 48.9416 87.4796 48.7386C87.5225 48.5356 87.5246 48.3261 87.4856 48.1223C87.4467 47.9185 87.3676 47.7245 87.2528 47.5516C87.1381 47.3787 86.9901 47.2304 86.8174 47.1153C86.6448 47.0003 86.4509 46.9207 86.2472 46.8814C86.0435 46.842 85.834 46.8437 85.6309 46.8862C85.4278 46.9286 85.2352 47.0112 85.0643 47.1289C84.8935 47.2466 84.7478 47.3972 84.6357 47.5719L84.6373 47.5703Z" fill="black"/>
<path d="M20.3125 7.8125H18.75C18.3356 7.8125 17.9382 7.97712 17.6451 8.27015C17.3521 8.56317 17.1875 8.9606 17.1875 9.375C17.1875 9.7894 17.3521 10.1868 17.6451 10.4799C17.9382 10.7729 18.3356 10.9375 18.75 10.9375H20.3125C20.7269 10.9375 21.1243 10.7729 21.4174 10.4799C21.7104 10.1868 21.875 9.7894 21.875 9.375C21.875 8.9606 21.7104 8.56317 21.4174 8.27015C21.1243 7.97712 20.7269 7.8125 20.3125 7.8125Z" fill="black"/>
<path d="M26.5625 7.8125H25C24.5856 7.8125 24.1882 7.97712 23.8951 8.27015C23.6021 8.56317 23.4375 8.9606 23.4375 9.375C23.4375 9.7894 23.6021 10.1868 23.8951 10.4799C24.1882 10.7729 24.5856 10.9375 25 10.9375H26.5625C26.9769 10.9375 27.3743 10.7729 27.6674 10.4799C27.9604 10.1868 28.125 9.7894 28.125 9.375C28.125 8.9606 27.9604 8.56317 27.6674 8.27015C27.3743 7.97712 26.9769 7.8125 26.5625 7.8125Z" fill="black"/>
</g>
<defs>
<clipPath id="clip0_319_2259">
<rect width="100" height="100" fill="white"/>
</clipPath>
</defs>
</svg>
