<svg width="100" height="100" viewBox="0 0 100 100" fill="none" xmlns="http://www.w3.org/2000/svg">
<path d="M50 95.3125C75.0254 95.3125 95.3125 75.0254 95.3125 50C95.3125 24.9746 75.0254 4.6875 50 4.6875C24.9746 4.6875 4.6875 24.9746 4.6875 50C4.6875 75.0254 24.9746 95.3125 50 95.3125Z" fill="#428DC5"/>
<path d="M88.8704 53.8711C86.9133 73.5059 70.7356 88.293 51.5618 89.0352C51.2415 89.0488 50.9211 89.0586 50.6008 89.0625H49.5579C48.4231 89.0488 47.2799 88.985 46.1282 88.8711C45.8547 88.8438 45.5833 88.8145 45.3118 88.7812C43.1973 88.5273 41.1071 88.1014 39.0618 87.5078C36.9124 86.8841 34.8213 86.075 32.8118 85.0898C32.2844 84.8294 31.7636 84.5586 31.2493 84.2773C24.5214 80.5954 19.026 75.0148 15.4479 68.2311C11.8699 61.4473 10.3676 53.7606 11.1282 46.1289C13.2669 24.6621 32.4036 8.99218 53.8704 11.1289C75.3372 13.2656 91.0071 32.4043 88.8704 53.8711Z" fill="#FBB540"/>
<path d="M51.5625 67.1875V89.0625H49.5586C48.4238 89.0488 47.2806 88.985 46.1289 88.8711C45.8555 88.8437 45.584 88.8145 45.3125 88.7812V67.1875H51.5625Z" fill="#DA922A"/>
<path d="M60.9375 31.25V35.1562C60.9377 35.6693 60.8367 36.1773 60.6405 36.6513C60.4442 37.1253 60.1565 37.556 59.7937 37.9187C59.431 38.2815 59.0003 38.5692 58.5263 38.7655C58.0523 38.9617 57.5443 39.0627 57.0312 39.0625H53.125V48.4375L53.2988 50L54.5859 61.582C54.6526 62.1812 54.5448 62.7869 54.2754 63.3262L51.5625 68.75L45.3125 73.4375V88.7812C43.198 88.5273 41.1078 88.1014 39.0625 87.5078C36.9132 86.8841 34.822 86.075 32.8125 85.0898C32.2852 84.8294 31.7643 84.5586 31.25 84.2773V50L37.5 43.75V32.8125L43.75 26.5625H51.5625L56.25 31.25H60.9375Z" fill="#EA9D2D"/>
<path d="M76.5625 95.3125C86.9178 95.3125 95.3125 86.9178 95.3125 76.5625C95.3125 66.2072 86.9178 57.8125 76.5625 57.8125C66.2072 57.8125 57.8125 66.2072 57.8125 76.5625C57.8125 86.9178 66.2072 95.3125 76.5625 95.3125Z" fill="#E4E4E2"/>
<path d="M46.875 31.25H50V34.375H46.875V31.25Z" fill="#744630"/>
<path d="M53.2988 50H46.875C46.5666 49.9995 46.265 49.9085 46.0078 49.7383L38.5762 44.7832L40.3105 42.1836L47.3477 46.875H53.125V48.4375L53.2988 50Z" fill="#DC4D41"/>
<path d="M89.0625 73.4375H81.25V65.625H73.4375V73.4375H65.625V81.25H73.4375V89.0625H81.25V81.25H89.0625V73.4375Z" fill="#85BC94"/>
<path d="M39.0625 76.5625V87.5078C36.9132 86.8841 34.822 86.075 32.8125 85.0898V81.25L39.0625 76.5625Z" fill="#DA922A"/>
<path d="M35.7668 52.0873L34.3752 50H28.1252L26.5627 43.75L24.3428 46.3605C22.847 48.0918 21.9798 50.2776 21.8818 52.5635C21.8778 52.6824 21.8758 52.8016 21.8758 52.9213V57.8125L15.6758 68.6615C19.8367 76.2914 26.4142 82.3231 34.3752 85.809V82.8125L32.8127 79.6875V75L34.7568 72.0838C35.5268 70.9288 35.9377 69.5717 35.9377 68.1836V62.5C37.1809 62.5 38.3732 62.0061 39.2523 61.1271C40.1313 60.248 40.6252 59.0557 40.6252 57.8125V54.6875C39.6639 54.6874 38.7175 54.4501 37.87 53.9965C37.0225 53.5429 36.3001 52.8871 35.7668 52.0873Z" fill="#E4E4E2"/>
<path d="M29.6875 54.6875H32.8125V57.8125H29.6875V54.6875Z" fill="#6FBBC6"/>
<path d="M45.3125 35.9375V37.6113C45.3145 39.2673 44.7618 40.8762 43.7426 42.1814C42.7234 43.4867 41.2965 44.4129 39.6895 44.8125C39.6721 44.818 39.6545 44.8225 39.6367 44.8262L35.5527 45.6973L37.5 43.75V42.0859L38.957 41.7754C39.8818 41.5392 40.7015 41.0016 41.2865 40.2475C41.8715 39.4933 42.1886 38.5658 42.1875 37.6113V35.9375H45.3125Z" fill="#DA922A"/>
<path d="M83.1458 16.8543C78.7993 12.4728 73.6305 8.99275 67.9358 6.61382C62.2411 4.23489 56.1327 3.00392 49.9611 2.99155C43.7895 2.97918 37.6763 4.18565 31.9721 6.54174C26.2679 8.89782 21.0852 12.3571 16.7212 16.7212C12.3573 21.0852 8.89807 26.268 6.5421 31.9722C4.18614 37.6765 2.97979 43.7898 2.99228 49.9614C3.00478 56.133 4.23588 62.2413 6.61492 67.936C8.99397 73.6306 12.4741 78.7994 16.8557 83.1457C23.1841 89.4699 31.1889 93.8526 39.9262 95.7769C48.6635 97.7013 57.7689 97.0872 66.1686 94.0068C70.0498 96.3223 74.5925 97.2767 79.0773 96.7188C83.5622 96.161 87.7327 94.1228 90.9283 90.927C94.1239 87.7312 96.162 83.5607 96.7196 79.0758C97.2773 74.591 96.3227 70.0482 94.0071 66.1672C97.0874 57.7675 97.7016 48.6621 95.7771 39.9248C93.8527 31.1875 89.47 23.1826 83.1458 16.8543ZM50.0002 93.75C41.3473 93.75 32.8887 91.1841 25.694 86.3768C18.4994 81.5695 12.8918 74.7367 9.58049 66.7424C6.26915 58.7481 5.40276 49.9515 7.09086 41.4648C8.77897 32.9781 12.9458 25.1826 19.0643 19.0641C25.9888 12.1488 35.0313 7.75408 44.747 6.58203C54.4627 5.40998 64.2908 7.52827 72.6612 12.5984C81.0315 17.6686 87.4608 25.398 90.9219 34.5517C94.383 43.7053 94.6761 53.7549 91.7543 63.0947C90.9759 62.2175 90.1237 61.4088 89.2069 60.6773C90.1505 57.1968 90.6275 53.6062 90.6253 50C90.6253 27.5994 72.4008 9.375 50.0002 9.375C27.5997 9.375 9.37525 27.5994 9.37525 50C9.37525 72.4006 27.5997 90.625 50.0002 90.625C53.6064 90.6274 57.197 90.1503 60.6774 89.2062C61.4089 90.1231 62.2176 90.9755 63.0948 91.7541C58.857 93.0823 54.4413 93.7554 50.0002 93.75ZM32.8127 51.5625H33.5391L34.4669 52.9541C35.5326 54.5563 37.1815 55.6794 39.0627 56.0842V57.8125C39.0618 58.641 38.7322 59.4353 38.1464 60.0211C37.5605 60.607 36.7663 60.9365 35.9377 60.9375C35.5233 60.9375 35.1259 61.1021 34.8329 61.3951C34.5399 61.6882 34.3752 62.0856 34.3752 62.5V68.1836C34.3764 69.2634 34.0569 70.3192 33.4573 71.2172L31.5131 74.1332C31.3418 74.3898 31.2504 74.6914 31.2502 75V79.6875C31.2502 79.9301 31.3067 80.1694 31.4153 80.3863L32.8127 83.1814V83.3227C26.4049 79.9995 21.0834 74.9098 17.4786 68.6561L23.2319 58.5877C23.3668 58.3516 23.4377 58.0844 23.4377 57.8125V52.9213C23.4377 52.8201 23.4393 52.7191 23.4428 52.6164C23.5308 50.6835 24.267 48.8364 25.5327 47.3728L25.7836 47.0777L26.6088 50.3785C26.6933 50.7167 26.8884 51.017 27.1632 51.2316C27.438 51.4461 27.7766 51.5626 28.1252 51.5625H32.8127ZM35.7727 82.1137L35.3626 81.2914L37.5002 79.6875V85.3551C36.9739 85.1684 36.4531 84.9704 35.9377 84.7613V82.8125C35.9378 82.5699 35.8813 82.3306 35.7727 82.1137ZM39.7616 75.165C39.502 75.0352 39.2115 74.9803 38.9225 75.0063C38.6335 75.0324 38.3574 75.1384 38.1252 75.3125L34.3752 78.125V75.473L36.0569 72.9506C36.9995 71.5396 37.5018 69.8805 37.5002 68.1836V63.8648C38.841 63.5166 40.0284 62.7336 40.8766 61.6385C41.7249 60.5433 42.186 59.1977 42.1877 57.8125V54.6875C42.1877 54.2731 42.0231 53.8757 41.7301 53.5826C41.4371 53.2896 41.0396 53.125 40.6252 53.125C39.9211 53.1257 39.2276 52.9523 38.6068 52.62C37.9859 52.2877 37.4569 51.807 37.0669 51.2207L35.6753 49.1332C35.4931 48.8606 35.2297 48.6522 34.9225 48.5375L38.3629 45.0977L38.8817 44.9869L46.0084 49.7381C46.2652 49.909 46.5668 50.0002 46.8752 50H51.7268L53.0329 61.7549C53.0662 62.0544 53.0119 62.3572 52.8766 62.6266L50.3293 67.7213L44.3752 72.1875C44.1812 72.333 44.0237 72.5218 43.9152 72.7387C43.8067 72.9557 43.7502 73.1949 43.7502 73.4375V86.9764C42.6933 86.7982 41.6517 86.5773 40.6252 86.3135V76.5625C40.6252 76.2723 40.5444 75.9879 40.3919 75.7411C40.2393 75.4943 40.0211 75.2948 39.7616 75.165ZM51.5627 39.0625V46.875H47.3483L42.3522 43.5443C43.2725 42.8532 44.0191 41.9572 44.533 40.9274C45.0469 39.8976 45.3139 38.7622 45.3127 37.6113V35.9375H42.1877V37.6113C42.1884 38.5465 41.8834 39.4562 41.3193 40.202C40.7551 40.9478 39.9627 41.4889 39.0627 41.7428V33.4598L44.3973 28.125H50.9157L55.1454 32.3549C55.2905 32.5 55.4627 32.6151 55.6523 32.6936C55.8419 32.7721 56.0451 32.8125 56.2502 32.8125H59.3752V35.1562C59.3746 35.7776 59.1274 36.3734 58.688 36.8128C58.2486 37.2522 57.6529 37.4993 57.0315 37.5H53.1252C52.7108 37.5 52.3134 37.6646 52.0204 37.9576C51.7274 38.2507 51.5627 38.6481 51.5627 39.0625ZM46.8752 74.2188L50.0002 71.875V87.5C48.9479 87.5 47.9059 87.4541 46.8752 87.3688V74.2188ZM53.1252 69.1189L55.6723 64.0244C56.077 63.2163 56.2391 62.3083 56.1389 61.4102L54.6877 48.351V40.625H57.0315C58.4814 40.6233 59.8714 40.0466 60.8967 39.0214C61.9219 37.9962 62.4986 36.6061 62.5002 35.1562V31.25C62.5002 30.8356 62.3356 30.4382 62.0426 30.1451C61.7496 29.8521 61.3521 29.6875 60.9377 29.6875H56.8973L52.6676 25.4576C52.5225 25.3125 52.3503 25.1974 52.1607 25.1189C51.9711 25.0404 51.7679 25 51.5627 25H43.7502C43.5451 25 43.3419 25.0404 43.1523 25.1189C42.9627 25.1974 42.7905 25.3125 42.6454 25.4576L36.3954 31.7076C36.2503 31.8527 36.1352 32.025 36.0567 32.2145C35.9781 32.4041 35.9377 32.6073 35.9377 32.8125V43.1027L30.603 48.4375H29.3452L28.0786 43.3711C28.0089 43.0924 27.8639 42.8384 27.6592 42.6368C27.4546 42.4352 27.1984 42.2939 26.9188 42.2285C26.6391 42.163 26.3468 42.1759 26.074 42.2657C25.8012 42.3556 25.5584 42.5189 25.3723 42.7377L23.1524 45.3484C21.4309 47.3492 20.4333 49.8714 20.3204 52.5084C20.3157 52.6451 20.3133 52.7836 20.3133 52.9213V57.3975L15.7795 65.3305C13.6122 60.5105 12.4944 55.2848 12.5002 50C12.5002 29.3225 29.3227 12.5 50.0002 12.5C70.6778 12.5 87.5003 29.3225 87.5003 50C87.5014 52.9733 87.1503 55.9363 86.4543 58.827C82.5953 56.6718 78.1385 55.8348 73.7605 56.443C69.3826 57.0512 65.3226 59.0714 62.1972 62.1968C59.0718 65.3222 57.0515 69.3821 56.4433 73.76C55.835 78.138 56.672 82.5949 58.827 86.4539C56.9529 86.9057 55.0466 87.2119 53.1252 87.3699V69.1189ZM76.5628 93.75C73.1634 93.75 69.8404 92.742 67.0139 90.8534C64.1874 88.9648 61.9845 86.2805 60.6836 83.1399C59.3827 79.9993 59.0423 76.5434 59.7055 73.2094C60.3687 69.8753 62.0056 66.8128 64.4094 64.4091C66.8131 62.0054 69.8756 60.3684 73.2096 59.7052C76.5437 59.0421 79.9995 59.3824 83.1401 60.6833C86.2807 61.9842 88.965 64.1872 90.8536 67.0136C92.7422 69.8401 93.7503 73.1631 93.7503 76.5625C93.7451 81.1193 91.9326 85.488 88.7104 88.7102C85.4883 91.9324 81.1196 93.7448 76.5628 93.75Z" fill="black"/>
<path d="M46.875 31.25H50V34.375H46.875V31.25Z" fill="black"/>
<path d="M29.6875 54.6875H32.8125V57.8125H29.6875V54.6875Z" fill="black"/>
<path d="M82.8125 65.625C82.8125 65.2106 82.6479 64.8132 82.3549 64.5201C82.0618 64.2271 81.6644 64.0625 81.25 64.0625H73.4375C73.0231 64.0625 72.6257 64.2271 72.3326 64.5201C72.0396 64.8132 71.875 65.2106 71.875 65.625V71.875H65.625C65.2106 71.875 64.8132 72.0396 64.5201 72.3326C64.2271 72.6257 64.0625 73.0231 64.0625 73.4375V81.25C64.0625 81.6644 64.2271 82.0618 64.5201 82.3549C64.8132 82.6479 65.2106 82.8125 65.625 82.8125H71.875V89.0625C71.875 89.4769 72.0396 89.8743 72.3326 90.1674C72.6257 90.4604 73.0231 90.625 73.4375 90.625H81.25C81.6644 90.625 82.0618 90.4604 82.3549 90.1674C82.6479 89.8743 82.8125 89.4769 82.8125 89.0625V83.4717C83.0346 83.2537 83.2544 83.034 83.4719 82.8125H89.0625C89.4769 82.8125 89.8743 82.6479 90.1674 82.3549C90.4604 82.0618 90.625 81.6644 90.625 81.25V73.4375C90.625 73.0231 90.4604 72.6257 90.1674 72.3326C89.8743 72.0396 89.4769 71.875 89.0625 71.875H82.8125V65.625ZM87.5 75V79.6875H81.25C80.8356 79.6875 80.4382 79.8521 80.1451 80.1451C79.8521 80.4382 79.6875 80.8356 79.6875 81.25V87.5H75V81.25C75 80.8356 74.8354 80.4382 74.5424 80.1451C74.2493 79.8521 73.8519 79.6875 73.4375 79.6875H67.1875V75H73.4375C73.8519 75 74.2493 74.8354 74.5424 74.5424C74.8354 74.2493 75 73.8519 75 73.4375V67.1875H79.6875V73.4375C79.6875 73.8519 79.8521 74.2493 80.1451 74.5424C80.4382 74.8354 80.8356 75 81.25 75H87.5Z" fill="black"/>
</svg>
