<svg width="100" height="100" viewBox="0 0 100 100" fill="none" xmlns="http://www.w3.org/2000/svg">
<g clip-path="url(#clip0_563_8466)">
<path d="M95.1612 40.3226H69.3547C67.5804 40.3226 66.1289 41.774 66.1289 43.5484V85.4839C66.1289 87.2582 67.5804 88.7097 69.3547 88.7097H95.1612C96.9355 88.7097 98.387 87.2582 98.387 85.4839V43.5484C98.387 41.774 96.9355 40.3226 95.1612 40.3226Z" fill="#FCD770"/>
<path d="M4.83789 8.06451V46.597L15.2737 56.4516H66.1282V43.5484C66.1282 41.774 67.5797 40.3226 69.354 40.3226H79.0314V8.06451H4.83789Z" fill="#E6E9ED"/>
<path d="M72.5801 46.7742H91.9349V56.4516H72.5801V46.7742Z" fill="#69D6F4"/>
<path d="M88.7097 20.9677V27.4193H50V20.9677H88.7097Z" fill="#B4DD7F"/>
<path d="M88.7097 14.5161V20.9677H50V14.5161H88.7097Z" fill="#FF826E"/>
<path d="M49.9997 20.9677V27.4193L40.3223 20.9677L49.9997 14.5161V20.9677Z" fill="#F5E0CD"/>
<path d="M98.3864 19.3548V22.5806C98.3864 25.2583 96.2254 27.4193 93.5477 27.4193H88.709V14.5161H93.5477C96.2254 14.5161 98.3864 16.6772 98.3864 19.3548Z" fill="#FFEAA7"/>
<path d="M1.61328 91.9355V43.5484L4.83909 46.597L15.2749 56.4516L59.6778 98.3871H1.61328V91.9355ZM11.2907 65.9999V88.7097H35.3393L11.2907 65.9999Z" fill="#FFEAA7"/>
<path d="M82.2585 3.22582V6.45162C82.2585 7.33841 81.5323 8.06453 80.6456 8.06453H3.22618C2.3394 8.06453 1.61328 7.33841 1.61328 6.45162V3.22582C1.61328 2.33904 2.3394 1.61292 3.22618 1.61292H80.6456C81.5323 1.61292 82.2585 2.33904 82.2585 3.22582Z" fill="#838F9B"/>
<path d="M93.5484 29.0323C97.1065 29.0323 100 26.1388 100 22.5806V19.3548C100 15.7967 97.1065 12.9032 93.5484 12.9032H80.6452V9.67742C82.4242 9.67742 83.871 8.23069 83.871 6.45161V3.22581C83.871 1.44673 82.4242 0 80.6452 0H3.22581C1.44673 0 0 1.44673 0 3.22581V6.45161C0 8.23069 1.44673 9.67742 3.22581 9.67742V42.853L0 39.8067V100H63.7341L19.332 58.0645H64.5161V85.4839C64.5161 88.1513 66.6874 90.3226 69.3548 90.3226H95.1613C97.8287 90.3226 100 88.1513 100 85.4839V43.5484C100 40.881 97.8287 38.7097 95.1613 38.7097H80.6452V29.0323H93.5484ZM87.0968 19.3548H51.6129V16.129H87.0968V19.3548ZM48.3871 24.4062L43.231 20.9677L48.3871 17.5293V24.4062ZM51.6129 22.5806H87.0968V25.8065H51.6129V22.5806ZM96.7742 19.3548V22.5806C96.7742 24.3597 95.3275 25.8065 93.5484 25.8065H90.3226V16.129H93.5484C95.3275 16.129 96.7742 17.5758 96.7742 19.3548ZM3.22581 3.22581H80.6452L80.6467 6.45161H3.22581V3.22581ZM3.22581 96.7742V93.5484H6.45161V90.3226H3.22581V87.0968H6.45161V83.871H3.22581V80.6452H6.45161V77.4194H3.22581V74.1936H6.45161V70.9678H3.22581V67.7419H6.45161V64.5161H3.22581V61.2903H6.45161V58.0645H3.22581V47.29L55.6208 96.7742H3.22581ZM96.7742 43.5484V85.4839C96.7742 86.3738 96.0497 87.0968 95.1613 87.0968H69.3548C68.4665 87.0968 67.7419 86.3738 67.7419 85.4839V43.5484C67.7419 42.6585 68.4665 41.9355 69.3548 41.9355H95.1613C96.0497 41.9355 96.7742 42.6585 96.7742 43.5484ZM77.4194 38.7097H50V41.9355H64.813C64.6319 42.4419 64.5161 42.9806 64.5161 43.5484V45.1613H50V48.3871H64.5161V54.8387H15.9164L6.45161 45.9V9.67742H77.4194V12.9032H49.5109L37.4142 20.9677L49.5109 29.0323H77.4194V38.7097Z" fill="black"/>
<path d="M33.8713 19.3549H22.7826L19.8678 41.2047L15.2906 35.4839H9.67773V38.7097H13.7423L22.0683 49.118L25.6052 22.5807H33.8713V19.3549Z" fill="black"/>
<path d="M44.0216 27.8919L37.0975 34.8161L30.1733 27.8919L27.8926 30.1727L34.8167 37.0968L27.8926 44.0209L30.1733 46.3017L37.0975 39.3775L44.0216 46.3017L46.3024 44.0209L39.3782 37.0968L46.3024 30.1727L44.0216 27.8919Z" fill="black"/>
<path d="M50 32.2581H74.1935V35.4839H50V32.2581Z" fill="black"/>
<path d="M9.67773 62.2582V90.3226H39.392L9.67773 62.2582ZM12.9035 69.7423L31.2795 87.0968H12.9035V69.7423Z" fill="black"/>
<path d="M93.5474 45.1613H70.9668V58.0645H93.5474V45.1613ZM90.3216 54.8387H74.1926V48.3871H90.3216V54.8387Z" fill="black"/>
<path d="M83.8711 64.5161H93.5485V67.7419H83.8711V64.5161Z" fill="black"/>
<path d="M70.9668 74.1935H80.6442V77.4193H70.9668V74.1935Z" fill="black"/>
<path d="M70.9668 80.6451H80.6442V83.8709H70.9668V80.6451Z" fill="black"/>
<path d="M74.1926 70.9678H77.4184V67.742H80.6442V64.5162H77.4184V61.2903H74.1926V64.5162H70.9668V67.742H74.1926V70.9678Z" fill="black"/>
<path d="M90.7954 74.6661L88.7099 76.7515L86.6245 74.6661L84.3438 76.9468L86.4292 79.0323L84.3438 81.1177L86.6245 83.3984L88.7099 81.313L90.7954 83.3984L93.0761 81.1177L90.9907 79.0323L93.0761 76.9468L90.7954 74.6661Z" fill="black"/>
</g>
<defs>
<clipPath id="clip0_563_8466">
<rect width="100" height="100" fill="white"/>
</clipPath>
</defs>
</svg>
