<svg width="100" height="100" viewBox="0 0 100 100" fill="none" xmlns="http://www.w3.org/2000/svg">
<g clip-path="url(#clip0_563_6065)">
<path d="M98.3876 91.9355V98.3871H91.936V94.5323C91.936 91.5968 90.7586 88.8226 88.7102 86.7904H88.6941C88.7102 86.6613 88.7102 86.5484 88.7102 86.4194C88.7102 83.3065 87.6779 80.371 85.9199 78C85.3553 77.242 84.6941 76.5323 83.9844 75.9033C92.0811 76.7581 98.3876 83.6129 98.3876 91.9355Z" fill="#D3A06C"/>
<path d="M72.5806 98.3871H50L44 83.3871C46.3065 82.4355 48.5161 81.2097 50.5968 79.7742C53.5484 83.2742 57.9677 85.4839 62.9032 85.4839C70.5806 85.4839 77 80.1129 78.629 72.9355C80.6613 73.5323 82.4677 74.5484 83.9839 75.9032C84.6935 76.5323 85.3548 77.2419 85.9194 78C87.6774 80.371 88.7097 83.3065 88.7097 86.4194C88.7097 86.5484 88.7097 86.6613 88.6935 86.7903C88.6613 88.1774 88.4355 89.5484 87.9839 90.871L85.4839 98.3871H72.5806Z" fill="#DFB28B"/>
<path d="M20.9689 30.6451C21.9689 30.7097 22.7592 31.3709 22.985 32.2742L24.1947 37.0968C26.2431 38.129 28.0173 39.5645 29.4205 41.3064C30.8076 43.0484 31.8398 45.0968 32.3882 47.3226L34.2431 54.7419C35.8076 60.9516 40.1624 66 45.9527 68.4838V68.5C42.6786 69.6935 39.6947 71.5967 37.2269 74.0645L37.0979 74.1935L36.8237 74.258C33.1947 75.1774 30.6463 78.4355 30.6302 82.1774V82.3226C30.6302 86.1774 33.3237 89.5161 37.0979 90.3226L40.3237 98.3871H29.0334C24.7753 89.8709 22.2915 80.5806 21.7269 71.0806L21.3076 63.8709C21.114 60.4032 20.0656 57.0322 18.2753 54.0645C18.0495 54.129 17.8076 54.1774 17.5818 54.2258L9.45275 55.8387L5.83984 46.1935L11.7915 40.8226L17.7431 35.4839L18.8721 32.1129C19.1624 31.2419 19.985 30.6451 20.9044 30.6451H20.9689Z" fill="#DFB28B"/>
<path d="M9.45199 55.8387V55.8548L8.03264 56.129C6.98425 56.3387 5.91973 56.4516 4.83909 56.4516C3.95199 56.4516 3.14554 56.0968 2.56489 55.5C1.96812 54.9193 1.61328 54.1129 1.61328 53.2258V51.4355C1.61328 50.5161 2.00038 49.6452 2.6778 49.0323L5.83909 46.1935L9.45199 55.8387Z" fill="#F0D0B4"/>
<path d="M46.8236 68.1935C46.5333 68.2903 46.2429 68.3871 45.9526 68.5V68.4838C40.1623 66 35.8075 60.9516 34.2429 54.7419L32.3881 47.3226C31.8397 45.0968 30.8075 43.0484 29.4204 41.3064C28.0171 39.5645 26.2429 38.129 24.1946 37.0968L22.9849 32.2742C22.7591 31.3709 21.9688 30.7097 20.9688 30.6451H22.7107C24.2429 30.6451 25.7429 30.8548 27.1623 31.2742C32.6623 32.8548 37.0494 37.2903 38.4042 43.0806L39.7752 48.9032C40.4849 51.8709 41.7752 54.629 43.5494 57.0484C44.9365 58.9193 46.6139 60.5968 48.5655 61.9677C47.5978 63.8548 46.9688 65.9516 46.8236 68.1935Z" fill="#B27946"/>
<path d="M12.629 30.6451H20.9032C19.9838 30.6451 19.1612 31.2419 18.8709 32.1129L17.7419 35.4839L11.7903 40.8226L9.40316 38.4355C8.54832 37.5806 8.06445 36.4193 8.06445 35.2097C8.06445 33.9516 8.58058 32.8064 9.40316 31.9839C10.2257 31.1613 11.3709 30.6451 12.629 30.6451Z" fill="#B27946"/>
<path d="M66.1287 10.6452V10.9516C66.1287 11.1774 66.1125 11.4032 66.0641 11.629L64.7899 19.2742C63.6125 18.5 62.3061 17.7097 60.919 16.9355C58.5964 15.6452 56.0319 14.3871 53.2577 13.2097C50.1932 11.9032 47.1932 10.8387 44.3867 10.0323L48.7577 3.46775C49.5319 2.30646 50.8383 1.61292 52.2416 1.61292C52.8867 1.61292 53.5319 1.75808 54.1125 2.0484L63.8222 6.90324C65.2416 7.61292 66.1287 9.06453 66.1287 10.6452Z" fill="#CF9E76"/>
<path d="M60.9202 16.9355C62.3073 17.7097 63.6138 18.5 64.7912 19.2742C70.4041 23 73.5009 26.6452 72.3396 28.8226C71.146 31.0645 65.7267 31.1774 58.5977 29.4839C59.5815 29.0161 60.4525 28.3548 61.146 27.5323C62.2428 26.2258 62.9041 24.5484 62.9041 22.7258C62.9041 21.5645 62.6299 20.4355 62.1138 19.4032L60.9041 16.9516L60.9202 16.9355Z" fill="#ECC19C"/>
<path d="M44.2419 9.98387L40.0806 11.371C38.7097 11.8387 37.5645 12.7097 36.758 13.8226C35.9516 14.9355 35.4838 16.2903 35.4838 17.7419C35.4838 18.4677 35.5967 19.1613 35.8226 19.8226C29.8226 15.9839 26.4677 12.1452 27.6613 9.88709C29 7.3387 35.758 7.53225 44.2419 9.98387Z" fill="#ECC19C"/>
<path d="M44.2424 9.98389C44.2908 10 44.3392 10.0161 44.3876 10.0323C47.1941 10.8387 50.1941 11.9032 53.2586 13.2097C56.0328 14.3871 58.5973 15.6452 60.9199 16.9355L60.9037 16.9516L62.1134 19.4032C62.6295 20.4355 62.9037 21.5645 62.9037 22.7258C62.9037 24.5484 62.2424 26.2258 61.1457 27.5323C60.4521 28.3549 59.5812 29.0161 58.5973 29.4839C58.0005 29.7581 57.3553 29.9516 56.6779 30.0645L53.2263 30.6452V29.0323C54.1134 29.0323 54.9199 28.6774 55.5005 28.0807C56.0973 27.5 56.4521 26.6936 56.4521 25.8065C56.4521 24.9194 56.0973 24.1129 55.5005 23.5323C54.9199 22.9355 54.1134 22.5807 53.2263 22.5807C53.2263 21.6936 52.8715 20.8871 52.2747 20.3065C51.6941 19.7097 50.8876 19.3549 50.0005 19.3549H43.5489C41.7747 19.3549 40.3231 20.8065 40.3231 22.5807V24.1936L40.0811 24.1129C38.0328 23.4194 36.4682 21.8065 35.8231 19.8226C35.5973 19.1613 35.4844 18.4678 35.4844 17.742C35.4844 16.2903 35.9521 14.9355 36.7586 13.8226C37.565 12.7097 38.7102 11.8387 40.0811 11.371L44.2424 9.98389Z" fill="#FCD770"/>
<path d="M50.0004 41.9355C50.0004 44.1936 51.5488 46.0968 53.6456 46.6129V46.6291L55.9682 54.8065C52.7746 56.3065 50.1779 58.8387 48.565 61.9678C46.6133 60.5968 44.9359 58.9194 43.5488 57.0484V50.6291C43.5488 47.6452 44.5811 44.8387 46.3553 42.6129C47.5811 41.0807 49.1617 39.8226 51.0166 38.9678C50.3875 39.7904 50.0004 40.8226 50.0004 41.9355Z" fill="#969FAA"/>
<path d="M44.0009 83.3871L50.0009 98.3871H40.3235L37.0977 90.3226V85.4839L37.2589 85.4516C39.5815 84.9839 41.8235 84.3064 44.0009 83.3871Z" fill="#969FAA"/>
<path d="M46.8235 68.1935C46.7912 68.5645 46.7751 68.9677 46.7751 69.3548C46.7751 73.3226 48.2106 76.9677 50.5977 79.7742C48.517 81.2097 46.3073 82.4355 44.0009 83.3871C41.8235 84.3064 39.5815 84.9839 37.2589 85.4516L37.0977 85.4839V74.1935L37.2267 74.0645C39.6944 71.5968 42.6783 69.6935 45.9525 68.5C46.2428 68.3871 46.5331 68.2903 46.8235 68.1935Z" fill="#969FAA"/>
<path d="M37.0966 85.4839V90.3226C33.3225 89.5161 30.6289 86.1774 30.6289 82.3226V82.1774C30.645 78.4355 33.1934 75.1774 36.8225 74.2581L37.0966 74.1935V85.4839Z" fill="#CCD1D9"/>
<path d="M54.84 46.7742C57.5175 46.7742 59.6787 44.6129 59.6787 41.9355L63.9207 53.2258V53.2581C63.582 53.2419 63.2433 53.2258 62.9046 53.2258C60.4207 53.2258 58.0658 53.7903 55.9691 54.8065L53.6465 46.629V46.6129C54.0336 46.7258 54.4207 46.7742 54.84 46.7742Z" fill="#F0D0B4"/>
<path d="M53.2255 30.6452V37.371V37.3871C52.3384 37.6774 51.5803 38.242 51.0158 38.9678C49.161 39.8226 47.5803 41.0807 46.3545 42.6129L45.161 35.4839V35.4678C45.0642 35.4839 44.9836 35.4839 44.8868 35.4839C42.3707 35.4839 40.3223 33.4355 40.3223 30.9194V24.1936V22.5807C40.3223 20.8065 41.7739 19.3549 43.5481 19.3549H49.9997C50.8868 19.3549 51.6932 19.7097 52.2739 20.3065C52.8707 20.8871 53.2255 21.6936 53.2255 22.5807C54.1126 22.5807 54.919 22.9355 55.4997 23.5323C56.0965 24.1129 56.4513 24.9194 56.4513 25.8065C56.4513 26.6936 56.0965 27.5 55.4997 28.0807C54.919 28.6774 54.1126 29.0323 53.2255 29.0323V30.6452Z" fill="#F0D0B4"/>
<path d="M59.6774 41.9355C59.6774 44.6129 57.5161 46.7742 54.8387 46.7742C54.4194 46.7742 54.0323 46.7258 53.6452 46.6129C51.5484 46.0968 50 44.1936 50 41.9355C50 40.8226 50.3871 39.7903 51.0161 38.9678C51.5806 38.242 52.3387 37.6774 53.2258 37.3871C53.7258 37.1936 54.2742 37.0968 54.8387 37.0968C57.5161 37.0968 59.6774 39.2581 59.6774 41.9355Z" fill="#CCD1D9"/>
<path d="M55.9689 54.8065C58.0657 53.7903 60.4206 53.2258 62.9044 53.2258C63.2431 53.2258 63.5818 53.242 63.9206 53.2581C72.356 53.7903 79.0335 60.7903 79.0335 69.3549C79.0335 70.5807 78.8883 71.7903 78.6302 72.9355C77.0012 80.1129 70.5818 85.4839 62.9044 85.4839C57.9689 85.4839 53.5496 83.2742 50.598 79.7742C48.2109 76.9678 46.7754 73.3226 46.7754 69.3549C46.7754 68.9678 46.7915 68.5645 46.8238 68.1936C46.9689 65.9516 47.598 63.8549 48.5657 61.9678C50.1786 58.8387 52.7754 56.3065 55.9689 54.8065ZM69.356 69.3549C69.356 65.7903 66.4689 62.9032 62.9044 62.9032C59.3399 62.9032 56.4528 65.7903 56.4528 69.3549C56.4528 72.9194 59.3399 75.8065 62.9044 75.8065C66.4689 75.8065 69.356 72.9194 69.356 69.3549Z" fill="#CCD1D9"/>
<path d="M19.8866 3.64517L27.1608 31.2742C25.7414 30.8548 24.2414 30.6452 22.7092 30.6452H20.9672L14.5963 5.1613C14.5479 4.95162 14.5156 4.72582 14.5156 4.50001V4.33872C14.5156 2.83872 15.7414 1.61292 17.2414 1.61292C18.4834 1.61292 19.5801 2.45162 19.8866 3.64517Z" fill="#CCD1D9"/>
<path d="M54.8379 69.3549C54.8379 73.8016 58.4556 77.4194 62.9024 77.4194C67.3492 77.4194 70.9669 73.8016 70.9669 69.3549C70.9669 64.9081 67.3492 61.2903 62.9024 61.2903C58.4556 61.2903 54.8379 64.9081 54.8379 69.3549ZM67.7411 69.3549C67.7411 72.0226 65.5701 74.1936 62.9024 74.1936C60.2347 74.1936 58.0637 72.0226 58.0637 69.3549C58.0637 66.6871 60.2347 64.5162 62.9024 64.5162C65.5701 64.5162 67.7411 66.6871 67.7411 69.3549Z" fill="black"/>
<path d="M62.9039 59.6774C63.7947 59.6774 64.5168 58.9553 64.5168 58.0645C64.5168 57.1737 63.7947 56.4516 62.9039 56.4516C62.0131 56.4516 61.291 57.1737 61.291 58.0645C61.291 58.9553 62.0131 59.6774 62.9039 59.6774Z" fill="black"/>
<path d="M56.4508 80.6452C57.3416 80.6452 58.0637 79.9231 58.0637 79.0323C58.0637 78.1415 57.3416 77.4194 56.4508 77.4194C55.56 77.4194 54.8379 78.1415 54.8379 79.0323C54.8379 79.9231 55.56 80.6452 56.4508 80.6452Z" fill="black"/>
<path d="M69.3551 80.6452C70.2459 80.6452 70.968 79.9231 70.968 79.0323C70.968 78.1415 70.2459 77.4194 69.3551 77.4194C68.4643 77.4194 67.7422 78.1415 67.7422 79.0323C67.7422 79.9231 68.4643 80.6452 69.3551 80.6452Z" fill="black"/>
<path d="M74.193 69.3548C75.0838 69.3548 75.8059 68.6327 75.8059 67.7419C75.8059 66.8511 75.0838 66.129 74.193 66.129C73.3022 66.129 72.5801 66.8511 72.5801 67.7419C72.5801 68.6327 73.3022 69.3548 74.193 69.3548Z" fill="black"/>
<path d="M51.6129 69.3548C52.5037 69.3548 53.2258 68.6327 53.2258 67.7419C53.2258 66.8511 52.5037 66.129 51.6129 66.129C50.7221 66.129 50 66.8511 50 67.7419C50 68.6327 50.7221 69.3548 51.6129 69.3548Z" fill="black"/>
<path d="M84.6484 74.3694C83.4032 73.329 81.9887 72.4774 80.4468 71.8597C80.5645 71.0387 80.6452 70.2065 80.6452 69.3548C80.6452 60.3113 73.8403 52.8419 65.0855 51.7613L61.25 41.5339C61.0387 38.1661 58.2597 35.4839 54.8387 35.4839V32.0113L56.9468 31.6597C57.571 31.5565 58.1613 31.3758 58.7306 31.1565C61.1 31.7016 64.1516 32.2516 66.9452 32.2516C69.9919 32.2516 72.6968 31.5984 73.7661 29.5726C74.129 28.8903 74.4436 27.7516 73.8952 26.2129C73.0774 23.9145 70.4419 21.2194 66.5581 18.5226L67.6629 11.8968C67.7145 11.5823 67.7419 11.2629 67.7419 10.9435V10.65C67.7419 8.44032 66.5145 6.45484 64.5387 5.46613L54.8306 0.612903C54.029 0.21129 53.1323 0 52.2387 0C50.2952 0 48.4935 0.964516 47.4177 2.58065L43.6903 8.17097C35.3823 5.91774 28.0806 5.63871 26.2339 9.13548C24.6242 12.1774 27.571 16.3484 34.5194 20.9032C35.3065 22.8161 36.7806 24.3887 38.7097 25.279V30.921C38.7097 33.9468 40.9016 36.4597 43.7758 36.9839L44.6532 42.2532C42.9516 44.6387 41.9548 47.5145 41.9403 50.5484C41.7129 49.8903 41.5113 49.2242 41.35 48.5403L39.979 42.7097C38.5452 36.6194 34.1323 31.9242 28.4887 29.9935L21.45 3.24032C20.95 1.33226 19.2226 0 17.2484 0C14.8532 0 12.9032 1.94839 12.9032 4.50323C12.9032 4.8629 12.9468 5.21935 13.0339 5.55645L18.9032 29.0323H12.6258C9.22258 29.0323 6.45161 31.8016 6.45161 35.2081C6.45161 36.8565 7.09355 38.4065 8.25968 39.5742L9.45645 40.771L1.60323 47.8387C0.583871 48.7548 0 50.0661 0 51.4371V53.2258C0 55.8935 2.17097 58.0645 4.83871 58.0645C6.01452 58.0645 7.19355 57.9468 8.35 57.7161L10.0242 57.3806L10.3194 59.4403C11.3935 66.9645 15.2258 73.5758 20.8839 78.1839C22.0258 85.4484 24.2677 92.4613 27.5903 99.1065L28.0355 100H86.6468L89.5161 91.3871C89.5564 91.2645 89.5855 91.1403 89.6242 91.0161C90.0774 92.1242 90.3226 93.3161 90.3226 94.5242V100H100V91.9355C100 83.0065 93.4323 75.5532 84.6484 74.3694ZM77.4194 69.3548C77.4194 77.3581 70.9081 83.871 62.9032 83.871C54.8984 83.871 48.3871 77.3581 48.3871 69.3548C48.3871 61.3516 54.8984 54.8387 62.9032 54.8387C70.9081 54.8387 77.4194 61.3516 77.4194 69.3548ZM29.4274 79.5839C27.4355 78.7532 25.5903 77.6839 23.8984 76.4339C23.6484 74.6323 23.4516 72.8194 23.3435 70.9887L22.9194 63.7742C22.7371 60.6903 21.8935 57.6677 20.5242 54.8984C22.9484 53.6774 24.8452 51.5339 25.7226 48.8968L22.6645 47.8774C21.8516 50.3145 19.7823 52.1403 17.2629 52.6452L10.4806 54L7.73065 46.6629L19.1371 36.3968L20.3935 32.6242C20.5452 32.171 21.3048 32.1984 21.4226 32.6629L22.8081 38.2081L23.471 38.5403C27.15 40.379 29.8306 43.7226 30.8306 47.7129L32.6839 55.1306C34.0597 60.6403 37.5903 65.3855 42.3468 68.3774C40.1274 69.5403 38.0677 70.9984 36.2823 72.75C32.8984 73.6532 30.3532 76.2629 29.4274 79.5839ZM35.4839 76.5323V87.9806C33.5274 86.8161 32.2452 84.6516 32.25 82.179C32.2532 79.8081 33.5194 77.6855 35.4839 76.5323ZM25.5823 36.0065L24.6806 32.4032C26.0887 32.5935 27.4403 32.9726 28.6968 33.5387L25.9806 36.2548C25.8452 36.1758 25.7194 36.0839 25.5823 36.0065ZM16.3468 34.5694L15.8145 35.0484L14.1387 32.2581H17.1177L16.3468 34.5694ZM36.8403 43.4484L37.2355 45.1323L33.9952 47.0758L33.9581 46.9274C33.7113 45.9419 33.3645 44.9984 32.9581 44.0855L36.2145 41.479C36.4629 42.1161 36.679 42.7694 36.8403 43.4484ZM38.2097 49.279C38.4194 50.171 38.6968 51.0371 39.0032 51.8919L35.8371 54.4258C35.8306 54.3984 35.8194 54.3742 35.8129 54.3468L34.8129 50.3484L38.0097 48.4306L38.2097 49.279ZM45.4242 66.4242C44.0597 65.7194 42.7935 64.8597 41.6532 63.8548L44.7032 60.8048C45.2903 61.3839 45.9129 61.929 46.5613 62.4468C46.029 63.7032 45.6565 65.0387 45.4242 66.4242ZM39.4194 61.5258C38.4581 60.3323 37.65 59.0226 37.0016 57.6258L40.3468 54.9484C40.9839 56.1565 41.7274 57.3032 42.5613 58.3839L39.4194 61.5258ZM40.8306 95.3145L46.1242 93.0452L47.6177 96.7742H41.4161L40.8306 95.3145ZM39.6339 92.3194L38.7097 90.0113V86.7758C40.2048 86.429 41.671 86.0032 43.0984 85.479L44.9274 90.05L39.6339 92.3194ZM38.7097 83.421V74.9C40.6048 73.0806 42.8161 71.6016 45.221 70.5435C45.4371 73.7871 46.5113 76.7968 48.2452 79.3339C45.2855 81.1871 42.0935 82.5548 38.7097 83.421ZM55.7968 48.2903C57.2887 48.0661 58.6064 47.3387 59.5806 46.2742L61.6081 51.679C60.0161 51.7952 58.4855 52.121 57.0371 52.6306L55.7968 48.2903ZM58.0645 41.9355C58.0645 43.7145 56.6177 45.1613 54.8387 45.1613C53.0597 45.1613 51.6129 43.7145 51.6129 41.9355C51.6129 40.1565 53.0597 38.7097 54.8387 38.7097C56.6177 38.7097 58.0645 40.1565 58.0645 41.9355ZM70.8581 27.2936C70.9436 27.5339 71.0242 27.8629 70.9161 28.0661C70.5645 28.7258 68.0226 29.529 62.3661 28.5952C63.7161 27.0081 64.5161 24.9532 64.5161 22.7258C64.5161 22.1113 64.4419 21.4968 64.3161 20.8935C68.0242 23.4048 70.2952 25.7145 70.8581 27.2936ZM50.1016 4.36936C50.8 3.32258 52.2581 2.93226 53.3887 3.49677L63.0968 8.35C63.971 8.78871 64.5161 9.66936 64.5161 10.65V10.9452C64.5161 11.0871 64.5048 11.229 64.4823 11.3677L63.6065 16.6194C60.7742 14.9161 57.4952 13.2484 53.8839 11.7177C51.5919 10.7468 49.2452 9.87419 46.929 9.12903L50.1016 4.36936ZM29.0839 10.6435C29.6 9.67097 33.021 9.2629 38.5323 10.279C36.0564 11.4919 34.3468 13.8468 33.9629 16.5758C29.7419 13.3919 28.7774 11.2226 29.0839 10.6435ZM37.0968 17.7419C37.0968 15.5435 38.4984 13.5984 40.5839 12.9032L44.2694 11.6742C46.8097 12.4258 49.5984 13.4048 52.6258 14.6871C55.2161 15.7839 57.5613 16.9258 59.6484 18.0661L60.6742 20.1161C61.0774 20.9226 61.2903 21.8258 61.2903 22.7258C61.2903 25.2435 59.7048 27.4145 57.4016 28.2226C57.8161 27.5097 58.0645 26.6887 58.0645 25.8065C58.0645 23.6258 56.6161 21.779 54.6306 21.1758C54.0274 19.1903 52.1806 17.7419 50 17.7419H43.5484C41.2339 17.7419 39.3 19.3758 38.8258 21.55C37.7548 20.6032 37.0968 19.2371 37.0968 17.7419ZM41.9355 30.921V22.5806C41.9355 21.6919 42.6581 20.9677 43.5484 20.9677H50C50.8903 20.9677 51.6129 21.6919 51.6129 22.5806V24.1935H53.2258C54.1161 24.1935 54.8387 24.9177 54.8387 25.8065C54.8387 26.6952 54.1161 27.4194 53.2258 27.4194H51.6129V36.3806C51.0194 36.7274 50.4903 37.1581 50.0355 37.6694C49.0984 38.129 48.2355 38.6903 47.4355 39.3242L46.9984 36.7048C47.8323 36.4 48.6016 35.9339 49.2468 35.2887L49.5242 35.0129L47.2468 32.729L46.9677 33.0081C46.4194 33.5565 45.6613 33.871 44.8839 33.871C43.2581 33.871 41.9355 32.5484 41.9355 30.921ZM45.1613 50.621C45.1613 47.6048 46.4032 44.7839 48.4661 42.7145C48.75 45.0371 50.2435 46.9919 52.3226 47.8758L54.0694 53.9903C51.6806 55.3694 49.6371 57.279 48.1161 59.571C47.0194 58.6419 46.0355 57.6016 45.1613 56.4774V50.621ZM34.6855 38.5726L31.35 41.2419C30.5645 40.1161 29.6597 39.0806 28.6274 38.1694L31.5468 35.25C32.7581 36.1774 33.8161 37.2984 34.6855 38.5726ZM16.129 4.34516C16.129 3.72742 16.6323 3.22581 17.2484 3.22581C17.7548 3.22581 18.2016 3.56774 18.3306 4.05968L24.9435 29.1871C24.2097 29.0952 23.4661 29.0323 22.7097 29.0323H22.2258L16.1613 4.76774C16.1403 4.68387 16.129 4.59516 16.129 4.34516ZM10.5403 37.2935C9.98387 36.7355 9.67742 35.9952 9.67742 35.2081C9.67742 34.2839 10.1129 33.4694 10.779 32.9274L13.371 37.2484L11.8581 38.6113L10.5403 37.2935ZM3.22581 53.2258V51.4371C3.22581 50.9806 3.41935 50.5435 3.75968 50.2387L5.15484 48.9839L7.26774 54.621C6.46452 54.7548 5.65 54.8387 4.83871 54.8387C3.94839 54.8387 3.22581 54.1145 3.22581 53.2258ZM13.5129 58.9855L13.1935 56.7484L17.4177 55.9032C18.7274 58.3984 19.5339 61.1516 19.7 63.9645L20.1242 71.1774C20.1645 71.8629 20.2371 72.5435 20.2968 73.2258C16.7048 69.3677 14.2919 64.4484 13.5129 58.9855ZM24.6306 80.7871C26.0339 81.6065 27.521 82.3048 29.0726 82.8952C29.3113 86.9339 32.0452 90.4161 35.8823 91.6306L37.9403 96.7742H30.0371C27.5645 91.65 25.7613 86.3 24.6306 80.7871ZM86.4581 90.3661L84.321 96.7742H73.4484C71.6887 94.1113 70.2823 91.229 69.271 88.2L66.2129 89.221C67.0903 91.8565 68.2516 94.3839 69.6565 96.7758H51.0919L46.0726 84.229C47.5387 83.5403 48.9629 82.7532 50.3387 81.8694C53.5532 85.0952 57.9984 87.0968 62.9032 87.0968C70.6871 87.0968 77.3016 82.05 79.6855 75.0613C84.1097 77.0419 87.0968 81.4936 87.0968 86.4242C87.0968 87.7677 86.8806 89.0936 86.4581 90.3661ZM96.7742 96.7742H93.5484V94.5242C93.5484 91.4436 92.3677 88.4419 90.3113 86.1629C90.2661 83.5 89.5323 80.9548 88.2645 78.7226C93.3258 81.0145 96.7742 86.0871 96.7742 91.9355V96.7742Z" fill="black"/>
<path d="M17.7418 45.1613C18.6326 45.1613 19.3547 44.4392 19.3547 43.5484C19.3547 42.6576 18.6326 41.9355 17.7418 41.9355C16.851 41.9355 16.1289 42.6576 16.1289 43.5484C16.1289 44.4392 16.851 45.1613 17.7418 45.1613Z" fill="black"/>
</g>
<defs>
<clipPath id="clip0_563_6065">
<rect width="100" height="100" fill="white"/>
</clipPath>
</defs>
</svg>
