<svg width="100" height="100" viewBox="0 0 100 100" fill="none" xmlns="http://www.w3.org/2000/svg">
<path d="M22.8086 15.6601H12.9922V21.6548H22.8086V15.6601Z" fill="#48C1E1"/>
<path d="M24.8324 14.6828C24.8324 15.2199 24.3929 15.6593 23.8558 15.6593H11.9434C11.4062 15.6593 10.9668 15.2199 10.9668 14.6828V7.64392C10.9668 7.10681 11.4062 6.66736 11.9434 6.66736H23.8556C24.3927 6.66736 24.8322 7.10681 24.8322 7.64392L24.8324 14.6828Z" fill="#046699"/>
<g opacity="0.1">
<path d="M15.04 14.6828V7.64392C15.04 7.10681 15.4795 6.66736 16.0166 6.66736H11.9434C11.4062 6.66736 10.9668 7.10681 10.9668 7.64392V14.6828C10.9668 15.2199 11.4062 15.6593 11.9434 15.6593H16.0164C15.4795 15.6593 15.04 15.2199 15.04 14.6828Z" fill="black"/>
</g>
<path d="M9.87752 68.3249C9.78436 68.1597 9.73085 67.9884 9.73085 67.812C9.73085 66.5122 12.3994 65.4587 15.6908 65.4587C16.8587 65.4587 17.947 65.5923 18.8662 65.8214C18.1673 63.0314 17.8123 60.1519 17.8123 57.2023C17.8123 56.6597 18.2511 56.2199 18.7927 56.2199H20.5009C20.4769 55.9958 20.4636 55.7685 20.4636 55.5382C20.4636 52.7295 22.3046 50.3519 24.8431 49.5506C24.614 49.0718 24.4447 48.5549 24.3495 48.006C23.8814 45.3039 25.3273 42.7121 27.7085 41.6135C27.5966 41.3006 27.5091 40.9746 27.4507 40.6361C27.0689 38.4336 27.9593 36.3035 29.5915 34.9963V27.1036C29.5915 24.1061 27.1448 21.654 24.154 21.654H11.6482C8.65761 21.654 6.21094 24.1063 6.21094 27.1036V70.5116C7.29628 69.6192 8.53183 68.8796 9.87752 68.3249Z" fill="#A2DFF9"/>
<path d="M24.8427 49.5508C24.6136 49.0721 24.4443 48.5551 24.3491 48.0063C23.881 45.3041 25.3269 42.7124 27.7081 41.6137C27.5962 41.3008 27.5087 40.9749 27.4503 40.6364C27.0685 38.4339 27.9589 36.3038 29.5911 34.9966V31.5796H6.21094V51.7524H21.7318C22.5072 50.7262 23.5898 49.9463 24.8427 49.5508Z" fill="#046699"/>
<path opacity="0.1" d="M9.87752 68.3249C9.78436 68.1597 9.73085 67.9884 9.73085 67.812C9.73085 67.0089 10.7504 66.3003 12.3052 65.8757V27.1036C12.3052 24.1061 14.7519 21.654 17.7425 21.654H11.6482C8.65761 21.654 6.21094 24.1063 6.21094 27.1036V70.5116C7.29628 69.6192 8.53183 68.8796 9.87752 68.3249Z" fill="black"/>
<path d="M47.6353 37.1223C47.6941 37.4606 47.7211 37.7973 47.7217 38.1295C50.1892 38.3463 52.3166 40.1022 52.9386 42.5744C53.9207 41.6582 55.1965 41.0547 56.6091 40.9215C56.6947 38.2758 57.7652 35.7016 59.7085 33.754C59.7792 33.6831 59.8517 33.6143 59.9242 33.5456C59.4759 30.9807 58.2691 28.5243 56.2968 26.5473C55.8972 26.1472 55.2498 26.147 54.85 26.5473L46.6621 34.754C47.1416 35.4418 47.4826 36.2418 47.6353 37.1223Z" fill="#EF5050"/>
<path d="M57.2014 40.8926C60.0588 40.8926 62.4674 42.8113 63.2191 45.4328C63.4189 45.5457 63.6123 45.6697 63.7959 45.807C64.5818 44.6213 65.8345 43.7473 67.3476 43.4836C67.7507 43.4135 68.1509 43.3918 68.5431 43.4117C68.683 43.2857 68.8208 43.157 68.9548 43.0229C68.9933 42.9842 69.03 42.9443 69.0679 42.9053C69.4531 41.8586 70.1085 40.9434 70.9496 40.2442C72.2697 37.5869 72.4431 34.4428 71.3095 31.5835C71.2927 31.5401 71.2667 31.5014 71.2347 31.469C71.2023 31.4366 71.1638 31.411 71.1205 31.3938C67.1824 29.8253 62.7023 30.7518 59.7068 33.7541C57.7635 35.702 56.693 38.276 56.6074 40.9217C56.8031 40.9031 57.0012 40.8926 57.2014 40.8926Z" fill="#89C947"/>
<path d="M76.324 48.9986C77.6568 47.6629 79.3097 46.7762 81.071 46.3789C81.1595 45.9586 81.2091 45.5238 81.2091 45.077C81.2091 41.6106 78.4054 38.8002 74.9467 38.8002C72.0531 38.8002 69.6187 40.7682 68.9004 43.4412C71.19 43.7119 73.1265 45.4498 73.54 47.8352C73.593 48.1408 73.6176 48.4449 73.6179 48.7449C74.4301 48.8162 75.2 49.0742 75.8791 49.4793C76.022 49.3156 76.1689 49.1543 76.324 48.9986Z" fill="#FFC502"/>
<path d="M24.8424 49.5508C22.3039 50.352 20.4629 52.7295 20.4629 55.5385C20.4629 55.7689 20.4762 55.9961 20.5002 56.2201H29.4179C28.7914 55.0931 28.3992 53.8576 28.2531 52.5885C26.773 52.0775 25.5316 50.9908 24.8424 49.5508Z" fill="#FFC502"/>
<path d="M86.9802 47.0053C86.9646 46.9656 86.941 46.9301 86.9111 46.9002C86.8814 46.8705 86.8459 46.8467 86.8064 46.8308C83.1894 45.3904 79.0754 46.2412 76.3242 48.9984C76.1689 49.1541 76.0219 49.3156 75.8789 49.4797C77.1738 50.2496 78.1389 51.555 78.4162 53.1552C78.6027 54.2318 78.4521 55.2888 78.0418 56.2197H85.8992C87.7664 53.5587 88.2072 50.1006 86.9802 47.0053Z" fill="#89C947"/>
<path d="M24.8424 49.5508C22.3039 50.352 20.4629 52.7295 20.4629 55.5385C20.4629 55.7689 20.4762 55.9961 20.5002 56.2201H29.4179C28.7914 55.0931 28.3992 53.8576 28.2531 52.5885C26.773 52.0775 25.5316 50.9908 24.8424 49.5508Z" fill="#FFC502"/>
<path d="M28.8755 47.867C28.8911 47.8271 28.9148 47.7916 28.9446 47.7619C28.9743 47.7322 29.0099 47.7086 29.0495 47.6928C32.6663 46.2523 36.7805 47.1031 39.5315 49.8603C39.8639 50.1935 40.1682 50.5473 40.4444 50.917C40.286 50.1033 40.201 49.2637 40.201 48.4041C40.201 47.8381 40.6585 47.3789 41.2237 47.3789H50.9444C50.942 47.3094 50.9391 47.2398 50.9391 47.1697C50.9391 45.3549 51.7084 43.7209 52.9371 42.5748C52.3151 40.1024 50.1877 38.3467 47.7201 38.1299C47.7196 37.7977 47.6924 37.461 47.6338 37.1227C47.0754 33.9004 44.0065 31.743 40.7795 32.3049C39.1046 32.5965 37.7178 33.5643 36.8473 34.877C35.5868 33.9354 33.9554 33.493 32.2804 33.7844C29.053 34.3463 26.89 37.4143 27.4487 40.6364C27.5071 40.9748 27.5946 41.301 27.7066 41.6137C25.3253 42.7123 23.8792 45.3043 24.3476 48.0062C24.7286 50.2055 26.2798 51.9076 28.2521 52.5885C28.0714 51.0195 28.2681 49.3988 28.8755 47.867Z" fill="#368C0E"/>
<path d="M78.4138 53.1556C77.9908 50.7152 75.9742 48.9523 73.6158 48.7451C73.6154 48.4449 73.5906 48.141 73.5379 47.8353C73.0334 44.9248 70.2615 42.9764 67.3472 43.4838C65.8342 43.7475 64.5816 44.6213 63.7955 45.8072C63.6119 45.6699 63.4186 45.5459 63.2188 45.433C63.3768 45.9848 63.4635 46.567 63.4635 47.1697C63.4635 47.2398 63.4604 47.3094 63.4582 47.3789H65.3631C65.9281 47.3789 66.3859 47.8381 66.3859 48.4041C66.3859 51.3303 65.4246 54.0355 63.8029 56.2203H78.0396C78.4497 55.2892 78.6003 54.2322 78.4138 53.1556Z" fill="#368C0E"/>
<path d="M63.4591 47.3787C63.4615 47.3092 63.4644 47.2397 63.4644 47.1696C63.4644 43.703 60.6607 40.8928 57.2019 40.8928C53.7435 40.8928 50.9395 43.703 50.9395 47.1696C50.9395 47.2397 50.9426 47.3092 50.9447 47.3787H63.4591Z" fill="#F7931E"/>
<path d="M40.4458 50.9168C40.1696 50.5471 39.8653 50.1934 39.5329 49.8602C36.7819 47.103 32.6677 46.2522 29.0509 47.6926C29.0113 47.7084 28.9757 47.7321 28.946 47.7617C28.9163 47.7914 28.8927 47.827 28.8769 47.8668C27.7785 50.6375 28.0171 53.6992 29.4183 56.2199H42.37C42.3571 55.9863 42.3333 55.7537 42.3038 55.5221C41.4114 54.1428 40.7704 52.5861 40.4458 50.9168Z" fill="#89C947"/>
<path d="M63.8038 56.2201C65.4255 54.0351 66.3868 51.3301 66.3868 48.4039C66.3868 47.8379 65.929 47.3787 65.364 47.3787H41.2238C40.6584 47.3787 40.2012 47.8379 40.2012 48.4039C40.2012 51.3301 41.1625 54.0353 42.7842 56.2201H63.8038Z" fill="#EF5050"/>
<path d="M20.5652 66.4597C21.6435 65.8544 23.4256 65.4587 25.4416 65.4587C28.733 65.4587 31.4013 66.5124 31.4013 67.812C31.4013 67.9884 31.348 68.1595 31.2546 68.3247C35.6738 70.146 38.897 73.9788 39.5448 78.5567L69.4736 67.1872C70.9324 66.6333 72.5627 66.7531 73.9236 67.5148C75.2849 68.2765 76.2355 69.6011 76.5189 71.13L76.7797 72.5378L87.0154 66.4956C87.8312 63.4964 88.2425 60.3898 88.2425 57.2025C88.2425 56.6599 87.8036 56.2201 87.2618 56.2201H18.791C18.2496 56.2201 17.8105 56.6599 17.8105 57.2025C17.8105 60.1521 18.1656 63.0316 18.8644 65.8216C19.5326 65.9882 20.1117 66.2052 20.5652 66.4597Z" fill="white"/>
<g opacity="0.1">
<path d="M20.5652 66.4597C21.54 65.9126 23.0904 65.5378 24.8681 65.4706C24.2263 62.7904 23.9027 60.0281 23.9027 57.2025C23.9027 56.6599 24.3416 56.2201 24.8832 56.2201H18.791C18.2496 56.2201 17.8105 56.6599 17.8105 57.2025C17.8105 60.1521 18.1656 63.0316 18.8644 65.8216C19.5326 65.9882 20.1117 66.2052 20.5652 66.4597Z" fill="black"/>
</g>
<path d="M24.7837 89.0462L24.7331 88.7739C24.2732 86.2893 25.6601 83.8319 28.0304 82.9313L39.5454 78.5569C38.8975 73.979 35.6743 70.146 31.2552 68.325C30.7848 69.1593 29.1964 69.8271 27.1388 70.0683C28.647 71.2747 29.337 72.5425 28.7224 73.2361C27.9087 74.1548 25.1149 73.7185 22.4833 72.2618C21.745 71.8527 21.0972 71.4072 20.5659 70.957C20.0349 71.4072 19.3876 71.8527 18.6488 72.2618C16.0173 73.7185 13.2236 74.155 12.4095 73.2361C11.7953 72.5425 12.4855 71.2747 13.9929 70.0683C11.9363 69.8271 10.3474 69.1593 9.87692 68.325C4.91991 70.3677 1.46484 74.9407 1.46484 80.2585C1.46484 87.4792 7.83162 93.3327 15.6849 93.3327H25.4478C26.4296 93.3327 27.3884 93.2411 28.3142 93.067C26.5278 92.4821 25.1399 90.9706 24.7837 89.0462Z" fill="#EF5050"/>
<path d="M24.7847 89.0461C25.2447 91.5305 27.4207 93.3336 29.9574 93.3326L74.3148 93.3154C75.8757 93.3149 77.3562 92.6235 78.3546 91.4283C79.3533 90.2332 79.7673 88.6582 79.4837 87.1287L76.5205 71.1298C76.2371 69.6009 75.2865 68.2763 73.9252 67.5146C72.5642 66.753 70.934 66.6331 69.4752 67.187L28.0314 82.9311C25.6611 83.8317 24.2742 86.2891 24.7341 88.7737L24.7847 89.0461Z" fill="#F7931E"/>
<path opacity="0.1" d="M7.61716 80.2585C7.61716 76.0603 9.77184 72.3269 13.1171 69.9347C11.4918 69.6267 10.2783 69.0365 9.87692 68.325C4.91991 70.3677 1.46484 74.9407 1.46484 80.2585C1.46484 87.4792 7.83162 93.3327 15.6849 93.3327H21.8372C13.9839 93.3327 7.61716 87.4792 7.61716 80.2585Z" fill="black"/>
<path d="M31.4025 67.8122C31.4025 66.5124 28.7341 65.4589 25.4427 65.4589C23.4267 65.4589 21.6449 65.8546 20.5664 66.4599C19.4884 65.8546 17.7068 65.4589 15.6904 65.4589C12.399 65.4589 9.73047 66.5126 9.73047 67.8122C9.73047 68.879 11.5291 69.7794 13.9931 70.0683C12.4855 71.2747 11.7955 72.5425 12.4098 73.236C13.2238 74.155 16.0177 73.7185 18.649 72.2618C19.3879 71.8526 20.0353 71.4071 20.5662 70.9569C21.0976 71.4071 21.7453 71.8526 22.4835 72.2618C25.1154 73.7185 27.9089 74.1548 28.7226 73.236C29.337 72.5425 28.647 71.2747 27.139 70.0683C29.6044 69.7792 31.4025 68.8788 31.4025 67.8122Z" fill="#368C0E"/>
<path d="M98.5132 76.2317L98.1316 74.172C98.0001 73.4609 97.3146 72.9911 96.6005 73.122L81.8635 75.829L91.273 69.539C91.7189 69.2409 91.9257 68.7146 91.8337 68.2146C91.8078 68.0757 91.7589 67.9396 91.6861 67.8103L90.621 65.9244C90.448 65.6173 90.1572 65.3923 89.8154 65.3015C89.4738 65.2103 89.1097 65.2599 88.8052 65.4398L76.7812 72.5378L79.1285 85.2118L92.9197 87.6901C93.2695 87.753 93.6306 87.6719 93.9191 87.4657C94.2079 87.2592 94.4011 86.9446 94.4531 86.5942L94.7704 84.4649C94.7923 84.3184 94.7892 84.1735 94.7636 84.0354C94.6708 83.5348 94.2886 83.1171 93.7654 82.9971L82.7215 80.4639L97.4587 77.7567C98.1734 77.6255 98.6446 76.9431 98.5132 76.2317Z" fill="#89C947"/>
<g opacity="0.1">
<path d="M79.2172 85.6938C79.0135 86.2196 78.724 86.7149 78.3539 87.158C77.3557 88.3532 75.8752 89.0446 74.3141 89.0451L29.9566 89.0623C27.7715 89.0631 25.8574 87.7239 25.0736 85.7653C24.677 86.6877 24.5397 87.7276 24.7334 88.7739L24.784 89.0461C25.244 91.5305 27.4199 93.3336 29.9566 93.3326L74.3141 93.3154C75.875 93.3149 77.3555 92.6234 78.3539 91.4283C79.3525 90.2332 79.7666 88.6582 79.483 87.1287L79.2172 85.6938Z" fill="black"/>
</g>
<path d="M32.1822 43.3288C32.1908 43.3289 32.199 43.3289 32.2076 43.3289C33.0051 43.3289 33.6582 42.6893 33.6717 41.8887C33.6867 40.9924 34.4234 40.2733 35.3283 40.2889C35.7801 40.296 36.1967 40.4835 36.5016 40.817C37.0473 41.4145 37.974 41.4563 38.5711 40.9106C39.1683 40.3651 39.2103 39.4383 38.6646 38.8411C37.8223 37.919 36.6228 37.379 35.3742 37.3596C32.8627 37.3274 30.785 39.3297 30.7424 41.8393C30.7287 42.6483 31.3735 43.3151 32.1822 43.3288Z" fill="black"/>
<path d="M39.5475 45.6838C39.7155 45.7461 39.8876 45.7756 40.0567 45.7756C40.6518 45.7756 41.2112 45.4104 41.4303 44.8197C41.671 44.1709 42.3962 43.8389 43.0446 44.0781C43.3706 44.1985 43.6253 44.4412 43.7614 44.7615C44.078 45.5059 44.9385 45.8531 45.6827 45.5363C46.4274 45.2197 46.7741 44.3596 46.4577 43.6151C46.0086 42.5596 45.1346 41.7266 44.059 41.3295C41.8962 40.5317 39.485 41.6405 38.6837 43.8008C38.4022 44.5594 38.7891 45.4024 39.5475 45.6838Z" fill="black"/>
<path d="M53.4842 34.5266C53.8596 34.5266 54.235 34.3833 54.5211 34.0966L55.902 32.713C56.4735 32.1403 56.4725 31.2128 55.8998 30.6415C55.3272 30.0698 54.3997 30.071 53.8284 30.6436L52.4475 32.0272C51.876 32.5999 51.877 33.5274 52.4497 34.0987C52.7354 34.3841 53.1098 34.5266 53.4842 34.5266Z" fill="black"/>
<path d="M46.7863 49.5524H44.834C44.0248 49.5524 43.3691 50.2082 43.3691 51.0172C43.3691 51.8262 44.0248 52.482 44.834 52.482H46.7863C47.5955 52.482 48.2512 51.8262 48.2512 51.0172C48.2512 50.2082 47.5955 49.5524 46.7863 49.5524Z" fill="black"/>
<path d="M59.8027 52.482H61.7553C62.5642 52.482 63.2201 51.8262 63.2201 51.0172C63.2201 50.2082 62.5642 49.5524 61.7553 49.5524H59.8027C58.9936 49.5524 58.3379 50.2082 58.3379 51.0172C58.3379 51.8262 58.9937 52.482 59.8027 52.482Z" fill="black"/>
<path d="M99.9529 75.9649L99.5715 73.906C99.3283 72.5903 98.1795 71.6355 96.8399 71.6355C96.6717 71.6355 96.5022 71.6509 96.3354 71.6815L88.5698 73.1081L92.0865 70.7571C93.0082 70.1411 93.474 69.0392 93.2731 67.946C93.2172 67.6466 93.1125 67.3593 92.961 67.0904L91.8967 65.2058C91.5321 64.5583 90.9102 64.0773 90.1924 63.8867C89.8409 63.7929 89.4733 63.772 89.1147 63.8187C89.5063 61.6574 89.7082 59.45 89.7082 57.2029C89.7082 56.2058 89.1086 55.3478 88.2522 54.9668C89.3713 52.3051 89.4477 49.2578 88.3414 46.4672C88.2518 46.2402 88.1186 46.0377 87.9461 45.8651C87.775 45.694 87.5748 45.5617 87.3477 45.4705C86.0221 44.9426 84.629 44.675 83.2069 44.675C83.0251 44.675 82.844 44.6797 82.6635 44.6883C82.4606 40.5998 79.0768 37.336 74.946 37.336C74.402 37.336 73.8716 37.3938 73.3593 37.5016C73.7151 35.3727 73.5056 33.1456 72.6765 31.0546C72.5874 30.8247 72.4536 30.6184 72.2718 30.4337C72.0968 30.2587 71.8915 30.1237 71.6638 30.0333C70.2359 29.4645 68.7351 29.1762 67.203 29.1762C64.8952 29.1762 62.6876 29.8251 60.7818 31.0313C60.0855 29.0143 58.9373 27.1208 57.333 25.5128C56.8631 25.0421 56.2381 24.7827 55.573 24.7827C54.908 24.7827 54.283 25.0421 53.8125 25.5132L46.7201 32.6217C45.4076 31.451 43.6805 30.7512 41.8059 30.7512C41.3805 30.7512 40.951 30.7886 40.5293 30.862C39.0014 31.128 37.5954 31.8759 36.5174 32.9712C35.1352 32.3042 33.5518 32.0766 32.0301 32.3415C31.6954 32.3997 31.3706 32.4817 31.0553 32.5817V27.104C31.0553 23.3317 28.0235 20.2573 24.2731 20.1925V17.0859C25.4212 16.8872 26.2977 15.8867 26.2977 14.6828V7.64391C26.2977 6.29782 25.2026 5.20251 23.8563 5.20251H11.9441C10.5978 5.20251 9.5027 6.29782 9.5027 7.64391V14.6828C9.5027 15.8867 10.3793 16.8872 11.5273 17.0859V20.1921C7.77692 20.2568 4.74529 23.3312 4.74529 27.1036V69.8566C1.8207 72.4978 0 76.1831 0 80.2585C0 88.2752 7.0361 94.7975 15.6849 94.7975L74.3149 94.7803C76.3161 94.7795 78.1981 93.9 79.4782 92.3676C80.7251 90.8758 81.255 88.9381 80.9497 87.0272L92.66 89.1317C92.8221 89.1608 92.9881 89.1756 93.1528 89.1756C93.7367 89.1756 94.2963 88.9963 94.7701 88.6577C95.3793 88.2225 95.7916 87.5489 95.9016 86.81L96.2188 84.6817C96.2645 84.3768 96.2594 84.0698 96.2037 83.7688C96.0022 82.6805 95.1735 81.8171 94.0924 81.5694L89.9649 80.6225L97.7229 79.1973C98.4545 79.063 99.0893 78.6522 99.5103 78.0407C99.9307 77.4308 100.088 76.6936 99.9529 75.9649ZM83.2069 47.6043C84.0887 47.6043 84.9557 47.7439 85.7893 48.0191C86.5342 50.2875 86.2553 52.7342 85.0889 54.7553H81.1428L82.402 53.4931C82.9735 52.9205 82.9723 51.993 82.3995 51.4215C81.8266 50.85 80.8991 50.851 80.328 51.4238L79.6618 52.0916C79.3495 51.0633 78.8042 50.1426 78.0874 49.3873C79.5413 48.2328 81.326 47.6043 83.2069 47.6043ZM74.946 40.2653C77.5915 40.2653 79.7436 42.4239 79.7436 45.0772C79.7436 45.1264 79.7413 45.175 79.7399 45.2238C78.1958 45.726 76.7725 46.5649 75.5587 47.7041C75.3655 47.6309 75.1696 47.5629 74.9685 47.5072C74.5399 45.1924 72.98 43.3369 70.9193 42.4703C71.7745 41.1453 73.2585 40.2653 74.946 40.2653ZM67.2029 32.1055C68.1978 32.1055 69.1755 32.2665 70.1177 32.5848C70.8749 34.8364 70.7202 37.2549 69.7554 39.3498C68.9622 40.0723 68.3187 40.9571 67.8788 41.9516C67.6173 41.9668 67.3558 41.9957 67.0974 42.0407C65.9495 42.2405 64.8792 42.7385 63.9835 43.4608C63.6781 42.9022 63.304 42.3867 62.8755 41.9227L66.2347 38.5559C66.8062 37.9832 66.805 37.0557 66.2322 36.4844C65.6595 35.9129 64.732 35.9139 64.1605 36.4868L60.489 40.1666C59.7904 39.8364 59.0353 39.6067 58.2418 39.4993C58.5845 37.7512 59.4328 36.1042 60.7449 34.7889C62.4712 33.0585 64.7648 32.1055 67.2029 32.1055ZM55.9783 54.7553H54.7086C54.4947 54.2111 53.966 53.8254 53.3459 53.8254C52.7258 53.8254 52.1971 54.2113 51.9832 54.7553H50.4894C50.8363 54.1904 50.7662 53.442 50.2766 52.9533C49.7039 52.3818 48.7764 52.3828 48.2049 52.9555L46.8242 54.339C46.7002 54.4633 46.6049 54.6049 46.5348 54.7553H43.5533C42.4367 53.0418 41.7553 51.0193 41.6746 48.8436H64.914C64.8333 51.0193 64.1519 53.0418 63.0353 54.7553H59.9328C59.8628 54.6049 59.7671 54.4631 59.6433 54.3388L58.2629 52.9553C57.6912 52.3828 56.764 52.3812 56.1914 52.9529C55.7013 53.4416 55.6312 54.1902 55.9783 54.7553ZM52.5715 45.9139C53.1236 43.8676 54.9902 42.3576 57.2023 42.3576C59.4146 42.3576 61.2812 43.8678 61.8334 45.9139H52.5715ZM55.567 27.902C56.9603 29.4079 57.8816 31.1958 58.3334 33.0751C57.5855 33.8878 56.9642 34.7858 56.4742 35.7415C56.2517 35.6051 55.991 35.5252 55.7111 35.5252H53.7592C52.9502 35.5252 52.2943 36.1811 52.2943 36.9901C52.2943 37.7991 52.9502 38.4549 53.7592 38.4549H55.4715C55.3752 38.8594 55.3004 39.2688 55.2461 39.6813C54.6644 39.834 54.109 40.0516 53.589 40.3286C52.6127 38.6436 50.9959 37.3879 49.0803 36.8842C49.0797 36.8801 49.0789 36.876 49.0781 36.8719C48.9633 36.209 48.7629 35.5801 48.4897 34.9956L55.567 27.902ZM32.5323 35.2274C32.7882 35.1829 33.0481 35.1602 33.3047 35.1602C34.2698 35.1602 35.192 35.468 35.9715 36.0502C36.294 36.2913 36.7018 36.3887 37.0987 36.32C37.4956 36.251 37.8465 36.0219 38.0692 35.6862C38.7569 34.6489 39.809 33.9606 41.0317 33.7477C41.2881 33.703 41.5487 33.6805 41.8059 33.6805C43.9762 33.6805 45.8207 35.2333 46.1914 37.3729C46.234 37.618 46.2559 37.8735 46.2563 38.1323C46.2576 38.8905 46.8375 39.5225 47.593 39.5889C49.2307 39.7328 50.6248 40.7635 51.2711 42.2155C50.4059 43.2539 49.8061 44.5219 49.5783 45.9139H41.2244C40.1858 45.9139 39.2946 46.5551 38.9229 47.4625C37.085 46.2108 34.919 45.5363 32.6491 45.5363C31.227 45.5363 29.8339 45.8041 28.5073 46.3322C28.2823 46.4221 28.0811 46.5547 27.9097 46.7262C27.7358 46.9 27.6024 47.1037 27.5149 47.3272C27.1778 48.1773 26.953 49.0514 26.8315 49.9309C26.3065 49.3332 25.9366 48.59 25.7921 47.7561C25.4476 45.7686 26.488 43.7897 28.3214 42.9436C29.0104 42.6256 29.3427 41.8342 29.087 41.12C29.0011 40.8797 28.936 40.6332 28.8932 40.386C28.4731 37.9639 30.1059 35.6499 32.5323 35.2274ZM33.4538 54.3547L33.8534 54.7553H30.3352C29.5454 52.9228 29.4255 50.8371 30.0667 48.8809C30.9014 48.6053 31.768 48.4658 32.6491 48.4658C34.8563 48.4658 36.9327 49.3285 38.4954 50.8947C38.7032 51.1031 38.8967 51.3215 39.0786 51.5471C39.3268 52.6709 39.7082 53.7445 40.1996 54.7551H37.992L35.5278 52.2851C34.9561 51.7127 34.0286 51.7111 33.4563 52.2828C32.8835 52.8545 32.8823 53.782 33.4538 54.3547ZM24.2646 51.4135C24.9659 52.3531 25.8813 53.1129 26.936 53.6275C27.0106 54.0076 27.1022 54.3844 27.2155 54.7553H21.9935C22.2263 53.3363 23.0798 52.1267 24.2646 51.4135ZM12.4324 8.13219H23.3681V14.1945H12.4324V8.13219ZM21.3435 17.1241V20.1892H14.4572V17.1241H21.3435ZM7.67517 33.0442H17.1874C17.9966 33.0442 18.6523 32.3883 18.6523 31.5794C18.6523 30.7704 17.9966 30.1145 17.1874 30.1145H7.67517V27.1036C7.67517 24.9063 9.45719 23.1189 11.6476 23.1189H24.153C26.3436 23.1189 28.1257 24.9063 28.1257 27.1036V30.1145H25.3905C24.5813 30.1145 23.9257 30.7704 23.9257 31.5794C23.9257 32.3883 24.5813 33.0442 25.3905 33.0442H28.1257V34.3444C26.4474 35.9899 25.5757 38.403 26.0061 40.8852C26.0069 40.8901 26.0079 40.8952 26.0087 40.9002C23.6587 42.5125 22.4066 45.3789 22.9052 48.2565C22.9343 48.4244 22.9708 48.5897 23.0107 48.7531C22.2788 49.1566 21.6216 49.6777 21.0583 50.2875H7.67517V33.0442ZM7.67517 53.217H19.3573C19.2019 53.7107 19.0921 54.2246 19.0386 54.7553H18.7917C17.4435 54.7553 16.3464 55.8531 16.3464 57.2025C16.3464 59.5285 16.5626 61.8119 16.9816 64.0458C16.5607 64.0121 16.129 63.9939 15.69 63.9939C13.9185 63.9939 12.2306 64.2749 10.9378 64.7855C8.96032 65.5663 8.41364 66.6751 8.2943 67.4423C8.08473 67.5466 7.87888 67.6568 7.67497 67.7695L7.67517 53.217ZM26.2239 71.212C26.7515 71.6341 27.0739 71.9929 27.2608 72.2517C27.2433 72.2519 27.2249 72.2521 27.2063 72.2521C26.3772 72.2521 24.8876 71.9179 23.1937 70.9802C22.563 70.6308 21.9819 70.2361 21.5132 69.839C20.9667 69.3759 20.1653 69.3763 19.6193 69.8392C19.1505 70.2366 18.5697 70.6312 17.9396 70.9798C16.2452 71.9179 14.7556 72.2521 13.9267 72.2521C13.9078 72.2521 13.8896 72.2519 13.8718 72.2517C14.0585 71.9929 14.381 71.6339 14.9087 71.2116C15.3699 70.8425 15.5642 70.2323 15.4015 69.6646C15.2386 69.0966 14.7507 68.682 14.1638 68.6132C12.7343 68.4456 11.8304 68.0818 11.4072 67.8169C11.9375 67.4866 13.2781 66.9236 15.6906 66.9236C17.6886 66.9236 19.1489 67.3437 19.8493 67.737C20.2948 67.987 20.838 67.987 21.2835 67.7372C21.9843 67.3439 23.4448 66.9238 25.4429 66.9238C27.8556 66.9238 29.196 67.487 29.7261 67.8171C29.303 68.0822 28.3989 68.4458 26.969 68.6134C26.3821 68.6823 25.894 69.0968 25.7313 69.665C25.5681 70.2329 25.7624 70.8431 26.2239 71.212ZM2.92968 80.2585C2.92968 75.8837 5.6031 72.0681 9.53981 70.0896C9.99195 70.4271 10.5556 70.7181 11.2244 70.9528C10.9591 71.4058 10.7744 71.8929 10.7308 72.4009C10.673 73.0763 10.8796 73.7177 11.3132 74.2071C11.8861 74.854 12.7654 75.1819 13.9267 75.1819C15.4744 75.1819 17.505 74.5692 19.3585 73.5431C19.7853 73.3069 20.1888 73.0575 20.5665 72.797C20.9441 73.0573 21.3476 73.3067 21.7745 73.5433C23.628 74.5692 25.6587 75.1817 27.2063 75.1819H27.2065C28.3675 75.1819 29.2468 74.854 29.8194 74.2073C30.2532 73.7179 30.46 73.0765 30.402 72.4009C30.3585 71.8929 30.1737 71.4058 29.9085 70.9528C30.5772 70.7179 31.1411 70.4269 31.5932 70.0896C34.7153 71.6587 37.0416 74.3835 37.8711 77.6263L27.5108 81.562C24.4782 82.7143 22.7046 85.8596 23.2937 89.0413L23.344 89.3127C23.5183 90.2535 23.8856 91.117 24.3989 91.8678H15.6849C8.65172 91.8678 2.92968 86.66 2.92968 80.2585ZM77.2298 90.4893C76.5075 91.3541 75.4444 91.8502 74.3136 91.8506L72.7761 91.8512L71.8155 86.6647C71.6681 85.8692 70.9042 85.3432 70.1083 85.4911C69.313 85.6383 68.7874 86.4026 68.9347 87.1981L69.7968 91.8522L64.7566 91.8541L64.1072 88.3469C63.9597 87.5514 63.1957 87.026 62.4 87.1733C61.6046 87.3206 61.0791 88.0848 61.2263 88.8803L61.7771 91.8553L50.0535 91.8598L49.1711 87.0965C49.0234 86.301 48.2598 85.7756 47.4639 85.9231C46.6684 86.0704 46.143 86.8348 46.2902 87.6303L47.074 91.861L29.9561 91.8676C29.9557 91.8676 29.9553 91.8676 29.955 91.8676C28.1245 91.8676 26.5558 90.5688 26.2241 88.7786L26.1737 88.5071C25.8427 86.7188 26.8423 84.9499 28.5507 84.3006L34.3079 82.1135L34.7368 84.4284C34.8674 85.1337 35.4831 85.6266 36.1752 85.6266C36.2639 85.6266 36.3538 85.6184 36.444 85.6018C37.2393 85.4544 37.7647 84.6901 37.6172 83.8946L37.0913 81.0561L45.6371 77.8097C46.3934 77.5224 46.7736 76.6763 46.4863 75.92C46.199 75.1636 45.352 74.7835 44.5969 75.0708L40.6202 76.5815C39.5045 72.6317 36.6385 69.3323 32.838 67.4421C32.7186 66.6749 32.1719 65.5661 30.1946 64.7853C28.9018 64.2747 27.214 63.9937 25.4425 63.9937C24.2233 63.9937 23.0591 64.1283 22.0314 64.3734V63.4886C22.0314 62.6796 21.3757 62.0238 20.5665 62.0238C20.2245 62.0238 19.9109 62.1417 19.6614 62.3382C19.4304 60.8103 19.3011 59.2584 19.2796 57.6845H66.9919C67.8011 57.6845 68.4568 57.0287 68.4568 56.2197C68.4568 55.4107 67.8011 54.7549 66.9919 54.7549H66.3925C67.3253 52.8338 67.8523 50.6799 67.8523 48.4035C67.8523 47.1111 66.8634 46.0465 65.6033 45.9256C66.1519 45.4082 66.8366 45.0594 67.5999 44.9264C67.8236 44.8875 68.0505 44.8678 68.2747 44.8678C70.1659 44.8678 71.773 46.2207 72.0958 48.0844C72.1331 48.3002 72.1523 48.5229 72.1525 48.7465C72.1534 49.5051 72.7335 50.1375 73.4892 50.2039C75.2397 50.3576 76.672 51.6742 76.9722 53.4055C77.0518 53.8658 77.0419 54.3201 76.962 54.7549H75.3903C74.5811 54.7549 73.9255 55.4107 73.9255 56.2197C73.9255 57.0287 74.5811 57.6845 75.3903 57.6845H86.7754C86.7391 60.3716 86.393 62.9964 85.7475 65.5431L77.8089 70.2294C77.3233 68.5396 76.1948 67.1062 74.6399 66.2359C72.896 65.2599 70.8235 65.1074 68.9544 65.8173L52.6047 72.0286C51.8482 72.3159 51.4682 73.162 51.7555 73.9183C52.0428 74.6747 52.8896 75.0544 53.6449 74.7675L55.7988 73.9493L56.4675 77.5601C56.5982 78.2653 57.2138 78.7585 57.9062 78.7585C57.9947 78.7585 58.0845 78.7503 58.1748 78.7337C58.9701 78.5864 59.4957 77.8222 59.3484 77.0266L58.5826 72.8919L69.9944 68.5566C71.0519 68.155 72.2233 68.2411 73.2091 68.7929C74.1931 69.3435 74.8747 70.2927 75.0794 71.3966L78.0429 87.3956C78.2471 88.4989 77.9509 89.6264 77.2298 90.4893ZM82.4563 79.0233C81.7729 79.1489 81.2719 79.7372 81.2565 80.4319C81.2413 81.1266 81.7163 81.7364 82.3934 81.8917L93.2996 84.3932L93.0272 86.2211L80.3839 83.9491L78.4075 73.2784L89.42 66.7777L90.3373 68.4021L81.0487 74.6112C80.4712 74.9974 80.2442 75.736 80.5055 76.3798C80.7667 77.0235 81.4444 77.3954 82.1276 77.2698L96.7186 74.5895L97.0436 76.3435L82.4563 79.0233Z" fill="black"/>
</svg>
