<svg width="100" height="100" viewBox="0 0 100 100" fill="none" xmlns="http://www.w3.org/2000/svg">
<path d="M70 76.1328C65.5664 79.082 62.0312 83.2031 59.7852 88.0273C58.5742 88.2227 57.3437 88.3398 56.1133 88.3203C56.1133 88.3203 47.5977 88.3203 43.3203 83.8086C39.0625 88.3203 30.5273 88.3203 30.5273 88.3203C7.10938 88.3203 4.98047 54.3945 4.98047 47.5977C4.98047 38.5547 11.3672 24.9805 26.2891 24.9805C41.2109 24.9805 43.3203 31.7578 43.3203 31.7578C43.3203 31.7578 45.2539 25.6055 58.3203 25.0195C58.3594 33.75 64.8828 40.1758 69.9805 43.8281C65.5664 46.6016 58.3789 52.2656 58.3203 60.0391C58.3984 67.5391 65.0781 73.0664 70 76.1328Z" fill="#F44335"/>
<path d="M58.3398 60.0586C58.3984 52.2656 65.5859 46.6016 70 43.8477C64.9023 40.1953 58.3594 33.7891 58.3398 25.0391C56.6797 25.1172 55 25.293 53.3594 25.6055C53.6719 34.043 60.0195 40.2539 65 43.8281C60.5859 46.6016 53.3984 52.2656 53.3398 60.0391C53.3984 67.5 60.0977 73.0469 65 76.1133C60.5664 79.0625 57.0312 83.1836 54.7852 88.0078C54.4531 88.0664 54.1016 88.1055 53.75 88.1445C54.5313 88.2422 55.332 88.3008 56.1133 88.3203C57.3437 88.3203 58.5742 88.2227 59.7852 88.0273C62.0312 83.2031 65.5664 79.082 70 76.1328C65.0781 73.0664 58.3984 67.5391 58.3398 60.0586Z" fill="#C81E1E"/>
<path d="M55.8398 16.3086C50.7422 20 41.6797 20 41.6797 20C41.6797 20 41.6797 11.6015 45.2734 7.10936C48.3398 3.28123 54.7461 2.05077 57.9297 1.6992C58.8867 1.54295 59.7852 2.18748 59.9414 3.12498C59.9414 3.16405 59.9609 3.22264 59.9609 3.2617C60.1367 6.46483 59.9805 13.3008 55.8398 16.3086Z" fill="#A4C400"/>
<path d="M59.9414 3.24218C59.8633 2.28515 59.0039 1.5625 58.0469 1.66015C58.0078 1.66015 57.9492 1.67968 57.9102 1.67968C56.7578 1.8164 55.625 2.01172 54.4922 2.26562C54.7461 2.51953 54.9219 2.87109 54.9414 3.24218C55.1172 6.46484 54.9805 13.3008 50.8203 16.2891C48.0469 18.0469 44.9219 19.1602 41.6602 19.5508C41.6406 19.8242 41.6406 20 41.6406 20C41.6406 20 50.7031 20 55.8008 16.3086C59.9805 13.3008 60.1367 6.46484 59.9414 3.24218Z" fill="#90AC00"/>
<path d="M95 25C95 33.75 88.457 40.1758 83.3594 43.8476C82.5781 44.414 81.8555 44.9219 81.1523 45.3515C79.9219 46.1328 78.6523 46.7773 77.4414 47.4219C77.168 47.5586 76.9336 47.6953 76.6797 47.8125C76.1719 48.0859 75.6836 48.3398 75.1758 48.6328C70.4297 51.3086 65.3711 55.6836 65.332 60C65.3906 65.3906 72.8906 70.0586 75.1563 71.3672C75.6641 71.6601 76.1523 71.914 76.6797 72.1875C76.4258 72.3242 76.1719 72.4609 75.918 72.5781C74.707 73.2031 73.4375 73.8672 72.207 74.6484C71.4453 75.1367 70.7227 75.6054 70.0195 76.1328C65.0977 73.0664 58.418 67.539 58.3594 60.0586C58.418 52.2656 65.6055 46.6015 70.0195 43.8476C70.6055 43.4765 71.1523 43.164 71.6211 42.8906C72.4414 42.4219 73.2813 41.9726 74.1406 41.5429C75.0391 41.0742 75.8984 40.625 76.6992 40.1367C76.8945 40.039 77.0898 39.9023 77.3047 39.7851C78.0273 39.3359 78.8477 38.789 79.668 38.1445C83.4961 35.2734 88.0274 30.6836 88.0274 24.9804C88.1641 23.0469 89.8242 21.6015 91.7578 21.7383C93.4961 21.875 94.8828 23.2617 95 25Z" fill="#60A917"/>
<path d="M95 95C94.8633 96.9336 93.2031 98.3789 91.2695 98.2422C89.5312 98.125 88.1445 96.7383 88.0273 95C88.0273 88.0469 81.3086 82.7539 77.2852 80.2148C77.0898 80.0781 76.875 79.9609 76.6602 79.8438C77.4805 79.3555 78.3203 78.9063 79.2188 78.4375C80.0781 78.0078 80.918 77.5586 81.7578 77.0898C82.2656 76.7969 82.793 76.4844 83.3398 76.1328C90.8789 81.543 95 88.1641 95 95Z" fill="#60A917"/>
<path d="M76.6797 40.1562C75.8594 40.6445 75.0195 41.0937 74.1211 41.5625C73.2617 41.9922 72.4219 42.4414 71.6016 42.9101C71.1328 43.1836 70.5859 43.4961 70 43.8672C64.9023 40.2148 58.3594 33.8086 58.3398 25.0586V25C58.4766 23.0664 60.1367 21.6211 62.0703 21.7578C63.8086 21.875 65.1953 23.2617 65.3125 25C65.3125 25.1758 65.3125 25.3711 65.332 25.5469C65.6641 32.2265 72.1289 37.3047 76.0547 39.7851C76.25 39.9219 76.4648 40.039 76.6797 40.1562Z" fill="#A4C400"/>
<path d="M95 59.9414C94.9414 67.5391 88.2422 73.0664 83.3398 76.1328C82.793 76.5039 82.2656 76.8164 81.7578 77.0898C80.918 77.5586 80.0781 78.0078 79.2187 78.4375C78.3203 78.9062 77.4609 79.3555 76.6602 79.8437C76.4648 79.9414 76.2695 80.0781 76.0547 80.1953C72.0312 82.7539 65.3125 88.0469 65.3125 95C65.1758 96.9336 63.5156 98.3789 61.582 98.2422C59.8437 98.125 58.457 96.7383 58.3398 95C58.3594 92.5977 58.8477 90.2344 59.7852 88.0273C62.0312 83.2031 65.5664 79.082 70 76.1328C70.7031 75.625 71.4258 75.1367 72.1875 74.6484C73.418 73.8672 74.6875 73.2227 75.8984 72.5781C76.1719 72.4414 76.4062 72.3047 76.6602 72.1875C76.8164 72.1094 76.9531 72.0312 77.0898 71.9531C77.4609 71.7773 77.8125 71.5625 78.1641 71.3672C80.4688 70.0586 87.9687 65.3906 88.0078 60C87.9687 56.7188 85.0391 53.3984 81.5625 50.8203C80.4687 50.0391 79.3555 49.3164 78.1836 48.6523C77.6758 48.3594 77.1875 48.0859 76.6602 47.8125C76.9141 47.6758 77.168 47.5391 77.4219 47.4219C78.6328 46.7969 79.9023 46.1328 81.1328 45.3516C81.8164 44.9219 82.5586 44.4141 83.3398 43.8477C87.7539 46.6211 94.9414 52.2852 95 59.9414Z" fill="#A4C400"/>
<path d="M30.5469 90C30.8984 90 38.457 89.961 43.3398 86.0742C48.2227 89.961 55.7812 90 56.1328 90C56.5625 90 56.9727 89.961 57.4023 89.9414C56.9336 91.582 56.6992 93.2813 56.6797 95C56.8359 97.8516 59.2773 100.02 62.1289 99.8633C64.7461 99.707 66.8359 97.6172 66.9922 95C66.9922 88.9844 72.9688 84.1797 76.6602 81.7969C80.4102 84.1992 86.3477 88.9649 86.3477 95C86.4844 97.8516 88.9258 100.039 91.7773 99.9024C94.4336 99.7656 96.543 97.6563 96.6797 95C96.6797 88.2813 92.9688 81.6992 86.2109 76.2305C91.3281 72.6367 96.6211 67.168 96.6797 59.9219C96.6211 52.5977 90.7812 47.0117 86.2109 43.75C91.3477 39.6094 96.6797 33.3008 96.6797 25C96.5234 22.1485 94.082 19.9805 91.2305 20.1367C88.6133 20.293 86.5234 22.3828 86.3672 25C86.3672 30.0195 82.1875 34.1992 78.6523 36.836C78.0273 37.3047 77.3438 37.7735 76.6797 38.2031C73.0664 35.8789 67.3047 31.2891 66.9922 25.4102C66.9727 25.2735 66.9727 25.1367 66.9727 25C66.875 22.1485 64.4727 19.9219 61.6211 20.0391C59.5117 20.1172 57.6562 21.4844 56.9531 23.4766C50.7031 23.9649 46.9531 25.7422 44.7461 27.4805C44.5117 25.4688 44.0625 23.4961 43.3789 21.6016C46.3867 21.4063 52.6758 20.6445 56.8164 17.6563C61.5039 14.2578 61.8555 7.10939 61.6211 3.16408C61.5625 2.26564 61.1328 1.4258 60.4492 0.85939C59.6875 0.23439 58.7109 -0.0585792 57.7344 0.0586083C54.043 0.488296 47.3633 1.85548 43.9648 6.09376C41.8945 9.08205 40.6445 12.5586 40.293 16.1914C37.3047 12.5781 33.0078 10.3711 28.3594 10H28.3398C27.4219 10 26.6602 10.7227 26.6602 11.6406C26.6602 12.5586 27.3828 13.3203 28.3008 13.3203C28.8086 13.3399 39.2773 13.7695 41.3281 27.0117C38.6523 25.1172 34.0625 23.3203 26.3086 23.3203C10.4688 23.3203 3.33984 37.5195 3.33984 47.5977C3.33984 49.3555 3.65234 90 30.5469 90ZM46.5625 8.14455C49.3164 4.70705 55.5469 3.65236 58.1055 3.33986H58.1445C58.2031 3.33986 58.2422 3.35939 58.2812 3.37892C58.418 6.0547 58.3594 12.4024 54.8437 14.961C51.5234 17.3633 46.1719 18.0664 43.418 18.2617C43.6328 15.7031 44.3164 10.957 46.5625 8.14455ZM93.3398 95C93.2422 96.0156 92.3438 96.7383 91.3477 96.6406C90.4688 96.5625 89.7852 95.8594 89.707 95C89.707 88.1836 84.1797 82.9688 79.9414 79.961L80 79.9219C80.8789 79.4727 81.7383 79.0235 82.5977 78.5352C82.8125 78.418 83.0273 78.2617 83.2422 78.1445C89.7266 83.1055 93.3398 89.043 93.3398 95ZM93.3398 59.9219C93.2812 66.5625 87.4414 71.6016 82.4805 74.707L82.4609 74.7266L82.4219 74.7656C81.9141 75.1172 81.4062 75.4102 80.957 75.6641C80.1367 76.1133 79.3164 76.5625 78.4766 76.9922C77.5391 77.4805 76.6602 77.9297 75.9375 78.3789C75.7617 78.457 75.5859 78.5742 75.4102 78.6914L75.1953 78.8281C70.8984 81.5625 63.6914 87.2852 63.6914 95.0391C63.6133 96.0547 62.7344 96.8164 61.7188 96.7383C60.8203 96.6797 60.0977 95.957 60.0195 95.0391C60.0391 92.8711 60.4883 90.7227 61.3477 88.711C63.4766 84.1602 66.8359 80.293 71.0156 77.5C71.6797 76.9922 72.3633 76.543 73.1055 76.0938C74.2188 75.3906 75.3906 74.7852 76.5234 74.1797L76.6797 74.1016C76.9336 73.9649 77.1875 73.8477 77.4805 73.6719L77.6367 73.5938C77.7148 73.5547 77.793 73.5156 77.8711 73.457C78.2617 73.2617 78.6523 73.0469 79.0234 72.832C82.2266 71.0156 89.668 66.1719 89.7266 60C89.6875 55.6446 85.8203 51.8945 82.5977 49.4922C81.8164 48.9258 80.9961 48.3984 80.1758 47.8906C80.8203 47.5391 81.4453 47.1875 82.0898 46.7774C82.5195 46.5039 82.9688 46.1914 83.418 45.8789C87.4609 48.5742 93.2812 53.5742 93.3398 59.9219ZM75.9961 50.0781C76.2109 49.961 76.4453 49.8242 76.6602 49.707C76.8945 49.8438 77.1289 49.9414 77.3828 50.0977C78.4961 50.7227 79.5508 51.4063 80.5859 52.1485C84.2383 54.8438 86.3281 57.7149 86.3672 59.9805C86.3281 63.5742 81.5039 67.5781 77.3633 69.9219C77.1484 70.0391 76.9141 70.1758 76.6797 70.293C76.4453 70.1758 76.2109 70.0586 75.9961 69.9219C71.6602 67.461 67.0312 63.5547 66.9922 60.0195C67.0312 56.3867 71.8555 52.4024 75.9961 50.0781ZM80.6445 39.4922C84.7656 36.4063 89.6875 31.3867 89.6875 25C89.8047 23.9844 90.7031 23.2617 91.6992 23.3789C92.5586 23.4766 93.2227 24.1406 93.3203 25C93.3203 32.9297 87.3633 38.8867 82.3633 42.5C81.6016 43.0469 80.8984 43.5352 80.2539 43.9453C79.1406 44.6485 77.9688 45.2539 76.8359 45.8594L76.6797 45.9375C76.4258 46.0742 76.1719 46.1914 75.8789 46.3672C75.3711 46.6406 74.8633 46.9141 74.3359 47.207C71.8359 48.6133 63.7109 53.6719 63.6328 60.0391C63.6914 65.4883 69.6289 69.9805 73.1641 72.168C72.5391 72.5195 71.9141 72.8711 71.2695 73.2813C70.8008 73.5742 70.3906 73.8867 69.9609 74.1797C65.2344 71.0742 60.0391 66.25 59.9805 60.1172C60.0391 53.125 66.8164 47.832 70.8594 45.293C71.4258 44.9414 71.9531 44.6289 72.4023 44.375C73.2031 43.9258 74.0234 43.4766 74.8633 43.0664C75.8008 42.5781 76.6797 42.1289 77.4023 41.6797C77.5781 41.6016 77.7539 41.4844 77.9297 41.3672L78.1445 41.25C79.043 40.6641 79.8828 40.0977 80.6445 39.4922ZM61.8359 23.3399C62.793 23.3008 63.6133 24.043 63.6523 25C63.6523 25.2344 63.6523 25.4688 63.6719 25.625C64.0039 32.1289 69.3359 37.1289 73.418 40.0195L73.3594 40.0586C72.4805 40.5078 71.6211 40.9766 70.7812 41.4453C70.5664 41.5625 70.332 41.6992 70.0977 41.8359C65.3125 38.2227 60.0391 32.5195 60 24.9805C60.0391 24.043 60.8594 23.2813 61.8359 23.3399ZM26.3086 26.6602C39.5508 26.6602 41.7383 32.2461 41.7578 32.2852C42.2656 33.7695 44.3945 33.7891 44.9219 32.3242C44.9414 32.2656 46.7188 27.7344 56.7578 26.836C57.4609 34.2774 62.3828 39.9414 67.1289 43.7695C62.5586 47.0117 56.7188 52.6172 56.6602 60.0977C56.7188 67.2266 61.9922 72.6563 67.1289 76.25C63.5742 79.0039 60.6836 82.5 58.6719 86.5235C57.832 86.6406 56.9727 86.6797 56.1328 86.6992C56.0547 86.6992 48.2617 86.6406 44.5508 82.6953C43.8867 82.0313 42.793 82.0313 42.1289 82.6953C38.418 86.6211 30.625 86.6992 30.5664 86.6992C6.93359 86.6602 6.66016 49.2188 6.66016 47.6172C6.66016 38.9258 12.7539 26.6602 26.3086 26.6602Z" fill="black"/>
<path d="M83.3398 23.3398C83.3398 22.4219 82.5977 21.6797 81.6797 21.6797H71.6797C70.7617 21.6797 70.0195 22.4219 70.0195 23.3398C70.0195 24.2578 70.7617 25 71.6797 25H81.6797C82.5781 25 83.3398 24.2578 83.3398 23.3398Z" fill="black"/>
<path d="M71.6602 61.6602H81.6602C82.5781 61.6602 83.3203 60.918 83.3203 60C83.3203 59.082 82.5781 58.3398 81.6602 58.3398H71.6602C70.7422 58.3398 70 59.082 70 60C70 60.918 70.7422 61.6602 71.6602 61.6602Z" fill="black"/>
<path d="M75 28.3398C74.082 28.3398 73.3398 29.082 73.3398 30C73.3398 30.918 74.082 31.6602 75 31.6602H78.3398C79.2578 31.6602 80 30.918 80 30C80 29.082 79.2578 28.3398 78.3398 28.3398H75Z" fill="black"/>
<path d="M70 95C70 95.918 70.7422 96.6602 71.6602 96.6602H81.6602C82.5781 96.6602 83.3203 95.918 83.3203 95C83.3203 94.082 82.5781 93.3398 81.6602 93.3398H71.6602C70.7422 93.3398 70 94.082 70 95Z" fill="black"/>
<path d="M78.3398 90C79.2578 90 80 89.2578 80 88.3398C80 87.4219 79.2578 86.6797 78.3398 86.6797H75C74.082 86.6797 73.3398 87.4219 73.3398 88.3398C73.3398 89.2578 74.082 90 75 90H78.3398Z" fill="black"/>
<path d="M76.6602 56.6602C77.577 56.6602 78.3203 55.9169 78.3203 55C78.3203 54.0831 77.577 53.3398 76.6602 53.3398C75.7433 53.3398 75 54.0831 75 55C75 55.9169 75.7433 56.6602 76.6602 56.6602Z" fill="black"/>
<path d="M76.6602 66.6602C77.577 66.6602 78.3203 65.9169 78.3203 65C78.3203 64.0831 77.577 63.3398 76.6602 63.3398C75.7433 63.3398 75 64.0831 75 65C75 65.9169 75.7433 66.6602 76.6602 66.6602Z" fill="black"/>
</svg>
