<svg width="100" height="100" viewBox="0 0 100 100" fill="none" xmlns="http://www.w3.org/2000/svg">
<g clip-path="url(#clip0_562_3549)">
<path d="M32.3789 38.0433H63.7391V60.5439H32.3789V38.0433Z" fill="#8AC9FE"/>
<path d="M59.709 38.0433H63.74V60.5437H59.709V38.0433Z" fill="#60B7FF"/>
<path d="M75.1302 71.9033C75.1302 81.7329 69.7477 90.3028 61.7696 94.8299C57.9377 97.0056 53.5063 98.2477 48.7858 98.2477C34.2358 98.2477 22.4414 86.4534 22.4414 71.9033C22.4414 57.3532 34.2358 45.5589 48.7858 45.5589C52.8012 45.5589 56.6058 46.4573 60.0099 48.0627C68.9469 52.2773 75.1302 61.3687 75.1302 71.9033Z" fill="#EAF6FF"/>
<path d="M75.1309 71.9033C75.1309 81.7329 69.7484 90.3028 61.7703 94.8299C56.3448 91.0918 52.7434 84.8656 52.6711 77.8229C52.6203 72.999 54.2042 68.5461 56.9033 64.9857C57.9091 63.6576 58.2958 61.9487 57.9208 60.3258C57.6494 59.1559 57.5049 57.9372 57.5049 56.6853C57.5049 53.5136 58.4247 50.5547 60.0106 48.0627C68.9477 52.2773 75.1309 61.3687 75.1309 71.9033Z" fill="#C8EFFE"/>
<path d="M59.7958 71.9033C59.7958 76.4363 57.0557 80.3287 53.1418 82.0161C51.806 82.5942 50.3334 82.9126 48.7866 82.9126C42.7068 82.9126 37.7773 77.9831 37.7773 71.9033C37.7773 65.8236 42.7068 60.8941 48.7866 60.8941C52.1087 60.8941 55.089 62.3667 57.1065 64.6947C58.7822 66.6262 59.7958 69.1457 59.7958 71.9033Z" fill="#CB97E7"/>
<path d="M59.7958 71.9033C59.7958 76.4363 57.0557 80.3287 53.1418 82.0161C52.8469 80.6607 52.6867 79.2584 52.6711 77.823C52.6203 72.999 54.2042 68.5461 56.9033 64.9857C56.9756 64.89 57.0439 64.7943 57.1064 64.6947C58.7821 66.6262 59.7958 69.1457 59.7958 71.9033Z" fill="#BD80E1"/>
<path d="M93.3079 60.2183C93.6038 58.9006 93.7382 57.522 93.688 56.1037C93.3947 47.8176 86.7342 41.0449 78.4536 40.6253C69.1921 40.1562 61.5357 47.5266 61.5357 56.6853C61.5357 57.9378 61.6794 59.1565 61.9507 60.3263C62.3268 61.9481 61.9386 63.6578 60.9332 64.9849C58.2349 68.5468 56.6506 72.9992 56.7004 77.8239C56.8189 89.3136 66.3272 98.6276 77.8171 98.5198C89.2775 98.4124 98.5346 89.0888 98.5346 77.603C98.5346 72.8788 96.9681 68.5209 94.3266 65.0191C93.2915 63.6471 92.9312 61.8954 93.3079 60.2183Z" fill="#FEA613"/>
<path d="M94.3262 65.0193C93.2911 63.6471 92.9308 61.8954 93.3075 60.2185C93.6034 58.9008 93.7378 57.5222 93.6876 56.1039C93.3943 47.8178 86.7338 41.0451 78.4532 40.6256C77.4778 40.5761 76.5207 40.6146 75.5879 40.7322C83.319 41.6956 89.3771 48.2109 89.6565 56.1039C89.7067 57.5222 89.5726 58.901 89.2765 60.2185C88.8997 61.8956 89.2601 63.6473 90.2952 65.0193C92.9367 68.5209 94.5032 72.8791 94.5032 77.6032C94.5032 88.474 86.2104 97.4062 75.6062 98.4229C76.3336 98.4934 77.0708 98.527 77.8169 98.52C89.2773 98.4126 98.5342 89.089 98.5342 77.6032C98.5342 72.8789 96.9677 68.5209 94.3262 65.0193Z" fill="#FE9901"/>
<path d="M28.6797 28.599L3.70337 21.6749C2.07962 21.2248 1.1283 19.5436 1.57847 17.92L1.58472 17.8976C2.0349 16.2738 3.71606 15.3225 5.33962 15.7727L30.3159 22.6967C31.9397 23.1469 32.891 24.8281 32.4408 26.4516L32.4346 26.4741C31.9844 28.0979 30.3032 29.0492 28.6797 28.599Z" fill="#FECE85"/>
<path d="M30.3156 22.6967L5.33929 15.7727C4.03838 15.4119 2.70231 15.9525 1.99023 17.0162C2.68668 16.5886 3.55051 16.4375 4.40027 16.673L26.2846 22.6967C27.9083 23.1469 28.8596 24.8281 28.4095 26.4516L28.4032 26.4741C28.202 27.2 27.7536 27.79 27.1753 28.182L28.6794 28.599C30.3031 29.0492 31.9841 28.0978 32.4343 26.4741L32.4405 26.4516C32.8905 24.8281 31.9392 23.1469 30.3156 22.6967Z" fill="#FEC165"/>
<path d="M74.1777 17.4325H81.0588V64.5658H74.1777V17.4325Z" fill="#7A8C98"/>
<path d="M77.0273 17.4325H81.0584V64.5658H77.0273V17.4325Z" fill="#667580"/>
<path d="M81.654 1.47961H73.5796C72.3933 1.47961 71.4316 2.44129 71.4316 3.62756V12.4949L74.1762 17.4325H81.0573L83.8021 12.4949V3.62756C83.8019 2.44129 82.8403 1.47961 81.654 1.47961Z" fill="#FEA613"/>
<path d="M81.6552 1.47961H77.6242C78.8105 1.47961 79.7721 2.44129 79.7721 3.62756V12.4949L77.0273 17.4325H81.0584L83.8032 12.4949V3.62756C83.8032 2.44129 82.8415 1.47961 81.6552 1.47961Z" fill="#FE9901"/>
<path d="M77.6174 76.2855C81.5375 76.2855 84.7153 73.1077 84.7153 69.1876C84.7153 65.2676 81.5375 62.0898 77.6174 62.0898C73.6974 62.0898 70.5195 65.2676 70.5195 69.1876C70.5195 73.1077 73.6974 76.2855 77.6174 76.2855Z" fill="#FFE5C2"/>
<path d="M77.6171 62.0899C76.9167 62.0899 76.2406 62.1931 75.6016 62.3821C78.5395 63.251 80.6839 65.9683 80.6839 69.1878C80.6839 72.4074 78.5395 75.1248 75.6016 75.9936C76.2406 76.1826 76.9167 76.2857 77.6171 76.2857C81.5372 76.2857 84.715 73.108 84.715 69.1878C84.715 65.2677 81.5372 62.0899 77.6171 62.0899Z" fill="#FED2A4"/>
<path d="M95.4956 64.1363C94.729 63.1209 94.4523 61.8093 94.736 60.54C95.0661 59.0741 95.2059 57.5638 95.1516 56.0516C94.8827 48.4465 89.7509 41.9423 82.5224 39.8412V17.8122L85.0824 13.2066C85.2035 12.9888 85.267 12.7439 85.267 12.4949V3.62756C85.267 1.63547 83.6464 0.0146484 81.6541 0.0146484H73.5797C71.5876 0.0146484 69.9669 1.63527 69.9669 3.62756V12.4947C69.9669 12.7437 70.0304 12.9886 70.1515 13.2064L72.7123 17.8132V39.8393C69.8855 40.6638 67.2936 42.2028 65.2049 44.291V39.5078H66.662C67.471 39.5078 68.1268 38.852 68.1268 38.0431C68.1268 37.2341 67.471 36.5783 66.662 36.5783H29.5799C28.7709 36.5783 28.1151 37.2341 28.1151 38.0431C28.1151 38.852 28.7709 39.5078 29.5799 39.5078H30.9155V50.596C24.5903 55.9008 20.9766 63.6254 20.9766 71.9031C20.9766 78.6368 23.3829 84.8187 27.38 89.6355L22.7896 97.5095C22.3822 98.2085 22.6185 99.1051 23.3173 99.5127C23.5493 99.6479 23.803 99.7121 24.0538 99.7121C24.5578 99.7121 25.0484 99.4518 25.3205 98.9848L29.4619 91.8809C34.4691 96.7255 41.2847 99.7121 48.7858 99.7121C52.0231 99.7121 55.1952 99.1604 58.214 98.0724C58.9751 97.7981 59.3696 96.9587 59.0954 96.1976C58.8212 95.4367 57.982 95.042 57.2207 95.3162C54.5214 96.289 51.6835 96.7824 48.7858 96.7824C35.0671 96.7824 23.9061 85.6214 23.9061 71.9027C23.6348 58.5048 35.3776 46.8075 48.7858 47.0231C53.1928 47.0231 57.4761 48.1795 61.2521 50.3714C60.4801 52.3738 60.0706 54.5151 60.0706 56.6847C60.0706 58.0224 60.2233 59.3584 60.524 60.655C60.7992 61.8456 60.5229 63.1016 59.7665 64.1004C59.5516 64.3838 59.3462 64.6722 59.146 64.9634C56.8588 61.5728 52.9707 59.4289 48.7858 59.4289C41.9076 59.4289 36.3118 65.0248 36.3118 71.9029C36.3118 78.7811 41.9076 84.3769 48.7858 84.3769C51.2651 84.3769 53.6845 83.6229 55.7231 82.261C57.8744 92.3881 66.8952 99.9848 77.6191 99.9846C90.2927 100 100.063 89.5052 100 77.6019C100 72.698 98.4425 68.0416 95.4956 64.1363ZM77.6172 60.6252C76.9373 60.6252 76.2766 60.7072 75.6421 60.8576V57.1324H79.593V60.8578C78.9581 60.7072 78.2972 60.6252 77.6172 60.6252ZM75.6419 49.6896H79.5928V54.203H75.6419V49.6896ZM75.6419 46.76V42.2485H79.5928V46.76H75.6419ZM79.5928 18.8981V24.4328H75.6419V18.8981H79.5928ZM79.5928 27.3625V31.876H75.6419V27.3625H79.5928ZM79.5928 34.8055V39.319H75.6419V34.8055H79.5928ZM72.8967 3.62756C72.8967 3.25082 73.2031 2.94419 73.5798 2.94419H81.6543C82.031 2.94419 82.3376 3.25062 82.3376 3.62756V12.115L80.1959 15.968H75.0382L72.8967 12.1152V3.62756ZM62.2753 47.5822C60.0161 46.3263 57.6013 45.4003 55.096 44.8187V39.5084H62.2753V47.5822ZM40.792 39.5084V45.2511C38.3501 45.9806 36.0192 47.0489 33.8451 48.4416V39.5086H40.792V39.5084ZM43.7215 44.5498V39.5086H52.1664V44.3027C51.0501 44.167 49.9218 44.0943 48.7858 44.0943C47.0661 44.0941 45.374 44.2484 43.7215 44.5498ZM48.7858 81.4478C43.5229 81.4478 39.2413 77.1662 39.2413 71.9033C39.2413 66.6405 43.5229 62.3589 48.7858 62.3589C52.4926 62.3589 55.8948 64.5572 57.4449 67.8887C55.8542 71.1844 55.0474 75.0256 55.2733 78.9001C53.5054 80.5465 51.2257 81.4478 48.7858 81.4478ZM91.4339 91.2965C87.8827 94.9051 82.7925 97.0839 77.6193 97.0554C66.9847 97.0544 58.2747 88.4586 58.1662 77.8075C58.1183 73.5505 59.4733 69.3534 62.1013 65.87C63.3841 64.1764 63.8495 62.0352 63.378 59.9947C63.1272 58.9137 62.9999 57.8003 62.9999 56.6853C62.9999 53.331 64.1651 50.0542 66.2808 47.4588C67.9749 45.3808 70.2144 43.8068 72.7123 42.9139V62.1753C70.5029 63.7254 69.0545 66.2897 69.0545 69.1876C69.0545 72.341 70.78 75.2305 73.5578 76.7285C74.2701 77.1126 75.1583 76.8464 75.5423 76.1344C75.9262 75.4223 75.6602 74.5339 74.9482 74.1499C73.1197 73.164 71.984 71.2625 71.984 69.1876C71.984 66.0815 74.5111 63.5547 77.6172 63.5547C80.7233 63.5547 83.2503 66.0815 83.2503 69.1876C83.2503 71.2899 82.0925 73.2029 80.2289 74.1804C79.5126 74.5561 79.2362 75.4416 79.612 76.1578C79.8739 76.6572 80.3832 76.9425 80.9104 76.9425C81.1396 76.9425 81.3722 76.8886 81.5894 76.7748C84.4209 75.2897 86.1796 72.3824 86.1796 69.1876C86.1796 66.2901 84.7315 63.7258 82.5224 62.1757V42.9145C88.1102 44.9003 92.0102 50.1118 92.2241 56.1559C92.2692 57.4175 92.153 58.676 91.8776 59.8988C91.4055 62.0108 91.8719 64.1988 93.1572 65.9013C95.7172 69.2939 97.0705 73.34 97.0705 77.6025C97.0705 82.7661 95.0686 87.6293 91.4339 91.2965Z" fill="black"/>
<path d="M16.4042 39.7238C15.5953 39.7238 14.9395 40.3797 14.9395 41.1886V98.1188C14.9395 98.9278 15.5953 99.5836 16.4042 99.5836C17.2132 99.5836 17.869 98.9278 17.869 98.1188V41.1886C17.869 40.3797 17.2132 39.7238 16.4042 39.7238Z" fill="black"/>
<path d="M28.2874 30.0106C28.6882 30.1218 29.0958 30.1768 29.5006 30.1768C30.2697 30.1768 31.03 29.9782 31.7177 29.5892C32.7675 28.9951 33.5231 28.0279 33.8459 26.8631L33.8514 26.8428C34.1736 25.6806 34.0238 24.4625 33.4299 23.4127C32.836 22.363 31.8687 21.6073 30.7062 21.2851L5.72991 14.361C4.56786 14.0392 3.34936 14.1886 2.2998 14.7825C1.25005 15.3766 0.494424 16.3437 0.171588 17.5085L0.166119 17.5288C-0.156131 18.6911 -0.00633324 19.9092 0.587583 20.9589C1.1815 22.0087 2.14884 22.7643 3.31128 23.0866L14.9394 26.3102V34.3552C14.9394 35.1641 15.5953 35.8199 16.4042 35.8199C17.2131 35.8199 17.869 35.1641 17.869 34.3552V27.1223L28.2874 30.0106ZM2.98981 18.3091L2.99528 18.2888C3.10836 17.8806 3.37378 17.5407 3.74251 17.3322C4.11104 17.1236 4.53895 17.0708 4.94733 17.1841L29.9237 24.1082C30.7664 24.3418 31.2619 25.2175 31.0275 26.0626L31.022 26.0829C30.909 26.4911 30.6435 26.8309 30.2748 27.0395C29.9063 27.2479 29.4784 27.301 29.07 27.1875L4.09366 20.2635C3.25093 20.0297 2.75545 19.1541 2.98981 18.3091Z" fill="black"/>
<path d="M83.9309 84.4688H71.1015C70.2925 84.4688 69.6367 85.1246 69.6367 85.9335C69.6367 86.7425 70.2925 87.3983 71.1015 87.3983H83.9309C84.7399 87.3983 85.3957 86.7425 85.3957 85.9335C85.3957 85.1246 84.7399 84.4688 83.9309 84.4688Z" fill="black"/>
</g>
<defs>
<clipPath id="clip0_562_3549">
<rect width="100" height="100" fill="white"/>
</clipPath>
</defs>
</svg>
