<svg width="100" height="100" viewBox="0 0 100 100" fill="none" xmlns="http://www.w3.org/2000/svg">
<g clip-path="url(#clip0_563_8405)">
<path d="M34.8789 6.21602C41.1037 2.88965 48.7094 1.46484 56.5543 1.46484C64.5574 1.46484 71.2352 3.19805 76.6268 6.16934V27.6537H34.8789V6.21602Z" fill="#DF646E"/>
<path d="M19.7088 36.4062C19.3349 38.2139 18.5127 39.7607 16.8597 40.857C9.45525 45.7674 6.43748 46.5119 6.05467 49.2459C5.66482 52.0305 11.8969 56.9748 11.8969 56.9748L10.1457 63.3658C10.1107 63.4934 10.0859 63.6211 10.0666 63.7488L12.9361 67.573C14.4076 76.1719 16.0465 81.3436 17.9195 84.2742C20.2103 85.751 23.3777 86.3729 26.4972 86.3729H42.1222V95.6055L74.6236 96.9727C74.6236 96.9727 74.6236 93.1262 74.6236 87.2807C74.6236 79.3057 77.4959 71.3648 81.6713 63.3268V36.4062H19.7088Z" fill="#EEF9FA"/>
<path d="M81.6717 63.3268V68.7805C78.6124 73.9233 76.1866 79.2332 76.1866 85.9137V98.5354H42.1227V95.6057H71.7921C72.601 95.6057 73.2569 94.9498 73.2569 94.1408V85.9137C73.2569 77.9387 76.2286 72.0645 79.7421 66.3801C80.3723 65.3598 81.0204 64.3457 81.6717 63.3268ZM43.2696 84.6477C43.1098 83.8545 42.3376 83.341 41.5444 83.5008C37.5298 84.3094 30.9397 85.0854 26.2602 85.0854C23.1407 85.0854 20.2309 84.7076 17.92 84.2742C19.0233 86.0008 20.2079 86.95 21.4874 87.3629C27.5276 89.3117 42.1229 86.3731 42.1229 86.3731C42.9157 86.2131 43.4292 85.4406 43.2696 84.6477ZM20.6616 68.1709C20.8755 67.3906 20.4161 66.5848 19.636 66.3709L10.0669 63.7487C9.81764 65.3905 10.8298 66.9955 12.4708 67.4451L18.8618 69.1963C19.6438 69.4104 20.4479 68.951 20.6616 68.1709Z" fill="#DCF2F6"/>
<path d="M80.9143 67.552C85.9775 59.36 94.5566 47.2471 91.0316 37.2655C88.3607 35.3125 84.107 32.8942 79.4174 32.8942C69.4689 32.8942 61.4043 40.959 61.4043 50.9072C61.4043 55.2846 62.9662 59.2969 65.5625 62.4184C69.01 65.9524 73.8682 67.7485 78.2455 67.7485C79.1523 67.7485 80.0434 67.6813 80.9143 67.552Z" fill="#F6C4C8"/>
<path d="M91.0316 37.2654C90.9922 50.3887 84.8057 58.1881 79.7424 66.3801C78.8715 66.5094 77.9805 66.5766 77.0736 66.5766C72.6963 66.5766 68.684 65.0147 65.5625 62.4184C68.8666 66.3908 73.8465 68.9203 79.4174 68.9203C80.1811 68.9203 80.9336 68.8727 81.6723 68.7805C86.6666 60.3852 93.349 52.4354 93.9234 39.6967C93.9234 39.6967 92.84 38.5877 91.0316 37.2654Z" fill="#E6989E"/>
<path d="M72.3537 38.6026C72.3537 33.9223 70.7982 29.2346 66.7051 25.1416C63.3826 22.3485 59.0963 20.6649 54.416 20.6649C43.8621 20.6649 35.3066 29.2205 35.3066 39.7742C35.3066 44.4545 36.99 48.7408 39.7832 52.0633C43.5875 55.8676 48.5639 57.7119 53.2441 57.7119C63.7982 57.7119 72.3537 49.1565 72.3537 38.6026Z" fill="#87A0AF"/>
<path d="M66.7049 25.1418C69.498 28.4642 71.1816 32.7506 71.1816 37.4308C71.1816 47.9848 62.626 56.5402 52.0723 56.5402C47.392 56.5402 43.1057 54.8566 39.7832 52.0635C43.2887 56.233 48.5424 58.884 54.416 58.884C64.9699 58.884 73.5254 50.3283 73.5254 39.7746C73.5252 33.9008 70.8744 28.6471 66.7049 25.1418Z" fill="#607882"/>
<path d="M92.5904 38.7236C92.5934 38.5228 92.5947 38.3207 92.5947 38.1174C92.5947 25.0287 88.3637 14.4693 76.6258 6.17029C68.9676 8.66111 63.4316 15.856 63.4316 24.3449C63.4316 29.0252 65.115 33.3115 67.9082 36.634C71.1816 40.2326 76.4936 42.0873 81.1738 42.0873C85.1951 42.0869 89.5121 40.8449 92.5904 38.7236Z" fill="#BAE6EF"/>
<path d="M76.6266 6.16974C76.6262 6.16974 76.626 6.16993 76.6256 6.17013C85.7973 13.9496 91.032 24.052 91.032 37.1406C91.032 37.344 91.0307 37.5461 91.0277 37.7469C87.9494 39.8682 84.2184 41.1104 80.1973 41.1104C75.517 41.1104 71.2307 39.4268 67.9082 36.6336C71.4137 40.8031 76.6674 43.4541 82.541 43.4541C86.8053 43.4541 90.7428 42.0568 93.9221 39.6959C93.9482 39.1143 93.9617 38.5227 93.9617 37.9205C93.9617 24.8791 88.3178 12.6133 76.6266 6.16974Z" fill="#94D8E6"/>
<path d="M62.6953 41.6525C61.7516 41.6525 47.0809 41.6525 46.1369 41.6525C44.2373 41.6525 42.6973 43.1926 42.6973 45.0922C42.6973 46.7101 44.009 48.0219 45.627 48.0219H63.2051C64.823 48.0219 66.1348 46.7101 66.1348 45.0922C66.135 43.1926 64.5949 41.6525 62.6953 41.6525Z" fill="#EEF9FA"/>
<path d="M53.2141 24.1494C53.2141 19.4692 51.518 14.641 47.5654 10.6885C44.243 7.89532 39.9566 6.21173 35.2764 6.21173C35.1437 6.21173 35.0113 6.2131 34.8791 6.21583C26.0383 10.9402 19.9828 19.5008 19.9828 33.2641C19.9828 34.368 19.9117 35.4254 19.709 36.4063C20.0049 36.8213 20.3184 37.2227 20.6457 37.6121C24.4186 41.385 29.4252 43.2588 34.1043 43.2588C44.6586 43.2588 53.2141 34.7033 53.2141 24.1494Z" fill="#FFE07D"/>
<path d="M47.5658 10.6887C50.359 14.0111 52.0426 18.2974 52.0426 22.9777C52.0426 33.5316 43.4869 42.0871 32.9332 42.0871C28.2541 42.0871 23.9686 40.4043 20.6465 37.6123C24.152 41.7807 29.4045 44.4308 35.277 44.4308C45.8309 44.4308 54.3863 35.8752 54.3863 25.3215C54.3861 19.4476 51.7353 14.1939 47.5658 10.6887Z" fill="#FFC250"/>
<path d="M76.1856 100C75.3764 100 74.7208 99.3443 74.7208 98.5352V85.9137C74.7208 79.8877 76.5524 75.0012 79.0663 70.3822C73.4374 70.282 68.1491 67.767 64.5112 63.4473C63.9899 62.8285 64.0692 61.9045 64.688 61.3834C65.3067 60.8621 66.2309 60.9414 66.7518 61.5602C69.9071 65.3068 74.5231 67.4557 79.4161 67.4557C79.8737 67.4557 80.3339 67.4367 80.7901 67.3994C81.5692 66.1146 82.3831 64.8361 83.2056 63.5439C87.1093 57.4109 91.1268 51.0988 92.2124 42.5111C89.2526 44.0936 85.9579 44.9193 82.5409 44.9193C79.7581 44.9193 77.102 44.3639 74.6788 43.3582C73.905 47.7639 71.7124 51.8 68.3888 54.8766C64.5763 58.4055 59.6139 60.3492 54.4159 60.3492C47.2776 60.3492 40.753 56.732 36.9624 50.6738C36.5335 49.9879 36.7415 49.084 37.4272 48.6549C38.113 48.226 39.0167 48.4338 39.4462 49.1197C42.6977 54.3168 48.294 57.4195 54.4161 57.4195C58.8741 57.4195 63.1296 55.7529 66.3989 52.7268C69.471 49.8828 71.4165 46.084 71.9263 41.9643C65.9626 38.3574 61.9669 31.809 61.9669 24.3453C61.9669 24.1719 61.969 23.9986 61.9731 23.8262C59.9846 22.884 57.8163 22.3205 55.6089 22.1707C55.7675 23.1982 55.8497 24.2506 55.8497 25.3219C55.8497 31.1609 53.4046 36.4398 49.4845 40.1881H62.6952C65.3997 40.1881 67.5997 42.3883 67.5997 45.0926C67.5997 47.5156 65.6282 49.4871 63.2052 49.4871H45.627C43.204 49.4871 41.2325 47.5156 41.2325 45.0926C41.2325 45.0672 41.2327 45.042 41.2331 45.0166C39.3464 45.5885 37.3466 45.8959 35.2755 45.8959C28.6393 45.8959 22.3739 42.6666 18.5153 37.2574C18.2639 36.9051 18.1909 36.4795 18.278 36.0877C18.4388 35.3008 18.5171 34.3768 18.5171 33.2645C18.5171 21.8809 22.4731 13.1764 30.2753 7.39277C36.7995 2.55625 45.8864 0 56.5538 0C68.7743 0 78.9034 3.99609 85.8462 11.5561C92.0243 18.2834 95.4268 27.6467 95.4268 37.9205C95.4268 49.7998 90.4706 57.5865 85.6774 65.1168C81.5495 71.602 77.6507 77.7273 77.6507 85.9135V98.5352C77.6505 99.3443 76.9948 100 76.1856 100ZM61.7403 46.557H63.2052C64.013 46.557 64.67 45.9 64.67 45.0922C64.67 44.0033 63.7841 43.1174 62.6952 43.1174H61.7403V46.557ZM55.8809 46.557H58.8106V43.1174H55.8809V46.557ZM50.0216 46.557H52.9513V43.1174H50.0216V46.557ZM46.137 43.1174C45.0481 43.1174 44.1624 44.0033 44.1624 45.0922C44.1624 45.9 44.8194 46.557 45.6272 46.557H47.0921V43.1174H46.137ZM21.2606 36.0428C24.5923 40.3891 29.786 42.9658 35.2757 42.9658C45.0048 42.9658 52.9202 35.0506 52.9202 25.3213C52.9202 15.592 45.005 7.67656 35.2757 7.67656C35.27 7.67656 35.2643 7.67656 35.2587 7.67656C34.1124 8.30625 33.0313 8.99648 32.02 9.74609C25.0044 14.9467 21.447 22.8594 21.447 33.2641C21.447 34.3027 21.3856 35.2186 21.2606 36.0428ZM70.8157 7.78887C71.252 7.78887 71.6839 7.98301 71.9727 8.3543C72.4696 8.99297 72.3548 9.91309 71.7163 10.4098C67.3823 13.7818 64.8966 18.8611 64.8966 24.3449C64.8966 34.074 72.8118 41.9895 82.5413 41.9895C86.1239 41.9895 89.5491 40.9312 92.4839 38.9238C92.4927 38.5928 92.497 38.2586 92.497 37.9207C92.497 28.3826 89.3684 19.7232 83.6882 13.5377C77.3151 6.59785 67.9323 2.92969 56.5538 2.92969C50.5587 2.92969 45.1175 3.7709 40.4251 5.39941C47.3145 7.18125 52.8153 12.4523 54.9223 19.2064C57.4497 19.2687 59.9524 19.7984 62.2764 20.7568C63.1475 15.7691 65.8261 11.2805 69.9173 8.09766C70.1846 7.88965 70.5014 7.78887 70.8157 7.78887ZM42.122 100C41.3128 100 40.6571 99.3443 40.6571 98.5352V88.134C36.5089 88.8592 26.1403 90.4037 21.0366 88.7566C16.6503 87.3416 13.9169 81.5223 11.6479 68.7164C9.3702 67.8527 8.07606 65.3744 8.7325 62.9783L10.2347 57.4963C9.61238 56.9615 8.68582 56.1275 7.76863 55.1648C5.40887 52.6879 4.37352 50.6854 4.6036 49.0426C4.96863 46.435 6.96375 45.2354 10.5858 43.057C11.9764 42.2209 13.7069 41.1803 15.7729 39.8191C16.4481 39.374 17.3569 39.5609 17.802 40.2365C18.2472 40.9121 18.0602 41.8205 17.3847 42.2656C15.2686 43.66 13.5093 44.718 12.0958 45.5678C8.73856 47.5869 7.66863 48.2812 7.50516 49.4488C7.45145 49.8328 7.88895 51.0387 9.86942 53.1227C11.2913 54.6186 12.7923 55.8154 12.8071 55.8273C13.2665 56.1922 13.4641 56.7961 13.3091 57.3617L11.5579 63.7527C11.4268 64.2307 11.4897 64.7311 11.7352 65.1615C11.9805 65.5922 12.379 65.9014 12.8569 66.0324L19.2479 67.7838C20.028 67.9977 20.4874 68.8035 20.2735 69.5838C20.0595 70.3639 19.2546 70.823 18.4735 70.6094L14.7872 69.5992C16.7071 79.8014 18.9923 85.0189 21.936 85.9688C26.5929 87.4713 37.8774 85.7336 41.8327 84.9369C42.2624 84.8504 42.7099 84.9611 43.0497 85.2396C43.3895 85.5178 43.5866 85.9338 43.5866 86.373V98.5352C43.5868 99.3443 42.9311 100 42.122 100ZM79.1259 63.7363C78.2643 63.7363 77.5634 63.0354 77.5634 62.1738C77.5634 61.3123 78.2643 60.6113 79.1259 60.6113C79.9874 60.6113 80.6884 61.3123 80.6884 62.1738C80.6884 63.0354 79.9874 63.7363 79.1259 63.7363ZM79.1259 58.5605C78.3167 58.5605 77.661 57.9049 77.661 57.0957V55.2041C77.661 54.3949 78.3167 53.7393 79.1259 53.7393C79.5311 53.7393 79.9085 53.577 80.188 53.2822C80.4675 52.9879 80.6096 52.6018 80.5886 52.1945C80.5499 51.4461 79.9075 50.825 79.1567 50.8098C78.4118 50.7885 77.7774 51.3357 77.6751 52.0682C77.6657 52.1355 77.661 52.2055 77.661 52.2744C77.661 53.0836 77.0054 53.7393 76.1962 53.7393C75.387 53.7393 74.7313 53.0836 74.7313 52.2744C74.7313 52.0717 74.7454 51.8666 74.7733 51.6648C75.0768 49.4918 76.9397 47.8799 79.1261 47.8799C79.1559 47.8799 79.1858 47.8801 79.2159 47.8809C81.5075 47.927 83.3958 49.7551 83.5145 52.0428C83.5776 53.2602 83.1511 54.4168 82.3128 55.2996C81.8327 55.8055 81.2391 56.1859 80.5909 56.4158V57.0957C80.5907 57.9049 79.935 58.5605 79.1259 58.5605ZM60.8614 37.258H59.1036C58.2944 37.258 57.6388 36.6023 57.6388 35.7932V30.8688C57.6388 30.0596 58.2944 29.4039 59.1036 29.4039C59.9128 29.4039 60.5684 30.0596 60.5684 30.8688V34.3283H60.8614C61.6706 34.3283 62.3263 34.984 62.3263 35.7932C62.3263 36.6023 61.6706 37.258 60.8614 37.258ZM88.1856 36.3408C87.8108 36.3408 87.4358 36.1979 87.1497 35.9119C83.6477 32.41 77.9499 32.41 74.4481 35.9119C73.8757 36.484 72.9483 36.4836 72.3764 35.9119C71.8044 35.3396 71.8044 34.4123 72.3764 33.8402C74.6264 31.5904 77.6175 30.3516 80.7991 30.3516C83.9805 30.3516 86.9718 31.5906 89.2216 33.8402C89.7936 34.4125 89.7936 35.3398 89.2216 35.9119C88.9354 36.1979 88.5604 36.3408 88.1856 36.3408ZM35.2755 36.1299C30.5036 36.1299 26.3798 32.8953 25.2468 28.2643C25.0546 27.4785 25.5356 26.6855 26.3216 26.4934C27.1075 26.301 27.9003 26.7822 28.0925 27.5682C28.9036 30.8844 31.8573 33.2004 35.2753 33.2004C38.6931 33.2004 41.6468 30.8844 42.4579 27.5682C42.6501 26.7824 43.4431 26.3016 44.2288 26.4934C45.0145 26.6855 45.4958 27.4785 45.3036 28.2643C44.171 32.8955 40.0473 36.1299 35.2755 36.1299ZM83.3569 27.6307C83.3567 27.6307 83.3567 27.6307 83.3569 27.6307C82.0317 27.6305 80.7893 27.0955 79.8587 26.1236C79.2991 25.5395 79.319 24.6123 79.9034 24.0525C80.4874 23.493 81.4147 23.5127 81.9745 24.0973C82.3473 24.4865 82.8384 24.701 83.3569 24.701C83.8757 24.701 84.3669 24.4865 84.7397 24.0971C85.2989 23.5129 86.2262 23.4928 86.8108 24.0525C87.395 24.6121 87.4149 25.5395 86.8554 26.1236C85.9245 27.0955 84.6819 27.6307 83.3569 27.6307ZM72.8794 27.6307C72.8792 27.6307 72.8792 27.6307 72.8794 27.6307C71.5542 27.6305 70.3118 27.0955 69.3811 26.1236C68.8216 25.5395 68.8415 24.6123 69.4259 24.0525C70.0098 23.493 70.9374 23.5127 71.4969 24.0973C71.8698 24.4865 72.3608 24.701 72.8794 24.701C73.3981 24.701 73.8893 24.4865 74.2622 24.0971C74.8214 23.5129 75.7487 23.4928 76.3333 24.0525C76.9175 24.6121 76.9374 25.5395 76.3778 26.1236C75.4468 27.0955 74.2044 27.6307 72.8794 27.6307ZM38.2052 26.3643C37.396 26.3643 36.7403 25.7086 36.7403 24.8994V19.975C36.7403 19.1658 37.396 18.5102 38.2052 18.5102C39.0143 18.5102 39.67 19.1658 39.67 19.975V24.8994C39.67 25.7086 39.0143 26.3643 38.2052 26.3643ZM32.3458 26.3643C31.5366 26.3643 30.8809 25.7086 30.8809 24.8994V19.975C30.8809 19.1658 31.5366 18.5102 32.3458 18.5102C33.155 18.5102 33.8106 19.1658 33.8106 19.975V24.8994C33.8106 25.7086 33.155 26.3643 32.3458 26.3643ZM61.1259 13.4484C60.7509 13.4484 60.3761 13.3055 60.0899 13.0195L58.6132 11.5426L57.1364 13.0195C56.5641 13.5914 55.6368 13.5914 55.0647 13.0195C54.4927 12.4473 54.4927 11.5199 55.0647 10.9479L56.5417 9.47109L55.0647 7.99434C54.4927 7.42207 54.4927 6.49473 55.0647 5.92266C55.637 5.35078 56.5643 5.35078 57.1364 5.92266L58.6132 7.39961L60.0899 5.92266C60.6618 5.35078 61.5891 5.35059 62.1616 5.92266C62.7337 6.49492 62.7337 7.42227 62.1616 7.99434L60.6847 9.47109L62.1616 10.9479C62.7337 11.5201 62.7337 12.4475 62.1616 13.0195C61.8757 13.3055 61.5007 13.4484 61.1259 13.4484Z" fill="black"/>
</g>
<defs>
<clipPath id="clip0_563_8405">
<rect width="100" height="100" fill="white"/>
</clipPath>
</defs>
</svg>
