<svg width="100" height="100" viewBox="0 0 100 100" fill="none" xmlns="http://www.w3.org/2000/svg">
<g clip-path="url(#clip0_562_502)">
<path d="M21.8972 22.645H12.6978C8.51461 22.645 5.23102 26.0661 5.5984 30.0417L7.14645 46.7935H21.8972V22.645Z" fill="#D77F4A"/>
<path d="M40.3484 69.6253C39.0955 69.6253 10.8656 69.6253 9.60391 69.6253H9.39707C5.79297 69.6253 2.87109 72.5472 2.87109 76.1513V89.6589H47.1314V76.1513C47.1316 72.78 44.5318 69.6253 40.3484 69.6253Z" fill="#0AB69F"/>
<path d="M18.1914 69.6253C18.2361 73.3485 21.2668 76.3534 25.0006 76.3534C28.7346 76.3534 31.765 73.3485 31.8098 69.6253H18.1914Z" fill="#82AEE3"/>
<path d="M25.0023 71.7489L18.191 67.1808L14.0687 69.1669C13.6101 69.3878 13.516 70.0001 13.8871 70.3488L19.4624 75.5851C19.7308 75.837 20.1453 75.848 20.4265 75.6107L25.0023 71.7489Z" fill="#C0D6F2"/>
<path d="M25.002 71.7489L31.8133 67.1808L35.9355 69.1669C36.3941 69.3878 36.4883 70.0001 36.1172 70.3488L30.5418 75.5851C30.2734 75.837 29.859 75.848 29.5777 75.6107L25.002 71.7489Z" fill="#C0D6F2"/>
<path d="M31.8121 53.2349H18.1895V67.1808L25.0008 71.749L31.8121 67.1808V53.2349Z" fill="#FFB09E"/>
<path d="M40.3477 69.6253C40.0176 69.6253 37.8135 69.6253 34.7246 69.6253C38.908 69.6253 41.5078 72.78 41.5078 76.1513V89.6589H47.1309V76.1513C47.1309 72.78 44.5311 69.6253 40.3477 69.6253Z" fill="#01998D"/>
<path d="M35.9357 69.1669L31.8133 67.1808L29.6762 68.614L30.8238 69.1669C31.2824 69.3878 31.3766 70.0001 31.0055 70.3488L27.3789 73.755L29.5779 75.6109C29.8592 75.8482 30.2736 75.8372 30.542 75.5853L36.1174 70.3489C36.4885 70.0001 36.3943 69.3878 35.9357 69.1669Z" fill="#B2CAEC"/>
<path d="M18.1895 66.0144C20.2285 66.9305 22.4893 67.4404 24.8695 67.4404H25.0834C27.4824 67.4404 29.7605 66.9226 31.8123 65.9928V52.7238H18.1895V66.0144Z" fill="#FFA78F"/>
<path d="M16.9523 51.1764H8.53145C5.45156 51.1764 2.95508 48.6797 2.95508 45.6C2.95508 42.5201 5.45176 40.0237 8.53145 40.0237H16.9523V51.1764Z" fill="#FFB09E"/>
<path d="M33 40.0235H41.4109C44.4908 40.0235 46.9873 42.5201 46.9873 45.5998C46.9873 48.6795 44.4906 51.1762 41.4109 51.1762H33V40.0235Z" fill="#FFA78F"/>
<path d="M25.083 64.8847H24.8691C15.8568 64.8847 8.55078 57.5786 8.55078 48.5663V42.6339C8.55078 33.6216 15.8568 26.3155 24.8691 26.3155H25.083C34.0953 26.3155 41.4014 33.6216 41.4014 42.6339V48.5663C41.4014 57.5786 34.0953 64.8847 25.083 64.8847Z" fill="#FFCEBF"/>
<path d="M25.0832 26.3155H24.8693C24.2135 26.3155 23.5672 26.3554 22.9316 26.4306C31.0305 27.389 37.3123 34.2772 37.3123 42.6339V48.5663C37.3123 56.9229 31.0305 63.8112 22.9316 64.7696C23.5672 64.8448 24.2137 64.8847 24.8693 64.8847H25.0832C34.0955 64.8847 41.4016 57.5786 41.4016 48.5663V42.6339C41.4016 33.6214 34.0955 26.3155 25.0832 26.3155Z" fill="#FFB09E"/>
<path d="M36.8986 54.3215H34.0498C33.3029 54.3215 32.6973 53.716 32.6973 52.9689C32.6973 52.2219 33.3027 51.6164 34.0498 51.6164H36.8986C37.6455 51.6164 38.2512 52.2219 38.2512 52.9689C38.2512 53.716 37.6457 54.3215 36.8986 54.3215Z" fill="#FE8F83"/>
<path d="M15.9535 54.3215H13.1045C12.3576 54.3215 11.752 53.716 11.752 52.9689C11.752 52.2219 12.3574 51.6164 13.1045 51.6164H15.9533C16.7002 51.6164 17.3059 52.2219 17.3059 52.9689C17.3059 53.716 16.7004 54.3215 15.9535 54.3215Z" fill="#FE8F83"/>
<path d="M40.7641 23.0273C39.4572 19.8341 36.3207 17.5837 32.657 17.5837H19.3813C13.9811 17.5837 9.60352 21.9614 9.60352 27.3614C9.60352 34.2306 15.0742 39.8181 21.8959 40.0144V40.0237H44.4965L45.4217 30.0128C45.7135 26.8548 43.7006 24.0487 40.7641 23.0273Z" fill="#D77F4A"/>
<path d="M40.7652 23.0273C39.4584 19.8341 36.3219 17.5837 32.6582 17.5837H27.0352C30.6988 17.5837 33.8354 19.8341 35.1422 23.0273C38.0787 24.0487 40.0916 26.8548 39.7996 30.0126L38.8744 40.0236H44.4975L45.4227 30.0126C45.7147 26.8548 43.7018 24.0487 40.7652 23.0273Z" fill="#C86D36"/>
<path d="M29.9645 53.1392C29.9645 55.8935 27.7316 58.1263 24.9773 58.1263C22.223 58.1263 19.9902 55.8935 19.9902 53.1392H29.9645Z" fill="#FFB09E"/>
<path d="M84.1312 70.8053C78.8314 70.8053 74.5352 66.509 74.5352 61.2092C74.5352 55.9094 78.8314 51.6131 84.1312 51.6131C89.4311 51.6131 93.7273 55.9094 93.7273 61.2092C93.7273 66.509 89.4311 70.8053 84.1312 70.8053Z" fill="#5A5A5A"/>
<path d="M84.1318 51.6131C83.2486 51.6131 82.3941 51.7348 81.582 51.9582C85.6436 53.0754 88.6283 56.7926 88.6283 61.2092C88.6283 65.6258 85.6437 69.343 81.582 70.4602C82.3943 70.6836 83.2486 70.8053 84.1318 70.8053C89.4316 70.8053 93.7279 66.509 93.7279 61.2092C93.7279 55.9094 89.4316 51.6131 84.1318 51.6131Z" fill="#444444"/>
<path d="M96.6643 89.6591H52.0469V76.0892C52.0469 72.2142 55.1883 69.0728 59.0633 69.0728H89.6479C93.5229 69.0728 96.6643 72.2142 96.6643 76.0892V89.6591Z" fill="#C0D6F2"/>
<path d="M89.6484 69.0726H85.0586C88.9336 69.0726 92.075 72.214 92.075 76.089V89.6589H96.6648V76.089C96.6648 72.214 93.5234 69.0726 89.6484 69.0726Z" fill="#B2CAEC"/>
<path d="M59.1641 69.0726H89.5469V89.6589H59.1641V69.0726Z" fill="#528FD8"/>
<path d="M74.5363 76.0734C70.6707 76.0734 67.5371 72.9396 67.5371 69.0742V52.2301H81.5357V69.0742C81.5355 72.9396 78.402 76.0734 74.5363 76.0734Z" fill="#FFB09E"/>
<path d="M67.5371 68.2213C69.6639 69.1893 72.027 69.7289 74.5162 69.7289C77.0213 69.7289 79.3984 69.182 81.5357 68.2023V52.2301H67.5371V68.2213Z" fill="#FFA78F"/>
<path d="M66.2643 52.0786H57.6141C54.4477 52.0786 51.8809 49.5118 51.8809 46.3454C51.8809 43.1789 54.4477 40.6122 57.6141 40.6122H66.2643V52.0786Z" fill="#FFB09E"/>
<path d="M82.7559 40.612H91.4061C94.5725 40.612 97.1393 43.1788 97.1393 46.3452C97.1393 49.5116 94.5725 52.0784 91.4061 52.0784H82.7559V40.612Z" fill="#FFA78F"/>
<path d="M74.5148 66.1591C65.1998 66.1591 57.6484 58.6077 57.6484 49.2927V43.4052C57.6484 34.0901 65.1998 26.5388 74.5148 26.5388C83.8299 26.5388 91.3812 34.0901 91.3812 43.4052V49.2927C91.3812 58.6077 83.8299 66.1591 74.5148 66.1591Z" fill="#FFCEBF"/>
<path d="M74.5156 26.5388C73.7371 26.5388 72.9713 26.5927 72.2207 26.6948C80.45 27.8145 86.7922 34.8686 86.7922 43.4052V49.2927C86.7922 57.8292 80.45 64.8833 72.2207 66.003C72.9713 66.1052 73.7371 66.1591 74.5156 66.1591C83.8307 66.1591 91.382 58.6077 91.382 49.2927V43.4052C91.382 34.0901 83.8307 26.5388 74.5156 26.5388Z" fill="#FFB09E"/>
<path d="M74.5148 66.1591C65.1998 66.1591 57.6484 58.6077 57.6484 49.2927V43.4052C57.6484 34.0901 65.1998 26.5388 74.5148 26.5388C83.8299 26.5388 91.3812 34.0901 91.3812 43.4052V49.2927C91.3812 58.6077 83.8299 66.1591 74.5148 66.1591Z" fill="#FFCEBF"/>
<path d="M74.5164 26.5388C73.8258 26.5388 73.1453 26.5813 72.4766 26.6618C80.8295 27.669 87.3031 34.7806 87.3031 43.4052V49.2927C87.3031 57.9173 80.8295 65.0288 72.4766 66.036C73.1453 66.1167 73.826 66.1591 74.5164 66.1591C83.8314 66.1591 91.3828 58.6077 91.3828 49.2927V43.4052C91.3828 34.0901 83.8314 26.5388 74.5164 26.5388Z" fill="#FFB09E"/>
<path d="M59.1963 40.612H54.6406V37.3851C54.6406 27.624 62.5535 19.7111 72.3147 19.7111H72.3635C74.1727 19.7111 75.6391 21.1777 75.6391 22.9866V24.1691C75.6393 33.2503 68.2775 40.612 59.1963 40.612Z" fill="#5A5A5A"/>
<path d="M93.7275 40.612H75.0398C68.3279 40.612 62.8867 35.1708 62.8867 28.4589C62.8867 23.6277 66.8033 19.7111 71.6346 19.7111H76.8611C86.1762 19.7111 93.7275 27.2624 93.7275 36.5775V40.612Z" fill="#5A5A5A"/>
<path d="M76.8615 19.7112H71.7617C81.0768 19.7112 88.6281 27.2626 88.6281 36.5777V40.6122H93.7279V36.5777C93.7279 27.2626 86.1766 19.7112 76.8615 19.7112Z" fill="#444444"/>
<path d="M86.2344 54.4047H83.3922C82.6471 54.4047 82.043 53.8006 82.043 53.0553C82.043 52.31 82.6471 51.7061 83.3922 51.7061H86.2344C86.9795 51.7061 87.5836 52.3102 87.5836 53.0553C87.5836 53.8006 86.9795 54.4047 86.2344 54.4047Z" fill="#FE8F83"/>
<path d="M65.3381 54.4047H62.4959C61.7508 54.4047 61.1465 53.8006 61.1465 53.0553C61.1465 52.31 61.7506 51.7061 62.4959 51.7061H65.3381C66.0832 51.7061 66.6873 52.3102 66.6873 53.0553C66.6873 53.8006 66.0832 54.4047 65.3381 54.4047Z" fill="#FE8F83"/>
<path d="M79.4879 54.4045C79.4879 57.1588 77.2551 59.3916 74.5008 59.3916C71.7465 59.3916 69.5137 57.1588 69.5137 54.4045H79.4879Z" fill="#FFB09E"/>
<path d="M49.1313 22.0703C49.7481 22.5666 50.6272 22.5662 51.2438 22.0695L58.8263 15.9605C60.7569 14.4049 62.1735 12.3029 62.8903 9.92949C63.5112 7.87402 63.0878 5.64472 61.7563 3.96015C59.9132 1.62773 56.7327 0.824995 54.0034 2.00292C52.5175 2.62011 51.3128 3.42597 50.1821 4.44492C49.0561 3.42988 47.8516 2.62187 46.3608 2.00292C43.6315 0.824799 40.4511 1.62773 38.6079 3.96015C37.2764 5.64472 36.853 7.87402 37.4739 9.92949C38.1909 12.3031 39.6073 14.4051 41.538 15.9605L49.1313 22.0703Z" fill="#EB5569"/>
<path d="M61.7562 3.96034C59.9131 1.62792 56.7326 0.825183 54.0033 2.00311C53.9451 2.02733 53.89 2.0537 53.8326 2.0785C54.7418 2.50077 55.5631 3.13397 56.2162 3.96034C57.5475 5.64491 57.9711 7.87421 57.3502 9.92968C56.6332 12.3033 55.2168 14.4053 53.2861 15.9607L47.416 20.6902L49.1314 22.0705C49.7482 22.5668 50.6273 22.5664 51.2439 22.0697L58.8264 15.9607C60.757 14.4053 62.1736 12.3031 62.8904 9.92968C63.5111 7.87421 63.0875 5.64491 61.7562 3.96034Z" fill="#E53950"/>
<path d="M41.6621 83.0092H41.0637C37.8141 83.0092 35.1797 85.6436 35.1797 88.8932V98.5352H65.1877V88.8932C65.1877 85.6436 62.5533 83.0092 59.3037 83.0092H41.6621Z" fill="#F07281"/>
<path d="M59.3035 83.0092H54.4844C57.734 83.0092 60.3684 85.6436 60.3684 88.8932V98.5352H65.1875V88.8932C65.1873 85.6436 62.5531 83.0092 59.3035 83.0092Z" fill="#EB5569"/>
<path d="M50.1641 89.2064C47.3336 89.2064 45.0391 86.9118 45.0391 84.0813V71.748H55.2889V84.0813C55.2889 86.9118 52.9943 89.2064 50.1641 89.2064Z" fill="#FFB09E"/>
<path d="M45.0391 83.3517C46.5996 84.0552 48.3326 84.4503 50.16 84.4503C51.9904 84.4503 53.7264 84.0538 55.2889 83.3481V71.7481H45.0391V83.3517Z" fill="#FFA78F"/>
<path d="M68.4107 84.5814H70.9719V77.529C70.9719 73.4103 67.633 70.0714 63.5143 70.0714H60.9531V77.1238C60.9531 81.2425 64.292 84.5814 68.4107 84.5814Z" fill="#5A5A5A"/>
<path d="M63.5143 70.0714H60.9531V70.2859C64.2141 71.0827 66.6348 74.0224 66.6348 77.5288V84.3665C67.2041 84.5056 67.7984 84.581 68.4107 84.581H70.9719V77.529C70.9719 73.4103 67.633 70.0714 63.5143 70.0714Z" fill="#444444"/>
<path d="M31.8795 84.5814H29.3184V77.529C29.3184 73.4103 32.6572 70.0714 36.776 70.0714H39.3371V77.1238C39.3371 81.2425 35.9982 84.5814 31.8795 84.5814Z" fill="#5A5A5A"/>
<path d="M44.1272 71.748H37.7752C35.4561 71.748 33.5762 69.8679 33.5762 67.549C33.5762 65.2298 35.4563 63.3499 37.7752 63.3499H44.1272V71.748Z" fill="#FFB09E"/>
<path d="M56.1621 63.3499H62.5141C64.8332 63.3499 66.7131 65.23 66.7131 67.549C66.7131 69.8681 64.833 71.748 62.5141 71.748H56.1621V63.3499Z" fill="#FFA78F"/>
<path d="M50.1592 53.0459C43.3381 53.0459 37.8086 58.5072 37.8086 65.2441V66.0687V69.8619C37.8086 76.5988 43.3381 82.0601 50.1592 82.0601C56.9803 82.0601 62.5098 76.5988 62.5098 69.8619V65.2439C62.5098 58.507 56.9803 53.0459 50.1592 53.0459Z" fill="#FFCEBF"/>
<path d="M50.1604 53.0459C49.5098 53.0459 48.8713 53.0963 48.248 53.192C54.1609 54.0998 58.6863 59.1496 58.6863 65.2441V69.8619C58.6863 75.9562 54.1609 81.006 48.248 81.9138C48.8713 82.0095 49.51 82.0599 50.1604 82.0599C56.9814 82.0599 62.5109 76.5986 62.5109 69.8619V65.2439C62.5109 58.507 56.9814 53.0459 50.1604 53.0459Z" fill="#FFB09E"/>
<path d="M43.6771 74.2675H41.5613C40.9277 74.2675 40.4141 73.754 40.4141 73.1202C40.4141 72.4866 40.9275 71.973 41.5613 71.973H43.6771C44.3107 71.973 44.8244 72.4864 44.8244 73.1202C44.8244 73.754 44.3109 74.2675 43.6771 74.2675Z" fill="#FE8F83"/>
<path d="M58.8061 74.2675H56.6902C56.0566 74.2675 55.543 73.754 55.543 73.1202C55.543 72.4866 56.0564 71.973 56.6902 71.973H58.8061C59.4396 71.973 59.9533 72.4864 59.9533 73.1202C59.9533 73.754 59.4398 74.2675 58.8061 74.2675Z" fill="#FE8F83"/>
<path d="M51.4535 45.9236C50.7305 45.9236 50.1441 46.5098 50.1441 47.2328C50.1441 46.5098 49.5578 45.9236 48.8348 45.9236C41.0312 45.9236 34.7051 52.2496 34.7051 60.0533V63.35H42.9502C46.9232 63.35 50.1441 60.1293 50.1441 56.1563C50.1443 60.1293 53.365 63.35 57.3381 63.35H65.5832V60.0533C65.583 52.2496 59.257 45.9236 51.4535 45.9236Z" fill="#5A5A5A"/>
<path d="M51.4551 45.9236C51.0799 45.9236 50.7426 46.0822 50.5039 46.335C56.6717 47.8524 61.2475 53.4172 61.2475 60.0533V63.35H65.5848V60.0533C65.5846 52.2496 59.2586 45.9236 51.4551 45.9236Z" fill="#444444"/>
<path d="M80.9041 72.372L74.0643 74.0718L74.46 73.0587C74.6811 72.4929 74.5008 71.8489 74.0184 71.48C73.374 70.9872 72.4447 71.1626 72.0244 71.8564L69.3818 76.2171C69.1658 76.5239 68.9912 76.863 68.8695 77.2286L61.7812 98.5355H70.5379L73.7447 82.1103L81.7418 73.8237C81.8986 73.6612 81.9863 73.4442 81.9863 73.2183C81.9861 72.6513 81.4541 72.2353 80.9041 72.372Z" fill="#FFCEBF"/>
<path d="M80.9033 72.372L78.6154 72.9405C78.6445 73.0274 78.6613 73.1202 78.6613 73.2181C78.6613 73.4438 78.5736 73.661 78.4168 73.8235L70.4197 82.1101L67.2129 98.5353H70.5369L73.7438 82.1101L81.7408 73.8235C81.8977 73.661 81.9854 73.444 81.9854 73.2181C81.9854 72.6513 81.4533 72.2353 80.9033 72.372Z" fill="#FFB09E"/>
<path d="M30.3211 76.2169L27.6785 71.8562C27.2582 71.1626 26.3287 70.9872 25.6846 71.4798C25.202 71.8489 25.0219 72.4927 25.243 73.0585L25.6387 74.0716L18.7988 72.3718C18.2488 72.2351 17.7168 72.6513 17.7168 73.2179C17.7168 73.4437 17.8045 73.6608 17.9613 73.8233L25.9584 82.1099L29.1652 98.5351H37.9219L30.8336 77.2282C30.7117 76.8628 30.5371 76.5237 30.3211 76.2169Z" fill="#FFCEBF"/>
<path d="M82.7461 50.5891C83.5553 50.5891 84.2109 49.9332 84.2109 49.1243V47.4729C84.9604 47.4082 85.5484 46.7795 85.5484 46.0135C85.5484 45.2045 84.8928 44.5487 84.0836 44.5487H82.7461C81.9369 44.5487 81.2812 45.2045 81.2812 46.0135V49.1243C81.2812 49.9332 81.9369 50.5891 82.7461 50.5891Z" fill="black"/>
<path d="M66.2555 44.5485H64.918C64.1088 44.5485 63.4531 45.2043 63.4531 46.0133C63.4531 46.7793 64.0412 47.4082 64.7906 47.4727V49.124C64.7906 49.933 65.4463 50.5889 66.2555 50.5889C67.0646 50.5889 67.7203 49.933 67.7203 49.124V46.0133C67.7203 45.2043 67.0646 44.5485 66.2555 44.5485Z" fill="black"/>
<path d="M68.0488 54.4045C68.0488 57.9621 70.9432 60.8564 74.5008 60.8564C78.0584 60.8564 80.9525 57.9621 80.9525 54.4045C80.9525 53.5955 80.2969 52.9396 79.4877 52.9396H69.5137C68.7045 52.9396 68.0488 53.5955 68.0488 54.4045ZM77.7035 55.8693C77.1465 57.0822 75.9203 57.9267 74.5008 57.9267C73.0809 57.9267 71.8547 57.0822 71.2979 55.8693H77.7035Z" fill="black"/>
<path d="M16.8086 43.8149C15.9994 43.8149 15.3438 44.4707 15.3438 45.2797V48.3071C15.3438 49.1161 15.9994 49.7719 16.8086 49.7719C17.6178 49.7719 18.2734 49.1161 18.2734 48.3071V45.2797C18.2734 44.4707 17.6178 43.8149 16.8086 43.8149Z" fill="black"/>
<path d="M32.8555 49.7719C33.6646 49.7719 34.3203 49.1161 34.3203 48.3071V45.2797C34.3203 44.4707 33.6646 43.8149 32.8555 43.8149C32.0463 43.8149 31.3906 44.4707 31.3906 45.2797V48.3071C31.3906 49.1162 32.0465 49.7719 32.8555 49.7719Z" fill="black"/>
<path d="M24.9773 59.591C28.535 59.591 31.4291 56.6967 31.4291 53.1391C31.4291 52.3301 30.7734 51.6742 29.9643 51.6742H19.9902C19.1811 51.6742 18.5254 52.3301 18.5254 53.1391C18.5254 56.6969 21.4199 59.591 24.9773 59.591ZM28.1803 54.6041C27.6232 55.817 26.3971 56.6615 24.9775 56.6615C23.5576 56.6615 22.3314 55.817 21.7746 54.6041H28.1803Z" fill="black"/>
<path d="M40.6199 17.102L48.2133 23.2115C49.3682 24.1404 51.0143 24.1359 52.1629 23.2102L59.7455 17.1012C61.9147 15.3533 63.4871 13.0199 64.2926 10.3529C65.0594 7.81368 64.5135 5.08673 62.9055 3.05177C60.5871 0.11837 56.6824 -0.74413 53.4324 0.653917C52.2539 1.14435 51.1987 1.75392 50.1821 2.53732C48.361 1.134 46.0522 1.07786e-05 43.7612 1.07786e-05C41.2883 1.07786e-05 38.991 1.11232 37.4586 3.05177C35.8719 5.05919 35.2946 7.78165 36.0713 10.3529C36.8774 13.0201 38.4498 15.3535 40.6199 17.102ZM39.7574 4.86857C40.7309 3.63653 42.1903 2.93009 43.7614 2.93009C45.6746 2.93009 47.7809 4.25294 49.2016 5.53341C49.759 6.03556 50.6057 6.03556 51.1631 5.53341C52.236 4.56622 53.317 3.87442 54.5653 3.35607C54.5715 3.35353 54.5778 3.35099 54.5842 3.34806C56.6703 2.44767 59.1463 3.01993 60.6072 4.86857C63.2186 8.17325 60.5865 12.6613 57.9076 14.8201C49.7537 21.3893 50.2485 21.0889 50.05 20.9291L42.4571 14.8201C39.8533 12.7223 37.0848 8.24942 39.7574 4.86857Z" fill="black"/>
<path d="M92.7039 68.1796C94.2865 66.2314 95.1836 63.78 95.1836 61.2091C95.1836 58.4511 94.1358 55.7838 92.2871 53.7557C92.3104 53.6633 92.3334 53.5707 92.3551 53.4777C95.8723 53.0074 98.5947 49.9893 98.5947 46.3453C98.5947 43.7651 97.2293 41.4987 95.1836 40.2278V38.2754C95.1836 37.4665 94.528 36.8106 93.7188 36.8106C92.9096 36.8106 92.2539 37.4665 92.2539 38.2754V39.1473C91.8297 39.1473 91.562 39.1473 91.1413 39.1473H75.0313C69.94 39.1473 65.5876 35.5417 64.5673 30.6399C64.5632 30.6204 64.5591 30.6009 64.5552 30.5811C63.4498 25.1144 67.1025 21.1759 71.6259 21.1759H76.8526C83.6188 21.1759 89.525 25.5091 91.5498 31.9583C91.792 32.7302 92.6147 33.1593 93.386 32.9171C94.1578 32.6747 94.5871 31.8526 94.3447 31.0807C93.2012 27.438 90.8776 24.1685 87.8022 21.8747C84.6196 19.5009 80.8333 18.2462 76.8524 18.2462H71.6257C71.0214 18.2462 70.4304 18.3021 69.8546 18.4031C60.3386 19.6208 53.1672 27.7737 53.1672 37.385V40.612C53.1672 40.6372 53.1697 40.6616 53.1709 40.6864C51.9385 41.6543 51.0252 43.0157 50.6283 44.5844C50.4594 44.6371 50.2973 44.7049 50.1437 44.7875C49.4162 44.3963 48.8104 44.4571 48.3604 44.4705C48.0858 42.7752 47.2041 41.2817 45.9461 40.2196C45.9488 40.1991 45.9528 40.179 45.9547 40.1581L46.8797 30.1472C47.2053 26.6267 45.1627 23.3157 41.8563 21.8818C40.1526 18.3599 36.6088 16.1185 32.6565 16.1185H19.3814C15.2406 16.1185 11.6181 18.3702 9.66735 21.712C6.09451 23.0058 3.79589 26.469 4.13866 30.1763L5.00135 39.511C2.9039 40.7317 1.48984 43.003 1.48984 45.5998C1.48984 49.1465 4.12597 52.0877 7.54158 52.5703C8.72888 57.7103 12.1511 62.0045 16.7251 64.3712V66.2605L13.432 67.8472C13.258 67.931 13.0994 68.0376 12.9562 68.1605H9.39684C4.99081 68.1605 1.40625 71.7452 1.40625 76.1513V89.659C1.40625 90.468 2.06191 91.1239 2.87109 91.1239H15.7556C16.5648 91.1239 17.2204 90.468 17.2204 89.659C17.2204 88.8501 16.5648 88.1942 15.7556 88.1942H4.33593V76.1513C4.33593 73.3607 6.60623 71.0902 9.39684 71.0902H12.5986C12.7916 71.3616 12.7025 71.2468 18.4591 76.6536C18.6312 76.8147 18.8361 76.9487 19.0273 77.0382L24.6028 82.8157L25.6528 88.1942H22.5944C21.7853 88.1942 21.1296 88.8501 21.1296 89.659C21.1296 90.468 21.7853 91.1239 22.5944 91.1239H26.2247L27.7265 98.8158C27.8608 99.5035 28.4634 100 29.1641 100H70.5374C71.2382 100 71.8409 99.5035 71.9751 98.8158L73.4769 91.1239H96.6643C97.4734 91.1239 98.1291 90.468 98.1291 89.659V76.089C98.1293 72.4896 95.8744 69.4087 92.7039 68.1796ZM73.1915 69.7345C73.1095 69.7345 73.0282 69.7392 72.9476 69.746C72.9329 69.7472 72.9185 69.7488 72.9038 69.7503C72.1243 69.8281 71.4232 70.2187 70.9484 70.8398C70.9417 70.8484 70.9353 70.8573 70.9288 70.8659C70.8734 70.9402 70.8202 71.0165 70.7714 71.097L70.3482 71.7952C70.0091 71.3904 69.6353 71.0181 69.2314 70.6808C68.9304 69.6896 68.9919 69.1908 68.9919 66.7806C71.1884 67.4744 73.5548 67.7394 75.8351 67.5753C77.205 67.4781 78.6727 67.2097 80.0608 66.7675C80.0608 69.2163 80.1524 69.9341 79.6452 71.1753L77.5433 71.6978L75.9771 72.087C75.9177 71.7437 75.7944 71.4144 75.6175 71.1165C75.4896 70.8812 75.1052 70.4739 74.8855 70.3005C74.3921 69.9306 73.8073 69.7345 73.1915 69.7345ZM60.7246 97.0703H38.9774L36.7444 90.3581L36.6432 90.054V88.8932C36.6432 86.4565 38.6256 84.4743 41.0623 84.4743H43.5848C43.7987 88.0973 46.9096 90.8418 50.4957 90.6627C53.8473 90.4948 56.5443 87.8075 56.7412 84.4743H59.3025C61.4767 84.4743 63.3423 86.0977 63.6691 88.2196L62.8033 90.8221L60.7246 97.0703ZM18.0701 68.8644L22.3751 71.7515L19.1511 70.9503C18.4232 70.7695 17.6677 70.9568 17.1333 71.3892L15.6742 70.0187L18.0701 68.8644ZM50.1439 60.9701C51.6994 63.2869 54.3437 64.8148 57.3379 64.8148H61.0357C61.0357 64.8166 61.0359 64.8183 61.0359 64.8201C61.0418 64.9617 61.0445 65.1031 61.0445 65.2441C61.0445 70.2648 61.0775 70.4144 60.9283 71.4212C60.924 71.4499 60.9209 71.4788 60.9164 71.5073C60.1011 76.7128 55.5158 80.595 50.1586 80.595C44.8289 80.595 40.2213 76.7427 39.4008 71.5073C39.2358 70.4499 39.2727 70.2253 39.2727 65.2439C39.2727 65.1029 39.2756 64.9617 39.2813 64.8201C39.2813 64.8183 39.2815 64.8164 39.2817 64.8146H42.9496C45.9442 64.8148 48.5883 63.2869 50.1439 60.9701ZM53.7014 44.6229C54.1797 43.5448 55.0924 42.7032 56.2076 42.3137C56.1666 43.0059 56.1752 43.4364 56.1752 45.1879C55.4529 44.9588 54.5426 44.7446 53.7014 44.6229ZM67.4794 76.7659L65.599 82.4186C63.6748 81.3973 62.4166 79.3761 62.4166 77.1237V76.1675C62.9259 75.2017 63.3218 74.1601 63.5804 73.1112C64.4037 72.9554 65.2355 72.5939 65.9437 72.0558C66.3697 72.2462 66.7554 72.4747 67.1066 72.7386C67.1068 72.7388 67.107 72.7388 67.1072 72.739C67.7154 73.196 68.2279 73.7626 68.6216 74.4019C68.6378 74.4286 68.6558 74.454 68.6718 74.481C68.68 74.4948 68.6872 74.5095 68.6954 74.5235C67.8861 75.8581 67.7179 76.0483 67.4794 76.7659ZM53.823 84.0815C53.823 86.0997 52.181 87.7415 50.1629 87.7415C48.1447 87.7415 46.5029 86.0997 46.5029 84.0815V83.0397C48.9377 83.7024 51.5187 83.6663 53.823 83.0376V84.0815ZM31.322 75.0431C31.9741 73.6407 33.0516 72.6288 34.3421 72.0538C35.0198 72.5691 35.8434 72.9509 36.7391 73.1169C36.9893 74.128 37.3709 75.1476 37.8713 76.1079V77.1237C37.8713 79.5847 36.378 81.7462 34.1825 82.6571C31.7397 75.3144 32.2563 76.5851 31.322 75.0431ZM36.3434 65.2439V69.8747C35.5936 69.4142 35.1542 68.6581 35.0616 67.8734C35.0608 67.8661 35.0587 67.8591 35.0577 67.8519C34.9376 66.7656 35.4649 65.7611 36.3436 65.2197C36.3434 65.2277 36.3434 65.2357 36.3434 65.2439ZM32.3126 69.0476C32.3721 69.2644 32.4442 69.4761 32.528 69.6818C31.3483 70.3199 30.3456 71.2193 29.6075 72.2142L28.9304 71.0968C28.9163 71.0736 28.9007 71.0515 28.886 71.0286C28.8677 71.0003 28.8501 70.9714 28.8309 70.9441L31.9319 68.8644L32.3126 69.0476ZM40.4567 79.577C41.2231 80.3257 42.0762 80.988 43.0016 81.5444C40.9147 81.5444 40.4649 81.5077 39.534 81.7054C39.9297 81.0446 40.2416 80.3302 40.4567 79.577ZM63.9742 65.2382C64.7392 65.7234 65.248 66.5779 65.248 67.5492C65.248 68.4243 64.8105 69.3269 63.9742 69.8558V65.2439C63.9742 65.2421 63.9742 65.2402 63.9742 65.2382ZM59.8379 79.5987C60.0504 80.3343 60.3543 81.0343 60.7402 81.6833C60.2752 81.5927 59.7945 81.5444 59.3023 81.5444H57.3158C58.2322 80.9934 59.0771 80.3384 59.8379 79.5987ZM82.9907 65.5447C86.5719 63.6736 89.4223 60.682 91.1174 57.0541C91.8592 58.2945 92.2537 59.7158 92.2537 61.2091C92.2537 63.7148 91.0981 66.0697 89.1383 67.6078H82.9905L82.9907 65.5447ZM92.8055 50.3748C92.8631 49.4149 92.8621 43.2748 92.8051 42.3157C94.4688 42.8989 95.6651 44.485 95.6651 46.3451C95.6649 48.2053 94.4688 49.7914 92.8055 50.3748ZM89.8496 42.077C89.9008 42.6842 90.0387 49.684 89.7127 51.7312C89.5971 52.4553 89.4323 53.1633 89.2192 53.8502C89.2051 53.8953 89.1889 53.9396 89.1745 53.9846C87.1629 60.2586 81.2923 64.6941 74.5062 64.6941C71.8569 64.6941 69.2876 64.0119 67.0476 62.7685C67.0476 59.9254 67.0552 59.7799 67.022 59.1826C66.7312 53.835 63.7749 49.0858 59.1047 46.4629C59.1047 43.2805 59.0859 42.9797 59.1625 42.077C62.0845 42.077 65.021 41.3737 67.6915 39.9319C69.9452 41.3801 72.4837 42.077 75.031 42.077H89.8496ZM56.0969 39.1473V37.3852C56.0969 32.3567 58.4138 27.7995 62.0845 24.8069C61.5392 26.2335 61.3576 27.6704 61.4304 29.1509C61.4318 29.179 61.4349 29.2065 61.4365 29.2347C61.6181 32.5173 62.9478 35.5546 65.2001 37.8885C61.905 39.3315 59.5871 39.1473 56.0969 39.1473ZM50.1441 48.6977C50.9002 48.6977 51.5225 48.1246 51.6006 47.3893C51.6779 47.3903 51.7541 47.3955 51.831 47.3977C51.8352 47.3979 51.8393 47.3985 51.8434 47.3987C58.4359 47.5981 63.732 52.8391 64.0964 59.3361C64.0988 59.3799 64.1013 59.4236 64.1033 59.4674C64.1123 59.6617 64.1181 59.8566 64.1181 60.0531V61.8849C57.4416 61.8849 56.022 62.1798 54.1369 60.9052C52.6127 59.8748 51.6088 58.1304 51.6088 56.156C51.6088 55.3471 50.9531 54.6912 50.1439 54.6912C49.335 54.6912 48.6791 55.3471 48.6791 56.156C48.6791 57.933 47.8658 59.5236 46.592 60.5752C46.5213 60.6336 46.449 60.6904 46.3756 60.7455C46.2285 60.8556 46.076 60.9588 45.9184 61.0545C45.0522 61.5814 44.036 61.8851 42.95 61.8851C41.5584 61.8851 37.6872 61.8851 36.1698 61.8851C36.1698 60.8099 36.1698 61.0814 36.1698 60.0533C36.1698 53.1357 41.7575 47.4686 48.6873 47.3895C48.7654 48.1248 49.3879 48.6977 50.1441 48.6977ZM42.8668 45.6434C42.8668 42.6036 42.8733 42.3266 42.8448 41.7461C44.1742 42.2424 45.1801 43.4078 45.4506 44.8307C44.6684 45.003 43.7356 45.283 42.8668 45.6434ZM19.3814 19.0484H32.6571C35.6313 19.0484 38.2813 20.8279 39.4084 23.5819C39.5676 23.9708 39.886 24.2726 40.2829 24.4107C42.6705 25.2413 44.184 27.4896 43.9631 29.8778L43.161 38.5586C21.7269 38.5586 21.6325 38.7717 19.3829 38.1829C16.5163 37.4286 14.055 35.56 12.5355 32.8979C12.5355 32.8977 12.5353 32.8975 12.5351 32.8975C11.8158 31.6374 11.3509 30.2462 11.163 28.811C11.1627 28.8081 11.1623 28.8052 11.1619 28.8024C10.4187 23.0819 14.6623 19.0484 19.3814 19.0484ZM8.19568 26.2163C7.96247 28.5378 8.42732 31.2266 9.57145 33.5634C8.79353 34.8712 8.18064 36.3022 7.77693 37.7139L7.05545 29.9069C6.93045 28.5522 7.3656 27.2452 8.19568 26.2163ZM4.41932 45.6C4.41932 43.8184 5.55897 42.3108 7.10935 41.7434C7.07908 42.3403 7.10174 49.3106 7.10896 49.4582C5.54041 48.8781 4.41932 47.3676 4.41932 45.6ZM10.0164 48.5662V42.6338C10.0164 40.509 10.4933 38.3208 11.3939 36.3839C13.1738 38.5403 15.5849 40.1409 18.3242 40.9278C18.3575 40.9373 18.3909 40.9469 18.4243 40.9563C20.9648 41.6659 20.8364 41.4885 39.892 41.4885C39.9506 42.2512 39.937 42.1579 39.937 47.2469C35.7088 50.1805 33.2399 54.9242 33.2399 60.0533V60.9785C31.7718 61.947 30.0731 62.6832 28.272 63.0771C28.2112 63.0904 28.1501 63.1015 28.0893 63.114C26.8917 63.3599 25.9087 63.4199 24.8696 63.4199C16.6652 63.4197 10.0164 56.7373 10.0164 48.5662ZM21.3081 65.9908C22.2679 66.1859 23.2696 66.306 24.2833 66.3386C26.3825 66.407 28.3638 66.1736 30.3475 65.5581V66.3994L25.0011 69.9851L19.6544 66.3994V65.5728C20.1853 65.7359 20.7236 65.8703 21.2667 65.9822C21.2806 65.9851 21.2943 65.988 21.3081 65.9908ZM35.1784 97.0703H30.371L27.3954 81.8294C27.3413 81.552 27.2079 81.2962 27.0116 81.0928C26.3507 80.4081 21.1101 74.9774 20.448 74.2915C23.4776 75.0444 20.6269 74.336 25.2847 75.4935C26.3784 75.7651 27.3477 74.7517 27.0454 73.6763C27.0394 73.6546 27.0356 73.6325 27.0284 73.611C28.7005 76.3704 28.2688 75.6579 29.0677 76.9763C29.085 77.005 29.1036 77.0331 29.1227 77.0606C29.2614 77.2573 29.369 77.4694 29.4429 77.6911L35.8899 97.0707H35.1784V97.0703ZM69.331 97.0703H63.8121L70.2591 77.6911C70.3529 77.4091 70.1613 77.7563 72.6735 73.611C72.312 74.7025 73.2968 75.7712 74.4173 75.4933L79.2542 74.2913L72.6903 81.0927C72.4941 81.296 72.3607 81.5518 72.3066 81.8292L69.331 97.0703ZM74.0491 88.1942L75.0991 82.8157L82.795 74.8413C83.3485 74.2681 83.5942 73.4349 83.3639 72.5954C83.3561 72.5675 83.3497 72.5392 83.3411 72.5116C83.22 72.1273 82.9759 71.7403 82.6487 71.456C82.7307 71.1753 82.8311 70.7175 82.863 70.5376H88.0825V88.1944H74.0491V88.1942ZM95.1996 88.1942H91.0121V70.7075C93.4158 71.3171 95.1996 73.4986 95.1996 76.0892V88.1942Z" fill="black"/>
<path d="M50.182 78.3445C52.6484 78.3445 54.6551 76.2806 54.6551 73.7439C54.6551 72.9349 53.9994 72.279 53.1902 72.279C52.3811 72.279 51.7254 72.9349 51.7254 73.7439C51.7254 74.6652 51.033 75.4148 50.182 75.4148C49.3311 75.4148 48.6387 74.6652 48.6387 73.7439C48.6387 72.9349 47.983 72.279 47.1738 72.279C46.3646 72.279 45.709 72.9349 45.709 73.7439C45.709 76.2808 47.7156 78.3445 50.182 78.3445Z" fill="black"/>
<path d="M55.9688 71.0902C56.7779 71.0902 57.4336 70.4343 57.4336 69.6253V69.2005C57.9975 68.9966 58.4004 68.4566 58.4004 67.8224C58.4004 67.0134 57.7447 66.3576 56.9355 66.3576H55.9688C55.1596 66.3576 54.5039 67.0134 54.5039 67.8224V69.6251C54.5039 70.4343 55.1598 71.0902 55.9688 71.0902Z" fill="black"/>
<path d="M41.9648 67.8226C41.9648 68.4568 42.3678 68.9966 42.9314 69.2005V69.6253C42.9314 70.4343 43.5871 71.0902 44.3963 71.0902C45.2055 71.0902 45.8611 70.4343 45.8611 69.6253V67.8226C45.8611 67.0136 45.2055 66.3578 44.3963 66.3578H43.4297C42.6205 66.3578 41.9648 67.0136 41.9648 67.8226Z" fill="black"/>
</g>
<defs>
<clipPath id="clip0_562_502">
<rect width="100" height="100" fill="white"/>
</clipPath>
</defs>
</svg>
