<svg width="100" height="100" viewBox="0 0 100 100" fill="none" xmlns="http://www.w3.org/2000/svg">
<g clip-path="url(#clip0_562_5365)">
<path d="M98.5357 37.2967V85.9709C98.5357 89.5471 95.6334 92.4496 92.0551 92.4496H51.209C49.9531 92.4496 48.7793 92.0922 47.7871 91.4711C45.9512 90.3285 44.7285 88.2914 44.7285 85.9711V37.2967C44.7285 35.0662 45.8926 33.0193 47.7617 31.8104C50.8887 29.785 52.5527 27.0406 53.4277 24.4803C53.4395 24.4471 53.4492 24.4158 53.4609 24.3826C54.293 21.8924 54.3809 19.5858 54.3457 18.3123H88.9203C88.8832 19.6033 88.973 21.9529 89.8363 24.4803C90.7094 27.041 92.3754 29.785 95.5023 31.8104C97.3736 33.0193 98.5357 35.0662 98.5357 37.2967Z" fill="#FFE2CC"/>
<path d="M60.0742 30.824V85.0314C60.0742 88.5822 57.1855 91.4708 53.6348 91.4708H47.7871C45.9512 90.3283 44.7285 88.2912 44.7285 85.9708V37.2966C44.7285 35.0662 45.8926 33.0193 47.7617 31.8103C50.8887 29.7849 52.5527 27.0406 53.4277 24.4802C53.4395 24.447 53.4492 24.4158 53.4609 24.3826H53.6348C57.1855 24.3824 60.0742 27.2712 60.0742 30.824Z" fill="#FFDBB1"/>
<path d="M70.9816 84.8537C70.9816 87.6248 70.223 90.2224 68.9008 92.4494H51.209C47.6305 92.4494 44.7285 89.5476 44.7285 85.9709V75.1105C45.7717 73.8955 47.0141 72.8406 48.4221 72.0019C48.8803 71.7308 49.3248 71.4969 49.7756 71.29C50.0291 71.173 50.265 71.0717 50.4971 70.9801C52.0768 70.3463 53.748 69.9912 55.466 69.925L55.5266 69.923C55.698 69.9191 55.8699 69.9152 56.0434 69.9152C61.2309 69.9152 65.9656 72.542 68.7133 76.9396C70.1978 79.3076 70.9816 82.0455 70.9816 84.8537Z" fill="#FFDBB1"/>
<path d="M53.4277 24.4795C54.2914 21.9519 54.3811 19.6037 54.3451 18.3099H88.9186C88.8828 19.6035 88.9723 21.9519 89.8359 24.4795H53.4277Z" fill="#FFDBB1"/>
<path d="M98.5354 37.2963V85.9701C98.5354 89.3632 95.9282 92.1476 92.6067 92.4261C94.0476 91.238 94.9671 89.439 94.9671 87.4248V38.7509C94.9671 36.5218 93.8048 34.4761 91.9341 33.264C85.7208 29.2418 85.2768 22.3697 85.3526 19.7648L85.3546 18.3101H88.919C88.8456 20.9154 89.2891 27.7875 95.5024 31.8093C97.3731 33.0195 98.5354 35.0673 98.5354 37.2963Z" fill="#FFDBB1"/>
<path d="M93.3514 3.13513H49.9141V21.3121H93.3514V3.13513Z" fill="#B5F2D9"/>
<path d="M93.3514 18.3092H49.9141V21.3108H93.3514V18.3092Z" fill="#20CFA2"/>
<path d="M90.4191 45.7244H52.8438V77.611H90.4191V45.7244Z" fill="#FF547E"/>
<path d="M60.0689 45.7244H52.8438V77.611H60.0689V45.7244Z" fill="#E2035A"/>
<path d="M90.4191 68.7869H52.8438V77.611H90.4191V68.7869Z" fill="#B5F2D9"/>
<path d="M60.0689 68.7869H52.8438V77.611H60.0689V68.7869Z" fill="#20CFA2"/>
<path d="M69.11 77.611H52.8438V70.2588C53.7018 70.0715 54.5773 69.9604 55.4666 69.9252L55.5272 69.9233C55.6986 69.9194 55.8705 69.9155 56.0439 69.9155C61.2314 69.9155 65.9662 72.5422 68.7139 76.9399C68.8525 77.1604 68.9852 77.3848 69.11 77.611Z" fill="#20CFA2"/>
<path d="M75.6785 55.4129H73.9398V53.6742C73.9398 52.4004 72.907 51.3676 71.6332 51.3676C70.3594 51.3676 69.3266 52.4004 69.3266 53.6742V55.4129H67.5879C66.3141 55.4129 65.2812 56.4457 65.2812 57.7195C65.2812 58.9933 66.3141 60.0261 67.5879 60.0261H69.3266V61.7646C69.3266 63.0384 70.3594 64.0713 71.6332 64.0713C72.907 64.0713 73.9398 63.0384 73.9398 61.7646V60.0261H75.6785C76.9523 60.0261 77.9852 58.9933 77.9852 57.7195C77.9852 56.4455 76.9523 55.4129 75.6785 55.4129Z" fill="#B5F2D9"/>
<path d="M57.1451 30.8232V85.031C57.1451 86.9695 55.5752 88.5414 53.6369 88.5414H32.5988C31.1791 88.5414 29.9602 87.6949 29.4084 86.4822C28.9754 87.4357 28.1291 88.1613 27.0975 88.4285C26.8166 88.5025 26.5203 88.5418 26.216 88.5418H4.97305C3.03652 88.5418 1.4668 86.9699 1.4668 85.0314V30.8232C1.4668 28.8847 3.03672 27.3129 4.97305 27.3129H26.2158C27.6355 27.3129 28.8564 28.1594 29.4082 29.3701C29.9602 28.159 31.1789 27.3129 32.5986 27.3129H53.6369C55.5752 27.3131 57.1451 28.8849 57.1451 30.8232Z" fill="#B5F2D9"/>
<path d="M57.1441 69.9567V85.0311C57.1441 86.9695 55.5741 88.5414 53.6359 88.5414H32.5978C31.178 88.5414 29.9591 87.6949 29.4073 86.4822C28.9743 87.4358 28.128 88.1613 27.0964 88.4285C25.8718 83.5065 27.1802 78.0791 31.02 74.2393C33.8419 71.4193 37.5921 69.8651 41.582 69.8651C44.1718 69.8651 46.6601 70.5242 48.8599 71.7547C49.1659 71.5852 49.4702 71.4311 49.7765 71.2906C50.03 71.1736 50.2659 71.0723 50.498 70.9807C52.0777 70.3469 53.7489 69.9918 55.4669 69.9256L55.5275 69.9236C55.6989 69.9197 55.8708 69.9158 56.0443 69.9158C56.4128 69.9156 56.7794 69.9293 57.1441 69.9567Z" fill="#20CFA2"/>
<path d="M57.1443 30.8227V85.0311C57.1443 86.9686 55.5742 88.5406 53.6365 88.5406H51.0254C52.9629 88.5406 54.535 86.9686 54.535 85.0311V30.8227C54.535 28.8852 52.9629 27.3131 51.0254 27.3131H53.6365C55.5742 27.3131 57.1443 28.8852 57.1443 30.8227Z" fill="#20CFA2"/>
<path d="M21.4156 48.8455C19.8119 50.4492 17.6799 51.3322 15.4121 51.3322C13.1441 51.3322 11.0121 50.449 9.40859 48.8455C7.80508 47.242 6.92188 45.1098 6.92188 42.8418C6.92188 40.574 7.80488 38.4418 9.40859 36.8381C11.0121 35.2346 13.1443 34.3514 15.4121 34.3516C20.0937 34.3516 23.9023 38.1602 23.9023 42.8418C23.9023 45.1098 23.0191 47.242 21.4156 48.8455Z" fill="#20CFA2"/>
<path d="M15.4117 48.9256C18.7716 48.9256 21.4953 46.2019 21.4953 42.842C21.4953 39.4821 18.7716 36.7584 15.4117 36.7584C12.0518 36.7584 9.32812 39.4821 9.32812 42.842C9.32812 46.2019 12.0518 48.9256 15.4117 48.9256Z" fill="#FEAD44"/>
<path d="M21.4158 67.6957C19.8123 69.2992 17.6801 70.1824 15.4123 70.1824C10.7307 70.1824 6.92207 66.3739 6.92188 61.6922C6.92188 59.4242 7.80508 57.292 9.40859 55.6885C11.0121 54.085 13.1443 53.2018 15.4123 53.2018C17.6803 53.2018 19.8123 54.085 21.4158 55.6885C23.0193 57.292 23.9025 59.4242 23.9025 61.6922C23.9025 63.96 23.0193 66.0918 21.4158 67.6957Z" fill="#20CFA2"/>
<path d="M15.4117 67.7756C18.7716 67.7756 21.4953 65.0519 21.4953 61.692C21.4953 58.3321 18.7716 55.6084 15.4117 55.6084C12.0518 55.6084 9.32812 58.3321 9.32812 61.692C9.32812 65.0519 12.0518 67.7756 15.4117 67.7756Z" fill="#FEAD44"/>
<path d="M49.2008 48.8455C47.5973 50.449 45.465 51.3322 43.1973 51.3322C38.5156 51.3322 34.7068 47.5236 34.707 42.842C34.707 40.574 35.5902 38.442 37.1938 36.8383C38.7973 35.2346 40.9295 34.3516 43.1973 34.3516C47.8789 34.3516 51.6875 38.1602 51.6875 42.8418C51.6873 45.1098 50.8043 47.242 49.2008 48.8455Z" fill="#20CFA2"/>
<path d="M43.1988 48.9256C46.5587 48.9256 49.2824 46.2019 49.2824 42.842C49.2824 39.4821 46.5587 36.7584 43.1988 36.7584C39.839 36.7584 37.1152 39.4821 37.1152 42.842C37.1152 46.2019 39.839 48.9256 43.1988 48.9256Z" fill="#FEAD44"/>
<path d="M49.2008 67.6955C47.5973 69.299 45.465 70.1822 43.1973 70.1822C40.9293 70.1822 38.7973 69.299 37.1938 67.6955C35.5902 66.092 34.707 63.9597 34.707 61.692C34.707 59.424 35.5902 57.292 37.1938 55.6883C38.7973 54.0845 40.9295 53.2015 43.1973 53.2015C45.465 53.2015 47.5973 54.0847 49.201 55.6883C50.8045 57.2918 51.6877 59.424 51.6877 61.6918C51.6873 63.9597 50.8043 66.0918 49.2008 67.6955Z" fill="#20CFA2"/>
<path d="M43.1988 67.7756C46.5587 67.7756 49.2824 65.0519 49.2824 61.692C49.2824 58.3321 46.5587 55.6084 43.1988 55.6084C39.839 55.6084 37.1152 58.3321 37.1152 61.692C37.1152 65.0519 39.839 67.7756 43.1988 67.7756Z" fill="#FEAD44"/>
<path d="M68.057 84.8537C68.057 91.4881 62.6787 96.8647 56.0441 96.8647C54.4354 96.8647 52.9006 96.5508 51.4965 95.9754C51.3033 95.8955 51.1123 95.8117 50.923 95.7219C50.5525 95.5483 50.1937 95.3572 49.8445 95.1465C46.3615 93.0424 44.0312 89.2199 44.0312 84.8537C44.0312 80.4561 46.391 76.6125 49.9166 74.518C50.2676 74.3094 50.6266 74.1182 50.999 73.9485C51.1883 73.8608 51.3812 73.777 51.5762 73.7008C52.8203 73.1996 54.168 72.9031 55.5797 72.8485C55.7338 72.8445 55.8877 72.8406 56.0438 72.8406C60.3398 72.8387 64.1115 75.0949 66.2332 78.4902C67.3883 80.3334 68.057 82.5154 68.057 84.8537Z" fill="#50B8FF"/>
<path d="M52.1459 95.3651C51.9354 95.5756 51.7188 95.7805 51.4965 95.9754C51.3033 95.8955 51.1123 95.8117 50.923 95.7219C50.5525 95.5483 50.1937 95.3573 49.8445 95.1465C46.3615 93.0424 44.0312 89.2199 44.0312 84.8537C44.0312 80.4561 46.391 76.6125 49.9166 74.518C50.2676 74.3094 50.6266 74.1182 50.999 73.9485C51.1883 73.8608 51.3812 73.777 51.5762 73.7008C51.7693 73.8742 51.9604 74.0537 52.1457 74.2389C57.9691 80.0641 57.9691 89.5418 52.1459 95.3651Z" fill="#0095F2"/>
<path d="M41.5832 96.816C48.2177 96.816 53.5961 91.4376 53.5961 84.8031C53.5961 78.1686 48.2177 72.7902 41.5832 72.7902C34.9487 72.7902 29.5703 78.1686 29.5703 84.8031C29.5703 91.4376 34.9487 96.816 41.5832 96.816Z" fill="#A3E9FB"/>
<path d="M98.5348 47.6635C97.7258 47.6635 97.0699 48.3193 97.0699 49.1283V85.9693C97.0699 88.7347 94.8201 90.9847 92.0543 90.9847H81.1602C80.3512 90.9847 79.6953 91.6406 79.6953 92.4496C79.6953 93.2586 80.3512 93.9144 81.1602 93.9144H92.0545C96.4356 93.9144 99.9998 90.3504 99.9998 85.9693V49.1283C99.9996 48.3191 99.3439 47.6635 98.5348 47.6635Z" fill="black"/>
<path d="M74.9617 90.9848H68.04C68.9854 89.1436 69.5223 87.06 69.5223 84.852C69.5223 82.7862 69.0537 80.828 68.2191 79.0764H90.4189C91.2279 79.0764 91.8838 78.4205 91.8838 77.6115V68.8028C91.8838 68.7977 91.8846 68.7928 91.8846 68.7875C91.8846 68.7824 91.8838 68.7774 91.8838 68.7723V45.7246C91.8838 44.9156 91.2279 44.2598 90.4189 44.2598H58.608V30.8219C58.608 30.1746 58.4824 29.5565 58.2564 28.9889C58.4537 29.0877 58.6756 29.1447 58.9111 29.1447H73.5564C74.3654 29.1447 75.0213 28.4889 75.0213 27.6799C75.0213 26.8709 74.3654 26.2151 73.5564 26.2151H58.9111C58.1172 26.2151 57.4727 26.8467 57.4486 27.6348C56.701 26.7416 55.6463 26.1149 54.4482 25.917C54.8562 24.9254 55.1732 23.8758 55.4014 22.7764H87.8588C88.5469 26.0973 90.3209 30.1994 94.7072 33.0387C96.1863 33.9957 97.0695 35.5877 97.0695 37.2971V42.9299C97.0695 43.7389 97.7254 44.3947 98.5344 44.3947C99.3434 44.3947 99.9992 43.7389 99.9992 42.9299V37.2971C99.9992 34.5899 98.6158 32.0783 96.2988 30.5793C93.0008 28.4446 91.515 25.3928 90.8635 22.7766H93.3516C94.1605 22.7766 94.8164 22.1207 94.8164 21.3117V3.1344C94.8164 2.32542 94.1605 1.66956 93.3516 1.66956H49.9133C49.1043 1.66956 48.4484 2.32542 48.4484 3.1344V21.3114C48.4484 22.1203 49.1043 22.7762 49.9133 22.7762H52.399C52.1266 23.8735 51.7447 24.9014 51.2551 25.8492H32.6C31.4125 25.8492 30.2873 26.2766 29.4074 27.0127C28.5283 26.2764 27.4031 25.8492 26.215 25.8492H19.9613C19.1523 25.8492 18.4965 26.5051 18.4965 27.3141C18.4965 28.1231 19.1523 28.7789 19.9613 28.7789H26.215C27.0133 28.7789 27.7424 29.2489 28.0727 29.9764C28.3102 30.4992 28.8312 30.8352 29.4055 30.8356C29.4059 30.8356 29.4061 30.8356 29.4064 30.8356C29.9805 30.8356 30.5014 30.5004 30.7393 29.9783C31.0713 29.2498 31.8018 28.7789 32.6 28.7789H53.6354C54.7619 28.7789 55.6783 29.6953 55.6783 30.8219V71.3824C53.2338 71.4469 50.8996 72.1549 48.8521 73.4522C46.7021 72.0694 44.2006 71.325 41.5834 71.325C37.9832 71.325 34.5988 72.727 32.0533 75.2725C30.5324 76.7934 29.4234 78.6151 28.774 80.6018H9.3834C8.57441 80.6018 7.91855 81.2576 7.91855 82.0666C7.91855 82.8756 8.57441 83.5315 9.3834 83.5315H28.1658C28.1268 83.9516 28.1055 84.3754 28.1055 84.8024C28.1055 85.1201 28.1203 85.4354 28.142 85.7494C28.118 85.791 28.0928 85.8323 28.0727 85.8768C27.7424 86.6041 27.0133 87.0742 26.215 87.0742H4.97266C3.84609 87.0742 2.92969 86.1578 2.92969 85.0313V30.8221C2.92969 29.6955 3.84609 28.7791 4.97266 28.7791H13.7619C14.5709 28.7791 15.2268 28.1233 15.2268 27.3143C15.2268 26.5053 14.5709 25.8494 13.7619 25.8494H4.97266C2.23047 25.8494 0 28.0801 0 30.8221V85.0317C0 87.7738 2.23066 90.0043 4.97266 90.0043H26.215C27.166 90.0043 28.0762 89.7293 28.8527 89.2426C29.5117 91.1367 30.593 92.8733 32.0529 94.333C34.5986 96.8787 37.983 98.2805 41.5832 98.2805C44.1689 98.2805 46.6416 97.5537 48.774 96.2028C50.9426 97.5979 53.4344 98.3307 56.0434 98.3307C59.9893 98.3307 63.5447 96.626 66.0119 93.9147H74.9613C75.7703 93.9147 76.4262 93.2588 76.4262 92.4498C76.4264 91.6406 75.7707 90.9848 74.9617 90.9848ZM75.1891 19.8463H68.0758V4.59905H75.1891V19.8463ZM78.1187 4.59905H85.232V19.8465H78.1187V4.59905ZM65.1459 19.8463H58.0328V4.59905H65.1459V19.8463ZM91.8867 19.8463H88.1619V4.59905H91.8867V19.8463ZM51.3783 4.59905H55.1031V19.8465H51.3783V4.59905ZM66.3211 76.1467C64.374 73.8524 61.6756 72.2162 58.608 71.6229V70.2526H88.9539V76.1467H66.3211ZM88.9541 47.1895V67.3229H58.608V47.1895H88.9541ZM34.1246 92.2612C32.6412 90.7778 31.6551 88.9301 31.2475 86.9201C31.2434 86.8934 31.2369 86.8666 31.2313 86.8399C31.102 86.1756 31.035 85.4944 31.035 84.8028C31.035 81.9854 32.132 79.3363 34.1244 77.3444C36.1807 75.2881 38.8818 74.2598 41.5828 74.2598C44.284 74.2598 46.9852 75.2881 49.0414 77.3444C51.0336 79.3363 52.1307 81.9852 52.1307 84.8028C52.1307 87.6203 51.0336 90.2692 49.0414 92.2612C44.9287 96.374 38.2373 96.3737 34.1246 92.2612ZM56.0438 95.4008C54.3371 95.4008 52.6953 94.999 51.2113 94.2301C52.4881 92.9262 53.4482 91.4266 54.0883 89.8268H59.9967C60.8057 89.8268 61.4615 89.1709 61.4615 88.3619C61.4615 87.553 60.8057 86.8971 59.9967 86.8971H54.8896C55.5199 82.8582 54.3147 78.5881 51.275 75.442C52.7418 74.6951 54.3617 74.3049 56.0439 74.3049C61.8607 74.3049 66.5928 79.0362 66.5928 84.8518C66.5926 90.6688 61.8602 95.4008 56.0438 95.4008Z" fill="black"/>
<path d="M78.0703 26.2148C77.2613 26.2148 76.6055 26.8707 76.6055 27.6797C76.6055 28.4887 77.2613 29.1445 78.0703 29.1445H81.0387C81.8477 29.1445 82.5035 28.4887 82.5035 27.6797C82.5035 26.8707 81.8477 26.2148 81.0387 26.2148H78.0703Z" fill="black"/>
<path d="M77.5512 71.7344H65.7148C64.9059 71.7344 64.25 72.3902 64.25 73.1992C64.25 74.0082 64.9059 74.6641 65.7148 74.6641H77.5512C78.3602 74.6641 79.016 74.0082 79.016 73.1992C79.016 72.3902 78.3602 71.7344 77.5512 71.7344Z" fill="black"/>
<path d="M67.5879 61.4912H67.8615V61.7649C67.8615 63.8445 69.5535 65.5363 71.633 65.5363C73.7127 65.5363 75.4043 63.8443 75.4043 61.7649V61.4912H75.6781C77.7578 61.4912 79.4494 59.7992 79.4494 57.7197C79.4494 55.6402 77.7576 53.9483 75.6781 53.9483H75.4043V53.6746C75.4043 51.5949 73.7125 49.9031 71.633 49.9031C69.5533 49.9031 67.8615 51.5951 67.8615 53.6746V53.9483H67.5879C65.5082 53.9483 63.8164 55.6402 63.8164 57.7197C63.8164 59.7992 65.5082 61.4912 67.5879 61.4912ZM67.5879 56.8777H69.3264C70.1354 56.8777 70.7912 56.2219 70.7912 55.4129V53.6744C70.7912 53.2102 71.1689 52.8324 71.6332 52.8324C72.0973 52.8324 72.475 53.2102 72.475 53.6744V55.4129C72.475 56.2219 73.1309 56.8777 73.9398 56.8777H75.6785C76.1426 56.8777 76.5203 57.2555 76.5203 57.7197C76.5203 58.184 76.1426 58.5617 75.6785 58.5617H73.9398C73.1309 58.5617 72.475 59.2176 72.475 60.0266V61.7651C72.475 62.2293 72.0973 62.607 71.6332 62.607C71.1689 62.607 70.7912 62.2293 70.7912 61.7651V60.0266C70.7912 59.2176 70.1354 58.5617 69.3264 58.5617H67.5879C67.1236 58.5617 66.7459 58.184 66.7459 57.7197C66.7461 57.2555 67.1236 56.8777 67.5879 56.8777Z" fill="black"/>
<path d="M30.873 70.8496V33.3262C30.873 32.5172 30.2172 31.8613 29.4082 31.8613C28.5992 31.8613 27.9434 32.5172 27.9434 33.3262V70.8496C27.9434 71.6586 28.5992 72.3145 29.4082 72.3145C30.2172 72.3145 30.873 71.659 30.873 70.8496Z" fill="black"/>
<path d="M9.38281 75.9437C8.57383 75.9437 7.91797 76.5996 7.91797 77.4086C7.91797 78.2176 8.57383 78.8734 9.38281 78.8734H13.507C14.316 78.8734 14.9719 78.2176 14.9719 77.4086C14.9719 76.5996 14.316 75.9437 13.507 75.9437H9.38281Z" fill="black"/>
<path d="M15.4111 35.2939C11.249 35.2939 7.86328 38.6799 7.86328 42.8418C7.86328 47.0037 11.2492 50.3896 15.4111 50.3896C19.573 50.3896 22.9588 47.0037 22.9588 42.8418C22.9588 38.6799 19.573 35.2939 15.4111 35.2939ZM15.4111 47.4604C12.8646 47.4604 10.7928 45.3887 10.7928 42.842C10.7928 40.2953 12.8645 38.2236 15.4111 38.2236C17.9578 38.2236 20.0293 40.2953 20.0293 42.842C20.0293 45.3887 17.9576 47.4604 15.4111 47.4604Z" fill="black"/>
<path d="M13.4941 40.7752C12.6852 40.7752 12.0293 41.4311 12.0293 42.2401V43.444C12.0293 44.2529 12.6852 44.9088 13.4941 44.9088C14.3031 44.9088 14.959 44.2529 14.959 43.444V42.2401C14.959 41.4309 14.3031 40.7752 13.4941 40.7752Z" fill="black"/>
<path d="M22.9588 61.692C22.9588 57.5299 19.5729 54.1442 15.4111 54.1442C11.249 54.1442 7.86328 57.5301 7.86328 61.692C7.86328 65.8539 11.2492 69.2399 15.4111 69.2399C19.573 69.2399 22.9588 65.8539 22.9588 61.692ZM10.7928 61.692C10.7928 59.1455 12.8645 57.0737 15.4111 57.0737C17.9578 57.0737 20.0293 59.1453 20.0293 61.692C20.0293 64.2385 17.9578 66.3104 15.4111 66.3104C12.8645 66.3104 10.7928 64.2383 10.7928 61.692Z" fill="black"/>
<path d="M13.4941 59.625C12.6852 59.625 12.0293 60.2809 12.0293 61.0898V62.2938C12.0293 63.1027 12.6852 63.7586 13.4941 63.7586C14.3031 63.7586 14.959 63.1027 14.959 62.2938V61.0898C14.959 60.2809 14.3031 59.625 13.4941 59.625Z" fill="black"/>
<path d="M43.198 50.39C47.3602 50.39 50.7459 47.0041 50.7459 42.8422C50.7459 38.6802 47.36 35.2943 43.198 35.2943C39.0361 35.2943 35.6504 38.6802 35.6504 42.8422C35.6504 47.0041 39.0361 50.39 43.198 50.39ZM43.198 38.2236C45.7445 38.2236 47.8164 40.2953 47.8164 42.842C47.8164 45.3886 45.7447 47.4603 43.198 47.4603C40.6514 47.4603 38.5799 45.3886 38.5799 42.842C38.5799 40.2953 40.6516 38.2236 43.198 38.2236Z" fill="black"/>
<path d="M41.2793 44.9088C42.0883 44.9088 42.7441 44.2529 42.7441 43.444V42.2401C42.7441 41.4311 42.0883 40.7752 41.2793 40.7752C40.4703 40.7752 39.8145 41.4311 39.8145 42.2401V43.444C39.8145 44.2531 40.4703 44.9088 41.2793 44.9088Z" fill="black"/>
<path d="M43.198 69.2399C47.3602 69.2399 50.7459 65.8539 50.7459 61.692C50.7459 57.5301 47.36 54.1442 43.198 54.1442C39.0361 54.1442 35.6504 57.5301 35.6504 61.692C35.6504 65.8539 39.0361 69.2399 43.198 69.2399ZM43.198 57.0737C45.7445 57.0737 47.8164 59.1453 47.8164 61.692C47.8164 64.2385 45.7447 66.3104 43.198 66.3104C40.6514 66.3104 38.5799 64.2387 38.5799 61.692C38.5799 59.1455 40.6516 57.0737 43.198 57.0737Z" fill="black"/>
<path d="M41.2793 63.7588C42.0883 63.7588 42.7441 63.1029 42.7441 62.2939V61.09C42.7441 60.281 42.0883 59.6252 41.2793 59.6252C40.4703 59.6252 39.8145 60.281 39.8145 61.09V62.2939C39.8145 63.1029 40.4703 63.7588 41.2793 63.7588Z" fill="black"/>
<path d="M37.3425 83.4537C36.7702 82.8816 35.8429 82.8814 35.271 83.4535C34.6988 84.0256 34.6988 84.9529 35.2708 85.525L40.8605 91.1148C41.1466 91.401 41.5214 91.5441 41.8964 91.5441C42.2712 91.5441 42.6462 91.401 42.9322 91.115C43.5044 90.5429 43.5044 89.6156 42.9323 89.0435L37.3425 83.4537Z" fill="black"/>
</g>
<defs>
<clipPath id="clip0_562_5365">
<rect width="100" height="100" fill="white"/>
</clipPath>
</defs>
</svg>
