<svg width="100" height="100" viewBox="0 0 100 100" fill="none" xmlns="http://www.w3.org/2000/svg">
<path d="M91.5242 45.1359C91.5242 49.8609 90.7273 54.4062 89.2523 58.6312C88.8133 58.5515 88.3555 58.5109 87.8773 58.5109H12.1258C11.6477 58.5109 11.1695 58.5515 10.7102 58.65C9.25547 54.4047 8.45703 49.8594 8.45703 45.1344C8.45703 39.7922 9.45391 34.689 11.307 30.0047C16.8492 15.8719 29.8664 5.50468 45.5352 3.84999C46.9914 3.69218 48.4852 3.61249 50.0008 3.61249C58.4727 3.61249 66.3867 6.16405 72.9852 10.55C76.932 13.1812 80.4398 16.5109 83.2914 20.2984C86.2211 24.225 88.4945 28.7109 89.8695 33.5344C90.9461 37.2015 91.5242 41.1094 91.5242 45.1359Z" fill="#69D6F4"/>
<path d="M10.709 60.214C10.0543 60.214 9.45117 59.8 9.23242 59.1578C7.68242 54.6312 6.89648 49.9125 6.89648 45.1359C6.89648 39.6765 7.89336 34.3937 9.85742 29.4297C15.7543 14.3859 29.3637 3.98749 45.373 2.29843C46.8715 2.13436 48.4309 2.04999 50.0012 2.04999C58.5184 2.04999 66.7652 4.53905 73.8512 9.24843C77.9543 11.9844 81.5512 15.3859 84.5402 19.3594C87.6699 23.5515 89.9684 28.175 91.373 33.1062C92.5106 36.9781 93.0887 41.0297 93.0887 45.1359C93.0887 49.9453 92.2934 54.6594 90.7277 59.1469C90.473 59.8734 89.7246 60.3 88.9715 60.1687C88.6293 60.1062 88.2606 60.0734 87.8777 60.0734H12.1262C11.723 60.0734 11.359 60.1078 11.0434 60.1766C10.9309 60.2031 10.8199 60.214 10.709 60.214ZM50.0012 5.17499C48.5449 5.17499 47.1012 5.25311 45.7074 5.40468C30.8574 6.97186 18.2355 16.6172 12.7621 30.5765C10.9418 35.1766 10.0199 40.0734 10.0199 45.1359C10.0199 49.15 10.6184 53.1203 11.8012 56.9547C11.9074 56.9515 12.0168 56.95 12.1262 56.95H87.8762C87.9731 56.95 88.0668 56.9515 88.1621 56.9531C89.3574 53.1484 89.9621 49.1797 89.9621 45.1359C89.9621 41.3265 89.4262 37.5719 88.3684 33.9734C87.0652 29.3969 84.9355 25.114 82.0371 21.2312C79.2652 17.5453 75.9262 14.3875 72.1168 11.8484C65.5496 7.48436 57.9012 5.17499 50.0012 5.17499Z" fill="black"/>
<path d="M52.473 13.2812C51.2371 13.7 49.4434 13.9594 46.9105 13.7203C42.9637 13.3219 40.5309 15.1953 39.1965 16.7703C38.2793 17.8672 36.9637 18.425 35.5293 18.4453C33.0777 18.4656 28.9902 19.4812 24.7246 24.7047C18.923 31.8015 28.5324 37.1641 31.5418 38.5984C32.0605 38.8578 32.6387 39.0375 33.1965 39.1562C36.6246 39.9531 38.7184 41.7281 39.9746 43.4625C41.4105 45.4359 40.8512 48.2672 38.8184 49.5828C34.7512 52.2344 32.4996 55.4437 31.284 58.5141H22.3934C22.2543 57.7172 22.1543 56.9187 22.0949 56.1422C21.8152 52.4547 19.4434 49.7031 17.7887 48.1891C16.8324 47.3312 16.3527 46.0156 16.4934 44.7406C17.3105 37.4641 14.4402 32.839 11.3105 30.0094C16.8527 15.8765 29.8699 5.50936 45.5387 3.85468C48.848 5.98749 51.5387 8.24061 53.1934 9.73593C54.3668 10.8094 53.9887 12.7625 52.473 13.2812Z" fill="#B4DD7F"/>
<path d="M91.524 45.1359C91.524 49.8609 90.7271 54.4062 89.2521 58.6312C88.8131 58.5516 88.3553 58.5109 87.8771 58.5109H61.7021C61.5021 56.8359 62.399 55.1625 63.9943 54.4437L64.0943 54.4234C65.61 53.725 65.849 51.7328 64.5724 50.675C63.3365 49.6781 62.0599 48.3828 60.8849 47.1062C58.174 44.1562 58.5131 39.5109 61.5428 36.9203C64.9521 33.95 68.4006 31.8766 70.9318 30.5609C72.5459 29.7437 74.4599 30.6016 74.9381 32.3547C75.0381 32.7734 75.1975 33.1719 75.3568 33.5906C76.9912 37.8562 82.4537 39.2328 86.2006 36.5406C87.5959 35.5437 88.8115 34.5266 89.8693 33.5312C90.9459 37.2016 91.524 41.1094 91.524 45.1359Z" fill="#B4DD7F"/>
<path d="M83.2958 20.3016C77.0208 21.8828 71.1927 19.9328 67.7115 18.2719C66.288 17.5859 66.1818 15.6094 67.5271 14.7656C69.5052 13.5797 71.4036 12.0234 72.9849 10.5469C76.9411 13.1828 80.4489 16.5047 83.2958 20.3016Z" fill="#B4DD7F"/>
<path d="M31.2825 60.075H22.3919C21.6325 60.075 20.9841 59.5281 20.8528 58.7797C20.7044 57.9328 20.5981 57.0844 20.5356 56.2594C20.3044 53.2031 18.3403 50.8094 16.7325 49.339C15.4169 48.1609 14.7419 46.3734 14.9388 44.5687C15.5591 39.0422 13.9856 34.5344 10.2606 31.1656C9.77783 30.7297 9.61689 30.0406 9.85439 29.4359C15.7528 14.3859 29.3622 3.98748 45.3716 2.29842C45.7153 2.26404 46.081 2.34686 46.381 2.53904C49.7778 4.72811 52.5278 7.02967 54.2356 8.57342C55.2138 9.46873 55.6325 10.7672 55.3638 12.0547C55.0981 13.3281 54.206 14.339 52.9763 14.7594C52.9747 14.7594 52.9747 14.7594 52.9731 14.7609C51.2841 15.3328 49.1919 15.5062 46.7622 15.275C44.1513 15.0125 42.0169 15.8562 40.3856 17.7797C39.2091 19.1859 37.4888 19.9797 35.5466 20.0062C33.2575 20.025 29.7419 21.025 25.9325 25.6906C24.6872 27.214 24.2388 28.6484 24.5591 30.0781C25.3638 33.6703 30.62 36.4265 32.2122 37.1859C32.5872 37.3734 33.0294 37.5219 33.5216 37.6265C36.7997 38.3875 39.4575 40.0859 41.2372 42.5437C42.1638 43.8172 42.5278 45.4531 42.2356 47.0297C41.9403 48.6187 41.0028 50.025 39.6638 50.8906C36.37 53.039 34.0356 55.7969 32.7325 59.0859C32.4981 59.6828 31.9231 60.075 31.2825 60.075ZM23.7403 56.95H30.2513C31.8497 53.4844 34.4403 50.5687 37.9638 48.2719C38.5872 47.8672 39.0247 47.2078 39.1638 46.4594C39.3028 45.7125 39.1419 44.975 38.7106 44.3797C37.3591 42.514 35.3841 41.2687 32.8419 40.6765C32.1138 40.5203 31.4325 40.289 30.8435 39.9937C28.4153 38.8359 22.5935 35.5937 21.5106 30.7594C20.9747 28.3656 21.6497 25.9937 23.5138 23.7125C28.0903 18.1094 32.5653 16.9031 35.5153 16.8797C36.2247 16.8703 37.2403 16.6687 37.9981 15.7656C39.6106 13.864 42.4653 11.7 47.0685 12.1625C49.5278 12.3984 51.0934 12.0953 51.9685 11.8C52.1981 11.7219 52.2794 11.5469 52.3091 11.414C52.3278 11.3203 52.3497 11.0797 52.1372 10.8844C50.5997 9.4953 48.1622 7.44998 45.1544 5.46561C30.8903 7.16873 18.7513 16.3422 13.156 29.6125C16.0263 32.5375 18.8888 37.4156 18.0466 44.9109C17.9591 45.6984 18.2606 46.5094 18.831 47.0203C20.8685 48.8844 23.345 51.9469 23.6528 56.0203C23.6716 56.3281 23.7028 56.6375 23.7403 56.95Z" fill="black"/>
<path d="M89.2511 60.1937C89.1573 60.1937 89.0636 60.1859 88.9683 60.1687C88.6261 60.1062 88.2573 60.0734 87.8745 60.0734H61.7011C60.9089 60.0734 60.2433 59.4828 60.1495 58.6968C59.862 56.2922 61.1511 54.0109 63.3527 53.0203C63.4136 52.9922 63.4777 52.9687 63.5417 52.95C63.7558 52.8109 63.8136 52.6109 63.8277 52.4953C63.8464 52.3593 63.837 52.0968 63.5761 51.8797C62.4698 50.989 61.2448 49.8047 59.7355 48.1672C58.1495 46.4422 57.3558 44.1953 57.4964 41.8375C57.6386 39.4843 58.7433 37.2593 60.5261 35.7343C63.4011 33.2281 66.6636 31.0187 70.2089 29.1765C71.412 28.5687 72.7808 28.5297 73.9886 29.0656C75.1964 29.6031 76.0917 30.6531 76.4433 31.9468C76.5323 32.3109 76.6542 32.6156 76.7745 32.9312C77.3839 34.5187 78.6198 35.6422 80.2089 36.1187C81.9323 36.6359 83.8308 36.3218 85.2886 35.275C86.537 34.3828 87.7167 33.4156 88.7933 32.3984C89.1886 32.025 89.7433 31.8812 90.2745 32.0265C90.798 32.1687 91.212 32.5734 91.3652 33.0953C92.5042 36.9781 93.0839 41.0312 93.0839 45.1375C93.0839 49.9468 92.2886 54.6609 90.723 59.1484C90.5027 59.7828 89.9042 60.1937 89.2511 60.1937ZM63.5058 56.95H87.8745C87.9714 56.95 88.0652 56.9515 88.1605 56.9531C89.3558 53.1484 89.9605 49.1797 89.9605 45.1359C89.9605 42.1687 89.6355 39.2328 88.9917 36.3781C88.3823 36.8734 87.7542 37.3547 87.1089 37.814C84.873 39.4187 81.9573 39.9031 79.3136 39.1109C76.7902 38.3547 74.8151 36.5468 73.898 34.1531C73.687 33.6062 73.5261 33.1734 73.4167 32.7234C73.2855 32.2422 72.923 32.0125 72.7183 31.9218C72.5167 31.8328 72.112 31.7203 71.6355 31.9593C69.3636 33.139 65.9323 35.1718 62.5683 38.1015C61.398 39.1031 60.7089 40.4922 60.6152 42.0265C60.5245 43.5297 61.0292 44.9593 62.0339 46.0531C63.4339 47.5734 64.5527 48.6578 65.5527 49.4625C66.5886 50.3203 67.0964 51.6015 66.9261 52.9015C66.7573 54.1937 65.9417 55.2953 64.7448 55.8453C64.6683 55.8812 64.5886 55.9109 64.5089 55.9328C64.073 56.1609 63.7261 56.5218 63.5058 56.95Z" fill="black"/>
<path d="M78.5026 22.4516C73.9698 22.4516 69.9322 21.0625 67.0385 19.6828C65.8635 19.1172 65.0932 17.9641 65.0213 16.6703C64.9479 15.3719 65.5901 14.1359 66.6963 13.4422C68.3682 12.4391 70.1166 11.0859 71.9182 9.40469C72.451 8.90937 73.2494 8.84531 73.851 9.24687C77.9698 11.9922 81.5666 15.3969 84.5448 19.3656C84.8588 19.7844 84.9432 20.3312 84.7682 20.825C84.5947 21.3172 84.1854 21.6906 83.6776 21.8187C81.9073 22.2641 80.1713 22.4516 78.5026 22.4516ZM73.1198 12.5344C71.4791 13.9812 69.8744 15.1781 68.3322 16.1047C68.1682 16.2078 68.1354 16.3766 68.1416 16.4953C68.1494 16.6125 68.1963 16.7703 68.3901 16.8641C71.3666 18.2844 75.7057 19.7234 80.4338 19.225C78.2776 16.7 75.826 14.4578 73.1198 12.5344Z" fill="black"/>
<path d="M95.8492 66.4859V88.4141C95.8492 92.8203 92.2602 96.3875 87.8758 96.3875H12.1258C7.71953 96.3875 4.15234 92.8188 4.15234 88.4141V66.4859C4.15234 62.5594 6.98359 59.3094 10.7102 58.6516C11.168 58.5516 11.6477 58.5125 12.1258 58.5125H87.8758C88.3539 58.5125 88.8133 58.5531 89.2508 58.6328C92.9992 59.2891 95.8492 62.5594 95.8492 66.4859Z" fill="#ED5565"/>
<path opacity="0.2" d="M7.33672 88.4141V66.4859C7.33672 62.5594 10.168 59.3094 13.8945 58.6516C14.3523 58.5516 14.832 58.5125 15.3102 58.5125H12.1258C11.6477 58.5125 11.1695 58.5531 10.7102 58.6516C6.98203 59.3094 4.15234 62.5594 4.15234 66.4859V88.4141C4.15234 92.8203 7.72109 96.3875 12.1258 96.3875H15.3117C10.9055 96.3875 7.33672 92.8188 7.33672 88.4141Z" fill="black"/>
<path d="M87.8754 97.95H12.1254C6.86758 97.95 2.58789 93.6719 2.58789 88.4125V66.4859C2.58789 61.8578 5.88789 57.9156 10.4363 57.1125C10.9113 57.0078 11.4988 56.95 12.1238 56.95H87.8738C88.4457 56.95 89.0035 56.9984 89.5301 57.0953C94.0926 57.8953 97.4113 61.8469 97.4113 66.4859V88.4141C97.4129 93.6719 93.1332 97.95 87.8754 97.95ZM12.1254 60.075C11.7223 60.075 11.3582 60.1094 11.0426 60.1781C7.93008 60.7297 5.71445 63.3766 5.71445 66.4859V88.4141C5.71445 91.95 8.59102 94.8266 12.127 94.8266H87.877C91.4129 94.8266 94.2895 91.95 94.2895 88.4141V66.4859C94.2895 63.3656 92.0566 60.7109 88.9832 60.1703C88.6301 60.1063 88.2613 60.0734 87.8785 60.0734H12.1254V60.075Z" fill="black"/>
<path d="M19.709 70.675L26.3777 80.7672V70.5812C26.3777 69.9187 26.5199 69.4234 26.8043 69.0922C27.0887 68.7609 27.4715 68.5953 27.9543 68.5953C28.4527 68.5953 28.8465 68.7609 29.134 69.0922C29.4215 69.4234 29.5668 69.9203 29.5668 70.5812V84.0484C29.5668 85.5516 28.9434 86.3031 27.698 86.3031C27.3871 86.3031 27.1059 86.2578 26.8574 86.1687C26.609 86.0797 26.3746 85.9375 26.1559 85.7422C25.9371 85.5469 25.7355 85.3203 25.548 85.0594C25.3605 84.7984 25.1746 84.5312 24.9871 84.2594L18.4809 74.2844V84.3172C18.4809 84.9719 18.3293 85.4656 18.0246 85.8C17.7215 86.1344 17.3309 86.3016 16.8559 86.3016C16.3652 86.3016 15.9715 86.1328 15.6762 85.7937C15.3809 85.4547 15.2324 84.9625 15.2324 84.3156V71.1047C15.2324 70.5437 15.2949 70.1047 15.4199 69.7844C15.5684 69.4344 15.8137 69.1484 16.1559 68.9266C16.498 68.7047 16.8684 68.5938 17.2652 68.5938C17.5762 68.5938 17.8434 68.6438 18.0652 68.7453C18.2871 68.8469 18.4824 68.9828 18.6496 69.1547C18.8168 69.3266 18.9887 69.5484 19.1637 69.8203C19.3387 70.0922 19.5215 70.3797 19.709 70.675Z" fill="black"/>
<path d="M44.6457 71.5625H36.8316V75.7672H44.027C44.5566 75.7672 44.952 75.8859 45.2129 76.1234C45.4738 76.3609 45.6035 76.675 45.6035 77.064C45.6035 77.4531 45.4754 77.7703 45.2176 78.0156C44.9613 78.2609 44.5629 78.3828 44.027 78.3828H36.8316V83.2531H44.9145C45.4598 83.2531 45.8707 83.3797 46.1473 83.6328C46.4238 83.8859 46.5613 84.2234 46.5613 84.6437C46.5613 85.0484 46.4238 85.3781 46.1473 85.6312C45.8707 85.8844 45.4598 86.0109 44.9145 86.0109H35.4879C34.7332 86.0109 34.1895 85.8437 33.8582 85.5094C33.527 85.175 33.3613 84.6328 33.3613 83.8859V71.014C33.3613 70.5156 33.4348 70.1093 33.5832 69.7937C33.7316 69.4781 33.9629 69.2484 34.2785 69.1047C34.5941 68.9609 34.9973 68.889 35.4879 68.889H44.6457C45.1988 68.889 45.6098 69.0109 45.8785 69.2562C46.1473 69.5015 46.2816 69.8234 46.2816 70.2203C46.2816 70.625 46.1473 70.95 45.8785 71.1953C45.6082 71.4406 45.1973 71.5625 44.6457 71.5625Z" fill="black"/>
<path d="M61.4414 83.3125L58.6727 73.0469L55.8695 83.314C55.6508 84.0922 55.4789 84.6516 55.3492 84.9906C55.2211 85.3297 54.9961 85.6328 54.6773 85.9016C54.3586 86.1703 53.9336 86.3047 53.4039 86.3047C52.9758 86.3047 52.6227 86.225 52.3461 86.0656C52.0695 85.9062 51.8461 85.6797 51.6742 85.3875C51.5023 85.0953 51.3633 84.7484 51.2539 84.3484C51.1445 83.9469 51.0477 83.575 50.9617 83.2328L48.1117 71.7047C47.9398 71.0344 47.8555 70.525 47.8555 70.175C47.8555 69.7312 48.0117 69.3578 48.3227 69.0531C48.6336 68.75 49.0195 68.5969 49.4789 68.5969C50.1102 68.5969 50.5336 68.8 50.7523 69.2047C50.9711 69.6094 51.1617 70.1969 51.3242 70.9687L53.5664 80.9672L56.0773 71.6109C56.2648 70.8953 56.432 70.35 56.5789 69.975C56.7258 69.6 56.968 69.2781 57.3023 69.0062C57.6367 68.7344 58.093 68.5969 58.6695 68.5969C59.2539 68.5969 59.707 68.739 60.0305 69.0234C60.3539 69.3078 60.5773 69.6172 60.7023 69.9516C60.8273 70.2859 60.9945 70.8391 61.2039 71.6109L63.7383 80.9672L65.9805 70.9687C66.0898 70.4469 66.193 70.0375 66.2898 69.7422C66.3867 69.4469 66.5539 69.1812 66.7914 68.9484C67.0289 68.714 67.3742 68.5984 67.8258 68.5984C68.2773 68.5984 68.6602 68.7484 68.9758 69.0484C69.2914 69.3484 69.4492 69.7234 69.4492 70.175C69.4492 70.4937 69.3633 71.0047 69.193 71.7047L66.343 83.2328C66.1477 84.0109 65.9867 84.5812 65.8586 84.9437C65.7305 85.3062 65.5117 85.6234 65.2039 85.8953C64.8961 86.1672 64.4617 86.3047 63.9008 86.3047C63.3711 86.3047 62.9477 86.1719 62.6273 85.9078C62.3086 85.6437 62.0867 85.3453 61.9617 85.014C61.8367 84.6828 61.668 84.1156 61.4414 83.3125Z" fill="black"/>
<path d="M84.768 80.8719C84.768 81.9078 84.5008 82.8375 83.968 83.6641C83.4352 84.4906 82.6539 85.136 81.6258 85.6031C80.5977 86.0703 79.3789 86.3047 77.9695 86.3047C76.2805 86.3047 74.8852 85.986 73.7883 85.3469C73.0102 84.8875 72.3773 84.275 71.8898 83.5078C71.4039 82.7406 71.1602 81.9953 71.1602 81.2703C71.1602 80.85 71.3055 80.4891 71.5977 80.1906C71.8898 79.8906 72.2617 79.7406 72.7133 79.7406C73.0789 79.7406 73.3883 79.8578 73.6414 80.0906C73.8945 80.325 74.1102 80.6703 74.2898 81.1297C74.5086 81.675 74.743 82.1297 74.9961 82.4969C75.2492 82.8625 75.6055 83.1641 76.0648 83.4016C76.5242 83.6391 77.1273 83.7578 77.8758 83.7578C78.9039 83.7578 79.7383 83.5188 80.3805 83.0391C81.0227 82.561 81.3445 81.9625 81.3445 81.2469C81.3445 80.6781 81.1711 80.2172 80.8242 79.8625C80.4773 79.5078 80.0305 79.2375 79.4805 79.05C78.932 78.8625 78.1977 78.6641 77.2789 78.4547C76.0492 78.1672 75.0195 77.8297 74.1898 77.4438C73.3602 77.0578 72.7023 76.5328 72.2164 75.8672C71.7305 75.2016 71.4867 74.3735 71.4867 73.3844C71.4867 72.4422 71.743 71.6047 72.257 70.8735C72.7711 70.1422 73.5148 69.5781 74.4883 69.186C75.4617 68.7922 76.607 68.5953 77.9227 68.5953C78.9742 68.5953 79.8836 68.725 80.6508 68.986C81.418 69.2469 82.0539 69.5938 82.5602 70.025C83.0664 70.4578 83.4367 70.911 83.6695 71.386C83.9039 71.861 84.0195 72.325 84.0195 72.7766C84.0195 73.1891 83.8742 73.561 83.582 73.8922C83.2898 74.2235 82.9258 74.3891 82.4898 74.3891C82.093 74.3891 81.7914 74.2891 81.5852 74.0906C81.3789 73.8922 81.1555 73.5672 80.9133 73.1156C80.6023 72.4688 80.2273 71.9656 79.7914 71.6031C79.3555 71.2406 78.6539 71.0594 77.6883 71.0594C76.793 71.0594 76.0711 71.2563 75.5211 71.65C74.9727 72.0438 74.6977 72.5156 74.6977 73.0688C74.6977 73.411 74.7914 73.7078 74.9773 73.9563C75.1648 74.2047 75.4211 74.4203 75.7477 74.5985C76.0742 74.7781 76.4055 74.9172 76.7398 75.0188C77.0742 75.1203 77.6273 75.2672 78.3992 75.4625C79.3648 75.6891 80.2383 75.9375 81.0211 76.2094C81.8039 76.4813 82.4695 76.8125 83.018 77.2016C83.5664 77.5906 83.9945 78.0828 84.3023 78.6797C84.6133 79.2781 84.768 80.0078 84.768 80.8719Z" fill="black"/>
<g opacity="0.2">
<path d="M13.9121 45.1359C13.9121 39.7937 14.909 34.6906 16.7621 30.0062C22.3043 15.8734 35.3215 5.50624 50.9902 3.85155C51.7137 3.77186 52.4465 3.71249 53.1871 3.67343C52.6449 3.65311 52.109 3.61249 51.5637 3.61249C50.048 3.61249 48.5543 3.69218 47.098 3.85155C31.4293 5.50624 18.4121 15.8719 12.8715 30.0062C11.0184 34.6906 10.0215 39.7937 10.0215 45.1359C10.0215 49.8609 10.8184 54.4062 12.2746 58.6515C12.7324 58.5515 13.2121 58.5125 13.6902 58.5125H16.1246C14.6965 54.3047 13.9121 49.8094 13.9121 45.1359Z" fill="black"/>
</g>
</svg>
