<svg width="100" height="100" viewBox="0 0 100 100" fill="none" xmlns="http://www.w3.org/2000/svg">
<g clip-path="url(#clip0_562_5573)">
<path d="M98.5354 53.34C98.5354 39.4805 92.2967 27.0779 82.4744 18.7875C74.6074 12.1473 52.5061 11.3867 52.5061 11.3867L36.4881 11.4791C36.3689 11.5295 36.225 11.4945 36.1064 11.5459C20.4068 18.3588 10.2188 34.5012 10.2188 53.2656C10.2188 78.2262 28.8287 95.2109 53.7893 95.2109C61.2936 95.2109 67.9215 96.7063 74.15 93.4697C88.6387 85.9412 98.5354 70.7963 98.5354 53.34Z" fill="#94CCD4"/>
<path d="M82.4745 18.7871C77.8788 21.793 72.9452 24.7754 71.0956 25.1797C66.0195 26.6641 59.412 23.5195 58.0546 31.0059C58.0156 32.4512 57.8886 33.8242 57.6718 35.1055C57.4296 36.5352 56.8984 37.8809 56.1269 39.0762C55.3554 40.2715 53.3021 40.6203 52.1068 41.4406C48.8157 43.7023 46.1417 43.8379 42.5988 41.9922C42.5089 41.9453 42.4171 41.8965 42.3253 41.8477C36.423 38.9551 32.9556 32.3027 39.0747 27.4414C43.0962 24.1211 42.488 18.2643 39.6775 14.6041L37.9861 12.6471C39.2991 12.1047 38.7646 10.5225 40.1365 10.1039C44.3132 8.82969 48.7466 8.14453 53.3396 8.14453C64.4413 8.14453 74.6073 12.1465 82.4745 18.7871Z" fill="#B7E546"/>
<path d="M88.3922 42.1526C88.367 38.4219 86.8608 34.8516 84.2039 32.2305C81.9373 29.6371 81.1533 28.092 78.0381 30.9551C75.0854 34.6279 77.9977 39.1865 71.7217 45.4498C70.6102 46.5813 69.9865 48.1301 70.0492 49.7178C70.0469 49.7174 70.0479 49.4373 70.0457 49.4369C70.2713 53.3695 72.9574 56.5397 76.786 56.5397C81.7039 56.5395 88.3922 50.7664 88.3922 42.1526Z" fill="#B7E546"/>
<path d="M74.2426 45.1582C73.1312 46.291 72.5062 47.8399 72.5687 49.4277C72.5668 49.4258 72.5668 49.4238 72.5648 49.4238C72.7523 52.6797 75.5746 55.4199 78.7133 56.2676C78.0551 56.4473 77.4066 56.5391 76.7855 56.5391C72.9574 56.5391 68.8851 53.3574 68.6586 49.4238C68.6605 49.4238 68.6605 49.4258 68.6625 49.4277C68.6 47.8399 69.225 46.291 70.3363 45.1582C76.6117 38.8965 72.975 34.0039 75.9281 30.332C77.7074 28.6953 79.4164 28.7031 80.975 29.4942C80.598 29.7031 80.2191 29.9785 79.8344 30.332C76.8812 34.0039 80.518 38.8965 74.2426 45.1582Z" fill="#ABD641"/>
<path d="M92.6375 4.88301V27.4428L91.2 28.8076C91.2 30.6953 89.0539 30.9797 87.166 30.9797L76.8478 30.9021C76.3678 30.9021 75.8998 31.0537 75.5111 31.3353L66.9965 37.2477C66.2432 37.7934 65.1887 37.2551 65.1887 36.325L65.9879 33.4814C65.9879 32.2229 64.9676 31.2027 63.7092 31.2027H60.9748C59.0871 31.2027 57.5566 29.6725 57.5566 27.7846L57.1445 6.62109C57.1445 4.7334 57.8943 2.74238 59.782 2.74238L60.7348 1.46484H89.2193C91.1072 1.46484 92.6375 2.99512 92.6375 4.88301Z" fill="#DC4955"/>
<path d="M92.6381 27.4428V28.5822C92.6381 30.4701 91.1078 32.0004 89.2199 32.0004H76.9875C76.5066 32.0004 76.0394 32.1531 75.6521 32.4334L66.4162 39.1215C65.6643 39.6684 64.6092 39.1307 64.6092 38.1986V34.2791C64.6092 33.0205 63.5889 32.0004 62.3305 32.0004H59.5959C57.7082 32.0004 56.1777 30.4701 56.1777 28.5822V4.88301C56.1777 2.99531 57.708 1.46484 59.5959 1.46484H60.7353V26.9871C60.7353 27.2389 60.9395 27.4428 61.191 27.4428H62.3305C64.9533 27.4428 67.2352 28.9262 68.3811 31.1C68.5764 31.4705 69.05 31.5875 69.3893 31.3416L72.9768 28.7416C74.1504 27.8916 75.5381 27.4428 76.9873 27.4428H92.6381Z" fill="#D82F3C"/>
<path d="M64.082 94.5859C38.5234 94.5859 17.8027 73.9258 17.8027 48.4414C17.8027 33.2637 24.7613 19.9561 36.107 11.5459C19.6951 18.3203 8.14453 34.4814 8.14453 53.3398C8.14453 61.0248 10.0625 68.2617 13.4461 74.598C13.4461 74.598 24.1861 83.1039 29.617 87.1008C37.1088 92.6145 51.6658 96.1709 51.6658 96.1709C51.6658 96.1709 67.8635 96.7205 74.0744 93.5057C70.8555 94.2129 67.5137 94.5859 64.082 94.5859Z" fill="#6FBBC6"/>
<path d="M74.148 93.4651C70.5162 88.4067 63.8369 82.8301 64.124 76.1135C64.2219 73.8236 63.9197 71.5262 63.1658 69.3608C63.1539 69.3315 63.1443 69.3028 63.1348 69.2742C62.7535 68.2018 62.1809 67.2094 61.4678 66.3248C59.4994 63.8795 55.2992 57.4998 53.2455 56.6053C49.3238 54.1797 44.0145 55.986 41.9164 59.9686C40.0953 64.5754 39.593 70.8875 34.8357 73.3723C31.992 74.9145 27.8934 74.568 25.7301 72.0145C21.9768 67.1395 16.7219 71.8531 13.4512 74.5961C14.7508 77.024 20.0533 78.8039 21.7682 80.9574C28.8834 89.8951 35.216 93.3404 45.642 95.2113C55.3397 96.9711 65.2908 98.0656 74.0424 93.5188C74.0775 93.5004 74.1129 93.4832 74.148 93.4651Z" fill="#B7E546"/>
<path d="M74.0566 93.5098C66.2871 97.5521 57.3154 99.2008 48.6113 98.2871V98.2852C33.9006 96.8467 20.3244 87.6703 13.4512 74.5957C16.0371 72.4258 19.8672 69.0215 23.2129 70.1094C30.9961 84.6738 46.3789 94.5859 64.082 94.5859C67.5078 94.5859 70.8438 94.2148 74.0566 93.5098Z" fill="#ABD641"/>
<path d="M84.1357 54.3802V76.94L82.6982 78.3049C82.6982 80.1926 80.5521 80.4769 78.6643 80.4769L68.3461 80.3994C67.866 80.3994 67.3981 80.551 67.0094 80.8326L58.4947 86.7449C57.7414 87.2906 56.6869 86.7523 56.6869 85.8222L57.4861 82.9787C57.4861 81.7201 56.4658 80.7 55.2074 80.7H52.4729C50.5852 80.7 49.0547 79.1697 49.0547 77.2818L48.6426 56.1185C48.6426 54.2308 49.3924 52.2398 51.2801 52.2398L52.2328 50.9623H80.7174C82.6053 50.9621 84.1357 52.4926 84.1357 54.3802Z" fill="#FFBF54"/>
<path d="M84.1361 76.94V78.0795C84.1361 79.9672 82.6059 81.4976 80.718 81.4976H68.4855C68.0047 81.4976 67.5375 81.6504 67.1502 81.9307L57.9143 88.6187C57.1623 89.1656 56.1072 88.6279 56.1072 87.6959V83.7764C56.1072 82.5178 55.0869 81.4976 53.8285 81.4976H51.0939C49.2062 81.4976 47.6758 79.9674 47.6758 78.0795V54.3803C47.6758 52.4926 49.2061 50.9621 51.0939 50.9621H52.2334V76.4844C52.2334 76.7361 52.4375 76.94 52.6891 76.94H53.8285C56.4514 76.94 58.7332 78.4234 59.8791 80.5973C60.0744 80.9678 60.548 81.0848 60.8873 80.8389L64.4748 78.2389C65.6484 77.3889 67.0361 76.94 68.4854 76.94H84.1361Z" fill="#FFA442"/>
<path d="M40.5582 29.9648L40.5016 30.0117C39.7477 30.6113 37.1305 33.0078 35.275 35.0625C34.5289 32.2441 35.1774 29.252 38.0719 26.9531C42.0934 23.6328 40.609 17.1641 37.7985 13.5039L36.1059 11.5459C37.4184 11.0029 38.7633 10.5215 40.1364 10.1035C41.3512 11.9492 42.4313 13.5039 42.4313 13.5039C45.3434 18.9277 45.4743 25.9082 40.5582 29.9648Z" fill="#ABD641"/>
<path d="M56.2914 38.8105C56.2387 38.9004 56.184 38.9883 56.1273 39.0762C55.3559 40.2715 54.3481 41.3145 53.1527 42.1348C49.8617 44.3965 45.5941 44.6504 42.0512 42.8047C41.9613 42.7578 41.8695 42.709 41.7777 42.6602C36.2231 39.9375 32.4242 32.7363 37.0941 27.8457C35.6078 32.334 39.1176 37.5156 43.8422 39.7305C43.9379 39.7793 44.0336 39.8281 44.1273 39.875C47.8305 41.7207 52.2914 41.4668 55.7309 39.2051C55.9223 39.0801 56.1098 38.9492 56.2914 38.8105Z" fill="#ABD641"/>
<path d="M48.1191 98.2314C48.1316 98.2328 48.1441 98.2344 48.1566 98.2357C48.1441 98.2344 48.1316 98.233 48.1191 98.2314Z" fill="#94CCD4"/>
<path d="M34.1094 94.2451C34.1537 94.266 34.1984 94.2863 34.2428 94.307C34.1982 94.2863 34.1537 94.266 34.1094 94.2451Z" fill="#94CCD4"/>
<path d="M74.0762 93.5059C73.2695 93.9238 72.4512 94.3164 71.6172 94.6836C72.4375 94.3203 73.2461 93.9316 74.043 93.5176C74.0488 93.5156 74.0527 93.5117 74.0586 93.5098C74.0645 93.5078 74.0703 93.5078 74.0762 93.5059Z" fill="#94CCD4"/>
<path d="M3.03711 28.2231L3.32383 47.8787C3.32383 49.8035 4.89219 51.3639 6.82695 51.3639L17.824 51.7233C18.316 51.7233 18.7955 51.878 19.1939 52.1651L26.6992 58.51C27.4713 59.0664 28.552 58.5176 28.552 57.5692L29.0262 54.5018C29.0262 53.2186 30.0717 52.1783 31.3615 52.1783L34.9912 52.1651C36.926 52.1651 38.8311 51.7057 38.8311 49.7809V25.6166C38.8311 23.6918 37.2627 22.1315 35.3279 22.1315H4.96738C3.03262 22.1315 3.03711 26.2983 3.03711 28.2231Z" fill="#FAF8F8"/>
<path d="M38.832 49.3594V49.7813C38.832 51.7051 37.2637 53.2656 35.3281 53.2656H32.5254C31.2363 53.2656 30.1914 54.3066 30.1914 55.5898V59.5879C30.1914 60.5352 29.1094 61.084 28.3379 60.5273L18.875 53.707C18.4766 53.4199 17.9961 53.2656 17.5039 53.2656H4.96875C3.0332 53.2656 1.46484 51.7051 1.46484 49.7813V25.6172C1.46484 23.6914 3.0332 22.1309 4.96875 22.1309H5.37109V48.3828C5.37109 48.9221 5.8084 49.3594 6.34766 49.3594H17.5039C18.8164 49.3594 20.0957 49.7734 21.1582 50.5391L25.5234 53.6855C25.9414 53.9863 26.5234 53.8027 26.7109 53.3242C27.6211 51.0059 29.8848 49.3594 32.5254 49.3594H38.832Z" fill="#F0E9E6"/>
<path d="M94.1188 30.6469C94.277 30.1641 94.3637 29.6492 94.3637 29.1145V4.95C94.3637 2.22051 92.135 0 89.3957 0H59.0352C56.2959 0 54.0672 2.22051 54.0672 4.95V6.68867C47.5178 6.55742 40.7104 7.9166 34.6918 10.5561C29.1816 12.9609 24.2547 16.3629 20.0344 20.6664H14.8438C14.0348 20.6664 13.3789 21.3223 13.3789 22.1312C13.3789 22.9402 14.0348 23.5961 14.8438 23.5961H35.3285C36.4523 23.5961 37.3668 24.5025 37.3668 25.6164V49.7807C37.3668 50.8947 36.4523 51.8012 35.3285 51.8012H32.526C30.4305 51.8012 28.7256 53.5006 28.7256 55.5895V59.0016L19.7307 52.5195C19.0787 52.0496 18.3088 51.8014 17.5043 51.8014H4.96797C3.84414 51.8014 2.92969 50.8949 2.92969 49.7809V25.6166C2.92969 24.5025 3.84414 23.5963 4.96797 23.5963H8.00781C8.8168 23.5963 9.47266 22.9404 9.47266 22.1314C9.47266 21.3225 8.8168 20.6666 8.00781 20.6666H4.96797C2.22871 20.6666 0 22.8871 0 25.6166V49.7809C0 52.5104 2.22871 54.7311 4.96797 54.7311H6.70254C7.04981 66.673 11.8623 77.8496 20.3465 86.3338C29.1594 95.1465 40.8768 100 53.34 100C59.8199 100 66.0926 98.6965 71.9842 96.1258C77.6744 93.643 82.7451 90.1 87.0557 85.5955C87.615 85.0109 87.5947 84.0838 87.0102 83.5244C86.4254 82.965 85.4984 82.9854 84.9391 83.5699C81.7205 86.9332 78.0689 89.71 74.1066 91.8549C72.2449 89.3772 69.5131 86.3959 67.6867 83.5385L68.0359 83.2867C68.1859 83.1785 68.3635 83.1215 68.5492 83.1215H81.0855C83.8248 83.1215 86.0535 80.901 86.0535 78.1715V54.0072C86.0535 53.6801 86.0207 53.3607 85.9596 53.0512C88.4771 50.0377 89.8562 46.1963 89.8562 42.1426C89.8367 39.26 89.0223 36.4748 87.5268 34.0645H89.3955C90.4236 34.0645 91.3799 33.7516 92.1734 33.2164C95.3818 39.4025 97.0703 46.3178 97.0703 53.34C97.0703 62.3824 94.3348 71.0594 89.1594 78.433C88.6945 79.0951 88.8545 80.0088 89.5168 80.4734C89.9539 80.7875 90.8938 80.9133 91.5572 80.116C97.0805 72.2469 100 62.9879 100 53.34C100 45.3834 97.9684 37.5535 94.1188 30.6469ZM35.3285 20.6666H24.2715C27.7115 17.5934 31.5557 15.1221 35.6828 13.3008L36.6621 14.4307C38.3061 16.5889 39.3322 19.6871 38.9957 22.2811C38.0867 21.2896 36.7793 20.6666 35.3285 20.6666ZM69.4449 90.7086C70.1453 91.5617 70.8187 92.383 71.4371 93.1848C65.8377 95.731 59.7041 97.0703 53.34 97.0703C36.9494 97.0703 22.6389 88.0045 15.152 74.6256C17.2172 72.9223 19.8775 70.8521 22.0029 71.0986C22.8703 71.1994 23.6383 71.7063 24.3506 72.6488C26.133 75.0051 29.1408 75.4643 31.248 75.6047C34.3945 75.4102 37.1984 73.8029 38.949 71.2115C39.4066 70.5443 39.2369 69.6326 38.5697 69.175C37.9025 68.7172 36.9908 68.8873 36.5332 69.5543C35.2744 71.3895 33.6119 72.3824 31.3094 72.6721C28.918 72.4965 27.4893 71.942 26.6873 70.8816C25.484 69.2898 24.0217 68.3836 22.3408 68.1883C19.2383 67.8287 16.1869 70.0086 13.7793 71.9629C11.2941 66.7049 9.82715 60.876 9.63398 54.7309H17.5041C17.69 54.7309 17.8676 54.7879 18.0176 54.8961L27.4811 61.716C27.9404 62.0471 28.4787 62.2154 29.0207 62.2154C29.4309 62.2154 29.843 62.1189 30.2244 61.9238C31.107 61.4721 31.6551 60.5768 31.6551 59.5869V55.5895C31.6551 55.116 32.0457 54.7309 32.5258 54.7309H35.3283C38.0676 54.7309 40.2963 52.5102 40.2963 49.7807V43.5293C42.0398 44.6045 44.8014 45.559 47.0494 45.4979C49.4803 45.4979 51.8996 44.7729 53.9818 43.3428C56.6994 41.4764 58.5705 38.5631 59.1156 35.35C59.1863 34.9328 59.2482 34.5031 59.3014 34.0643H61.8375C62.3176 34.0643 62.708 34.4494 62.708 34.9229V38.9203C62.708 39.91 63.2563 40.8055 64.1387 41.2572C64.8832 41.6057 65.7904 41.7238 66.8818 41.0496L72.9119 36.7041C72.6789 38.9727 72.0687 41.3596 69.2902 44.1324C67.9854 45.4607 67.2363 47.2352 67.1965 49.0568H50.7248C47.9855 49.0568 45.7568 51.2775 45.7568 54.007V54.6402C43.0373 55.677 40.86 57.9652 39.8842 60.8477C39.6715 61.4762 39.3385 62.5467 39.0291 63.5691C38.7926 64.3428 39.2279 65.1617 40.0016 65.3982C40.5914 65.5639 41.4266 65.3596 41.8307 64.4258C42.0383 63.7465 42.323 62.7992 42.6594 61.7869C43.2234 60.1205 44.3391 58.7381 45.757 57.8855V78.1711C45.757 80.9006 47.9857 83.1211 50.725 83.1211H53.5275C54.0076 83.1211 54.398 83.5063 54.398 83.9797V87.977C54.398 88.9666 54.9463 89.8619 55.8287 90.3139C56.2102 90.5092 56.6223 90.6055 57.0326 90.6055C57.5746 90.6055 58.1131 90.4371 58.5723 90.1062L65.3082 85.2522C66.5434 87.1697 68.0131 88.965 69.4449 90.7086ZM83.1242 78.1713C83.1242 79.2854 82.2098 80.1916 81.0859 80.1916H68.5496C67.7449 80.1916 66.975 80.44 66.3232 80.91L57.3281 87.3922V83.9799C57.3281 81.891 55.6232 80.1916 53.5279 80.1916H50.7254C49.6016 80.1916 48.6871 79.2852 48.6871 78.1713V54.0072C48.6871 52.8932 49.6016 51.9867 50.7254 51.9867H68.8182C68.8197 51.9867 68.8211 51.9871 68.8227 51.9871C68.8248 51.9871 68.827 51.9867 68.8291 51.9867H81.0861C82.21 51.9867 83.1244 52.8932 83.1244 54.0072L83.1242 78.1713ZM86.927 42.1525C86.927 45.1283 86.0291 47.9645 84.377 50.3033C83.4998 49.5287 82.3475 49.057 81.0859 49.057H70.1277C70.1668 47.999 70.6121 46.9678 71.3703 46.1961C75.4959 42.0791 75.7467 38.4307 75.948 35.4992C75.9727 35.1391 75.9975 34.7932 76.0279 34.4588L76.3455 34.2299C76.4957 34.1217 76.6732 34.0645 76.8592 34.0645H83.9084C85.8377 36.323 86.9066 39.1779 86.927 42.1525ZM89.3957 31.1348H76.8594C76.0549 31.1348 75.285 31.383 74.633 31.8529L73.7578 32.4836C73.7545 32.4859 73.7512 32.4883 73.7478 32.4906L65.6379 38.3352V34.9229C65.6379 32.834 63.933 31.1346 61.8377 31.1346H59.0352C57.9113 31.1346 56.9969 30.2281 56.9969 29.1143V23.6328C56.9969 22.8238 56.341 22.168 55.532 22.168C54.723 22.168 54.0672 22.8238 54.0672 23.6328V29.1143C54.0672 30.8945 55.0156 32.4576 56.435 33.3299C56.3791 33.8561 56.3107 34.3691 56.2273 34.8604C55.8143 37.2963 54.3912 39.5078 52.3234 40.9279C48.6756 43.4955 43.7605 42.8473 40.2965 39.9803V26.7352C43.4395 22.59 41.867 15.9967 38.5637 12.1512C43.2793 10.4598 48.7572 9.50644 54.067 9.61816V16.7969C54.067 17.6059 54.7229 18.2617 55.5318 18.2617C56.3408 18.2617 56.9967 17.6059 56.9967 16.7969V4.95C56.9967 3.83594 57.9111 2.92969 59.035 2.92969H89.3955C90.5193 2.92969 91.4338 3.83613 91.4338 4.95V29.1143C91.434 30.2283 90.5195 31.1348 89.3957 31.1348Z" fill="black"/>
<path d="M83.2637 9.71738H75.6807V7.22656C75.6807 6.41758 75.0248 5.76172 74.2158 5.76172C73.4068 5.76172 72.751 6.41758 72.751 7.22656V9.71738H65.168C64.359 9.71738 63.7031 10.3732 63.7031 11.1822C63.7031 11.9912 64.359 12.6471 65.168 12.6471H68.2053C68.9086 15.7645 70.2998 18.6312 72.2373 21.0695C70.7547 22.485 69.0201 23.6584 67.0859 24.5205L65.0678 25.4199C64.3287 25.7492 63.9967 26.6152 64.326 27.3541C64.5689 27.8994 65.1041 28.223 65.6648 28.223C65.8641 28.223 66.0666 28.1822 66.2602 28.0959L68.2783 27.1965C70.5047 26.2043 72.5039 24.8572 74.2158 23.233C75.9277 24.8572 77.927 26.2043 80.1533 27.1965L82.1715 28.0959C82.6863 28.3092 83.652 28.2494 84.1057 27.3541C84.435 26.6152 84.1029 25.7492 83.3639 25.4199L81.3457 24.5205C79.4113 23.6586 77.677 22.485 76.1943 21.0695C78.1318 18.6312 79.5229 15.7645 80.2262 12.6471H83.2635C84.0725 12.6471 84.7283 11.9912 84.7283 11.1822C84.7283 10.3732 84.0727 9.71738 83.2637 9.71738ZM74.2158 18.8371C72.8432 17.0037 71.8189 14.9088 71.2207 12.6471H77.2107C76.6125 14.9088 75.5885 17.0037 74.2158 18.8371Z" fill="black"/>
<path d="M12.6923 47.8549C13.4493 48.1404 14.2946 47.7584 14.5799 47.0015L15.8512 43.633H24.4342L25.7188 47.0058C25.9415 47.5904 26.4977 47.9498 27.088 47.9498C27.2612 47.9498 27.4376 47.9187 27.6091 47.8535C28.3651 47.5656 28.7444 46.7193 28.4565 45.9633L21.8561 28.6328C21.8518 28.6217 21.8475 28.6105 21.843 28.5994C21.5555 27.8969 20.8794 27.4426 20.1204 27.4418C20.1196 27.4418 20.1192 27.4418 20.1184 27.4418C19.3604 27.4418 18.6841 27.8947 18.3954 28.5959C18.3899 28.6092 18.3846 28.6226 18.3794 28.6363L11.8389 45.9676C11.5532 46.724 11.9352 47.5693 12.6923 47.8549ZM20.1229 32.3133L23.3184 40.7033H16.9567L20.1229 32.3133Z" fill="black"/>
<path d="M77.1267 57.2266H70.3121C69.5031 57.2266 68.8472 57.8824 68.8472 58.6914C68.8472 59.5004 69.5031 60.1562 70.3121 60.1562H72.2544V64.7461H66.4277C66.7681 64.0529 66.9597 63.274 66.9597 62.4512C66.9597 59.5703 64.616 57.2266 61.7351 57.2266H57.5054C56.6964 57.2266 56.0406 57.8824 56.0406 58.6914C56.0406 59.5004 56.6964 60.1562 57.5054 60.1562H61.7351C63.0005 60.1562 64.03 61.1857 64.03 62.4512C64.03 63.7166 63.0005 64.7461 61.7351 64.7461H57.0353C56.2263 64.7461 55.5705 65.402 55.5705 66.2109C55.5705 67.0199 56.2263 67.6758 57.0353 67.6758H61.7351C63.0005 67.6758 64.03 68.7053 64.03 69.9707C64.03 71.2576 63.022 72.2656 61.7351 72.2656C59.7113 72.2656 57.4138 72.0375 55.7212 70.3449C55.1492 69.7728 54.2216 69.7728 53.6498 70.3449C53.0777 70.917 53.0777 71.8445 53.6498 72.4164C56.1128 74.8795 59.2646 75.1953 61.7351 75.1953C64.616 75.1953 66.9597 72.8516 66.9597 69.9707C66.9597 69.1479 66.7681 68.3689 66.4277 67.6758H72.2544V73.7305C72.2544 74.5395 72.9103 75.1953 73.7193 75.1953C74.5283 75.1953 75.1841 74.5395 75.1841 73.7305V60.1562H77.1265C77.9355 60.1562 78.5914 59.5004 78.5914 58.6914C78.5914 57.8824 77.9357 57.2266 77.1267 57.2266Z" fill="black"/>
</g>
<defs>
<clipPath id="clip0_562_5573">
<rect width="100" height="100" fill="white"/>
</clipPath>
</defs>
</svg>
