<svg width="100" height="100" viewBox="0 0 100 100" fill="none" xmlns="http://www.w3.org/2000/svg">
<path d="M43.75 3.125H6.25C4.52411 3.125 3.125 4.52411 3.125 6.25V43.75C3.125 45.4759 4.52411 46.875 6.25 46.875H43.75C45.4759 46.875 46.875 45.4759 46.875 43.75V6.25C46.875 4.52411 45.4759 3.125 43.75 3.125Z" fill="#F2F2F2"/>
<path d="M93.75 3.125H56.25C54.5241 3.125 53.125 4.52411 53.125 6.25V43.75C53.125 45.4759 54.5241 46.875 56.25 46.875H93.75C95.4759 46.875 96.875 45.4759 96.875 43.75V6.25C96.875 4.52411 95.4759 3.125 93.75 3.125Z" fill="#F2F2F2"/>
<path d="M93.75 53.125H56.25C54.5241 53.125 53.125 54.5241 53.125 56.25V93.75C53.125 95.4759 54.5241 96.875 56.25 96.875H93.75C95.4759 96.875 96.875 95.4759 96.875 93.75V56.25C96.875 54.5241 95.4759 53.125 93.75 53.125Z" fill="#F2F2F2"/>
<path d="M43.75 53.125H6.25C4.52411 53.125 3.125 54.5241 3.125 56.25V93.75C3.125 95.4759 4.52411 96.875 6.25 96.875H43.75C45.4759 96.875 46.875 95.4759 46.875 93.75V56.25C46.875 54.5241 45.4759 53.125 43.75 53.125Z" fill="#F2F2F2"/>
<path d="M50 70.3125C61.2183 70.3125 70.3125 61.2183 70.3125 50C70.3125 38.7817 61.2183 29.6875 50 29.6875C38.7817 29.6875 29.6875 38.7817 29.6875 50C29.6875 61.2183 38.7817 70.3125 50 70.3125Z" fill="#67CC6D"/>
<path d="M45.9062 39.0625H54.1094L51.375 47.2656H56.8438L47.2656 60.9375L48.6406 51.375H43.1719L45.9062 39.0625Z" fill="#FFDF66"/>
<path d="M21.875 28.125C25.3268 28.125 28.125 25.3268 28.125 21.875C28.125 18.4232 25.3268 15.625 21.875 15.625C18.4232 15.625 15.625 18.4232 15.625 21.875C15.625 25.3268 18.4232 28.125 21.875 28.125Z" fill="#FF7375"/>
<path d="M68.75 75H85.6875C86.1607 75.0021 86.6326 74.9497 87.0938 74.8437C87.6604 74.748 88.2014 74.5371 88.6834 74.224C89.1653 73.9109 89.5779 73.5023 89.8957 73.0234C90.2134 72.5446 90.4296 72.0056 90.5309 71.4399C90.6322 70.8742 90.6163 70.2937 90.4844 69.7344C90.179 68.825 89.5395 68.0657 88.6952 67.6102C87.851 67.1547 86.8652 67.0371 85.9375 67.2812C85.5754 67.346 85.2302 67.4836 84.9227 67.6857C84.6153 67.8878 84.3522 68.1501 84.1491 68.4569C83.9461 68.7637 83.8074 69.1085 83.7415 69.4704C83.6755 69.8323 83.6838 70.2038 83.7656 70.5625L68.75 75Z" fill="#B3D4FF"/>
<path d="M62.5 89.0625H79.4375C79.9107 89.0646 80.3826 89.0122 80.8438 88.9062C81.4104 88.8105 81.9514 88.5996 82.4334 88.2865C82.9153 87.9734 83.3279 87.5648 83.6457 87.0859C83.9634 86.6071 84.1796 86.0681 84.2809 85.5024C84.3822 84.9367 84.3663 84.3562 84.2344 83.7969C83.929 82.8875 83.2895 82.1282 82.4452 81.6727C81.601 81.2172 80.6152 81.0996 79.6875 81.3437C79.3254 81.4085 78.9802 81.5461 78.6727 81.7482C78.3653 81.9503 78.1022 82.2126 77.8991 82.5194C77.6961 82.8262 77.5574 83.171 77.4915 83.5329C77.4255 83.8948 77.4338 84.2663 77.5156 84.625L62.5 89.0625Z" fill="#B3D4FF"/>
<path d="M84.0001 35.7031C85.5406 34.8604 86.8244 33.6168 87.7157 32.1039C88.6069 30.591 89.0723 28.8652 89.0626 27.1094C89.0626 21.7656 82.8126 17.4375 79.6876 9.375C76.5626 17.4375 70.3126 21.7656 70.3126 27.1094C70.303 28.8652 70.7684 30.591 71.6596 32.1039C72.5509 33.6168 73.8347 34.8604 75.3752 35.7031C76.7026 36.4103 78.1836 36.7802 79.6876 36.7802C81.1917 36.7802 82.6727 36.4103 84.0001 35.7031Z" fill="#66A8FF"/>
<path d="M29.6876 88.5C30.0204 88.4332 30.3225 88.2598 30.548 88.0061C30.7735 87.7524 30.9103 87.4321 30.9376 87.0938C31.2032 83.8906 30.9376 75.0781 20.1563 72.4687C16.9012 71.6742 13.8776 70.1276 11.3282 67.9531C11.3282 67.9531 6.90634 93.1094 29.6876 88.5Z" fill="#FFC580"/>
<path d="M56.8433 45.7031H53.5308L55.5777 39.5625C55.6597 39.3207 55.6813 39.0625 55.6405 38.8105C55.5997 38.5585 55.4977 38.3203 55.3435 38.1168C55.1893 37.9133 54.9876 37.7506 54.7561 37.6431C54.5245 37.5356 54.2701 37.4865 54.0152 37.5H45.9058C45.5446 37.4912 45.1915 37.6078 44.9066 37.83C44.6217 38.0522 44.4227 38.3663 44.3433 38.7188L41.6089 51.0313C41.5575 51.2583 41.5574 51.494 41.6088 51.7211C41.6602 51.9482 41.7616 52.1609 41.9058 52.3438C42.0513 52.5279 42.2364 52.6769 42.4474 52.7797C42.6584 52.8825 42.8898 52.9364 43.1245 52.9375H46.8745L45.7652 60.75C45.7158 61.0969 45.7844 61.4504 45.9601 61.7536C46.1358 62.0569 46.4083 62.2922 46.7339 62.4219C46.918 62.4946 47.1141 62.5317 47.312 62.5313C47.5639 62.5308 47.812 62.4695 48.0351 62.3525C48.2582 62.2355 48.4497 62.0664 48.5933 61.8594L58.1558 48.1875C58.3099 47.9597 58.4012 47.6953 58.4204 47.4209C58.4396 47.1466 58.3861 46.872 58.2652 46.625C58.1419 46.3509 57.9422 46.1181 57.69 45.9546C57.4378 45.7911 57.1438 45.7038 56.8433 45.7031ZM49.7339 54.6875L50.1714 51.5625C50.2048 51.3406 50.19 51.114 50.128 50.8983C50.0659 50.6826 49.9582 50.4828 49.812 50.3125C49.6639 50.1438 49.4811 50.0091 49.2762 49.9174C49.0713 49.8257 48.849 49.7793 48.6245 49.7813H45.1089L47.1558 40.625H51.937L49.8902 46.7656C49.8081 47.0074 49.7865 47.2656 49.8273 47.5176C49.8682 47.7697 49.9701 48.0078 50.1243 48.2114C50.2785 48.4149 50.4802 48.5775 50.7117 48.685C50.9433 48.7925 51.1977 48.8417 51.4527 48.8281H53.9058L49.7339 54.6875Z" fill="black"/>
<path d="M29.6875 21.875C29.6875 20.3298 29.2293 18.8194 28.3709 17.5346C27.5124 16.2499 26.2923 15.2485 24.8647 14.6572C23.4372 14.0659 21.8663 13.9112 20.3509 14.2126C18.8354 14.5141 17.4433 15.2581 16.3507 16.3507C15.2581 17.4433 14.5141 18.8354 14.2126 20.3509C13.9112 21.8663 14.0659 23.4372 14.6572 24.8647C15.2485 26.2923 16.2499 27.5124 17.5346 28.3709C18.8194 29.2293 20.3298 29.6875 21.875 29.6875C23.947 29.6875 25.9341 28.8644 27.3993 27.3993C28.8644 25.9341 29.6875 23.947 29.6875 21.875ZM21.875 26.5625C20.9479 26.5625 20.0416 26.2876 19.2708 25.7725C18.4999 25.2575 17.8991 24.5254 17.5443 23.6688C17.1895 22.8123 17.0967 21.8698 17.2776 20.9605C17.4584 20.0512 17.9049 19.216 18.5604 18.5604C19.216 17.9049 20.0512 17.4584 20.9605 17.2776C21.8698 17.0967 22.8123 17.1895 23.6688 17.5443C24.5254 17.8991 25.2575 18.4999 25.7725 19.2708C26.2876 20.0416 26.5625 20.9479 26.5625 21.875C26.5625 23.1182 26.0686 24.3105 25.1896 25.1896C24.3105 26.0686 23.1182 26.5625 21.875 26.5625Z" fill="black"/>
<path d="M86.75 73.3124C86.4016 73.3935 86.0452 73.4354 85.6875 73.4374H68.75V76.5624H85.6875C86.2977 76.5693 86.9065 76.5011 87.5 76.3593C88.3166 76.1865 89.0895 75.8495 89.7717 75.3687C90.454 74.8878 91.0314 74.2733 91.4688 73.5624C92.0267 72.6735 92.3036 71.6371 92.2635 70.5883C92.2233 69.5396 91.8679 68.5274 91.2436 67.6837C90.6193 66.8401 89.7552 66.2043 88.764 65.8593C87.7728 65.5144 86.7007 65.4762 85.6875 65.7499C85.0954 65.8858 84.5363 66.1381 84.0427 66.4922C83.5491 66.8463 83.1309 67.2951 82.8125 67.8124C82.5323 68.2768 82.3491 68.7931 82.2739 69.3302C82.1987 69.8672 82.2331 70.414 82.375 70.9374L85.3906 70.1093C85.354 69.9898 85.3434 69.8638 85.3596 69.7398C85.3757 69.6158 85.4183 69.4967 85.4844 69.3906C85.6969 69.0785 86.0214 68.8603 86.3906 68.7812C86.9272 68.6372 87.4982 68.6982 87.9922 68.9525C88.4862 69.2067 88.8678 69.6358 89.0625 70.1562C89.1427 70.458 89.1605 70.773 89.1149 71.082C89.0692 71.391 88.961 71.6873 88.7969 71.9531C88.5717 72.312 88.2728 72.6188 87.9198 72.8532C87.5669 73.0876 87.1681 73.2441 86.75 73.3124Z" fill="black"/>
<path d="M80.5 87.3749C80.1516 87.456 79.7952 87.4979 79.4375 87.4999H62.5V90.6249H79.4375C80.0477 90.6318 80.6565 90.5636 81.25 90.4218C82.0666 90.249 82.8395 89.912 83.5217 89.4312C84.204 88.9503 84.7814 88.3358 85.2188 87.6249C85.7767 86.736 86.0536 85.6996 86.0135 84.6508C85.9733 83.6021 85.6179 82.5899 84.9936 81.7462C84.3693 80.9026 83.5052 80.2668 82.514 79.9218C81.5228 79.5769 80.4507 79.5387 79.4375 79.8124C78.8454 79.9483 78.2863 80.2006 77.7927 80.5547C77.2991 80.9088 76.8809 81.3576 76.5625 81.8749C76.2823 82.3393 76.0991 82.8556 76.0239 83.3927C75.9487 83.9297 75.9831 84.4765 76.125 84.9999L79.1406 84.1718C79.104 84.0523 79.0934 83.9263 79.1096 83.8023C79.1257 83.6783 79.1683 83.5592 79.2344 83.4531C79.4469 83.141 79.7714 82.9228 80.1406 82.8437C80.6772 82.6997 81.2482 82.7607 81.7422 83.015C82.2362 83.2692 82.6178 83.6983 82.8125 84.2187C82.8927 84.5205 82.9105 84.8355 82.8649 85.1445C82.8192 85.4535 82.711 85.7498 82.5469 86.0156C82.3217 86.3745 82.0228 86.6813 81.6698 86.9157C81.3169 87.1501 80.9181 87.3066 80.5 87.3749Z" fill="black"/>
<path d="M84.7503 37.0782C86.5384 36.1019 88.0288 34.6596 89.0632 32.9044C90.0976 31.1492 90.6374 29.1467 90.6253 27.1094C90.6253 23.6875 88.6096 20.8594 86.2659 17.5782C84.192 14.8859 82.4698 11.9403 81.1409 8.81253C81.0257 8.52109 80.8255 8.27102 80.5664 8.09479C80.3073 7.91857 80.0011 7.82434 79.6878 7.82434C79.3744 7.82434 79.0682 7.91857 78.8091 8.09479C78.55 8.27102 78.3498 8.52109 78.2346 8.81253C76.9058 11.9403 75.1835 14.8859 73.1096 17.5782C70.7659 20.8594 68.7503 23.6875 68.7503 27.1094C68.7364 29.147 69.2755 31.1502 70.3101 32.9057C71.3447 34.6612 72.836 36.1032 74.6253 37.0782C76.1835 37.9085 77.9221 38.3427 79.6878 38.3427C81.4534 38.3427 83.192 37.9085 84.7503 37.0782ZM71.8753 27.1094C71.8753 24.6875 73.5471 22.4219 75.6565 19.3907C77.1384 17.3943 78.4851 15.3011 79.6878 13.125C80.891 15.2957 82.2377 17.3837 83.719 19.375C85.8284 22.3594 87.5003 24.6875 87.5003 27.1094C87.5209 28.5909 87.1377 30.0499 86.3916 31.33C85.6456 32.6101 84.565 33.6628 83.2659 34.375C82.1613 34.9425 80.9374 35.2386 79.6956 35.2386C78.4538 35.2386 77.2298 34.9425 76.1253 34.375C74.8232 33.6648 73.7394 32.613 72.9906 31.3328C72.2417 30.0526 71.8561 28.5924 71.8753 27.1094Z" fill="black"/>
<path d="M85.9375 27.1094H82.8125C82.8347 27.7424 82.6815 28.3692 82.3699 28.9206C82.0584 29.4721 81.6005 29.9267 81.0469 30.2344C80.6319 30.4665 80.163 30.5851 79.6875 30.5781V33.7031C80.6767 33.7136 81.6515 33.4658 82.5156 32.9844C83.5681 32.411 84.4435 31.5602 85.0467 30.5246C85.6499 29.4889 85.958 28.3078 85.9375 27.1094Z" fill="black"/>
<path d="M20.3125 32.8125H23.4375V35.9375H20.3125V32.8125Z" fill="black"/>
<path d="M32.8125 20.3125H35.9375V23.4375H32.8125V20.3125Z" fill="black"/>
<path d="M7.8125 20.3125H10.9375V23.4375H7.8125V20.3125Z" fill="black"/>
<path d="M20.3125 7.8125H23.4375V10.9375H20.3125V7.8125Z" fill="black"/>
<path d="M10.8164 30.7238L13.0261 28.514L15.2358 30.7238L13.0261 32.9335L10.8164 30.7238Z" fill="black"/>
<path d="M28.5078 30.7188L30.7175 28.509L32.9272 30.7188L30.7175 32.9285L28.5078 30.7188Z" fill="black"/>
<path d="M10.8105 13.0312L13.0203 10.8215L15.23 13.0312L13.0203 15.241L10.8105 13.0312Z" fill="black"/>
<path d="M28.5039 13.0262L30.7136 10.8165L32.9233 13.0262L30.7136 15.236L28.5039 13.0262Z" fill="black"/>
<path d="M6.25 48.4375H25V45.3125H6.25C5.8356 45.3125 5.43817 45.1479 5.14515 44.8549C4.85212 44.5618 4.6875 44.1644 4.6875 43.75V6.25C4.6875 5.8356 4.85212 5.43817 5.14515 5.14515C5.43817 4.85212 5.8356 4.6875 6.25 4.6875H43.75C44.1644 4.6875 44.5618 4.85212 44.8549 5.14515C45.1479 5.43817 45.3125 5.8356 45.3125 6.25V25H48.4375V6.25C48.4375 5.0068 47.9436 3.81451 47.0646 2.93544C46.1855 2.05636 44.9932 1.5625 43.75 1.5625H6.25C5.0068 1.5625 3.81451 2.05636 2.93544 2.93544C2.05636 3.81451 1.5625 5.0068 1.5625 6.25V43.75C1.5625 44.9932 2.05636 46.1855 2.93544 47.0646C3.81451 47.9436 5.0068 48.4375 6.25 48.4375Z" fill="black"/>
<path d="M93.75 1.5625H56.25C55.0068 1.5625 53.8145 2.05636 52.9354 2.93544C52.0564 3.81451 51.5625 5.0068 51.5625 6.25V25H54.6875V6.25C54.6875 5.8356 54.8521 5.43817 55.1451 5.14515C55.4382 4.85212 55.8356 4.6875 56.25 4.6875H93.75C94.1644 4.6875 94.5618 4.85212 94.8549 5.14515C95.1479 5.43817 95.3125 5.8356 95.3125 6.25V43.75C95.3125 44.1644 95.1479 44.5618 94.8549 44.8549C94.5618 45.1479 94.1644 45.3125 93.75 45.3125H75V48.4375H93.75C94.9932 48.4375 96.1855 47.9436 97.0646 47.0646C97.9436 46.1855 98.4375 44.9932 98.4375 43.75V6.25C98.4375 5.0068 97.9436 3.81451 97.0646 2.93544C96.1855 2.05636 94.9932 1.5625 93.75 1.5625Z" fill="black"/>
<path d="M6.25 98.4375H43.75C44.9932 98.4375 46.1855 97.9436 47.0646 97.0646C47.9436 96.1855 48.4375 94.9932 48.4375 93.75V75H45.3125V93.75C45.3125 94.1644 45.1479 94.5618 44.8549 94.8549C44.5618 95.1479 44.1644 95.3125 43.75 95.3125H6.25C5.8356 95.3125 5.43817 95.1479 5.14515 94.8549C4.85212 94.5618 4.6875 94.1644 4.6875 93.75V56.25C4.6875 55.8356 4.85212 55.4382 5.14515 55.1451C5.43817 54.8521 5.8356 54.6875 6.25 54.6875H25V51.5625H6.25C5.0068 51.5625 3.81451 52.0564 2.93544 52.9354C2.05636 53.8145 1.5625 55.0068 1.5625 56.25V93.75C1.5625 94.9932 2.05636 96.1855 2.93544 97.0646C3.81451 97.9436 5.0068 98.4375 6.25 98.4375Z" fill="black"/>
<path d="M93.75 51.5625H75V54.6875H93.75C94.1644 54.6875 94.5618 54.8521 94.8549 55.1451C95.1479 55.4382 95.3125 55.8356 95.3125 56.25V93.75C95.3125 94.1644 95.1479 94.5618 94.8549 94.8549C94.5618 95.1479 94.1644 95.3125 93.75 95.3125H56.25C55.8356 95.3125 55.4382 95.1479 55.1451 94.8549C54.8521 94.5618 54.6875 94.1644 54.6875 93.75V75H51.5625V93.75C51.5625 94.9932 52.0564 96.1855 52.9354 97.0646C53.8145 97.9436 55.0068 98.4375 56.25 98.4375H93.75C94.9932 98.4375 96.1855 97.9436 97.0646 97.0646C97.9436 96.1855 98.4375 94.9932 98.4375 93.75V56.25C98.4375 55.0068 97.9436 53.8145 97.0646 52.9354C96.1855 52.0564 94.9932 51.5625 93.75 51.5625Z" fill="black"/>
<path d="M50 28.125C45.6735 28.125 41.4442 29.4079 37.8469 31.8116C34.2496 34.2153 31.4458 37.6317 29.7901 41.6288C28.1345 45.6259 27.7013 50.0243 28.5453 54.2676C29.3894 58.5109 31.4728 62.4087 34.532 65.468C37.5913 68.5272 41.4891 70.6106 45.7324 71.4547C49.9757 72.2987 54.3741 71.8655 58.3712 70.2099C62.3683 68.5542 65.7848 65.7504 68.1884 62.1531C70.5921 58.5558 71.875 54.3265 71.875 50C71.875 44.1984 69.5703 38.6344 65.468 34.532C61.3656 30.4297 55.8016 28.125 50 28.125ZM50 68.75C46.2916 68.75 42.6665 67.6503 39.5831 65.5901C36.4996 63.5298 34.0964 60.6014 32.6773 57.1753C31.2581 53.7492 30.8868 49.9792 31.6103 46.3421C32.3338 42.7049 34.1195 39.364 36.7418 36.7417C39.364 34.1195 42.7049 32.3338 46.3421 31.6103C49.9792 30.8868 53.7492 31.2581 57.1753 32.6773C60.6014 34.0964 63.5298 36.4996 65.5901 39.5831C67.6503 42.6665 68.75 46.2916 68.75 50C68.75 54.9728 66.7746 59.7419 63.2583 63.2583C59.742 66.7746 54.9728 68.75 50 68.75Z" fill="black"/>
<path d="M12.3429 66.8126C12.1371 66.6194 11.8828 66.4855 11.607 66.4253C11.3313 66.365 11.0443 66.3806 10.7767 66.4704C10.5091 66.5601 10.2708 66.7207 10.0871 66.935C9.90341 67.1493 9.78121 67.4094 9.73348 67.6876C9.63973 68.2032 7.60848 80.4688 14.2179 86.9063C15.5952 88.1737 17.2105 89.155 18.97 89.7934C20.7295 90.4317 22.5983 90.7144 24.4679 90.6251C26.311 90.6067 28.1479 90.4079 29.9522 90.0313C30.615 89.8947 31.2156 89.5467 31.6636 89.0395C32.1116 88.5323 32.3829 87.8934 32.4366 87.2188C32.7022 84.0938 32.6397 73.8907 20.4835 70.9376C17.4935 70.1942 14.7105 68.784 12.3429 66.8126ZM29.3585 85.1094C28.1241 84.3751 26.8897 83.6094 25.6241 82.8126L19.4991 79.4844C20.9538 82.7154 23.3429 85.4365 26.3585 87.2969C22.0304 87.6876 18.6866 86.7813 16.4054 84.5782C12.6085 80.9844 12.3585 74.4844 12.4991 70.8594C14.7086 72.2964 17.1434 73.3527 19.7022 73.9844C27.671 75.8907 29.2179 81.4844 29.3585 85.1094Z" fill="black"/>
</svg>
