<svg width="100" height="100" viewBox="0 0 100 100" fill="none" xmlns="http://www.w3.org/2000/svg">
<g clip-path="url(#clip0_563_8094)">
<path d="M1.46484 4.15173V95.848C1.46484 96.9267 2.33926 97.8011 3.41797 97.8011H96.582C97.6607 97.8011 98.5352 96.9267 98.5352 95.848V4.15173C98.5352 3.07302 97.6607 2.19861 96.582 2.19861H3.41797C2.33926 2.19861 1.46484 3.07322 1.46484 4.15173Z" fill="#BC7C63"/>
<path d="M96.582 2.19861H92.4807C93.5594 2.19861 94.4336 3.07302 94.4336 4.15173V95.848C94.4336 96.9267 93.5592 97.8011 92.4805 97.8011H96.582C97.6607 97.8011 98.5352 96.9267 98.5352 95.848V4.15173C98.5352 3.07322 97.6607 2.19861 96.582 2.19861Z" fill="#AA6A51"/>
<path d="M60.4237 56.3301C60.9519 54.7814 61.8165 53.3482 62.9798 52.1422C63.7105 51.384 64.5433 50.733 65.4552 50.2066L82.1589 40.5627C84.1274 39.4261 83.2552 37.9701 82.9921 37.5117C80.2073 32.659 73.0302 28.423 65.2513 32.914L60.2093 35.825C58.9577 36.5476 57.5323 36.9138 56.0874 36.8844C53.3503 36.8285 50.748 37.5367 48.5079 38.8299C45.0454 40.8289 42.4476 44.2248 41.5485 48.3586C40.5228 53.072 41.9839 57.982 45.4187 61.3687L55.9321 71.7338C56.9495 72.7363 58.1921 73.4351 59.5261 73.7933C60.8597 74.1529 62.2855 74.1715 63.6679 73.8142C65.6741 73.2961 67.4067 72.0308 68.5112 70.2769L71.4513 65.6097C72.1542 64.4922 73.1202 63.5629 74.2634 62.9027L85.081 56.6572C86.1386 56.0467 86.9626 55.1494 87.4843 54.1025C88.0054 53.0547 88.2261 51.8572 88.0765 50.6451C87.9206 49.382 86.5853 48.6324 85.4253 49.1562L60.364 60.2742C60.1909 60.351 60.0108 60.399 59.8302 60.4183C59.7732 59.0195 59.979 57.6338 60.4237 56.3301ZM54.6026 51.4418C54.1638 52.2922 53.2177 52.7525 52.2776 52.573C51.4042 52.4062 50.7224 51.7215 50.5591 50.8472L49.9189 47.4166C49.6511 45.9818 50.8536 44.6998 52.3026 44.8756L54.5716 45.1508C56.0663 45.332 56.9218 46.9484 56.2314 48.2863L54.6026 51.4418Z" fill="#D3E1F5"/>
<path d="M88.0775 50.6451C88.2271 51.8572 88.0062 53.0547 87.4853 54.1025C86.9639 55.1494 86.1396 56.0466 85.082 56.6572L74.2644 62.9027C73.1213 63.5629 72.1553 64.4922 71.4523 65.6097L68.5123 70.2769C67.4078 72.0308 65.675 73.2961 63.6689 73.8142C62.2865 74.1715 60.8607 74.1529 59.5271 73.7933C58.1932 73.4351 56.9504 72.7363 55.9332 71.7338L49.9092 65.7947C48.0869 63.998 48.1955 61.0017 50.1779 59.3836C50.1922 59.3718 50.2066 59.3603 50.2209 59.3488C50.4641 59.1537 50.7195 58.9797 50.9818 58.8281C53.3449 57.4638 56.3898 57.8507 58.3338 59.8756C58.5963 60.1492 58.9314 60.3259 59.2873 60.3951C59.4652 60.4297 59.649 60.4388 59.8316 60.4185C60.0125 60.3992 60.1924 60.3511 60.3654 60.2744L85.4264 49.1562C86.5861 48.6324 87.9215 49.382 88.0775 50.6451Z" fill="#C0D6F2"/>
<path d="M88.0758 50.6451C87.9266 49.4369 86.6988 48.7015 85.5772 49.098C85.601 50.1017 85.3789 51.08 84.9443 51.9541C84.4229 53.0009 83.5986 53.8982 82.541 54.5087L71.7234 60.7543C70.5801 61.4144 69.6143 62.3437 68.9113 63.4613L65.9713 68.1285C64.8668 69.8824 63.1342 71.1476 61.1279 71.6658C59.7455 72.023 58.3197 72.0044 56.9861 71.6449C56.2906 71.4582 55.6209 71.1767 54.9941 70.8099L55.9313 71.7337C56.9484 72.7363 58.1912 73.4351 59.5252 73.7933C60.8588 74.1529 62.2846 74.1714 63.667 73.8142C65.6732 73.296 67.4059 72.0308 68.5104 70.2769L71.4504 65.6097C72.1533 64.4921 73.1193 63.5628 74.2625 62.9027L85.0801 56.6572C86.1377 56.0466 86.9617 55.1494 87.4834 54.1025C88.0045 53.0546 88.2252 51.8572 88.0758 50.6451Z" fill="#98BCE5"/>
<path d="M35.2382 71.4578C33.8872 68.2803 31.0574 65.7101 27.698 64.9127C24.3384 64.115 20.5367 65.2176 18.3029 67.8506C16.0691 70.4836 15.6412 74.5742 17.4796 77.4971C17.516 77.5549 17.5554 77.6103 17.5935 77.6672L10.9107 84.9004C10.6972 85.1314 10.7193 85.4928 10.957 85.699C14.1228 88.4459 18.3117 90.0398 22.4978 89.8662C26.8757 89.6847 31.1777 87.5055 33.7318 83.9451C36.2857 80.3847 36.9527 75.4902 35.2382 71.4578Z" fill="#FFEFD2"/>
<path d="M30.6539 42.3182L27.0153 41.8486C26.5321 41.7863 26.0555 42.0051 25.7879 42.4125L23.7153 45.5674C23.3094 46.1851 23.5129 47.0174 24.158 47.3781L30.7123 51.0434C31.6274 51.5551 32.7342 50.8037 32.5963 49.7642L31.7533 43.4135C31.6774 42.8416 31.2264 42.392 30.6539 42.3182Z" fill="#E5EEF9"/>
<path d="M1.46504 29.075C13.5377 22.8908 24.2283 31.0441 31.8311 30.1834C44.1135 28.7929 55.2113 20.7722 67.5625 21.2638C74.5492 21.542 94.6492 31.4812 98.5352 32.4459V4.15173C98.5352 3.07302 97.6607 2.19861 96.582 2.19861H3.41797C2.33926 2.19861 1.46484 3.07302 1.46484 4.15173L1.46504 29.075Z" fill="#FEDBBD"/>
<path d="M98.535 32.4461V4.15173C98.535 3.07302 97.6605 2.19861 96.5818 2.19861H92.4805C93.559 2.1988 94.4334 3.07302 94.4334 4.15173V30.9148C96.3014 31.6892 97.7496 32.2509 98.535 32.4461Z" fill="#FECA9C"/>
<path d="M79.3861 7.68767L87.676 7.80779C88.1863 7.81521 88.6023 8.2195 88.624 8.72966L88.8941 15.074C88.9168 15.6052 88.5045 16.0543 87.9732 16.0769L82.3469 16.3175C81.9498 16.3345 81.583 16.1056 81.4236 15.7416L78.49 9.0363C78.2094 8.3947 78.6857 7.67751 79.3861 7.68767Z" fill="#FFB09E"/>
<path d="M47.6181 13.2038L56.7157 10.9462C57.2185 10.8214 57.7396 11.0677 57.9624 11.5353L59.1444 14.0152C59.4122 14.5771 59.156 15.249 58.5819 15.4896L47.0075 20.3441C46.1774 20.6921 45.3069 19.9414 45.5294 19.0693L46.8241 13.9925C46.9235 13.6037 47.2284 13.3005 47.6181 13.2038Z" fill="#FFB09E"/>
<path d="M73.2092 14.289L71.0656 8.28197C70.9385 7.92552 70.6008 7.68744 70.2223 7.68744H65.5691C65.0746 7.68744 64.6738 8.08822 64.6738 8.58275V15.1622C64.6738 15.6865 65.1221 16.0984 65.6443 16.0544L72.441 15.482C73.0266 15.4328 73.4066 14.8423 73.2092 14.289Z" fill="#FFB09E"/>
<path d="M45.9019 7.93023L39.7507 14.806C39.3079 15.3011 38.5656 15.3884 38.0197 15.0099L32.5001 11.1816C31.5761 10.5406 31.8296 9.1109 32.9177 8.82672L44.5884 5.77925C45.1304 5.63765 45.7027 5.85484 46.0144 6.32027C46.349 6.81968 46.3025 7.48218 45.9019 7.93023Z" fill="#FFB09E"/>
<path d="M28.5822 24.7931L35.718 22.2824C36.2069 22.1103 36.3477 21.4867 35.9803 21.1212L28.0121 13.1976C27.7264 12.9134 27.2606 12.9273 26.9922 13.2281L23.0182 17.6826C22.8598 17.8601 22.802 18.1058 22.8647 18.3353L24.2178 23.2968C24.2819 23.532 24.4633 23.7169 24.6971 23.7859L28.1506 24.8042C28.2918 24.846 28.443 24.8421 28.5822 24.7931Z" fill="#FFB09E"/>
<path d="M21.627 8.98218L16.5203 15.9271C16.4315 16.048 16.3797 16.1923 16.3713 16.3421L16.1322 20.6445C16.1104 21.0394 15.7938 21.3541 15.3989 21.3736L9.72912 21.6548C9.34846 21.6738 9.01096 21.4125 8.93381 21.0392L6.97698 11.5681C6.90764 11.2324 7.0676 10.891 7.37014 10.7296L16.3963 5.91578C16.6082 5.80269 16.8608 5.79468 17.0795 5.8939L21.3237 7.82027C21.7707 8.02339 21.9178 8.58648 21.627 8.98218Z" fill="#FFB09E"/>
<path d="M54.7483 43.6966L52.4795 43.4214C51.3223 43.2806 50.1979 43.6884 49.3992 44.54C48.6004 45.3914 48.2651 46.5378 48.4793 47.6855L49.1195 51.116C49.3951 52.5933 50.5272 53.73 52.0035 54.0119C52.227 54.0546 52.451 54.0753 52.6735 54.0753C54.0094 54.0753 55.2779 53.3283 55.9049 52.1138L57.5334 48.9584C58.0778 47.9041 58.0713 46.6484 57.5162 45.5996C56.9608 44.5507 55.9262 43.8394 54.7483 43.6966ZM54.9297 47.6144L53.301 50.7699C53.161 51.0416 52.8529 51.1908 52.5528 51.1341C52.2695 51.08 52.0524 50.8619 51.9994 50.5785L51.3592 47.148C51.3029 46.8466 51.4455 46.6404 51.5356 46.5445C51.6162 46.4584 51.7828 46.3244 52.036 46.3244C52.0649 46.3244 52.0951 46.3261 52.1266 46.3298L54.3955 46.605C54.7094 46.6431 54.8629 46.8502 54.9264 46.9701C54.9901 47.09 55.0748 47.3334 54.9297 47.6144Z" fill="black"/>
<path d="M64.3255 35.1402C65.0261 34.7357 65.2661 33.8398 64.8616 33.1393C64.4573 32.4387 63.5608 32.1986 62.8606 32.6031L59.4776 34.5563C58.4577 35.1451 57.2993 35.4473 56.1182 35.4197C53.1925 35.3617 50.3065 36.1004 47.7764 37.5613C43.8678 39.8178 41.0766 43.6398 40.1182 48.0471C38.9792 53.2805 40.5766 58.6506 44.3911 62.4119L54.9048 72.7771C56.0833 73.9387 57.5503 74.7791 59.1456 75.2076C60.73 75.635 62.421 75.6496 64.0352 75.2326C66.4128 74.6186 68.4428 73.1359 69.7516 71.0578L72.6923 66.39C73.2661 65.4779 74.063 64.7107 74.9969 64.1717L85.8147 57.926C87.1028 57.1822 88.1339 56.0861 88.7971 54.7549C89.4596 53.4227 89.7136 51.9393 89.5315 50.4658C89.3997 49.3969 88.7856 48.4813 87.8466 47.9537C86.9071 47.426 85.805 47.3775 84.8327 47.8174L61.4475 58.1914C61.5341 57.7225 61.6552 57.259 61.8108 56.8029C62.2792 55.4293 63.0274 54.2033 64.0354 53.1584C65.4177 51.7234 66.6407 51.2725 67.9319 50.4682L68.1065 50.7705C68.5132 51.4744 69.4104 51.7094 70.1075 51.3066C70.8083 50.9022 71.0481 50.0063 70.6436 49.3055L70.4692 49.0033L72.7735 47.6729L72.9479 47.975C73.3528 48.6766 74.2485 48.9154 74.9489 48.5113C75.6495 48.1068 75.8895 47.2109 75.485 46.5104L75.3106 46.2082L77.6149 44.8777L77.7893 45.1799C78.1942 45.8814 79.0899 46.1203 79.7903 45.7162C80.4909 45.3117 80.7309 44.4158 80.3264 43.7152L80.152 43.4131L82.8919 41.8313C84.9011 40.6713 85.4177 38.7906 84.2735 36.8004L84.2632 36.7826C81.8473 32.5725 76.2235 28.5785 69.5844 29.7553C68.7878 29.8967 68.2565 30.6568 68.3979 31.4535C68.5391 32.25 69.3001 32.7813 70.096 32.64C75.3411 31.7102 79.8001 34.891 81.7221 38.2408L81.7337 38.2607C82.0175 38.7547 82.1034 38.9037 81.427 39.2943L64.7231 48.9383C61.9589 50.5348 59.996 53.0484 59.0382 55.8574C58.7909 56.582 58.612 57.3215 58.4991 58.0703C56.1298 56.276 52.8895 56.0354 50.2489 57.5598C48.8114 58.3902 47.779 59.5795 47.3436 61.2092L46.4479 60.3262C43.3528 57.2742 42.0567 52.917 42.9809 48.6703C43.7643 45.0678 46.046 41.9438 49.2413 40.099C51.3083 38.9055 53.6706 38.3006 56.0583 38.3494C57.7762 38.3832 59.4595 37.9504 60.9425 37.0939L64.3255 35.1402ZM50.9376 64.752C50.3552 64.1777 50.0427 63.3791 50.0811 62.5615C50.1348 61.4166 50.7684 60.6428 51.7139 60.0967C53.5327 59.0469 55.8198 59.3729 57.2762 60.8897C58.246 61.9006 59.7286 62.1605 60.9587 61.6135L86.0292 50.4914C86.2897 50.3734 86.5882 50.5412 86.6233 50.825C86.8493 52.6537 85.9659 54.4555 84.3493 55.3891L73.5315 61.6348C72.1862 62.4113 71.0384 63.5164 70.2124 64.8295L67.2721 69.4967C66.3634 70.94 64.9532 71.9697 63.3018 72.3963C61.0313 72.9832 58.6229 72.3289 56.961 70.691L50.9376 64.752Z" fill="black"/>
<path d="M72.083 41.6662C72.7092 41.6662 73.2891 41.2613 73.4826 40.6314L74.393 37.6699C74.6307 36.8966 74.1965 36.0771 73.4232 35.8392C72.6506 35.6017 71.8305 36.0355 71.5926 36.8089L70.6822 39.7705C70.4445 40.5437 70.8787 41.3632 71.652 41.6011C71.7953 41.6451 71.9402 41.6662 72.083 41.6662Z" fill="black"/>
<path d="M15.787 77.4631L9.83442 83.9058C9.0604 84.7428 9.13481 86.0582 9.99614 86.8053C17.7979 93.575 29.0196 92.5314 34.6545 85.1588C37.8686 80.9543 38.4664 75.308 36.5856 70.8848C34.7457 66.5578 30.2346 62.9816 25.0256 63.2053C19.6276 63.4377 15.1557 67.2982 14.875 72.8264C14.7911 74.4771 15.118 76.0904 15.787 77.4631ZM12.6414 85.185L17.5426 79.8801C19.1422 81.433 21.3418 82.4004 23.6207 82.2777L25.2772 87.9674C20.8014 89.1508 16.1284 87.8668 12.6414 85.185ZM27.5461 66.3889L25.7487 69.3057C24.6262 69.0465 23.4301 69.0818 22.3372 69.4588C21.5723 69.7225 21.1661 70.5562 21.4297 71.3211C21.6934 72.0859 22.5262 72.4924 23.292 72.2285C24.4094 71.8435 25.8938 72.1951 26.6723 73.0289C27.6694 74.0971 27.8307 75.9752 27.0391 77.3051C26.2477 78.6346 24.5448 79.4756 22.8993 79.349C21.0504 79.2072 19.3274 77.9523 18.4752 76.2859C17.3014 73.9889 17.6717 70.8586 19.4194 68.7984C21.2278 66.6664 24.4651 65.5793 27.5461 66.3889ZM28.0219 86.9152L26.4614 81.5547C27.7422 80.95 28.8426 80.0016 29.5553 78.8051L34.3473 79.2037C33.4637 82.6285 31.1957 85.29 28.0219 86.9152ZM34.7248 76.2955L30.4543 75.9402C30.5956 74.1537 30.0342 72.3371 28.8137 71.0297C28.6778 70.8842 28.5313 70.7492 28.3803 70.6193L30.2338 67.6115C32.987 69.4519 34.7403 72.5758 34.7248 76.2955Z" fill="black"/>
<path d="M27.2018 40.3959C26.1694 40.2625 25.1339 40.7384 24.5628 41.6082L22.4903 44.763C22.0743 45.396 21.9389 46.1812 22.1188 46.9169C22.2987 47.6527 22.7784 48.2916 23.4423 48.6566C29.9751 52.248 30.1048 52.673 31.3343 52.6726C32.9454 52.6726 34.2708 51.2535 34.0475 49.5714L33.2046 43.2209C33.0417 41.9923 32.0694 41.0238 30.8405 40.8652L27.2018 40.3959ZM31.093 49.5785L25.0514 46.2L26.9456 43.3167L30.3194 43.7521L31.093 49.5785Z" fill="black"/>
<path d="M96.582 0.733765H3.41797C1.5334 0.733765 0 2.26716 0 4.15173V58.4345C0 59.2435 0.655664 59.8994 1.46484 59.8994C2.27402 59.8994 2.92969 59.2435 2.92969 58.4345V29.9937C9.88691 26.7992 16.4125 28.5658 22.1949 30.133C25.6953 31.0818 29.0012 31.9777 31.9959 31.6388C37.5812 31.0066 42.9217 29.0488 48.0865 27.1554C54.6678 24.7426 60.8811 22.4636 67.5045 22.7275C71.8738 22.9013 82.5773 27.4658 89.6602 30.4863C92.7982 31.8246 95.4109 32.9381 97.0705 33.5207V95.848C97.0705 96.1172 96.8516 96.3363 96.5822 96.3363H3.41816C3.14883 96.3363 2.92988 96.1172 2.92988 95.848V65.2707C2.92988 64.4617 2.27422 63.8058 1.46504 63.8058C0.655859 63.8058 0.000195313 64.4617 0.000195313 65.2707V95.8482C0.000195313 97.7328 1.53359 99.2662 3.41816 99.2662H96.5822C98.4668 99.2662 100 97.7328 100 95.8482V4.15173C100 2.26716 98.4666 0.733765 96.582 0.733765ZM90.809 27.7916C82.6643 24.3181 72.5277 19.9955 67.6205 19.8002C60.4223 19.5133 53.6373 22.0002 47.0777 24.4049C42.0752 26.2386 36.9023 28.1351 31.666 28.7279C29.2285 29.0039 26.3238 28.2168 22.9611 27.3054C17.3043 25.772 10.3834 23.8994 2.92969 26.8125V4.15173C2.92969 3.88259 3.14863 3.66345 3.41797 3.66345H96.582C96.8514 3.66345 97.0703 3.88259 97.0703 4.15173V30.399C95.4984 29.7912 93.2656 28.839 90.809 27.7916Z" fill="black"/>
<path d="M87.6973 6.34314L79.4076 6.22302C78.5852 6.21306 77.8092 6.61618 77.3502 7.30681C76.8912 7.99763 76.8158 8.86364 77.1483 9.62361L80.0817 16.3285C80.4666 17.2088 81.3526 17.7834 82.308 17.7834C82.3418 17.7834 82.3758 17.7826 82.4098 17.7812L88.0361 17.5406C88.684 17.5129 89.2824 17.2347 89.7209 16.757C90.1594 16.2795 90.3856 15.6595 90.358 15.0119L90.0879 8.66736C90.0328 7.38239 88.9828 6.36169 87.6973 6.34314ZM82.6279 14.8394L80.1447 9.16364L87.1807 9.2656L87.4092 14.6349L82.6279 14.8394Z" fill="black"/>
<path d="M59.2844 10.9052C58.7647 9.81423 57.5352 9.23395 56.3625 9.52458L47.2649 11.7822C46.3506 12.0091 45.6379 12.7172 45.4045 13.6306L44.1098 18.7076C43.8688 19.6531 44.178 20.6363 44.9168 21.2738C45.6573 21.9123 46.6756 22.072 47.5739 21.6953L59.1485 16.8408C59.7897 16.5718 60.2998 16.0449 60.5475 15.3949C60.7953 14.7451 60.7657 14.0125 60.4666 13.3851L59.2844 10.9052ZM47.1346 18.7025L48.1881 14.5716L56.7713 12.4418L57.653 14.291L47.1346 18.7025Z" fill="black"/>
<path d="M74.5908 13.7967L72.4473 7.78945C72.1129 6.85234 71.2195 6.22266 70.2244 6.22266H65.5713C64.2697 6.22266 63.2109 7.28145 63.2109 8.58281V15.1623C63.2109 15.8209 63.4891 16.4541 63.9736 16.8998C64.41 17.301 64.9838 17.5225 65.5728 17.5225C65.6383 17.5225 65.7039 17.5197 65.7695 17.5143L72.566 16.9418C73.3018 16.8799 73.9527 16.4883 74.3523 15.8678C74.7519 15.2471 74.8387 14.4922 74.5908 13.7967ZM66.1406 14.543V9.15234H69.823L71.583 14.0844L66.1406 14.543Z" fill="black"/>
<path d="M47.2306 5.50526C46.5725 4.52284 45.3616 4.06346 44.2175 4.3621L32.5466 7.40956C31.4831 7.68729 30.703 8.53241 30.511 9.61483C30.319 10.6973 30.761 11.759 31.6643 12.3855L37.1837 16.2139C37.6636 16.5467 38.2167 16.7086 38.7663 16.7086C39.535 16.7086 40.2968 16.3918 40.8415 15.783L46.9927 8.90721C47.8399 7.95975 47.9378 6.56092 47.2306 5.50526ZM38.7456 13.7314L33.5999 10.1625L44.4802 7.32147L38.7456 13.7314Z" fill="black"/>
<path d="M29.0458 12.1592C28.6257 11.7412 28.0454 11.5121 27.4528 11.5295C26.8604 11.5471 26.2944 11.8107 25.8999 12.2531L21.9261 16.7072C21.4354 17.2568 21.2581 18.0096 21.452 18.7209L22.8052 23.6822C23.0044 24.4127 23.5569 24.9768 24.2833 25.1912L27.7366 26.2094C28.1782 26.3396 28.6386 26.3268 29.0692 26.175L36.2052 23.6643C36.9132 23.415 37.4345 22.8291 37.5999 22.0971C37.7653 21.3648 37.5462 20.6119 37.014 20.0826L29.0458 12.1592ZM28.3292 23.3297L25.5198 22.5014L24.3872 18.3494L27.5503 14.8039L34.087 21.3041L28.3292 23.3297Z" fill="black"/>
<path d="M22.8083 9.84975C23.2098 9.30366 23.3419 8.6144 23.1706 7.95854C22.9993 7.30287 22.5473 6.76635 21.9302 6.48627L17.6862 4.55991C17.0571 4.27455 16.3177 4.29838 15.7083 4.62319L6.6823 9.43705C5.81277 9.90073 5.34421 10.8986 5.54363 11.8644L7.50066 21.3351C7.71745 22.3855 8.62761 23.1205 9.68855 23.1205C9.72644 23.1205 9.76492 23.1195 9.803 23.1175L15.4727 22.8365C16.6196 22.7794 17.5325 21.872 17.5962 20.7255L17.8237 16.6287L22.8083 9.84975ZM15.3413 15.0593C15.0829 15.4109 14.9337 15.8267 14.91 16.2607L14.7055 19.9413L10.2497 20.1622L8.51746 11.7787L16.786 7.36869L19.9427 8.80151L15.3413 15.0593Z" fill="black"/>
<path d="M86.4564 79.5451C86.5781 79.5764 86.7001 79.5912 86.8203 79.5912C87.4736 79.5912 88.0693 79.151 88.2384 78.4891C88.439 77.7053 87.9662 76.9072 87.1824 76.7068L86.1068 76.4316L87.7689 74.7695C88.341 74.1974 88.341 73.2699 87.7689 72.698C87.1966 72.126 86.2693 72.126 85.6972 72.698L84.0351 74.3601L83.7599 73.2844C83.5597 72.501 82.7626 72.0281 81.9779 72.2283C81.1939 72.4289 80.721 73.2267 80.9218 74.0105L81.6273 76.7682L79.49 78.9055L78.8058 76.231C78.6054 75.4473 77.8082 74.9746 77.0236 75.175C76.2398 75.3756 75.7669 76.1734 75.9677 76.9572L77.0822 81.3133L74.606 83.7894L73.3296 78.8002C73.1293 78.0166 72.3326 77.5437 71.5476 77.7441C70.7636 77.9447 70.2908 78.7426 70.4916 79.5264L72.1982 86.1974L70.1791 88.2166C69.607 88.7887 69.607 89.7162 70.1791 90.2881C70.4652 90.574 70.8402 90.7172 71.215 90.7172C71.5898 90.7172 71.9648 90.5742 72.2509 90.2881L74.2699 88.2691L80.941 89.9758C81.0626 90.007 81.1847 90.0219 81.3048 90.0219C81.9582 90.0219 82.5539 89.5816 82.723 88.9197C82.9236 88.1359 82.4507 87.3381 81.6669 87.1375L76.6781 85.8611L79.1542 83.3849L83.5103 84.4994C83.632 84.5306 83.754 84.5455 83.8742 84.5455C84.5275 84.5455 85.1232 84.1053 85.2923 83.4433C85.4929 82.6596 85.0201 81.8617 84.2363 81.6611L81.5623 80.9771L83.6994 78.84L86.4564 79.5451Z" fill="black"/>
</g>
<defs>
<clipPath id="clip0_563_8094">
<rect width="100" height="100" fill="white"/>
</clipPath>
</defs>
</svg>
