<svg width="100" height="100" viewBox="0 0 100 100" fill="none" xmlns="http://www.w3.org/2000/svg">
<g clip-path="url(#clip0_430_941)">
<path d="M90.1192 38.3271C74.6971 20.6049 98.3309 16.1744 87.1149 1.46484H15.3926C4.1766 16.1742 27.8104 20.6049 12.3883 38.327C2.71039 49.4484 10.6131 58.5721 24.6057 66.1508C40.7684 74.9049 26.4082 87.5947 26.4082 87.5947L30.9555 89.7861H71.5518L76.0991 87.5947C76.0991 87.5947 61.7389 74.9051 77.9016 66.1508C91.8944 58.5721 99.7971 49.4486 90.1192 38.3271Z" fill="#84AEE1"/>
<path d="M77.903 66.1504C61.7389 74.9043 76.1003 87.5957 76.1003 87.5957L71.5534 89.7871H63.735L68.2819 87.5957C68.2819 87.5957 53.9225 74.9043 70.0846 66.1504C84.0768 58.5723 91.9811 49.4492 82.3034 38.3262C66.8796 20.6055 90.5143 16.1738 79.2975 1.46484H87.1159C98.3327 16.1738 74.6979 20.6055 90.1198 38.3262C99.7975 49.4492 91.8952 58.5723 77.903 66.1504Z" fill="#5591D6"/>
<path d="M50.3695 94.9334H51.2527V88.2588C51.2527 83.9566 47.7652 80.4691 43.4631 80.4691H15.1232C14.0477 80.4691 13.1758 81.341 13.1758 82.4166V90.7455H43.4631C46.4654 90.7457 49.0691 92.4451 50.3695 94.9334Z" fill="#D9E7EB"/>
<path d="M51.252 88.2578V94.9336H50.3691C49.0684 92.4453 46.4648 90.7461 43.4629 90.7461H43.4336V88.2578C43.4336 83.957 39.9473 80.4688 35.6445 80.4688H43.4629C47.7637 80.4688 51.252 83.957 51.252 88.2578Z" fill="#C5D3DD"/>
<path d="M59.0416 80.4694C54.7395 80.4694 51.252 83.9569 51.252 88.259V94.9336H52.1352C53.4355 92.4453 56.0393 90.7457 59.0416 90.7457H89.3289V82.4168C89.3289 81.3412 88.457 80.4694 87.3814 80.4694H59.0416Z" fill="#D9E7EB"/>
<path d="M89.3281 82.416V90.7461H81.5117V82.416C81.5117 81.3418 80.6387 80.4688 79.5645 80.4688H87.3809C88.457 80.4688 89.3281 81.3418 89.3281 82.416Z" fill="#C5D3DD"/>
<path d="M93.1719 89.7445C93.1568 88.6799 92.2895 87.8246 91.2246 87.8246H59.0428C55.9756 87.8246 53.2076 89.1224 51.2531 91.1955C49.2986 89.1224 46.5307 87.8246 43.4635 87.8246H11.2816C10.2168 87.8246 9.34942 88.6799 9.33438 89.7445L9.30684 91.692C9.29141 92.7781 10.1678 93.6668 11.2541 93.6668H43.4635C45.7223 93.6668 47.6266 95.2129 48.1738 97.3025C48.366 98.0361 49.0475 98.5353 49.8059 98.5353H52.7002C53.4586 98.5353 54.14 98.0363 54.3322 97.3025C54.8795 95.2131 56.7838 93.6668 59.0426 93.6668H91.252C92.3383 93.6668 93.2145 92.7781 93.1992 91.692L93.1719 89.7445Z" fill="#FDDD45"/>
<path d="M93.1992 91.6914C93.2148 92.7773 92.3398 93.666 91.252 93.666H83.4355C84.5215 93.666 85.3984 92.7773 85.3828 91.6914L85.3555 89.7441C85.3398 88.6797 84.4727 87.8242 83.4082 87.8242H91.2246C92.291 87.8242 93.1582 88.6797 93.1719 89.7441L93.1992 91.6914Z" fill="#F8C52D"/>
<path d="M22.8605 53.7876C23.7334 53.6718 24.3471 52.8704 24.2312 51.9976C23.6639 47.7202 26.6713 43.7929 30.9486 43.2257L12.3935 45.687C8.1162 46.2544 5.10878 50.1818 5.67616 54.4589C5.79198 55.3318 6.59335 55.9454 7.4662 55.8296L22.8605 53.7876Z" fill="#F17D7E"/>
<path d="M41.6996 64.8559L39.7215 49.9429C39.1541 45.6655 35.2268 42.6581 30.9496 43.2255L12.3945 45.6868C16.6719 45.1194 20.5992 48.1268 21.1664 52.4042L23.1445 67.3173C23.7119 71.5946 27.6393 74.602 31.9164 74.0347L50.4715 71.5733C46.1943 72.1407 42.267 69.1331 41.6996 64.8559Z" fill="#F59697"/>
<path d="M50.4707 71.5739L42.5904 72.6192C38.3135 73.1866 34.3857 70.1788 33.8186 65.9018L31.8402 50.9876C31.2729 46.7106 27.3453 43.7028 23.0684 44.2702L30.9486 43.2249C35.2275 42.6573 39.1533 45.6653 39.7205 49.9423L41.6988 64.8565C42.2662 69.1335 46.1937 72.1411 50.4707 71.5739Z" fill="#F17D7E"/>
<path d="M39.7346 63.5083C38.8617 63.6241 38.248 64.4255 38.3639 65.2983C38.9313 69.5757 35.9238 73.503 31.6465 74.0702L50.2016 71.6089C54.4789 71.0415 57.4863 67.1142 56.9189 62.837C56.8031 61.9642 56.0018 61.3505 55.1289 61.4663L39.7346 63.5083Z" fill="#F8C6C7"/>
<path d="M56.918 62.8376C57.4854 67.1146 54.4775 71.0423 50.2006 71.6095L42.3203 72.6548C46.5973 72.0874 49.6051 68.1599 49.0377 63.8829C48.9797 63.4454 48.751 63.0737 48.4266 62.8251C48.102 62.5765 47.6836 62.4528 47.2461 62.5108L55.1281 61.4653C55.5637 61.4075 55.982 61.5313 56.3066 61.78C56.6314 62.0284 56.86 62.4001 56.918 62.8376Z" fill="#F59697"/>
<path d="M31.6418 56.1858C31.6418 56.1858 27.0105 48.8702 31.3996 40.6291C34.7793 34.2832 41.507 33.66 44.4222 33.709C45.2654 33.7231 45.9584 34.3707 46.0418 35.21C46.4226 39.0346 46.0615 49.7403 31.6418 56.1858Z" fill="#D9E7EB"/>
<path d="M46.0432 35.21C46.4232 39.0348 46.0623 49.7407 31.6424 56.1866C31.6424 56.1866 31.2613 55.586 30.8223 54.5344C41.3957 48.0665 41.6539 39.0465 41.3111 35.6034C41.2416 34.9028 40.748 34.3372 40.0984 34.1589C41.8135 33.7624 43.3676 33.6917 44.4229 33.709C45.2666 33.7227 45.9586 34.3708 46.0432 35.21Z" fill="#C5D3DD"/>
<path d="M61.1426 40.1814L72.802 14.2462L89.0155 21.5352L77.356 47.4703L61.1426 40.1814Z" fill="#A0ACB9"/>
<path d="M72.8371 14.223L69.1035 22.523C70.727 22.8781 72.4131 22.3342 73.5254 21.1326C73.9268 20.699 74.5504 20.5535 75.0891 20.7959L81.2656 23.5742L71.6656 44.9154L77.3703 47.4816L85.3178 29.8142L89.0365 21.5472L89.0504 21.5164L72.8371 14.223Z" fill="#7A8D98"/>
<path d="M91.576 18.2547L73.6895 10.2086C71.368 9.16423 68.587 10.1017 67.4796 12.3935C66.3305 14.7715 67.3753 17.6131 69.768 18.6894C71.9544 19.673 74.4962 18.8357 75.6944 16.8246L85.2071 21.1037C84.4749 23.4043 85.6249 25.9457 87.9518 26.8633C90.1446 27.7277 92.688 26.7873 93.7878 24.7027C95.0577 22.2953 94.02 19.3541 91.576 18.2547Z" fill="#D9E7EB"/>
<path d="M93.7871 24.7027C92.6871 26.7863 90.1432 27.7281 87.9512 26.864C86.9799 26.4806 86.2131 25.8144 85.7051 25.0013C87.1057 24.7683 88.3824 23.9056 89.0793 22.5849C90.3506 20.1777 89.3113 17.2367 86.8676 16.1375L91.5754 18.2552C94.0191 19.3544 95.0566 22.2947 93.7871 24.7027Z" fill="#C5D3DD"/>
<path d="M80.4405 47.4887L59.1134 37.8949C58.6216 37.6736 58.0434 37.893 57.8222 38.385L56.1038 42.2047C55.8825 42.6965 56.1018 43.2746 56.5938 43.4959L77.921 53.0897C78.4128 53.311 78.9909 53.0916 79.2122 52.5996L80.9306 48.7799C81.1517 48.2881 80.9323 47.71 80.4405 47.4887Z" fill="#D9E7EB"/>
<path d="M80.9305 48.7802L79.2125 52.5991C78.9906 53.0925 78.4129 53.3102 77.9213 53.0891L72.4316 50.6196C72.9232 50.8407 73.501 50.6231 73.7229 50.1296L75.4408 46.3106C75.6619 45.819 75.4426 45.2405 74.9508 45.0194L80.4404 47.4889C80.932 47.71 81.1516 48.2886 80.9305 48.7802Z" fill="#C5D3DD"/>
<path d="M45.8215 25.7516C51.1314 25.7516 55.4359 21.4471 55.4359 16.1372C55.4359 10.8272 51.1314 6.52271 45.8215 6.52271C40.5116 6.52271 36.207 10.8272 36.207 16.1372C36.207 21.4471 40.5116 25.7516 45.8215 25.7516Z" fill="#D9E7EB"/>
<path d="M54.3924 20.491C51.9865 25.2266 46.2 27.1145 41.4666 24.7098C40.4135 24.1748 39.502 23.4717 38.7461 22.6506C42.6195 23.091 46.5359 21.1326 48.4066 17.4502C50.2764 13.7698 49.5482 9.45198 46.9084 6.58362C48.0172 6.70979 49.1227 7.03147 50.1758 7.56643C54.9094 9.97112 56.7971 15.7576 54.3924 20.491Z" fill="#C5D3DD"/>
<path d="M16.1443 28.6307C15.9933 29.4254 16.5152 30.1922 17.3101 30.343C17.4025 30.3606 17.4943 30.369 17.5849 30.369C18.2746 30.369 18.889 29.8795 19.0224 29.177C19.9431 24.3284 17.9814 20.4731 16.2507 17.0717C13.8097 12.2741 11.8814 8.48441 16.5566 2.35316C17.0472 1.7098 16.9232 0.79066 16.28 0.300035C15.6369 -0.1902 14.7175 -0.0665667 14.2269 0.576793C8.4353 8.1721 11.2001 13.6061 13.6396 18.4004C15.3052 21.6735 16.8783 24.7651 16.1443 28.6307Z" fill="black"/>
<path d="M78.599 67.4391C88.9931 61.8092 94.5753 56.1489 95.6646 50.1342C96.4269 45.9239 94.9328 41.628 91.2238 37.3657C88.9751 34.7815 87.5158 32.4233 86.7654 30.1653L87.606 28.2965C88.2843 28.5387 88.9802 28.6561 89.6669 28.6561C91.8798 28.6561 93.9933 27.4522 95.0834 25.3864C95.8849 23.867 96.0197 22.1387 95.4626 20.5198C94.9134 18.9235 93.716 17.611 92.1771 16.9186L90.0619 15.967C92.0209 11.6985 93.1296 6.93773 88.2791 0.576597C87.7886 -0.0663715 86.8695 -0.19059 86.2259 0.300035C85.5826 0.79066 85.4587 1.7098 85.9494 2.35316C89.857 7.47777 89.0804 11.0903 87.3902 14.7655L74.2904 8.87269C71.2384 7.49984 67.5919 8.79359 66.1605 11.7563C65.4326 13.2625 65.3462 14.9569 65.9175 16.5268C66.4316 17.9399 67.4185 19.0858 68.7208 19.801L66.1132 25.5979C65.7814 26.3356 66.1103 27.2028 66.8482 27.5348C67.0433 27.6225 67.2474 27.6641 67.4484 27.6641C68.007 27.6641 68.541 27.3426 68.7851 26.7998L71.5904 20.5637C73.2964 20.5897 74.9628 19.9035 76.1525 18.6371L83.5482 21.9639C83.3937 23.6903 83.9919 25.3895 85.1351 26.6473L77.1486 44.4016L63.6074 38.3102L66.1275 32.708C66.4593 31.9703 66.1304 31.1032 65.3925 30.7711C64.655 30.4395 63.7877 30.768 63.4556 31.5061L60.9355 37.1082L59.7142 36.5588C58.4869 36.0063 57.0384 36.5561 56.4863 37.7838L54.7679 41.6035C54.2158 42.8313 54.7652 44.2795 55.9927 44.8317L77.3199 54.4254C77.6439 54.5713 77.9834 54.6403 78.3177 54.6403C79.2496 54.6403 80.1414 54.1039 80.5478 53.2004L82.2662 49.3807C82.5337 48.786 82.5537 48.1227 82.3222 47.5129C82.0908 46.9032 81.6359 46.4202 81.0412 46.1526L79.8201 45.6034L85.1384 33.7801C86.0703 35.558 87.3525 37.3805 89.0128 39.2885C92.1529 42.8969 93.3857 46.2737 92.781 49.6119C91.8734 54.6246 86.6322 59.7557 77.2029 64.8627C73.181 67.041 70.5611 69.6825 69.416 72.7135C68.6681 74.6928 68.5537 76.8026 69.0669 79.0041H59.0423C55.775 79.0041 52.9 80.7077 51.2527 83.2715C49.6054 80.7077 46.7304 79.0041 43.463 79.0041H33.4392C33.7351 77.7303 33.8201 76.4838 33.6947 75.2758L50.3935 73.0608C52.85 72.735 55.0326 71.4719 56.5394 69.5045C58.046 67.5369 58.6962 65.1006 58.3703 62.6442C58.2628 61.8342 57.8464 61.1145 57.1976 60.6176C56.549 60.1211 55.7457 59.9061 54.9355 60.0139L42.7484 61.6305L41.397 51.4428C43.2306 49.6127 44.675 47.5733 45.7185 45.3336C47.7273 41.0223 47.6959 37.0493 47.4982 35.0647C47.3408 33.4832 46.0285 32.2707 44.4457 32.2444C41.3953 32.1954 33.8869 32.8405 30.1054 39.9407C29.7388 40.6291 29.4296 41.311 29.171 41.9836L12.2007 44.2346C11.4835 44.3297 10.7978 44.5075 10.1482 44.7524C10.7656 42.9682 11.8816 41.1401 13.4925 39.2889C14.5765 38.0434 15.5168 36.8084 16.2873 35.6186C16.7271 34.9395 16.5332 34.0325 15.8541 33.5928C15.1751 33.1532 14.2681 33.3471 13.8283 34.026C13.1326 35.1002 12.2759 36.2239 11.2824 37.3657C8.47671 40.5899 6.93433 43.8481 6.68628 47.0582C4.83179 49.0215 3.84175 51.7717 4.22378 54.6514C4.42749 56.1877 5.74468 57.3084 7.25425 57.3084C7.38784 57.3084 7.5228 57.2996 7.65874 57.2817L10.132 56.9535C12.5962 60.0584 16.3281 63.0541 21.5021 66.083L21.6914 67.5098C22.3048 72.134 26.2445 75.5153 30.7791 75.5657C30.8935 76.6557 30.7697 77.8073 30.408 79.0045H15.1238C13.2423 79.0045 11.7115 80.5352 11.7115 82.4168V86.3598H11.2818C9.42671 86.3598 7.89624 87.869 7.86988 89.7239L7.84234 91.6713C7.82945 92.5918 8.17808 93.4596 8.82437 94.1153C9.47066 94.7707 10.3337 95.1319 11.2543 95.1319H43.4636C45.0107 95.1319 46.365 96.1772 46.757 97.6739C47.1158 99.0434 48.3697 100 49.8062 100H52.7005C54.1369 100 55.3906 99.0434 55.7496 97.6735C56.1416 96.1768 57.4958 95.1315 59.0429 95.1315H91.2523C92.1728 95.1315 93.0357 94.7705 93.6818 94.1151C94.3283 93.4596 94.6771 92.5916 94.664 91.6711L94.6365 89.7237C94.6103 87.8688 93.0796 86.3596 91.2246 86.3596H90.7949V82.4166C90.7949 80.5352 89.2642 79.0043 87.3826 79.0043H72.0988C70.6865 74.36 72.8175 70.5704 78.599 67.4391ZM78.0767 51.5536L57.6402 42.3604L58.958 39.4311L79.3945 48.6243L78.0767 51.5536ZM76.2953 15.4889C76.1009 15.4014 75.8966 15.3598 75.6951 15.3598C75.1929 15.3598 74.7076 15.6188 74.4359 16.075C73.6031 17.4725 71.8544 18.0219 70.3693 17.3535C69.5728 16.9953 68.9697 16.3459 68.671 15.5252C68.3726 14.7049 68.4179 13.8192 68.7988 13.0309C69.5466 11.4834 71.4716 10.8172 73.0888 11.5446L90.9753 19.5907C91.7915 19.9577 92.4013 20.6262 92.6925 21.4729C92.9836 22.3188 92.9125 23.2231 92.4925 24.0194C91.7431 25.4395 89.9855 26.0909 88.4894 25.5008C86.9228 24.8832 86.0943 23.1471 86.6033 21.5483C86.8291 20.8391 86.4871 20.0735 85.8085 19.7682L76.2953 15.4889ZM55.3212 62.9184C55.3578 62.9137 55.389 62.9225 55.4169 62.9438C55.4453 62.9655 55.4617 62.9944 55.4666 63.0295C55.6896 64.7102 55.2445 66.3774 54.2136 67.7235C53.183 69.0696 51.6894 69.9338 50.0087 70.1567L38.155 71.7291C39.4833 69.8778 40.1384 67.5375 39.8158 65.1055C39.8064 65.0348 39.8564 64.9696 39.9271 64.9602L55.3212 62.9184ZM32.6917 41.3178C35.6121 35.8346 41.4757 35.1715 44.1335 35.1715C44.2251 35.1715 44.3134 35.1723 44.3972 35.1737C44.4933 35.1752 44.5734 35.2532 44.5837 35.3549C44.9417 38.9518 44.491 47.5399 33.6787 53.5346C34.6023 49.8268 36.5294 44.7789 40.5341 40.6809C41.0996 40.1024 41.089 39.1748 40.5103 38.6094C39.9318 38.0438 39.0042 38.0545 38.4388 38.6332C34.5595 42.6026 32.4429 47.2721 31.2888 51.0977C30.757 48.5116 30.7236 45.0131 32.6917 41.3178ZM7.27398 54.3772C7.23921 54.3817 7.20659 54.3733 7.17827 54.3516C7.14995 54.3301 7.13335 54.3012 7.12866 54.2661C6.66851 50.7963 9.11675 47.5991 12.5865 47.1389L12.5882 47.1387C14.2691 46.9162 15.9349 47.3614 17.2804 48.3918C18.6267 49.4227 19.4908 50.916 19.7136 52.5969L19.7306 52.725L7.27398 54.3772ZM13.6099 56.4922L20.116 55.6293L21.0078 62.3522C17.9244 60.3967 15.448 58.436 13.6099 56.4922ZM24.596 67.1245L22.6179 52.2116C22.305 49.853 21.1283 47.7469 19.2937 46.2493L28.307 45.0537C27.3015 50.5567 29.3259 55.003 30.1142 56.4662C29.9472 57.6938 29.9158 58.4713 29.9119 58.5887C29.8849 59.3965 30.5173 60.0725 31.3251 60.1006C31.3425 60.1012 31.3595 60.1014 31.3767 60.1014C32.1615 60.1014 32.8115 59.4787 32.8398 58.6883C32.8406 58.6645 32.865 58.1088 32.9851 57.1793C35.1347 56.1647 37.0576 55.0174 38.747 53.7409L39.8447 62.0161L39.5421 62.0563C37.8701 62.2782 36.69 63.819 36.9119 65.4911C37.3662 68.9159 34.9859 72.0733 31.5875 72.5971C28.1707 72.9776 25.0503 70.5487 24.596 67.1245ZM91.7074 89.7651L91.7349 91.7123C91.7374 91.8879 91.649 92.0043 91.5958 92.058C91.5429 92.1118 91.4281 92.2018 91.2523 92.2018H59.0429C56.1644 92.2018 53.6447 94.1467 52.9156 96.9309C52.8953 97.009 52.8005 97.0702 52.7003 97.0702H49.806C49.7058 97.0702 49.6115 97.009 49.591 96.9311C48.8617 94.1465 46.3419 92.2016 43.4634 92.2016H11.2543C11.0787 92.2016 10.9636 92.1116 10.9107 92.0578C10.8578 92.0041 10.7693 91.8879 10.7718 91.7122L10.7994 89.7647C10.8031 89.5024 11.0195 89.2889 11.282 89.2889H27.6455C28.4544 89.2889 29.1103 88.633 29.1103 87.8241C29.1103 87.0151 28.4544 86.3592 27.6455 86.3592H14.6412V82.4162C14.6412 82.1502 14.8576 81.9336 15.1238 81.9336H43.4638C46.9128 81.9336 49.724 84.709 49.7857 88.1434C47.8925 86.9916 45.7025 86.3592 43.4638 86.3592H34.1224C33.3134 86.3592 32.6576 87.0151 32.6576 87.8241C32.6576 88.633 33.3134 89.2889 34.1224 89.2889H43.4638C46.03 89.2889 48.4179 90.3227 50.1876 92.1998C50.4644 92.4934 50.8501 92.6598 51.2535 92.6598C51.6568 92.6598 52.0425 92.4934 52.3193 92.1998C54.0892 90.3227 56.4769 89.2889 59.0431 89.2889H91.225C91.4871 89.2895 91.7037 89.503 91.7074 89.7651ZM87.8654 82.4166V86.3596H59.0429C56.8042 86.3596 54.6142 86.992 52.721 88.1438C52.7828 84.7094 55.5941 81.934 59.0429 81.934H87.383C87.649 81.9342 87.8654 82.1506 87.8654 82.4166Z" fill="black"/>
<path d="M76.002 22.4325C75.2646 22.1011 74.3971 22.4294 74.065 23.1675L68.1527 36.3106C67.8209 37.0483 68.1498 37.9155 68.8877 38.2475C69.0828 38.3352 69.2869 38.3768 69.4879 38.3768C70.0465 38.3768 70.5805 38.0554 70.8246 37.5126L76.7369 24.3694C77.0688 23.6315 76.7396 22.7643 76.002 22.4325Z" fill="black"/>
<path d="M73.6923 40.4084C73.8875 40.4961 74.0916 40.5377 74.2925 40.5377C74.8511 40.5377 75.3851 40.2162 75.6293 39.6735L81.5416 26.5303C81.8734 25.7926 81.5445 24.9254 80.8066 24.5934C80.0695 24.2619 79.2017 24.5903 78.8697 25.3284L72.9574 38.4715C72.6256 39.2094 72.9547 40.0766 73.6923 40.4084Z" fill="black"/>
<path d="M50.4648 49.5309C49.6559 49.5309 49.0059 50.1867 49.0059 50.9957C49.0059 51.8047 49.6676 52.4606 50.4766 52.4606C51.2857 52.4606 51.9414 51.8047 51.9414 50.9957C51.9414 50.1867 51.2857 49.5309 50.4766 49.5309H50.4648Z" fill="black"/>
<path d="M24.4473 30.66C23.6383 30.66 22.9883 31.3159 22.9883 32.1249C22.9883 32.9339 23.65 33.5897 24.459 33.5897C25.268 33.5897 25.9238 32.9339 25.9238 32.1249C25.9238 31.3159 25.268 30.66 24.459 30.66H24.4473Z" fill="black"/>
<path d="M28.7051 27.9003C29.5141 27.9003 30.1699 27.2444 30.1699 26.4354C30.1699 25.6264 29.5141 24.9706 28.7051 24.9706H28.6934C27.8844 24.9706 27.2344 25.6264 27.2344 26.4354C27.2344 27.2444 27.8961 27.9003 28.7051 27.9003Z" fill="black"/>
<path d="M23.0744 8.25085C23.8834 8.25085 24.5393 7.595 24.5393 6.78601C24.5393 5.97703 23.8834 5.32117 23.0744 5.32117H23.0625C22.2535 5.32117 21.6035 5.97703 21.6035 6.78601C21.6035 7.595 22.2654 8.25085 23.0744 8.25085Z" fill="black"/>
<path d="M59.9316 25.2333C60.7408 25.2333 61.3965 24.5774 61.3965 23.7684C61.3965 22.9594 60.7408 22.3036 59.9316 22.3036H59.9199C59.1107 22.3036 58.4609 22.9594 58.4609 23.7684C58.4609 24.5774 59.1225 25.2333 59.9316 25.2333Z" fill="black"/>
<path d="M68.4826 62.4716C68.4826 61.6626 67.827 61.0067 67.0178 61.0067H67.0059C66.1967 61.0067 65.5469 61.6626 65.5469 62.4716C65.5469 63.2805 66.2086 63.9364 67.0176 63.9364C67.8266 63.9364 68.4826 63.2805 68.4826 62.4716Z" fill="black"/>
<path d="M40.805 26.0147C42.3831 26.8165 44.0913 27.2219 45.8116 27.2219C46.9673 27.2219 48.1286 27.0387 49.2593 26.67C52.0727 25.7522 54.3604 23.7936 55.7007 21.1551C57.0407 18.5168 57.2737 15.5141 56.3557 12.7008C55.438 9.88735 53.4794 7.59985 50.8411 6.25942C48.2028 4.91919 45.2005 4.68637 42.3868 5.60434C39.5733 6.52212 37.2858 8.48071 35.9454 11.1192C34.605 13.7575 34.3723 16.76 35.2903 19.5735C36.2081 22.3868 38.1665 24.6743 40.805 26.0147ZM38.5573 12.4459C39.5432 10.5051 41.2261 9.0645 43.2954 8.3893C44.127 8.11782 44.9811 7.98325 45.8313 7.98325C47.0968 7.98325 48.3534 8.28149 49.5139 8.87114C51.4548 9.85708 52.8952 11.5399 53.5706 13.6092C54.2456 15.6788 54.0745 17.8872 53.0886 19.828C51.0532 23.8344 46.138 25.4379 42.1317 23.4026C40.1909 22.4166 38.7505 20.7338 38.0753 18.6645C37.4003 16.5952 37.5714 14.3868 38.5573 12.4459Z" fill="black"/>
<path d="M45.1589 17.443L47.7638 18.7662C47.9765 18.8742 48.2029 18.9254 48.4261 18.9254C48.9601 18.9254 49.475 18.6324 49.7332 18.1238C50.0996 17.4026 49.8119 16.5207 49.0906 16.1545L47.7917 15.4947L49.5953 11.9447C49.9617 11.2235 49.674 10.3416 48.9527 9.97541C48.2314 9.60881 47.3496 9.8967 46.9833 10.618L44.5164 15.474C44.3404 15.8203 44.3091 16.2225 44.4296 16.5918C44.5501 16.9608 44.8125 17.2672 45.1589 17.443Z" fill="black"/>
</g>
<defs>
<clipPath id="clip0_430_941">
<rect width="100" height="100" fill="white"/>
</clipPath>
</defs>
</svg>
