<svg width="100" height="100" viewBox="0 0 100 100" fill="none" xmlns="http://www.w3.org/2000/svg">
<g clip-path="url(#clip0_562_4069)">
<path d="M95.5207 59.0588L87.2649 36.3763C85.6628 31.9743 80.7954 29.7046 76.3932 31.3068L46.8689 42.0528V57.8318L36.5234 57.816L42.3831 78.3992C44.88 85.2598 50.3601 90.6132 57.2772 92.9492L72.0666 97.9433C77.0781 99.6357 82.5934 97.6285 85.3444 93.1107L93.4635 79.7783C97.261 73.5429 98.0178 65.9192 95.5207 59.0588ZM82.1331 76.0568C79.0524 76.0929 75.6824 76.6982 72.3005 77.9291C68.9249 79.1576 65.9591 80.8563 63.578 82.8041C62.5643 83.6334 61.002 82.8957 61.0356 81.5863C61.1659 76.5132 64.3419 71.7991 69.3993 69.9585C74.425 68.1292 79.851 69.6677 83.2167 73.4181C84.1108 74.4142 83.4714 76.041 82.1331 76.0568Z" fill="#A4CCFF"/>
<path d="M58.8549 88.2626C53.4474 86.4366 49.1632 82.2514 47.2111 76.8881L40.2752 57.832H34.8965L42.3825 78.3992C44.8796 85.2598 50.3597 90.6134 57.277 92.9494L72.066 97.9436C75.6893 99.167 79.5614 98.434 82.4762 96.2396L58.8549 88.2626Z" fill="#8BB3EA"/>
<path d="M60.8026 15.5201L23.6061 1.98165C19.2041 0.379291 14.3367 2.64924 12.7344 7.05123L4.47881 29.7335C1.98171 36.5939 2.73855 44.2176 6.53586 50.4532L14.6549 63.7854C17.4061 68.3032 22.9212 70.3106 27.9327 68.6182L42.7221 63.6241C49.6392 61.2881 55.1193 55.9347 57.6162 49.0741L65.872 26.3917C67.4743 21.9897 65.2046 17.1222 60.8026 15.5201ZM39.5823 50.4583C36.2166 54.2085 30.7906 55.747 25.765 53.9179C20.7073 52.0771 17.5315 47.363 17.4012 42.2901C17.3676 40.9807 18.9297 40.2428 19.9436 41.0723C22.3247 43.0201 25.2903 44.7186 28.666 45.9473C32.048 47.1782 35.4178 47.7835 38.4985 47.8198C39.8368 47.8354 40.4762 49.4622 39.5823 50.4583Z" fill="#FF8086"/>
<path d="M10.7573 47.8776C7.78873 43.003 7.19713 37.0431 9.1491 31.6798L20.1363 1.49278C16.8896 1.7131 13.9191 3.79652 12.7345 7.05124L4.47874 29.7335C1.98165 36.5941 2.73868 44.2178 6.53599 50.4534L14.6548 63.7854C16.6439 67.0516 20.0812 68.9792 23.7248 69.1716L10.7573 47.8776Z" fill="#E5646E"/>
<path d="M58.9937 49.5751L67.2494 26.8928C68.1582 24.3961 68.0403 21.6949 66.9174 19.2869C65.7945 16.8789 63.8012 15.0523 61.3045 14.1435L24.1078 0.605085C21.6109 -0.303517 18.9097 -0.185743 16.5021 0.93712C14.094 2.06018 12.2675 4.05356 11.3587 6.55026L3.10292 29.2327C0.439222 36.5511 1.23474 44.5635 5.28556 51.2151L13.4044 64.5475C14.9073 67.0155 17.2304 68.919 19.9459 69.9073C21.3511 70.4189 22.8334 70.6749 24.316 70.6749C25.6985 70.6749 27.0811 70.4523 28.402 70.0062L43.1914 65.0118C50.5704 62.5201 56.33 56.8937 58.9937 49.5751ZM27.4649 67.2303C23.0715 68.7143 18.3185 66.9842 15.9068 63.0235L7.78773 49.6911C4.20235 43.8036 3.49824 36.7119 5.85588 30.2343L14.1118 7.55222C14.7528 5.79088 16.0415 4.38461 17.7402 3.59242C18.6837 3.15257 19.6908 2.93128 20.7017 2.93128C21.5111 2.93128 22.3228 3.07327 23.106 3.35824L60.3023 16.8967C62.0636 17.5377 63.4699 18.8264 64.2619 20.5252C65.0539 22.224 65.1373 24.1295 64.4961 25.8909L56.2404 48.5731C53.8827 55.0507 48.7848 60.0307 42.2541 62.2362L27.4649 67.2303Z" fill="black"/>
<path d="M41.3101 46.2126C37.5962 46.6524 33.2832 46.0688 29.1672 44.5708C25.0511 43.0727 21.373 40.7475 18.81 38.0234C18.4409 37.631 17.8864 37.4728 17.3659 37.6117C16.8454 37.7504 16.443 38.1635 16.3182 38.6875C14.6487 45.6911 18.4946 52.8308 25.2642 55.2947C26.8611 55.876 28.5002 56.1533 30.1156 56.1533C35.3483 56.1531 40.3292 53.2427 42.7919 48.3233C43.0329 47.8417 42.9904 47.2665 42.6808 46.8259C42.3712 46.3852 41.845 46.1499 41.3101 46.2126ZM26.2662 52.5414C21.77 50.905 18.8995 46.6696 18.8604 42.0741C21.465 44.2335 24.68 46.0552 28.1654 47.3237C31.6506 48.5923 35.2846 49.2632 38.6679 49.2833C35.6836 52.7787 30.7621 54.1779 26.2662 52.5414Z" fill="black"/>
<path d="M18.4208 28.0465C19.736 27.0924 21.6209 26.8885 23.3405 27.5143C25.0598 28.1401 26.3727 29.508 26.767 31.0842C26.9336 31.7496 27.5307 32.194 28.187 32.194C28.3047 32.194 28.4243 32.1797 28.5436 32.1498C29.3286 31.9536 29.8055 31.158 29.6092 30.3733C28.9723 27.8278 27.0034 25.7299 24.3424 24.7614C21.6815 23.793 18.8249 24.1344 16.7006 25.675C16.0458 26.15 15.8999 27.0661 16.3749 27.7209C16.8499 28.3758 17.7659 28.5215 18.4208 28.0465Z" fill="black"/>
<path d="M50.8631 38.1095C50.2262 35.564 48.2575 33.4661 45.5963 32.4976C42.9354 31.5292 40.0788 31.8706 37.9545 33.4111C37.2997 33.8861 37.1538 34.8021 37.6288 35.457C38.1038 36.112 39.0198 36.2579 39.6747 35.7827C40.9901 34.8288 42.8752 34.6247 44.5944 35.2507C46.3137 35.8765 47.6266 37.2445 48.0209 38.8206C48.1875 39.4861 48.7846 39.9304 49.4409 39.9304C49.5586 39.9304 49.6782 39.9161 49.7975 39.8863C50.5825 39.6898 51.0596 38.8943 50.8631 38.1095Z" fill="black"/>
<path d="M18.7774 22.3941C18.7899 22.3885 20.0491 21.826 22.1845 21.5986C24.1497 21.3892 27.2864 21.4287 31.0708 22.8062C31.2362 22.8664 31.4052 22.8949 31.5716 22.8949C32.1698 22.8949 32.7317 22.5254 32.9481 21.9306C33.2249 21.1703 32.8329 20.3299 32.0727 20.0531C23.6292 16.9799 17.7905 19.6219 17.5464 19.7357C16.8159 20.0763 16.5013 20.9414 16.8382 21.6736C17.1749 22.4058 18.0431 22.7267 18.7774 22.3941Z" fill="black"/>
<path d="M41.6986 26.6743C48.9207 29.3028 51.3453 34.1873 51.3805 34.2602C51.6303 34.7891 52.1564 35.0998 52.706 35.0998C52.9133 35.0998 53.124 35.0555 53.3242 34.9621C54.0574 34.6203 54.3746 33.7487 54.0326 33.0155C53.9187 32.7711 51.1443 26.9946 42.7006 23.9211C41.9408 23.6444 41.0998 24.0366 40.823 24.7967C40.5465 25.5571 40.9385 26.3975 41.6986 26.6743Z" fill="black"/>
<path d="M96.8979 58.5576L88.6422 35.8754C86.7662 30.7212 81.047 28.0546 75.8928 29.9302L69.3313 32.3185C68.5711 32.5952 68.1791 33.4359 68.4559 34.196C68.7326 34.9562 69.5729 35.3478 70.3334 35.0714L76.895 32.6831C80.531 31.3595 84.5658 33.2412 85.8892 36.8771L94.145 59.5594C96.5026 66.037 95.7985 73.1287 92.2131 79.0162L84.0941 92.3486C81.6822 96.3092 76.9292 98.0391 72.536 96.5554L57.7468 91.5611C51.2158 89.3556 46.1179 84.3754 43.7603 77.898L41.1425 70.7056C40.8657 69.9452 40.0251 69.5532 39.2649 69.83C38.5048 70.1068 38.1128 70.9474 38.3896 71.7075L41.0074 78.8998C43.671 86.2182 49.4307 91.8447 56.8095 94.3367L71.5987 99.3311C72.9196 99.7772 74.3024 99.9998 75.6846 99.9998C77.1675 99.9998 78.6497 99.7436 80.055 99.232C82.7705 98.2437 85.0935 96.3402 86.5965 93.8722L94.7155 80.5399C98.7661 73.8884 99.5616 65.876 96.8979 58.5576Z" fill="black"/>
<path d="M61.0005 86.2649C61.1253 86.2981 61.2518 86.3143 61.3776 86.3143C61.7762 86.3143 62.1639 86.1514 62.4446 85.8532C65.0075 83.1291 68.6857 80.8037 72.8017 79.3059C76.918 77.8078 81.2303 77.225 84.9446 77.664C85.478 77.7262 86.006 77.492 86.3155 77.0511C86.6251 76.6103 86.6677 76.0353 86.4267 75.5537C83.2036 69.1155 75.6682 66.118 68.899 68.5823C62.1294 71.0462 58.2834 78.1857 59.953 85.1895C60.0776 85.7131 60.4799 86.1262 61.0005 86.2649ZM69.9007 71.3351C71.1681 70.8737 72.4683 70.6538 73.7504 70.6538C77.0164 70.6538 80.1592 72.0829 82.302 74.5929C78.919 74.6132 75.2848 75.2841 71.7998 76.5525C68.3144 77.8211 65.0995 79.6428 62.4948 81.8022C62.5339 77.2068 65.4046 72.9714 69.9007 71.3351Z" fill="black"/>
<path d="M59.7074 58.4721C58.8984 58.4865 58.2545 59.1539 58.2687 59.9627C58.2976 61.5873 57.3855 63.2496 55.8881 64.3008C54.3906 65.3521 52.5176 65.6451 50.9992 65.0658C50.2429 64.7775 49.3969 65.1564 49.1084 65.9123C48.8199 66.6682 49.199 67.5146 49.9549 67.8031C50.8205 68.1334 51.7353 68.2955 52.659 68.2955C54.3511 68.2955 56.072 67.751 57.5713 66.6984C59.889 65.0715 61.2447 62.5338 61.198 59.9105C61.1836 59.1018 60.5154 58.4611 59.7074 58.4721Z" fill="black"/>
<path d="M75.5762 59.8927C75.8369 59.8927 76.1002 59.8814 76.3642 59.8587C79.1855 59.6152 81.632 58.1013 82.9088 55.8091C83.3025 55.1023 83.0486 54.2101 82.3418 53.8165C81.6348 53.423 80.7428 53.6769 80.3492 54.3835C79.5586 55.8031 77.9351 56.7828 76.1123 56.94C74.2894 57.097 72.5221 56.4103 71.5002 55.1472C70.9912 54.5181 70.0687 54.4212 69.44 54.9298C68.8111 55.4386 68.7137 56.3611 69.2226 56.99C70.7187 58.8388 73.0518 59.8927 75.5762 59.8927Z" fill="black"/>
<path d="M82.4534 49.0608C82.2093 48.947 76.3706 46.3052 67.927 49.3782C67.1669 49.655 66.7749 50.4956 67.0517 51.2558C67.2683 51.8505 67.83 52.22 68.4282 52.22C68.5946 52.22 68.7638 52.1915 68.929 52.1313C72.7132 50.754 75.8505 50.7147 77.8153 50.9237C79.9284 51.1487 81.1835 51.7018 81.2216 51.7188C81.9538 52.0559 82.8212 51.7388 83.1622 51.0073C83.5038 50.2743 83.1866 49.4028 82.4534 49.0608Z" fill="black"/>
</g>
<defs>
<clipPath id="clip0_562_4069">
<rect width="100" height="100" fill="white"/>
</clipPath>
</defs>
</svg>
