<svg width="100" height="100" viewBox="0 0 100 100" fill="none" xmlns="http://www.w3.org/2000/svg">
<g clip-path="url(#clip0_563_6465)">
<path d="M90.4078 38.2217L56.2338 4.04785H48.0391V86.1555L52.0697 95.9521H56.2338L90.4078 61.7781C96.9021 55.2836 96.9021 44.7164 90.4078 38.2217Z" fill="#FFCE71"/>
<path d="M52.9289 91.0076V8.97246C52.9289 6.81191 54.2352 4.86602 56.2348 4.04785C54.5693 2.38223 52.3547 1.46484 49.9992 1.46484C47.6437 1.46484 45.4291 2.38223 43.7637 4.04785L9.58965 38.2217C3.09512 44.7162 3.09512 55.2836 9.58965 61.7781L43.7637 95.9521C45.4291 97.6178 47.6437 98.5352 49.9992 98.5352C52.2904 98.5352 54.5293 97.6578 56.2348 95.9521C54.2338 95.1248 52.9289 93.1729 52.9289 91.0076Z" fill="#FFB357"/>
<path d="M47.9213 8.20466L13.7473 42.3787C9.54517 46.5812 9.54517 53.4187 13.7473 57.6213L47.9213 91.7953C48.4944 92.3683 49.2471 92.6549 49.9999 92.6549V7.34509C49.2471 7.34509 48.4944 7.63162 47.9213 8.20466Z" fill="#4C5699"/>
<path d="M86.2525 42.3787L52.0785 8.20466C51.5055 7.63162 50.7527 7.34509 50 7.34509V92.6547C50.7527 92.6547 51.5055 92.3681 52.0785 91.7951L86.2525 57.6211C90.4547 53.4187 90.4547 46.5812 86.2525 42.3787Z" fill="#676FB2"/>
<path d="M95.6051 37.0117H52.9293V39.9414C47.3941 43.8857 44.0715 50.0668 43.507 56.84C42.9426 63.6133 45.1935 70.2916 49.9996 75.0977V78.0273H95.6051V37.0117Z" fill="#676FB2"/>
<path d="M52.8262 53.6133C51.9129 53.6133 51.0367 53.7715 50.2221 54.0596L57.932 45.9238H47.3318C48.6264 43.715 50.4775 41.6887 52.9297 39.9414V37.0117H4.39453V78.0273H50V75.0977C46.7621 71.8598 45.0137 67.4803 45.0137 62.9498V61.4258C45.0137 65.7504 48.526 69.2383 52.8262 69.2383C57.0701 69.2383 60.6387 65.8029 60.6387 61.4258C60.6387 57.09 57.1152 53.6133 52.8262 53.6133Z" fill="#4C5699"/>
<path d="M69.8449 24.2395L65.702 20.0965L52.9297 32.8686H50L52.9297 39.9414L60.0025 34.082L69.8449 24.2395Z" fill="#FFCE71"/>
<path d="M52.9291 32.8685V5.40057H47.0697V32.8685L34.2975 20.0963L30.1543 24.2394L39.9967 34.082L48.0461 37.0117L52.0371 34.082C52.2697 33.6389 52.5687 33.2289 52.9291 32.8685Z" fill="#FFB357"/>
<path d="M95.6057 75.0977H50.0002L46.6172 76.0459V82.0006L50.0002 84.1633C52.0383 84.1633 53.7658 82.8111 54.3346 80.957H95.6057C97.2236 80.957 98.5353 79.6453 98.5353 78.0273C98.5353 76.4094 97.2236 75.0977 95.6057 75.0977Z" fill="#FCE3A0"/>
<path d="M50 75.0977H4.39453C2.77656 75.0977 1.46484 76.4094 1.46484 78.0273C1.46484 79.6453 2.77656 80.957 4.39453 80.957H45.6656C46.2342 82.8111 47.9619 84.1633 50 84.1633C48.7979 82.9611 48.1225 81.3307 48.1225 79.6305C48.1225 77.9303 48.7979 76.2998 50 75.0977Z" fill="#FFCE71"/>
<path d="M95.6055 34.082H52.0379L48.0469 37.0117L52.9297 39.9414H95.6055C97.2234 39.9414 98.5352 38.6297 98.5352 37.0117C98.5352 35.3937 97.2234 34.082 95.6055 34.082Z" fill="#FCE3A0"/>
<path d="M52.0379 34.082H4.39453C2.77656 34.082 1.46484 35.3937 1.46484 37.0117C1.46484 38.6297 2.77656 39.9414 4.39453 39.9414H52.9297C51.9918 39.0035 51.4648 37.7314 51.4648 36.4051C51.4648 35.5881 51.6654 34.7922 52.0379 34.082Z" fill="#FFCE71"/>
<path d="M83.8066 47.373C87.3086 49.3984 89.666 53.1816 89.666 57.5195C89.666 61.8887 87.291 65.6465 83.8066 67.6621V47.373Z" fill="#FFCE71"/>
<path d="M54.7793 53.8594C58.1406 54.7266 60.6387 57.7793 60.6387 61.4258C60.6387 65.0996 58.1191 68.127 54.7793 68.9902V53.8594Z" fill="#FFCE71"/>
<path d="M41.4492 53.6133C41.4492 55.0352 41.0703 56.3672 40.4063 57.5137C39.3711 59.3066 37.6445 60.6465 35.5898 61.1758V46.0469C38.959 46.9141 41.4492 49.9727 41.4492 53.6133Z" fill="#FFCE71"/>
<path d="M19.9043 45.8008V69.2383H14.0449V51.6602L19.9043 45.8008Z" fill="#FFCE71"/>
<path d="M31.8979 14.3174C30.7998 14.0307 29.9496 13.1854 29.6637 12.0871C29.4449 11.2471 29.0002 10.6395 28.457 10.6395C27.9129 10.6395 27.4699 11.2463 27.2516 12.0836C26.965 13.1817 26.1184 14.0301 25.0201 14.3162C24.1814 14.535 23.5742 14.9787 23.5742 15.5223C23.5742 16.0662 24.1811 16.5096 25.0191 16.7281C26.1162 17.0143 26.9646 17.8606 27.2504 18.9576C27.4691 19.7975 27.9139 20.4051 28.457 20.4051C29.0012 20.4051 29.4441 19.7983 29.6625 18.9609C29.949 17.8629 30.7957 17.0145 31.8939 16.7283C32.7326 16.5098 33.3398 16.0658 33.3398 15.5223C33.3398 14.9776 32.7336 14.5358 31.8979 14.3174Z" fill="#FFF1D4"/>
<path d="M76.7141 79.1199C75.067 78.6897 73.7918 77.4221 73.3629 75.7746C73.0348 74.5145 72.3678 73.6031 71.5529 73.6031C70.7367 73.6031 70.0723 74.5133 69.7445 75.7694C69.3148 77.4164 68.0445 78.6889 66.3975 79.1184C65.1395 79.4463 64.2285 80.1121 64.2285 80.9274C64.2285 81.7432 65.1389 82.4082 66.3961 82.7362C68.0418 83.1653 69.3143 84.4346 69.743 86.0805C70.0711 87.3405 70.7381 88.2516 71.5527 88.2516C72.3689 88.2516 73.0334 87.3414 73.3611 86.0854C73.7908 84.4383 75.0611 83.1658 76.7082 82.7364C77.9662 82.4084 78.8771 81.7428 78.8771 80.9274C78.8771 80.1102 77.9676 79.4475 76.7141 79.1199Z" fill="#FFF1D4"/>
<path d="M22.8339 67.7734H21.3691V45.8008C21.3691 44.4965 19.7878 43.8455 18.8685 44.765L9.10288 54.5307C8.53081 55.1027 8.53081 56.0303 9.10288 56.6022C9.67495 57.1742 10.6025 57.1742 11.1744 56.6022L12.58 55.1965V67.7734H11.1152C10.3062 67.7734 9.65034 68.4293 9.65034 69.2383C9.65034 70.0473 10.3062 70.7031 11.1152 70.7031H22.8339C23.6429 70.7031 24.2988 70.0473 24.2988 69.2383C24.2988 68.4293 23.6429 67.7734 22.8339 67.7734ZM18.4394 67.7734H15.5097V52.2668L18.4394 49.3371V67.7734Z" fill="black"/>
<path d="M33.6367 44.3359C28.5213 44.3359 24.3594 48.4979 24.3594 53.6133C24.3594 58.7287 28.5213 62.8906 33.6367 62.8906C34.3643 62.8906 35.0951 62.7996 35.8119 62.6268L32.417 68.5057C32.0123 69.2062 32.2523 70.1021 32.9529 70.5066C33.651 70.9102 34.548 70.6736 34.9539 69.9707L41.7242 58.2469C45.2045 52.2211 40.8543 44.3359 33.6367 44.3359ZM34.125 59.9395C33.9621 59.9522 33.7992 59.9609 33.6367 59.9609C30.1367 59.9609 27.2891 57.1133 27.2891 53.6133C27.2891 50.1133 30.1367 47.2656 33.6367 47.2656C33.8 47.2656 33.9627 47.2738 34.125 47.2861V59.9395ZM39.1385 56.782C38.6275 57.667 37.9055 58.4109 37.0547 58.9559V48.2617C39.9344 50.1012 40.8168 53.8756 39.1385 56.782Z" fill="black"/>
<path d="M53.9832 52.2203L58.9953 46.9313C59.8783 45.9996 59.2154 44.4588 57.932 44.4588H47.5975C46.7885 44.4588 46.1326 45.1147 46.1326 45.9236C46.1326 46.7326 46.7885 47.3885 47.5975 47.3885H54.5258L49.1588 53.052C48.1045 54.1643 49.265 55.9524 50.7102 55.4406C51.5437 55.1459 52.4371 55.0352 53.3145 55.1014V67.7524C53.152 67.7649 52.9893 67.7733 52.8262 67.7733C49.3262 67.7733 46.4785 64.9256 46.4785 61.4256C46.4785 60.6166 45.8227 59.9608 45.0137 59.9608C44.2047 59.9608 43.5488 60.6166 43.5488 61.4256C43.5488 66.541 47.7107 70.7029 52.8262 70.7029C57.8623 70.7029 62.1035 66.6195 62.1035 61.4256C62.1035 56.685 58.5547 52.7916 53.9832 52.2203ZM56.2441 66.7729V56.076C58.0316 57.2184 59.1738 59.2141 59.1738 61.4258C59.1738 63.635 58.0316 65.6297 56.2441 66.7729Z" fill="black"/>
<path d="M91.1307 57.5195C91.1307 52.8311 88.6053 48.4572 84.5402 46.1047C84.5316 46.0996 84.5227 46.0951 84.5141 46.09C84.5088 46.0871 84.5037 46.0842 84.4986 46.0815C75.7863 41.082 64.7637 47.368 64.7637 57.5195C64.7637 64.7891 70.6777 70.7031 77.9473 70.7031C85.2098 70.7031 91.1307 64.7824 91.1307 57.5195ZM85.2713 50.3524C87.1197 52.2465 88.201 54.8156 88.201 57.5195C88.201 60.2217 87.1197 62.7895 85.2713 64.6832V50.3524ZM67.6932 57.5195C67.6932 49.9875 75.5678 45.0395 82.3416 48.2574V66.7781C80.9703 67.4305 79.467 67.7734 77.9471 67.7734C72.2932 67.7734 67.6932 63.1736 67.6932 57.5195Z" fill="black"/>
<path d="M97.0703 73.9074V41.1316C98.7762 40.5168 100 38.9203 100 37.0117C100 34.5885 98.0287 32.6092 95.6082 32.6092H86.8609L67.5141 13.2545C66.9416 12.6822 66.0143 12.6826 65.4424 13.2545C64.8703 13.8266 64.8703 14.7541 65.4424 15.326L82.9781 32.8617C82.5973 33.1262 82.3477 33.5662 82.3477 34.065C82.3477 34.874 83.0033 35.5383 83.8125 35.5383H95.6055C96.4133 35.5383 97.0705 36.2039 97.0705 37.0117C97.0705 37.8312 96.3465 38.4766 95.5135 38.4766H4.39453C3.58672 38.4766 2.92969 37.8195 2.92969 37.0117C2.92969 36.182 3.66348 35.5475 4.48906 35.5469C18.702 35.534 2.71152 35.5439 16.1875 35.5439C16.9965 35.5439 17.6523 34.8881 17.6523 34.0791C17.6523 33.5768 17.3992 33.1338 17.0137 32.8697L28.0545 21.8291C29.5709 22.1146 30.6742 20.8709 31.0766 19.3395C31.2303 18.7547 31.6877 18.2965 32.2707 18.1434C33.8107 17.7395 35.0469 16.6336 34.7629 15.1207L44.8002 5.0834C46.1893 3.69473 48.0357 2.92969 50 2.92969C51.9643 2.92969 53.8107 3.69473 55.1998 5.08359L61.2992 11.183C61.8713 11.7551 62.7988 11.7551 63.3707 11.183C63.9428 10.6109 63.9428 9.6834 63.3707 9.11152L57.2713 3.01211C55.3291 1.06973 52.7467 0 50 0C47.2533 0 44.6709 1.06973 42.7287 3.01191L32.7045 13.0361C32.5662 12.9865 32.4234 12.9412 32.2754 12.9021C31.6854 12.7471 31.2297 12.302 31.0861 11.7406C30.21 8.31621 26.7242 8.32109 25.8354 11.7047C25.6816 12.2895 25.2242 12.7479 24.641 12.9008C21.2531 13.7898 21.2516 17.276 24.6729 18.1516C25.2355 18.2957 25.6805 18.7492 25.834 19.335C25.8734 19.4852 25.9193 19.6301 25.9697 19.7705L13.1391 32.6094H4.48652C2.01523 32.6094 0 34.5582 0 37.0117C0 38.9213 1.2248 40.5496 2.92969 41.1541V73.9072C1.20703 74.5281 0 76.1336 0 78.0273C0 80.7756 1.97129 82.4301 4.39355 82.4301H28.1789L34.9801 89.2393C35.5522 89.8113 36.4797 89.8113 37.0516 89.2393C37.6236 88.6672 37.6236 87.7396 37.0516 87.1678L32.0609 82.1771C32.4418 81.9127 32.6916 81.4727 32.6916 80.9738C32.6916 80.1648 32.0357 79.509 31.2268 79.509C28.3676 79.509 33.2824 79.5022 4.39453 79.4922C3.58672 79.492 2.92969 78.8352 2.92969 78.0273C2.92969 77.2037 3.65684 76.5625 4.48652 76.5625H67.7059C67.2518 77.1129 66.6172 77.5326 65.882 77.74C64.6242 78.0951 63.6953 78.7164 63.1914 79.499H54.3994C53.692 79.499 53.1328 79.8775 52.9314 80.5342C52.0432 83.4074 47.9541 83.4074 47.067 80.5307C46.8771 79.9172 46.3006 79.4936 45.6584 79.4936H37.0854C35.7844 79.4939 35.1287 81.0742 36.05 81.9957L46.8853 92.8312C48.6047 94.5504 51.3941 94.5508 53.1141 92.8312L63.3574 82.5879C63.9018 83.2811 64.801 83.8248 65.976 84.1398L55.1992 94.9168C52.3258 97.7906 47.674 97.791 44.7998 94.9168L41.1943 91.3113C40.6223 90.7393 39.6947 90.7393 39.1229 91.3113C38.5508 91.8834 38.5508 92.8109 39.1229 93.3828L42.7283 96.9883C44.6709 98.9303 47.2533 100 50 100C52.7469 100 55.3293 98.9303 57.2713 96.9881L68.1955 86.0639C68.2457 86.1893 68.2896 86.3178 68.324 86.45C69.4545 90.7889 73.6277 90.8438 74.7752 86.4625C75.0705 85.3357 75.9617 84.4484 77.1018 84.1473C78.3793 83.8096 79.3326 83.2008 79.8631 82.4221H95.6053C98.0525 82.4221 99.9998 80.3908 99.9998 77.8305C100 76.0102 98.7199 74.502 97.0703 73.9074ZM28.4533 13.0803C28.9113 14.1762 29.7926 15.0545 30.9035 15.5225C29.8033 15.9883 28.9234 16.8684 28.4568 17.9693C27.9904 16.8596 27.1119 15.9783 26.0147 15.5197C27.1104 15.0539 27.9869 14.177 28.4533 13.0803ZM51.043 90.7594C50.4686 91.3338 49.5318 91.3342 48.9572 90.7594L40.6215 82.4229H44.69C46.9186 86.6891 53.0713 86.6965 55.3068 82.4287H59.3738L51.043 90.7594ZM5.85938 73.6328V41.4062H94.1406V73.6328H74.0197C72.7062 71.6309 70.39 71.6387 69.0826 73.6328H5.85938ZM76.3531 81.3146C74.1939 81.8855 72.5035 83.5736 71.9414 85.7201C71.8197 86.1842 71.6666 86.4791 71.552 86.6467C71.4361 86.4781 71.2814 86.1805 71.1592 85.7115C70.5957 83.5465 68.9064 81.8773 66.7645 81.3187C66.2955 81.1965 65.9988 81.0418 65.8314 80.9264C65.9895 80.8182 66.2598 80.6777 66.6777 80.5598C68.8775 79.9393 70.5982 78.2336 71.1684 76.1094C71.2484 75.8123 71.3756 75.4623 71.5512 75.2066C71.7252 75.4602 71.8553 75.8121 71.9355 76.1117C72.5244 78.3084 74.1951 79.9996 76.2959 80.5254C76.7879 80.6486 77.0975 80.808 77.2707 80.9266C77.1049 81.0406 76.8129 81.1932 76.3531 81.3146ZM95.6055 79.4922H79.9111C79.3801 78.667 78.3762 78.026 77.0074 77.6834C76.3506 77.519 75.7736 77.118 75.3531 76.5625H95.5135C96.3371 76.5625 97.0348 77.1891 97.0687 77.9594C97.1059 78.7986 96.44 79.4922 95.6055 79.4922Z" fill="black"/>
<path d="M29.9773 24.0766L21.0105 33.0434C20.0907 33.9631 20.7423 35.544 22.0462 35.544H39.9939C41.295 35.544 41.9511 33.9649 41.0296 33.0434L32.0628 24.0766C31.4907 23.5045 30.5493 23.5045 29.9773 24.0766ZM25.5825 32.6143L31.0198 27.177L36.4571 32.6143H25.5825Z" fill="black"/>
<path d="M60.0052 35.544H77.9529C79.2535 35.544 79.9105 33.9653 78.9888 33.0434L70.022 24.0766C69.4496 23.5043 68.5084 23.5045 67.9363 24.0766L58.9695 33.0434C58.0498 33.9631 58.7011 35.544 60.0052 35.544ZM68.9791 27.177L74.4164 32.6143H63.5416L68.9791 27.177Z" fill="black"/>
<path d="M53.9744 8.02893C53.0457 7.11467 51.4648 7.77424 51.4648 9.07952V32.8446C51.4648 34.1533 53.0561 34.8139 53.9824 33.8873L65.865 22.0049C66.4371 21.4328 66.4371 20.4914 65.865 19.9194L53.9744 8.02893ZM54.3945 29.3323V12.5924L62.7645 20.9623L54.3945 29.3323Z" fill="black"/>
<path d="M48.5361 32.8447V9.07968C48.5361 7.76972 46.9441 7.11093 46.0185 8.03691L34.1361 19.9195C33.564 20.4916 33.564 21.433 34.1361 22.0051L46.0185 33.8875C46.9392 34.8082 48.5361 34.1568 48.5361 32.8447ZM45.6064 29.3322L37.2365 20.9623L45.6064 12.5922V29.3322Z" fill="black"/>
</g>
<defs>
<clipPath id="clip0_563_6465">
<rect width="100" height="100" fill="white"/>
</clipPath>
</defs>
</svg>
