<svg width="100" height="100" viewBox="0 0 100 100" fill="none" xmlns="http://www.w3.org/2000/svg">
<g clip-path="url(#clip0_419_2490)">
<path d="M96.5399 66.2066C94.1798 64.2271 90.6624 64.5361 88.6835 66.8958C88.3538 67.2889 87.9982 67.6559 87.6267 67.987C85.7248 69.6809 83.2856 70.5396 80.3767 70.5396C72.4414 70.5396 65.9854 64.0838 65.9854 56.1485C65.9854 48.2132 72.4412 41.7573 80.3767 41.7573C83.2612 41.7573 86.0422 42.6061 88.4189 44.2117C90.9711 45.9359 94.4374 45.2646 96.1618 42.7128C97.886 40.1607 97.2149 36.694 94.6628 34.9698C90.435 32.1135 85.4951 30.6038 80.3767 30.6038C66.2914 30.6038 54.832 42.063 54.832 56.1483C54.832 70.2336 66.2912 81.6928 80.3767 81.6928C86.0229 81.6928 91.095 79.8335 95.0448 76.3156C95.8186 75.6264 96.5536 74.8686 97.2291 74.0629C99.2084 71.7031 98.8998 68.1858 96.5399 66.2066Z" fill="#528FD8"/>
<path d="M82.8259 81.5712C82.0226 81.6529 81.2054 81.6927 80.3763 81.6927C66.2907 81.6927 54.832 70.2319 54.832 56.1482C54.832 42.0625 66.2907 30.6039 80.3763 30.6039C81.2054 30.6039 82.0306 30.6437 82.8479 30.7215C69.9163 31.9671 59.7711 42.8957 59.7711 56.1482C59.7709 69.3929 69.9042 80.3154 82.8259 81.5712Z" fill="#0573CE"/>
<path d="M57.4497 28.3108C58.7822 26.0931 59.5506 23.4994 59.5506 20.7292C59.5506 12.5873 52.9266 5.96326 44.7846 5.96326H33.1842C30.1042 5.96326 27.6074 8.46005 27.6074 11.54V29.9293V29.9592V51.4759C27.6074 52.9592 28.1982 54.3815 29.2496 55.4281C30.2948 56.4687 31.7096 57.0527 33.184 57.0527H33.2088C33.3156 57.0521 43.9122 57.0052 46.8103 57.0052C55.8126 57.0052 63.1366 49.6812 63.1366 40.679C63.1366 35.7385 60.9279 31.307 57.4497 28.3108ZM44.7846 17.1166C46.7766 17.1166 48.397 18.7371 48.397 20.729C48.397 22.7211 46.7766 24.3416 44.7846 24.3416C43.9214 24.3416 42.3126 24.3463 40.5611 24.3523H38.761V17.1166H44.7846ZM46.8103 45.8515C45.3217 45.8515 41.8371 45.8636 38.7608 45.8757V35.5125C39.376 35.5102 39.9979 35.5078 40.6027 35.5057H46.8103C49.6626 35.5057 51.9832 37.8261 51.9832 40.6784C51.9832 43.5306 49.6626 45.8515 46.8103 45.8515Z" fill="#9BE69D"/>
<path d="M32.2014 51.4751V11.54C32.2014 8.46064 34.6988 5.96326 37.7784 5.96326H33.1842C30.1048 5.96326 27.6074 8.46064 27.6074 11.54V51.4751C27.6074 52.9581 28.1974 54.3811 29.2498 55.4275C30.2943 56.4679 31.7092 57.0519 33.1842 57.0519H33.208C33.252 57.0519 35.0537 57.0439 37.3638 57.0339C36.0423 56.9382 34.7906 56.3703 33.8438 55.4273C32.7934 54.3811 32.2014 52.9579 32.2014 51.4751Z" fill="#6FD7A3"/>
<path d="M28.9331 47.1128C28.9137 47.0616 28.8938 47.0106 28.8729 46.9602C27.8692 44.5201 25.517 42.9443 22.8786 42.9443C22.8766 42.9443 22.8745 42.9443 22.8723 42.9443C20.2318 42.9469 17.8793 44.5275 16.8793 46.9716C16.862 47.0137 16.8454 47.0561 16.8292 47.0987L1.83353 86.4717C0.737272 89.3499 2.18176 92.5717 5.06018 93.6679C7.93763 94.764 11.1602 93.3195 12.2564 90.4413L14.6232 84.2272H31.0186L33.3577 90.4255C34.2005 92.6588 36.3225 94.0349 38.5761 94.0347C39.2304 94.0345 39.896 93.9187 40.5442 93.674C43.4258 92.5865 44.8802 89.3691 43.7928 86.4875L28.9331 47.1128ZM18.8711 73.0739L22.8585 62.6047L26.8093 73.0739H18.8711Z" fill="#FD8087"/>
<path d="M22.8793 42.9449H22.8713C20.2323 42.9469 17.8785 44.5275 16.8799 46.9712C16.8619 47.013 16.8461 47.0569 16.8281 47.0987L1.83345 86.4717C0.7372 89.3497 2.18227 92.5729 5.06031 93.6691C6.48936 94.2133 8.00221 94.1314 9.29982 93.5574C6.60108 92.3715 5.27768 89.2601 6.33996 86.4717L21.3366 47.0987C21.3526 47.0569 21.3684 47.013 21.3864 46.9712C22.09 45.2531 23.4613 43.9635 25.1296 43.3477C24.424 43.0846 23.6644 42.9449 22.8793 42.9449Z" fill="#FE646F"/>
<path d="M99.9726 69.8644C99.8081 67.9906 98.9234 66.2932 97.4824 65.0856C96.0417 63.8763 94.2151 63.3017 92.342 63.4658C90.4686 63.6304 88.7716 64.5148 87.5644 65.9544C87.2775 66.2954 86.9716 66.611 86.6544 66.8934C85.0301 68.3408 82.9188 69.0748 80.3793 69.0748C73.2512 69.0748 67.4519 63.2765 67.4519 56.1494C67.4519 49.0211 73.2512 43.2221 80.3793 43.2221C82.9684 43.2221 85.4654 43.9841 87.5999 45.4261C90.817 47.5993 95.2028 46.7509 97.3776 43.5344C99.5511 40.3169 98.7017 35.9305 95.4839 33.7565C91.0139 30.7367 85.7906 29.1405 80.3791 29.1405C74.2634 29.1405 68.4093 31.1918 63.6526 34.9581C62.7659 32.3583 61.28 29.9762 59.2862 28.0132C60.4211 25.7589 61.0164 23.2647 61.0164 20.7306C61.0164 16.776 59.5731 12.965 56.9521 9.99927C56.4161 9.39304 55.4906 9.33581 54.8845 9.87154C54.2783 10.4073 54.2213 11.3328 54.7568 11.9391C56.9042 14.3691 58.0868 17.4912 58.0868 20.7306C58.0868 23.1352 57.4323 25.496 56.1943 27.5583C55.8273 28.1698 55.9538 28.9567 56.4943 29.4221C59.7852 32.2566 61.6726 36.3596 61.6726 40.679C61.6726 48.8734 55.0052 55.5398 46.8098 55.5398C44.4341 55.5398 35.8914 55.575 33.6969 55.5859L30.2988 46.5823C30.274 46.5175 30.2488 46.4528 30.2273 46.4026C29.9318 45.6845 29.5402 45.0283 29.0719 44.4445V11.5414C29.0719 9.27351 30.9171 7.42825 33.185 7.42825H44.7843C46.5336 7.42825 48.2348 7.76418 49.8406 8.42685C50.5888 8.73563 51.4448 8.3794 51.7534 7.63157C52.062 6.88374 51.7059 6.02732 50.9581 5.71874C48.9961 4.90919 46.9188 4.49866 44.7843 4.49866H33.185C29.3016 4.49866 26.1423 7.65793 26.1423 11.5414V42.1781C25.1363 41.7266 24.0269 41.4799 22.8717 41.4799C19.6384 41.4825 16.7576 43.416 15.5293 46.4067C15.5047 46.4647 15.4803 46.5253 15.458 46.5858L0.465933 85.9504C-0.204554 87.7078 -0.149869 89.6208 0.620029 91.3375C1.38973 93.0539 2.78188 94.3677 4.53963 95.0367C5.35426 95.3468 6.20189 95.5015 7.04834 95.5015C8.02781 95.5015 9.00512 95.2943 9.9256 94.8818C11.6421 94.1123 12.956 92.7205 13.6249 90.9628L15.6326 85.6916H17.7519C18.5609 85.6916 19.2167 85.0358 19.2167 84.2268C19.2167 83.4179 18.5609 82.762 17.7519 82.762H14.6231C14.0153 82.762 13.4706 83.1374 13.2542 83.7056L10.8871 89.9204C10.4965 90.9467 9.72931 91.7594 8.7272 92.2086C7.72528 92.6574 6.60832 92.6898 5.58198 92.299C4.55545 91.9084 3.74259 91.1413 3.29299 90.139C2.84379 89.137 2.81176 88.0205 3.20335 86.9941L18.199 47.6204C18.2015 47.6137 18.2039 47.6073 18.2064 47.6004C18.2128 47.5829 18.2203 47.5651 18.2275 47.5483C18.2306 47.5411 18.2337 47.5338 18.2367 47.5264C19.0103 45.6345 20.8307 44.4111 22.8787 44.4095C24.9201 44.4095 26.7411 45.6296 27.5241 47.5321C27.5385 47.5661 27.5512 47.6002 27.5627 47.6299L42.4234 87.0049C43.2228 89.1259 42.1478 91.5028 40.0245 92.3041C39.5592 92.4807 39.0723 92.5701 38.5772 92.5701C36.8759 92.5701 35.3297 91.5006 34.7291 89.9085L32.3894 83.7095C32.1741 83.1394 31.6284 82.7618 31.0189 82.7618H24.5835C23.7746 82.7618 23.1187 83.4177 23.1187 84.2266C23.1187 85.0356 23.7746 85.6914 24.5835 85.6914H30.0062L31.9882 90.9426C33.0161 93.6685 35.6641 95.4997 38.5772 95.4997C39.4286 95.4997 40.2651 95.346 41.0611 95.0441C44.6929 93.6734 46.5336 89.6036 45.1643 85.9709L34.8004 58.5105C37.9019 58.4966 44.6714 58.4694 46.8094 58.4694C49.133 58.4694 51.3538 58.0212 53.3905 57.2076C53.9484 71.6114 65.8393 83.1581 80.3787 83.1581C82.8438 83.1581 85.2305 82.821 87.4726 82.1564C88.2481 81.9265 88.6905 81.1113 88.4606 80.3357C88.2308 79.5602 87.4161 79.1174 86.64 79.3477C84.6684 79.9322 82.5618 80.2285 80.3789 80.2285C67.1004 80.2285 56.2976 69.4265 56.2976 56.1492C56.2976 56.0037 56.3003 55.8615 56.3027 55.7189C61.2861 52.5628 64.6018 47.0012 64.6018 40.679C64.6018 39.8228 64.5389 38.9741 64.4178 38.1378C68.8314 34.2198 74.4685 32.0699 80.3789 32.0699C85.2037 32.0699 89.8598 33.4925 93.8435 36.1838C95.7229 37.4535 96.219 40.0151 94.9501 41.8936C93.6802 43.772 91.1186 44.2675 89.2395 42.9982C86.6185 41.228 83.5547 40.2923 80.3789 40.2923C71.6354 40.2923 64.5219 47.4057 64.5219 56.1492C64.5219 64.8917 71.6354 72.0042 80.3789 72.0042C83.6588 72.0042 86.4259 71.0204 88.6021 69.0812C89.0237 68.7062 89.4288 68.2885 89.8075 67.8381C90.5133 66.9965 91.5043 66.4801 92.5982 66.3838C93.6927 66.2879 94.7577 66.6235 95.5997 67.3301C96.4416 68.0355 96.958 69.0265 97.0541 70.1202C97.15 71.214 96.8141 72.2797 96.1071 73.1219C95.4772 73.8736 94.7927 74.5805 94.0718 75.2228C93.5066 75.7267 92.9086 76.1999 92.2943 76.63C91.6314 77.0939 91.4703 78.0073 91.9344 78.67C92.2193 79.077 92.6738 79.295 93.1355 79.295C93.4255 79.295 93.7185 79.209 93.9741 79.0301C94.6819 78.5346 95.3704 77.9895 96.0208 77.4099C96.8473 76.6732 97.6318 75.8636 98.3515 75.0043C99.5615 73.5637 100.137 71.7382 99.9726 69.8644Z" fill="black"/>
<path d="M38.7617 25.8174H40.5671C42.3166 25.8111 43.9234 25.8066 44.7855 25.8066C47.585 25.8066 49.8629 23.529 49.8629 20.7292C49.8629 17.9297 47.5852 15.6519 44.7855 15.6519H38.7617C37.9527 15.6519 37.2969 16.3077 37.2969 17.1167V24.3526C37.2969 25.1615 37.9527 25.8174 38.7617 25.8174ZM40.2265 18.5815H44.7855C45.9696 18.5815 46.9333 19.5449 46.9333 20.7292C46.9333 21.9136 45.9698 22.877 44.7855 22.877C43.9213 22.877 42.3104 22.8815 40.562 22.8878H40.2267L40.2265 18.5815Z" fill="black"/>
<path d="M37.2971 45.8759C37.2971 46.2654 37.4521 46.6388 37.7281 46.9138C38.0027 47.1872 38.3744 47.3407 38.7619 47.3407H38.7675C41.584 47.3296 45.266 47.3163 46.8114 47.3163C50.4715 47.3163 53.4491 44.3387 53.4491 40.6786C53.4491 37.0186 50.4715 34.0411 46.8114 34.0411H40.5983L38.756 34.048C37.9494 34.0511 37.2969 34.706 37.2969 35.5128V45.8759H37.2971ZM40.2267 36.9721L46.8114 36.9707C48.8561 36.9707 50.5195 38.6342 50.5195 40.6786C50.5195 42.7231 48.8561 44.3867 46.8114 44.3867C45.5201 44.3867 42.7467 44.3959 40.2267 44.4055V36.9721Z" fill="black"/>
<path d="M28.0142 73.9071C28.2876 73.5114 28.3495 73.0067 28.1798 72.5567L24.2289 62.0875C24.0139 61.518 23.4694 61.1409 22.8606 61.1399C22.8598 61.1399 22.8592 61.1399 22.8585 61.1399C22.2507 61.1399 21.7059 61.5153 21.4896 62.0834L17.5022 72.5526C17.3307 73.0028 17.3916 73.5087 17.6649 73.9053C17.9383 74.302 18.3891 74.5389 18.8709 74.5389H26.8093C27.2903 74.5387 27.7407 74.3026 28.0142 73.9071ZM20.9962 71.6091L22.852 66.7366L24.6908 71.6091H20.9962Z" fill="black"/>
</g>
<defs>
<clipPath id="clip0_419_2490">
<rect width="100" height="100" fill="white"/>
</clipPath>
</defs>
</svg>
