<svg width="100" height="100" viewBox="0 0 100 100" fill="none" xmlns="http://www.w3.org/2000/svg">
<path d="M77.9268 67.799C74.6942 66.0803 70.92 66.4072 68.0852 68.3252C67.1735 68.942 65.9887 68.9832 65.0166 68.4664L29.5453 49.6059C27.8985 48.7303 26.1651 50.6186 27.1782 52.1846L27.6688 52.943C29.1127 55.1752 31.1026 57.0018 33.4498 58.2498L62.2684 73.5731C63.2602 74.1004 63.8897 75.1279 63.893 76.251C63.9032 79.7551 65.8455 83.1365 69.2356 84.8037C73.7828 87.0402 79.3608 85.2807 81.8063 80.8422C84.3838 76.1643 82.6264 70.2981 77.9268 67.799ZM77.0465 76.474C76.9383 78.1688 75.62 79.5824 73.9369 79.8086C71.6627 80.1143 69.694 78.2785 69.8403 75.9885C69.9485 74.294 71.2666 72.8801 72.9496 72.6537C75.2241 72.3479 77.1928 74.1838 77.0465 76.474Z" fill="#766D78"/>
<path d="M29.5453 49.6059C27.8985 48.7303 26.1651 50.6186 27.1782 52.1846L27.6688 52.943C29.1127 55.1752 31.1026 57.0018 33.4498 58.2498L58.9418 71.8043V65.2363L29.5453 49.6059Z" fill="#615963"/>
<path d="M49.2246 11.5898H6.02344V49.7816H49.2246L51.0648 32.0084L49.2246 11.5898Z" fill="#BBE0FF"/>
<path d="M45.3301 37.7258V49.7814H49.2254L51.0656 42.042L49.2254 32.2998C46.9387 33.048 45.3301 35.1645 45.3301 37.7258Z" fill="#9DC9EB"/>
<path d="M49.2246 11.5898H93.9754V49.7816H49.2246L51.4912 40.8949L49.2246 32.2998V11.5898Z" fill="#F37C7C"/>
<path d="M56.4486 35.6861L56.0369 34.9461C55.0127 33.1066 53.1539 32.0084 51.0648 32.0084C50.418 32.0084 49.8002 32.1115 49.2246 32.2998V49.7816H58.941V45.2885C58.941 41.9359 58.0791 38.6154 56.4486 35.6861Z" fill="#EB5468"/>
<path d="M93.9752 11.5898V6.0666C93.9752 3.5252 91.9148 1.46484 89.3734 1.46484H10.6252C8.08359 1.46484 6.02344 3.5252 6.02344 6.0666V11.5898H93.9752Z" fill="#FFE07D"/>
<path d="M6.02344 49.7816V55.3049C6.02344 57.8463 8.08379 59.9066 10.6252 59.9066H89.3734C91.915 59.9066 93.9752 57.8463 93.9752 55.3049V49.7816H6.02344Z" fill="#FFE07D"/>
<path d="M49.2254 49.7816H45.3301V59.9066H58.9418V49.7816H49.2254Z" fill="#FFD064"/>
<path d="M6.02344 11.5898H11.2096V49.7814H6.02344V11.5898Z" fill="#9DC9EB"/>
<path d="M15.8113 1.46484H10.6252C8.08359 1.46484 6.02344 3.5252 6.02344 6.0666V11.5898H11.2096V6.0666C11.2094 3.5252 13.2697 1.46484 15.8113 1.46484Z" fill="#FFD064"/>
<path d="M11.2096 55.3049V49.7816H6.02344V55.3049C6.02344 57.8463 8.08379 59.9066 10.6252 59.9066H15.8113C13.2699 59.9066 11.2096 57.8463 11.2096 55.3049Z" fill="#FFD064"/>
<path d="M56.6371 80.5621C55.6469 80.032 55.0354 78.9936 55.0354 77.8703V45.2883C55.0354 42.5924 54.3473 39.9412 53.0359 37.5855L52.6244 36.8461C51.7172 35.2164 49.2361 35.8605 49.2361 37.7256V77.8992C49.2361 79 48.6436 80.027 47.6709 80.5424C44.6465 82.1449 42.5859 85.3238 42.5859 88.985C42.5859 94.3076 46.9404 98.6133 52.2814 98.5338C57.3484 98.4584 61.5207 94.3594 61.6809 89.2943C61.7998 85.5187 59.7262 82.2162 56.6371 80.5621ZM52.5041 92.5777C50.2205 92.8039 48.3172 90.9006 48.5432 88.617C48.7104 86.9271 50.0771 85.5603 51.767 85.3928C54.0506 85.1664 55.9543 87.0699 55.7281 89.3537C55.5607 91.0435 54.1939 92.4103 52.5041 92.5777Z" fill="#8E868E"/>
<path d="M24.534 37.3408L32.8221 32.4863C34.1982 31.6803 34.1982 29.6912 32.8221 28.8852L24.534 24.0307C23.143 23.2158 21.3926 24.2191 21.3926 25.8312V35.5402C21.3928 37.1523 23.143 38.1557 24.534 37.3408Z" fill="#EDF4FF"/>
<path d="M68.5104 37.3408L76.7984 32.4863C78.1746 31.6803 78.1746 29.6912 76.7984 28.8852L68.5104 24.0307C67.1193 23.2158 65.3691 24.2191 65.3691 25.8312V35.5402C65.3689 37.1523 67.1191 38.1557 68.5104 37.3408Z" fill="#EDF4FF"/>
<path d="M69.9813 79.9436C70.9291 80.8271 72.1616 81.3066 73.4424 81.3066C73.6709 81.3066 73.9012 81.2914 74.1313 81.2605C76.5139 80.9402 78.3545 78.9666 78.5075 76.5676C78.6053 75.0361 78.0207 73.5605 76.9037 72.5189C75.787 71.4777 74.2743 70.9978 72.7538 71.2021C70.3711 71.5225 68.5307 73.4961 68.3778 75.8951C68.2799 77.4264 68.8643 78.9021 69.9813 79.9436ZM71.3012 76.0816C71.3647 75.0877 72.1569 74.2383 73.1442 74.1055C73.2428 74.0924 73.3412 74.0857 73.4391 74.0857C73.9832 74.0857 74.5055 74.2881 74.9061 74.6615C75.3786 75.102 75.6256 75.7285 75.584 76.3805V76.3807C75.5205 77.3744 74.7284 78.224 73.7409 78.3566C73.094 78.4424 72.4516 78.241 71.9791 77.8006C71.5067 77.3602 71.2598 76.7336 71.3012 76.0816Z" fill="black"/>
<path d="M95.44 49.7779V11.5938C95.44 11.5924 95.4402 11.5912 95.4402 11.59C95.4402 11.5889 95.44 11.5875 95.44 11.5863V6.0668C95.44 2.72168 92.7188 0 89.3736 0H10.6252C7.28008 0 4.55859 2.72168 4.55859 6.0668V55.3051C4.55859 58.6502 7.28027 61.3717 10.6254 61.3717H36.1992L47.7709 67.5242V77.8998C47.7709 78.4748 47.4697 78.9918 46.985 79.2486C43.3678 81.165 41.1209 84.8959 41.1209 88.9855C41.1209 91.959 42.2875 94.7455 44.4057 96.8324C46.4828 98.8789 49.2213 100 52.133 100C52.1893 100 52.2461 99.9996 52.3025 99.9986C55.1316 99.9566 57.8113 98.8312 59.8475 96.8301C61.8842 94.8285 63.0551 92.1688 63.1443 89.3406C63.2777 85.1213 61.0488 81.2627 57.3283 79.2707C56.8172 78.9971 56.4998 78.4604 56.4998 77.8701V72.1652L61.5801 74.8666C62.101 75.1436 62.4256 75.6758 62.4273 76.2555C62.4397 80.476 64.8004 84.2555 68.5883 86.1186C70.1043 86.8641 71.7482 87.241 73.4066 87.241C74.5256 87.241 75.6516 87.0693 76.7488 86.7236C79.4715 85.865 81.723 84.0275 83.0885 81.5494C84.5242 78.9436 84.8481 75.9393 84 73.09C83.152 70.24 81.2391 67.9018 78.6137 66.5057C75.0027 64.5857 70.6535 64.818 67.2637 67.1119C66.8092 67.4193 66.2111 67.4428 65.7039 67.1729L56.5 62.2791V61.3713H89.3738C92.7189 61.3713 95.4404 58.6498 95.4404 55.3047V49.7852C95.4404 49.7838 95.4406 49.7826 95.4406 49.7814C95.4406 49.7803 95.44 49.7791 95.44 49.7779ZM54.3152 36.8734L53.9037 36.134C53.1672 34.8105 51.6871 34.1775 50.2215 34.5578C48.7557 34.9383 47.7707 36.2115 47.7707 37.726V48.317H7.48828V13.0549H47.7598V30.0961C47.7598 30.9053 48.4154 31.5609 49.2246 31.5609C50.0338 31.5609 50.6894 30.9053 50.6894 30.0961V13.0549H92.5104V48.3168H56.4996V45.2885C56.4996 42.3504 55.7443 39.4406 54.3152 36.8734ZM10.6252 2.92969H89.3734C91.1029 2.92969 92.5104 4.33691 92.5104 6.0668V10.1252H7.48828V6.0668C7.48828 4.33691 8.89551 2.92969 10.6252 2.92969ZM7.48828 55.3049V51.2465H47.7707V58.4418H10.6252C8.89551 58.4418 7.48828 57.0346 7.48828 55.3049ZM42.4395 61.3715H47.7707V64.2061L42.4395 61.3715ZM60.2162 89.2482C60.0818 93.4977 56.5123 97.0061 52.259 97.0693C50.0836 97.1031 48.0158 96.2764 46.4615 94.7451C44.9066 93.2133 44.0502 91.1678 44.0502 88.9854C44.0502 85.9834 45.7 83.2443 48.3563 81.8371C49.8022 81.0709 50.7004 79.5623 50.7004 77.8996V37.7258C50.7004 37.6531 50.7004 37.4602 50.9574 37.3934C50.9986 37.3826 51.0357 37.3781 51.0689 37.3781C51.2432 37.3781 51.3141 37.5055 51.3436 37.5588L51.7553 38.2984C52.9422 40.4307 53.5697 42.8479 53.5697 45.2885V77.8703C53.5697 79.5426 54.4797 81.0689 55.9447 81.8535C55.9449 81.8535 55.9449 81.8537 55.9449 81.8537C58.6775 83.3164 60.3141 86.15 60.2162 89.2482ZM64.3279 69.7598C65.7963 70.5404 67.55 70.4555 68.9053 69.5385C71.3949 67.8541 74.5879 67.6832 77.2381 69.0924C79.1652 70.117 80.5693 71.8336 81.1918 73.9256C81.8143 76.017 81.5764 78.2225 80.5221 80.1357C78.4693 83.8615 73.6953 85.366 69.8813 83.4896C67.0996 82.1217 65.366 79.3463 65.3568 76.2471C65.3522 74.585 64.4318 73.065 62.9553 72.2799L56.4996 68.8473V65.5975L64.3279 69.7598ZM89.3736 58.4418H56.4996V51.2465H92.5104V55.3049C92.5104 57.0346 91.1031 58.4418 89.3736 58.4418Z" fill="black"/>
<path d="M51.6229 83.9349C49.2307 84.1721 47.3225 86.0803 47.0857 88.4726C46.9348 89.9994 47.4674 91.4947 48.5471 92.5744C49.5063 93.5334 50.7926 94.0605 52.1381 94.0605C52.3074 94.0605 52.4779 94.0521 52.6486 94.0353C55.0408 93.7982 56.9492 91.89 57.1861 89.4978C57.3371 87.9709 56.8045 86.4758 55.7246 85.3959C54.6447 84.3162 53.1506 83.7853 51.6229 83.9349ZM54.2705 89.2094C54.1723 90.2004 53.3508 91.0217 52.3598 91.1199C51.7092 91.1851 51.0752 90.9594 50.6186 90.5027C50.1617 90.0461 49.9367 89.4113 50.0012 88.7613C50.0992 87.7701 50.9205 86.9486 51.9115 86.8506C51.9848 86.8433 52.0576 86.8396 52.1301 86.8396C52.7022 86.8396 53.2479 87.0625 53.6531 87.4678C54.11 87.9246 54.335 88.5594 54.2705 89.2094Z" fill="black"/>
<path d="M15.3242 7.99219H17.5684C18.3775 7.99219 19.0332 7.33652 19.0332 6.52734C19.0332 5.71816 18.3775 5.0625 17.5684 5.0625H15.3242C14.515 5.0625 13.8594 5.71816 13.8594 6.52734C13.8594 7.33652 14.515 7.99219 15.3242 7.99219Z" fill="black"/>
<path d="M24.9102 7.99219H27.1541C27.9633 7.99219 28.6189 7.33652 28.6189 6.52734C28.6189 5.71816 27.9633 5.0625 27.1541 5.0625H24.9102C24.101 5.0625 23.4453 5.71816 23.4453 6.52734C23.4453 7.33652 24.101 7.99219 24.9102 7.99219Z" fill="black"/>
<path d="M34.498 7.99219H36.742C37.5512 7.99219 38.2068 7.33652 38.2068 6.52734C38.2068 5.71816 37.5512 5.0625 36.742 5.0625H34.498C33.6889 5.0625 33.0332 5.71816 33.0332 6.52734C33.0332 7.33652 33.6889 7.99219 34.498 7.99219Z" fill="black"/>
<path d="M44.084 7.99219H46.3279C47.1371 7.99219 47.7928 7.33652 47.7928 6.52734C47.7928 5.71816 47.1371 5.0625 46.3279 5.0625H44.084C43.2748 5.0625 42.6191 5.71816 42.6191 6.52734C42.6191 7.33652 43.2748 7.99219 44.084 7.99219Z" fill="black"/>
<path d="M53.6719 7.99219H55.9158C56.725 7.99219 57.3807 7.33652 57.3807 6.52734C57.3807 5.71816 56.725 5.0625 55.9158 5.0625H53.6719C52.8627 5.0625 52.207 5.71816 52.207 6.52734C52.207 7.33652 52.8627 7.99219 53.6719 7.99219Z" fill="black"/>
<path d="M63.2578 7.99219H65.5018C66.3109 7.99219 66.9666 7.33652 66.9666 6.52734C66.9666 5.71816 66.3109 5.0625 65.5018 5.0625H63.2578C62.4486 5.0625 61.793 5.71816 61.793 6.52734C61.793 7.33652 62.4486 7.99219 63.2578 7.99219Z" fill="black"/>
<path d="M72.8438 7.99219H75.0877C75.8969 7.99219 76.5525 7.33652 76.5525 6.52734C76.5525 5.71816 75.8969 5.0625 75.0877 5.0625H72.8438C72.0346 5.0625 71.3789 5.71816 71.3789 6.52734C71.3789 7.33652 72.0346 7.99219 72.8438 7.99219Z" fill="black"/>
<path d="M82.4316 7.99219H84.6758C85.485 7.99219 86.1406 7.33652 86.1406 6.52734C86.1406 5.71816 85.485 5.0625 84.6758 5.0625H82.4316C81.6225 5.0625 80.9668 5.71816 80.9668 6.52734C80.9668 7.33652 81.6225 7.99219 82.4316 7.99219Z" fill="black"/>
<path d="M17.5684 53.3793H15.3242C14.515 53.3793 13.8594 54.035 13.8594 54.8441C13.8594 55.6533 14.515 56.309 15.3242 56.309H17.5684C18.3775 56.309 19.0332 55.6533 19.0332 54.8441C19.0332 54.035 18.3775 53.3793 17.5684 53.3793Z" fill="black"/>
<path d="M27.1541 53.3793H24.9102C24.101 53.3793 23.4453 54.035 23.4453 54.8441C23.4453 55.6533 24.101 56.309 24.9102 56.309H27.1541C27.9633 56.309 28.6189 55.6533 28.6189 54.8441C28.6189 54.035 27.9633 53.3793 27.1541 53.3793Z" fill="black"/>
<path d="M36.742 53.3793H34.498C33.6889 53.3793 33.0332 54.035 33.0332 54.8441C33.0332 55.6533 33.6889 56.309 34.498 56.309H36.742C37.5512 56.309 38.2068 55.6533 38.2068 54.8441C38.2068 54.035 37.5512 53.3793 36.742 53.3793Z" fill="black"/>
<path d="M75.0877 53.3793H72.8438C72.0346 53.3793 71.3789 54.035 71.3789 54.8441C71.3789 55.6533 72.0346 56.309 72.8438 56.309H75.0877C75.8969 56.309 76.5525 55.6533 76.5525 54.8441C76.5525 54.035 75.8969 53.3793 75.0877 53.3793Z" fill="black"/>
<path d="M84.6758 53.3793H82.4316C81.6225 53.3793 80.9668 54.035 80.9668 54.8441C80.9668 55.6533 81.6225 56.309 82.4316 56.309H84.6758C85.485 56.309 86.1406 55.6533 86.1406 54.8441C86.1406 54.035 85.485 53.3793 84.6758 53.3793Z" fill="black"/>
<path d="M65.5018 53.3793H63.2578C62.4486 53.3793 61.793 54.035 61.793 54.8441C61.793 55.6533 62.4486 56.309 63.2578 56.309H65.5018C66.3109 56.309 66.9666 55.6533 66.9666 54.8441C66.9666 54.035 66.3109 53.3793 65.5018 53.3793Z" fill="black"/>
<path d="M33.5623 27.6211L25.2742 22.7668C24.1625 22.1156 22.8311 22.1098 21.7133 22.75C20.5951 23.3908 19.9277 24.5428 19.9277 25.8312V35.5402C19.9277 36.8289 20.5951 37.9807 21.7133 38.6215C22.2672 38.9391 22.8734 39.0976 23.4797 39.0976C24.0967 39.0976 24.7133 38.9332 25.2742 38.6049L33.5625 33.7506C34.6623 33.1062 35.3189 31.9607 35.3189 30.6859C35.3189 29.4109 34.6623 28.2654 33.5623 27.6211ZM32.0818 31.2223L23.7936 36.0766C23.5229 36.235 23.2867 36.1463 23.1701 36.0797C23.0533 36.0127 22.8574 35.8537 22.8574 35.54V25.831C22.8574 25.5176 23.0533 25.3584 23.1701 25.2914C23.2387 25.2523 23.348 25.2057 23.4814 25.2057C23.5754 25.2057 23.6816 25.2289 23.7937 25.2945L32.0818 30.1488C32.3496 30.3057 32.3895 30.5523 32.3895 30.6853C32.3893 30.8187 32.3494 31.0656 32.0818 31.2223Z" fill="black"/>
<path d="M65.6898 38.6215C66.2437 38.9391 66.85 39.0977 67.4563 39.0977C68.0732 39.0977 68.6898 38.9332 69.2508 38.6049L77.5391 33.7506C78.6389 33.1062 79.2955 31.9607 79.2955 30.6859C79.2955 29.4113 78.6389 28.2656 77.5389 27.6215L69.2508 22.7672C68.1393 22.116 66.8078 22.1102 65.6898 22.7504C64.5717 23.3912 63.9043 24.5432 63.9043 25.8316V35.5406C63.9043 36.8287 64.5717 37.9807 65.6898 38.6215ZM66.834 25.8312C66.834 25.5178 67.0299 25.3586 67.1467 25.2916C67.2152 25.2525 67.3246 25.2059 67.458 25.2059C67.552 25.2059 67.6582 25.2291 67.7703 25.2947L76.0584 30.149C76.3262 30.3059 76.366 30.5525 76.366 30.6855C76.366 30.8187 76.3262 31.0654 76.0586 31.2223L67.7703 36.0766C67.7701 36.0766 67.7701 36.0766 67.7701 36.0766C67.4996 36.235 67.2635 36.1463 67.1469 36.0797C67.0301 36.0127 66.8342 35.8537 66.8342 35.54V25.8312H66.834Z" fill="black"/>
</svg>
