<svg width="100" height="100" viewBox="0 0 100 100" fill="none" xmlns="http://www.w3.org/2000/svg">
<g clip-path="url(#clip0_430_1767)">
<path fill-rule="evenodd" clip-rule="evenodd" d="M31.0155 31.632V34.8415C36.1923 35.4689 41.9346 37.1479 48.1167 40.4447C56.2895 44.8047 63.2853 46.9573 69.2937 47.5711V45.0542C69.2937 44.8352 69.3 44.6163 69.3115 44.3983C63.7105 43.7804 57.2051 41.7141 49.6029 37.6583C42.8767 34.071 36.6355 32.2742 31.0155 31.632ZM21.5417 31.5889C8.44272 32.9984 0.529993 40.0806 0.529993 40.0806C-0.121572 40.6595 -0.18052 41.6585 0.398392 42.31C0.976313 42.9616 1.97529 43.0205 2.62686 42.4416C2.62686 42.4416 6.99429 38.5932 14.5659 36.2679C15.4354 35.9205 16.3469 35.6753 17.2806 35.5396C18.6217 35.2312 20.0437 34.9785 21.5417 34.8048V31.5889ZM93.2773 35.3847V39.8068C95.7752 37.5489 97.8858 35.0183 99.7004 32.5131C100.211 31.8079 100.053 30.8195 99.3477 30.3089C98.6425 29.7974 97.6541 29.9552 97.1424 30.6605C95.9898 32.2521 94.712 33.8574 93.2773 35.3847Z" fill="black"/>
<path fill-rule="evenodd" clip-rule="evenodd" d="M55.0768 57.1924C54.721 57.1535 54.3695 57.0745 54.0295 56.9556V60.1788C65.617 65.2093 74.5876 65.4988 81.6255 63.3894C89.8951 60.9114 95.5657 55.0883 99.7004 49.3809C100.211 48.6757 100.053 47.6873 99.3477 47.1756C98.6425 46.665 97.6541 46.8229 97.1424 47.5283C93.3738 52.7315 88.2571 58.1052 80.719 60.3642C74.1717 62.3262 65.8506 61.9157 55.0768 57.1924ZM7.12473 52.7177C2.87107 54.8535 0.529993 56.9482 0.529993 56.9482C-0.121572 57.5271 -0.18052 58.5251 0.398392 59.1767C0.976313 59.8282 1.97529 59.8872 2.62686 59.3093C2.62686 59.3093 4.61854 57.5524 8.23533 55.6956C7.67739 54.8061 7.29216 53.7977 7.12473 52.7177ZM44.5557 55.565V52.1229C39.7145 50.0934 35.1661 48.9797 30.9661 48.5081C30.8704 49.5744 30.6314 50.6165 30.2619 51.6092C34.6387 52.064 39.4272 53.2672 44.5557 55.565Z" fill="black"/>
<path fill-rule="evenodd" clip-rule="evenodd" d="M54.0295 73.5893V74.9545C54.0295 75.6345 53.9715 76.3094 53.8579 76.9713C65.597 82.1041 74.6622 82.3798 81.755 80.2178C89.954 77.7177 95.5866 71.9261 99.7004 66.2481C100.211 65.5417 100.053 64.5544 99.3477 64.0427C98.6425 63.5312 97.6541 63.689 97.1424 64.3954C93.3928 69.5713 88.3096 74.9177 80.8338 77.1965C74.0612 79.262 65.379 78.7842 54.0295 73.5893ZM31.8049 68.6673C32.2944 67.8672 32.8787 67.1221 33.5524 66.4494C33.7586 66.2431 33.9713 66.0451 34.1903 65.8558C13.6985 62.0451 0.529993 73.8147 0.529993 73.8147C-0.121572 74.3936 -0.18052 75.3926 0.398392 76.0442C0.976313 76.6957 1.97529 76.7547 2.62686 76.1758C2.62686 76.1758 13.9848 66.1515 31.8049 68.6673Z" fill="black"/>
<path fill-rule="evenodd" clip-rule="evenodd" d="M50.8708 49.9933L54.4782 53.6007C55.0939 54.2176 56.0951 54.2176 56.7108 53.6007C57.3277 52.985 57.3277 51.9839 56.7108 51.3681L52.2045 46.8618C51.4519 46.1092 50.3203 45.884 49.3372 46.2913C48.354 46.6987 47.7129 47.6577 47.7129 48.7229V74.9348C47.7129 75.8063 48.4203 76.5136 49.2918 76.5136C50.1623 76.5136 50.8707 75.8063 50.8707 74.9348L50.8708 49.9933Z" fill="black"/>
<path fill-rule="evenodd" clip-rule="evenodd" d="M90.119 20.1341L93.7264 23.7415C94.3433 24.3584 95.3433 24.3584 95.959 23.7415C96.5759 23.1257 96.5759 22.1246 95.959 21.5089L91.4527 17.0026C90.7001 16.25 89.5685 16.0247 88.5852 16.4321C87.6021 16.8394 86.9609 17.7985 86.9609 18.8636V45.0755C86.9609 45.946 87.6683 46.6544 88.5398 46.6544C89.4113 46.6544 90.1187 45.946 90.1187 45.0755L90.119 20.1341Z" fill="black"/>
<path fill-rule="evenodd" clip-rule="evenodd" d="M27.8571 22.4658L31.4645 26.0731C32.0814 26.69 33.0814 26.69 33.6983 26.0731C34.314 25.4574 34.314 24.4573 33.6983 23.8405L29.192 19.3342C28.4394 18.5816 27.3066 18.3564 26.3235 18.7638C25.3404 19.1711 24.6992 20.1311 24.6992 21.1953V47.4072C24.6992 48.2788 25.4066 48.9861 26.2781 48.9861C27.1496 48.9861 27.857 48.2787 27.857 47.4072C27.8571 47.407 27.8571 22.4658 27.8571 22.4658Z" fill="black"/>
<path fill-rule="evenodd" clip-rule="evenodd" d="M50.8707 67.6798C50.8707 66.8072 50.1633 66.101 49.2918 66.101H42.0159C39.679 66.101 37.437 67.0294 35.7843 68.6819C34.1316 70.3346 33.2031 72.5768 33.2031 74.9136V79.0315C33.2031 81.6474 35.3243 83.7685 37.9401 83.7685H42.057C44.395 83.7685 46.636 82.839 48.2887 81.1863C49.9414 79.5337 50.8708 77.2926 50.8708 74.9547C50.8707 71.3209 50.8707 67.6798 50.8707 67.6798Z" fill="black"/>
<path fill-rule="evenodd" clip-rule="evenodd" d="M27.8568 40.1521C27.8568 39.2806 27.1495 38.5732 26.278 38.5732H19.0031C16.6651 38.5732 14.4241 39.5017 12.7704 41.1544C11.1178 42.8071 10.1895 45.0491 10.1895 47.386V51.504C10.1895 54.1198 12.3106 56.2409 14.9263 56.2409H19.0432C21.3811 56.2409 23.6233 55.3125 25.2758 53.6598C26.9285 52.0061 27.857 49.7649 27.857 47.4272V40.1521H27.8568Z" fill="black"/>
<path fill-rule="evenodd" clip-rule="evenodd" d="M90.1187 37.8206C90.1187 36.9479 89.4113 36.2417 88.5398 36.2417H81.264C78.9272 36.2417 76.685 37.1702 75.0323 38.8229C73.3796 40.4755 72.4512 42.7177 72.4512 45.0545V49.1714C72.4512 51.7883 74.5723 53.9084 77.1881 53.9084H81.3051C83.643 53.9084 85.884 52.9799 87.5367 51.3273C89.1904 49.6746 90.1189 47.4326 90.1189 45.0956C90.1187 41.4616 90.1187 37.8206 90.1187 37.8206Z" fill="black"/>
</g>
<defs>
<clipPath id="clip0_430_1767">
<rect width="100" height="100" fill="white"/>
</clipPath>
</defs>
</svg>
