<svg width="100" height="100" viewBox="0 0 100 100" fill="none" xmlns="http://www.w3.org/2000/svg">
<g clip-path="url(#clip0_559_2902)">
<path d="M60.9385 85.9375C28.126 59.375 65.626 26.5625 65.626 1.5625C102.57 14.3875 117.188 85.9375 60.9385 85.9375Z" fill="#9CCC65"/>
<path d="M37.5 64.0625C52.1701 64.0625 64.0625 52.1701 64.0625 37.5C64.0625 22.8299 52.1701 10.9375 37.5 10.9375C22.8299 10.9375 10.9375 22.8299 10.9375 37.5C10.9375 52.1701 22.8299 64.0625 37.5 64.0625Z" fill="#B2EBF2"/>
<path d="M54.9842 17.5041C55.8251 20.2049 56.252 23.0176 56.2504 25.8463C56.2504 41.3541 43.6332 53.9713 28.1254 53.9713C23.2436 53.9768 18.4455 52.7034 14.209 50.2777C16.0753 53.6803 18.6645 56.6325 21.7944 58.9269C24.9243 61.2213 28.5189 62.802 32.3253 63.5579C36.1317 64.3138 40.0576 64.2265 43.8267 63.3022C47.5957 62.3778 51.1165 60.6389 54.1413 58.2077C57.1661 55.7764 59.6215 52.712 61.3348 49.2299C63.048 45.7477 63.9775 41.9325 64.0578 38.0526C64.1382 34.1727 63.3674 30.3222 61.7998 26.7722C60.2322 23.2221 57.9058 20.0584 54.9842 17.5041Z" fill="#80DEEA"/>
<path d="M37.5 31.25V25L32.8125 21.875L28.125 25V31.25L32.8125 34.375L37.5 31.25Z" fill="#9CCC65"/>
<path d="M46.875 31.25V25L42.1875 21.875L37.5 25V31.25L42.1875 34.375L46.875 31.25Z" fill="#9CCC65"/>
<path d="M37.5 50V43.75L32.8125 40.625L28.125 43.75V50L32.8125 53.125L37.5 50Z" fill="#9CCC65"/>
<path d="M46.875 50V43.75L42.1875 40.625L37.5 43.75V50L42.1875 53.125L46.875 50Z" fill="#9CCC65"/>
<path d="M32.8125 40.625V34.375L28.125 31.25L23.4375 34.375V40.625L28.125 43.75L32.8125 40.625Z" fill="#9CCC65"/>
<path d="M42.1875 40.625V34.375L37.5 31.25L32.8125 34.375V40.625L37.5 43.75L42.1875 40.625Z" fill="#9CCC65"/>
<path d="M51.5625 40.625V34.375L46.875 31.25L42.1875 34.375V40.625L46.875 43.75L51.5625 40.625Z" fill="#9CCC65"/>
<path d="M96.0795 36.6119C88.4428 55.4852 70.432 69.0467 49.1152 70.2252C51.0133 75.6235 54.7076 80.8932 60.9381 85.9375C94.7801 85.9375 102.969 60.0391 96.0795 36.6119Z" fill="#83BD46"/>
<path d="M32.8125 18.75C34.5384 18.75 35.9375 17.3509 35.9375 15.625C35.9375 13.8991 34.5384 12.5 32.8125 12.5C31.0866 12.5 29.6875 13.8991 29.6875 15.625C29.6875 17.3509 31.0866 18.75 32.8125 18.75Z" fill="#E0F7FA"/>
<path d="M82.8125 23.4375C84.5384 23.4375 85.9375 22.0384 85.9375 20.3125C85.9375 18.5866 84.5384 17.1875 82.8125 17.1875C81.0866 17.1875 79.6875 18.5866 79.6875 20.3125C79.6875 22.0384 81.0866 23.4375 82.8125 23.4375Z" fill="#C6ED93"/>
<path d="M26.5625 18.75C27.4254 18.75 28.125 18.0504 28.125 17.1875C28.125 16.3246 27.4254 15.625 26.5625 15.625C25.6996 15.625 25 16.3246 25 17.1875C25 18.0504 25.6996 18.75 26.5625 18.75Z" fill="#E0F7FA"/>
<path d="M87.5 26.5625C88.3629 26.5625 89.0625 25.8629 89.0625 25C89.0625 24.1371 88.3629 23.4375 87.5 23.4375C86.6371 23.4375 85.9375 24.1371 85.9375 25C85.9375 25.8629 86.6371 26.5625 87.5 26.5625Z" fill="#C6ED93"/>
<path d="M95.3652 29.9201C95.2873 29.7295 95.1724 29.5563 95.0273 29.4103C94.8821 29.2643 94.7095 29.1484 94.5195 29.0693C94.3294 28.9902 94.1256 28.9494 93.9197 28.9493C93.7138 28.9493 93.5099 28.9899 93.3198 29.0688C93.1297 29.1478 92.957 29.2636 92.8118 29.4095C92.6665 29.5554 92.5515 29.7286 92.4734 29.9191C92.3953 30.1096 92.3556 30.3136 92.3566 30.5195C92.3576 30.7254 92.3993 30.929 92.4793 31.1187C101.93 53.8783 97.0512 81.9402 65.1578 84.2263C66.8174 82.266 68.338 80.1921 69.7086 78.0199C83.8697 76.1715 87.2504 68.116 87.3897 67.7677C87.4686 67.5772 87.5091 67.3729 87.5087 67.1667C87.5084 66.9604 87.4672 66.7563 87.3875 66.566C87.3079 66.3758 87.1914 66.2032 87.0447 66.0582C86.898 65.9132 86.724 65.7987 86.5329 65.7212C86.3417 65.6438 86.1371 65.605 85.9309 65.607C85.7246 65.609 85.5208 65.6519 85.3312 65.7331C85.1416 65.8142 84.97 65.9322 84.8262 66.08C84.6824 66.2279 84.5693 66.4027 84.4934 66.5945C84.4861 66.6117 83.7371 68.3492 81.4408 70.2367C79.657 71.7029 76.6084 73.5113 71.7572 74.5103C73.5552 71.1539 75.0411 67.6395 76.1963 64.0113C84.05 63.3429 89.6557 56.3211 89.902 56.008C90.1584 55.6823 90.2749 55.2681 90.2259 54.8565C90.177 54.4449 89.9665 54.0697 89.6408 53.8133C89.3152 53.5568 88.901 53.4403 88.4894 53.4893C88.0778 53.5382 87.7025 53.7487 87.4461 54.0744C87.3977 54.1357 83.0377 59.5644 77.158 60.7187C77.8243 58.1963 78.3517 55.6392 78.7379 53.059C84.2736 52.5601 88.9236 49.1136 90.5484 44.1656C90.6718 43.7735 90.6357 43.3486 90.448 42.983C90.2603 42.6174 89.936 42.3404 89.5455 42.2122C89.155 42.0839 88.7297 42.1147 88.3617 42.2978C87.9938 42.481 87.7128 42.8017 87.5797 43.1906C86.4141 46.7408 83.1385 49.2748 79.148 49.8664C79.4276 47.2328 79.571 44.5866 79.5777 41.9383C84.1582 40.4025 88.2391 31.25 84.3754 31.25C83.961 31.25 83.5636 31.4146 83.2705 31.7076C82.9775 32.0006 82.8129 32.3981 82.8129 32.8125C82.8129 34.298 81.1662 37.251 79.5106 38.4918C79.1211 29.0506 77.026 19.6181 73.241 11.0963C73.1591 10.9067 73.0404 10.7353 72.8918 10.5919C72.7432 10.4485 72.5677 10.336 72.3753 10.2609C72.183 10.1858 71.9777 10.1495 71.7712 10.1542C71.5648 10.1589 71.3613 10.2045 71.1726 10.2883C70.9839 10.3721 70.8137 10.4925 70.6717 10.6425C70.5298 10.7925 70.4191 10.9692 70.3458 11.1622C70.2726 11.3553 70.2384 11.561 70.2451 11.7674C70.2519 11.9737 70.2995 12.1767 70.3852 12.3646C73.9371 20.3615 75.9332 29.192 76.367 38.0447C75.218 36.9357 74.0012 35.1267 73.2731 33.6761C73.0858 33.3088 72.7609 33.0304 72.3693 32.9016C71.9776 32.7728 71.5509 32.804 71.1822 32.9884C70.8134 33.1728 70.5325 33.4954 70.4006 33.8861C70.2688 34.2767 70.2966 34.7036 70.4781 35.0738C70.9846 36.0867 73.3568 40.541 76.4582 41.8328C76.4549 44.4408 76.3129 47.0468 76.033 49.6398C74.0895 48.6281 72.2846 45.7549 71.7106 44.6136C71.5233 44.2463 71.1984 43.9679 70.8068 43.8391C70.4151 43.7103 69.9884 43.7415 69.6197 43.9259C69.2509 44.1103 68.97 44.4329 68.8381 44.8236C68.7063 45.2142 68.7341 45.6411 68.9156 46.0113C69.2334 46.6472 71.8137 51.5972 75.6166 52.8416C75.2067 55.4988 74.6389 58.1292 73.9162 60.7189C71.4113 59.7306 69.2631 55.658 68.6389 54.1072C68.5627 53.9167 68.4497 53.743 68.3064 53.5962C68.1631 53.4493 67.9922 53.3321 67.8036 53.2513C67.615 53.1705 67.4124 53.1276 67.2072 53.1251C67.002 53.1226 66.7983 53.1605 66.6078 53.2367C66.4173 53.3129 66.2437 53.4259 66.0968 53.5692C65.9499 53.7125 65.8328 53.8833 65.7519 54.0719C65.6711 54.2605 65.6282 54.4632 65.6257 54.6684C65.6232 54.8736 65.6611 55.0772 65.7373 55.2677C66.052 56.0547 68.6279 62.1847 73 63.7164C71.8017 67.3576 70.2452 70.8709 68.3531 74.2047C65.4576 71.2998 63.1428 65.7299 62.4203 63.5687C62.3569 63.3722 62.2552 63.1902 62.1211 63.0332C61.987 62.8763 61.823 62.7474 61.6388 62.6542C61.4546 62.5609 61.2537 62.5051 61.0478 62.49C60.8418 62.4749 60.635 62.5007 60.4391 62.566C60.2432 62.6313 60.0622 62.7348 59.9065 62.8705C59.7509 63.0061 59.6237 63.1713 59.5322 63.3565C59.4408 63.5416 59.387 63.743 59.3739 63.9491C59.3608 64.1552 59.3886 64.3618 59.4559 64.557C59.5793 64.9281 62.3086 72.999 66.6898 76.9293C65.0451 79.4642 63.1808 81.8497 61.1184 84.0582C55.3115 79.1634 51.6848 73.8967 50.0475 67.984C49.9927 67.7862 49.8995 67.6012 49.7733 67.4394C49.647 67.2777 49.4901 67.1424 49.3115 67.0413C48.9509 66.8371 48.524 66.7845 48.1246 66.8951C47.7252 67.0057 47.3861 67.2704 47.1819 67.631C46.9777 67.9916 46.9252 68.4186 47.0357 68.8179C48.8281 75.29 52.7172 81.0133 58.9051 86.2789C53.9192 90.9588 48.0485 94.5953 41.6377 96.975C41.2529 97.1232 40.9423 97.4174 40.7735 97.7937C40.6048 98.1699 40.5916 98.5976 40.7369 98.9835C40.8821 99.3694 41.174 99.6823 41.549 99.8539C41.9239 100.025 42.3515 100.042 42.7385 99.8996C50.2246 97.082 56.7488 92.8896 62.1551 87.4867C97.8252 86.8242 106.556 56.8695 95.3652 29.9201Z" fill="black"/>
<path d="M61.8945 17.6615C62.0868 17.7331 62.2913 17.7662 62.4963 17.7587C62.7014 17.7513 62.903 17.7036 63.0896 17.6182C63.2762 17.5329 63.4442 17.4117 63.5839 17.2614C63.7237 17.1112 63.8324 16.9349 63.9041 16.7426C65.7673 11.7383 66.8029 7.55858 67.0982 3.79589C73.7316 6.55448 79.856 11.4266 84.9125 17.9906C86.1498 19.5967 88.6601 17.7351 87.3882 16.0838C81.4582 8.38554 74.1097 2.8537 66.1375 0.0863192C65.902 0.00457088 65.6504 -0.0196694 65.4037 0.0156221C65.157 0.0509135 64.9223 0.144713 64.7192 0.289189C64.5161 0.433666 64.3505 0.624627 64.2363 0.846132C64.122 1.06764 64.0624 1.31326 64.0625 1.56249C64.0625 5.51855 63.0814 9.9955 60.9752 15.6519C60.9035 15.8443 60.8705 16.0488 60.878 16.2539C60.8854 16.4589 60.9332 16.6605 61.0186 16.8472C61.1039 17.0338 61.2252 17.2017 61.3755 17.3415C61.5258 17.4812 61.7022 17.5899 61.8945 17.6615Z" fill="black"/>
<path d="M37.5002 65.625C53.008 65.625 65.6252 53.0078 65.6252 37.5C65.6252 18.8422 47.7402 5.39826 29.8916 10.4178C29.4994 10.5357 29.1692 10.8029 28.972 11.1619C28.7748 11.5208 28.7265 11.9429 28.8374 12.3371C28.9482 12.7314 29.2095 13.0663 29.5648 13.2699C29.9202 13.4735 30.3413 13.5294 30.7375 13.4256C46.6429 8.95314 62.5002 20.967 62.5002 37.5C62.4927 44.1281 59.8563 50.4826 55.1696 55.1694C50.4828 59.8562 44.1283 62.4925 37.5002 62.5C16.2052 62.5 4.77497 37.4719 18.408 21.3568C18.5412 21.2003 18.6423 21.019 18.7053 20.8233C18.7683 20.6276 18.7921 20.4215 18.7754 20.2166C18.7586 20.0117 18.7015 19.8121 18.6075 19.6293C18.5134 19.4465 18.3842 19.2841 18.2273 19.1513C18.0703 19.0185 17.8887 18.918 17.6929 18.8555C17.497 18.7931 17.2907 18.7699 17.0859 18.7873C16.8811 18.8047 16.6817 18.8623 16.4991 18.9569C16.3166 19.0515 16.1546 19.1812 16.0222 19.3385C0.674972 37.4805 13.5631 65.625 37.5002 65.625Z" fill="black"/>
<path d="M9.375 71.875H1.5625C1.1481 71.875 0.750671 72.0396 0.457646 72.3326C0.16462 72.6257 0 73.0231 0 73.4375C0 73.8519 0.16462 74.2493 0.457646 74.5424C0.750671 74.8354 1.1481 75 1.5625 75H9.375C9.7894 75 10.1868 74.8354 10.4799 74.5424C10.7729 74.2493 10.9375 73.8519 10.9375 73.4375C10.9375 73.0231 10.7729 72.6257 10.4799 72.3326C10.1868 72.0396 9.7894 71.875 9.375 71.875Z" fill="black"/>
<path d="M9.375 65.625H1.5625C1.1481 65.625 0.750671 65.7896 0.457646 66.0826C0.16462 66.3757 0 66.7731 0 67.1875C0 67.6019 0.16462 67.9993 0.457646 68.2924C0.750671 68.5854 1.1481 68.75 1.5625 68.75H9.375C9.7894 68.75 10.1868 68.5854 10.4799 68.2924C10.7729 67.9993 10.9375 67.6019 10.9375 67.1875C10.9375 66.7731 10.7729 66.3757 10.4799 66.0826C10.1868 65.7896 9.7894 65.625 9.375 65.625Z" fill="black"/>
<path d="M9.375 78.125H1.5625C1.1481 78.125 0.750671 78.2896 0.457646 78.5826C0.16462 78.8757 0 79.2731 0 79.6875C0 80.1019 0.16462 80.4993 0.457646 80.7924C0.750671 81.0854 1.1481 81.25 1.5625 81.25H9.375C9.7894 81.25 10.1868 81.0854 10.4799 80.7924C10.7729 80.4993 10.9375 80.1019 10.9375 79.6875C10.9375 79.2731 10.7729 78.8757 10.4799 78.5826C10.1868 78.2896 9.7894 78.125 9.375 78.125Z" fill="black"/>
<path d="M9.375 84.375H1.5625C1.1481 84.375 0.750671 84.5396 0.457646 84.8326C0.16462 85.1257 0 85.5231 0 85.9375C0 86.3519 0.16462 86.7493 0.457646 87.0424C0.750671 87.3354 1.1481 87.5 1.5625 87.5H9.375C9.7894 87.5 10.1868 87.3354 10.4799 87.0424C10.7729 86.7493 10.9375 86.3519 10.9375 85.9375C10.9375 85.5231 10.7729 85.1257 10.4799 84.8326C10.1868 84.5396 9.7894 84.375 9.375 84.375Z" fill="black"/>
<path d="M23.4375 78.125H15.625C15.2106 78.125 14.8132 78.2896 14.5201 78.5826C14.2271 78.8757 14.0625 79.2731 14.0625 79.6875C14.0625 80.1019 14.2271 80.4993 14.5201 80.7924C14.8132 81.0854 15.2106 81.25 15.625 81.25H23.4375C23.8519 81.25 24.2493 81.0854 24.5424 80.7924C24.8354 80.4993 25 80.1019 25 79.6875C25 79.2731 24.8354 78.8757 24.5424 78.5826C24.2493 78.2896 23.8519 78.125 23.4375 78.125Z" fill="black"/>
<path d="M23.4375 71.875H15.625C15.2106 71.875 14.8132 72.0396 14.5201 72.3326C14.2271 72.6257 14.0625 73.0231 14.0625 73.4375C14.0625 73.8519 14.2271 74.2493 14.5201 74.5424C14.8132 74.8354 15.2106 75 15.625 75H23.4375C23.8519 75 24.2493 74.8354 24.5424 74.5424C24.8354 74.2493 25 73.8519 25 73.4375C25 73.0231 24.8354 72.6257 24.5424 72.3326C24.2493 72.0396 23.8519 71.875 23.4375 71.875Z" fill="black"/>
<path d="M37.5 78.125H29.6875C29.2731 78.125 28.8757 78.2896 28.5826 78.5826C28.2896 78.8757 28.125 79.2731 28.125 79.6875C28.125 80.1019 28.2896 80.4993 28.5826 80.7924C28.8757 81.0854 29.2731 81.25 29.6875 81.25H37.5C37.9144 81.25 38.3118 81.0854 38.6049 80.7924C38.8979 80.4993 39.0625 80.1019 39.0625 79.6875C39.0625 79.2731 38.8979 78.8757 38.6049 78.5826C38.3118 78.2896 37.9144 78.125 37.5 78.125Z" fill="black"/>
<path d="M23.4375 84.375H15.625C15.2106 84.375 14.8132 84.5396 14.5201 84.8326C14.2271 85.1257 14.0625 85.5231 14.0625 85.9375C14.0625 86.3519 14.2271 86.7493 14.5201 87.0424C14.8132 87.3354 15.2106 87.5 15.625 87.5H23.4375C23.8519 87.5 24.2493 87.3354 24.5424 87.0424C24.8354 86.7493 25 86.3519 25 85.9375C25 85.5231 24.8354 85.1257 24.5424 84.8326C24.2493 84.5396 23.8519 84.375 23.4375 84.375Z" fill="black"/>
<path d="M9.375 90.625H1.5625C1.1481 90.625 0.750671 90.7896 0.457646 91.0826C0.16462 91.3757 0 91.7731 0 92.1875C0 92.6019 0.16462 92.9993 0.457646 93.2924C0.750671 93.5854 1.1481 93.75 1.5625 93.75H9.375C9.7894 93.75 10.1868 93.5854 10.4799 93.2924C10.7729 92.9993 10.9375 92.6019 10.9375 92.1875C10.9375 91.7731 10.7729 91.3757 10.4799 91.0826C10.1868 90.7896 9.7894 90.625 9.375 90.625Z" fill="black"/>
<path d="M23.4375 90.625H15.625C15.2106 90.625 14.8132 90.7896 14.5201 91.0826C14.2271 91.3757 14.0625 91.7731 14.0625 92.1875C14.0625 92.6019 14.2271 92.9993 14.5201 93.2924C14.8132 93.5854 15.2106 93.75 15.625 93.75H23.4375C23.8519 93.75 24.2493 93.5854 24.5424 93.2924C24.8354 92.9993 25 92.6019 25 92.1875C25 91.7731 24.8354 91.3757 24.5424 91.0826C24.2493 90.7896 23.8519 90.625 23.4375 90.625Z" fill="black"/>
<path d="M37.5 84.375H29.6875C29.2731 84.375 28.8757 84.5396 28.5826 84.8326C28.2896 85.1257 28.125 85.5231 28.125 85.9375C28.125 86.3519 28.2896 86.7493 28.5826 87.0424C28.8757 87.3354 29.2731 87.5 29.6875 87.5H37.5C37.9144 87.5 38.3118 87.3354 38.6049 87.0424C38.8979 86.7493 39.0625 86.3519 39.0625 85.9375C39.0625 85.5231 38.8979 85.1257 38.6049 84.8326C38.3118 84.5396 37.9144 84.375 37.5 84.375Z" fill="black"/>
<path d="M37.5 90.625H29.6875C29.2731 90.625 28.8757 90.7896 28.5826 91.0826C28.2896 91.3757 28.125 91.7731 28.125 92.1875C28.125 92.6019 28.2896 92.9993 28.5826 93.2924C28.8757 93.5854 29.2731 93.75 29.6875 93.75H37.5C37.9144 93.75 38.3118 93.5854 38.6049 93.2924C38.8979 92.9993 39.0625 92.6019 39.0625 92.1875C39.0625 91.7731 38.8979 91.3757 38.6049 91.0826C38.3118 90.7896 37.9144 90.625 37.5 90.625Z" fill="black"/>
<path d="M17.4498 30.3834C17.22 30.7282 17.1366 31.1501 17.2179 31.5564C17.2991 31.9628 17.5385 32.3201 17.8832 32.55L21.8748 35.2111C22.0701 40.0102 21.3928 41.14 22.5707 41.925L26.5623 44.5861C26.7576 49.3852 26.0803 50.515 27.2582 51.3L31.2498 53.9611V57.8125C31.2498 58.2269 31.4144 58.6243 31.7075 58.9174C32.0005 59.2104 32.3979 59.375 32.8123 59.375C33.2267 59.375 33.6242 59.2104 33.9172 58.9174C34.2102 58.6243 34.3748 58.2269 34.3748 57.8125V53.9611L37.4998 51.8779C40.9807 54.108 41.8283 55.2422 43.0541 54.425L46.6756 52.0105L48.8949 54.2299C49.04 54.375 49.2123 54.4901 49.4019 54.5686C49.5914 54.6471 49.7946 54.6875 49.9998 54.6875C50.205 54.6875 50.4082 54.6471 50.5978 54.5686C50.7874 54.4901 50.9596 54.375 51.1047 54.2299C51.2498 54.0848 51.3649 53.9125 51.4434 53.723C51.5219 53.5334 51.5624 53.3302 51.5624 53.125C51.5624 52.9198 51.5219 52.7166 51.4434 52.527C51.3649 52.3375 51.2498 52.1652 51.1047 52.0201L48.4373 49.3527V44.5871C51.8014 42.1193 53.1248 42.0254 53.1248 40.626V35.2111L57.1166 32.55C57.4569 32.3182 57.692 31.9615 57.7707 31.5574C57.8495 31.1533 57.7655 30.7344 57.5371 30.3918C57.3087 30.0493 56.9544 29.8107 56.551 29.7279C56.1477 29.6452 55.728 29.725 55.3832 29.95L51.5623 32.4971L48.4373 30.4139V25C48.4373 23.598 47.0658 23.4715 43.7498 21.0389V17.1875C43.7498 16.7731 43.5852 16.3757 43.2922 16.0826C42.9992 15.7896 42.6017 15.625 42.1873 15.625C41.7729 15.625 41.3755 15.7896 41.0825 16.0826C40.7894 16.3757 40.6248 16.7731 40.6248 17.1875V21.0389L37.4998 23.1221L33.6791 20.575C33.4225 20.4039 33.1209 20.3126 32.8124 20.3126C32.504 20.3126 32.2024 20.4039 31.9457 20.575C27.8424 23.5496 26.5623 23.5824 26.5623 25V30.4139L23.4373 32.4971L19.6166 29.95C19.4459 29.8362 19.2544 29.7571 19.0531 29.7173C18.8518 29.6775 18.6447 29.6777 18.4435 29.7179C18.2423 29.7582 18.0509 29.8377 17.8805 29.9518C17.71 30.066 17.5636 30.2127 17.4498 30.3834ZM35.9373 49.1639L32.8123 51.2471L29.6873 49.1639V44.5861L32.8123 42.5029L35.9373 44.5861V49.1639ZM45.3123 49.1639L42.1873 51.2471L39.0623 49.1639V44.5861L42.1873 42.5029L45.3123 44.5861V49.1639ZM49.9998 35.2111V39.7889L46.8748 41.8721L43.7498 39.7889V35.2111L46.8748 33.1279L49.9998 35.2111ZM39.0623 25.8361L42.1873 23.7529L45.3123 25.8361V30.4139L42.1873 32.4971L39.0623 30.4139V25.8361ZM40.6248 35.2111V39.7889L37.4998 41.8721L34.3748 39.7889V35.2111L37.4998 33.1279L40.6248 35.2111ZM29.6873 25.8361L32.8123 23.7529L35.9373 25.8361V30.4139L32.8123 32.4971L29.6873 30.4139V25.8361ZM24.9998 35.2111L28.1248 33.1279L31.2498 35.2111V39.7889L28.1248 41.8721L24.9998 39.7889V35.2111Z" fill="black"/>
<path d="M53.125 48.4375C53.9879 48.4375 54.6875 47.7379 54.6875 46.875C54.6875 46.0121 53.9879 45.3125 53.125 45.3125C52.2621 45.3125 51.5625 46.0121 51.5625 46.875C51.5625 47.7379 52.2621 48.4375 53.125 48.4375Z" fill="black"/>
<path d="M21.875 48.4375C22.7379 48.4375 23.4375 47.7379 23.4375 46.875C23.4375 46.0121 22.7379 45.3125 21.875 45.3125C21.0121 45.3125 20.3125 46.0121 20.3125 46.875C20.3125 47.7379 21.0121 48.4375 21.875 48.4375Z" fill="black"/>
<path d="M23.4375 17.1875C24.3004 17.1875 25 16.4879 25 15.625C25 14.7621 24.3004 14.0625 23.4375 14.0625C22.5746 14.0625 21.875 14.7621 21.875 15.625C21.875 16.4879 22.5746 17.1875 23.4375 17.1875Z" fill="black"/>
<path d="M90.625 25C91.4879 25 92.1875 24.3004 92.1875 23.4375C92.1875 22.5746 91.4879 21.875 90.625 21.875C89.7621 21.875 89.0625 22.5746 89.0625 23.4375C89.0625 24.3004 89.7621 25 90.625 25Z" fill="black"/>
</g>
<defs>
<clipPath id="clip0_559_2902">
<rect width="100" height="100" fill="white"/>
</clipPath>
</defs>
</svg>
