<svg width="100" height="100" viewBox="0 0 100 100" fill="none" xmlns="http://www.w3.org/2000/svg">
<g clip-path="url(#clip0_417_190)">
<path d="M49.8057 98.1378C76.4995 98.1378 98.1388 76.4985 98.1388 49.8047C98.1388 23.111 76.4995 1.47168 49.8057 1.47168C23.1119 1.47168 1.47266 23.111 1.47266 49.8047C1.47266 76.4985 23.1119 98.1378 49.8057 98.1378ZM49.8057 88.1379C43.0781 88.1501 36.4695 86.3733 30.6559 82.9881L41.4721 64.2381C46.6288 67.215 52.9826 67.215 58.1386 64.2381L68.9555 82.9881C63.1419 86.3733 56.5326 88.1501 49.8057 88.1379ZM68.9723 16.6283C80.8414 23.4535 88.1473 36.113 88.1191 49.8047H66.4722C66.4722 43.85 63.2953 38.3484 58.1393 35.3714L68.9723 16.6283ZM49.8057 43.1382C53.4877 43.1382 56.4723 46.1228 56.4723 49.8047C56.4723 53.4867 53.4877 56.4713 49.8057 56.4713C46.1238 56.4713 43.1391 53.4867 43.1391 49.8047C43.1391 46.1228 46.1238 43.1382 49.8057 43.1382ZM16.6071 30.6381C19.9595 24.8062 24.8019 19.9707 30.6391 16.6283L41.4721 35.3714C36.3162 38.3484 33.1393 43.8507 33.1393 49.8047H11.4924C11.4664 43.0748 13.2319 36.4601 16.6071 30.6381Z" fill="#FFCD00"/>
<path d="M56.4718 49.8048C56.4718 53.4867 53.4872 56.4713 49.8052 56.4713C46.1233 56.4713 43.1387 53.4867 43.1387 49.8048C43.1387 46.1228 46.1233 43.1382 49.8052 43.1382C53.4872 43.1382 56.4718 46.1228 56.4718 49.8048Z" fill="#3E3D42"/>
<path d="M35.3723 41.4712C36.8333 38.9367 38.9375 36.8325 41.472 35.3715L30.639 16.6283C18.77 23.4536 11.464 36.113 11.4923 49.8048H33.1392C33.1361 46.8789 33.9067 44.0041 35.3723 41.4712Z" fill="#57565C"/>
<path d="M49.8041 66.4712C46.8782 66.4742 44.0035 65.7036 41.4705 64.238L30.6543 82.9881C42.4974 89.8553 57.1108 89.8553 68.9539 82.9881L58.1377 64.238C55.6047 65.7036 52.73 66.4742 49.8041 66.4712Z" fill="#57565C"/>
<path d="M64.2384 41.4711C65.704 44.0041 66.4746 46.8789 66.4715 49.8047H88.1184C88.1421 36.1161 80.8362 23.4612 68.9686 16.6382L58.1387 35.3714C60.6732 36.8317 62.7781 38.9367 64.2384 41.4711Z" fill="#57565C"/>
<path d="M49.8048 -0.195312C22.1909 -0.195312 -0.195312 22.1909 -0.195312 49.8048C-0.195312 77.4186 22.1909 99.8049 49.8048 99.8049C77.4186 99.8049 99.8049 77.4186 99.8049 49.8048C99.7736 22.2031 77.4064 -0.164032 49.8048 -0.195312ZM49.8048 96.4716C24.0311 96.4716 3.13798 75.5777 3.13798 49.8048C3.13798 24.0311 24.0319 3.13798 49.8048 3.13798C75.5777 3.13798 96.4716 24.0319 96.4716 49.8048C96.4418 75.5662 75.5662 96.4418 49.8048 96.4716Z" fill="black"/>
<path d="M49.8043 58.1384C54.4064 58.1384 58.1379 54.4069 58.1379 49.8048C58.1379 45.202 54.4064 41.4712 49.8043 41.4712C45.2015 41.4712 41.4707 45.202 41.4707 49.8048C41.4768 54.4053 45.2038 58.1323 49.8043 58.1384ZM49.8043 44.8045C52.5654 44.8045 54.8046 47.0437 54.8046 49.8048C54.8046 52.5666 52.5654 54.8051 49.8043 54.8051C47.0425 54.8051 44.804 52.5666 44.804 49.8048C44.804 47.0437 47.0432 44.8045 49.8043 44.8045Z" fill="black"/>
<path d="M34.8045 49.8048C34.8045 44.4459 37.664 39.4944 42.305 36.8149L43.75 35.9811L31.25 14.3578L29.8095 15.181C17.4217 22.3038 9.79607 35.5149 9.8243 49.8048V51.4626L34.8045 51.471V49.8048ZM31.546 48.1378H13.1896C13.7138 36.2374 20.005 25.3388 30.0483 18.9331L39.2311 34.826C34.8449 37.925 32.0358 42.7903 31.546 48.1378Z" fill="black"/>
<path d="M57.3039 62.7946C52.65 65.4244 46.9585 65.4244 42.3038 62.7946L40.861 61.9614L28.3809 83.5946L29.8137 84.4285C42.1764 91.5971 57.4314 91.5971 69.794 84.4285L71.2276 83.5946L58.7474 61.9614L57.3039 62.7946ZM49.8042 86.4717C43.9349 86.4755 38.1511 85.0617 32.9455 82.3495L42.1123 66.4498C46.9958 68.6661 52.5989 68.6661 57.4825 66.4498L66.6492 82.3495C61.4475 85.0595 55.669 86.4732 49.8042 86.4717Z" fill="black"/>
<path d="M84.4467 29.805C80.941 23.7214 75.8857 18.6753 69.7952 15.181L68.3555 14.3578L55.8555 35.9811L57.3005 36.815C61.943 39.4929 64.804 44.4451 64.8055 49.8048V51.4718L89.7789 51.4634V49.8048C89.7987 42.7842 87.9593 35.8834 84.4467 29.805ZM68.064 48.1378C67.5742 42.7895 64.7651 37.925 60.3789 34.826L69.5617 18.9331C79.6051 25.3388 85.8963 36.2374 86.4204 48.1378H68.064Z" fill="black"/>
</g>
<defs>
<clipPath id="clip0_417_190">
<rect width="100" height="100" fill="white"/>
</clipPath>
</defs>
</svg>
