<svg width="100" height="100" viewBox="0 0 100 100" fill="none" xmlns="http://www.w3.org/2000/svg">
<g clip-path="url(#clip0_419_1511)">
<path d="M41.0762 59.0463V67.4646C43.2918 67.6897 45.5317 67.624 47.7321 67.2647V66.6017C47.7321 63.2074 48.7041 60.2464 50.3856 57.8279C47.4483 59.1249 44.205 59.5292 41.0762 59.0463Z" fill="#A2F9F9"/>
<path d="M53.0829 71.5272C53.7932 72.5373 54.1579 73.7863 54.0259 75.0985C53.9084 76.2643 53.4171 77.3027 52.6801 78.1144V87.4513H55.6685C55.9043 85.3982 57.6613 83.8014 59.7968 83.8014C61.4036 83.8014 62.7944 84.7062 63.4864 86.0276C64.1791 84.7055 65.57 83.8014 67.1767 83.8014C69.313 83.8014 71.07 85.3982 71.3058 87.4513H83.4083V66.4063C83.4083 60.8613 80.8166 56.5346 76.7715 53.8346C74.1477 55.1011 71.2051 55.8137 68.0938 55.8137H62.2184C59.2254 55.8137 56.3865 55.2979 53.8382 54.2885C50.0983 57.0588 47.7324 61.303 47.7324 66.6016V69.0789L48.2291 69.1293L48.239 69.13L48.0941 68.7455C47.779 67.9124 48.1993 66.9816 49.0332 66.6665L49.4445 66.5109C50.2784 66.1965 51.2091 66.6161 51.5242 67.4508L53.0829 71.5272Z" fill="#48E5E1"/>
<path d="M48.2291 69.1293L48.239 69.1301L48.0933 68.7455C47.779 67.9124 48.1993 66.9809 49.0332 66.6665L49.4445 66.5109C50.2784 66.1958 51.2084 66.6162 51.5235 67.4501L53.0829 71.5272C53.263 71.7836 53.4209 72.0552 53.5544 72.3398C53.6139 72.355 53.675 72.3672 53.7345 72.3817V66.6017C53.7345 62.0317 55.4961 58.249 58.3793 55.5169C56.7893 55.2659 55.268 54.8547 53.8382 54.2886C50.0983 57.0588 47.7324 61.3031 47.7324 66.6017V69.0789L48.2291 69.1293Z" fill="#41CECA"/>
<path d="M63.0204 94.2209V87.9205C63.0204 87.2377 63.1906 86.5945 63.4874 86.0277C62.7954 84.7062 61.4045 83.8014 59.7978 83.8014C57.6623 83.8014 55.9053 85.3982 55.6695 87.4521H52.6811V97.0903C52.6811 97.7777 52.1134 98.34 51.4199 98.34H60.0816V98.3263C61.5647 98.2271 62.8358 97.3573 63.4874 96.1183C63.189 95.5507 63.0204 94.9052 63.0204 94.2209Z" fill="#A2F9F9"/>
<path d="M66.8945 98.3263V98.34H83.7441C86.779 98.34 89.2388 95.9032 89.2388 92.8956C89.2388 89.8889 86.779 87.4513 83.7441 87.4513H71.3058C71.0701 85.3982 69.313 83.8014 67.1776 83.8014C64.8811 83.8014 63.0195 85.6454 63.0195 87.9205V94.2209C63.0203 96.4006 64.7308 98.1813 66.8945 98.3263Z" fill="#A2F9F9"/>
<path d="M68.9689 94.2209V87.9205C68.9689 86.8028 69.4206 85.7904 70.15 85.048C69.3954 84.2805 68.3441 83.8014 67.1768 83.8014C64.8803 83.8014 63.0195 85.6454 63.0195 87.9205V94.2209C63.0195 96.4006 64.73 98.1813 66.8937 98.3263V98.34H72.8432V98.3263C70.6802 98.1813 68.9689 96.4006 68.9689 94.2209Z" fill="#91E0E0"/>
<path d="M68.0939 55.8138H62.2185C61.3037 55.8138 60.4034 55.7649 59.5215 55.6696C59.5383 58.2552 61.6585 60.3471 64.2723 60.3471C66.8457 60.3471 68.9392 58.3208 69.0209 55.7916C68.7134 55.8054 68.4044 55.8138 68.0939 55.8138Z" fill="#FFD5B3"/>
<path d="M88.1055 25.3563C88.0788 25.3563 88.0529 25.3586 88.0262 25.3586V22.5808C88.0262 22.3664 88.0216 22.1528 88.0147 21.9399C87.5905 22.2779 87.1091 22.5449 86.5713 22.7356C85.3849 23.1553 84.226 23.3681 83.1273 23.3681C77.1611 23.3681 74.4619 17.0899 74.4352 17.0266L74.2505 16.5856L74.0735 17.0296C74.0415 17.1112 70.7685 25.1702 65.3043 25.1702C64.7046 25.1702 64.0912 25.0725 63.4808 24.8803C60.8914 24.0639 60.0354 22.094 60.9364 19.0255L60.5817 18.8698C58.9017 21.6736 56.3252 25.0153 53.5908 25.0153C53.2719 25.0153 52.953 24.9695 52.6433 24.8787C51.6263 24.582 50.8977 23.9892 50.4796 23.1163C49.7967 21.6935 49.9623 19.5282 50.9335 17.1769L50.5765 17.0182C48.3128 21.7652 45.9042 24.0723 43.2133 24.0723C42.9089 24.0723 42.5999 24.041 42.2871 23.9792V35.9544C42.2871 48.8503 51.2105 55.8137 62.2182 55.8137H68.0928C77.3359 55.8137 85.1064 49.5454 87.3624 41.0439C87.6058 41.0813 87.8538 41.1027 88.1055 41.1027C91.5189 41.1027 94.2861 37.5771 94.2861 33.2291C94.2861 28.8811 91.5189 25.3563 88.1055 25.3563Z" fill="#FFD5B3"/>
<path d="M48.2655 35.9543V22.5807C48.2655 22.1153 48.2831 21.6545 48.3143 21.1975C46.7419 23.217 44.7506 24.6391 42.2871 24.176V35.9543C42.2871 48.8511 51.2105 55.8137 62.2182 55.8137H68.0928C68.1043 55.8137 68.115 55.8137 68.1264 55.8129C57.1515 55.7831 48.2655 48.8236 48.2655 35.9543Z" fill="#E5BFA1"/>
<path d="M62.1015 49.511C58.4036 49.511 55.3945 46.5295 55.3945 42.8651C55.3945 42.1746 55.9591 41.6154 56.6557 41.6154H67.5482C68.2447 41.6154 68.8093 42.1746 68.8093 42.8651C68.8093 46.5295 65.8003 49.511 62.1015 49.511Z" fill="#FB8276"/>
<path d="M61.4141 42.8651C61.4141 42.1746 61.9787 41.6154 62.6753 41.6154H56.6557C55.9591 41.6154 55.3945 42.1746 55.3945 42.8651C55.3945 46.5295 58.4036 49.511 62.1023 49.511C63.1842 49.511 64.2057 49.2539 65.1121 48.8015C62.9209 47.7067 61.4141 45.4575 61.4141 42.8651Z" fill="#E1756A"/>
<path d="M67.7058 1.26953H61.3505C49.4426 1.26953 39.7891 10.8879 39.7891 22.7517V23.0736C40.1866 23.378 40.6527 23.6443 41.2028 23.8617C45.7713 25.6722 48.8581 21.0755 50.7533 17.1021C49.3418 20.5193 49.3891 24.1318 52.5889 25.0664C55.6758 25.9682 58.6398 22.4915 60.7493 18.9705C60.0268 21.4325 60.1863 24.0464 63.4219 25.0664C70.2319 27.2133 74.2557 17.1021 74.2557 17.1021C74.2557 17.1021 77.9704 25.9865 86.6374 22.9195C87.7597 22.5228 88.5891 21.8407 89.1864 20.958C88.2709 9.93425 79.0065 1.26953 67.7058 1.26953Z" fill="#F7931E"/>
<path d="M45.7438 23.0736V22.7517C45.7438 10.8879 55.3965 1.26953 67.3045 1.26953H61.3498C49.4418 1.26953 39.7891 10.8879 39.7891 22.7517V23.0736C40.1858 23.378 40.6519 23.6443 41.202 23.8617C43.0827 24.6071 44.7123 24.2646 46.1116 23.3284C45.9834 23.2468 45.8598 23.1621 45.7438 23.0736Z" fill="#DE841B"/>
<path d="M36.1587 51.8503V50.4243C36.1587 48.9061 34.9166 47.6747 33.3838 47.6747H25.3119C23.7792 47.6747 22.5371 48.9061 22.5371 50.4243V51.8503H36.1587Z" fill="#89C947"/>
<path d="M28.5903 51.8503V50.4243C28.5903 48.9061 29.8331 47.6747 31.3651 47.6747H25.3119C23.7792 47.6747 22.5371 48.9061 22.5371 50.4243V51.8503H28.5903Z" fill="#7BB540"/>
<path d="M41.0761 73.8458C41.0761 74.5325 40.5085 75.0955 39.815 75.0955H18.8783C18.1841 75.0955 17.6172 74.5325 17.6172 73.8458V53.0999C17.6172 52.4125 18.1841 51.8502 18.8783 51.8502H39.815C40.5085 51.8502 41.0761 52.4133 41.0761 53.0999V73.8458Z" fill="#D5E962"/>
<path d="M23.6559 73.8458V64.9858L22.4756 63.8513C21.8767 63.2775 21.6577 62.3979 21.9171 61.6105C22.1765 60.8277 22.8418 60.2685 23.6559 60.1419V53.0999C23.6559 52.4125 24.2235 51.8502 24.917 51.8502H18.8783C18.1841 51.8502 17.6172 52.4125 17.6172 53.0999V73.8458C17.6172 74.5325 18.1841 75.0947 18.8783 75.0947H24.917C24.2235 75.0955 23.6559 74.5325 23.6559 73.8458Z" fill="#BFD158"/>
<path d="M32.6566 69.201C32.5422 69.201 32.4277 69.1743 32.3225 69.1194L29.347 67.5775L26.3715 69.1194C26.2662 69.1743 26.1518 69.201 26.0373 69.201C25.8878 69.201 25.7406 69.1553 25.6154 69.0652C25.3942 68.9073 25.2836 68.6388 25.3301 68.3733L25.8977 65.1071L23.4906 62.7946C23.2946 62.6069 23.2244 62.3254 23.3083 62.0698C23.3938 61.8135 23.6181 61.6258 23.8881 61.5869L27.2153 61.1108L28.7031 58.1399C28.8236 57.8981 29.0739 57.7455 29.347 57.7455C29.6201 57.7455 29.8696 57.8981 29.9909 58.1399L31.4794 61.1108L34.8058 61.5869C35.0759 61.6258 35.301 61.8135 35.3849 62.0698C35.4696 62.3254 35.3994 62.6069 35.2033 62.7946L32.7962 65.1071L33.3646 68.3733C33.4112 68.6388 33.2998 68.9073 33.0793 69.0652C32.9534 69.1553 32.8054 69.201 32.6566 69.201Z" fill="#89C947"/>
<path d="M29.2214 97.0903C29.2214 97.7777 28.6538 98.34 27.9595 98.34H7.02286C6.32935 98.34 5.76172 97.7777 5.76172 97.0903V76.3452C5.76172 75.6577 6.32935 75.0955 7.02286 75.0955H27.9595C28.6538 75.0955 29.2214 75.6577 29.2214 76.3452V97.0903Z" fill="#FB8276"/>
<path d="M11.7424 97.0903V88.7536L10.8048 87.8366C9.90601 86.9569 9.41087 85.785 9.41163 84.5353C9.41163 83.2856 9.90601 82.1138 10.8048 81.2348C11.0901 80.9564 11.4052 80.7183 11.7424 80.5223V76.3452C11.7424 75.6577 12.31 75.0955 13.0036 75.0955H7.02286C6.32935 75.0955 5.76172 75.6577 5.76172 76.3452V97.0903C5.76172 97.7777 6.32935 98.34 7.02286 98.34H13.0036C12.31 98.34 11.7424 97.7777 11.7424 97.0903Z" fill="#E1756A"/>
<path d="M17.492 92.0863C17.3349 92.0863 17.1838 92.0252 17.0732 91.9169L11.8302 86.7892C10.5592 85.5463 10.5592 83.5245 11.8302 82.2817C12.4452 81.6805 13.2638 81.3486 14.1336 81.3486C15.0041 81.3486 15.822 81.6805 16.4376 82.2825L17.492 83.3132L18.5464 82.2825C19.1613 81.6805 19.98 81.3486 20.8505 81.3486C21.7203 81.3486 22.5381 81.6805 23.1538 82.2817C24.4249 83.5245 24.4249 85.5463 23.1538 86.7892L17.9109 91.9169C17.7995 92.0252 17.6492 92.0863 17.492 92.0863Z" fill="#EF5050"/>
<path d="M48.0364 79.8822L43.1818 79.3939C42.3601 79.3115 41.7619 78.5783 41.8443 77.7566L41.8848 77.3507C41.9672 76.529 42.7003 75.9301 43.522 76.0125L47.0285 76.3658L47.0552 76.1048L42.7751 75.6738C42.3479 75.631 41.9824 75.4113 41.7398 75.0955H30.4818C29.7883 75.0955 29.2207 75.6577 29.2207 76.3452V97.0903C29.2207 97.7777 29.7883 98.34 30.4818 98.34H51.4192C52.1127 98.34 52.6804 97.7777 52.6804 97.0903V78.1144C51.555 79.355 49.856 80.0653 48.0364 79.8822Z" fill="#FFC502"/>
<path d="M35.1793 97.0903V90.3268L34.1371 88.5377C33.5222 87.4833 33.5222 85.9529 34.1371 84.8977L35.1793 83.1086V76.3452C35.1793 75.6577 35.7469 75.0955 36.4404 75.0955H30.4818C29.7876 75.0955 29.2207 75.6577 29.2207 76.3452V97.0903C29.2207 97.7777 29.7876 98.34 30.4818 98.34H36.4404C35.7469 98.34 35.1793 97.7777 35.1793 97.0903Z" fill="#E5B102"/>
<path d="M39.1223 92.0191C38.4288 92.0191 37.5773 91.5323 37.2302 90.9372L35.4029 87.8C35.0558 87.2049 35.0558 86.2307 35.4029 85.6356L37.2302 82.4984C37.5773 81.9033 38.4288 81.4165 39.1223 81.4165H42.7783C43.4718 81.4165 44.3232 81.9033 44.6696 82.4984L46.4976 85.6356C46.8448 86.2307 46.8448 87.2049 46.4976 87.8L44.6696 90.9372C44.3232 91.5323 43.4718 92.0191 42.7783 92.0191H39.1223Z" fill="#FCDB67"/>
<path d="M76.6795 62.333C74.7141 61.3839 72.3391 62.1957 71.374 64.1481C68.075 70.8223 60.5356 74.0999 53.5555 72.3405C53.9469 73.176 54.1254 74.1197 54.027 75.0986C53.908 76.2827 53.4014 77.3355 52.6445 78.1526C52.6567 78.1397 52.6697 78.1274 52.6812 78.1145V80.2095C62.9061 82.2672 73.6819 77.3172 78.4907 67.5874C79.455 65.6351 78.6448 63.2829 76.6795 62.333Z" fill="#A2F9F9"/>
<path d="M41.8439 77.7566L41.8843 77.3508C41.9675 76.5291 42.7007 75.9302 43.5224 76.0126L47.0281 76.3658L47.0548 76.1049L42.7755 75.6738C41.9538 75.5914 41.3549 74.8582 41.4373 74.0365L41.4785 73.6314C41.5609 72.8097 42.294 72.2108 43.1157 72.2932L47.3951 72.7235L47.421 72.4626L43.9145 72.1101C43.0928 72.0277 42.4939 71.2945 42.5763 70.4728L42.6175 70.067C42.6999 69.2453 43.4331 68.6464 44.2548 68.7288L48.229 69.1285L48.2381 69.1293L48.0932 68.7455C47.7781 67.9117 48.1992 66.9809 49.0323 66.6658L49.4436 66.5101C50.2775 66.1958 51.2083 66.6162 51.5233 67.4501L53.0828 71.5265C53.7923 72.5374 54.157 73.7863 54.0258 75.0986C53.729 78.0435 51.0473 80.1851 48.0352 79.8814L43.1813 79.3932C42.3604 79.3115 41.7615 78.5783 41.8439 77.7566Z" fill="#FFD5B3"/>
<path d="M88.4424 42.5584C92.5028 42.3432 95.7514 38.2409 95.7514 33.2299C95.7514 28.6584 93.0475 24.8436 89.4914 24.0448V22.8524C89.8256 22.5319 90.13 22.1764 90.3993 21.7789C90.5863 21.5027 90.6732 21.1701 90.6458 20.8367C90.1704 15.1177 87.5742 9.81371 83.333 5.90287C79.0689 1.97068 73.5193 -0.195312 67.7057 -0.195312H61.3504C48.6535 -0.195312 38.324 10.099 38.324 22.7517V23.0736C38.324 23.5283 38.5361 23.9579 38.8978 24.2356C39.4135 24.6315 40.0079 24.9642 40.6625 25.2236C40.7159 25.245 40.7693 25.261 40.8227 25.2808V35.9544C40.8227 42.4821 43.0032 47.9592 47.1276 51.7938C48.3292 52.9107 49.6865 53.8682 51.1666 54.6571C50.5418 55.2735 49.9696 55.935 49.4538 56.6377C47.6395 57.3884 45.6742 57.7836 43.6448 57.7836C43.2748 57.7836 42.907 57.7676 42.5416 57.7401V53.0999C42.5416 51.603 41.3186 50.3854 39.8156 50.3854H37.6214C37.6008 48.0798 35.7079 46.2098 33.3832 46.2098H25.3113C22.9866 46.2098 21.093 48.0798 21.0724 50.3854H18.879C17.3752 50.3854 16.153 51.603 16.153 53.0999V73.6307H7.02286C5.51987 73.6307 4.29688 74.8483 4.29688 76.3452V97.0903C4.29688 98.5872 5.51987 99.8049 7.02286 99.8049H60.0808C60.1922 99.8049 60.3013 99.7919 60.4066 99.7675C61.5815 99.6409 62.6451 99.1533 63.4866 98.4224C64.3274 99.1518 65.3886 99.6393 66.562 99.7667C66.6681 99.7919 66.7794 99.8041 66.8931 99.8041H83.7434C87.581 99.8041 90.703 96.7051 90.703 92.8949C90.703 89.467 88.1746 86.6159 84.8726 86.0788V83.2025C84.8726 82.3938 84.2172 81.7377 83.4077 81.7377C82.5983 81.7377 81.9429 82.3938 81.9429 83.2025V85.9865H72.4511C71.6546 83.8358 69.5771 82.3366 67.1762 82.3366C65.7647 82.3366 64.4746 82.8569 63.4858 83.7129C62.4978 82.8569 61.2077 82.3366 59.797 82.3366C57.396 82.3366 55.3186 83.8358 54.522 85.9865H54.1444V81.9315C55.1972 82.0665 56.2516 82.1352 57.303 82.1352C66.546 82.1352 75.4617 77.0174 79.8021 68.2352C80.4422 66.9397 80.5376 65.4756 80.0691 64.113C79.5999 62.7458 78.6218 61.6449 77.3149 61.0132C74.6324 59.7177 71.3777 60.8323 70.0593 63.4988C68.8035 66.0394 66.8275 68.1192 64.3457 69.5131C63.6399 69.909 63.3889 70.8024 63.7849 71.5074C64.1816 72.2131 65.0743 72.4641 65.78 72.0682C68.7791 70.3836 71.1671 67.8697 72.6861 64.7966C73.2942 63.5652 74.7995 63.0525 76.04 63.6514C76.6382 63.9398 77.0845 64.4418 77.2981 65.0644C77.5102 65.6824 77.4667 66.3476 77.1753 66.9374C72.8494 75.6906 63.3737 80.3087 54.1444 78.9674V78.6516C54.8745 77.6888 55.3536 76.5253 55.4826 75.2451C55.5192 74.8857 55.5245 74.5264 55.5024 74.1701C56.5026 74.2799 57.5128 74.3043 58.5221 74.2357C59.3293 74.18 59.9382 73.4804 59.8832 72.6732C59.8275 71.866 59.1287 71.2602 58.3207 71.3121C57.0443 71.4006 55.7656 71.3075 54.5205 71.0512C54.4778 70.9817 54.4343 70.9123 54.3893 70.8436L52.8932 66.932C52.443 65.7411 51.2864 64.9415 50.0138 64.9415C49.7643 64.9415 49.5179 64.9743 49.2761 65.0339C49.6522 61.3191 51.3703 58.1804 54.0666 55.9289C55.3819 56.3935 56.7658 56.7414 58.2017 56.968C58.8159 59.7345 61.3038 61.812 64.2717 61.812C67.1701 61.812 69.6107 59.8314 70.2958 57.1618C72.5061 56.9345 74.6309 56.3691 76.6107 55.5116C79.9608 58.0445 81.9421 61.8516 81.9421 66.4064V76.3673C81.9421 77.1761 82.5983 77.8322 83.407 77.8322C84.2165 77.8322 84.8718 77.1761 84.8718 76.3673V66.4064C84.8718 61.4419 82.9919 57.1733 79.4305 54.0338C83.6069 51.4329 86.857 47.4198 88.4424 42.5584ZM64.4845 87.9206C64.4845 86.4572 65.6923 85.2663 67.1769 85.2663C68.5472 85.2663 69.6962 86.2779 69.8503 87.6184C69.9357 88.3585 70.5613 88.9162 71.3052 88.9162H83.7434C85.9659 88.9162 87.7733 90.7015 87.7733 92.8957C87.7733 95.0899 85.9659 96.8752 83.7434 96.8752H67.0953C67.061 96.8706 67.0266 96.8668 66.9915 96.8645C65.5854 96.7707 64.4845 95.6087 64.4845 94.2209V87.9206ZM54.1451 88.9162H55.6687C56.4134 88.9162 57.039 88.3585 57.1237 87.6184C57.2778 86.2779 58.4275 85.2663 59.7978 85.2663C60.6103 85.2663 61.3389 85.6249 61.8333 86.1887C61.6532 86.7342 61.5548 87.3163 61.5548 87.9206V94.2209C61.5548 94.8221 61.6532 95.4027 61.8333 95.9475C61.3778 96.467 60.724 96.8149 59.9824 96.8645C59.9473 96.8668 59.913 96.8706 59.8786 96.8752H54.1451V88.9162ZM42.5416 60.6775C42.9078 60.6996 43.2755 60.7133 43.6448 60.7133C44.9334 60.7133 46.1984 60.5752 47.4282 60.3151C46.7439 62.063 46.3456 63.9665 46.2792 65.9883C45.411 66.0837 44.5321 66.1325 43.6448 66.1325C43.2755 66.1325 42.9078 66.1218 42.5416 66.1043V60.6775ZM42.7789 82.8813C42.9497 82.8813 43.3182 83.0896 43.4045 83.2353L45.2325 86.3726C45.3141 86.5145 45.3141 86.9203 45.2325 87.063L43.4045 90.1995C43.3182 90.3452 42.9497 90.5542 42.7789 90.5542H39.1228C38.9512 90.5542 38.5827 90.3452 38.4965 90.1995L36.6685 87.0622C36.5868 86.9203 36.5868 86.5145 36.6685 86.3726L38.4965 83.2353C38.5827 83.0896 38.9512 82.8806 39.1228 82.8806H42.7789V82.8813ZM25.3113 49.1395H33.3832C34.092 49.1395 34.6703 49.6949 34.6909 50.3854H24.0036C24.0242 49.6949 24.6018 49.1395 25.3113 49.1395ZM19.0827 53.3151H39.6119V73.6307H19.0827V53.3151ZM27.7565 96.8752H7.22657V76.5604H27.7565V96.8752ZM51.2155 96.8752H30.6862V76.5604H40.5678C40.4992 76.7656 40.4496 76.98 40.4275 77.2035L40.3863 77.6102C40.297 78.5051 40.6182 79.3474 41.1965 79.9509H39.1228C37.9044 79.9509 36.5761 80.7123 35.965 81.7606L34.1378 84.8978C33.5229 85.9522 33.5229 87.4834 34.1378 88.5378L35.965 91.675C36.5769 92.7233 37.9044 93.4847 39.1228 93.4847H42.7789C43.9973 93.4847 45.3256 92.7233 45.9359 91.6742L47.7639 88.5378C48.3781 87.4834 48.3781 85.9529 47.7639 84.8978L45.9367 81.7606C45.7955 81.5202 45.6162 81.2952 45.4102 81.0899L47.889 81.3394C48.1263 81.3631 48.3666 81.3753 48.6039 81.3753C49.5271 81.3753 50.409 81.1983 51.2155 80.8763V96.8752ZM49.4088 70.0105C49.7109 69.61 49.7865 69.082 49.6095 68.612L49.4637 68.2283C49.4492 68.1901 49.4508 68.152 49.4676 68.1146C49.4843 68.078 49.5126 68.0513 49.5515 68.0368L49.9612 67.8819C49.9795 67.875 49.997 67.8712 50.0146 67.8712C50.0245 67.8712 50.1176 67.8743 50.1557 67.9735L51.7152 72.0499C51.7579 72.1635 51.8151 72.2703 51.8846 72.3695C52.4171 73.1264 52.6597 74.0442 52.5689 74.9521C52.3683 76.9441 50.6638 78.4464 48.6039 78.4464C48.4643 78.4464 48.3231 78.4387 48.1828 78.425L43.3289 77.9367C43.3121 77.9352 43.2999 77.9199 43.3015 77.9039L43.3427 77.498C43.345 77.4759 43.3656 77.4706 43.3755 77.4706H43.3762L46.8819 77.823C47.6853 77.9062 48.4048 77.318 48.4864 76.5131L48.5124 76.2529C48.552 75.8661 48.4353 75.4793 48.1896 75.1787C47.944 74.8773 47.5884 74.6866 47.2016 74.6477L42.9223 74.2166C42.9086 74.2151 42.8941 74.1975 42.8956 74.1838L42.936 73.7779C42.9383 73.7558 42.9604 73.7527 42.9696 73.7505L47.2489 74.1815C47.6357 74.2197 48.0218 74.1037 48.3231 73.858C48.6237 73.6124 48.8145 73.2568 48.8534 72.8708L48.8793 72.6099C48.9602 71.805 48.3735 71.0863 47.5686 71.0054L44.0621 70.6529C44.0476 70.6514 44.0331 70.6338 44.0347 70.6193L44.0759 70.2135C44.0781 70.1913 44.1003 70.189 44.1087 70.1868L48.0828 70.5865C48.0927 70.5873 48.111 70.5888 48.1202 70.5903C48.6215 70.6315 49.1074 70.4118 49.4088 70.0105ZM64.2724 58.8823C63.0609 58.8823 62.0027 58.2315 61.4335 57.2663C61.6944 57.274 61.9554 57.2786 62.2186 57.2786H67.1037C66.533 58.2376 65.4786 58.8823 64.2724 58.8823ZM68.094 54.3489H62.2186C51.0011 54.3489 43.7524 47.1292 43.7524 35.9544V25.7035C45.2271 25.5738 46.6485 24.9184 47.9592 23.7404C48.2018 23.523 48.4399 23.2888 48.6756 23.0362C48.7588 23.3147 48.8618 23.5817 48.9831 23.835C49.6056 25.132 50.7104 26.0445 52.1783 26.4725C54.5625 27.1699 56.9711 26.146 59.3644 23.4261C59.9633 24.8505 61.1856 25.8973 62.9815 26.4641C63.7696 26.7121 64.5509 26.8357 65.323 26.8349C67.8865 26.8349 70.3409 25.4761 72.5244 22.8196C73.2652 21.9178 73.8786 20.9816 74.3585 20.1569C74.9772 21.0099 75.802 21.9582 76.848 22.7883C77.482 23.2903 78.4036 23.1842 78.9064 22.5502C79.4092 21.9162 79.3024 20.9954 78.6684 20.4926C76.6107 18.8607 75.6151 16.5566 75.6074 16.5375C75.3793 15.992 74.846 15.6372 74.2555 15.6372C74.2517 15.6372 74.2471 15.6372 74.2433 15.6372C73.6482 15.6426 73.1149 16.008 72.8944 16.5604C72.8593 16.6489 69.3101 25.3876 63.8627 23.6695C62.5199 23.246 61.268 22.406 62.1553 19.3833C62.3628 18.676 62.0126 17.9245 61.3366 17.6293C60.6622 17.3333 59.8718 17.5858 59.4926 18.2183C57.1145 22.1871 54.7502 24.173 52.9992 23.6611C52.3248 23.4635 51.8884 23.1163 51.6244 22.5678C51.1048 21.4852 51.2856 19.6511 52.1073 17.6621C52.4102 16.9281 52.0738 16.0866 51.3482 15.7639C50.6242 15.4419 49.7727 15.7547 49.4309 16.4719C45.7909 24.1044 42.7438 22.8966 41.742 22.4999C41.5726 22.4328 41.4124 22.3587 41.2598 22.2786C41.5131 11.4594 50.4281 2.73438 61.3504 2.73438H67.7057C77.8909 2.73438 86.5549 10.5049 87.6726 20.5262C87.2652 20.9885 86.7632 21.3211 86.1482 21.5386C85.5417 21.7537 84.9428 21.9086 84.366 21.9994C83.5672 22.1253 83.0217 22.8753 83.1476 23.6748C83.2742 24.4736 84.0234 25.0199 84.823 24.8932C85.3937 24.8024 85.9758 24.6666 86.5617 24.4866V25.3586C86.5617 25.7493 86.7174 26.1239 86.9943 26.3985C87.269 26.6709 87.6398 26.8235 88.0266 26.8235C88.0563 26.8242 88.0853 26.8227 88.1212 26.8212C90.7144 26.8326 92.8217 29.7028 92.8217 33.2299C92.8217 36.7631 90.706 39.6378 88.1059 39.6378C87.9389 39.6378 87.768 39.6249 87.5833 39.5966C86.8433 39.4837 86.1391 39.9461 85.9468 40.6686C83.8091 48.7237 76.468 54.3489 68.094 54.3489Z" fill="black"/>
<path d="M72.5938 30.3903C71.7843 30.3903 71.1289 31.0456 71.1289 31.8551V34.2576C71.1289 35.0671 71.7843 35.7225 72.5938 35.7225C73.4025 35.7225 74.0586 35.0671 74.0586 34.2576V31.8551C74.0586 31.0456 73.4025 30.3903 72.5938 30.3903Z" fill="black"/>
<path d="M50.9492 30.3903C50.1397 30.3903 49.4844 31.0456 49.4844 31.8551V34.2576C49.4844 35.0671 50.1397 35.7225 50.9492 35.7225C51.7579 35.7225 52.4141 35.0671 52.4141 34.2576V31.8551C52.4141 31.0456 51.7579 30.3903 50.9492 30.3903Z" fill="black"/>
<path d="M61.7694 37.8312H62.7193C63.5288 37.8312 64.1841 37.1751 64.1841 36.3664C64.1841 35.5569 63.5288 34.9015 62.7193 34.9015H62.2852V33.5427C62.2852 32.7332 61.629 32.0779 60.8203 32.0779C60.0108 32.0779 59.3555 32.7332 59.3555 33.5427V35.3898C59.3555 36.7356 60.4381 37.8312 61.7694 37.8312Z" fill="black"/>
<path d="M67.5482 40.1498H56.6557C55.1527 40.1498 53.9297 41.3674 53.9297 42.8643C53.9297 47.3367 57.5956 50.9751 62.1015 50.9751C66.6082 50.9751 70.2742 47.3367 70.2742 42.8643C70.2742 41.3682 69.0512 40.1498 67.5482 40.1498ZM62.1015 48.0462C59.284 48.0462 56.9776 45.8375 56.8632 43.0795H67.3407C67.2255 45.8375 64.9199 48.0462 62.1015 48.0462Z" fill="black"/>
<path d="M35.0136 60.1365L32.4463 59.7696L31.3019 57.4846C30.9303 56.7422 30.1819 56.2806 29.348 56.2806C28.5141 56.2806 27.7656 56.7422 27.3941 57.4838L26.2497 59.7696L23.6793 60.1373C22.8546 60.2563 22.1801 60.8201 21.9184 61.6105C21.6583 62.3971 21.878 63.2776 22.4762 63.8513L24.3217 65.6236L23.8876 68.1215C23.7449 68.9371 24.0898 69.7755 24.7589 70.2524C25.1327 70.5225 25.5752 70.6651 26.0376 70.6651C26.39 70.6651 26.741 70.5797 27.0462 70.4195L29.348 69.227L31.6421 70.4156C31.9534 70.5789 32.3044 70.6651 32.6576 70.6651C33.1207 70.6651 33.5632 70.5225 33.9309 70.257C34.6061 69.7748 34.951 68.9363 34.8083 68.1215L34.3742 65.6236L36.2182 63.8521C36.8172 63.2776 37.0369 62.3971 36.7767 61.6105C36.5173 60.8209 35.8421 60.2571 35.0136 60.1365ZM31.7825 64.0512C31.4308 64.3884 31.2706 64.8782 31.3545 65.3581L31.662 67.1266L30.0216 66.2767C29.8111 66.1668 29.5791 66.1127 29.348 66.1127C29.1168 66.1127 28.8856 66.1668 28.6743 66.2767L27.0347 67.1266L27.3422 65.3581C27.4253 64.8782 27.2651 64.3884 26.9134 64.0504L25.6294 62.8175L27.4238 62.5612C27.8991 62.4925 28.3104 62.1957 28.5255 61.7669L29.348 60.1251L30.1704 61.7669C30.3856 62.1965 30.7975 62.4933 31.2729 62.5612L33.0665 62.8175L31.7825 64.0512Z" fill="black"/>
<path d="M16.0482 92.9636C16.435 93.342 16.9477 93.5511 17.4917 93.5511C18.0349 93.5511 18.5476 93.3428 18.9351 92.9644L24.1781 87.8359C25.0768 86.957 25.572 85.7851 25.572 84.5354C25.572 83.2857 25.0768 82.1138 24.1781 81.2349C23.287 80.3636 22.1052 79.8845 20.8501 79.8845C19.5951 79.8845 18.4125 80.3644 17.5222 81.2349L17.4917 81.2647L17.4619 81.2349C16.5715 80.3644 15.389 79.8845 14.134 79.8845C12.8781 79.8845 11.6964 80.3636 10.806 81.2349C9.90726 82.1138 9.41211 83.2857 9.41211 84.5354C9.41211 85.7851 9.90726 86.957 10.806 87.8367L16.0482 92.9636ZM12.8537 83.3292C13.1932 82.9966 13.648 82.8135 14.1332 82.8135C14.6184 82.8135 15.0731 82.9966 15.4134 83.3292L16.467 84.3607C17.0362 84.9169 17.9464 84.9169 18.5155 84.3607L19.5699 83.33C19.9102 82.9973 20.3641 82.8135 20.8501 82.8135C21.3354 82.8135 21.7893 82.9966 22.1296 83.3292C22.4599 83.6519 22.6415 84.0807 22.6415 84.5354C22.6423 84.9901 22.4599 85.4189 22.1296 85.7416L17.4917 90.2773L12.8537 85.7416C12.5234 85.4189 12.341 84.9901 12.3418 84.5354C12.3418 84.0807 12.5234 83.6519 12.8537 83.3292Z" fill="black"/>
<path d="M87.9822 37.819C88.2172 37.819 88.456 37.7626 88.6772 37.6428C91.8061 35.9521 91.2941 32.4105 90.5869 30.774C90.2657 30.0317 89.4036 29.6891 88.6605 30.0111C87.9181 30.3323 87.5763 31.1944 87.8975 31.9367C87.938 32.0291 88.8604 34.2141 87.2841 35.0656C86.5723 35.4501 86.3076 36.3389 86.6921 37.0507C86.9568 37.5405 87.4611 37.819 87.9822 37.819Z" fill="black"/>
</g>
<defs>
<clipPath id="clip0_419_1511">
<rect width="100" height="100" fill="white"/>
</clipPath>
</defs>
</svg>
