<svg width="100" height="100" viewBox="0 0 100 100" fill="none" xmlns="http://www.w3.org/2000/svg">
<g clip-path="url(#clip0_430_788)">
<path d="M95.3074 22.8619C95.3227 24.6457 95.025 26.3842 94.4619 28.0164L94.46 28.0184C94.4428 28.0684 94.4252 28.1184 94.4074 28.1684C94.4074 28.1684 93.1717 29.9672 92.5611 30.9473C89.7344 35.4844 85.2133 37.8221 79.4295 37.7896C70.5596 37.7896 63.8535 31.7322 63.8535 22.8621C63.852 17.8246 66.4514 14.1305 69.2111 10.3303C69.7367 9.90781 70.2873 9.51836 70.8643 9.16367C73.3022 7.66426 76.1703 6.79785 79.2451 6.79785C88.117 6.79766 95.3074 13.99 95.3074 22.8619Z" fill="#FF7E7B"/>
<path d="M94.4078 28.168C92.2201 34.3234 86.2791 38.9641 79.2459 38.9242C70.376 38.9242 63.1836 31.7318 63.1836 22.8619C63.1816 17.823 65.5324 13.2855 69.2119 10.3301C68.6205 12.0021 68.302 13.7947 68.302 15.6582C68.302 24.5281 75.4943 31.7205 84.3643 31.7205C88.1729 31.7414 91.6629 30.3896 94.4078 28.168Z" fill="#F46969"/>
<path d="M69.1863 68.4562L31.2367 73.1158C27.4086 73.5859 23.6639 71.7515 21.6887 68.4388L15.8926 58.7179L22.2293 57.9398L26.7057 65.4472C27.4957 66.7722 28.9936 67.506 30.5248 67.3179L68.4744 62.6584C70.0057 62.4703 71.2814 61.3961 71.7275 59.9193L74.2549 51.5519L80.5916 50.7738L77.3193 61.6082C76.2041 65.3006 73.0145 67.9861 69.1863 68.4562Z" fill="#72706F"/>
<path d="M52.7758 75.708H46.9346L45.4742 81.8947L39.1465 86.7006L49.8551 88.7418L60.5639 86.7006L52.7758 75.708Z" fill="#686564"/>
<path d="M51.8022 75.7075L44.0141 86.7005L42.0381 88.0819L39.1465 86.7005L46.9346 75.7075H51.8022Z" fill="#5E5B5A"/>
<path d="M88.3076 51.6537H76.4041L71.1678 51.3607C67.4041 51.3607 64.4746 48.6025 64.4746 44.839L79.3592 43.7054L95.1223 44.839C95.1223 48.6027 92.0713 51.6537 88.3076 51.6537Z" fill="#DFEEF4"/>
<path d="M77.0158 51.6537H70.7853C67.0217 51.6537 63.9707 48.6027 63.9707 44.839L67.1557 43.7054L70.2012 44.839C70.2012 48.6027 73.2521 51.6537 77.0158 51.6537Z" fill="#CFE2E8"/>
<path d="M95.6092 44.839H70.2002L63.5812 44.3523C61.9684 44.3523 61.1074 43.5314 61.1074 41.9185C61.1074 40.3056 62.1332 39.4449 63.7463 39.4449L70.2002 38.9978H95.6092C97.2221 38.9978 98.5297 40.3054 98.5297 41.9183C98.5297 43.5316 97.2221 44.839 95.6092 44.839Z" fill="#F2FBFF"/>
<path d="M70.2004 38.998V44.8393H63.483C61.8709 44.8393 60.5625 43.5309 60.5625 41.9187C60.5625 41.1127 60.8897 40.3826 61.4191 39.8549C61.9469 39.3252 62.677 38.9982 63.483 38.9982H70.2004V38.998Z" fill="#DFEEF4"/>
<path d="M43.0391 68.2036L46.4348 57.644L46.1314 54.6854L48.525 44.2218C48.848 42.8099 50.8592 42.8099 51.1822 44.2218L53.5764 54.6872L53.1783 57.6073L56.6684 68.2034H43.0391V68.2036Z" fill="#DFEEF4"/>
<path d="M56.6684 68.2037H43.0391L46.1309 54.6853C47.3361 54.3543 48.5861 54.1849 49.8537 54.1849C51.1428 54.1849 52.3906 54.3601 53.5766 54.6873L56.6684 68.2037Z" fill="#CFE2E8"/>
<path d="M59.5902 68.2037C59.5902 70.1445 59.0217 71.9523 58.043 73.4708C58.043 73.4708 57.2166 74.2792 56.8127 74.7093C55.0367 76.6007 52.7812 77.032 49.982 77.032C44.6055 77.032 40.7188 73.5802 40.7188 68.2037C40.7188 64.7679 42.3281 62.031 44.5877 60.0152C46.1061 59.0365 47.9143 58.4685 49.8553 58.4685C55.2316 58.4683 59.5902 62.8269 59.5902 68.2037Z" fill="#F2FBFF"/>
<path d="M58.0422 73.4707C56.3094 76.1595 53.2889 77.9388 49.8543 77.9388C44.4785 77.9388 40.1191 73.5794 40.1191 68.2037C40.1191 64.7691 41.8988 61.7492 44.5875 60.0164C43.6082 61.5351 43.0396 63.3419 43.0396 65.2832C43.0396 70.6589 47.399 75.0183 52.7748 75.0183C54.7162 75.0183 56.5236 74.4501 58.0422 73.4707Z" fill="#DFEEF4"/>
<path d="M49.8551 72.0978C52.0058 72.0978 53.7492 70.3544 53.7492 68.2037C53.7492 66.053 52.0058 64.3096 49.8551 64.3096C47.7044 64.3096 45.9609 66.053 45.9609 68.2037C45.9609 70.3544 47.7044 72.0978 49.8551 72.0978Z" fill="#DFEEF4"/>
<path d="M76.3355 93.1258H28.8277L23.732 92.7275C23.302 92.7275 22.9531 92.3789 22.9531 91.9486L23.0447 90.6888C23.0447 88.5383 24.7881 86.7947 26.9389 86.7947L31.9232 86.7006H73.2201C75.3707 86.7006 77.1143 88.4439 77.1143 90.5947V92.347C77.1143 92.7771 76.7656 93.1258 76.3355 93.1258Z" fill="#72706F"/>
<path d="M32.7205 86.7006C30.5689 86.7006 28.8264 88.4431 28.8264 90.5947V93.1259H23.3746C22.9443 93.1259 22.5957 92.7775 22.5957 92.347V90.5947C22.5957 88.4431 24.3383 86.7006 26.4898 86.7006H32.7205Z" fill="#686564"/>
<path d="M29.2156 58.8578H17.3123L12.076 58.5648C8.3123 58.5648 5.38281 55.8066 5.38281 52.0431L20.2674 50.9095L36.0305 52.0431C36.0303 55.8068 32.9793 58.8578 29.2156 58.8578Z" fill="#DFEEF4"/>
<path d="M17.924 58.8578H11.6936C7.92988 58.8578 4.87891 55.8068 4.87891 52.0431L8.06387 50.9095L11.1094 52.0431C11.1094 55.8068 14.1604 58.8578 17.924 58.8578Z" fill="#CFE2E8"/>
<path d="M36.5174 52.0431H11.1084L4.48945 51.5564C2.87656 51.5564 2.01562 50.7355 2.01562 49.1226C2.01562 47.5097 3.04141 46.649 4.65449 46.649L11.1084 46.2019H36.5174C38.1303 46.2019 39.4379 47.5095 39.4379 49.1224C39.4379 50.7355 38.1303 52.0431 36.5174 52.0431Z" fill="#F2FBFF"/>
<path d="M11.1086 46.2021V52.0434H4.39121C2.7791 52.0434 1.4707 50.735 1.4707 49.1229C1.4707 48.3168 1.79785 47.5867 2.32734 47.059C2.85508 46.5293 3.58516 46.2023 4.39121 46.2023H11.1086V46.2021Z" fill="#DFEEF4"/>
<path d="M36.5174 30.1395C36.5326 31.9223 36.2344 33.66 35.6719 35.294C35.6719 35.294 33.7563 38.2038 32.6285 39.6303C29.6922 43.3446 25.5781 45.2319 20.4553 45.2028C11.5854 45.2028 5.43164 39.0053 5.43164 30.1354C5.43047 24.3788 8.37559 20.1797 12.074 16.4413C14.5115 14.9415 17.3801 14.0737 20.4549 14.0754C29.327 14.0752 36.5174 21.2676 36.5174 30.1395Z" fill="#BBF39B"/>
<path d="M35.6717 35.294C33.5277 41.5233 27.5447 46.2416 20.4549 46.2018C11.585 46.2018 4.39258 39.0094 4.39258 30.1395C4.39063 24.3822 7.45977 19.2789 12.074 16.441C11.5186 18.0656 11.2172 19.8059 11.2172 21.6088C11.2172 30.4787 18.4096 37.6711 27.2795 37.6711C30.36 37.6881 33.232 36.8067 35.6717 35.294Z" fill="#9AE59C"/>
<path d="M83.1107 22.7243L85.9294 19.9055C86.9302 18.9047 87.0224 17.2746 86.0701 16.228C85.0531 15.1102 83.321 15.0795 82.2648 16.1358L79.3935 19.0071C79.3175 19.083 79.1941 19.083 79.1181 19.0071L76.2992 16.1881C75.2984 15.1873 73.6681 15.0954 72.6214 16.0481C71.504 17.0653 71.4734 18.7967 72.5296 19.853L75.4009 22.7243C75.4769 22.8002 75.4769 22.9237 75.4009 22.9997L72.5849 25.8157C72.4619 25.9387 72.3529 26.0719 72.2579 26.2129C72.0712 27.3118 71.7466 28.4329 72.6466 29.3325C73.1597 29.8454 73.8324 30.102 74.5048 30.102C75.1775 30.102 75.5546 30.0643 76.0679 29.551L76.2892 29.5461L79.1183 26.717C79.1943 26.6411 79.3177 26.6411 79.3937 26.717L82.265 29.5883C82.7783 30.1016 83.4509 30.3582 84.1236 30.3582C84.796 30.3582 85.4687 30.1016 85.9818 29.5887C87.0048 28.5661 86.9497 26.8385 85.9269 25.8157L83.1109 22.9997C83.0347 22.9235 83.0347 22.8002 83.1107 22.7243Z" fill="#F2FBFF"/>
<path d="M76.2892 29.5461L76.2474 29.5879C75.7338 30.1016 75.0607 30.3576 74.3877 30.3576C73.7146 30.3576 73.0435 30.1018 72.5298 29.5879C71.6295 28.6893 71.563 27.2448 72.2588 26.2135C73.4078 27.5311 74.7689 28.659 76.2892 29.5461Z" fill="#DFEEF4"/>
<path d="M18.2496 37.7894C17.5799 37.7894 17.0393 37.4623 16.5635 36.9865L11.3715 31.848C10.383 30.8596 10.0887 29.4644 11.0772 28.476C11.5223 28.031 11.6955 27.4051 12.2774 27.3607C12.9879 27.3066 13.717 27.5514 14.2604 28.0947L17.993 31.8273C18.0739 31.9082 18.2069 31.9023 18.2801 31.8144L24.9358 23.8439C25.8321 22.7709 27.428 22.6277 28.501 23.5234C29.5741 24.4193 29.7176 26.0156 28.8215 27.0887L21.0356 36.4129L20.2961 36.8193C19.8405 37.3648 19.0731 37.7553 18.3631 37.7873C18.3254 37.7887 18.2875 37.7894 18.2496 37.7894Z" fill="#F2FBFF"/>
<path d="M21.0358 36.4123L20.2547 37.3469C19.7999 37.8928 19.1362 38.2227 18.4254 38.2549C18.3875 38.2549 18.3497 38.2568 18.3118 38.2568C17.6426 38.2568 16.9981 37.9914 16.5223 37.5156L10.6817 31.675C9.69204 30.6855 9.69204 29.0836 10.6817 28.0939C11.1272 27.6484 11.6959 27.4039 12.2778 27.3604C13.8417 31.4398 17.0225 34.7176 21.0358 36.4123Z" fill="#DFEEF4"/>
<path d="M100 42.0166C100 39.5936 98.0287 37.6221 95.6055 37.6221H89.1973C93.9385 34.4703 97.0703 29.0812 97.0703 22.9736C97.0703 19.4377 96.0244 16.0277 94.0457 13.1127C93.5914 12.4432 92.6803 12.2687 92.0109 12.7234C91.3416 13.1777 91.1674 14.0887 91.6217 14.758C93.2697 17.1855 94.1406 20.0266 94.1406 22.9736C94.1406 31.0508 87.5693 37.6221 79.4922 37.6221C71.415 37.6221 64.8438 31.0508 64.8438 22.9736C64.8438 14.8965 71.415 8.3252 79.4922 8.3252C82.199 8.3252 84.8428 9.06894 87.1371 10.4756C87.8271 10.8986 88.7289 10.6824 89.1516 9.99238C89.5744 9.30273 89.3582 8.40098 88.6684 7.97812C85.9129 6.28867 82.7396 5.39551 79.492 5.39551C69.7994 5.39551 61.9139 13.2811 61.9139 22.9736C61.9139 29.0812 65.0455 34.4703 69.7869 37.6221H63.3789C60.9557 37.6221 58.9844 39.5936 58.9844 42.0166C58.9844 44.1455 60.5062 45.9252 62.5191 46.3262C63.1785 50.2484 66.5963 53.2471 70.7031 53.2471H72.4941L70.5381 59.7234C70.2586 60.6488 69.458 61.3228 68.4984 61.4406L59.7164 62.5189C58.8453 61.0189 57.6385 59.7377 56.1975 58.7801L52.7605 43.7559C52.4594 42.4398 51.35 41.5553 49.9998 41.5553C48.6496 41.5553 47.5402 42.4396 47.2391 43.7559L43.8021 58.7801C41.6074 60.2383 39.9545 62.4469 39.2086 65.0369L30.4303 66.1148C29.4703 66.2322 28.5307 65.7721 28.0357 64.942L25.3713 60.4734H29.2969C33.4037 60.4734 36.8215 57.4748 37.4809 53.5525C39.4937 53.1518 41.0156 51.3721 41.0156 49.2432C41.0156 46.8201 39.0443 44.8486 36.6211 44.8486H30.2129C34.9541 41.6969 38.0859 36.3078 38.0859 30.2002C38.0859 20.5076 30.2004 12.6221 20.5078 12.6221C17.1818 12.6221 13.9436 13.5557 11.1428 15.3219C10.4586 15.7535 10.2537 16.658 10.6852 17.3424C11.1166 18.0268 12.0209 18.2316 12.7057 17.8C15.0377 16.3293 17.7355 15.5518 20.5078 15.5518C28.585 15.5518 35.1562 22.123 35.1562 30.2002C35.1562 38.2773 28.585 44.8486 20.5078 44.8486C12.4307 44.8486 5.85938 38.2773 5.85938 30.2002C5.85938 27.307 6.70117 24.5096 8.29356 22.1105C8.74102 21.4367 8.55742 20.5275 7.8832 20.0801C7.20918 19.6328 6.3 19.8162 5.85273 20.4906C3.94043 23.3711 2.92969 26.7289 2.92969 30.2002C2.92969 36.3078 6.06133 41.6969 10.8027 44.8486H4.39453C1.97129 44.8486 0 46.8201 0 49.2432C0 51.3721 1.52187 53.1518 3.53477 53.5527C4.19414 57.475 7.61191 60.4736 11.7188 60.4736H15.1387L20.4869 69.4432C22.5281 72.8664 26.2119 74.9225 30.132 74.9225C30.5859 74.9225 31.0436 74.8949 31.5016 74.8387L40.2836 73.7604C41.1787 75.3018 42.4289 76.6109 43.9229 77.5762L38.5006 85.2295H26.5625C23.6008 85.2295 21.1914 87.6391 21.1914 90.6006V93.1396C21.1914 93.9488 21.8473 94.6045 22.6562 94.6045H77.3438C78.1527 94.6045 78.8086 93.9488 78.8086 93.1396V90.6006C78.8086 87.6391 76.3992 85.2295 73.4375 85.2295H61.4996L56.0773 77.5762C58.3314 76.1193 60.0318 73.8791 60.7912 71.2422L69.5697 70.1643C70.6664 70.0297 71.7342 69.7352 72.7428 69.2893C73.4828 68.9621 73.8174 68.0971 73.4902 67.357C73.1631 66.6172 72.2977 66.2826 71.5582 66.6098C70.8129 66.9395 70.0238 67.1568 69.2129 67.2564L61.2283 68.2369C61.2398 67.4857 61.141 66.4145 60.8744 65.3287L68.8557 64.3486C70.9666 64.0896 72.7279 62.6066 73.343 60.5707L75.5549 53.2471H78.6152L76.1475 61.4178C76.0145 61.8578 75.8439 62.2895 75.6404 62.7008C75.2816 63.4258 75.5787 64.3045 76.3037 64.6633C76.5125 64.7666 76.734 64.8156 76.9521 64.8156C77.4916 64.8156 78.0107 64.5164 78.2662 64C78.5416 63.4436 78.7723 62.8596 78.952 62.2647L81.6756 53.2469H88.2812C92.3881 53.2469 95.8059 50.2482 96.4652 46.326C98.4781 45.9252 100 44.1455 100 42.0166ZM50.0002 44.8264L52.8482 57.2762C51.9383 57.0375 50.984 56.9092 50 56.9092C49.0162 56.9092 48.0619 57.0373 47.152 57.2762L50.0002 44.8264ZM6.55234 53.6377H22.3195C23.1285 53.6377 23.7844 52.982 23.7844 52.1729C23.7844 51.3637 23.1285 50.708 22.3195 50.708H4.39453C3.58672 50.708 2.92969 50.051 2.92969 49.2432C2.92969 48.4354 3.58672 47.7783 4.39453 47.7783H36.6211C37.4289 47.7783 38.0859 48.4354 38.0859 49.2432C38.0859 50.051 37.4289 50.708 36.6211 50.708H29.168C28.359 50.708 27.7031 51.3637 27.7031 52.1729C27.7031 52.982 28.359 53.6377 29.168 53.6377H34.4633C33.8238 55.8893 31.7506 57.5439 29.2969 57.5439H11.7188C9.26504 57.5439 7.1918 55.8893 6.55234 53.6377ZM31.1443 71.9307C27.882 72.3314 24.6863 70.7658 23.0031 67.9428L18.5496 60.4736H21.9605L25.5195 66.4426C26.4957 68.0797 28.2576 69.0631 30.1326 69.0631C30.3496 69.0631 30.5684 69.05 30.7873 69.023L38.7719 68.0426C38.7603 68.7937 38.8592 69.865 39.1258 70.9508L31.1443 71.9307ZM75.8789 90.6006V91.6748H24.1211V90.6006C24.1211 89.2543 25.2162 88.1592 26.5625 88.1592H39.2541C39.2549 88.1592 39.2559 88.1594 39.2566 88.1594C39.2578 88.1594 39.2588 88.1592 39.26 88.1592H60.7402C60.7414 88.1592 60.7424 88.1594 60.7436 88.1594C60.7443 88.1594 60.7453 88.1592 60.7461 88.1592H73.4375C74.7838 88.1592 75.8789 89.2543 75.8789 90.6006ZM57.9092 85.2295H42.091L46.6131 78.8471C47.6824 79.1861 48.8201 79.3701 50.0002 79.3701C51.1803 79.3701 52.318 79.1861 53.3873 78.8471L57.9092 85.2295ZM50 76.4404C45.4229 76.4404 41.6992 72.7168 41.6992 68.1396C41.6992 63.5625 45.4229 59.8389 50 59.8389C54.5771 59.8389 58.3008 63.5625 58.3008 68.1396C58.3008 72.7168 54.5771 76.4404 50 76.4404ZM88.2812 50.3174H70.7031C68.2494 50.3174 66.1762 48.6627 65.5367 46.4111H93.4477C92.8082 48.6627 90.735 50.3174 88.2812 50.3174ZM95.6055 43.4814H63.3789C62.5711 43.4814 61.9141 42.8244 61.9141 42.0166C61.9141 41.2088 62.5711 40.5518 63.3789 40.5518H95.6055C96.4133 40.5518 97.0703 41.2088 97.0703 42.0166C97.0703 42.8244 96.4133 43.4814 95.6055 43.4814Z" fill="black"/>
<path d="M50 62.7686C47.0383 62.7686 44.6289 65.1781 44.6289 68.1396C44.6289 71.1012 47.0383 73.5107 50 73.5107C52.9617 73.5107 55.3711 71.1012 55.3711 68.1396C55.3711 65.1781 52.9617 62.7686 50 62.7686ZM50 70.5811C48.6537 70.5811 47.5586 69.4859 47.5586 68.1396C47.5586 66.7934 48.6537 65.6982 50 65.6982C51.3463 65.6982 52.4414 66.7934 52.4414 68.1396C52.4414 69.4859 51.3463 70.5811 50 70.5811Z" fill="black"/>
<path d="M87.2752 15.1904C85.676 13.5912 83.0739 13.5912 81.4749 15.1904L79.4922 17.1732L77.5096 15.1906C75.9106 13.5916 73.3084 13.5912 71.709 15.1908C70.11 16.79 70.11 19.3919 71.709 20.9912L73.6917 22.9736L71.709 24.9562C70.11 26.5554 70.11 29.1574 71.709 30.7566C72.4836 31.5312 73.5137 31.9578 74.6092 31.9578C75.7047 31.9578 76.7348 31.531 77.5094 30.7566L79.4922 28.774L81.4749 30.7566C82.2495 31.5312 83.2795 31.9578 84.3751 31.9578C85.4706 31.9578 86.5006 31.531 87.2754 30.7564C88.8745 29.1572 88.8745 26.5552 87.2754 24.956L85.2928 22.9736L87.2754 20.991C88.8745 19.3917 88.8745 16.7898 87.2752 15.1904ZM85.2038 18.9193L82.1854 21.9376C81.6133 22.5099 81.6133 23.4373 82.1854 24.0093L85.2038 27.0275C85.6606 27.4845 85.6606 28.2279 85.2038 28.6847C84.9825 28.9062 84.6881 29.0281 84.3751 29.0281C84.062 29.0281 83.7678 28.9062 83.5463 28.6847L80.528 25.6664C80.242 25.3804 79.867 25.2375 79.4922 25.2375C79.1174 25.2375 78.7424 25.3804 78.4565 25.6664L75.4381 28.6847C75.2168 28.9062 74.9225 29.0281 74.6094 29.0281C74.2963 29.0281 74.0022 28.9062 73.7809 28.6849C73.3241 28.2279 73.3241 27.4845 73.7809 27.0277L76.7993 24.0093C77.3713 23.4371 77.3713 22.5097 76.7993 21.9376L73.7809 18.9195C73.3241 18.4625 73.3241 17.7191 73.7809 17.2623C74.0022 17.0408 74.2965 16.9191 74.6096 16.9191C74.9227 16.9191 75.217 17.0408 75.4383 17.2623L78.4567 20.2806C79.0288 20.8525 79.9563 20.8525 80.5282 20.2806L83.5465 17.2623C83.7678 17.0408 84.0622 16.9191 84.3752 16.9191C84.6883 16.9191 84.9827 17.0408 85.2038 17.2621C85.6606 17.7191 85.6606 18.4625 85.2038 18.9193Z" fill="black"/>
<path d="M9.66877 32.776L15.5281 38.6353C16.2844 39.3914 17.2899 39.808 18.3592 39.808C18.4192 39.808 18.4793 39.8066 18.5389 39.8039C19.659 39.7535 20.7137 39.2308 21.4326 38.3703L30.0264 28.0789C30.7119 27.258 31.0367 26.2193 30.9408 25.1539C30.8451 24.0889 30.3403 23.1246 29.5192 22.4391C27.8248 21.025 25.2949 21.2525 23.8797 22.9463L18.0934 29.8758L15.3309 27.1133C13.7699 25.5523 11.2299 25.5525 9.66858 27.1135C8.10784 28.6746 8.10784 31.2148 9.66877 32.776ZM11.7403 29.1853C11.9498 28.976 12.2248 28.8713 12.5 28.8713C12.7752 28.8713 13.0502 28.976 13.2596 29.1853L17.1549 33.0807C17.4457 33.3713 17.8473 33.5267 18.2563 33.508C18.6672 33.4896 19.0514 33.2994 19.3151 32.9836L26.1283 24.8242C26.5078 24.3697 27.1869 24.3086 27.6416 24.6881C27.8617 24.8719 27.9973 25.1307 28.0231 25.4164C28.0487 25.7021 27.9617 25.9808 27.7778 26.201L19.184 36.4924C18.991 36.7234 18.7078 36.8637 18.4069 36.8773C18.1012 36.8926 17.8137 36.7775 17.5996 36.5637L11.7403 30.7045C11.3217 30.2855 11.3217 29.6039 11.7403 29.1853Z" fill="black"/>
</g>
<defs>
<clipPath id="clip0_430_788">
<rect width="100" height="100" fill="white"/>
</clipPath>
</defs>
</svg>
