<svg width="100" height="100" viewBox="0 0 100 100" fill="none" xmlns="http://www.w3.org/2000/svg">
<g clip-path="url(#clip0_562_2424)">
<path d="M77.2892 79.6005L72.2019 61.7254L43.0603 25.4751L3.63757 36.0385C2.07432 36.4574 1.14656 38.0642 1.56541 39.6274L16.3615 94.847L76.2528 81.3949C77.0347 81.1856 77.4986 80.3821 77.2892 79.6005Z" fill="#FFE07D"/>
<path d="M78.6677 79.3575L74.4087 63.4629L58.9875 21.2075L43.0598 25.4753C42.2928 28.1165 41.8802 30.9084 41.8802 33.7972C41.8802 49.8027 54.5023 62.8585 70.3353 63.5581L74.1628 77.8425C74.3722 78.6241 73.9084 79.4276 73.1268 79.637L16.3613 94.847L16.6626 95.9715C17.0814 97.5348 18.6882 98.4623 20.2515 98.0435L76.5956 82.9462C78.159 82.5275 79.0866 80.9207 78.6677 79.3575Z" fill="#FFC250"/>
<path d="M59.9819 20.9412L58.9883 21.2075L70.3361 63.5579C70.7795 63.5774 71.2249 63.5891 71.6731 63.5891C72.5958 63.5891 73.5081 63.545 74.4093 63.4627L63.5708 23.0132C63.152 21.4499 61.5451 20.5224 59.9819 20.9412Z" fill="#E9A52D"/>
<path d="M42.5183 40.6836L29.625 40.6834L30.3844 43.5176L45.6704 44.899L42.5183 40.6836Z" fill="#ACD980"/>
<path d="M42.5189 40.6836L43.0477 42.6571C43.1641 43.0913 42.8369 43.5178 42.3872 43.5178H30.3848L31.1422 46.3446H47.0693L45.5524 40.6836H42.5189Z" fill="#8CC951"/>
<path d="M29.9969 64.712C32.0811 63.7759 33.4234 61.4525 31.347 58.4285C30.7128 58.5346 30.0461 58.7171 29.419 59.0195C27.1935 60.0928 26.1989 61.8598 26.6889 63.688C26.774 64.0062 26.9153 64.2975 27.0999 64.5573C28.0702 65.2352 29.4704 64.9486 29.9969 64.712Z" fill="#ACD980"/>
<path d="M31.3467 58.4285C32.0965 61.2268 30.735 63.2105 28.6509 64.1465C28.1245 64.3831 27.5984 64.5147 27.0996 64.5571C27.9766 65.7898 29.862 66.2954 31.7003 65.4089C33.926 64.3356 35.3156 61.9184 34.3687 58.384C34.3687 58.384 32.9633 58.1584 31.3467 58.4285Z" fill="#8CC951"/>
<path d="M45.9246 64.712C48.0089 63.7759 49.3512 61.4525 47.2747 58.4285C46.6406 58.5346 45.9738 58.7171 45.3467 59.0195C43.1212 60.0928 42.1266 61.8598 42.6166 63.688C42.7018 64.0062 42.843 64.2975 43.0276 64.5573C43.998 65.2352 45.3981 64.9486 45.9246 64.712Z" fill="#ACD980"/>
<path d="M47.2744 58.4285C48.0242 61.2268 46.6628 63.2105 44.5787 64.1465C44.0522 64.3831 43.5261 64.5147 43.0273 64.5571C43.9043 65.7898 45.7897 66.2954 47.628 65.4089C49.8537 64.3356 51.2433 61.9184 50.2964 58.384C50.2964 58.384 48.891 58.1584 47.2744 58.4285Z" fill="#8CC951"/>
<path d="M67.3758 59.2914C59.8948 59.2914 52.3979 56.5513 46.263 50.4167C41.709 45.1846 38.9512 38.3481 38.9512 30.8668C38.9512 14.4129 52.2897 1.07466 68.7433 1.07466C76.2244 1.07466 83.0609 3.83273 88.2932 8.38653C94.529 14.6224 97.1679 22.0181 97.1679 29.4993C97.1679 45.953 83.8297 59.2914 67.3758 59.2914ZM68.7433 22.0444C63.8709 22.0444 59.9211 25.9944 59.9211 30.8666C59.9211 35.7388 63.8711 39.6888 68.7433 39.6888C73.6157 39.6888 77.5655 35.7388 77.5655 30.8666C77.5655 25.9944 73.6157 22.0444 68.7433 22.0444Z" fill="#738C96"/>
<path d="M88.2919 8.38653C92.8459 13.6186 95.6038 20.4552 95.6038 27.9364C95.6038 44.3901 82.2653 57.7286 65.8116 57.7286C58.3306 57.7286 51.494 54.9705 46.2617 50.4167C51.7237 56.692 59.7692 60.6589 68.742 60.6589C85.1956 60.6589 98.5341 47.3205 98.5341 30.8668C98.5341 21.894 94.5672 13.8484 88.2919 8.38653Z" fill="#607882"/>
<path d="M68.7428 27.9362C70.3612 27.9362 71.6732 29.2483 71.6732 30.8666C71.6732 32.485 70.3612 33.797 68.7428 33.797C67.1245 33.797 65.8125 32.485 65.8125 30.8666C65.8125 29.2483 67.1243 27.9362 68.7428 27.9362ZM77.8268 29.6947C77.8268 27.5111 76.6449 24.4909 74.6118 22.458C72.9487 21.295 70.9262 20.6105 68.7426 20.6105C63.0782 20.6105 58.4863 25.2024 58.4863 30.8668C58.4863 33.0503 59.1707 35.0729 60.3338 36.736C62.3091 38.7112 65.387 39.951 67.5705 39.951C73.2351 39.951 77.8268 35.3589 77.8268 29.6947Z" fill="#ACD980"/>
<path d="M74.6119 22.4578C75.7749 24.1209 76.4594 26.1434 76.4594 28.327C76.4594 33.9914 71.8675 38.5833 66.2031 38.5833C64.0196 38.5833 61.9971 37.8989 60.334 36.7358C62.1881 39.3872 65.2619 41.1229 68.7428 41.1229C74.4072 41.1229 78.9991 36.531 78.9991 30.8666C78.9989 27.3857 77.2633 24.3119 74.6119 22.4578Z" fill="#8CC951"/>
<path d="M35.5916 78.3375C35.7173 78.3375 35.8448 78.3213 35.9718 78.2871L52.9088 73.7489C53.6904 73.5397 54.1542 72.736 53.9448 71.9544C53.7355 71.1727 52.9322 70.7084 52.1502 70.9184L35.2132 75.4566C34.4316 75.6658 33.9678 76.4695 34.1772 77.2511C34.3527 77.9058 34.9446 78.3375 35.5916 78.3375Z" fill="black"/>
<path d="M76.4856 65.9422C76.2764 65.1606 75.4727 64.696 74.6911 64.9062C73.9094 65.1155 73.4456 65.9192 73.6551 66.7008L77.2528 80.1274C77.4616 80.9078 76.9969 81.7129 76.2166 81.9221L55.1488 87.5672C54.3671 87.7764 53.9034 88.5801 54.1128 89.3618C54.288 90.0164 54.8802 90.4481 55.527 90.4481C55.6526 90.4481 55.7802 90.4319 55.9072 90.3977L76.975 84.7527C79.3158 84.1254 80.71 81.7106 80.0829 79.3692L76.4856 65.9422Z" fill="black"/>
<path d="M91.67 32.7225C92.4793 32.7225 93.1352 32.0667 93.1352 31.2573C93.1352 17.8071 82.1926 6.86469 68.7425 6.86469C67.9332 6.86469 67.2773 7.52051 67.2773 8.32988C67.2773 9.13925 67.9332 9.79507 68.7425 9.79507C80.5769 9.79507 90.2048 19.4229 90.2048 31.2573C90.2048 32.0667 90.8608 32.7225 91.67 32.7225Z" fill="black"/>
<path d="M33.0347 83.9972C33.21 84.6519 33.8021 85.0836 34.4489 85.0836C34.5746 85.0836 34.7021 85.0674 34.8291 85.0332L57.2701 79.0203C58.0517 78.8111 58.5155 78.0073 58.3061 77.2257C58.0969 76.4441 57.2934 75.9795 56.5115 76.1897L34.0705 82.2027C33.2889 82.4121 32.8251 83.2156 33.0347 83.9972Z" fill="black"/>
<path d="M73.1388 31.2573C73.1388 28.8337 71.1668 26.8618 68.7432 26.8618C66.3196 26.8618 64.3477 28.8337 64.3477 31.2573C64.3477 33.6809 66.3196 35.6529 68.7432 35.6529C71.1668 35.6529 73.1388 33.6809 73.1388 31.2573ZM67.278 31.2573C67.278 30.4493 67.9352 29.7921 68.7432 29.7921C69.5512 29.7921 70.2084 30.4493 70.2084 31.2573C70.2084 32.0653 69.5512 32.7225 68.7432 32.7225C67.9352 32.7225 67.278 32.0653 67.278 31.2573Z" fill="black"/>
<path d="M49.5508 89.067L19.8726 97.0192C19.0923 97.2283 18.2874 96.7631 18.078 95.983L2.98072 39.639C2.87933 39.261 2.93149 38.8661 3.12704 38.5272C3.32279 38.1882 3.63868 37.9456 4.0167 37.8444L9.65943 36.3327C10.4411 36.1235 10.9048 35.32 10.6954 34.5384C10.4862 33.7565 9.6819 33.292 8.90105 33.5022L3.25832 35.0139C0.916952 35.6414 -0.477125 38.0566 0.150366 40.3975L15.2477 96.7416C15.7732 98.7032 17.5539 100 19.4944 100C19.8698 100 20.2516 99.9514 20.6309 99.8496L50.3092 91.8973C51.0908 91.6881 51.5546 90.8844 51.3452 90.1028C51.1359 89.3213 50.3324 88.8568 49.5508 89.067Z" fill="black"/>
<path d="M68.7424 52.7198C56.908 52.7198 47.28 43.0917 47.28 31.2573C47.28 30.448 46.6242 29.7921 45.8148 29.7921C45.0054 29.7921 44.3496 30.448 44.3496 31.2573C44.3496 44.7077 55.2922 55.6502 68.7424 55.6502C69.5518 55.6502 70.2076 54.9943 70.2076 54.185C70.2076 53.3756 69.5518 52.7198 68.7424 52.7198Z" fill="black"/>
<path d="M80.4645 31.2573C80.4645 24.7941 75.2062 19.5358 68.743 19.5358C64.843 19.5358 61.2098 21.4675 59.0241 24.7029C58.5713 25.3735 58.7475 26.2843 59.4181 26.7371C60.0886 27.1898 60.9994 27.0139 61.4524 26.3431C63.0922 23.9156 65.8177 22.4662 68.743 22.4662C73.5904 22.4662 77.5341 26.4099 77.5341 31.2573C77.5341 36.1047 73.5904 40.0484 68.743 40.0484C63.8956 40.0484 59.9519 36.1047 59.9519 31.2573C59.9519 30.448 59.296 29.7921 58.4867 29.7921C57.6773 29.7921 57.0215 30.448 57.0215 31.2573C57.0215 37.7206 62.2797 42.9788 68.743 42.9788C75.2062 42.9788 80.4645 37.7206 80.4645 31.2573Z" fill="black"/>
<path d="M68.7418 46.6058C60.2787 46.6058 53.3933 39.7204 53.3933 31.2573C53.3933 30.448 52.7374 29.7921 51.9281 29.7921C51.1187 29.7921 50.4629 30.448 50.4629 31.2573C50.4629 41.3364 58.6629 49.5362 68.7418 49.5362C69.5512 49.5362 70.207 48.8804 70.207 48.071C70.207 47.2617 69.5512 46.6058 68.7418 46.6058Z" fill="black"/>
<path d="M85.556 32.7225C86.3654 32.7225 87.0212 32.0667 87.0212 31.2573C87.0212 21.1784 78.8213 12.9786 68.7425 12.9786C67.9332 12.9786 67.2773 13.6344 67.2773 14.4438C67.2773 15.2532 67.9332 15.909 68.7425 15.909C77.2056 15.909 84.0909 22.7942 84.0909 31.2573C84.0909 32.0667 84.7469 32.7225 85.556 32.7225Z" fill="black"/>
<path d="M98.5355 29.7921C97.7261 29.7921 97.0703 30.448 97.0703 31.2573C97.0703 46.8768 84.3628 59.5843 68.7433 59.5843C53.1238 59.5843 40.4164 46.8768 40.4164 31.2573C40.4164 15.6378 53.1238 2.93037 68.7433 2.93037C82.2813 2.93037 93.9758 12.5602 96.5508 25.8279C96.705 26.6222 97.4741 27.1417 98.2682 26.9872C99.0625 26.833 99.5816 26.0641 99.4275 25.2698C96.5858 10.6273 83.6814 -7.62939e-06 68.7433 -7.62939e-06C53.4005 -7.62939e-06 40.6039 11.1124 37.9787 25.7109L14.4867 32.0055C13.705 32.2148 13.2413 33.0185 13.4507 33.8001C13.6599 34.5815 14.4632 35.0459 15.2452 34.8361L37.5774 28.8523C37.5167 29.6458 37.4858 30.4485 37.4858 31.2575C37.4858 34.1484 37.8806 36.9501 38.6187 39.6091H29.6263C29.1708 39.6091 28.7414 39.8209 28.464 40.1825C28.1867 40.5439 28.0934 41.0135 28.2112 41.4537L32.4403 57.237C31.3574 57.288 30.0176 57.4953 28.7828 58.0908C25.9343 59.4645 24.5896 61.9044 25.2738 64.4583C25.6026 65.6849 26.484 66.7063 27.6923 67.2601C29.1108 67.9102 30.804 67.8591 32.3371 67.1198C36.112 65.2993 36.5938 61.4234 35.7856 58.401C35.7852 58.3992 33.0525 48.2007 33.0525 48.2007H42.4864C43.9209 50.4159 45.6278 52.439 47.5593 54.2221L48.3673 57.237C47.2846 57.288 45.9448 57.4953 44.71 58.0908C41.8612 59.4647 40.5166 61.9044 41.2009 64.4583C41.5297 65.6849 42.4112 66.7063 43.6195 67.2601C44.28 67.5629 44.9997 67.7135 45.7354 67.7135C46.5797 67.7135 47.445 67.5148 48.2643 67.1198C52.0412 65.2983 52.5202 61.4148 51.7102 58.3916C51.7098 58.3902 51.4055 57.2546 51.4055 57.2546C56.3703 60.5759 62.3348 62.5146 68.7433 62.5146C85.9788 62.5146 100.001 48.4928 100.001 31.2573C100.001 30.448 99.3448 29.7921 98.5355 29.7921ZM33.1531 60.1528C33.4067 62.1558 32.6728 63.7044 31.0646 64.4798C30.3199 64.839 29.5357 64.8808 28.9135 64.596C28.4952 64.4044 28.208 64.0859 28.1043 63.6995C27.67 62.078 29.3243 61.0825 30.0557 60.73C31.0357 60.2575 32.1769 60.1516 33.0031 60.1516C33.0545 60.1516 33.1045 60.152 33.1531 60.1528ZM32.2676 45.2702L31.536 42.5393H39.5918C39.954 43.4721 40.3597 44.3829 40.8065 45.2702H32.2676ZM46.9917 64.48C46.247 64.8392 45.4631 64.881 44.8407 64.5962C44.4224 64.4045 44.1352 64.0861 44.0315 63.6995C43.597 62.0784 45.2515 61.0829 45.9829 60.7302C46.9628 60.2577 48.1041 60.1518 48.9303 60.1518C48.9815 60.1518 49.0315 60.1522 49.0801 60.153C49.3337 62.1558 48.6001 63.7044 46.9917 64.48Z" fill="black"/>
</g>
<defs>
<clipPath id="clip0_562_2424">
<rect width="100" height="100" fill="white"/>
</clipPath>
</defs>
</svg>
