<svg width="100" height="100" viewBox="0 0 100 100" fill="none" xmlns="http://www.w3.org/2000/svg">
<path d="M95.9961 68.0699C95.9961 71.3141 93.916 74.0719 91.0156 75.0797C90.252 75.3473 89.4297 75.4918 88.5742 75.4918C87.7188 75.4918 86.8965 75.3473 86.1328 75.0797C83.2324 74.0719 81.1523 71.3141 81.1523 68.0699C81.1523 63.9703 84.4746 60.6481 88.5742 60.6481C92.6738 60.6481 95.9961 63.9703 95.9961 68.0699Z" fill="#BFD749"/>
<path d="M90.1367 74.8809C87.2363 73.8731 85.1562 71.1153 85.1562 67.8711C85.1562 64.5959 87.2777 61.8188 90.2209 60.8336C89.691 60.7135 89.1404 60.6481 88.5742 60.6481C84.4746 60.6481 81.1523 63.9703 81.1523 68.0699C81.1523 71.3141 83.2324 74.0719 86.1328 75.0797C86.8965 75.3473 87.7188 75.4918 88.5742 75.4918C89.3979 75.4918 90.1902 75.3567 90.9299 75.1078C90.6596 75.0463 90.3945 74.9713 90.1367 74.8809Z" fill="#84C341"/>
<path d="M89.492 64.709C90.2166 65.8457 89.8807 67.3555 88.7439 68.0781C87.6053 68.8027 86.0975 68.4668 85.3729 67.3301L82.9529 63.5273L79.9277 58.7545C81.5059 58.2154 82.907 57.2863 84.0379 56.1105L87.1229 60.9863L89.492 64.709Z" fill="#B3B5BC"/>
<path d="M87.4682 66.0797L85.0482 62.277L82.135 57.6807C81.4504 58.1229 80.7109 58.4869 79.9277 58.7543L82.9529 63.5271L85.3729 67.3299C86.0975 68.4666 87.6053 68.8025 88.7439 68.0779C89.0986 67.8525 89.3752 67.5504 89.566 67.2068C88.7467 67.2191 87.9408 66.8213 87.4682 66.0797Z" fill="#9C9FA7"/>
<path d="M31.25 44.043H14.2578H13.7695V80.3711C13.7695 85.334 17.791 89.3555 22.7539 89.3555C23.8945 89.3555 24.9844 89.1426 25.9883 88.7539C26.9922 88.3672 27.9082 87.8027 28.7012 87.1035L31.7383 82.8967V74.4492V44.043H31.25Z" fill="#B4E3F5"/>
<path d="M20.3281 80.3711V44.043H14.2578H13.7695V80.3711C13.7695 85.334 17.791 89.3555 22.7539 89.3555C23.8945 89.3555 24.9844 89.1426 25.9883 88.7539C26.0033 88.7481 26.018 88.7414 26.033 88.7355C22.6934 87.4254 20.3281 84.1762 20.3281 80.3711Z" fill="#83D3F0"/>
<path d="M69.5352 52.1777L56.8359 52.2012V47.3184L69.5215 47.2949C69.3359 48.0684 69.2383 48.877 69.2383 49.707C69.2383 50.5586 69.3418 51.3867 69.5352 52.1777Z" fill="#B3B5BC"/>
<path d="M61.5078 47.7711V47.3098L56.8359 47.3183V52.2012L69.5352 52.1777C69.3639 51.4773 69.268 50.7465 69.2471 49.9974L63.7484 50.0076C62.5117 50.0099 61.5078 49.0078 61.5078 47.7711Z" fill="#9C9FA7"/>
<path d="M98.5352 91.5098V95.0137C98.5352 96.2031 97.5703 97.168 96.3809 97.168H3.61914C2.42969 97.168 1.46484 96.2031 1.46484 95.0137V91.5098C1.46484 90.3203 2.42969 89.3555 3.61914 89.3555H22.7539H66.3965H96.3809C97.5703 89.3555 98.5352 90.3203 98.5352 91.5098Z" fill="#BB7A58"/>
<path d="M8.50195 93.2617C7.3125 93.2617 6.34766 92.2969 6.34766 91.1074V89.3555H3.61914C2.42969 89.3555 1.46484 90.3203 1.46484 91.5098V95.0137C1.46484 96.2031 2.42969 97.168 3.61914 97.168H96.3809C97.5703 97.168 98.5352 96.2031 98.5352 95.0137V93.2617H8.50195Z" fill="#AA624F"/>
<path d="M33.8867 43.3594C33.8867 44.0879 33.5918 44.7461 33.1152 45.2246C32.6367 45.7012 31.9785 45.9961 31.25 45.9961H14.2578C12.8008 45.9961 11.6211 44.8164 11.6211 43.3594C11.6211 42.6309 11.916 41.9727 12.3926 41.4941C12.8711 41.0176 13.5293 40.7227 14.2578 40.7227H31.25C32.707 40.7227 33.8867 41.9023 33.8867 43.3594Z" fill="#4CB8E9"/>
<path d="M19.1113 43.3594C19.1113 42.6309 19.4063 41.9727 19.8828 41.4941C20.3613 41.0176 21.0195 40.7227 21.748 40.7227H14.2578C13.5293 40.7227 12.8711 41.0176 12.3926 41.4941C11.916 41.9727 11.6211 42.6309 11.6211 43.3594C11.6211 44.8164 12.8008 45.9961 14.2578 45.9961H21.748C20.291 45.9961 19.1113 44.8164 19.1113 43.3594Z" fill="#0AA5DC"/>
<path d="M18.6523 29.5898C21.1333 29.5898 23.1445 27.5786 23.1445 25.0977C23.1445 22.6167 21.1333 20.6055 18.6523 20.6055C16.1714 20.6055 14.1602 22.6167 14.1602 25.0977C14.1602 27.5786 16.1714 29.5898 18.6523 29.5898Z" fill="#EF5227"/>
<path d="M17.2559 25.0977C17.2559 23.1611 18.482 21.5104 20.2002 20.8795C19.7176 20.7023 19.1963 20.6055 18.6523 20.6055C16.1719 20.6055 14.1602 22.6172 14.1602 25.0977C14.1602 27.5781 16.1719 29.5898 18.6523 29.5898C19.1963 29.5898 19.7176 29.493 20.2002 29.3158C18.482 28.685 17.2559 27.0342 17.2559 25.0977Z" fill="#E43A26"/>
<path d="M39.5508 2.83203C43.6504 2.83203 46.9727 6.1543 46.9727 10.2539C46.9727 14.3535 43.6504 17.6758 39.5508 17.6758C35.4512 17.6758 32.1289 14.3535 32.1289 10.2539C32.1289 6.1543 35.4512 2.83203 39.5508 2.83203Z" fill="#BFD749"/>
<path d="M37.4023 10.2539C37.4023 7.0832 39.3904 4.3791 42.1875 3.31562C41.368 3.0041 40.4797 2.83203 39.5508 2.83203C35.4512 2.83203 32.1289 6.1543 32.1289 10.2539C32.1289 14.3535 35.4512 17.6758 39.5508 17.6758C40.4797 17.6758 41.368 17.5037 42.1875 17.1922C39.3904 16.1287 37.4023 13.4246 37.4023 10.2539Z" fill="#84C341"/>
<path d="M59.4727 17.4805C60.7671 17.4805 61.8164 16.4311 61.8164 15.1367C61.8164 13.8423 60.7671 12.793 59.4727 12.793C58.1782 12.793 57.1289 13.8423 57.1289 15.1367C57.1289 16.4311 58.1782 17.4805 59.4727 17.4805Z" fill="#BFD749"/>
<path d="M59.1641 15.1367C59.1641 14.207 59.7061 13.4066 60.4902 13.0277C60.1822 12.8789 59.8379 12.793 59.4727 12.793C58.1777 12.793 57.1289 13.8418 57.1289 15.1367C57.1289 16.4316 58.1777 17.4805 59.4727 17.4805C59.8379 17.4805 60.1822 17.3945 60.4902 17.2457C59.7061 16.8668 59.1641 16.0664 59.1641 15.1367Z" fill="#84C341"/>
<path d="M26.8555 61.3371V80.2703C26.8555 82.4916 25.1314 84.3857 22.9119 84.4695C20.5785 84.5578 18.6523 82.6854 18.6523 80.3711V61.3371C18.6523 61.1703 18.7875 61.0352 18.9543 61.0352H26.5533C26.7203 61.0352 26.8555 61.1703 26.8555 61.3371Z" fill="#EF5227"/>
<path d="M20.3281 80.3711V61.0352H18.9543C18.7875 61.0352 18.6523 61.1703 18.6523 61.3371V80.3711C18.6523 82.0678 19.6885 83.526 21.1607 84.1492C20.6271 83.0008 20.3281 81.7213 20.3281 80.3711Z" fill="#E43A26"/>
<path d="M71.5177 79.459L59.0939 61.4277C58.6407 60.7715 58.3985 59.9941 58.3985 59.1973V52.2012V47.3184V28.4473H41.4064V59.1973C41.4064 59.9941 41.1642 60.7715 40.711 61.4277L31.7384 74.4492L28.2872 79.459C26.545 81.9863 26.9669 85.0781 28.7013 87.1035C29.8087 88.3984 31.4513 89.2578 33.4083 89.2578H66.3966C71.4161 89.2578 74.3732 83.6016 71.5177 79.459Z" fill="#A3DCEF"/>
<path d="M35.9276 87.1035C34.1933 85.0781 33.7714 81.9863 35.5136 79.459L38.9648 74.4492L47.9374 61.4277C48.3905 60.7715 48.6327 59.9941 48.6327 59.1973V28.4473H41.4064V59.1973C41.4064 59.9941 41.1642 60.7715 40.711 61.4277L31.7384 74.4492L28.2872 79.459C26.545 81.9863 26.9669 85.0781 28.7013 87.1035C29.8087 88.3984 31.4513 89.2578 33.4083 89.2578H40.6347C38.6776 89.2578 37.0351 88.3984 35.9276 87.1035Z" fill="#83D3F0"/>
<path d="M49.1211 37.5977C50.8477 37.5977 52.2461 38.9961 52.2461 40.7227C52.2461 42.4492 50.8477 43.8477 49.1211 43.8477C47.3945 43.8477 45.9961 42.4492 45.9961 40.7227C45.9961 38.9961 47.3945 37.5977 49.1211 37.5977Z" fill="#BFD749"/>
<path d="M50.6836 61.6211C53.0567 61.6211 54.9805 59.6973 54.9805 57.3242C54.9805 54.9511 53.0567 53.0273 50.6836 53.0273C48.3105 53.0273 46.3867 54.9511 46.3867 57.3242C46.3867 59.6973 48.3105 61.6211 50.6836 61.6211Z" fill="#BFD749"/>
<path d="M48.7555 40.5273C48.7555 39.3762 49.3791 38.3734 50.3053 37.8312C49.9398 37.6816 49.5406 37.5977 49.1211 37.5977C47.3945 37.5977 45.9961 38.9961 45.9961 40.7227C45.9961 42.4492 47.3945 43.8477 49.1211 43.8477C49.6965 43.8477 50.2336 43.6896 50.6963 43.4188C49.5578 42.9521 48.7555 41.8346 48.7555 40.5273Z" fill="#84C341"/>
<path d="M49.8047 56.4453C49.8047 55.0881 50.4348 53.8785 51.4176 53.091C51.1789 53.05 50.934 53.0273 50.6836 53.0273C48.3105 53.0273 46.3867 54.9512 46.3867 57.3242C46.3867 59.6973 48.3105 61.6211 50.6836 61.6211C51.6994 61.6211 52.6322 61.2678 53.3676 60.6785C51.3443 60.3301 49.8047 58.568 49.8047 56.4453Z" fill="#84C341"/>
<path d="M66.6975 82.627C66.7542 82.709 66.8245 82.8105 66.721 83.0059C66.6175 83.2031 66.4944 83.2031 66.3968 83.2031H33.4085C33.3108 83.2031 33.1878 83.2031 33.0843 83.0059C32.9807 82.8105 33.0511 82.709 33.1077 82.627L42.6507 68.8242C43.0628 68.2266 43.7425 67.8711 44.469 67.8711H55.3362C56.0628 67.8711 56.7425 68.2266 57.1546 68.8242L66.6975 82.627Z" fill="#BFD749"/>
<path d="M77.0508 60.0586C82.7948 60.0586 87.4512 55.4022 87.4512 49.6582C87.4512 43.9142 82.7948 39.2578 77.0508 39.2578C71.3068 39.2578 66.6504 43.9142 66.6504 49.6582C66.6504 55.4022 71.3068 60.0586 77.0508 60.0586Z" fill="#4CB8E9"/>
<path d="M72.2656 49.6582C72.2656 44.8875 75.4789 40.8699 79.8584 39.6443C78.9648 39.3943 78.024 39.2578 77.0508 39.2578C71.3068 39.2578 66.6504 43.9143 66.6504 49.6582C66.6504 55.4021 71.3068 60.0586 77.0508 60.0586C78.024 60.0586 78.9648 59.9221 79.8584 59.6721C75.4789 58.4465 72.2656 54.4289 72.2656 49.6582Z" fill="#0AA5DC"/>
<path d="M79.4922 39.6484V42.4805C79.4922 43.8281 78.3984 44.9219 77.0508 44.9219C75.7031 44.9219 74.6094 43.8281 74.6094 42.4805V39.6484V31.3262C75.373 31.5938 76.1953 31.7383 77.0508 31.7383C77.9062 31.7383 78.7285 31.5938 79.4922 31.3262V39.6484Z" fill="#B3B5BC"/>
<path d="M76.7223 42.4805V39.6484V31.7309C75.9848 31.6988 75.2748 31.5592 74.6094 31.3262V39.6484V42.4805C74.6094 43.8281 75.7031 44.9219 77.0508 44.9219C77.4297 44.9219 77.7871 44.8328 78.1072 44.6787C77.2889 44.2842 76.7223 43.4492 76.7223 42.4805Z" fill="#9C9FA7"/>
<path d="M84.4727 25.8789C84.4727 29.123 82.3926 31.8809 79.4922 32.8887C78.7285 33.1562 77.9062 33.3008 77.0508 33.3008C76.1953 33.3008 75.373 33.1562 74.6094 32.8887C71.709 31.8809 69.6289 29.123 69.6289 25.8789C69.6289 21.7793 72.9512 18.457 77.0508 18.457C81.1504 18.457 84.4727 21.7793 84.4727 25.8789Z" fill="#EF5227"/>
<path d="M74.6094 25.8789C74.6094 22.6531 76.667 19.9098 79.541 18.8863C78.7625 18.6092 77.9246 18.457 77.0508 18.457C72.9512 18.457 69.6289 21.7793 69.6289 25.8789C69.6289 29.123 71.709 31.8809 74.6094 32.8887C75.373 33.1562 76.1953 33.3008 77.0508 33.3008C77.9062 33.3008 78.7285 33.1562 79.4922 32.8887C79.5086 32.883 79.5246 32.8764 79.541 32.8707C76.6664 31.8488 74.6094 29.1047 74.6094 25.8789Z" fill="#E43A26"/>
<path d="M61.5078 27.2461V27.5684C61.5078 29.0254 60.3281 30.2051 58.8711 30.2051H58.3984H41.4062H40.9336C39.4766 30.2051 38.2969 29.0254 38.2969 27.5684V27.2461C38.2969 25.7891 39.4766 24.6094 40.9336 24.6094H58.8711C60.3281 24.6094 61.5078 25.7891 61.5078 27.2461Z" fill="#4CB8E9"/>
<path d="M46.9727 27.5684V27.2461C46.9727 25.7891 48.1523 24.6094 49.6094 24.6094H40.9336C39.4766 24.6094 38.2969 25.7891 38.2969 27.2461V27.5684C38.2969 29.0254 39.4766 30.2051 40.9336 30.2051H41.4062H49.6094C48.1523 30.2051 46.9727 29.0254 46.9727 27.5684Z" fill="#0AA5DC"/>
<path d="M42.1009 75.3393L46.0532 67.8711H44.469C43.7425 67.8711 43.0628 68.2266 42.6507 68.8242L33.1077 82.627C33.0511 82.709 32.9807 82.8105 33.0843 83.0059C33.1878 83.2031 33.3108 83.2031 33.4085 83.2031H51.8807C49.4784 82.4184 46.6196 81.4973 44.305 80.7545C42.0442 80.0291 40.9903 77.4375 42.1009 75.3393Z" fill="#84C341"/>
<path d="M41.4449 67.9914L31.9019 81.7939C31.3535 82.5871 31.5941 83.3203 31.7861 83.6863C31.9781 84.0529 32.4443 84.6678 33.4086 84.6678H66.3961C67.3603 84.6678 67.8264 84.0529 68.0183 83.6869C68.2105 83.3205 68.451 82.5871 67.9027 81.7943L58.3598 67.9914C57.6736 66.9988 56.5433 66.4062 55.3367 66.4062H44.4681C43.2613 66.4062 42.131 66.9988 41.4449 67.9914ZM55.95 69.6574L64.3023 81.7383H35.5023L43.8547 69.6574C43.9939 69.4561 44.2232 69.3359 44.468 69.3359H55.3365C55.5814 69.3359 55.8107 69.4562 55.95 69.6574Z" fill="black"/>
<path d="M50.6836 51.5625C47.5066 51.5625 44.9219 54.1473 44.9219 57.3242C44.9219 60.5012 47.5066 63.0859 50.6836 63.0859C53.8605 63.0859 56.4453 60.5012 56.4453 57.3242C56.4453 54.1473 53.8605 51.5625 50.6836 51.5625ZM50.6836 60.1562C49.1221 60.1562 47.8516 58.8857 47.8516 57.3242C47.8516 55.7627 49.1221 54.4922 50.6836 54.4922C52.2451 54.4922 53.5156 55.7627 53.5156 57.3242C53.5156 58.8857 52.2451 60.1562 50.6836 60.1562Z" fill="black"/>
<path d="M49.1211 45.3125C51.652 45.3125 53.7109 43.2535 53.7109 40.7227C53.7109 38.1918 51.652 36.1328 49.1211 36.1328C46.5902 36.1328 44.5312 38.1918 44.5312 40.7227C44.5312 43.2535 46.5902 45.3125 49.1211 45.3125ZM49.1211 39.0625C50.0365 39.0625 50.7812 39.8072 50.7812 40.7227C50.7812 41.6381 50.0365 42.3828 49.1211 42.3828C48.2057 42.3828 47.4609 41.6381 47.4609 40.7227C47.4609 39.8072 48.2057 39.0625 49.1211 39.0625Z" fill="black"/>
<path d="M96.3816 87.8906H72.3609C72.676 87.4977 72.9576 87.0682 73.2008 86.6053C74.5404 84.0551 74.3576 80.9982 72.7238 78.627L60.2998 60.5973C60.015 60.1838 59.8645 59.6994 59.8645 59.1965V53.6621L65.9092 53.6449C67.5346 58.2303 71.9152 61.5234 77.0508 61.5234C77.977 61.5234 78.8787 61.4162 79.7439 61.2137L81.1897 63.4852C80.3416 64.8539 79.8828 66.4461 79.8828 68.0664C79.8828 72.859 83.7816 76.7578 88.5742 76.7578C93.3668 76.7578 97.2656 72.859 97.2656 68.0664C97.2656 63.2738 93.3668 59.375 88.5742 59.375C88.3336 59.375 88.093 59.3852 87.8533 59.4049L86.3314 57.0135C87.9187 55.0016 88.8672 52.4629 88.8672 49.707C88.8672 44.6254 85.6682 40.1926 80.957 38.5535V33.8602C83.9043 32.4119 85.9375 29.3785 85.9375 25.8789C85.9375 20.9787 81.951 16.9922 77.0508 16.9922C72.1506 16.9922 68.1641 20.9787 68.1641 25.8789C68.1641 29.3783 70.1973 32.4117 73.1445 33.8602V38.5535C69.6857 39.7568 67.042 42.4662 65.8811 45.8326L59.8643 45.8496V41.8346C59.8643 41.0256 59.2084 40.3697 58.3994 40.3697C57.5904 40.3697 56.9346 41.0256 56.9346 41.8346V59.1965C56.9346 60.2957 57.2641 61.3551 57.8873 62.2598L70.3113 80.2895C71.341 81.7838 71.4516 83.6355 70.6072 85.243C69.7684 86.8398 68.1941 87.7932 66.3961 87.7932H33.4086C32.0219 87.7932 30.7686 87.226 29.8828 86.234C29.8568 86.1988 29.8293 86.1645 29.7998 86.1311C29.7814 86.1104 29.7627 86.0902 29.7434 86.0709C29.5379 85.8189 29.3549 85.5422 29.1977 85.243C28.3531 83.6355 28.4639 81.7838 29.4936 80.2896L32.9445 75.2816C32.9478 75.277 32.9512 75.2721 32.9543 75.2674L41.9176 62.2598C42.5408 61.3553 42.8703 60.2959 42.8703 59.1967V31.6697H56.9348V35.975C56.9348 36.784 57.5906 37.4398 58.3996 37.4398C59.2086 37.4398 59.8645 36.784 59.8645 35.975V31.548C61.6479 31.1029 62.9732 29.4875 62.9732 27.568V27.2461C62.9732 24.9844 61.1334 23.1445 58.8717 23.1445H40.9336C38.6719 23.1445 36.832 24.9844 36.832 27.2461V27.5682C36.832 29.4875 38.1572 31.1031 39.9408 31.5482V59.1963C39.9408 59.6992 39.7902 60.1836 39.5055 60.5971L33.2031 69.7424V46.9654C34.4818 46.2701 35.3516 44.9145 35.3516 43.3594C35.3516 41.0977 33.5117 39.2578 31.25 39.2578H14.2578C11.9961 39.2578 10.1562 41.0977 10.1562 43.3594C10.1562 44.9145 11.026 46.2701 12.3047 46.9654V69.043C12.3047 69.852 12.9605 70.5078 13.7695 70.5078C14.5785 70.5078 15.2344 69.852 15.2344 69.043V47.4609H30.2734V73.9939L28.3203 76.8283V61.0352C28.3203 60.2262 27.6645 59.5703 26.8555 59.5703H18.6523C17.8434 59.5703 17.1875 60.2262 17.1875 61.0352V80.3711C17.1875 83.4404 19.6846 85.9375 22.7539 85.9375C23.9447 85.9375 25.0492 85.5615 25.9555 84.9223C26.1033 85.4984 26.3191 86.0633 26.6039 86.6053C26.6336 86.6619 26.6641 86.7182 26.6949 86.7736C25.517 87.5 24.1549 87.8906 22.7539 87.8906C18.6076 87.8906 15.2344 84.5174 15.2344 80.3711V74.9023C15.2344 74.0934 14.5785 73.4375 13.7695 73.4375C12.9605 73.4375 12.3047 74.0934 12.3047 74.9023V80.3711C12.3047 83.3207 13.5332 85.9889 15.5055 87.8906H3.61836C1.62324 87.8906 0 89.5139 0 91.509V95.0145C0 97.0096 1.62324 98.6328 3.61836 98.6328H96.3816C98.3768 98.6328 100 97.0096 100 95.0145V91.509C100 89.5139 98.3768 87.8906 96.3816 87.8906ZM84.1951 59.1133L85.8736 61.7506C85.8818 61.7641 85.8904 61.7773 85.899 61.7904L88.2566 65.4949C88.3967 65.7148 88.4428 65.9764 88.3861 66.2311C88.3295 66.4857 88.1771 66.7031 87.957 66.8432C87.7371 66.9834 87.4758 67.0289 87.2209 66.9727C86.9662 66.916 86.7488 66.7637 86.6088 66.5436L84.2039 62.765C84.1932 62.7475 84.1822 62.7301 84.1707 62.7129L82.5488 60.1645C83.1275 59.8592 83.6779 59.507 84.1951 59.1133ZM94.3359 68.0664C94.3359 71.2436 91.7514 73.8281 88.5742 73.8281C85.3971 73.8281 82.8125 71.2436 82.8125 68.0664C82.8125 67.4963 82.8936 66.941 83.052 66.4111L84.1375 68.1166C84.6977 68.9969 85.5672 69.6063 86.5857 69.8326C86.8701 69.8959 87.1562 69.927 87.4406 69.927C88.175 69.927 88.8957 69.7186 89.5305 69.3146C90.4107 68.7543 91.0199 67.885 91.2463 66.8664C91.4727 65.8479 91.2887 64.8021 90.7283 63.9219L89.7797 62.4314C92.3801 62.9873 94.3359 65.3027 94.3359 68.0664ZM71.0938 25.8789C71.0938 22.5941 73.766 19.9219 77.0508 19.9219C80.3355 19.9219 83.0078 22.5941 83.0078 25.8789C83.0078 28.4652 81.3512 30.6717 79.0434 31.4932C79.0205 31.5006 78.9977 31.5084 78.9754 31.517C78.3715 31.7236 77.724 31.8359 77.051 31.8359C76.3779 31.8359 75.7305 31.7236 75.1266 31.517C75.1041 31.5086 75.0814 31.5006 75.0586 31.4932C72.7504 30.6717 71.0938 28.4652 71.0938 25.8789ZM77.0508 34.7656C77.3809 34.7656 77.7066 34.7475 78.0273 34.7121V39.6213C78.027 39.6402 78.027 39.6592 78.0273 39.6779V42.4805C78.0273 43.0189 77.5893 43.457 77.0508 43.457C76.5123 43.457 76.0742 43.0189 76.0742 42.4805V39.6779C76.0746 39.659 76.0746 39.6402 76.0742 39.6213V34.7121C76.3949 34.7475 76.7207 34.7656 77.0508 34.7656ZM73.1445 41.7209V42.4805C73.1445 44.6344 74.8969 46.3867 77.0508 46.3867C79.2047 46.3867 80.957 44.6344 80.957 42.4805V41.7209C83.9629 43.1822 85.9375 46.2443 85.9375 49.707C85.9375 53.5854 83.4402 56.8912 79.9691 58.1014C79.9355 58.1115 79.9021 58.1228 79.8691 58.1355C78.9832 58.4326 78.0355 58.5938 77.0508 58.5938C72.8996 58.5938 69.4043 55.7328 68.4326 51.8791C68.4252 51.8434 68.4166 51.808 68.4066 51.7732C68.248 51.11 68.1641 50.4182 68.1641 49.707C68.1641 49.0303 68.2395 48.3689 68.3832 47.7316C68.4029 47.6682 68.4185 47.6029 68.4297 47.5361C69.0631 44.9988 70.7865 42.8674 73.1445 41.7209ZM65.2715 48.7639C65.2471 49.0754 65.2344 49.3898 65.2344 49.707C65.2344 50.0473 65.2488 50.3842 65.2771 50.717L59.8643 50.7324V48.7793L65.2715 48.7639ZM39.7615 27.2461C39.7615 26.5998 40.2871 26.0742 40.9334 26.0742H58.8715C59.5178 26.0742 60.0434 26.5998 60.0434 27.2461V27.5682C60.0434 28.2145 59.5178 28.74 58.8715 28.74H40.9334C40.2871 28.74 39.7615 28.2145 39.7615 27.5682V27.2461ZM14.2578 44.5312C13.6115 44.5312 13.0859 44.0057 13.0859 43.3594C13.0859 42.7131 13.6115 42.1875 14.2578 42.1875H31.25C31.8963 42.1875 32.4219 42.7131 32.4219 43.3594C32.4219 44.0057 31.8963 44.5312 31.25 44.5312H14.2578ZM25.3906 80.3711C25.3906 81.825 24.2078 83.0078 22.7539 83.0078C21.3 83.0078 20.1172 81.825 20.1172 80.3711V62.5H25.3906V80.3711ZM97.0703 95.0145C97.0703 95.3941 96.7613 95.7031 96.3816 95.7031H3.61836C3.23867 95.7031 2.92969 95.3941 2.92969 95.0145V91.509C2.92969 91.1293 3.23867 90.8203 3.61836 90.8203H96.3816C96.7613 90.8203 97.0703 91.1293 97.0703 91.509V95.0145Z" fill="black"/>
<path d="M18.6523 31.0547C21.9371 31.0547 24.6094 28.3824 24.6094 25.0977C24.6094 21.8129 21.9371 19.1406 18.6523 19.1406C15.3676 19.1406 12.6953 21.8129 12.6953 25.0977C12.6953 28.3824 15.3676 31.0547 18.6523 31.0547ZM18.6523 22.0703C20.3217 22.0703 21.6797 23.4283 21.6797 25.0977C21.6797 26.767 20.3217 28.125 18.6523 28.125C16.983 28.125 15.625 26.767 15.625 25.0977C15.625 23.4283 16.983 22.0703 18.6523 22.0703Z" fill="black"/>
<path d="M59.4727 18.9453C61.5727 18.9453 63.2812 17.2367 63.2812 15.1367C63.2812 13.0367 61.5727 11.3281 59.4727 11.3281C57.3727 11.3281 55.6641 13.0367 55.6641 15.1367C55.6641 17.2367 57.3727 18.9453 59.4727 18.9453ZM59.4727 14.2578C59.9572 14.2578 60.3516 14.6521 60.3516 15.1367C60.3516 15.6213 59.9572 16.0156 59.4727 16.0156C58.9881 16.0156 58.5938 15.6213 58.5938 15.1367C58.5938 14.6521 58.9881 14.2578 59.4727 14.2578Z" fill="black"/>
<path d="M39.5508 19.1406C44.451 19.1406 48.4375 15.1541 48.4375 10.2539C48.4375 5.35371 44.451 1.36719 39.5508 1.36719C34.6506 1.36719 30.6641 5.35371 30.6641 10.2539C30.6641 15.1541 34.6506 19.1406 39.5508 19.1406ZM39.5508 4.29688C42.8355 4.29688 45.5078 6.96914 45.5078 10.2539C45.5078 13.5387 42.8355 16.2109 39.5508 16.2109C36.266 16.2109 33.5938 13.5387 33.5938 10.2539C33.5938 6.96914 36.266 4.29688 39.5508 4.29688Z" fill="black"/>
</svg>
