<svg width="100" height="100" viewBox="0 0 100 100" fill="none" xmlns="http://www.w3.org/2000/svg">
<path d="M95.6875 14.4375C94.9531 15.1719 93.9375 15.625 92.8281 15.625C92.4219 15.625 92.0156 15.4531 91.7344 15.1719L90.625 14.0625L85.9375 9.375L84.8281 8.26562C84.5469 7.98438 84.375 7.57812 84.375 7.17188C84.375 6.0625 84.8281 5.04688 85.5625 4.3125C86.2969 3.57812 87.3125 3.125 88.4219 3.125C88.8281 3.125 89.2344 3.29687 89.5156 3.57812L96.4219 10.4844C96.7031 10.7656 96.875 11.1719 96.875 11.5781C96.875 12.6875 96.4219 13.7031 95.6875 14.4375Z" fill="#AAB2BD"/>
<path d="M81.2402 14.0703L85.9281 9.38242L90.616 14.0703L85.9281 18.7582L81.2402 14.0703Z" fill="#AAB2BD"/>
<path d="M86.3906 19.2031C87.1094 19.9219 87.5 20.875 87.5 21.875C87.5 22.875 87.1094 23.8281 86.3906 24.5469L78.5625 32.375C77.5469 31.6562 76.3281 31.25 75 31.25C71.5469 31.25 68.75 34.0469 68.75 37.5C68.75 38.8281 69.1563 40.0469 69.875 41.0625L64.0625 46.875L53.125 35.9375L55.4688 33.5938L75.4531 13.6094C76.1719 12.8906 77.125 12.5 78.125 12.5C79.125 12.5 80.0781 12.8906 80.7969 13.6094L81.25 14.0625L85.9375 18.75L86.3906 19.2031Z" fill="#CCD1D9"/>
<path d="M64.0625 46.875L62.0469 48.8906C61.3281 49.6094 60.375 50 59.375 50C58.375 50 57.4219 49.6094 56.7031 48.8906L51.1094 43.2969C50.3906 42.5781 50 41.625 50 40.625C50 39.625 50.3906 38.6719 51.1094 37.9531L53.125 35.9375L64.0625 46.875Z" fill="#CCD1D9"/>
<path d="M46.875 68.75H71.875C73.5938 68.75 75 70.1562 75 71.875C72.2344 71.875 69.7344 73.0781 68.0156 75H46.875V68.75Z" fill="#CCD1D9"/>
<path d="M81.25 37.5L86 42.25C89.4844 45.7344 92.2031 49.8438 94.0469 54.2969C95.9062 58.75 96.875 63.5781 96.875 68.5C96.875 74.8125 95.2656 81.0156 92.2031 86.5312L89.2031 91.9375L89.1875 91.9531C88.3438 91.125 87.2031 90.625 85.9375 90.625H75C80.1719 90.625 84.375 86.4219 84.375 81.25C84.375 79.7031 84 78.25 83.3438 76.9687C84.6875 75 85.7344 72.8281 86.4375 70.5625C87.1406 68.2812 87.5 65.9062 87.5 63.5C87.5 55.9844 83.9687 48.9062 77.9531 44.4062L76.75 43.5C79.3594 42.75 81.25 40.3438 81.25 37.5Z" fill="#AAB2BD"/>
<path d="M45.2344 90.625H45.3125H75H85.9375C87.2031 90.625 88.3438 91.125 89.1875 91.9531C90.0781 92.7812 90.625 93.9844 90.625 95.3125C90.625 96.1719 89.9219 96.875 89.0625 96.875H45.3125C44.4531 96.875 43.75 96.1719 43.75 95.3125V92.1875C43.75 91.3594 44.4063 90.6719 45.2344 90.6406V90.625Z" fill="#AAB2BD"/>
<path d="M7.8125 15.625C10.4013 15.625 12.5 13.5263 12.5 10.9375C12.5 8.34867 10.4013 6.25 7.8125 6.25C5.22367 6.25 3.125 8.34867 3.125 10.9375C3.125 13.5263 5.22367 15.625 7.8125 15.625Z" fill="#69D6F4"/>
<path d="M10.9375 37.5C13.5263 37.5 15.625 35.4013 15.625 32.8125C15.625 30.2237 13.5263 28.125 10.9375 28.125C8.34867 28.125 6.25 30.2237 6.25 32.8125C6.25 35.4013 8.34867 37.5 10.9375 37.5Z" fill="#69D6F4"/>
<path d="M25 25C26.7259 25 28.125 23.6009 28.125 21.875C28.125 20.1491 26.7259 18.75 25 18.75C23.2741 18.75 21.875 20.1491 21.875 21.875C21.875 23.6009 23.2741 25 25 25Z" fill="#69D6F4"/>
<path d="M21.875 43.75C23.6009 43.75 25 42.3509 25 40.625C25 38.8991 23.6009 37.5 21.875 37.5C20.1491 37.5 18.75 38.8991 18.75 40.625C18.75 42.3509 20.1491 43.75 21.875 43.75Z" fill="#69D6F4"/>
<path d="M46.875 9.375C48.6009 9.375 50 7.97589 50 6.25C50 4.52411 48.6009 3.125 46.875 3.125C45.1491 3.125 43.75 4.52411 43.75 6.25C43.75 7.97589 45.1491 9.375 46.875 9.375Z" fill="#69D6F4"/>
<path d="M71.875 15.625C73.6009 15.625 75 14.2259 75 12.5C75 10.7741 73.6009 9.375 71.875 9.375C70.1491 9.375 68.75 10.7741 68.75 12.5C68.75 14.2259 70.1491 15.625 71.875 15.625Z" fill="#69D6F4"/>
<path d="M53.125 28.125C54.8438 28.125 56.25 29.5312 56.25 31.25C56.25 32.1094 55.9062 32.8906 55.3281 33.4531C54.7656 34.0312 53.9844 34.375 53.125 34.375C51.4062 34.375 50 32.9688 50 31.25C50 30.0625 50.6719 29.0312 51.6406 28.5C52.0781 28.2656 52.5938 28.125 53.125 28.125Z" fill="#69D6F4"/>
<path d="M56.25 15.625C56.25 15.625 56.25 25.1875 47.875 27.5938C46.6875 27.9375 45.3125 28.125 43.75 28.125H40.625C40.625 23.4375 43.75 15.625 56.25 15.625Z" fill="#B4DD7F"/>
<path d="M40.625 15.625H37.5C25 15.625 25 3.125 25 3.125C37.5 3.125 40.625 10.9375 40.625 15.625Z" fill="#B4DD7F"/>
<path d="M40.625 37.5H37.5C25 37.5 25 25 25 25C37.5 25 40.625 32.8125 40.625 37.5Z" fill="#B4DD7F"/>
<path d="M9.375 56.25V84.375C9.375 87.8281 12.1719 90.625 15.625 90.625C17.3438 90.625 18.9062 89.9219 20.0469 88.7969C21.1719 87.6563 21.875 86.0938 21.875 84.375V56.25H9.375Z" fill="#F0D0B4"/>
<path d="M34.375 56.25V84.375C34.375 87.8281 37.1719 90.625 40.625 90.625C42.3438 90.625 43.9062 89.9219 45.0469 88.7969C46.1719 87.6563 46.875 86.0938 46.875 84.375V56.25H34.375Z" fill="#F0D0B4"/>
<path d="M50 51.5625V54.6875C50 55.5469 49.2969 56.25 48.4375 56.25H46.875H34.375H32.8125C31.9531 56.25 31.25 55.5469 31.25 54.6875V51.5625C31.25 50.7031 31.9531 50 32.8125 50H40.625H48.4375C49.2969 50 50 50.7031 50 51.5625Z" fill="#DFB28B"/>
<path d="M25 51.5625V54.6875C25 55.5469 24.2969 56.25 23.4375 56.25H21.875H9.375H7.8125C6.95312 56.25 6.25 55.5469 6.25 54.6875V51.5625C6.25 50.7031 6.95312 50 7.8125 50H23.4375C24.2969 50 25 50.7031 25 51.5625Z" fill="#DFB28B"/>
<path d="M75 31.25C76.3281 31.25 77.5469 31.6562 78.5625 32.375C80.1875 33.5 81.25 35.375 81.25 37.5C81.25 40.3438 79.3594 42.75 76.75 43.5C76.1875 43.6562 75.6094 43.75 75 43.75C72.875 43.75 71 42.6875 69.875 41.0625C69.1563 40.0469 68.75 38.8281 68.75 37.5C68.75 34.0469 71.5469 31.25 75 31.25Z" fill="#FCD770"/>
<path d="M83.3438 76.9687C84 78.25 84.375 79.7031 84.375 81.25C84.375 86.4219 80.1719 90.625 75 90.625C69.8281 90.625 65.625 86.4219 65.625 81.25C65.625 78.8438 66.5312 76.6562 68.0156 75C69.7344 73.0781 72.2344 71.875 75 71.875C78.625 71.875 81.7812 73.9531 83.3438 76.9687Z" fill="#FCD770"/>
<path d="M75 84.375C76.7259 84.375 78.125 82.9759 78.125 81.25C78.125 79.5241 76.7259 78.125 75 78.125C73.2741 78.125 71.875 79.5241 71.875 81.25C71.875 82.9759 73.2741 84.375 75 84.375Z" fill="#CCD1D9"/>
<path d="M75 39.0625C75.8629 39.0625 76.5625 38.3629 76.5625 37.5C76.5625 36.6371 75.8629 35.9375 75 35.9375C74.1371 35.9375 73.4375 36.6371 73.4375 37.5C73.4375 38.3629 74.1371 39.0625 75 39.0625Z" fill="black"/>
<path d="M75 76.5625C72.4156 76.5625 70.3125 78.6656 70.3125 81.25C70.3125 83.8344 72.4156 85.9375 75 85.9375C77.5844 85.9375 79.6875 83.8344 79.6875 81.25C79.6875 78.6656 77.5844 76.5625 75 76.5625ZM75 82.8125C74.1391 82.8125 73.4375 82.1109 73.4375 81.25C73.4375 80.3891 74.1391 79.6875 75 79.6875C75.8609 79.6875 76.5625 80.3891 76.5625 81.25C76.5625 82.1109 75.8609 82.8125 75 82.8125Z" fill="black"/>
<path d="M82.7391 36.7797C82.5797 35.0781 81.8891 33.5422 80.8141 32.3328L87.5 25.6469C88.5078 24.6391 89.0625 23.3 89.0625 21.875C89.0625 20.7609 88.7141 19.7047 88.0844 18.8125L90.625 16.2719C91.2156 16.8625 92 17.1875 92.8344 17.1875C95.925 17.1875 98.4375 14.675 98.4375 11.5844C98.4375 10.75 98.1125 9.96562 97.5219 9.375L90.625 2.47812C90.0344 1.8875 89.25 1.5625 88.4156 1.5625C85.325 1.5625 82.8125 4.075 82.8125 7.16563C82.8125 8 83.1375 8.78438 83.7281 9.375L81.1813 11.9219C79.7859 10.9688 77.9734 10.7625 76.3828 11.2844C75.8438 9.29063 74.0375 7.8125 71.875 7.8125C69.2906 7.8125 67.1875 9.91562 67.1875 12.5C67.1875 14.4344 68.3656 16.0969 70.0406 16.8125L57.4375 29.4156C56.7219 27.7406 55.0594 26.5625 53.125 26.5625C53.0891 26.5625 53.0547 26.5719 53.0187 26.5734C56.6469 23.4516 57.8125 18.6828 57.8125 15.625V14.0625H56.25C49.1063 14.0625 44.7391 16.5203 42.1875 19.6031V15.625C42.1875 10.4016 38.5672 1.5625 25 1.5625H23.4375V3.125C23.4375 7.98906 26.3766 17.1875 37.5 17.1875H39.0625V28.125V28.9781C37.0672 26.5672 33.9547 24.5484 29.2734 23.7812C29.5344 23.1969 29.6875 22.5547 29.6875 21.875C29.6875 19.2906 27.5844 17.1875 25 17.1875C22.4156 17.1875 20.3125 19.2906 20.3125 21.875C20.3125 23.9359 21.6578 25.6703 23.5094 26.2969C23.9891 31.3312 27.2969 39.0625 37.5 39.0625H39.0625V48.4375H32.8125C31.0891 48.4375 29.6875 49.8391 29.6875 51.5625V54.6875C29.6875 56.4109 31.0891 57.8125 32.8125 57.8125V60.9375H23.4375V57.8125C25.1609 57.8125 26.5625 56.4109 26.5625 54.6875V51.5625C26.5625 49.8391 25.1609 48.4375 23.4375 48.4375H7.8125C6.08906 48.4375 4.6875 49.8391 4.6875 51.5625V54.6875C4.6875 56.4109 6.08906 57.8125 7.8125 57.8125V60.9375H6.25C3.66562 60.9375 1.5625 63.0406 1.5625 65.625V98.4375H4.6875V65.625C4.6875 64.7641 5.38906 64.0625 6.25 64.0625H7.8125V84.375C7.8125 88.6828 11.3172 92.1875 15.625 92.1875C19.9328 92.1875 23.4375 88.6828 23.4375 84.375V64.0625H32.8125V84.375C32.8125 88.6828 36.3172 92.1875 40.625 92.1875C41.1656 92.1875 41.6937 92.1312 42.2031 92.0266C42.2016 92.0812 42.1875 92.1328 42.1875 92.1875V95.3125C42.1875 97.0359 43.5891 98.4375 45.3125 98.4375H89.0625C90.7859 98.4375 92.1875 97.0359 92.1875 95.3125C92.1875 93.9984 91.775 92.7812 91.0797 91.7734L93.5687 87.2937C96.7531 81.5594 98.4375 75.0625 98.4375 68.5047C98.4375 58.1703 94.4125 48.4531 87.1047 41.1453L82.7391 36.7797ZM37.5 14.0625C29.1906 14.0625 27.1938 7.79688 26.7141 4.74375C34.8078 5.29219 38.2875 9.73281 38.9453 14.0625H37.5ZM7.8125 51.5625H23.4375L23.4391 54.6875H7.8125V51.5625ZM10.9375 57.8125H20.3125V60.9375H10.9375V57.8125ZM20.3125 84.375C20.3125 86.9594 18.2094 89.0625 15.625 89.0625C13.0406 89.0625 10.9375 86.9594 10.9375 84.375V64.0625H20.3125V84.375ZM75 42.1875C72.4156 42.1875 70.3125 40.0844 70.3125 37.5C70.3125 34.9156 72.4156 32.8125 75 32.8125C77.5844 32.8125 79.6875 34.9156 79.6875 37.5C79.6875 40.0844 77.5844 42.1875 75 42.1875ZM88.4156 4.6875L95.3125 11.5844C95.3125 12.9516 94.2016 14.0625 92.8344 14.0625L85.9375 7.16563C85.9375 5.79844 87.0484 4.6875 88.4156 4.6875ZM85.9375 11.5844L88.4156 14.0625L85.9375 16.5406L83.4594 14.0625L85.9375 11.5844ZM79.6875 14.7094L85.2906 20.3125C85.7016 20.7234 85.9375 21.2938 85.9375 21.875C85.9375 22.4562 85.7016 23.0266 85.2906 23.4375L78.2891 30.4391C77.2859 29.9688 76.1781 29.6875 75 29.6875C70.6922 29.6875 67.1875 33.1922 67.1875 37.5C67.1875 38.6781 67.4688 39.7859 67.9391 40.7891L64.0625 44.6656L55.3344 35.9375L76.5625 14.7094C77.3844 13.8875 78.8656 13.8875 79.6875 14.7094ZM52.2094 39.0625L53.125 38.1469L61.8531 46.875L60.9375 47.7906C60.1156 48.6125 58.6344 48.6125 57.8125 47.7906L52.2094 42.1875C51.7984 41.7766 51.5625 41.2062 51.5625 40.625C51.5625 40.0438 51.7984 39.4734 52.2094 39.0625ZM71.875 10.9375C72.7359 10.9375 73.4375 11.6391 73.4375 12.5C73.4375 13.3609 72.7359 14.0625 71.875 14.0625C71.0141 14.0625 70.3125 13.3609 70.3125 12.5C70.3125 11.6391 71.0141 10.9375 71.875 10.9375ZM54.6875 31.25C54.6875 32.1109 53.9859 32.8125 53.125 32.8125C52.2641 32.8125 51.5625 32.1109 51.5625 31.25C51.5625 30.3891 52.2641 29.6875 53.125 29.6875C53.9859 29.6875 54.6875 30.3891 54.6875 31.25ZM54.5359 17.2438C54.0563 20.3 52.0578 26.5625 43.75 26.5625H42.3063C42.9641 22.2328 46.4422 17.7922 54.5359 17.2438ZM25 20.3125C25.8609 20.3125 26.5625 21.0141 26.5625 21.875C26.5625 22.7359 25.8609 23.4375 25 23.4375C24.1391 23.4375 23.4375 22.7359 23.4375 21.875C23.4375 21.0141 24.1391 20.3125 25 20.3125ZM37.5 35.9375C29.1906 35.9375 27.1938 29.6719 26.7141 26.6187C34.8078 27.1672 38.2875 31.6078 38.9453 35.9375H37.5ZM42.1875 39.0625V37.5V29.6875H43.75C45.8187 29.6875 47.6016 29.3672 49.1375 28.8188C48.7016 29.5297 48.4375 30.3563 48.4375 31.25C48.4375 33.1844 49.6156 34.8469 51.2906 35.5625L50 36.8531C48.9922 37.8609 48.4375 39.2 48.4375 40.625C48.4375 42.05 48.9922 43.3906 50 44.3969L55.6031 50C56.6109 51.0078 57.95 51.5625 59.375 51.5625C60.8 51.5625 62.1406 51.0078 63.1469 50L69.8328 43.3141C71.2141 44.5422 73.0109 45.3125 75 45.3125C75.4719 45.3125 75.9281 45.2531 76.3766 45.1734L77.0125 45.65C82.6016 49.8422 85.9375 56.5141 85.9375 63.5C85.9375 67.2281 85.0047 70.8438 83.2484 74.0906C81.5109 72.0906 79.0641 70.7281 76.3 70.3984C75.6781 68.5391 73.9406 67.1875 71.875 67.1875H48.4375V64.0625H54.6875V60.9375H48.4375V57.8125C50.1609 57.8125 51.5625 56.4109 51.5625 54.6875V51.5625C51.5625 49.8391 50.1609 48.4375 48.4375 48.4375H42.1875V39.0625ZM75 89.0625C70.6922 89.0625 67.1875 85.5578 67.1875 81.25C67.1875 76.9422 70.6922 73.4375 75 73.4375C79.3078 73.4375 82.8125 76.9422 82.8125 81.25C82.8125 85.5578 79.3078 89.0625 75 89.0625ZM67.3594 73.4375H48.4375V70.3125H71.875C72.175 70.3125 72.4391 70.4203 72.6766 70.5672C70.6344 71.0109 68.8031 72.025 67.3594 73.4375ZM48.4375 84.375V76.5625H65.1328C64.4531 77.9859 64.0625 79.5703 64.0625 81.25C64.0625 84.3094 65.3281 87.075 67.3594 89.0625H46.8344C47.8266 87.7531 48.4375 86.1406 48.4375 84.375ZM32.8125 51.5625H48.4375L48.4391 54.6875H32.8125V51.5625ZM35.9375 57.8125H45.3125V60.9375H35.9375V57.8125ZM35.9375 84.375V64.0625H45.3125V84.375C45.3125 86.9594 43.2094 89.0625 40.625 89.0625C38.0406 89.0625 35.9375 86.9594 35.9375 84.375ZM45.3125 95.3125V92.1875H85.9375C87.6609 92.1875 89.0625 93.5891 89.0641 95.3125H45.3125ZM90.8375 85.775L88.6531 89.7078C87.8281 89.3078 86.9141 89.0625 85.9375 89.0625H82.6406C84.6719 87.075 85.9375 84.3094 85.9375 81.25C85.9375 79.7766 85.6406 78.3703 85.1094 77.0859C87.6875 73.0125 89.0625 68.3406 89.0625 63.5C89.0625 55.8578 85.5531 48.55 79.6406 43.7484C80.7266 42.9391 81.6078 41.8703 82.1562 40.6141L84.8953 43.3531C91.6125 50.0719 95.3125 59.0047 95.3125 68.5047C95.3125 74.5328 93.7641 80.5047 90.8375 85.775Z" fill="black"/>
<path d="M46.875 10.9375C49.4594 10.9375 51.5625 8.83437 51.5625 6.25C51.5625 3.66562 49.4594 1.5625 46.875 1.5625C44.2906 1.5625 42.1875 3.66562 42.1875 6.25C42.1875 8.83437 44.2906 10.9375 46.875 10.9375ZM46.875 4.6875C47.7359 4.6875 48.4375 5.38906 48.4375 6.25C48.4375 7.11094 47.7359 7.8125 46.875 7.8125C46.0141 7.8125 45.3125 7.11094 45.3125 6.25C45.3125 5.38906 46.0141 4.6875 46.875 4.6875Z" fill="black"/>
<path d="M21.875 45.3125C24.4594 45.3125 26.5625 43.2094 26.5625 40.625C26.5625 38.0406 24.4594 35.9375 21.875 35.9375C19.2906 35.9375 17.1875 38.0406 17.1875 40.625C17.1875 43.2094 19.2906 45.3125 21.875 45.3125ZM21.875 39.0625C22.7359 39.0625 23.4375 39.7641 23.4375 40.625C23.4375 41.4859 22.7359 42.1875 21.875 42.1875C21.0141 42.1875 20.3125 41.4859 20.3125 40.625C20.3125 39.7641 21.0141 39.0625 21.875 39.0625Z" fill="black"/>
<path d="M7.8125 17.1875C11.2594 17.1875 14.0625 14.3844 14.0625 10.9375C14.0625 7.49062 11.2594 4.6875 7.8125 4.6875C4.36562 4.6875 1.5625 7.49062 1.5625 10.9375C1.5625 14.3844 4.36562 17.1875 7.8125 17.1875ZM7.8125 7.8125C9.53594 7.8125 10.9375 9.21406 10.9375 10.9375C10.9375 12.6609 9.53594 14.0625 7.8125 14.0625C6.08906 14.0625 4.6875 12.6609 4.6875 10.9375C4.6875 9.21406 6.08906 7.8125 7.8125 7.8125Z" fill="black"/>
<path d="M4.6875 32.8125C4.6875 36.2594 7.49062 39.0625 10.9375 39.0625C14.3844 39.0625 17.1875 36.2594 17.1875 32.8125C17.1875 29.3656 14.3844 26.5625 10.9375 26.5625C7.49062 26.5625 4.6875 29.3656 4.6875 32.8125ZM14.0625 32.8125C14.0625 34.5359 12.6609 35.9375 10.9375 35.9375C9.21406 35.9375 7.8125 34.5359 7.8125 32.8125C7.8125 31.0891 9.21406 29.6875 10.9375 29.6875C12.6609 29.6875 14.0625 31.0891 14.0625 32.8125Z" fill="black"/>
</svg>
