<svg width="100" height="100" viewBox="0 0 100 100" fill="none" xmlns="http://www.w3.org/2000/svg">
<g clip-path="url(#clip0_563_8570)">
<path d="M1.93783 67.525C0.623106 57.9278 5.47031 45.6463 28.5945 44.2355L32.6663 44.1459H39.2116L33.8826 64.9085H26.6421C15.4117 65.8073 8.51146 70.7009 7.19227 74.9583L2.80823 79.9397L1.93783 67.525Z" fill="#FFEB17"/>
<path d="M46.7773 82.6689H53.2212V98.4245H46.7773V82.6689Z" fill="#BBCBED"/>
<path d="M21.9707 77.306C24.1226 66.1809 30.1964 61.67 32.253 52.4407C34.8377 40.8406 28.4494 29.5798 23.1132 21.9612C17.018 13.2594 38.0294 11.9534 40.2336 11.616C42.7226 11.235 44.5617 9.07437 44.5617 6.52998V3.72264C44.5617 2.72038 45.3748 1.90765 46.3776 1.90765H53.6207C54.6237 1.90765 55.4366 2.72018 55.4366 3.72264V6.53017C55.4366 9.07456 57.2757 11.2352 59.7647 11.6162C62.5478 12.0423 82.7169 13.2221 76.4998 22.5595C71.5155 30.0455 65.1603 40.8408 67.7451 52.4409C69.0033 58.0878 71.7656 61.9683 74.2133 66.6784L77.2989 74.2497C78.2084 77.4394 78.7939 81.196 78.7939 85.8927C78.7939 87.3309 77.6306 88.4951 76.2075 88.4951H67.8331H64.8228H21.9707V77.306Z" fill="#FFE4CF"/>
<path d="M77.2993 74.2497L74.2135 66.6782C71.7658 61.9683 69.0037 58.0876 67.7453 52.4407C65.1605 40.8405 71.5157 30.0453 76.5 22.5593C82.7169 13.2219 62.548 12.0421 59.7649 11.616C57.2758 11.235 55.4368 9.07437 55.4368 6.52998V3.72264C55.4368 2.72038 54.6237 1.90765 53.6208 1.90765H46.3778C46.2885 1.90765 46.2013 1.9162 46.1152 1.92882C46.9934 2.05622 47.6688 2.80971 47.6688 3.72264V6.53017C47.6688 9.07456 49.5079 11.2352 51.9969 11.6162C54.78 12.0423 74.9491 13.2221 68.732 22.5595C63.7477 30.0455 57.3926 40.8408 59.9773 52.4409C61.2356 58.0878 63.9978 61.9683 66.4455 66.6784L69.5312 74.2497C70.4406 77.4394 71.0261 81.196 71.0261 85.8927C71.0261 87.3309 69.8628 88.4951 68.4398 88.4951H76.2077C77.6308 88.4951 78.7941 87.3311 78.7941 85.8927C78.7942 81.1958 78.2087 77.4392 77.2993 74.2497Z" fill="#F7D3B7"/>
<path d="M94.4757 48.0019C93.045 50.7188 61.1797 98.4824 61.1797 98.4824C61.1797 98.4824 83.2003 45.5409 84.631 42.824C86.0616 40.1072 89.4253 39.0639 92.1437 40.4938C94.8621 41.9237 95.9063 45.2851 94.4757 48.0019Z" fill="#ECF2FF"/>
<path d="M37.5206 89.9885C37.5206 89.9885 27.9904 98.5435 17.877 98.5435C7.76347 98.5435 1.9375 92.3198 1.9375 88.2354V67.5249C1.9375 71.6093 7.76347 77.833 17.877 77.833C27.9904 77.833 37.5206 67.5249 37.5206 67.5249V89.9885Z" fill="#FDF49D"/>
<path d="M37.5201 67.5249C37.5201 67.5249 33.4666 71.9084 27.8418 74.9583V96.1576C33.4666 93.6264 37.5201 89.9883 37.5201 89.9883V67.5249Z" fill="#6B78E3"/>
<path d="M97.7517 89.3601C96.2067 87.5484 93.9293 86.5255 91.5632 86.4564C87.6874 86.1474 85.4143 81.6356 87.5201 78.3368L97.6894 62.4066C100.291 58.3325 98.6844 52.9616 94.5249 50.6939C95.1871 49.6545 95.6198 48.9541 95.7637 48.6808C97.5462 45.2956 96.2071 40.9857 92.8214 39.2049C89.3973 37.4035 85.1443 38.7227 83.342 42.1455C83.2239 42.3698 82.9732 42.9174 82.6135 43.7319L79.6906 42.0643C77.7034 40.9399 76.8212 38.4734 77.9894 36.4069C78.916 34.7673 76.3807 33.3339 75.4534 34.9731C73.546 38.3475 74.8572 42.7958 78.2672 44.6062L81.445 46.4192C79.7258 50.4139 77.0635 56.7185 74.1861 63.5695C72.1497 59.9073 70.0861 56.2542 69.166 52.1244C66.8234 41.6114 72.1712 31.6879 77.7115 23.3668C79.223 21.0968 79.5409 18.9836 78.6565 17.0855C76.5598 12.5857 68.216 11.1065 61.1813 10.3203C57.0696 9.86087 56.8925 7.15859 56.8925 3.72282C56.8925 -1.25061 43.1043 -1.23061 43.1043 3.72282C43.1043 7.01935 43.0486 9.85543 39.0044 10.2933C31.6808 11.0845 23.0133 12.568 20.9763 17.0557C20.4242 18.2722 20.1395 20.2559 21.9194 22.7968C25.3295 27.6654 27.7397 32.0549 29.2875 36.216C30.1144 38.4386 30.6933 40.6107 31.031 42.7251L28.5621 42.7795C28.5433 42.7799 28.5245 42.7807 28.5054 42.7819C17.2734 43.4672 9.21003 46.7023 4.53935 52.398C1.16553 56.5117 -0.273093 61.9124 0.480982 67.6148V88.2355C0.480982 90.8876 2.25771 93.8206 5.23361 96.0807C8.56082 98.608 13.0511 99.9998 17.8769 99.9998C28.427 99.9998 38.0874 91.4366 38.4935 91.0721C38.8011 90.7958 38.977 90.4019 38.977 89.9883V89.9514H45.3198V98.4245C45.3198 100.308 48.2327 100.308 48.2327 98.4245V89.9514H51.7637V98.4245C51.7637 100.308 54.6767 100.308 54.6767 98.4245V89.9514H63.1538C61.3062 94.384 60.0398 97.4281 59.834 97.9231C59.1846 99.4844 61.4592 100.686 62.3904 99.2906C62.739 98.7682 65.1869 95.0984 68.6128 89.9514H76.2067C78.4359 89.9514 80.2495 88.1306 80.2495 85.8924C80.2495 81.7115 79.8002 77.9777 78.8779 74.5025C84.2961 66.3314 89.7428 58.0847 92.9455 53.1461C95.6503 54.7519 97.1021 57.9123 95.2337 60.8392L85.0645 76.7692C81.7872 81.903 85.2867 88.8781 91.3313 89.3601C94.6958 89.4739 96.7782 91.9903 96.7782 95.2183V98.4824C96.7782 100.366 99.6912 100.366 99.6912 98.4824V95.2736C99.8485 93.1104 99.1608 91.0125 97.7517 89.3601ZM4.37914 58.2991V63.0993C4.37914 64.9825 7.29212 64.9825 7.29212 63.0993V53.6661C8.19709 52.6608 9.23838 51.7474 10.4154 50.9271V53.3915C10.4154 55.2747 13.3284 55.2747 13.3284 53.3915V49.2205C14.4586 48.6651 15.6794 48.1728 16.9879 47.743V56.1185C16.9879 58.0016 19.9009 58.0016 19.9009 56.1185V46.9239C21.0364 46.6542 22.2283 46.4252 23.4737 46.2349V49.5118C23.4737 51.395 26.3867 51.395 26.3867 49.5118V45.8725C28.0431 45.7106 29.6821 45.6684 31.3435 45.6319C31.699 52.2927 28.9832 57.8666 25.8371 63.5204C15.5817 64.4987 9.05078 68.6719 6.61048 72.7479C4.48167 70.9972 3.39397 68.969 3.39397 67.5249C3.39397 67.5173 3.39299 67.5102 3.3928 67.5026C3.39241 67.4772 3.39066 67.4515 3.38892 67.4259C3.38717 67.4003 3.38542 67.3746 3.38231 67.3494C3.38134 67.342 3.38134 67.3346 3.38037 67.3272C3.04285 64.8625 3.04751 61.5918 4.37914 58.2991ZM17.8769 76.3765C14.2701 76.3765 11.3173 75.5465 9.03933 74.3487C9.90817 72.8033 11.6241 71.2419 13.9184 69.9408C15.9627 68.7814 19.308 67.355 24.1598 66.6516C22.7972 69.3481 21.5564 72.3376 20.735 76.0887C19.7908 76.2728 18.8351 76.3765 17.8769 76.3765ZM3.39397 88.2357V73.7329C4.33117 74.7161 5.41402 75.5712 6.56912 76.285V80.3323C6.56912 82.2155 9.4821 82.2155 9.4821 80.3323V77.7433C10.6368 78.2028 11.8601 78.5614 13.1315 78.8188V87.5868C13.1315 89.47 16.0445 89.47 16.0445 87.5868V79.2213C17.2584 79.3116 18.4819 79.3177 19.6939 79.1883V82.3874C19.6939 84.2705 22.6068 84.2705 22.6068 82.3874V78.6484C23.9089 78.3067 25.174 77.8448 26.3858 77.3063V95.1989C23.7581 96.2918 20.8336 97.0871 17.8769 97.0871C8.36817 97.0871 3.39397 91.3246 3.39397 88.2357ZM36.064 89.3148C35.0591 90.1439 32.5659 92.0853 29.2987 93.8202V75.8213C32.0742 74.2267 34.4221 72.3747 36.064 70.9314V89.3148ZM38.977 87.0384V67.5249C38.977 66.2265 37.3337 65.5843 36.4517 66.5355C36.3806 66.6122 30.8288 72.5308 23.9643 75.1511C25.1598 70.7098 27.021 67.3717 28.8321 64.1315C30.7181 60.7573 32.6685 57.2681 33.6737 52.7575C34.8856 47.3187 34.3285 41.4116 32.0177 35.2001C30.3822 30.8039 27.8595 26.2 24.3053 21.1256C23.1053 19.4125 23.4994 18.5447 23.6289 18.2594C24.364 16.6402 27.6822 14.4459 39.3173 13.1892C44.9292 12.583 46.0173 8.58595 46.0173 3.72263C46.0173 3.0575 53.9795 3.10508 53.9795 3.72263C53.9795 8.72946 55.12 12.5727 60.8578 13.2151C62.7648 13.4281 66.3146 13.8249 69.5387 14.6826C74.0528 15.8838 75.5528 17.3212 76.0162 18.3157C76.1749 18.6563 76.6578 19.693 75.2866 21.7522C69.4059 30.5846 63.7419 41.1756 66.3228 52.7575C67.4804 57.9523 70.2932 62.3674 72.7414 67.0119C69.798 74.031 66.7603 81.3039 64.3685 87.0386H38.977V87.0384ZM77.3367 85.8924C77.3367 86.5244 76.8299 87.0384 76.2069 87.0384H70.5514C72.435 84.207 74.5148 81.0779 76.6491 77.8623C77.1103 80.3496 77.3367 83.0028 77.3367 85.8924ZM68.3172 85.1374C75.9059 66.953 85.0542 45.1451 85.9192 43.5023C86.9519 41.5413 89.5049 40.7513 91.4655 41.7827C93.4073 42.8038 94.2183 45.3639 93.1865 47.323C93.057 47.569 92.6427 48.2371 92.0003 49.2429L89.8061 47.9819L90.3673 46.9552C91.2703 45.3027 88.7145 43.9053 87.8112 45.5579L85.3387 50.0812C84.458 51.6927 87.0018 53.1119 87.8948 51.4785L88.4086 50.5385L90.4192 51.6938C85.7438 58.8914 76.1131 73.416 68.3172 85.1374Z" fill="#060606"/>
</g>
<defs>
<clipPath id="clip0_563_8570">
<rect width="100" height="100" fill="white"/>
</clipPath>
</defs>
</svg>
