<svg width="100" height="100" viewBox="0 0 100 100" fill="none" xmlns="http://www.w3.org/2000/svg">
<g clip-path="url(#clip0_562_4583)">
<path d="M42.4676 98.5416C34.4783 98.5416 27.9785 92.0418 27.9785 84.0525V59.0533C27.9785 57.3887 29.3279 56.0391 30.9928 56.0391C32.6574 56.0391 34.007 57.3885 34.007 59.0533V84.0525C34.007 88.7178 37.8025 92.5133 42.4678 92.5133C47.133 92.5133 50.9285 88.7178 50.9285 84.0525V78.023C50.9285 69.2338 58.0791 62.0832 66.8686 62.0832H81.3607C83.0254 62.0832 84.375 63.4326 84.375 65.0975C84.375 66.7621 83.0256 68.1117 81.3607 68.1117H66.8686C61.4033 68.1117 56.957 72.558 56.957 78.0232V84.0527C56.9566 92.0418 50.457 98.5416 42.4676 98.5416Z" fill="#60B8FF"/>
<path d="M81.5379 62.092C81.6102 62.3508 81.6518 62.6224 81.6518 62.9043C81.6518 64.5689 80.3023 65.9185 78.6375 65.9185H64.1453C58.6801 65.9185 54.2338 70.3648 54.2338 75.8301V81.8596C54.2338 89.8488 47.734 96.3486 39.7447 96.3486C36.9398 96.3486 34.3203 95.5451 32.0996 94.1596C34.7328 96.8599 38.4064 98.5414 42.4674 98.5414C50.4566 98.5414 56.9564 92.0416 56.9564 84.0523V78.0228C56.9564 72.5576 61.4027 68.1113 66.868 68.1113H81.3602C83.0248 68.1113 84.3744 66.7619 84.3744 65.0971C84.3744 63.4926 83.1195 62.1846 81.5379 62.092Z" fill="#22A7FF"/>
<path d="M84.434 77.307C91.0659 77.307 96.4422 71.9308 96.4422 65.2988C96.4422 58.6669 91.0659 53.2906 84.434 53.2906C77.802 53.2906 72.4258 58.6669 72.4258 65.2988C72.4258 71.9308 77.802 77.307 84.434 77.307Z" fill="#AB9FAA"/>
<path d="M90.8254 55.1359C91.3039 56.4318 91.5658 57.8326 91.5658 59.2947C91.5658 65.9266 86.1896 71.3029 79.5576 71.3029C77.207 71.3029 75.0158 70.625 73.1641 69.4576C74.8559 74.0396 79.2619 77.307 84.4318 77.307C91.0637 77.307 96.44 71.9308 96.44 65.2988C96.4402 61.0174 94.1979 57.2621 90.8254 55.1359Z" fill="#928392"/>
<path d="M84.4338 71.3029C87.7498 71.3029 90.4379 68.6148 90.4379 65.2988C90.4379 61.9829 87.7498 59.2947 84.4338 59.2947C81.1178 59.2947 78.4297 61.9829 78.4297 65.2988C78.4297 68.6148 81.1178 71.3029 84.4338 71.3029Z" fill="#D8D1D7"/>
<path d="M86.8051 59.7824C87.1635 60.5517 87.3648 61.4092 87.3648 62.3139C87.3648 65.6299 84.6768 68.318 81.3607 68.318C80.518 68.318 79.7162 68.1435 78.9883 67.8303C79.9434 69.8808 82.0215 71.3029 84.4326 71.3029C87.7486 71.3029 90.4367 68.6148 90.4367 65.2988C90.4369 62.8256 88.941 60.7023 86.8051 59.7824Z" fill="#CAC0C9"/>
<path d="M30.9939 61.7385C20.5751 61.7385 11.4015 54.7135 8.68526 44.6549L7.7046 41.0232C7.27061 39.416 8.22159 37.7613 9.82862 37.3275C11.4362 36.8939 13.0905 37.8445 13.5243 39.4516L14.505 43.0832C16.5126 50.5178 23.2931 55.7102 30.9939 55.7102C38.6948 55.7102 45.4751 50.5178 47.4829 43.0832L48.4636 39.4516C48.8976 37.8445 50.5521 36.893 52.1593 37.3275C53.7663 37.7615 54.7173 39.4162 54.2833 41.0232L53.3026 44.6549C50.5864 54.7135 41.4126 61.7385 30.9939 61.7385Z" fill="#60B8FF"/>
<path d="M52.6193 37.4967C52.6545 37.8504 52.6307 38.2158 52.5324 38.5793L51.5518 42.2109C48.8355 52.2695 39.6617 59.2945 29.243 59.2945C22.152 59.2945 15.64 56.0383 11.3457 50.7883C15.4812 57.4549 22.8574 61.7385 30.9932 61.7385C41.4119 61.7385 50.5857 54.7135 53.302 44.6549L54.2826 41.0232C54.673 39.5773 53.9402 38.0959 52.6193 37.4967Z" fill="#22A7FF"/>
<path d="M18.1236 10.1434C20.5219 10.1434 22.466 8.1992 22.466 5.80097C22.466 3.40274 20.5219 1.45859 18.1236 1.45859C15.7254 1.45859 13.7812 3.40274 13.7812 5.80097C13.7812 8.1992 15.7254 10.1434 18.1236 10.1434Z" fill="#BBB0BA"/>
<path d="M19.4096 1.65215C19.8658 2.33945 20.1324 3.16386 20.1324 4.05058C20.1324 6.44883 18.1883 8.39297 15.79 8.39297C15.3422 8.39297 14.9104 8.325 14.5039 8.19922C15.2816 9.3705 16.6121 10.1432 18.1236 10.1432C20.5219 10.1432 22.466 8.19902 22.466 5.80078C22.466 3.85039 21.1799 2.20039 19.4096 1.65215Z" fill="#AB9FAA"/>
<path d="M43.4049 10.1434C45.8031 10.1434 47.7473 8.1992 47.7473 5.80097C47.7473 3.40274 45.8031 1.45859 43.4049 1.45859C41.0067 1.45859 39.0625 3.40274 39.0625 5.80097C39.0625 8.1992 41.0067 10.1434 43.4049 10.1434Z" fill="#BBB0BA"/>
<path d="M44.6908 1.65215C45.1471 2.33945 45.4137 3.16386 45.4137 4.05058C45.4137 6.44883 43.4695 8.39297 41.0713 8.39297C40.6234 8.39297 40.1916 8.325 39.7852 8.19922C40.5629 9.3705 41.8934 10.1432 43.4049 10.1432C45.8031 10.1432 47.7473 8.19902 47.7473 5.80078C47.7473 3.85039 46.4611 2.20039 44.6908 1.65215Z" fill="#AB9FAA"/>
<path d="M84.4318 51.832C78.649 51.832 73.707 55.4963 71.8029 60.6244H66.8678C57.2742 60.6244 49.4693 68.4293 49.4693 78.0229V84.0523C49.4693 87.9135 46.3281 91.0545 42.4672 91.0545C38.6062 91.0545 35.465 87.9133 35.465 84.0523V62.784C39.7738 61.9855 43.7801 60.0521 47.118 57.1488C50.8119 53.9357 53.4367 49.7469 54.7092 45.0352L55.6898 41.4035C56.1998 39.5154 55.4154 37.5787 53.882 36.5367L59.5752 15.4543C60.2969 12.7824 59.7455 9.99004 58.0629 7.79277C56.3803 5.59551 53.8281 4.33535 51.0607 4.33535H49.0168C48.3658 1.84414 46.0963 0 43.4039 0C40.2053 0 37.6031 2.60234 37.6031 5.80078C37.6031 8.99922 40.2055 11.6016 43.4039 11.6016C46.1016 11.6016 48.3748 9.75059 49.0209 7.25215H51.0607C52.9129 7.25215 54.6209 8.09551 55.7471 9.56602C56.8732 11.0365 57.242 12.9055 56.7592 14.6936L51.0656 35.7775C50.3967 35.8229 49.7414 36.0152 49.143 36.3594C48.1072 36.9547 47.3652 37.9178 47.0539 39.0713L46.6959 40.3971C46.4859 41.1748 46.9461 41.9754 47.7236 42.1854C48.5014 42.3951 49.302 41.9352 49.5117 41.1574L49.8697 39.8316C49.9781 39.4303 50.2363 39.0953 50.5965 38.8883C50.9566 38.6814 51.3754 38.627 51.7773 38.7354C52.6053 38.959 53.0973 39.8146 52.8736 40.6428L51.893 44.2744C49.6076 52.7367 42.5119 58.9457 33.8156 60.0924C33.0902 60.1881 32.5478 60.8064 32.5478 61.5383V84.052C32.5478 89.5215 36.9975 93.9711 42.467 93.9711C47.9365 93.9711 52.3861 89.5215 52.3861 84.052V78.0225C52.3861 70.0373 58.8824 63.541 66.8676 63.541H71.0834C71.008 64.1166 70.965 64.7023 70.965 65.2982C70.965 65.7553 70.9885 66.207 71.0332 66.6525H66.8678C60.5982 66.6525 55.4977 71.7531 55.4977 78.0225V84.052C55.4977 91.2371 49.6521 97.0826 42.467 97.0826C35.2818 97.0826 29.4363 91.2371 29.4363 84.052V81.5256C29.4363 80.7201 28.7834 80.0672 27.9779 80.0672C27.1725 80.0672 26.5195 80.7201 26.5195 81.5256V84.052C26.5195 92.8455 33.6734 99.9994 42.467 99.9994C51.2605 99.9994 58.4146 92.8453 58.4146 84.052V78.0225C58.4146 73.3615 62.2066 69.5695 66.8678 69.5695H71.6635C73.4539 74.907 78.499 78.765 84.4318 78.765C91.8574 78.765 97.8984 72.724 97.8984 65.2984C97.8984 57.8729 91.8574 51.832 84.4318 51.832ZM43.4039 8.68477C41.8137 8.68477 40.5199 7.39102 40.5199 5.80078C40.5199 4.21055 41.8135 2.9168 43.4039 2.9168C44.9943 2.9168 46.2879 4.21055 46.2879 5.80078C46.2879 7.39102 44.9941 8.68477 43.4039 8.68477ZM84.4318 75.8484C78.6148 75.8484 73.8822 71.1158 73.8822 65.2988C73.8822 59.4818 78.6148 54.7492 84.4318 54.7492C90.2488 54.7492 94.9814 59.4818 94.9814 65.2988C94.9814 71.1158 90.2488 75.8484 84.4318 75.8484Z" fill="black"/>
<path d="M84.433 57.8361C83.6932 57.8361 82.9615 57.9445 82.2592 58.1582C81.4885 58.3926 81.0539 59.2072 81.2883 59.9779C81.5229 60.7486 82.3377 61.1832 83.1082 60.9488C83.5354 60.8189 83.9811 60.7531 84.4332 60.7531C86.9396 60.7531 88.9787 62.7922 88.9787 65.2986C88.9787 67.8051 86.9395 69.8441 84.4332 69.8441C81.927 69.8441 79.8877 67.8051 79.8877 65.2986C79.8877 65.0168 79.9135 64.7346 79.9647 64.4598C80.1121 63.6678 79.5895 62.9064 78.7975 62.7592C78.0068 62.6111 77.2441 63.1344 77.0971 63.9264C77.0133 64.3766 76.9707 64.8383 76.9707 65.2986C76.9707 69.4135 80.3184 72.7611 84.4332 72.7611C88.548 72.7611 91.8957 69.4135 91.8957 65.2986C91.8957 61.1838 88.548 57.8361 84.433 57.8361Z" fill="black"/>
<path d="M26.5197 75.3031C26.5197 76.1086 27.1727 76.7615 27.9781 76.7615C28.7836 76.7615 29.4365 76.1086 29.4365 75.3031V61.5389C29.4365 60.807 28.8941 60.1885 28.1688 60.093C19.4727 58.9461 12.377 52.7373 10.0916 44.275L9.11094 40.6434C9.00274 40.242 9.05704 39.8229 9.26427 39.4625C9.4713 39.1023 9.80626 38.8443 10.207 38.7359C11.0365 38.5125 11.8914 39.0041 12.115 39.832L13.0957 43.4637C15.2746 51.533 22.6342 57.1688 30.9924 57.1688C37.8723 57.1688 44.1506 53.3875 47.3773 47.3004C47.7545 46.5887 47.4834 45.7059 46.7717 45.3287C46.0598 44.9514 45.1772 45.2227 44.7998 45.9342C42.0803 51.0646 36.7897 54.2518 30.9924 54.2518C23.9494 54.2518 17.7481 49.5027 15.9115 42.7031L14.9309 39.0715C14.4213 37.184 12.769 35.9053 10.919 35.7766L5.22559 14.6938C4.74278 12.9057 5.11192 11.0367 6.2379 9.56602C7.36387 8.09551 9.07208 7.25215 10.9242 7.25215H12.5066C13.1527 9.75059 15.426 11.6016 18.1236 11.6016C21.3223 11.6016 23.9244 8.99922 23.9244 5.80078C23.9244 2.60234 21.3221 0 18.1234 0C15.4311 0 13.1615 1.84414 12.5106 4.33535H10.9242C8.15665 4.33535 5.6045 5.59551 3.92208 7.79277C2.23926 9.99004 1.68829 12.7824 2.40958 15.4543L8.10294 36.5367C6.56954 37.5787 5.78516 39.5154 6.29512 41.4035L7.27579 45.0352C8.54825 49.7471 11.1731 53.9357 14.867 57.1488C18.2047 60.0521 22.2111 61.9855 26.5197 62.784V75.3031ZM18.1234 2.91699C19.7137 2.91699 21.0074 4.21074 21.0074 5.80098C21.0074 7.39121 19.7139 8.68496 18.1234 8.68496C16.533 8.68496 15.2397 7.39102 15.2397 5.80078C15.2397 4.21055 16.5332 2.91699 18.1234 2.91699Z" fill="black"/>
</g>
<defs>
<clipPath id="clip0_562_4583">
<rect width="100" height="100" fill="white"/>
</clipPath>
</defs>
</svg>
