<svg width="100" height="100" viewBox="0 0 100 100" fill="none" xmlns="http://www.w3.org/2000/svg">
<path fill-rule="evenodd" clip-rule="evenodd" d="M32.1729 27.4808H67.8281C70.4082 27.4808 72.5195 29.5916 72.5195 32.1722V67.8275C72.5195 70.4082 70.4082 72.5189 67.8281 72.5189H32.1729C29.5928 72.5189 27.4805 70.4082 27.4805 67.8275V32.1722C27.4805 29.5916 29.5928 27.4808 32.1729 27.4808Z" fill="#5291D9"/>
<path fill-rule="evenodd" clip-rule="evenodd" d="M34.8021 33.389H65.1971C65.9742 33.389 66.6096 34.0252 66.6096 34.8025V65.1974C66.6096 65.9748 65.9742 66.6101 65.1971 66.6101H34.8021C34.0248 66.6101 33.3887 65.9748 33.3887 65.1974V34.8025C33.3887 34.025 34.0246 33.389 34.8021 33.389Z" fill="#00D2FC"/>
<path fill-rule="evenodd" clip-rule="evenodd" d="M50.0004 3.51733C47.3006 3.51733 45.1113 5.70601 45.1113 8.40561C45.1113 11.1044 47.3006 13.2937 50.0004 13.2937C52.6992 13.2937 54.8885 11.1044 54.8885 8.40561C54.8885 5.70601 52.6992 3.51733 50.0004 3.51733Z" fill="#00D2FC"/>
<path fill-rule="evenodd" clip-rule="evenodd" d="M31.0686 8.6543C29.026 8.6543 27.3691 10.3109 27.3691 12.3537C27.3691 14.3963 29.026 16.0531 31.0686 16.0531C33.1113 16.0531 34.768 14.3965 34.768 12.3537C34.7682 10.3109 33.1113 8.6543 31.0686 8.6543Z" fill="#00D2FC"/>
<path fill-rule="evenodd" clip-rule="evenodd" d="M20.9807 17.2812C18.9379 17.2812 17.2812 18.9379 17.2812 20.9807C17.2812 23.0234 18.9379 24.6801 20.9807 24.6801C23.0232 24.6801 24.6799 23.0234 24.6799 20.9807C24.6799 18.9379 23.0232 17.2812 20.9807 17.2812Z" fill="#00D2FC"/>
<path fill-rule="evenodd" clip-rule="evenodd" d="M68.9318 8.6543C70.9746 8.6543 72.6312 10.3109 72.6312 12.3537C72.6312 14.3963 70.9746 16.0531 68.9318 16.0531C66.8893 16.0531 65.2324 14.3965 65.2324 12.3537C65.2324 10.3109 66.8893 8.6543 68.9318 8.6543Z" fill="#00D2FC"/>
<path d="M79.0197 24.6801C81.0629 24.6801 82.7191 23.0238 82.7191 20.9807C82.7191 18.9375 81.0629 17.2812 79.0197 17.2812C76.9766 17.2812 75.3203 18.9375 75.3203 20.9807C75.3203 23.0238 76.9766 24.6801 79.0197 24.6801Z" fill="#00D2FC"/>
<path fill-rule="evenodd" clip-rule="evenodd" d="M50.0004 96.4824C47.3006 96.4824 45.1113 94.2932 45.1113 91.5943C45.1113 88.8945 47.3006 86.7061 50.0004 86.7061C52.6992 86.7061 54.8885 88.8947 54.8885 91.5943C54.8885 94.2932 52.6992 96.4824 50.0004 96.4824Z" fill="#00D2FC"/>
<path fill-rule="evenodd" clip-rule="evenodd" d="M31.0686 91.3454C29.026 91.3454 27.3691 89.6888 27.3691 87.6462C27.3691 85.6034 29.026 83.9468 31.0686 83.9468C33.1113 83.9468 34.768 85.6034 34.768 87.6462C34.7682 89.689 33.1113 91.3454 31.0686 91.3454Z" fill="#00D2FC"/>
<path fill-rule="evenodd" clip-rule="evenodd" d="M20.9807 82.7187C18.9379 82.7187 17.2812 81.0621 17.2812 79.0185C17.2812 76.9757 18.9379 75.3191 20.9807 75.3191C23.0232 75.3191 24.6799 76.9757 24.6799 79.0185C24.6799 81.0619 23.0232 82.7187 20.9807 82.7187Z" fill="#00D2FC"/>
<path fill-rule="evenodd" clip-rule="evenodd" d="M68.9318 91.3454C70.9746 91.3454 72.6312 89.6888 72.6312 87.6462C72.6312 85.6034 70.9746 83.9468 68.9318 83.9468C66.8893 83.9468 65.2324 85.6034 65.2324 87.6462C65.2324 89.689 66.8893 91.3454 68.9318 91.3454Z" fill="#00D2FC"/>
<path fill-rule="evenodd" clip-rule="evenodd" d="M3.51758 50C3.51758 52.6988 5.70684 54.8881 8.40586 54.8881C11.1047 54.8881 13.2941 52.6988 13.2941 50C13.2941 47.301 11.1047 45.1117 8.40586 45.1117C5.70703 45.1117 3.51758 47.301 3.51758 50Z" fill="#00D2FC"/>
<path fill-rule="evenodd" clip-rule="evenodd" d="M8.6543 68.9316C8.6543 70.9744 10.3109 72.631 12.3537 72.631C14.3963 72.631 16.0531 70.9744 16.0531 68.9316C16.0531 66.8888 14.3963 65.2322 12.3537 65.2322C10.3109 65.2322 8.6543 66.8888 8.6543 68.9316Z" fill="#00D2FC"/>
<path fill-rule="evenodd" clip-rule="evenodd" d="M8.6543 31.0675C8.6543 29.0249 10.3109 27.3683 12.3537 27.3683C14.3963 27.3683 16.0531 29.0249 16.0531 31.0675C16.0531 33.1111 14.3963 34.7677 12.3537 34.7677C10.3109 34.7677 8.6543 33.1111 8.6543 31.0675Z" fill="#00D2FC"/>
<path fill-rule="evenodd" clip-rule="evenodd" d="M96.4836 50C96.4836 52.6988 94.2941 54.8881 91.5951 54.8881C88.8961 54.8881 86.707 52.6988 86.707 50C86.707 47.301 88.8963 45.1117 91.5951 45.1117C94.2939 45.1117 96.4836 47.301 96.4836 50Z" fill="#00D2FC"/>
<path fill-rule="evenodd" clip-rule="evenodd" d="M91.3461 68.9316C91.3461 70.9744 89.6893 72.631 87.6467 72.631C85.6039 72.631 83.9473 70.9744 83.9473 68.9316C83.9473 66.8888 85.6039 65.2322 87.6467 65.2322C89.6893 65.2322 91.3461 66.8888 91.3461 68.9316Z" fill="#00D2FC"/>
<path fill-rule="evenodd" clip-rule="evenodd" d="M91.3461 31.0675C91.3461 29.0249 89.6893 27.3683 87.6467 27.3683C85.6039 27.3683 83.9473 29.0249 83.9473 31.0675C83.9473 33.1111 85.6039 34.7677 87.6467 34.7677C89.6893 34.7677 91.3461 33.1111 91.3461 31.0675Z" fill="#00D2FC"/>
<path fill-rule="evenodd" clip-rule="evenodd" d="M79.0197 82.7187C76.977 82.7187 75.3203 81.0621 75.3203 79.0185C75.3203 76.9757 76.977 75.3191 79.0197 75.3191C81.0631 75.3191 82.7191 76.9757 82.7191 79.0185C82.7191 81.0619 81.0631 82.7187 79.0197 82.7187Z" fill="#00D2FC"/>
<path d="M65.4045 32.0312H34.9857C33.4734 32.0312 32.2266 33.2775 32.2266 34.7902V65.209C32.2266 66.7217 33.4734 67.9688 34.9857 67.9688H65.4043C66.9166 67.9688 68.1639 66.7217 68.1639 65.209V34.7902C68.1641 33.2775 66.9168 32.0312 65.4045 32.0312ZM65.4297 65.209C65.4297 65.2531 65.448 65.2344 65.4045 65.2344H34.9857C34.942 65.2344 34.9609 65.2531 34.9609 65.209V34.7902C34.9609 34.7469 34.9422 34.7656 34.9857 34.7656H65.4043C65.448 34.7656 65.4295 34.7469 65.4295 34.7902V65.209H65.4297Z" fill="black"/>
<path d="M85.7432 51.3672C86.3537 54.1016 88.8459 56.24 91.8199 56.24C95.2506 56.24 98.0414 53.4398 98.0414 50.0096C98.0414 46.5793 95.2506 43.7648 91.8199 43.7648C88.8459 43.7648 86.3537 45.8984 85.7432 48.6328H74.0227V42.1875H87.8691C88.6031 42.1875 89.257 41.5611 89.257 40.8272V35.9057C91.4055 35.3211 92.9299 33.3684 92.9299 31.0541C92.9299 28.2797 90.6582 26.023 87.884 26.023C85.1096 26.023 82.8365 28.2797 82.8365 31.0541C82.8365 33.3684 84.3744 35.3211 86.5229 35.9057V39.4531H74.0229V33.0078H79.2354C79.9693 33.0078 80.4682 32.3891 80.4682 31.6551V25.8102C82.6166 25.2258 84.2189 23.273 84.2189 20.9586C84.2189 18.1844 81.9855 15.976 79.2111 15.976C76.8969 15.976 74.9678 17.5779 74.3832 19.7264H68.5393C67.8053 19.7264 67.1869 20.2246 67.1869 20.9586V26.1719H60.7416V13.6719H64.2889C64.8734 15.8203 66.8264 17.3652 69.1408 17.3652C71.915 17.3652 74.1723 15.1039 74.1723 12.3297C74.1723 9.55547 71.915 7.26699 69.1408 7.26699C66.8264 7.26699 64.8732 8.78906 64.2889 10.9375H59.367C58.633 10.9375 58.0072 11.5914 58.0072 12.3252V26.1719H51.5619V14.4504C54.2963 13.8398 56.4348 11.348 56.4348 8.37422C56.4348 4.94395 53.6344 2.15332 50.2037 2.15332C46.7734 2.15332 43.9592 4.94395 43.9592 8.37422C43.9592 11.3484 46.093 13.84 48.8273 14.4506V26.1719H42.382V12.3252C42.382 11.5912 41.7559 10.9375 41.0221 10.9375H36.1004C35.516 8.78906 33.5629 7.26465 31.2484 7.26465C28.4742 7.26465 26.217 9.53613 26.217 12.3104C26.217 15.0848 28.4742 17.3578 31.2484 17.3578C33.5629 17.3578 35.516 15.8203 36.1004 13.6719H39.6477V26.1719H33.2023V20.9588C33.2023 20.2248 32.5836 19.7266 31.8496 19.7266H26.0057C25.4211 17.5781 23.468 15.9762 21.1537 15.9762C18.3793 15.9762 16.1707 18.2088 16.1707 20.983C16.1707 23.2973 17.7729 25.226 19.9213 25.8104V31.6553C19.9213 32.3893 20.4197 33.008 21.1537 33.008H26.3664V39.4533H13.8664V35.9059C16.0148 35.3213 17.5598 33.3686 17.5598 31.0543C17.5598 28.2799 15.2982 26.0232 12.5238 26.0232C9.74961 26.0232 7.46113 28.2799 7.46113 31.0543C7.46113 33.3686 8.9834 35.3213 11.1318 35.9059V40.8273C11.1318 41.5613 11.7854 42.1877 12.5193 42.1877H26.3664V48.633H14.6455C14.0352 45.8986 11.5432 43.7602 8.56914 43.7602C5.13848 43.7602 2.34766 46.5604 2.34766 49.9906C2.34766 53.4209 5.13848 56.2354 8.56914 56.2354C11.5432 56.2354 14.0352 54.1018 14.6455 51.3674H26.3664V57.8127H12.5195C11.7855 57.8127 11.132 58.4383 11.132 59.1723V64.0945C8.98359 64.6791 7.45898 66.6318 7.45898 68.9461C7.45898 71.7205 9.73066 73.9771 12.5049 73.9771C15.2793 73.9771 17.5523 71.7205 17.5523 68.9461C17.5523 66.6318 16.0146 64.6791 13.8662 64.0945V60.5469H26.3662V66.9922H21.1533C20.4193 66.9922 19.9209 67.6109 19.9209 68.3449V74.1891C17.7725 74.7734 16.1703 76.7262 16.1703 79.0406C16.1703 81.8148 18.4031 84.0236 21.1775 84.0236C23.4918 84.0236 25.4209 82.4221 26.0053 80.2736H31.8492C32.5832 80.2736 33.202 79.7746 33.202 79.0406V73.8281H39.6473V86.3281H36.1C35.5154 84.1797 33.5625 82.6348 31.248 82.6348C28.4738 82.6348 26.2166 84.8961 26.2166 87.6703C26.2166 90.4445 28.4738 92.733 31.248 92.733C33.5625 92.733 35.5156 91.2109 36.1 89.0625H41.0217C41.7557 89.0625 42.3816 88.4086 42.3816 87.6748V73.8281H48.827V85.5494C46.0926 86.16 43.9539 88.6518 43.9539 91.6258C43.9539 95.0561 46.7539 97.8467 50.1842 97.8467C53.6146 97.8467 56.4295 95.0561 56.4295 91.6258C56.4295 88.6518 54.2957 86.1602 51.5613 85.5496V73.8281H58.0066V87.6748C58.0066 88.4088 58.6326 89.0625 59.3664 89.0625H64.2883C64.8727 91.2109 66.8258 92.7354 69.1402 92.7354C71.9145 92.7354 74.1717 90.4639 74.1717 87.6897C74.1717 84.9152 71.9145 82.6422 69.1402 82.6422C66.8258 82.6422 64.8727 84.1797 64.2883 86.3281H60.7414V73.8281H67.1867V79.0406C67.1867 79.7746 67.8053 80.2736 68.5391 80.2736H74.383C74.9676 82.4221 76.9207 84.0236 79.235 84.0236C82.0094 84.0236 84.2186 81.791 84.2186 79.0166C84.2186 76.7022 82.6162 74.7734 80.4678 74.1891V68.3449C80.4678 67.6109 79.969 66.9922 79.235 66.9922H74.0227V60.5469H86.5227V64.0943C84.3742 64.6789 82.8291 66.6316 82.8291 68.9459C82.8291 71.7203 85.0904 73.977 87.8648 73.977C90.6391 73.977 92.9277 71.7203 92.9277 68.9459C92.9277 66.6316 91.4055 64.6789 89.257 64.0943V59.1721C89.257 58.4381 88.6031 57.8125 87.8691 57.8125H74.0227V51.3672H85.7432ZM91.8201 46.4369C93.785 46.4369 95.3832 48.0355 95.3832 50C95.3832 51.9645 93.7848 53.5631 91.8201 53.5631C89.8555 53.5631 88.2574 51.9645 88.2574 50C88.2574 48.0355 89.8555 46.4369 91.8201 46.4369ZM85.4963 31.0541C85.4963 29.7453 86.5604 28.6809 87.8691 28.6809C89.1777 28.6809 90.242 29.7453 90.242 31.0541C90.242 32.3627 89.1777 33.4273 87.8691 33.4273C86.5604 33.4273 85.4963 32.3627 85.4963 31.0541ZM69.1406 9.95176C70.4492 9.95176 71.5135 11.0164 71.5135 12.3252C71.5135 13.6338 70.4492 14.6984 69.1406 14.6984C67.8318 14.6984 66.7678 13.6338 66.7678 12.3252C66.7678 11.0164 67.8318 9.95176 69.1406 9.95176ZM46.6316 8.37422C46.6316 6.40957 48.2297 4.81113 50.1939 4.81113C52.1586 4.81113 53.757 6.40977 53.757 8.37422C53.757 10.3391 52.1584 11.9373 50.1939 11.9373C48.2297 11.9373 46.6316 10.3391 46.6316 8.37422ZM31.2484 14.6986C29.9398 14.6986 28.8756 13.634 28.8756 12.3254C28.8756 11.0166 29.9398 9.95195 31.2484 9.95195C32.5572 9.95195 33.6213 11.0166 33.6213 12.3254C33.6213 13.634 32.5572 14.6986 31.2484 14.6986ZM10.1467 31.0541C10.1467 29.7453 11.2109 28.6809 12.5195 28.6809C13.8283 28.6809 14.8924 29.7453 14.8924 31.0541C14.8924 32.3627 13.8283 33.4273 12.5195 33.4273C11.2109 33.4273 10.1467 32.3627 10.1467 31.0541ZM8.56895 53.5631C6.6041 53.5631 5.00586 51.9645 5.00586 50C5.00586 48.0355 6.6043 46.4369 8.56895 46.4369C10.5332 46.4369 12.1313 48.0355 12.1313 50C12.1313 51.9645 10.5332 53.5631 8.56895 53.5631ZM14.8924 68.9459C14.8924 70.2547 13.8283 71.3191 12.5195 71.3191C11.2109 71.3191 10.1467 70.2547 10.1467 68.9459C10.1467 67.6373 11.2109 66.5727 12.5195 66.5727C13.8283 66.5727 14.8924 67.6373 14.8924 68.9459ZM31.2484 90.0482C29.9398 90.0482 28.8756 88.9836 28.8756 87.6748C28.8756 86.3662 29.9398 85.3016 31.2484 85.3016C32.5572 85.3016 33.6213 86.3662 33.6213 87.6748C33.6213 88.9836 32.5572 90.0482 31.2484 90.0482ZM53.7572 91.6258C53.7572 93.5904 52.1586 95.1889 50.1941 95.1889C48.2297 95.1889 46.6318 93.5902 46.6318 91.6258C46.6318 89.6609 48.2299 88.0627 50.1941 88.0627C52.1586 88.0627 53.7572 89.6609 53.7572 91.6258ZM69.1406 85.3014C70.4492 85.3014 71.5135 86.366 71.5135 87.6746C71.5135 88.9834 70.4492 90.048 69.1406 90.048C67.8318 90.048 66.7678 88.9834 66.7678 87.6746C66.7678 86.366 67.8318 85.3014 69.1406 85.3014ZM90.242 68.9459C90.242 70.2547 89.1777 71.3191 87.8691 71.3191C86.5604 71.3191 85.4963 70.2547 85.4963 68.9459C85.4963 67.6373 86.5604 66.5727 87.8691 66.5727C89.1777 66.5727 90.242 67.6373 90.242 68.9459ZM79.2352 18.5854C80.5439 18.5854 81.6084 19.65 81.6084 20.9586C81.6084 22.2674 80.5439 23.332 79.2352 23.332C77.9266 23.332 76.8623 22.2674 76.8623 20.9586C76.8623 19.65 77.9266 18.5854 79.2352 18.5854ZM74.3832 22.2656C74.8516 24.0234 76.1711 25.342 77.9289 25.8102V30.2734H73.7744C73.182 28.5156 71.6789 27.0125 69.9211 26.4201V22.2656H74.3832ZM68.0359 71.2891H32.3533C30.4971 71.2891 28.9055 69.6969 28.9055 67.8412V32.1588C28.9055 30.3023 30.4971 28.7109 32.3533 28.7109H68.0359C69.892 28.7109 71.4836 30.3023 71.4836 32.1588V67.841C71.4836 69.6969 69.892 71.2891 68.0359 71.2891ZM18.7807 20.9588C18.7807 19.6502 19.8447 18.5855 21.1535 18.5855C22.4623 18.5855 23.5264 19.6502 23.5264 20.9588C23.5264 22.2676 22.4623 23.3322 21.1535 23.3322C19.8447 23.3322 18.7807 22.2676 18.7807 20.9588ZM22.4602 25.8102C24.218 25.342 25.5371 24.0234 26.0055 22.2656H30.468V26.4201C28.7102 27.0127 27.2066 28.5156 26.6145 30.2734H22.4602V25.8102ZM21.1535 81.4139C19.8447 81.4139 18.7807 80.3492 18.7807 79.0406C18.7807 77.7318 19.8447 76.6672 21.1535 76.6672C22.4623 76.6672 23.5264 77.7318 23.5264 79.0406C23.5264 80.3492 22.4623 81.4139 21.1535 81.4139ZM26.0055 77.7344C25.5371 75.9766 24.218 74.6572 22.4602 74.1891V69.7266H26.6146C27.207 71.4844 28.7102 72.9865 30.468 73.5791V77.7344H26.0055ZM81.6084 79.0406C81.6084 80.3492 80.5439 81.4139 79.2352 81.4139C77.9266 81.4139 76.8623 80.3492 76.8623 79.0406C76.8623 77.7318 77.9266 76.6672 79.2352 76.6672C80.5439 76.667 81.6084 77.7316 81.6084 79.0406ZM77.9289 74.1891C76.1711 74.6572 74.8516 75.9766 74.3832 77.7344H69.9211V73.5791C71.6789 72.9871 73.1818 71.4844 73.7742 69.7266H77.9289V74.1891Z" fill="black"/>
<path d="M48.1519 40.7879C47.9556 40.2717 47.4617 39.931 46.9097 39.931C46.3578 39.931 45.8636 40.2717 45.6674 40.7879L39.0226 58.2674C38.7619 58.9535 39.1064 59.7205 39.7924 59.9816C40.4801 60.2404 41.2459 59.9365 41.507 59.2504L43.5535 53.9062H50.2658L52.3123 59.2504C52.5138 59.7812 53.0187 60.0885 53.5549 60.0885C53.7119 60.0885 53.8713 60.0502 54.0269 59.9914C54.7131 59.7302 55.0576 58.9582 54.7968 58.272L48.1519 40.7879ZM44.5638 51.1718L46.9097 45.0011L49.2554 51.1718H44.5638Z" fill="black"/>
<path d="M60.1562 39.8923C59.4223 39.8923 58.7891 40.4873 58.7891 41.2212V58.7781C58.7891 59.5121 59.4223 60.107 60.1562 60.107C60.8902 60.107 61.5234 59.5121 61.5234 58.7781V41.2212C61.5234 40.4873 60.8902 39.8923 60.1562 39.8923Z" fill="black"/>
</svg>
