<svg width="100" height="100" viewBox="0 0 100 100" fill="none" xmlns="http://www.w3.org/2000/svg">
<g clip-path="url(#clip0_419_2635)">
<path d="M84.9028 49.6289C79.4341 43.7109 73.2036 41.9336 69.9809 41.3867C68.4184 41.1328 66.7778 40.8008 64.8442 40.3711C65.0395 39.082 65.1372 38.3008 65.1567 38.2031C65.4692 35.5078 63.5552 33.0664 60.8598 32.7539C58.1645 32.4414 55.7231 34.3555 55.4106 37.0508C55.4106 37.0703 55.313 37.8125 55.1177 39.082C51.5239 38.9649 47.9106 39.2578 44.395 39.9805C43.0278 40.2539 41.6606 40.6055 40.313 41.0156L40.2934 40.4297C40.1567 36.6992 40.0786 33.0078 40.0591 29.5313L70.8208 28.125C73.5161 27.9492 75.5864 25.625 75.4106 22.9297C75.2544 20.293 73.0083 18.2617 70.3716 18.3399L40.1372 19.7266C40.2934 11.2109 40.6645 5.35157 40.6645 5.25391C40.8403 2.5586 38.7895 0.214852 36.0747 0.0390707C33.3794 -0.136711 31.0356 1.91407 30.8598 4.62891C30.8403 5.0586 30.4497 11.2305 30.2934 20.1758L14.1997 20.8984C11.4848 21.0352 9.41453 23.3399 9.53171 26.0352C9.66843 28.6328 11.7973 30.7031 14.4145 30.7031H14.6489L30.2153 29.9805C30.2348 33.418 30.313 37.0313 30.4497 40.7227C30.5083 42.2266 30.5669 43.6914 30.645 45.1172C30.0981 45.4297 29.5512 45.7227 29.0239 46.0547C20.6059 51.1719 15.4302 57.5781 14.063 59.4336C13.77 59.8242 13.4966 60.2344 13.2427 60.6641C3.3989 77.3242 8.63328 85.8984 10.4887 88.125C10.5669 88.2227 10.6645 88.3399 10.7427 88.4766C13.8286 92.7344 18.4966 94.9805 24.1411 94.9805C25.5083 94.9805 26.895 94.8438 28.2427 94.6094C31.4262 94.0234 34.5122 92.9883 37.3833 91.5039C38.6528 90.8789 39.8833 90.1367 41.0552 89.3359C41.4067 89.7656 41.7583 90.1758 42.1294 90.5664C44.0239 92.5195 47.1294 92.5586 49.063 90.6641C51.0161 88.7695 51.0552 85.6641 49.1606 83.7305C48.8481 83.3984 48.5356 83.0274 48.2622 82.6563C52.9302 77.0703 56.8559 69.5703 60.02 60.1563C61.2309 56.543 62.1684 53.0859 62.9106 50.0195C64.9223 50.4688 66.6606 50.8008 68.3403 51.0938C70.3325 51.4258 74.1997 52.5586 77.6958 56.3281C81.2895 60.1758 83.1059 65.3516 82.7153 70.6055C82.3442 76.0352 79.7661 81.0547 75.5864 84.5313C71.9341 87.5586 67.4028 89.4922 62.1098 90.2734C59.4145 90.625 57.5395 93.0859 57.8911 95.7813C58.2427 98.4766 60.7036 100.352 63.3989 100C63.4575 100 63.5161 99.9805 63.5747 99.9805C70.6645 98.9258 76.7973 96.2695 81.8364 92.0899C88.0864 86.8945 91.9536 79.375 92.5005 71.2695C93.0864 63.2813 90.3325 55.4492 84.9028 49.6289ZM32.9497 82.7344L32.7934 82.8125C30.7622 83.8281 28.5942 84.5508 26.3481 84.9609C20.9575 85.8399 19.2973 83.5547 18.6919 82.7149C18.4966 82.4609 18.3012 82.168 18.0473 81.875C18.0083 81.8359 14.727 77.4219 21.6802 65.6445C21.7583 65.5274 21.8169 65.4102 21.9145 65.3125C22.8716 64.0234 26.1333 59.9805 31.4848 56.1914C32.5005 66.4063 34.1216 74.5117 36.3677 80.6055C35.2934 81.4258 34.1606 82.1289 32.9497 82.7344ZM50.6645 57.1875C49.102 61.8359 46.895 67.168 43.9262 71.8945C43.8286 71.5234 43.7505 71.1524 43.6528 70.7617L41.27 51.0352C45.0591 49.668 49.0434 48.9453 53.0864 48.8867C52.4614 51.4453 51.6606 54.2773 50.6645 57.1875Z" fill="black"/>
</g>
<defs>
<clipPath id="clip0_419_2635">
<rect width="100" height="100" fill="white"/>
</clipPath>
</defs>
</svg>
