<svg width="100" height="100" viewBox="0 0 100 100" fill="none" xmlns="http://www.w3.org/2000/svg">
<g clip-path="url(#clip0_562_5223)">
<path d="M98.5305 92.6615H35.9082V88.7476C35.9082 86.5859 37.6605 84.8337 39.8221 84.8337H94.6166C96.7783 84.8337 98.5305 86.5859 98.5305 88.7476V92.6615Z" fill="#616161"/>
<path d="M50.7812 15.1663H66.4368V48.4344H50.7812V15.1663Z" fill="#E4E8ED"/>
<path d="M54.6953 48.4344H62.5231V56.2622H54.6953V48.4344Z" fill="#616161"/>
<path d="M54.6953 1.46771H62.5231V15.1663H54.6953V1.46771Z" fill="#616161"/>
<path d="M80.9194 84.8336H69.1777V71.135C69.1777 67.8925 71.8061 65.2642 75.0486 65.2642C78.291 65.2642 80.9194 67.8925 80.9194 71.135V84.8336Z" fill="#C4E5F9"/>
<path d="M66.4375 26.1252V35.91H77.005C83.4897 35.91 88.7467 41.1669 88.7467 47.6517V61.3503C88.7467 65.6734 85.242 69.1781 80.9189 69.1781V78.9628C90.6461 78.9628 98.5314 71.0775 98.5314 61.3503V47.6517C98.5314 35.763 88.8937 26.1252 77.005 26.1252H66.4375Z" fill="#E4E8ED"/>
<path d="M66.4372 38.8454C70.7603 38.8454 74.265 35.3408 74.265 31.0176C74.265 26.6944 70.7603 23.1898 66.4372 23.1898C62.114 23.1898 58.6094 26.6944 58.6094 31.0176C58.6094 35.3408 62.114 38.8454 66.4372 38.8454Z" fill="#C4E5F9"/>
<path d="M22.9932 23.7769C34.8819 23.7769 44.5196 33.4147 44.5196 45.3033C44.5196 48.7744 43.6969 52.0528 42.2376 54.9564L48.0421 66.2427L34.3754 63.5759C31.0733 65.6374 27.1727 66.8298 22.9932 66.8298C11.1046 66.8298 1.4668 57.192 1.4668 45.3033C1.4668 33.4147 11.1046 23.7769 22.9932 23.7769Z" fill="#F88FA4"/>
<path d="M22.9932 60.9589C27.1727 60.9589 31.0733 59.7665 34.3754 57.7051L44.686 59.717L48.0421 66.2427L34.3754 63.5759C31.0733 65.6374 27.1727 66.8298 22.9932 66.8298C11.1046 66.8298 1.4668 57.192 1.4668 45.3033C1.4668 44.3075 1.53588 43.3278 1.6668 42.3679C3.0987 52.8677 12.1005 60.9589 22.9932 60.9589Z" fill="#F05475"/>
<path d="M22.9937 55.0881C28.3977 55.0881 32.7785 50.7073 32.7785 45.3034C32.7785 39.8994 28.3977 35.5186 22.9937 35.5186C17.5898 35.5186 13.209 39.8994 13.209 45.3034C13.209 50.7073 17.5898 55.0881 22.9937 55.0881Z" fill="#9CE3BF"/>
<path d="M22.9937 49.2172C18.6207 49.2172 14.9092 46.3335 13.6595 42.3679C13.3673 43.2951 13.209 44.281 13.209 45.3033C13.209 50.6986 17.5984 55.0881 22.9937 55.0881C28.389 55.0881 32.7785 50.6986 32.7785 45.3033C32.7785 44.281 32.6201 43.2951 32.328 42.3679C31.0783 46.3335 27.3667 49.2172 22.9937 49.2172Z" fill="#87BCC4"/>
<path d="M73.5801 71.4286H76.5155V74.364H73.5801V71.4286Z" fill="white"/>
<path d="M73.5801 77.2994H76.5155V80.2349H73.5801V77.2994Z" fill="white"/>
<path d="M64.9707 29.5499H67.9061V32.4853H64.9707V29.5499Z" fill="white"/>
<path d="M22.3086 40.0196H25.244V42.955H22.3086V40.0196Z" fill="white"/>
<path d="M17.416 44.0313H20.3514V46.9667H17.416V44.0313Z" fill="white"/>
<path d="M25.2441 45.8904H28.1796V48.8259H25.2441V45.8904Z" fill="white"/>
<path d="M90.7036 91.1938H37.3768V88.7476C37.3768 87.3986 38.4741 86.3014 39.823 86.3014H51.8443V83.366H39.823C36.8557 83.366 34.4414 85.7801 34.4414 88.7476V94.1292H90.7036V91.1938Z" fill="black"/>
<path d="M39.8242 97.0646H51.5659V100H39.8242V97.0646Z" fill="black"/>
<path d="M82.877 97.0646H94.6186V100H82.877V97.0646Z" fill="black"/>
<path d="M47.6523 71.6243H64.8735V74.5597H47.6523V71.6243Z" fill="black"/>
<path d="M50.7325 68.2628L43.8783 54.9352C45.2787 51.9096 45.9883 48.673 45.9883 45.3033C45.9883 32.6243 35.6732 22.3092 22.9941 22.3092C22.9937 22.3092 22.9945 22.3092 22.9941 22.3092C14.9675 22.3092 7.65088 26.3902 3.42407 33.2251L5.92074 34.7691C9.609 28.8051 15.9916 25.2446 22.9941 25.2446C34.0546 25.2446 43.0528 34.2429 43.0528 45.3033C43.0528 48.4648 42.3378 51.4908 40.9272 54.2971L40.592 54.9638L45.3536 64.2225L34.0896 62.0247L33.599 62.3309C30.4225 64.3139 26.7554 65.362 22.9941 65.362C11.9337 65.362 2.93542 56.3638 2.93542 45.3033C2.93542 42.4779 3.51057 39.7468 4.64521 37.1861L1.96125 35.9971C0.659883 38.9345 0 42.0656 0 45.3033C0 57.9824 10.3151 68.2975 22.9941 68.2975C27.1092 68.2975 31.1268 67.2026 34.6521 65.1253L50.7325 68.2628Z" fill="black"/>
<path d="M7.33789 43.8356V46.7711H11.8398C12.1025 48.7771 12.8943 50.618 14.0719 52.1491L10.8854 55.3356L12.9612 57.4112L16.1475 54.2249C17.6786 55.4026 19.5195 56.1941 21.5256 56.457V60.9589H24.461V56.457C26.467 56.1943 28.3079 55.4028 29.8391 54.2249L33.0254 57.4112L35.1011 55.3356L31.9146 52.1491C33.0923 50.618 33.8839 48.7771 34.1467 46.7711H38.649V43.8356H34.1471C33.8845 41.8296 33.0929 39.9887 31.915 38.4576L35.1015 35.2711L33.0258 33.1955L29.8395 36.3818C28.3083 35.2041 26.4674 34.4125 24.4614 34.1497V29.6478H21.526V34.1497C19.5199 34.4123 17.679 35.2039 16.1479 36.3818L12.9616 33.1955L10.8858 35.2711L14.0723 38.4576C12.8946 39.9887 12.1031 41.8296 11.8402 43.8356H7.33789ZM22.9935 36.9863C27.5796 36.9863 31.3105 40.7172 31.3105 45.3033C31.3105 49.8894 27.5796 53.6204 22.9935 53.6204C18.4074 53.6204 14.6764 49.8894 14.6764 45.3033C14.6764 40.7172 18.4074 36.9863 22.9935 36.9863Z" fill="black"/>
<path d="M100.001 61.3503V47.6517C100.001 42.7984 98.5064 38.1575 95.6796 34.2309L93.2972 35.946C95.7622 39.3701 97.0651 43.4178 97.0651 47.6517V61.3503C97.0651 69.7575 90.6046 76.681 82.388 77.4254V71.135C82.388 70.9323 82.3774 70.7321 82.3614 70.5337C86.8048 69.8389 90.2158 65.9857 90.2158 61.3503V47.6517C90.2158 40.3679 84.2901 34.4423 77.0064 34.4423H75.0778C75.4997 33.3816 75.7344 32.2268 75.7344 31.0176C75.7344 29.8084 75.4997 28.6536 75.0778 27.593H77.0064C82.5608 27.593 87.7269 29.8119 91.5532 33.8407L93.6817 31.8192C89.2956 27.2012 83.3735 24.6575 77.0064 24.6575H73.2087C71.8299 23.1906 69.9823 22.1699 67.9066 21.8391V16.6341H71.3312V13.6986H63.9927V0H53.2295V13.6986H45.8909V16.6341H49.3156V23.7769H52.251V16.6341H64.9712V21.8391C60.5406 22.545 57.1434 26.3916 57.1434 31.0176C57.1434 35.6436 60.5406 39.4902 64.9712 40.1961V46.9667H52.251V26.7123H49.3156V49.9022H53.2295V57.7299H63.9927V49.9022H67.9066V40.1961C69.9823 39.8654 71.8297 38.8446 73.2087 37.3777H77.0064C82.6714 37.3777 87.2804 41.9865 87.2804 47.6517V61.3503C87.2804 64.6542 84.7479 67.3769 81.522 67.6812C80.2847 65.3714 77.8479 63.7965 75.0494 63.7965C71.0029 63.7965 67.7109 67.0885 67.7109 71.135V77.4951H43.7383V80.4305H67.7109V83.366H54.7811V86.3014H94.6189C95.9678 86.3014 97.0651 87.3986 97.0651 88.7476V91.1937H93.6404V94.1292H100.001V88.7476C100.001 85.78 97.5862 83.366 94.6189 83.366H82.388V80.3746C92.2258 79.6227 100.001 71.3775 100.001 61.3503ZM61.0573 13.6986H56.1649V2.93542H61.0573V13.6986ZM61.0573 54.7945H56.1649V49.9022H61.0573V54.7945ZM66.4389 37.3777C62.9318 37.3777 60.0788 34.5245 60.0788 31.0176C60.0788 27.5108 62.9318 24.6575 66.4389 24.6575C69.9459 24.6575 72.7989 27.5108 72.7989 31.0176C72.7989 34.5245 69.9459 37.3777 66.4389 37.3777ZM79.4526 83.366H70.6463V71.135C70.6463 68.707 72.6216 66.7319 75.0494 66.7319C77.4772 66.7319 79.4526 68.707 79.4526 71.135V83.366Z" fill="black"/>
</g>
<defs>
<clipPath id="clip0_562_5223">
<rect width="100" height="100" fill="white"/>
</clipPath>
</defs>
</svg>
