<svg width="100" height="100" viewBox="0 0 100 100" fill="none" xmlns="http://www.w3.org/2000/svg">
<g clip-path="url(#clip0_417_509)">
<path d="M36.0586 66.1697H66.0825V88.4392H36.0586V66.1697Z" fill="#AAAAAA"/>
<path d="M34.525 91.3373C32.9244 91.3373 31.627 90.0398 31.627 88.4392V69.1765H37.4229V88.4392C37.4229 90.0398 36.1254 91.3373 34.525 91.3373Z" fill="#CBCBCB"/>
<path d="M44.8414 91.3373C43.2408 91.3373 41.9434 90.0398 41.9434 88.4392V69.1765H47.7393V88.4392C47.7395 90.0398 46.442 91.3373 44.8414 91.3373Z" fill="#CBCBCB"/>
<path d="M55.1578 91.3373C53.5572 91.3373 52.2598 90.0398 52.2598 88.4392V69.1765H58.0557V88.4392C58.0559 90.0398 56.7584 91.3373 55.1578 91.3373Z" fill="#CBCBCB"/>
<path d="M65.4742 91.3373C63.8736 91.3373 62.5762 90.0398 62.5762 88.4392V69.1765H68.3721V88.4392C68.3721 90.0398 67.0746 91.3373 65.4742 91.3373Z" fill="#CBCBCB"/>
<path d="M59.8711 57.69C59.8711 49.4803 66.5501 42.8014 74.7597 42.8014C82.9693 42.8014 89.6483 49.4803 89.6483 57.69C89.6483 65.8996 82.9693 72.5786 74.7597 72.5786C66.5501 72.5786 59.8711 65.8996 59.8711 57.69ZM65.7358 57.69C65.7358 62.6658 69.7839 66.7139 74.7597 66.7139C79.7355 66.7139 83.7836 62.6658 83.7836 57.69C83.7836 52.7142 79.7355 48.6661 74.7597 48.6661C69.7841 48.6661 65.7358 52.7142 65.7358 57.69Z" fill="#CBCBCB"/>
<path d="M73.0547 55.5995L51.6263 34.1711L67.616 18.1815L89.0443 39.6098L73.0547 55.5995Z" fill="#CBCBCB"/>
<path d="M54.9805 39.4214L50.6758 35.1167L66.6653 19.1272L70.97 23.4319L54.9805 39.4214Z" fill="#AAAAAA"/>
<path d="M90.4342 44.8396L62.3711 16.7765L71.8319 9.8007C74.1276 8.10791 77.3157 8.34756 79.3326 10.3646L96.8462 27.8782C98.863 29.895 99.1026 33.0833 97.41 35.3788L90.4342 44.8396Z" fill="#DA4A54"/>
<path d="M69.5865 23.9921L62.3711 16.7766L71.8309 9.79967C74.1279 8.10866 77.3143 8.34713 79.3318 10.3647L86.5473 17.5801C84.5318 15.5628 81.3434 15.3243 79.0463 17.0171L69.5865 23.9921Z" fill="#C32430"/>
<path d="M25.2402 72.5785C17.0305 72.5785 10.3516 65.8995 10.3516 57.6899C10.3516 49.4802 17.0305 42.8013 25.2402 42.8013C33.4498 42.8013 40.1288 49.4802 40.1288 57.6899C40.1288 65.8995 33.4498 72.5785 25.2402 72.5785ZM25.2402 48.666C20.2643 48.666 16.2163 52.714 16.2163 57.6899C16.2163 62.6657 20.2643 66.7138 25.2402 66.7138C30.216 66.7138 34.2641 62.6657 34.2641 57.6899C34.2641 52.714 30.216 48.666 25.2402 48.666Z" fill="#CBCBCB"/>
<path d="M12.8203 57.6899C12.8203 49.8969 18.8399 43.4808 26.4747 42.8519C26.0685 42.8187 25.6564 42.8011 25.2404 42.8011C17.0313 42.8011 10.3516 49.4809 10.3516 57.6899C10.3516 65.899 17.0313 72.5787 25.2404 72.5787C25.6564 72.5787 26.0685 72.5611 26.4747 72.5279C18.8399 71.899 12.8203 65.483 12.8203 57.6899Z" fill="#AAAAAA"/>
<path d="M10.9531 39.5977L32.3815 18.1693L48.3711 34.159L26.9428 55.5873L10.9531 39.5977Z" fill="#CBCBCB"/>
<path d="M10.9512 39.5972L15.2559 35.2925L31.2454 51.282L26.9407 55.5867L10.9512 39.5972Z" fill="#AAAAAA"/>
<path d="M54.2061 31.5735H45.7947L24.3633 53.0051L31.6278 75.5613H50.0004H68.373L75.6375 53.0051" fill="#E2DFE2"/>
<path d="M26.3689 42.3815C25.2594 43.4911 23.4602 43.4911 22.3506 42.3815L17.1875 37.2184L21.2059 33.2001L26.3689 38.3632C27.4787 39.4727 27.4787 41.2718 26.3689 42.3815Z" fill="#818181"/>
<path d="M35.1697 33.5793C34.0602 34.6888 32.2609 34.6888 31.1514 33.5793L25.9883 28.4162L30.0066 24.3978L35.1697 29.5609C36.2795 30.6705 36.2795 32.4695 35.1697 33.5793Z" fill="#818181"/>
<path d="M37.6293 16.7764L9.56621 44.8396L2.59037 35.3789C0.897586 33.0832 1.13724 29.8951 3.15424 27.8783L20.6679 10.3647C22.6847 8.34786 25.873 8.10821 28.1685 9.8008L37.6293 16.7764Z" fill="#DA4A54"/>
<path d="M16.7817 37.624L9.5663 44.8394L2.58934 35.3796C0.898329 33.0825 1.13681 29.8962 3.15438 27.8786L10.3698 20.6632C8.35243 22.6786 8.11395 25.8671 9.80673 28.1642L16.7817 37.624Z" fill="#C32430"/>
<path d="M73.6312 42.3815C74.7407 43.4911 76.5399 43.4911 77.6495 42.3815L82.8126 37.2184L78.7942 33.2001L73.6312 38.3632C72.5214 39.4727 72.5214 41.2718 73.6312 42.3815Z" fill="#818181"/>
<path d="M64.8284 33.5793C65.938 34.6888 67.7372 34.6888 68.8468 33.5793L74.0099 28.4162L69.9915 24.3978L64.8284 29.5609C63.7187 30.6705 63.7187 32.4695 64.8284 33.5793Z" fill="#818181"/>
<path d="M49.9996 57.2008C53.7694 57.2008 56.8254 54.1447 56.8254 50.375C56.8254 46.6052 53.7694 43.5492 49.9996 43.5492C46.2298 43.5492 43.1738 46.6052 43.1738 50.375C43.1738 54.1447 46.2298 57.2008 49.9996 57.2008Z" fill="#818181"/>
<path d="M68.3719 75.5611C73.4497 75.5611 77.566 71.4448 77.566 66.367C77.566 61.2892 73.4497 57.1729 68.3719 57.1729C63.2941 57.1729 59.1777 61.2892 59.1777 66.367C59.1777 71.4448 63.2941 75.5611 68.3719 75.5611Z" fill="#818181"/>
<path d="M34.3678 82.4427C40.4573 82.4427 45.3938 77.5062 45.3938 71.4167C45.3938 65.3272 40.4573 60.3907 34.3678 60.3907C28.2783 60.3907 23.3418 65.3272 23.3418 71.4167C23.3418 77.5062 28.2783 82.4427 34.3678 82.4427Z" fill="#818181"/>
<path d="M34.3686 74.3732C36.0014 74.3732 37.325 73.0496 37.325 71.4168C37.325 69.784 36.0014 68.4603 34.3686 68.4603C32.7358 68.4603 31.4121 69.784 31.4121 71.4168C31.4121 73.0496 32.7358 74.3732 34.3686 74.3732Z" fill="#E2DFE2"/>
<path d="M68.3725 69.3235C70.0053 69.3235 71.3289 67.9999 71.3289 66.3671C71.3289 64.7343 70.0053 63.4106 68.3725 63.4106C66.7397 63.4106 65.416 64.7343 65.416 66.3671C65.416 67.9999 66.7397 69.3235 68.3725 69.3235Z" fill="#E2DFE2"/>
<path d="M97.8691 26.8486L80.3602 9.33967C77.8123 6.79141 73.8574 6.49414 70.9568 8.63283L61.4985 15.6067C61.1551 15.8598 60.9393 16.2503 60.9073 16.6757C60.8752 17.1011 61.0305 17.5192 61.3321 17.821L63.6114 20.1003L53.5978 30.1139H46.4019L36.3877 20.0997L38.6674 17.8198C38.9692 17.5181 39.1241 17.0999 39.0923 16.6745C39.0602 16.2491 38.8442 15.8587 38.5008 15.6055L29.043 8.63322C26.1435 6.49395 22.1888 6.79121 19.6398 9.34045L16.8673 12.1131C16.2954 12.685 16.2954 13.6124 16.8673 14.1842C17.4392 14.7561 18.3665 14.7561 18.9384 14.1842L21.7111 11.4116C23.2277 9.89495 25.5797 9.7178 27.3047 10.9905L30.4516 13.3104L6.10098 37.6608L3.78104 34.5149C2.50935 32.7877 2.68631 30.4342 4.20175 28.9187L14.7968 18.3239C15.3686 17.752 15.3686 16.8249 14.7968 16.2528C14.2251 15.6809 13.2977 15.6809 12.7256 16.2528L2.13064 26.8476C-0.416453 29.3947 -0.714307 33.3496 1.42321 36.2522L8.39807 45.7107C8.6512 46.054 9.04163 46.2698 9.46702 46.3019C9.50374 46.3046 9.54027 46.306 9.57679 46.306C9.96351 46.306 10.3366 46.1527 10.6123 45.8771L12.8919 43.5974L14.5925 45.298C10.9995 48.3911 8.89729 52.9062 8.89729 57.6881C8.89729 65.5403 14.5014 72.2456 22.1044 73.7308C22.9312 78.1121 26.0517 81.6918 30.168 83.1684V88.4288C30.168 90.8345 32.1242 92.7915 34.5289 92.7915C36.4209 92.7915 38.035 91.5806 38.6381 89.8932H40.7348C41.3378 91.5806 42.9509 92.7915 44.8421 92.7915C46.7341 92.7915 48.3482 91.5806 48.9513 89.8932H51.0486C51.6515 91.5802 53.2652 92.7909 55.1568 92.7909C57.0484 92.7909 58.6619 91.5802 59.2649 89.8932H61.3624C61.9653 91.5802 63.579 92.7909 65.4704 92.7909C67.8755 92.7909 69.8321 90.8343 69.8321 88.4292V76.9158C72.129 76.5986 74.1935 75.5474 75.7818 74.0062C78.7094 73.8226 81.5225 72.8577 83.9518 71.1988C84.6198 70.7425 84.7914 69.8314 84.3352 69.1634C83.8793 68.4956 82.9678 68.3237 82.3 68.78C81.0133 69.6587 79.5949 70.2982 78.1053 70.6829C78.5754 69.6275 78.8785 68.4829 78.9816 67.2811C82.7633 65.619 85.2399 61.8852 85.2399 57.6883C85.2399 54.4371 83.7467 51.4277 81.2469 49.4585L83.3297 47.3757C86.3827 49.9171 88.1735 53.6892 88.1735 57.6879C88.1735 60.3055 87.4159 62.8432 85.9827 65.0268C85.5389 65.703 85.7272 66.6108 86.4034 67.0548C86.6512 67.2175 86.9299 67.295 87.2057 67.295C87.6825 67.295 88.1501 67.0624 88.4313 66.6341C90.1788 63.9717 91.1024 60.8782 91.1024 57.6881C91.1024 52.9052 89.0001 48.3906 85.4069 45.2989L87.1085 43.5974L89.388 45.8769C89.6635 46.1525 90.0366 46.3058 90.4233 46.3058C90.4598 46.3058 90.4964 46.3044 90.5331 46.3017C90.9585 46.2696 91.3489 46.0538 91.602 45.7105L98.5759 36.2524C100.715 33.3514 100.417 29.3967 97.8691 26.8486ZM74.2576 40.3749C74.2576 40.0073 74.4007 39.6616 74.6607 39.4016L78.7869 35.2754L80.7332 37.2217L76.607 41.3479C76.347 41.6079 76.0015 41.7511 75.6339 41.7511C75.2664 41.7511 74.9207 41.6079 74.6607 41.3479C74.4007 41.0882 74.2576 40.7425 74.2576 40.3749ZM70.6321 27.1209L71.9333 28.422L67.8071 32.5483C67.5472 32.8082 67.2017 32.9514 66.8339 32.9514C66.4663 32.9514 66.1208 32.8082 65.8606 32.5483C65.3241 32.0117 65.3241 31.1385 65.8606 30.6019L69.9868 26.4757L70.6321 27.1209ZM65.6827 22.1714L67.9159 24.4046L63.7897 28.5308C62.1112 30.2094 62.1112 32.9406 63.7897 34.6192C64.6028 35.4323 65.6841 35.8801 66.8339 35.8801C67.9839 35.8801 69.0649 35.4323 69.878 34.6192L74.0042 30.493L76.7158 33.2045L72.5896 37.3307C71.7765 38.1438 71.3286 39.2251 71.3286 40.3749C71.3286 41.5247 71.7765 42.6059 72.5896 43.419C73.4027 44.2321 74.4837 44.68 75.6338 44.68C76.7838 44.68 77.8648 44.2321 78.6779 43.419L82.8041 39.2928L85.0373 41.5261L75.6304 50.9332L56.2756 31.5785L65.6827 22.1714ZM59.5184 77.0197H61.1086V86.9643H59.5184V77.0197ZM49.4658 74.0908L57.7209 65.9866C57.7166 66.1116 57.7113 66.2366 57.7113 66.3626C57.7113 69.4028 58.9932 72.1476 61.0422 74.0908H49.4658ZM38.8917 83.0488C39.4415 82.8346 39.9723 82.5832 40.4813 82.2963V86.9643H38.8917V83.0488ZM49.205 77.0197H50.7951V86.9643H49.205V77.0197ZM46.8021 72.6013C46.8394 72.2093 46.8603 71.8126 46.8603 71.4111C46.8603 64.5255 41.2583 58.9235 34.3727 58.9235C34.103 58.9235 33.836 58.935 33.5703 58.952L41.7351 50.9681C42.0405 55.2623 45.6294 58.6635 50 58.6635C54.5703 58.6635 58.2885 54.9453 58.2885 50.375C58.2885 50.1792 58.2793 49.9859 58.2658 49.7937L66.6655 55.8439C64.41 56.2076 62.3887 57.2801 60.8403 58.827L60.842 58.818L46.8021 72.6013ZM20.8435 51.5492L23.0851 53.7908L25.8308 62.3143C24.972 63.1213 24.2269 64.0471 23.6228 65.0669C20.229 64.3133 17.6878 61.2385 17.6878 57.6883C17.688 55.2289 18.8747 52.9601 20.8435 51.5492ZM50 45.0153C52.9553 45.0153 55.3596 47.4197 55.3596 50.375C55.3596 53.3302 52.9553 55.7346 50 55.7346C47.0447 55.7346 44.6403 53.3302 44.6403 50.375C44.6403 47.4197 47.0447 45.0153 50 45.0153ZM72.8851 56.7143C72.8851 56.7143 55.1807 43.9044 54.9744 43.7491C53.5879 42.7056 51.8648 42.0864 50 42.0864C47.8433 42.0864 45.8769 42.9151 44.4009 44.2698L28.1976 60.109L26.0384 53.4064L46.4021 33.0428H53.598L73.9615 53.4062L72.8951 56.7186C72.8917 56.7172 72.8884 56.7158 72.8851 56.7143ZM21.2132 35.2756L25.3394 39.4018C25.5994 39.6618 25.7425 40.0073 25.7425 40.3749C25.7425 40.7425 25.5994 41.0882 25.3394 41.3479C25.0794 41.6079 24.7339 41.7511 24.3662 41.7511C23.9986 41.7511 23.6531 41.6079 23.3931 41.3479L19.2669 37.2217L21.2132 35.2756ZM9.74496 42.6022L7.859 40.0448L32.8358 15.068L35.3926 16.9528L9.74496 42.6022ZM17.196 39.293L21.322 43.419C22.1351 44.2321 23.2162 44.68 24.3662 44.68C25.5162 44.68 26.5972 44.2321 27.4103 43.419C28.2234 42.6059 28.6713 41.5247 28.6713 40.3749C28.6713 39.2251 28.2234 38.1438 27.4103 37.3307L23.2841 33.2045L23.3181 33.1705L25.9957 30.493L30.1219 34.6192C30.935 35.4323 32.016 35.8801 33.166 35.8801C34.316 35.8801 35.3971 35.4323 36.2102 34.6192C37.8887 32.9406 37.8887 30.2094 36.2102 28.5308L32.084 24.4046L34.3172 22.1714L43.7243 31.5785L24.3695 50.9332L14.9628 41.5264L17.196 39.293ZM30.0131 26.4757L34.1393 30.6019C34.6758 31.1385 34.6758 32.0117 34.1393 32.5483C33.8793 32.8082 33.5336 32.9514 33.166 32.9514C32.7985 32.9514 32.4528 32.8082 32.1928 32.5483L28.0668 28.422L30.0131 26.4757ZM11.8262 57.6881C11.8262 53.6904 13.6169 49.9179 16.6694 47.3749L18.7526 49.4581C16.2524 51.4275 14.7589 54.4369 14.7589 57.6881C14.7589 60.3168 15.7399 62.8331 17.5214 64.7733C18.8581 66.2292 20.5556 67.2647 22.4228 67.787C22.1413 68.713 21.965 69.6839 21.9074 70.6864C16.0567 69.186 11.8262 63.87 11.8262 57.6881ZM24.814 71.4111C24.814 66.1405 29.1021 61.8524 34.3727 61.8524C39.6432 61.8524 43.9314 66.1403 43.9314 71.4111C43.9314 76.6818 39.6432 80.9697 34.3727 80.9697C29.1021 80.9697 24.814 76.6818 24.814 71.4111ZM34.5289 89.8626C33.7395 89.8626 33.0969 89.2194 33.0969 88.4288V83.834C33.5164 83.8768 33.9418 83.8987 34.3725 83.8987C34.9116 83.8987 35.4414 83.8606 35.9627 83.794V88.4288C35.9627 89.2194 35.3196 89.8626 34.5289 89.8626ZM44.8421 89.8626C44.0526 89.8626 43.4103 89.2194 43.4103 88.4288V80.0355L46.2761 77.222V88.4286C46.2761 89.2194 45.6329 89.8626 44.8421 89.8626ZM55.1568 89.862C54.3668 89.862 53.724 89.2192 53.724 88.4292V77.0197H56.5895V88.4292C56.5895 89.2192 55.9469 89.862 55.1568 89.862ZM65.4704 89.862C64.6803 89.862 64.0378 89.2192 64.0378 88.4292V77.0197H66.9032V88.4292C66.9032 89.2192 66.2604 89.862 65.4704 89.862ZM68.3677 74.09C64.1069 74.09 60.6403 70.6235 60.6403 66.3626C60.6403 62.1018 64.1067 58.6352 68.3677 58.6352C72.6285 58.6352 76.0951 62.1016 76.0951 66.3626C76.0951 70.6235 72.6285 74.09 68.3677 74.09ZM82.311 57.6883C82.311 60.3348 80.9443 62.7264 78.7764 64.0856C78.2865 61.8448 77.0902 59.8658 75.4324 58.3945L76.9144 53.7912L79.156 51.5496C81.1244 52.9599 82.311 55.2287 82.311 57.6883ZM90.255 42.6017L64.6071 16.9538L67.1643 15.0682L92.1405 40.0444L90.255 42.6017ZM96.2185 34.5137L93.8983 37.6602L69.5484 13.3102L72.6949 10.9901C74.4207 9.7176 76.7732 9.89456 78.289 11.4106L95.798 28.9195C97.314 30.4355 97.4908 32.7883 96.2185 34.5137Z" fill="black"/>
<path d="M38.7934 71.4111C38.7934 68.9738 36.8105 66.991 34.3732 66.991C31.9359 66.991 29.9531 68.9738 29.9531 71.4111C29.9531 73.8484 31.9359 75.8312 34.3732 75.8312C36.8105 75.8312 38.7934 73.8484 38.7934 71.4111ZM32.882 71.4111C32.882 70.5888 33.551 69.9199 34.3732 69.9199C35.1955 69.9199 35.8645 70.5888 35.8645 71.4111C35.8645 72.2334 35.1955 72.9023 34.3732 72.9023C33.551 72.9023 32.882 72.2334 32.882 71.4111Z" fill="black"/>
<path d="M68.3674 61.9425C65.9301 61.9425 63.9473 63.9253 63.9473 66.3626C63.9473 68.7999 65.9301 70.7827 68.3674 70.7827C70.8047 70.7827 72.7875 68.7999 72.7875 66.3626C72.7875 63.9253 70.8047 61.9425 68.3674 61.9425ZM68.3674 67.8538C67.5451 67.8538 66.8762 67.1849 66.8762 66.3626C66.8762 65.5404 67.5451 64.8714 68.3674 64.8714C69.1897 64.8714 69.8586 65.5404 69.8586 66.3626C69.8586 67.1849 69.1897 67.8538 68.3674 67.8538Z" fill="black"/>
</g>
<defs>
<clipPath id="clip0_417_509">
<rect width="100" height="100" fill="white"/>
</clipPath>
</defs>
</svg>
