<svg width="100" height="100" viewBox="0 0 100 100" fill="none" xmlns="http://www.w3.org/2000/svg">
<g clip-path="url(#clip0_562_3487)">
<path d="M95.2803 23.5352L86.304 29.3683L80.9156 26.0215C70.5969 26.8779 60.2546 25.7434 49.9996 22.6108C33.8933 17.6909 17.5712 17.6909 1.46484 22.6108V66.8905C8.32573 64.7948 15.2259 63.5917 22.1317 63.2813C31.4377 62.8632 40.7542 64.0663 49.9996 66.8905C52.0352 67.5124 54.0742 68.0549 56.1158 68.5196L67.9715 70.3315C77.191 71.0561 86.4286 70.1895 95.6047 67.7297V23.45C95.4965 23.4789 95.3885 23.5067 95.2803 23.5352Z" fill="#F5FCFF"/>
<path d="M98.5351 22.6108C97.5594 22.9088 96.5828 23.1881 95.6055 23.45V67.7297C96.5828 67.4678 97.5594 67.1885 98.5351 66.8905V22.6108Z" fill="#DCE7EF"/>
<path d="M80.915 26.0215C72.6022 40.2665 57.458 66.2089 56.1152 68.5194C60.0597 69.417 64.0136 70.0204 67.971 70.3313C74.2708 59.5323 91.6255 29.8045 95.28 23.5352C90.5042 24.7955 85.7123 25.6234 80.915 26.0215Z" fill="#DCE7EF"/>
<path d="M88.0298 19.1202C85.1044 17.4311 82.5955 17.3776 81.792 18.7696C80.9982 20.1444 52.3371 69.2358 51.5434 70.6106V76.4699L45.962 84.6613C45.4516 85.9818 44.9331 87.3271 44.4184 88.6646C44.2061 89.2161 44.4317 89.8128 44.8827 90.3399C45.9622 91.229 47.5584 91.1456 47.9268 90.6899C48.8276 89.5755 49.7334 88.4536 50.6219 87.3515L60.1872 75.6008C60.1872 75.6008 89.3651 24.4619 90.1026 23.1844C90.9059 21.7928 89.9788 20.5149 88.0298 19.1202Z" fill="#DC8995"/>
<path d="M88.0303 19.1202C89.1403 20.0479 89.7194 21.4903 88.9157 22.8822C88.1219 24.257 59.4608 73.3485 58.6671 74.7232V76.6764L49.2894 86.5821C48.4009 87.6843 47.4951 88.8061 46.5943 89.9206C46.226 90.3763 45.5816 90.4741 44.8828 90.3399C45.9478 91.585 48.2783 92.4407 49.1314 91.3854C50.0322 90.271 50.938 89.1491 51.8265 88.047V86.0939L61.204 76.1881C61.9979 74.8131 90.659 25.7217 91.4526 24.3471C92.2565 22.9553 90.9559 20.8092 88.0303 19.1202Z" fill="#CD5668"/>
<path d="M45.9629 84.6616L49.29 86.5825L55.2475 81.3854L58.6678 74.7235L51.5443 70.6108C51.1863 71.2307 48.6951 77.5907 45.9629 84.6616Z" fill="#87A0AF"/>
<path d="M58.6668 74.7234C58.3088 75.3434 54.0467 80.6809 49.2891 86.5824L51.8262 88.0473C56.5838 82.1457 60.8459 76.8082 61.2037 76.1883L58.6668 74.7234Z" fill="#607882"/>
<path d="M44.6961 95.0888C44.4477 95.0888 44.1958 95.0255 43.9651 94.8923C43.2645 94.4878 43.0245 93.5919 43.429 92.8913L44.1313 91.6747C43.0319 90.6232 42.6018 89.3072 43.0516 88.1388C49.6885 70.8946 50.1147 70.1565 50.2752 69.8786C50.3377 69.7698 50.5754 69.3618 50.9594 68.703C50.4959 68.5694 50.0324 68.4319 49.5721 68.2915C42.9839 66.2819 37.6448 65.015 28.2709 64.7083C27.8092 64.6935 27.348 64.6825 26.8863 64.6757L27.6402 69.6891C28.2953 74.043 25.344 78.169 21.0614 78.8863C18.9249 79.2451 16.7831 78.7416 15.0311 77.4699C13.2788 76.1983 12.1364 74.319 11.8146 72.1782C11.6943 71.3782 12.2452 70.6321 13.0452 70.5118C13.845 70.3923 14.5915 70.9425 14.7116 71.7426C14.9159 73.1003 15.6405 74.2924 16.7518 75.0991C17.8628 75.9053 19.2212 76.2237 20.5774 75.9973C23.293 75.5422 25.1617 72.9081 24.7432 70.1251L23.9254 64.6884C21.6659 64.7404 19.4051 64.8894 17.1475 65.1357C12.0747 65.6917 6.9902 66.7401 1.97403 68.2671C1.97305 68.2673 1.97129 68.2679 1.97031 68.2683C1.96543 68.2698 1.96094 68.2712 1.95586 68.2726C1.95293 68.2733 1.94981 68.2743 1.94707 68.2753C1.94297 68.2765 1.93946 68.2776 1.93535 68.279C1.93067 68.2804 1.92813 68.2811 1.92344 68.2827C1.9209 68.2835 1.91739 68.2845 1.91485 68.2852C1.90801 68.2874 1.9 68.2897 1.89336 68.2919C1.11974 68.5278 0.300992 68.0927 0.0644702 67.319C0.0211112 67.1769 0.000408222 67.0333 0.000212911 66.8921C-0.000373022 66.2642 0.405874 65.6831 1.03751 65.49C1.04474 65.4878 1.05216 65.4855 1.05938 65.4833C1.06349 65.4821 1.06524 65.4816 1.06915 65.4802C1.07306 65.479 1.07716 65.4777 1.08106 65.4765C1.08517 65.4753 1.08966 65.4737 1.09376 65.4726C1.0963 65.4718 1.09903 65.471 1.10157 65.47C1.10763 65.4683 1.11173 65.4669 1.11778 65.4654C1.11856 65.465 1.11974 65.4648 1.12052 65.4644C5.23338 64.2124 9.36108 63.2755 13.4956 62.654C12.5892 62.0894 11.7251 61.4181 10.9173 60.6453C9.43295 59.2252 8.24409 57.5525 7.3982 55.7371C5.56033 56.1672 3.72597 56.6617 1.89336 57.2217C1.11974 57.4578 0.300992 57.0223 0.0644702 56.2488C-0.171856 55.475 0.263883 54.6563 1.03751 54.4199C2.82382 53.8742 4.6119 53.3883 6.40309 52.9615C6.08063 51.7075 5.91286 50.4157 5.91286 49.1165C5.91286 47.6669 6.10915 46.2475 6.49274 44.8854C4.95369 45.2636 3.41874 45.6862 1.89356 46.152C1.12032 46.3882 0.300992 45.9526 0.0646655 45.1792C-0.171661 44.4054 0.264078 43.5866 1.03751 43.3503C3.29921 42.6595 5.58259 42.0603 7.86929 41.5571C8.19253 40.9784 8.55464 40.4173 8.95444 39.8767L14.5896 32.2459C10.3484 32.8488 6.09079 33.7994 1.89317 35.0818C1.11895 35.3177 0.300601 34.8824 0.0642749 34.109C-0.172051 33.3351 0.263687 32.5164 1.03712 32.2801C6.30798 30.6699 11.6736 29.5652 16.9911 28.9947L18.2921 27.2332L17.33 20.8362C12.1716 21.3872 7.01988 22.4458 1.89317 24.012C1.11954 24.2481 0.300796 23.8127 0.0642749 23.0391C-0.172051 22.2653 0.263687 21.4466 1.03731 21.2102C6.30505 19.6011 11.5954 18.5095 16.8956 17.9347C16.0874 12.0113 17.8782 7.47752 21.834 5.46816C24.1149 4.30841 26.9475 5.01231 28.4221 7.10428C30.4633 10.0004 30.531 13.674 28.7002 17.5099C35.9615 17.7739 43.2169 19.0073 50.4281 21.21C51.2018 21.4464 51.6373 22.2651 51.401 23.0389C51.1647 23.8124 50.3457 24.2475 49.5721 24.0118C42.0749 21.7216 34.529 20.5169 26.9793 20.3975C26.9111 20.4927 26.8418 20.5884 26.7715 20.6835L21.3696 27.9975L21.4659 28.6375C31.124 28.134 40.8626 29.3578 50.4279 32.2797C56.9486 34.2715 63.5847 35.4548 70.1616 35.7988C71.8368 32.9285 73.4342 30.1912 74.8514 27.7629C68.2772 27.8067 61.6771 27.0567 55.1638 25.5235C54.3765 25.3381 53.8883 24.5495 54.0736 23.7618C54.259 22.9741 55.048 22.487 55.8353 22.6715C62.7007 24.2875 69.6766 25.004 76.5793 24.8016C78.8347 20.9364 80.3519 18.3349 80.524 18.0368C81.1959 16.8735 82.5326 16.2509 84.1833 16.3259C85.5613 16.3896 87.1446 16.9171 88.7626 17.8515C91.1462 19.2274 92.6514 20.9444 93.0516 22.5878C94.7377 22.1831 96.4329 21.721 98.1067 21.2094C98.8811 20.9735 99.6992 21.4087 99.9356 22.1823C100.172 22.9559 99.7361 23.7749 98.9627 24.0112C97.7813 24.3721 96.5893 24.7094 95.3965 25.0204C96.0608 25.5909 96.5385 26.3469 96.77 27.2112C97.0739 28.3451 96.9178 29.5293 96.3309 30.5459L94.7864 33.2211C95.8967 32.9303 97.0039 32.616 98.1067 32.2793C98.8813 32.0432 99.699 32.4787 99.9356 33.2521C100.172 34.0259 99.7361 34.8447 98.9627 35.081C96.9073 35.7089 94.8352 36.2605 92.7585 36.7334L87.4892 45.8602C91.0436 45.2614 94.592 44.4227 98.1067 43.3491C98.8813 43.1134 99.699 43.5483 99.9356 44.322C100.172 45.0958 99.7361 45.9145 98.9627 46.1509C94.5479 47.4993 90.0808 48.4899 85.6111 49.1133L84.2956 51.3916C83.8912 52.0924 82.9949 52.3319 82.2947 51.9278C81.5941 51.5233 81.3541 50.6274 81.7586 49.9268L81.9824 49.5389C80.7517 49.6559 79.522 49.7448 78.2941 49.8053C78.0605 50.2055 77.8269 50.6055 77.5937 51.0053C76.2172 53.3637 74.8313 55.7383 73.4875 58.0406C81.7048 58.1193 89.9718 56.9039 98.1069 54.4188C98.8815 54.183 99.6992 54.618 99.9358 55.3916C100.172 56.1654 99.7363 56.9842 98.9629 57.2205C89.9923 59.9605 80.8562 61.2099 71.7971 60.9369C70.1284 63.7964 68.5637 66.4771 67.2096 68.7977C77.5074 69.7204 87.8925 68.6085 98.1069 65.4886C98.8815 65.2527 99.6992 65.688 99.9358 66.4614C100.172 67.2353 99.7363 68.054 98.9629 68.2903C87.9341 71.6592 76.708 72.7661 65.5851 71.5821C63.7939 74.652 62.623 76.66 62.473 76.9196C62.2976 77.2235 61.8866 77.9352 50.2709 92.3054C49.4891 93.2726 48.1373 93.5552 46.6723 93.1321L45.9663 94.355C45.6946 94.8261 45.2022 95.0888 44.6961 95.0888ZM45.8135 89.1185C45.875 89.2681 46.1498 89.6474 46.7555 89.9986C47.3854 90.3636 47.8762 90.4154 48.0498 90.3933C48.5951 89.7187 49.1149 89.0751 49.6117 88.4597L46.7123 86.7859C46.426 87.5281 46.127 88.304 45.8135 89.1185ZM47.7809 84.0199L51.4729 86.1513C55.897 80.6574 58.0314 77.9571 59.0521 76.6371L52.2305 72.6987C51.5998 74.2381 50.3287 77.4363 47.7809 84.0199ZM53.5494 70.0772L60.6726 74.1899C62.7782 70.578 89.7892 24.2993 90.1845 23.6149C90.3764 23.2817 89.7999 21.8335 87.298 20.3889C86.1011 19.6979 84.9472 19.2944 84.0482 19.253C83.5488 19.2298 83.1619 19.328 83.0611 19.5022C82.6636 20.1903 55.6683 66.4421 53.5494 70.0772ZM50.4277 65.4896C51.1092 65.6978 51.798 65.8989 52.4832 66.09C54.7439 62.2144 58.4685 55.8326 62.4296 49.0458C58.1382 48.421 53.8217 47.4497 49.5717 46.1516C43.8856 44.4145 38.1271 43.2966 32.3744 42.8085C34.3558 44.7919 35.5824 47.529 35.5824 50.5473C35.5824 50.7854 35.5765 51.0223 35.5648 51.2582C40.5319 51.8575 45.4897 52.9114 50.4277 54.4197C51.3627 54.7053 52.31 54.9771 53.2428 55.2281C54.024 55.4381 54.4871 56.2418 54.2771 57.023C54.067 57.8043 53.2637 58.2668 52.4822 58.0574C51.5176 57.798 50.5385 57.5168 49.5719 57.2217C44.7696 55.7547 39.9454 54.733 35.1144 54.1567C34.4841 56.5287 33.2314 58.701 31.4382 60.4773C30.9402 60.9705 30.409 61.4253 29.8488 61.8394C36.7267 62.1861 43.5967 63.4029 50.4277 65.4896ZM10.3513 55.1018C11.0161 56.3586 11.8882 57.5201 12.9421 58.5281C15.0853 60.5783 17.4729 62.106 21.5399 61.8431C22.1916 61.8009 22.8321 61.7107 23.4569 61.5746L22.2686 53.6735C17.5475 53.8813 15.3198 54.1281 10.3513 55.1018ZM25.2199 53.599L26.2725 60.5972C27.4199 60.0347 28.4685 59.2951 29.3763 58.3959C30.6775 57.1068 31.6187 55.5545 32.1498 53.859C29.841 53.6707 27.5307 53.5834 25.2199 53.599ZM9.86283 44.1296C9.19018 45.6899 8.84194 47.3764 8.84194 49.1161C8.84194 50.2022 8.98667 51.2823 9.26479 52.3305C11.7327 51.8301 14.2015 51.4432 16.6749 51.1684C16.2714 50.2303 16.0434 49.1909 16.0434 48.1747C16.0434 45.0085 17.7667 42.2372 20.3247 40.7493L18.9081 31.3299L11.9411 40.763C12.4855 40.6704 13.0294 40.5837 13.5726 40.5027C14.3726 40.3843 15.1183 40.9351 15.2376 41.7353C15.3569 42.5355 14.8052 43.2808 14.005 43.4003C12.628 43.606 11.2458 43.8493 9.86283 44.1296ZM25.7324 50.6655C28.0369 50.6655 30.3422 50.7631 32.6455 50.9584C32.6503 50.8219 32.6529 50.6848 32.6529 50.5475C32.6529 45.7214 29.1855 42.5237 24.4584 42.5237C24.1553 42.5327 23.8582 42.5655 23.5688 42.6204L24.7797 50.6711C25.0969 50.6672 25.4151 50.6655 25.7324 50.6655ZM20.8141 44.0034C19.6835 45.038 18.9731 46.5249 18.9731 48.1745C18.9731 49.1262 19.3212 50.1594 19.8559 50.877C20.5133 50.8295 21.1725 50.7901 21.8301 50.7586L20.8141 44.0034ZM85.1183 38.1136C83.5414 40.8157 81.8238 43.7583 80.0711 46.7612C81.3119 46.6692 82.5544 46.5475 83.7968 46.3966L88.9237 37.5165C87.6536 37.7456 86.3843 37.9451 85.1183 38.1136ZM25.7192 39.596C33.9622 39.596 42.2682 40.8573 50.4277 43.3499C54.9244 44.7233 59.4966 45.7182 64.0271 46.3091C64.5095 45.4827 67.5057 40.3491 68.5077 38.632C62.1859 38.1837 55.8252 36.9919 49.5717 35.0816C40.4282 32.2887 31.1261 31.1018 21.9034 31.5488L23.1325 39.7214C23.7471 39.6134 24.4571 39.596 25.7192 39.596ZM92.0038 26.3121C91.0557 27.9383 89.2573 31.0207 87.0095 34.8724C88.2946 34.6636 89.5811 34.4226 90.8673 34.1502L93.7936 29.0817C93.9893 28.7428 94.0413 28.3481 93.9399 27.9701C93.8385 27.5922 93.5964 27.2764 93.2575 27.0807C93.2462 27.0742 93.235 27.0676 93.2239 27.0606L92.0038 26.3121ZM20.2536 20.5782L20.7532 23.9006L23.3205 20.4247C22.2977 20.4559 21.2762 20.5069 20.2536 20.5782ZM24.1746 7.83768C23.8303 7.83768 23.4828 7.916 23.1608 8.07967C19.2258 10.0785 19.4868 15.3484 19.8169 17.6702C21.6764 17.5353 23.5381 17.464 25.3985 17.4564C26.7225 15.2101 28.0766 11.6994 26.0272 8.79158C25.594 8.17693 24.891 7.83768 24.1746 7.83768Z" fill="black"/>
</g>
<defs>
<clipPath id="clip0_562_3487">
<rect width="100" height="100" fill="white"/>
</clipPath>
</defs>
</svg>
