<svg width="100" height="100" viewBox="0 0 100 100" fill="none" xmlns="http://www.w3.org/2000/svg">
<g clip-path="url(#clip0_559_2524)">
<path d="M98.1705 67.6444L72.2186 52.9301L65.6599 51.8973L50.0923 60.8961L50.0551 65.4972L49.957 72.0177L67.8983 82.3698L77.3305 81.0037L98.1783 68.866C98.647 68.5915 98.6431 67.913 98.1705 67.6444Z" fill="#E19974"/>
<path d="M51.4281 59.982L35.8352 50.3165L27.9665 52.9715L2.08711 67.6446C1.61454 67.9132 1.61062 68.5917 2.08123 68.8662L22.8173 80.9411H22.8192L22.8194 80.9409L33.4182 80.1888C33.4182 80.1888 49.8476 70.1623 50.0925 69.8476C50.3374 69.5329 50.0553 65.4973 50.0553 65.4973L51.4281 59.982Z" fill="#E19974"/>
<path d="M72.2193 52.9301L50.0558 65.4972L27.9668 52.9713L49.7813 40.6022C49.997 40.4787 50.2617 40.4787 50.4774 40.6022L72.2193 52.9301Z" fill="#E8AD8C"/>
<path d="M35.4802 78.9285C34.2241 79.697 33.4182 80.1888 33.4182 80.1888L22.8194 80.9409L22.8192 80.9411H22.8173L2.08123 68.8662C1.61062 68.5917 1.61454 67.9132 2.08711 67.6446L27.9665 52.9715L35.8352 50.3165L41.6379 53.9135L24.2175 63.8258C20.9776 65.6694 20.9382 70.3253 24.1465 72.2234L35.4802 78.9285Z" fill="#DC8758"/>
<path d="M77.2928 80.9409L77.3301 81.0037L50.4821 96.6356C50.2644 96.7631 49.9938 96.7631 49.7742 96.6356L22.8184 80.9409L50.0546 65.4973L77.2928 80.9409Z" fill="#E8AD8C"/>
<path d="M38.5497 80.715H38.5477L30.9841 76.3105L22.8184 80.9407L49.7742 96.6354C49.9938 96.7628 50.2644 96.7628 50.4821 96.6354L58.1877 92.1489L38.5497 80.715Z" fill="#E19974"/>
<path d="M43.6962 52.7456L57.7939 44.752L50.4754 40.6022C50.2597 40.4787 49.995 40.4787 49.7793 40.6022L27.9648 52.9713L35.6308 57.3183L43.6962 52.7456Z" fill="#E19974"/>
<path d="M82.4532 27.3835H75.4512V23.6587C75.4512 16.0629 81.6086 9.90546 89.2044 9.90546H95.1478C95.7325 9.90546 96.2066 10.3794 96.2066 10.9643V13.6305C96.2064 21.2259 90.0489 27.3835 82.4532 27.3835Z" fill="#BBEC6C"/>
<path d="M70.2558 33.8108H75.8092V29.5634C75.8092 24.1214 71.3976 19.7097 65.9555 19.7097H61.2551C60.7841 19.7097 60.4023 20.0915 60.4023 20.5625V23.9569C60.4023 29.3993 64.8139 33.8108 70.2558 33.8108Z" fill="#BBEC6C"/>
<path d="M65.9918 23.9573V20.5627C65.9918 20.1615 66.2698 19.8274 66.643 19.7364C66.4155 19.7207 66.1869 19.7099 65.9555 19.7099H61.2551C60.7841 19.7099 60.4023 20.0917 60.4023 20.5627V23.9573C60.4023 29.3993 64.8139 33.811 70.256 33.811H75.8094V33.81C70.3839 33.7902 65.9918 29.3871 65.9918 23.9573Z" fill="#A2E62E"/>
<path d="M80.8254 47.608H75.8086V44.6085C75.8086 41.2052 78.5675 38.4463 81.9708 38.4463H85.6803C86.4023 38.4463 86.9876 39.0316 86.9876 39.7536V41.4458C86.9876 44.8491 84.2287 47.608 80.8254 47.608Z" fill="#BBEC6C"/>
<path d="M21.0122 49.1739H17.5405C13.7837 49.1739 10.7383 46.1285 10.7383 42.3717V40.1452C10.7383 39.4575 11.2958 38.9 11.9834 38.9H14.21C17.9668 38.9 21.0122 41.9454 21.0122 45.7022V49.1739Z" fill="#BBEC6C"/>
<path d="M13.9896 42.3717V40.1452C13.9896 39.562 14.391 39.0739 14.9324 38.9386C14.6949 38.9135 14.4541 38.9002 14.21 38.9002H11.9834C11.2958 38.9002 10.7383 39.4577 10.7383 40.1453V42.3719C10.7383 46.1287 13.7837 49.1741 17.5405 49.1741H20.7916C17.035 49.1739 13.9896 46.1285 13.9896 42.3717Z" fill="#A2E62E"/>
<path d="M24.5305 45.8863H21.0137V42.9448C21.0137 40.2571 23.1926 38.0782 25.8803 38.0782H28.1763C28.8506 38.0782 29.3971 38.6247 29.3971 39.299V41.0197C29.3971 43.7074 27.2182 45.8863 24.5305 45.8863Z" fill="#BBEC6C"/>
<path d="M46.3907 82.8943H49.9582V80.1213C49.9582 78.2271 48.4227 76.6915 46.5285 76.6915H44.2824C43.5525 76.6915 42.9609 77.2831 42.9609 78.0129V79.4646C42.9609 81.3588 44.4965 82.8943 46.3907 82.8943Z" fill="#BBEC6C"/>
<path d="M46.3907 32.1611H49.9582V29.3881C49.9582 27.4939 48.4227 25.9584 46.5285 25.9584H44.2824C43.5525 25.9584 42.9609 26.55 42.9609 27.2798V28.7314C42.9609 30.6256 44.4965 32.1611 46.3907 32.1611Z" fill="#BBEC6C"/>
<path d="M53.5266 34.8764H49.959V32.1033C49.959 30.2091 51.4945 28.6736 53.3887 28.6736H55.6349C56.3647 28.6736 56.9563 29.2652 56.9563 29.995V31.4466C56.9563 33.3408 55.4207 34.8764 53.5266 34.8764Z" fill="#BBEC6C"/>
<path d="M53.292 82.8943H49.959V80.6297C49.959 78.8916 51.3679 77.4827 53.106 77.4827H55.4733C56.0066 77.4827 56.439 77.9151 56.439 78.4484V79.7473C56.439 81.4854 55.0301 82.8943 53.292 82.8943Z" fill="#BBEC6C"/>
<path d="M6.42872 13.1854C9.16696 13.1854 11.3867 10.9656 11.3867 8.22737C11.3867 5.48913 9.16696 3.26935 6.42872 3.26935C3.69048 3.26935 1.4707 5.48913 1.4707 8.22737C1.4707 10.9656 3.69048 13.1854 6.42872 13.1854Z" fill="#F37C7C"/>
<path d="M98.8986 66.3651L77.2806 54.1076V49.0786H80.8268C85.0355 49.0786 88.4596 45.6544 88.4596 41.4456V39.7534C88.4596 38.2216 87.2135 36.9755 85.6816 36.9755H81.9721C80.2042 36.9755 78.5759 37.5814 77.2806 38.5941C77.2806 38.5941 77.2468 28.6065 77.188 28.1399H82.8119C85.0228 28.1399 87.1607 27.6722 89.1655 26.75C89.9035 26.4108 90.2265 25.5372 89.8871 24.7995C89.548 24.0617 88.6749 23.7387 87.9366 24.0779C86.3199 24.8215 84.5957 25.1986 82.8119 25.1986H77.2806V22.9442C77.2806 16.1716 82.7906 10.6616 89.5631 10.6616H95.0947V12.9158C95.0947 15.6871 94.1908 18.3044 92.4805 20.4855C91.9793 21.1247 92.0913 22.0491 92.7303 22.5502C93.3696 23.0512 94.2939 22.9395 94.7951 22.3004C96.9154 19.5964 98.0358 16.3512 98.0358 12.9158V10.25C98.0358 8.85545 96.901 7.7207 95.5063 7.7207H89.563C81.4874 7.7207 74.8636 14.0419 74.3716 21.9957C72.2972 19.6913 69.2934 18.2395 65.956 18.2395H61.2555C59.9744 18.2395 58.9321 19.2817 58.9321 20.5631V23.9577C58.9321 30.2019 64.012 35.2819 70.2562 35.2819H74.3389V52.4403L51.4296 39.4506V36.3476H53.5266C56.2284 36.3476 58.4268 34.1493 58.4268 31.4472V29.9956C58.4268 28.4561 57.1742 27.2037 55.6349 27.2037H53.3887C52.5809 27.2037 51.8189 27.4014 51.1465 27.7491C50.4704 25.8511 48.6564 24.4884 46.5293 24.4884H44.2831C42.7436 24.4884 41.4912 25.7409 41.4912 27.2804V28.732C41.4912 31.4339 43.6896 33.6322 46.3914 33.6322H48.4884V34.877V39.6456L22.4839 54.3902V49.1745V47.3574H24.5303C28.0247 47.3574 30.8675 44.5145 30.8675 41.0203V39.2997C30.8675 37.8155 29.66 36.608 28.1759 36.608H25.8803C23.4281 36.608 21.2984 38.0088 20.245 40.0515C18.7346 38.4398 16.5892 37.4298 14.2113 37.4298H11.9849C10.4874 37.4298 9.26913 38.6481 9.26913 40.1456V42.3721C9.26913 46.9339 12.9804 50.645 17.542 50.645H19.5428V56.0577L13.8093 59.3086C13.1026 59.7092 12.8547 60.6067 13.2554 61.3134C13.656 62.0199 14.5536 62.2675 15.2601 61.8673L19.543 59.439V68.9823C19.543 69.7947 20.2013 70.4529 21.0137 70.4529C21.826 70.4529 22.4843 69.7947 22.4843 68.9823V57.7711L27.9678 54.662L47.0758 65.4963L22.8294 79.244L3.97502 68.266L9.30952 65.2414C10.0162 64.8408 10.2641 63.9433 9.86346 63.2366C9.46267 62.5299 8.56499 62.282 7.85869 62.6827L1.36395 66.3651C0.68863 66.7481 0.266066 67.4683 0.261752 68.2448C0.257438 69.0211 0.671571 69.746 1.34257 70.1366L22.0878 82.2155C22.0892 82.2163 22.0906 82.2171 22.0919 82.2178L49.037 97.9066C49.3745 98.1031 49.7527 98.2014 50.1312 98.2014C50.5096 98.2014 50.8881 98.1031 51.2255 97.9066L86.3205 77.4726C87.0225 77.0639 87.2601 76.1635 86.8515 75.4617C86.4426 74.7597 85.5418 74.5217 84.8406 74.9307L77.3604 79.2862L53.0391 65.4959L72.221 54.6196L74.3393 55.8206V66.924C74.3393 67.7364 74.9975 68.3946 75.8099 68.3946C76.6223 68.3946 77.2806 67.7364 77.2806 66.924V57.4887L96.2877 68.2658L90.7234 71.5057C90.0214 71.9143 89.7837 72.8148 90.1924 73.5166C90.4657 73.9858 90.9583 74.2476 91.4646 74.2476C91.7158 74.2476 91.9705 74.1833 92.2032 74.0476L98.9201 70.1366C99.5911 69.746 100.005 69.0211 100.001 68.2448C99.9965 67.4683 99.5741 66.7481 98.8986 66.3651ZM81.9721 39.9167H85.5183V41.4456C85.5183 44.0326 83.4137 46.1374 80.8268 46.1374H77.2806V44.6085C77.2806 42.0215 79.3853 39.9167 81.9721 39.9167ZM70.2566 32.3402C65.6343 32.3402 61.8737 28.5797 61.8737 23.9574V21.1806H65.9562C70.5785 21.1806 74.3393 24.9413 74.3393 29.5636V32.3402H70.2566ZM22.4843 42.9449C22.4843 41.0723 24.0079 39.5489 25.8803 39.5489H27.9267V41.0199C27.9267 42.8925 26.4031 44.4157 24.5306 44.4157H22.4843V42.9449ZM17.5422 47.7033C14.6023 47.7033 12.2106 45.3116 12.2106 42.3717V40.3707H14.2115C17.1514 40.3707 19.543 42.7623 19.543 45.7022V47.7033H17.5422ZM53.3893 30.1444H55.4861V31.4468C55.4861 32.5271 54.6074 33.4059 53.5272 33.4059H51.4302V32.1033C51.43 31.0231 52.3091 30.1444 53.3893 30.1444ZM44.4329 28.7314V27.4289H46.5297C47.6099 27.4289 48.4888 28.3077 48.4888 29.3879V30.6903H46.3918C45.3116 30.6905 44.4329 29.8117 44.4329 28.7314ZM74.4183 80.9994L50.1316 95.1405L25.7717 80.9568L50.0576 67.1867L74.4183 80.9994ZM50.0574 63.8054L30.9495 52.9711L48.4889 43.0263V52.9711C48.4889 53.7835 49.1472 54.4418 49.9596 54.4418C50.772 54.4418 51.4302 53.7835 51.4302 52.9711V42.8314L69.2395 52.9294L50.0574 63.8054Z" fill="black"/>
<path d="M46.3904 84.365H48.4873V87.7228C48.4873 88.5351 49.1456 89.1934 49.958 89.1934C50.7704 89.1934 51.4286 88.5351 51.4286 87.7228V84.365H53.291C55.8372 84.365 57.9087 82.2937 57.9087 79.7474V78.4485C57.9087 77.1051 56.8157 76.0122 55.4723 76.0122H53.105C52.0432 76.0122 51.0647 76.3733 50.2839 76.9779C49.3842 75.9049 48.0348 75.2209 46.5283 75.2209H44.2821C42.7426 75.2209 41.4902 76.4735 41.4902 78.013V79.4646C41.4902 82.1667 43.6885 84.365 46.3904 84.365ZM53.105 78.9536H54.9674V79.7476C54.9674 80.6719 54.2154 81.4239 53.291 81.4239H51.4286V80.63C51.4286 79.7054 52.1806 78.9536 53.105 78.9536ZM44.4315 78.1622H46.5283C47.6085 78.1622 48.4873 79.0409 48.4873 80.1211V81.4237H46.3904C45.3102 81.4237 44.4315 80.5451 44.4315 79.4648V78.1622Z" fill="black"/>
<path d="M6.42885 14.656C9.46759 14.656 12.0189 12.536 12.6857 9.69782H20.4035L35.6566 24.9511C35.9438 25.2382 36.3203 25.3817 36.6966 25.3817C37.0729 25.3817 37.4494 25.2382 37.7366 24.9511C38.311 24.3766 38.311 23.4456 37.7366 22.8712L22.0527 7.18734C21.7768 6.91164 21.4029 6.75674 21.0127 6.75674H12.6859C12.0189 3.9184 9.46759 1.79852 6.42885 1.79852C2.88402 1.79852 0 4.68235 0 8.22718C0 11.772 2.88402 14.656 6.42885 14.656ZM6.42885 4.7398C8.35186 4.7398 9.91623 6.30437 9.91623 8.22718C9.91623 10.1504 8.35167 11.7148 6.42885 11.7148C4.50585 11.7148 2.94128 10.1504 2.94128 8.22718C2.94128 6.30417 4.50585 4.7398 6.42885 4.7398Z" fill="black"/>
<path d="M21.013 17.817H12.9941C12.1817 17.817 11.5234 18.4752 11.5234 19.2876C11.5234 20.1 12.1817 20.7582 12.9941 20.7582H21.0132C21.8256 20.7582 22.4838 20.1 22.4838 19.2876C22.4838 18.4752 21.8254 17.817 21.013 17.817Z" fill="black"/>
<path d="M21.0128 23.9193H4.27533C3.46295 23.9193 2.80469 24.5776 2.80469 25.39C2.80469 26.2023 3.46295 26.8606 4.27533 26.8606H21.0128C21.8252 26.8606 22.4834 26.2023 22.4834 25.39C22.4834 24.5776 21.8252 23.9193 21.0128 23.9193Z" fill="black"/>
<path d="M21.0128 30.0217H4.27533C3.46295 30.0217 2.80469 30.6799 2.80469 31.4923C2.80469 32.3047 3.46295 32.9629 4.27533 32.9629H21.0128C21.8252 32.9629 22.4834 32.3047 22.4834 31.4923C22.4834 30.6799 21.8252 30.0217 21.0128 30.0217Z" fill="black"/>
<path d="M4.27533 20.7582H7.69015C8.50253 20.7582 9.16079 20.1 9.16079 19.2876C9.16079 18.4752 8.50253 17.817 7.69015 17.817H4.27533C3.46295 17.817 2.80469 18.4752 2.80469 19.2876C2.80469 20.1 3.46295 20.7582 4.27533 20.7582Z" fill="black"/>
</g>
<defs>
<clipPath id="clip0_559_2524">
<rect width="100" height="100" fill="white"/>
</clipPath>
</defs>
</svg>
