<svg width="100" height="100" viewBox="0 0 100 100" fill="none" xmlns="http://www.w3.org/2000/svg">
<g clip-path="url(#clip0_319_2034)">
<path d="M91.2293 77.6004H63.8125C62.7381 77.6004 61.8672 76.7295 61.8672 75.6551V48.2383C61.8672 47.1639 62.7381 46.293 63.8125 46.293H91.2293C92.3037 46.293 93.1746 47.1639 93.1746 48.2383V75.6551C93.1746 76.7295 92.3037 77.6004 91.2293 77.6004Z" fill="#FCB72D"/>
<path d="M80.483 57.6613H74.5586C74.0215 57.6613 73.5859 57.2258 73.5859 56.6887V46.293H81.4557V56.6887C81.4557 57.226 81.0203 57.6613 80.483 57.6613Z" fill="#E33C53"/>
<path d="M93.1738 48.2393V75.6543C93.1738 76.7301 92.3043 77.5996 91.2285 77.5996H85.7793C86.8531 77.5996 87.7246 76.7301 87.7246 75.6543V48.2393C87.7246 47.1635 86.8531 46.2939 85.7793 46.2939H91.2285C92.3041 46.2939 93.1738 47.1635 93.1738 48.2393Z" fill="#FB9927"/>
<path d="M91.2293 46.293H63.8125C62.7381 46.293 61.8672 45.4221 61.8672 44.3477V16.9309C61.8672 15.8565 62.7381 14.9856 63.8125 14.9856H91.2293C92.3037 14.9856 93.1746 15.8565 93.1746 16.9309V44.3477C93.1746 45.4221 92.3037 46.293 91.2293 46.293Z" fill="#FDC83A"/>
<path d="M93.1738 16.9319V44.3489C93.1738 45.4227 92.3043 46.2942 91.2285 46.2942H85.7793C86.8531 46.2942 87.7246 45.4227 87.7246 44.3489V16.9319C87.7246 15.8561 86.8531 14.9866 85.7793 14.9866H91.2285C92.3041 14.9866 93.1738 15.8561 93.1738 16.9319Z" fill="#FCB72D"/>
<path d="M82.9771 75.6838H64.8256C64.1258 75.6838 63.5586 75.1166 63.5586 74.4168V65.4496C63.5586 64.7498 64.1258 64.1826 64.8256 64.1826H82.9771C83.6769 64.1826 84.2441 64.7498 84.2441 65.4496V74.4168C84.2441 75.1164 83.6769 75.6838 82.9771 75.6838Z" fill="#7DA2B0"/>
<path d="M84.2432 65.4496V74.4162C84.2432 75.1168 83.6768 75.6832 82.9762 75.6832H77.127C77.8264 75.6832 78.3939 75.1168 78.3939 74.4162V65.4496C78.3939 64.7502 77.8264 64.1826 77.127 64.1826H82.9762C83.6768 64.1826 84.2432 64.7502 84.2432 65.4496Z" fill="#688D97"/>
<path d="M74.7564 64.1826H56.6049C55.9051 64.1826 55.3379 63.6154 55.3379 62.9156V53.9484C55.3379 53.2486 55.9051 52.6814 56.6049 52.6814H74.7564C75.4563 52.6814 76.0234 53.2486 76.0234 53.9484V62.9156C76.0234 63.6152 75.4563 64.1826 74.7564 64.1826Z" fill="#A9D3D8"/>
<path d="M76.0225 53.9484V62.915C76.0225 63.6156 75.4561 64.182 74.7555 64.182H68.9062C69.6057 64.182 70.1732 63.6156 70.1732 62.915V53.9484C70.1732 53.249 69.6057 52.6814 68.9062 52.6814H74.7555C75.4561 52.6814 76.0225 53.249 76.0225 53.9484Z" fill="#90BAC4"/>
<path d="M76.5826 87.1848H58.4311C57.7312 87.1848 57.1641 86.6176 57.1641 85.9178V76.9506C57.1641 76.2508 57.7312 75.6836 58.4311 75.6836H76.5826C77.2824 75.6836 77.8496 76.2508 77.8496 76.9506V85.9178C77.8496 86.6176 77.2824 87.1848 76.5826 87.1848Z" fill="#90BAC4"/>
<path d="M97.2682 87.1848H79.1166C78.4168 87.1848 77.8496 86.6176 77.8496 85.9178V76.9506C77.8496 76.2508 78.4168 75.6836 79.1166 75.6836H97.2682C97.968 75.6836 98.5352 76.2508 98.5352 76.9506V85.9178C98.5352 86.6176 97.968 87.1848 97.2682 87.1848Z" fill="#7DA2B0"/>
<path d="M98.5342 76.9508V85.9174C98.5342 86.618 97.9678 87.1844 97.2672 87.1844H91.418C92.1174 87.1844 92.685 86.618 92.685 85.9174V76.9508C92.685 76.2514 92.1174 75.6838 91.418 75.6838H97.2672C97.9678 75.6838 98.5342 76.2514 98.5342 76.9508Z" fill="#688D97"/>
<path d="M4.93164 16.3064H50.5715V83.6929H4.93164V16.3064Z" fill="#E8576B"/>
<path d="M4.93164 16.3064V23.4412H43.5271V34.223H4.93164V41.3578H43.5271V67.4763H4.93164V74.6111H43.5271V83.6929H50.5715V16.3064H4.93164Z" fill="#E33C53"/>
<path d="M53.1322 18.0715H2.37187C1.8709 18.0715 1.46484 17.6655 1.46484 17.1645V13.7217C1.46484 13.2208 1.8709 12.8147 2.37187 12.8147H53.1322C53.6332 12.8147 54.0393 13.2208 54.0393 13.7217V17.1645C54.0393 17.6655 53.6332 18.0715 53.1322 18.0715Z" fill="#EE7382"/>
<path d="M54.0402 13.7222V17.1636C54.0402 17.6662 53.6338 18.0707 53.1332 18.0707H45.8711C46.3736 18.0707 46.7781 17.6662 46.7781 17.1636V13.7222C46.7781 13.2214 46.3736 12.8152 45.8711 12.8152H53.1332C53.634 12.8152 54.0402 13.2216 54.0402 13.7222Z" fill="#E8576B"/>
<path d="M53.1322 35.9341H2.37187C1.8709 35.9341 1.46484 35.528 1.46484 35.0271V31.5843C1.46484 31.0833 1.8709 30.6772 2.37187 30.6772H53.1322C53.6332 30.6772 54.0393 31.0833 54.0393 31.5843V35.0271C54.0393 35.528 53.6332 35.9341 53.1322 35.9341Z" fill="#EE7382"/>
<path d="M54.0402 31.5848V35.0262C54.0402 35.5287 53.6338 35.9332 53.1332 35.9332H45.8711C46.3736 35.9332 46.7781 35.5287 46.7781 35.0262V31.5848C46.7781 31.084 46.3736 30.6777 45.8711 30.6777H53.1332C53.634 30.6777 54.0402 31.0842 54.0402 31.5848Z" fill="#E8576B"/>
<path d="M53.1322 69.3223H2.37187C1.8709 69.3223 1.46484 68.9162 1.46484 68.4152V64.9725C1.46484 64.4715 1.8709 64.0654 2.37187 64.0654H53.1322C53.6332 64.0654 54.0393 64.4715 54.0393 64.9725V68.4152C54.0393 68.9162 53.6332 69.3223 53.1322 69.3223Z" fill="#EE7382"/>
<path d="M54.0402 64.973V68.4144C54.0402 68.9169 53.6338 69.3214 53.1332 69.3214H45.8711C46.3736 69.3214 46.7781 68.9169 46.7781 68.4144V64.973C46.7781 64.4722 46.3736 64.0659 45.8711 64.0659H53.1332C53.634 64.0659 54.0402 64.4724 54.0402 64.973Z" fill="#E8576B"/>
<path d="M53.1322 87.1848H2.37187C1.8709 87.1848 1.46484 86.7788 1.46484 86.2778V82.835C1.46484 82.334 1.8709 81.928 2.37187 81.928H53.1322C53.6332 81.928 54.0393 82.334 54.0393 82.835V86.2778C54.0393 86.7788 53.6332 87.1848 53.1322 87.1848Z" fill="#EE7382"/>
<path d="M54.0402 82.8355V86.2769C54.0402 86.7794 53.6338 87.1839 53.1332 87.1839H45.8711C46.3736 87.1839 46.7781 86.7794 46.7781 86.2769V82.8355C46.7781 82.3347 46.3736 81.9285 45.8711 81.9285H53.1332C53.634 81.9285 54.0402 82.3349 54.0402 82.8355Z" fill="#E8576B"/>
<path d="M70.5363 87.1844C71.9853 87.1844 73.0165 85.775 72.5751 84.395C69.6273 75.177 59.4892 46.2776 48.2546 46.2776C37.1575 46.2776 27.2831 75.2124 24.4239 84.412C23.996 85.7887 25.0265 87.1848 26.4681 87.1848L70.5363 87.1844Z" fill="#DC7F69"/>
<path d="M48.2555 46.2773C47.7279 46.2773 47.2031 46.3432 46.6816 46.4687C56.0344 53.8105 63.842 76.1797 66.4201 84.2467C66.8867 85.7006 65.8002 87.1838 64.2742 87.1838H70.5461C71.9902 87.1779 73.0164 85.7721 72.576 84.3947C69.6279 75.177 59.49 46.2773 48.2555 46.2773Z" fill="#D46A50"/>
<path d="M47.1308 87.1848C47.1308 87.1848 39.0628 68.4827 29.9349 68.4827C23.254 68.4827 17.2222 78.7633 14.5493 84.0801C13.8327 85.5057 14.8706 87.185 16.4661 87.185L47.1308 87.1848Z" fill="#E9A999"/>
<path d="M47.1309 87.1842H40.0043C40.0043 87.1842 33.0344 71.0273 25.1488 71.0273C24.675 71.0273 24.2055 71.0873 23.7402 71.201C25.674 69.5609 27.7709 68.4824 29.9342 68.4824C39.0609 68.4826 47.1309 87.1842 47.1309 87.1842Z" fill="#E39382"/>
<path d="M59.1006 87.1848C59.1006 87.1848 52.6203 74.6418 45.2887 74.6418C38.051 74.6418 31.7617 87.1848 31.7617 87.1848H59.1006Z" fill="#DC7F69"/>
<path d="M59.1008 87.1843H52.0021C52.0021 87.1843 46.4965 76.5289 40.2598 76.5011C41.8291 75.382 43.5314 74.6423 45.2895 74.6423C52.6217 74.6423 59.1008 87.1843 59.1008 87.1843Z" fill="#D46A50"/>
<path d="M48.7031 67.5406C47.8941 67.5406 47.2383 66.8932 47.2383 66.084V66.0674C47.2383 65.2584 47.8941 64.6025 48.7031 64.6025C49.5121 64.6025 50.168 65.2584 50.168 66.0674C50.168 66.8764 49.5121 67.5406 48.7031 67.5406Z" fill="black"/>
<path d="M22.1133 83.0099C21.3043 83.0099 20.6484 82.3625 20.6484 81.5533V81.5369C20.6484 80.7279 21.3043 80.072 22.1133 80.072C22.9223 80.072 23.5781 80.7279 23.5781 81.5369C23.5781 82.3458 22.9223 83.0099 22.1133 83.0099Z" fill="black"/>
<path d="M26.3066 84.4247C25.4977 84.4247 24.8418 83.7772 24.8418 82.968V82.9514C24.8418 82.1424 25.4977 81.4866 26.3066 81.4866C27.1156 81.4866 27.7715 82.1424 27.7715 82.9514C27.7715 83.7604 27.1158 84.4247 26.3066 84.4247Z" fill="black"/>
<path d="M43.2871 69.9474C42.4781 69.9474 41.8223 69.3 41.8223 68.4908V68.4744C41.8223 67.6654 42.4781 67.0095 43.2871 67.0095C44.0961 67.0095 44.752 67.6654 44.752 68.4744C44.752 69.2833 44.0961 69.9474 43.2871 69.9474Z" fill="black"/>
<path d="M42.7324 83.3932C41.9234 83.3932 41.2676 82.7456 41.2676 81.9366V81.9202C41.2676 81.1112 41.9234 80.4553 42.7324 80.4553C43.5414 80.4553 44.1973 81.1112 44.1973 81.9202C44.1973 82.7292 43.5414 83.3932 42.7324 83.3932Z" fill="black"/>
<path d="M49.6797 53.5724C48.8707 53.5724 48.2148 52.9249 48.2148 52.1157V52.0991C48.2148 51.2901 48.8707 50.6343 49.6797 50.6343C50.4887 50.6343 51.1445 51.2901 51.1445 52.0991C51.1445 52.9081 50.4887 53.5724 49.6797 53.5724Z" fill="black"/>
<path d="M60.8184 80.1977C60.0094 80.1977 59.3535 79.5502 59.3535 78.741V78.7246C59.3535 77.9156 60.0094 77.2598 60.8184 77.2598C61.6273 77.2598 62.2832 77.9156 62.2832 78.7246C62.2832 79.5336 61.6273 80.1977 60.8184 80.1977Z" fill="black"/>
<path d="M17.3527 44.2232L13.4564 51.0201C13.0847 51.6685 13.5529 52.4765 14.3002 52.4765H22.0929C22.8404 52.4765 23.3086 51.6685 22.9367 51.0201L19.0404 44.2232C18.6666 43.5714 17.7263 43.5714 17.3527 44.2232Z" fill="#27CC81"/>
<path d="M22.0934 53.9414H14.3006C13.4211 53.9414 12.6325 53.4869 12.1917 52.726C11.7506 51.9648 11.7485 51.0549 12.186 50.2916L16.0823 43.4949C16.5155 42.7391 17.3258 42.2695 18.1969 42.2695C19.068 42.2695 19.8784 42.7391 20.3116 43.4949L24.2081 50.2916C24.6456 51.0549 24.6434 51.965 24.2024 52.726C23.7614 53.4871 22.9729 53.9414 22.0934 53.9414ZM15.1501 51.0117H21.244L18.1969 45.6969L15.1501 51.0117ZM18.6241 44.952L18.6237 44.9527C18.6237 44.9523 18.6239 44.9522 18.6241 44.952Z" fill="black"/>
<path d="M23.067 59.5044H13.3262C12.5172 59.5044 11.8613 58.8485 11.8613 58.0396C11.8613 57.2306 12.5172 56.5747 13.3262 56.5747H23.0672C23.8762 56.5747 24.532 57.2306 24.532 58.0396C24.532 58.8485 23.876 59.5044 23.067 59.5044Z" fill="black"/>
<path d="M80.483 26.354H74.5586C74.0215 26.354 73.5859 25.9184 73.5859 25.3813V14.9856H81.4557V25.3813C81.4557 25.9186 81.0203 26.354 80.483 26.354Z" fill="#E33C53"/>
<path d="M97.2682 74.219H94.6395V48.2383C94.6395 47.5153 94.4117 46.8454 94.0264 46.293C94.4117 45.7407 94.6395 45.0708 94.6395 44.3477V16.9309C94.6395 15.0506 93.1096 13.5208 91.2293 13.5208H63.8125C61.9322 13.5208 60.4023 15.0506 60.4023 16.9309V23.1184C60.4023 23.9274 61.0582 24.5833 61.8672 24.5833C62.6762 24.5833 63.332 23.9274 63.332 23.1184V16.9309C63.332 16.6661 63.5477 16.4504 63.8125 16.4504H72.1213V25.3813C72.1213 26.7252 73.2148 27.8188 74.5588 27.8188H80.4832C81.8271 27.8188 82.9205 26.7252 82.9205 25.3813V16.4504H91.2293C91.4941 16.4504 91.7098 16.6661 91.7098 16.9309V44.3477C91.7098 44.6125 91.4941 44.8282 91.2293 44.8282H63.8125C63.5477 44.8282 63.332 44.6125 63.332 44.3477V29.5954C63.332 28.7864 62.6762 28.1305 61.8672 28.1305C61.0582 28.1305 60.4023 28.7864 60.4023 29.5954V44.3477C60.4023 45.0708 60.6301 45.7407 61.0154 46.293C60.6301 46.8454 60.4023 47.5153 60.4023 48.2383V51.2166H58.5256C56.3479 48.5446 54.1818 46.703 52.0371 45.704V37.3989H53.1322C54.44 37.3989 55.5041 36.3348 55.5041 35.027V31.5842C55.5041 30.2764 54.44 29.2124 53.1322 29.2124H52.0371V19.5364H53.1322C54.44 19.5364 55.5041 18.4723 55.5041 17.1645V13.7217C55.5041 12.4139 54.44 11.3499 53.1322 11.3499H2.37188C1.06406 11.3499 0 12.4139 0 13.7217V17.1645C0 18.4723 1.06406 19.5364 2.37188 19.5364H3.4668V29.2124H2.37188C1.06406 29.2124 0 30.2764 0 31.5842V35.027C0 36.3348 1.06406 37.3989 2.37188 37.3989H3.4668V62.6006H2.37188C1.06406 62.6006 0 63.6647 0 64.9725V68.4151C0 69.7229 1.06406 70.7872 2.37207 70.7872H3.4668V80.4625H2.37109C1.06367 80.4625 0 81.5272 0 82.8356V86.277C0 87.5856 1.06367 88.65 2.37109 88.65H76.582C77.0396 88.65 77.4705 88.5356 77.8498 88.336C78.2289 88.5354 78.6594 88.6497 79.1164 88.6497H97.2682C98.7744 88.6497 100 87.4241 100 85.9178V76.9506C100 75.4444 98.7746 74.219 97.2682 74.219ZM79.9908 24.8891H75.051V16.4504H79.9908V24.8891ZM82.9205 56.6887V47.7579H91.2293C91.4941 47.7579 91.7098 47.9735 91.7098 48.2383V74.219H85.7098V65.4497C85.7098 63.9434 84.4842 62.7178 82.9779 62.7178H77.4877V59.1264H80.483C81.8271 59.1262 82.9205 58.0329 82.9205 56.6887ZM75.051 47.7579H79.9908V56.1965H77.4877V53.9483C77.4877 52.5416 76.4189 51.3807 75.0508 51.2331L75.051 47.7579ZM63.332 48.2383C63.332 47.9735 63.5477 47.7579 63.8125 47.7579H72.1213V51.2165H63.3322L63.332 48.2383ZM74.558 54.1463V62.7178H65.5836C65.3344 62.2122 65.0818 61.7088 64.8252 61.2096C63.4461 58.5276 62.0684 56.1737 60.6939 54.1463H74.558ZM2.92969 16.6067V14.2795H52.5744V16.6067H2.92969ZM49.1074 19.5364V29.2124H6.39648V19.5364H49.1074ZM2.92969 34.4692V32.142H52.5744V34.4692H2.92969ZM13.2402 83.4219C12.8748 84.1487 12.7703 84.953 12.9187 85.7206H2.92969V83.3924H13.2553C13.2504 83.402 13.2449 83.4123 13.2402 83.4219ZM6.39648 80.4627V70.7872H22.0227C19.1396 73.4791 16.6687 77.1873 14.818 80.4625H6.39648V80.4627ZM16.4648 85.7206C16.1344 85.7206 15.9604 85.5182 15.8861 85.3977C15.8121 85.2776 15.7098 85.0321 15.8578 84.7377C17.1746 82.1178 19.2859 78.3401 21.867 75.2213C24.7227 71.7707 27.5121 69.9471 29.9338 69.9471C32.5641 69.9471 35.5764 71.9891 38.6959 75.8692C34.8369 78.9444 31.9371 83.7971 30.8793 85.7206H16.4648ZM34.2561 85.72C36.5934 81.869 41.0111 76.1065 45.2871 76.1065C49.6299 76.1065 54.1598 81.8639 56.5672 85.7198L34.2561 85.72ZM71.0824 85.4422C71.0068 85.5459 70.8354 85.7196 70.5363 85.7196H59.9678C58.3334 82.8278 52.3496 73.1768 45.2871 73.1768C43.8527 73.1768 42.4676 73.585 41.1574 74.2563C38.1725 70.4848 35.2064 68.1745 32.3037 67.3549C33.9594 63.6034 35.6312 60.3229 37.2822 57.5907C37.7006 56.8983 37.4783 55.9979 36.7859 55.5793C36.0936 55.1608 35.1928 55.3831 34.7746 56.0756C33.61 58.0032 32.4385 60.187 31.2721 62.6004H20.7779C19.9689 62.6004 19.3131 63.2563 19.3131 64.0653C19.3131 64.8743 19.9689 65.5301 20.7779 65.5301H29.9094C29.6857 66.029 29.4625 66.5358 29.2398 67.0508C28.2168 67.1403 27.2164 67.4202 26.2447 67.8573H2.92969V65.5301H14.3008C15.1098 65.5301 15.7656 64.8743 15.7656 64.0653C15.7656 63.2563 15.1098 62.6004 14.3008 62.6004H6.39648V37.3989H49.1074V44.8618C48.8228 44.8313 48.5385 44.8125 48.2547 44.8125C45.0723 44.8125 41.8279 46.7608 38.6119 50.603C38.0928 51.2233 38.1746 52.1473 38.7951 52.6665C39.4156 53.1856 40.3395 53.1038 40.8586 52.4832C43.4918 49.3372 45.9801 47.742 48.2547 47.742C52.41 47.742 57.2391 52.8622 62.2197 62.5491C66.4348 70.7467 69.6428 80.0342 71.1799 84.8411C71.2705 85.1241 71.1578 85.3391 71.0824 85.4422ZM76.3848 85.7206H74.0807C74.1914 85.1411 74.1582 84.5358 73.9705 83.9487C73.407 82.187 72.6217 79.8313 71.6475 77.1487H76.3848V85.7206ZM70.5543 74.219C69.5119 71.4985 68.3092 68.5676 66.9732 65.6475H82.7801V74.219H70.5543ZM97.0703 85.72H79.3145V77.1485H97.0703V85.72Z" fill="black"/>
<path d="M70.1234 41.5479H67.6875C66.8785 41.5479 66.2227 40.892 66.2227 40.083C66.2227 39.274 66.8785 38.6182 67.6875 38.6182H70.1234C70.9324 38.6182 71.5883 39.274 71.5883 40.083C71.5883 40.892 70.9324 41.5479 70.1234 41.5479Z" fill="black"/>
<path d="M70.1234 36.8635H67.6875C66.8785 36.8635 66.2227 36.2077 66.2227 35.3987C66.2227 34.5897 66.8785 33.9338 67.6875 33.9338H70.1234C70.9324 33.9338 71.5883 34.5897 71.5883 35.3987C71.5883 36.2077 70.9324 36.8635 70.1234 36.8635Z" fill="black"/>
</g>
<defs>
<clipPath id="clip0_319_2034">
<rect width="100" height="100" fill="white"/>
</clipPath>
</defs>
</svg>
