<svg width="100" height="100" viewBox="0 0 100 100" fill="none" xmlns="http://www.w3.org/2000/svg">
<path d="M39.0625 34.375C44.2402 34.375 48.4375 30.1777 48.4375 25C48.4375 19.8223 44.2402 15.625 39.0625 15.625C33.8848 15.625 29.6875 19.8223 29.6875 25C29.6875 30.1777 33.8848 34.375 39.0625 34.375Z" fill="#CCE2FF"/>
<path d="M59.375 50.5781L58.0938 50.3594C53.2477 49.5448 48.7783 47.2336 45.3125 43.75C41.8467 47.2336 37.3773 49.5448 32.5312 50.3594L31.25 50.5781C31.712 54.4794 32.9935 58.239 35.0104 61.6104C37.0273 64.9817 39.734 67.8887 42.9531 70.1406L45.3125 71.875L48.25 69.5938C51.2979 67.3487 53.8563 64.5061 55.7691 61.2394C57.6818 57.9727 58.9088 54.3504 59.375 50.5938V50.5781Z" fill="#67CC6D"/>
<path d="M54.3907 23.4375H50.7813V15.625C50.7813 14.7962 50.4521 14.0013 49.866 13.4153C49.28 12.8292 48.4851 12.5 47.6563 12.5H43.2969C42.8589 12.4978 42.4252 12.5877 42.0242 12.7639C41.6231 12.9401 41.2636 13.1987 40.9689 13.5228C40.6743 13.847 40.451 14.2294 40.3137 14.6454C40.1764 15.0614 40.1281 15.5016 40.1719 15.9375L40.9688 23.9062C41.0854 25.0665 41.6303 26.1416 42.497 26.9217C43.3638 27.7018 44.4902 28.1308 45.6563 28.125H52.2657L55.4844 35.9375H60.1719L55.8594 24.4531C55.7477 24.154 55.547 23.8964 55.2844 23.7148C55.0218 23.5332 54.7099 23.4364 54.3907 23.4375Z" fill="#4D9AFF"/>
<path d="M45.3125 10.9375C47.4699 10.9375 49.2188 9.18861 49.2188 7.03125C49.2188 4.87389 47.4699 3.125 45.3125 3.125C43.1551 3.125 41.4062 4.87389 41.4062 7.03125C41.4062 9.18861 43.1551 10.9375 45.3125 10.9375Z" fill="#FFD199"/>
<path d="M10.1562 68.75C12.5293 68.75 14.4531 66.8262 14.4531 64.4531C14.4531 62.08 12.5293 60.1562 10.1562 60.1562C7.78315 60.1562 5.85938 62.08 5.85938 64.4531C5.85938 66.8262 7.78315 68.75 10.1562 68.75Z" fill="#FFD199"/>
<path d="M14.375 84.375L17.1875 82.9687V73.8281C17.1875 72.8957 16.8171 72.0015 16.1578 71.3422C15.4985 70.6829 14.6043 70.3125 13.6719 70.3125H6.64062C5.70822 70.3125 4.81401 70.6829 4.1547 71.3422C3.4954 72.0015 3.125 72.8957 3.125 73.8281V82.9687L5.9375 84.375L7.34375 96.875H12.9688L14.375 84.375Z" fill="#4D9AFF"/>
<path d="M80.4688 76.5625C83.0576 76.5625 85.1562 74.4638 85.1562 71.875C85.1562 69.2862 83.0576 67.1875 80.4688 67.1875C77.8799 67.1875 75.7812 69.2862 75.7812 71.875C75.7812 74.4638 77.8799 76.5625 80.4688 76.5625Z" fill="#FFD199"/>
<path d="M87.5 96.875V85.1562L96.875 73.4375L93.75 70.3125L85.9375 78.125H75L67.1875 70.3125L64.0625 73.4375L73.4375 85.1562V96.875H87.5Z" fill="#4D9AFF"/>
<path d="M58.3444 48.8282C53.8102 48.0558 49.6369 45.868 46.4225 42.5782C46.2773 42.4317 46.1044 42.3155 45.914 42.2361C45.7236 42.1568 45.5194 42.116 45.3131 42.116C45.1069 42.116 44.9026 42.1568 44.7122 42.2361C44.5218 42.3155 44.349 42.4317 44.2038 42.5782C40.9894 45.868 36.8161 48.0558 32.2819 48.8282L30.985 49.0313C30.5925 49.1004 30.2413 49.3168 30.0031 49.6363C29.765 49.9558 29.6579 50.3542 29.7038 50.75C30.1826 54.8687 31.5289 58.839 33.6539 62.3995C35.7788 65.96 38.6342 69.0297 42.0319 71.4063L44.3913 73.1407C44.6593 73.3348 44.9822 73.4387 45.3131 73.4375C45.6584 73.4365 45.9935 73.3211 46.2663 73.1094L49.2194 70.8282C52.4299 68.4558 55.1243 65.4553 57.1389 62.009C59.1535 58.5628 60.4461 54.7427 60.9381 50.7813C60.9883 50.3829 60.8832 49.9806 60.6446 49.6577C60.4061 49.3347 60.0524 49.116 59.6569 49.0469L58.3444 48.8282ZM47.2975 68.3594L45.2819 69.9219L43.8756 68.875C38.1428 64.8675 34.2365 58.7469 33.0163 51.8594C37.5905 51.0616 41.8501 48.9995 45.3131 45.9063C48.7761 48.9995 53.0358 51.0616 57.61 51.8594C56.3832 58.4658 52.6982 64.3617 47.2975 68.3594Z" fill="black"/>
<path d="M42.1875 56.4844L39.9844 58.6875L43.2969 62C43.4421 62.1465 43.6149 62.2627 43.8053 62.342C43.9958 62.4213 44.2 62.4622 44.4062 62.4622C44.6125 62.4622 44.8167 62.4213 45.0072 62.342C45.1976 62.2627 45.3704 62.1465 45.5156 62L52.1406 55.375L50 53.125L44.4687 58.6406L42.1875 56.4844Z" fill="black"/>
<path d="M38.6258 16.0938L39.4226 24.0625C39.5781 25.6095 40.3046 27.0431 41.4603 28.0832C42.616 29.1233 44.1179 29.6953 45.6726 29.6875H51.2351L54.0633 36.5313C54.1805 36.8166 54.3795 37.0609 54.6354 37.2333C54.8912 37.4057 55.1923 37.4985 55.5008 37.5H60.1883C60.4402 37.4996 60.6882 37.4383 60.9113 37.3213C61.1344 37.2043 61.3259 37.0351 61.4695 36.8281C61.6146 36.6215 61.7074 36.3828 61.7401 36.1325C61.7727 35.8821 61.7442 35.6276 61.657 35.3906L57.3133 23.9063C57.0907 23.3106 56.6918 22.7971 56.1697 22.4341C55.6476 22.0712 55.0272 21.8761 54.3914 21.875H52.3445V15.625C52.3406 14.6027 52.0027 13.6097 51.3821 12.7973C50.7615 11.9849 49.8923 11.3976 48.907 11.125C49.7586 10.3994 50.3671 9.43012 50.6505 8.34785C50.9339 7.26558 50.8786 6.12243 50.492 5.07259C50.1053 4.02276 49.4061 3.11675 48.4884 2.47679C47.5708 1.83684 46.4789 1.49371 45.3601 1.49371C44.2414 1.49371 43.1495 1.83684 42.2319 2.47679C41.3142 3.11675 40.6149 4.02276 40.2283 5.07259C39.8417 6.12243 39.7864 7.26558 40.0698 8.34785C40.3532 9.43012 40.9617 10.3994 41.8133 11.125C41.0389 11.3941 40.3528 11.8695 39.8289 12.5C39.3892 12.9823 39.0551 13.5511 38.848 14.1699C38.6408 14.7887 38.5651 15.444 38.6258 16.0938ZM45.3133 4.68752C45.7768 4.68752 46.23 4.82498 46.6154 5.08252C47.0008 5.34005 47.3012 5.70609 47.4786 6.13436C47.656 6.56262 47.7024 7.03387 47.612 7.48852C47.5216 7.94316 47.2983 8.36078 46.9705 8.68856C46.6428 9.01633 46.2252 9.23955 45.7705 9.32999C45.3159 9.42042 44.8446 9.37401 44.4164 9.19662C43.9881 9.01922 43.622 8.71882 43.3645 8.33339C43.107 7.94796 42.9695 7.49482 42.9695 7.03127C42.9695 6.40967 43.2165 5.81353 43.656 5.37399C44.0955 4.93445 44.6917 4.68752 45.3133 4.68752ZM42.1883 14.5781C42.329 14.422 42.4998 14.2958 42.6904 14.2072C42.881 14.1187 43.0876 14.0694 43.2976 14.0625H47.657C48.0714 14.0625 48.4688 14.2271 48.7619 14.5202C49.0549 14.8132 49.2195 15.2106 49.2195 15.625V23.4375C49.2195 23.8519 49.3841 24.2494 49.6772 24.5424C49.9702 24.8354 50.3676 25 50.782 25H54.3914L57.907 34.375H56.5164L53.6883 27.5313C53.5711 27.2459 53.372 27.0017 53.1162 26.8293C52.8604 26.6569 52.5592 26.5641 52.2508 26.5625H45.6414C44.864 26.5664 44.1131 26.2804 43.5352 25.7604C42.9574 25.2403 42.5941 24.5235 42.5164 23.75L41.7039 15.7813C41.6938 15.5577 41.7318 15.3346 41.8154 15.1271C41.8989 14.9195 42.0261 14.7323 42.1883 14.5781Z" fill="black"/>
<path d="M36.4533 17.625L35.4221 14.6875C32.9896 15.5471 30.9393 17.2389 29.6334 19.464C28.3276 21.689 27.8503 24.3041 28.286 26.8469C28.7217 29.3898 30.0422 31.6968 32.0142 33.3603C33.9862 35.0238 36.4828 35.9366 39.0627 35.9375C41.2152 35.9427 43.3205 35.3062 45.1096 34.1094L43.3752 31.5156C42.4522 32.1183 41.4121 32.5188 40.3232 32.6909C39.2344 32.8629 38.1214 32.8026 37.0576 32.5138C35.9937 32.2251 35.003 31.7145 34.1505 31.0155C33.2981 30.3166 32.6032 29.4452 32.1115 28.4585C31.6199 27.4719 31.3426 26.3924 31.2979 25.2909C31.2532 24.1895 31.4421 23.091 31.8522 22.0678C32.2622 21.0445 32.8842 20.1197 33.6773 19.3539C34.4703 18.5882 35.4164 17.999 36.4533 17.625Z" fill="black"/>
<path d="M2.42191 84.375L4.48441 85.4063L5.79691 97.0625C5.8394 97.4464 6.02259 97.801 6.31114 98.0578C6.59969 98.3147 6.97314 98.4555 7.35941 98.4531H12.9688C13.3551 98.4555 13.7285 98.3147 14.0171 98.0578C14.3056 97.801 14.4888 97.4464 14.5313 97.0625L15.8438 85.4063L17.8907 84.375C18.1507 84.244 18.369 84.0429 18.5208 83.7944C18.6727 83.5459 18.7521 83.26 18.75 82.9688V73.8281C18.7575 72.5453 18.2777 71.3075 17.4076 70.3648C16.5374 69.4222 15.3419 68.845 14.0625 68.75C14.947 67.9589 15.5705 66.9179 15.8504 65.7647C16.1302 64.6115 16.0534 63.4005 15.63 62.2919C15.2065 61.1834 14.4565 60.2295 13.4791 59.5566C12.5017 58.8836 11.343 58.5233 10.1563 58.5233C8.96962 58.5233 7.81091 58.8836 6.83351 59.5566C5.8561 60.2295 5.10605 61.1834 4.68262 62.2919C4.25919 63.4005 4.18233 64.6115 4.46222 65.7647C4.74211 66.9179 5.36555 67.9589 6.25004 68.75C4.97878 68.8444 3.78994 69.415 2.92098 70.3476C2.05202 71.2803 1.56691 72.5065 1.56254 73.7813V82.9688C1.56051 83.26 1.6399 83.5459 1.79175 83.7944C1.94359 84.0429 2.16186 84.244 2.42191 84.375ZM10.2344 61.7344C10.7752 61.7344 11.3039 61.8948 11.7536 62.1952C12.2032 62.4957 12.5537 62.9227 12.7606 63.4224C12.9676 63.922 13.0218 64.4718 12.9162 65.0022C12.8107 65.5326 12.5503 66.0198 12.1679 66.4023C11.7855 66.7847 11.2983 67.0451 10.7679 67.1506C10.2374 67.2561 9.68765 67.202 9.18801 66.995C8.68837 66.788 8.26132 66.4376 7.96086 65.9879C7.66041 65.5382 7.50004 65.0096 7.50004 64.4688C7.49962 63.7554 7.77645 63.0697 8.27207 62.5566C8.76769 62.0435 9.44331 61.7431 10.1563 61.7188L10.2344 61.7344ZM4.68754 73.8281C4.68754 73.3101 4.89331 72.8133 5.2596 72.4471C5.62588 72.0808 6.12266 71.875 6.64066 71.875H13.6719C14.1899 71.875 14.6867 72.0808 15.053 72.4471C15.4193 72.8133 15.625 73.3101 15.625 73.8281V82L13.6719 82.9844C13.4414 83.1018 13.2436 83.2746 13.0963 83.4873C12.949 83.7001 12.8569 83.946 12.8282 84.2031L11.5782 95.3125H8.73441L7.48441 84.2031C7.45567 83.946 7.36353 83.7001 7.21626 83.4873C7.06899 83.2746 6.87121 83.1018 6.64066 82.9844L4.68754 82V73.8281Z" fill="black"/>
<path d="M97.9844 72.3281L94.8594 69.2031C94.7141 69.0567 94.5413 68.9405 94.3509 68.8611C94.1605 68.7818 93.9563 68.741 93.75 68.741C93.5437 68.741 93.3395 68.7818 93.1491 68.8611C92.9587 68.9405 92.7859 69.0567 92.6406 69.2031L85.2969 76.5625H84.5625C85.5252 75.728 86.2099 74.6192 86.5248 73.3847C86.8398 72.1501 86.7698 70.8488 86.3245 69.6551C85.8791 68.4615 85.0796 67.4324 84.033 66.7058C82.9865 65.9792 81.7428 65.5898 80.4688 65.5898C79.1947 65.5898 77.9511 65.9792 76.9045 66.7058C75.8579 67.4324 75.0584 68.4615 74.613 69.6551C74.1677 70.8488 74.0978 72.1501 74.4127 73.3847C74.7276 74.6192 75.4123 75.728 76.375 76.5625H75.6406L68.2969 69.2031C68.1516 69.0567 67.9788 68.9405 67.7884 68.8611C67.598 68.7818 67.3938 68.741 67.1875 68.741C66.9812 68.741 66.777 68.7818 66.5866 68.8611C66.3962 68.9405 66.2234 69.0567 66.0781 69.2031L62.9531 72.3281C62.6829 72.6006 62.5223 72.9631 62.5022 73.3464C62.482 73.7296 62.6036 74.1069 62.8438 74.4063L71.875 85.7031V96.875C71.875 97.2894 72.0396 97.6869 72.3327 97.9799C72.6257 98.2729 73.0231 98.4375 73.4375 98.4375H87.5C87.9144 98.4375 88.3118 98.2729 88.6049 97.9799C88.8979 97.6869 89.0625 97.2894 89.0625 96.875V85.7031L98.0938 74.4063C98.3339 74.1069 98.4555 73.7296 98.4354 73.3464C98.4152 72.9631 98.2547 72.6006 97.9844 72.3281ZM80.4688 68.75C81.0868 68.75 81.691 68.9333 82.2049 69.2767C82.7188 69.6201 83.1194 70.1081 83.3559 70.6791C83.5924 71.2502 83.6543 71.8785 83.5337 72.4847C83.4131 73.0909 83.1155 73.6477 82.6785 74.0847C82.2414 74.5218 81.6846 74.8194 81.0784 74.94C80.4722 75.0606 79.8439 74.9987 79.2729 74.7621C78.7019 74.5256 78.2138 74.1251 77.8704 73.6112C77.527 73.0973 77.3438 72.4931 77.3438 71.875C77.3438 71.0462 77.673 70.2514 78.2591 69.6653C78.8451 69.0793 79.64 68.75 80.4688 68.75ZM86.2813 84.1875C86.0607 84.4624 85.9396 84.8038 85.9375 85.1563V95.3125H75V85.1563C74.998 84.8038 74.8768 84.4624 74.6563 84.1875L66.1563 73.5469L67.1875 72.5156L73.8906 79.2344C74.0366 79.3792 74.2098 79.4938 74.4002 79.5715C74.5905 79.6493 74.7944 79.6887 75 79.6875H85.9375C86.1432 79.6887 86.347 79.6493 86.5374 79.5715C86.7277 79.4938 86.9009 79.3792 87.0469 79.2344L93.75 72.5156L94.7813 73.5469L86.2813 84.1875Z" fill="black"/>
<path d="M63.1867 86.5L61.8117 83.6875C56.679 86.2131 51.032 87.5179 45.3117 87.5C40.441 87.495 35.6175 86.5452 31.1085 84.7031L34.5304 84.0312L33.921 80.9062L26.2648 82.4688C26.0257 82.5156 25.8008 82.6177 25.6082 82.7669C25.4156 82.9161 25.2605 83.1083 25.1554 83.3281C25.0481 83.5442 24.9922 83.7822 24.9922 84.0234C24.9922 84.2647 25.0481 84.5027 25.1554 84.7188L28.7492 91.6563L31.5304 90.2188L30.2335 87.7344C35.0322 89.6405 40.1483 90.6213 45.3117 90.625C51.5076 90.6398 57.6238 89.2283 63.1867 86.5Z" fill="black"/>
<path d="M22.2974 26.0782L23.4068 18.2657C23.4401 18.0243 23.4164 17.7785 23.3377 17.5479C23.2591 17.3173 23.1275 17.1082 22.9537 16.9375C22.7832 16.7687 22.5761 16.6415 22.3485 16.5656C22.1209 16.4897 21.8789 16.4673 21.6412 16.5L13.9068 17.6094L14.3443 20.7344L17.5943 20.2657C13.4979 24.0553 10.2349 28.656 8.01298 33.775C5.79104 38.8941 4.65872 44.4196 4.68806 50C4.68806 51.0781 4.68806 52.1719 4.81306 53.25L7.93806 53C7.81306 52.0156 7.81306 51 7.81306 50C7.79336 44.8769 8.83245 39.8049 10.8652 35.1023C12.8979 30.3996 15.8804 26.1677 19.6256 22.6719L19.2037 25.6407L22.2974 26.0782Z" fill="black"/>
<path d="M58.8125 15C65.8601 17.7563 71.9167 22.5671 76.1963 28.8082C80.476 35.0493 82.781 42.4326 82.8125 50C82.8125 51.0156 82.8125 52.0156 82.6875 53.0156L81.0469 50.2969L78.375 51.8594L82.4063 58.5469C82.5337 58.753 82.7073 58.9266 82.9134 59.0541C83.1195 59.1815 83.3524 59.2593 83.5938 59.2812H83.75C83.9642 59.2806 84.1761 59.2358 84.3723 59.1498C84.5685 59.0638 84.7449 58.9383 84.8906 58.7812L90.1875 53.125L87.8906 51L85.7969 53.2812C85.9375 52.1875 85.9375 51.0938 85.9375 50C85.902 41.8036 83.4042 33.807 78.768 27.0477C74.1318 20.2885 67.5712 15.0785 59.9375 12.0938L58.8125 15Z" fill="black"/>
</svg>
