<svg width="100" height="100" viewBox="0 0 100 100" fill="none" xmlns="http://www.w3.org/2000/svg">
<path d="M50 95.3125C75.0254 95.3125 95.3125 75.0254 95.3125 50C95.3125 24.9746 75.0254 4.6875 50 4.6875C24.9746 4.6875 4.6875 24.9746 4.6875 50C4.6875 75.0254 24.9746 95.3125 50 95.3125Z" fill="#57A4FF"/>
<path d="M95.3125 50C95.3137 59.3401 92.4285 68.4525 87.0519 76.0899C81.6753 83.7273 74.0698 89.5166 65.2765 92.6655C56.4832 95.8144 46.9316 96.169 37.929 93.6809C28.9263 91.1927 20.9126 85.9833 14.9844 78.7656C23.6783 85.9198 34.7242 89.5811 45.9701 89.0361C57.216 88.4911 67.8561 83.7788 75.8175 75.8175C83.7788 67.8561 88.4911 57.216 89.0361 45.9701C89.5811 34.7242 85.9198 23.6783 78.7656 14.9844C83.9456 19.2304 88.1173 24.5746 90.979 30.6303C93.8407 36.6861 95.3209 43.3021 95.3125 50Z" fill="#2488FF"/>
<path d="M86.4531 22.375C86.3438 22.4687 86.25 22.5781 86.1406 22.6562C84.9511 23.7 83.4089 24.2519 81.8272 24.1996C80.2455 24.1474 78.7431 23.495 77.625 22.375L73.2031 17.9531L82.0469 9.125L86.4531 13.5469C87.036 14.1247 87.4987 14.8123 87.8144 15.5699C88.1301 16.3275 88.2927 17.1402 88.2927 17.9609C88.2927 18.7817 88.1301 19.5943 87.8144 20.352C87.4987 21.1096 87.036 21.7971 86.4531 22.375Z" fill="#FFDAAA"/>
<path d="M68.75 43.75L50 81.25V56.25H31.25L50 18.75V43.75H68.75Z" fill="#FFDE55"/>
<path d="M26.7966 82.0469L17.9528 90.875L13.5466 86.4531C12.9637 85.8753 12.5011 85.1877 12.1853 84.4301C11.8696 83.6725 11.707 82.8598 11.707 82.0391C11.707 81.2183 11.8696 80.4057 12.1853 79.6481C12.5011 78.8904 12.9637 78.2029 13.5466 77.625C13.656 77.5313 13.7497 77.4219 13.8591 77.3438C15.0486 76.3 16.5908 75.7482 18.1725 75.8004C19.7542 75.8526 21.2567 76.505 22.3747 77.625L26.7966 82.0469Z" fill="#FFDAAA"/>
<path d="M70.0793 42.9219C69.9385 42.6967 69.7427 42.5111 69.5103 42.3826C69.278 42.2541 69.0167 42.187 68.7511 42.1875H51.5636V18.75C51.5616 18.4001 51.4421 18.0611 51.2244 17.7872C51.0068 17.5132 50.7034 17.3203 50.3631 17.2393C50.0227 17.1582 49.665 17.1938 49.3472 17.3402C49.0294 17.4866 48.77 17.7355 48.6105 18.0469L29.8605 55.5469C29.7406 55.7848 29.6836 56.0493 29.6947 56.3154C29.7059 56.5815 29.7849 56.8404 29.9242 57.0674C30.0635 57.2944 30.2586 57.482 30.4908 57.6124C30.7231 57.7428 30.9848 57.8117 31.2511 57.8125H48.4386V81.25C48.4398 81.6011 48.5591 81.9415 48.7773 82.2165C48.9956 82.4915 49.3001 82.6849 49.6418 82.7656C49.7591 82.7966 49.8798 82.8123 50.0011 82.8125C50.2897 82.8116 50.5723 82.7309 50.8178 82.5792C51.0633 82.4275 51.2619 82.2108 51.3918 81.9531L70.1418 44.4531C70.2627 44.2137 70.3205 43.9474 70.3095 43.6794C70.2986 43.4114 70.2193 43.1506 70.0793 42.9219ZM51.5636 74.625V56.25C51.5636 55.8356 51.399 55.4382 51.106 55.1452C50.813 54.8521 50.4155 54.6875 50.0011 54.6875H33.7824L48.4386 25.375V43.75C48.4386 44.1644 48.6032 44.5618 48.8963 44.8549C49.1893 45.1479 49.5867 45.3125 50.0011 45.3125H66.2199L51.5636 74.625Z" fill="black"/>
<path d="M88.1406 22.7812C89.3283 21.2857 89.9255 19.4062 89.819 17.4994C89.7124 15.5926 88.9094 13.7914 87.5625 12.4375L83.1406 8.01563C82.8433 7.73339 82.449 7.57604 82.0391 7.57604C81.6291 7.57604 81.2348 7.73339 80.9375 8.01563L79.8281 9.125L75.4062 4.70312L73.2031 6.90625L77.625 11.3281L75.4062 13.5469L70.9844 9.125L68.7812 11.3281L73.2031 15.75L72.0937 16.8594C71.8027 17.1521 71.6394 17.5481 71.6394 17.9609C71.6394 18.3737 71.8027 18.7697 72.0937 19.0625L76.5156 23.4844C77.6993 24.6779 79.2404 25.452 80.9046 25.6889C82.5687 25.9258 84.2647 25.6126 85.7344 24.7969C90.9725 32.1548 93.7755 40.9681 93.75 50C93.7436 57.1793 91.9721 64.2469 88.5914 70.5805C85.2108 76.914 80.3248 82.3192 74.3636 86.3201C68.4024 90.3209 61.549 92.7947 54.4068 93.5236C47.2646 94.2525 40.0527 93.2142 33.4062 90.5L32.2188 93.3906C39.3399 96.2998 47.0671 97.4133 54.7199 96.6329C62.3727 95.8526 69.7161 93.2025 76.1036 88.9159C82.491 84.6293 87.7263 78.8379 91.3485 72.0516C94.9707 65.2653 96.8686 57.6924 96.875 50C96.9034 40.2335 93.8466 30.7076 88.1406 22.7812ZM85.3594 21.2812C84.4738 22.1525 83.2813 22.6407 82.0391 22.6407C80.7968 22.6407 79.6043 22.1525 78.7188 21.2812L75.4062 17.9531L82.0469 11.3281L85.3594 14.6406C86.2374 15.5226 86.7303 16.7164 86.7303 17.9609C86.7303 19.2054 86.2374 20.3993 85.3594 21.2812Z" fill="black"/>
<path d="M50.0002 3.12505C37.5729 3.14035 25.6589 8.08386 16.8715 16.8713C8.08401 25.6588 3.14049 37.5727 3.1252 50C3.09679 59.7665 6.15362 69.2925 11.8596 77.2188C10.6719 78.7143 10.0747 80.5939 10.1812 82.5006C10.2878 84.4074 11.0908 86.2087 12.4377 87.5625L16.8596 91.9844C17.002 92.1297 17.1723 92.2447 17.3602 92.3226C17.5482 92.4004 17.7499 92.4395 17.9533 92.4375C18.1591 92.4396 18.3632 92.4006 18.5537 92.3228C18.7442 92.245 18.9172 92.1299 19.0627 91.9844L20.1721 90.875L24.5939 95.2969L26.7971 93.0938L22.3752 88.6719L24.5939 86.4532L29.0158 90.875L31.2189 88.6719L26.7971 84.25L27.9064 83.1407C28.1975 82.8479 28.3608 82.4519 28.3608 82.0391C28.3608 81.6263 28.1975 81.2303 27.9064 80.9375L23.4846 76.5157C22.294 75.3336 20.7537 74.5674 19.0928 74.3309C17.4319 74.0945 15.739 74.4004 14.2658 75.2032C9.0277 67.8453 6.22472 59.032 6.2502 50C6.26302 38.4008 10.8765 27.2802 19.0784 19.0783C27.2804 10.8763 38.4009 6.26287 50.0002 6.25005C55.6922 6.23817 61.3309 7.34785 66.5939 9.51567L67.7814 6.60942C62.1382 4.29986 56.0978 3.11619 50.0002 3.12505ZM14.6408 78.7188C15.5264 77.8476 16.7189 77.3593 17.9611 77.3593C19.2034 77.3593 20.3959 77.8476 21.2814 78.7188L24.5939 82.0469L17.9533 88.6719L14.6408 85.3594C13.7628 84.4774 13.2699 83.2836 13.2699 82.0391C13.2699 80.7946 13.7628 79.6008 14.6408 78.7188Z" fill="black"/>
</svg>
