<svg width="100" height="100" viewBox="0 0 100 100" fill="none" xmlns="http://www.w3.org/2000/svg">
<path d="M93.75 3.125V15.625H75V9.375V3.125H93.75Z" fill="#E6E9ED"/>
<path d="M50 15.625V3.125H68.75V9.375V15.625H50Z" fill="#E6E9ED"/>
<path d="M3.125 93.75V81.25H6.25H12.5H18.75H21.875V93.75H18.75H12.5H6.25H3.125Z" fill="#E6E9ED"/>
<path d="M68.75 65.625V67.1875C68.75 68.0469 68.0469 68.75 67.1875 68.75H65.625H59.375H53.125H46.875H40.625H34.375H32.8125C31.9531 68.75 31.25 68.0469 31.25 67.1875V65.625V59.375V53.125V46.875V40.625V34.375V32.8125C31.25 31.9531 31.9531 31.25 32.8125 31.25H34.375H40.625H46.875H53.125H59.375H65.625H67.1875C68.0469 31.25 68.75 31.9531 68.75 32.8125V34.375V40.625V46.875V53.125V59.375V65.625Z" fill="#FCD770"/>
<path d="M59.375 43.75C61.1009 43.75 62.5 42.3509 62.5 40.625C62.5 38.8991 61.1009 37.5 59.375 37.5C57.6491 37.5 56.25 38.8991 56.25 40.625C56.25 42.3509 57.6491 43.75 59.375 43.75Z" fill="#FF826E"/>
<path d="M40.625 62.5C42.3509 62.5 43.75 61.1009 43.75 59.375C43.75 57.6491 42.3509 56.25 40.625 56.25C38.8991 56.25 37.5 57.6491 37.5 59.375C37.5 61.1009 38.8991 62.5 40.625 62.5Z" fill="#FF826E"/>
<path d="M43.75 90.625C45.4759 90.625 46.875 89.2259 46.875 87.5C46.875 85.7741 45.4759 84.375 43.75 84.375C42.0241 84.375 40.625 85.7741 40.625 87.5C40.625 89.2259 42.0241 90.625 43.75 90.625Z" fill="#FF826E"/>
<path d="M31.25 90.625C32.9759 90.625 34.375 89.2259 34.375 87.5C34.375 85.7741 32.9759 84.375 31.25 84.375C29.5241 84.375 28.125 85.7741 28.125 87.5C28.125 89.2259 29.5241 90.625 31.25 90.625Z" fill="#FF826E"/>
<path d="M6.25 71.875C7.97589 71.875 9.375 70.4759 9.375 68.75C9.375 67.0241 7.97589 65.625 6.25 65.625C4.52411 65.625 3.125 67.0241 3.125 68.75C3.125 70.4759 4.52411 71.875 6.25 71.875Z" fill="#FF826E"/>
<path d="M15.625 51.5625C17.3509 51.5625 18.75 50.1634 18.75 48.4375C18.75 46.7116 17.3509 45.3125 15.625 45.3125C13.8991 45.3125 12.5 46.7116 12.5 48.4375C12.5 50.1634 13.8991 51.5625 15.625 51.5625Z" fill="#FF826E"/>
<path d="M6.25 9.375C7.97589 9.375 9.375 7.97589 9.375 6.25C9.375 4.52411 7.97589 3.125 6.25 3.125C4.52411 3.125 3.125 4.52411 3.125 6.25C3.125 7.97589 4.52411 9.375 6.25 9.375Z" fill="#FF826E"/>
<path d="M40.625 12.5C42.3509 12.5 43.75 11.1009 43.75 9.375C43.75 7.64911 42.3509 6.25 40.625 6.25C38.8991 6.25 37.5 7.64911 37.5 9.375C37.5 11.1009 38.8991 12.5 40.625 12.5Z" fill="#FF826E"/>
<path d="M84.375 53.125C86.1009 53.125 87.5 51.7259 87.5 50C87.5 48.2741 86.1009 46.875 84.375 46.875C82.6491 46.875 81.25 48.2741 81.25 50C81.25 51.7259 82.6491 53.125 84.375 53.125Z" fill="#FF826E"/>
<path d="M93.75 43.75C95.4759 43.75 96.875 42.3509 96.875 40.625C96.875 38.8991 95.4759 37.5 93.75 37.5C92.0241 37.5 90.625 38.8991 90.625 40.625C90.625 42.3509 92.0241 43.75 93.75 43.75Z" fill="#FF826E"/>
<path d="M93.75 96.875C95.4759 96.875 96.875 95.4759 96.875 93.75C96.875 92.0241 95.4759 90.625 93.75 90.625C92.0241 90.625 90.625 92.0241 90.625 93.75C90.625 95.4759 92.0241 96.875 93.75 96.875Z" fill="#FF826E"/>
<path d="M59.375 35.9375C56.7906 35.9375 54.6875 38.0406 54.6875 40.625C54.6875 43.2094 56.7906 45.3125 59.375 45.3125C61.9594 45.3125 64.0625 43.2094 64.0625 40.625C64.0625 38.0406 61.9594 35.9375 59.375 35.9375ZM59.375 42.1875C58.5125 42.1875 57.8125 41.4859 57.8125 40.625C57.8125 39.7641 58.5125 39.0625 59.375 39.0625C60.2375 39.0625 60.9375 39.7641 60.9375 40.625C60.9375 41.4859 60.2375 42.1875 59.375 42.1875Z" fill="black"/>
<path d="M40.625 54.6875C38.0406 54.6875 35.9375 56.7906 35.9375 59.375C35.9375 61.9594 38.0406 64.0625 40.625 64.0625C43.2094 64.0625 45.3125 61.9594 45.3125 59.375C45.3125 56.7906 43.2094 54.6875 40.625 54.6875ZM40.625 60.9375C39.7625 60.9375 39.0625 60.2359 39.0625 59.375C39.0625 58.5141 39.7625 57.8125 40.625 57.8125C41.4875 57.8125 42.1875 58.5141 42.1875 59.375C42.1875 60.2359 41.4875 60.9375 40.625 60.9375Z" fill="black"/>
<path d="M31.25 82.8125C28.6656 82.8125 26.5625 84.9156 26.5625 87.5C26.5625 90.0844 28.6656 92.1875 31.25 92.1875C33.8344 92.1875 35.9375 90.0844 35.9375 87.5C35.9375 84.9156 33.8344 82.8125 31.25 82.8125ZM31.25 89.0625C30.3875 89.0625 29.6875 88.3609 29.6875 87.5C29.6875 86.6391 30.3875 85.9375 31.25 85.9375C32.1125 85.9375 32.8125 86.6391 32.8125 87.5C32.8125 88.3609 32.1125 89.0625 31.25 89.0625Z" fill="black"/>
<path d="M43.75 82.8125C41.1656 82.8125 39.0625 84.9156 39.0625 87.5C39.0625 90.0844 41.1656 92.1875 43.75 92.1875C46.3344 92.1875 48.4375 90.0844 48.4375 87.5C48.4375 84.9156 46.3344 82.8125 43.75 82.8125ZM43.75 89.0625C42.8875 89.0625 42.1875 88.3609 42.1875 87.5C42.1875 86.6391 42.8875 85.9375 43.75 85.9375C44.6125 85.9375 45.3125 86.6391 45.3125 87.5C45.3125 88.3609 44.6125 89.0625 43.75 89.0625Z" fill="black"/>
<path d="M57.8125 57.8125H48.4375V60.9375H60.9375V48.4375H57.8125V57.8125Z" fill="black"/>
<path d="M42.1875 42.1875H51.5625V39.0625H39.0625V51.5625H42.1875V42.1875Z" fill="black"/>
<path d="M51.5625 70.3125V76.5625H54.6875V70.3125H57.8125V76.5625H60.9375V70.3125H64.0625V76.5625H67.1875V70.3125C68.9109 70.3125 70.3125 68.9109 70.3125 67.1875H76.5625V64.0625H70.3125V60.9375H76.5625V57.8125H70.3125V54.6875H76.5625V51.5625H70.3125V48.4375H76.5625V45.3125H70.3125V42.1875H76.5625V39.0625H70.3125V35.9375H76.5625V32.8125H70.3125C70.3125 31.0891 68.9109 29.6875 67.1875 29.6875V23.4375H64.0625V29.6875H60.9375V23.4375H57.8125V29.6875H54.6875V23.4375H51.5625V29.6875H48.4375V23.4375H45.3125V29.6875H42.1875V23.4375H39.0625V29.6875H35.9375V23.4375H32.8125V29.6875C31.0891 29.6875 29.6875 31.0891 29.6875 32.8125H23.4375V35.9375H29.6875V39.0625H23.4375V42.1875H29.6875V45.3125H23.4375V48.4375H29.6875V51.5625H23.4375V54.6875H29.6875V57.8125H23.4375V60.9375H29.6875V64.0625H23.4375V67.1875H29.6875C29.6875 68.9109 31.0891 70.3125 32.8125 70.3125V76.5625H35.9375V70.3125H39.0625V76.5625H42.1875V70.3125H45.3125V76.5625H48.4375V70.3125H51.5625ZM32.8125 32.8125H67.1875L67.1891 67.1875H32.8125V32.8125Z" fill="black"/>
<path d="M14.0625 85.9375H17.1875V89.0625H14.0625V85.9375Z" fill="black"/>
<path d="M7.8125 85.9375H10.9375V89.0625H7.8125V85.9375Z" fill="black"/>
<path d="M85.9375 7.8125H89.0625V10.9375H85.9375V7.8125Z" fill="black"/>
<path d="M79.6875 7.8125H82.8125V10.9375H79.6875V7.8125Z" fill="black"/>
<path d="M70.3125 10.9375H73.4375V17.1875H95.3125V1.5625H73.4375V7.8125H70.3125V1.5625H48.4375V17.1875H70.3125V10.9375ZM76.5625 4.6875H92.1875V14.0625H76.5625V4.6875ZM67.1875 14.0625H51.5625V4.6875H67.1875V14.0625Z" fill="black"/>
<path d="M54.6875 7.8125H57.8125V10.9375H54.6875V7.8125Z" fill="black"/>
<path d="M60.9375 7.8125H64.0625V10.9375H60.9375V7.8125Z" fill="black"/>
<path d="M20.3125 76.5625H17.1875V79.6875H14.0625V76.5625H10.9375V79.6875H7.8125V76.5625H4.6875V79.6875H1.5625V95.3125H4.6875V98.4375H7.8125V95.3125H10.9375V98.4375H14.0625V95.3125H17.1875V98.4375H20.3125V95.3125H23.4375V79.6875H20.3125V76.5625ZM20.3125 92.1875H4.6875V82.8125H20.3125V92.1875Z" fill="black"/>
<path d="M93.75 89.0625C91.1656 89.0625 89.0625 91.1656 89.0625 93.75C89.0625 96.3344 91.1656 98.4375 93.75 98.4375C96.3344 98.4375 98.4375 96.3344 98.4375 93.75C98.4375 91.1656 96.3344 89.0625 93.75 89.0625ZM93.75 95.3125C92.8875 95.3125 92.1875 94.6109 92.1875 93.75C92.1875 92.8891 92.8875 92.1875 93.75 92.1875C94.6125 92.1875 95.3125 92.8891 95.3125 93.75C95.3125 94.6109 94.6125 95.3125 93.75 95.3125Z" fill="black"/>
<path d="M64.0625 92.1875H85.9375V95.3125H64.0625V92.1875Z" fill="black"/>
<path d="M92.1875 51.5625V85.9375H95.3125V48.4375H88.775C88.1281 46.6234 86.4094 45.3125 84.375 45.3125C81.7906 45.3125 79.6875 47.4156 79.6875 50C79.6875 52.5844 81.7906 54.6875 84.375 54.6875C86.4094 54.6875 88.1281 53.3766 88.775 51.5625H92.1875ZM84.375 51.5625C83.5125 51.5625 82.8125 50.8609 82.8125 50C82.8125 49.1391 83.5125 48.4375 84.375 48.4375C85.2375 48.4375 85.9375 49.1391 85.9375 50C85.9375 50.8609 85.2375 51.5625 84.375 51.5625Z" fill="black"/>
<path d="M82.8125 85.9375H51.5625V89.0625H85.9375V57.8125H82.8125V85.9375Z" fill="black"/>
<path d="M82.8125 20.3125H85.9375V42.1875H82.8125V20.3125Z" fill="black"/>
<path d="M89.0625 40.625C89.0625 43.2094 91.1656 45.3125 93.75 45.3125C96.3344 45.3125 98.4375 43.2094 98.4375 40.625C98.4375 38.0406 96.3344 35.9375 93.75 35.9375C91.1656 35.9375 89.0625 38.0406 89.0625 40.625ZM95.3125 40.625C95.3125 41.4859 94.6125 42.1875 93.75 42.1875C92.8875 42.1875 92.1875 41.4859 92.1875 40.625C92.1875 39.7641 92.8875 39.0625 93.75 39.0625C94.6125 39.0625 95.3125 39.7641 95.3125 40.625Z" fill="black"/>
<path d="M92.1875 20.3125H95.3125V32.8125H92.1875V20.3125Z" fill="black"/>
<path d="M6.25 73.4375C8.83437 73.4375 10.9375 71.3344 10.9375 68.75C10.9375 66.1656 8.83437 64.0625 6.25 64.0625C3.66562 64.0625 1.5625 66.1656 1.5625 68.75C1.5625 71.3344 3.66562 73.4375 6.25 73.4375ZM6.25 67.1875C7.1125 67.1875 7.8125 67.8891 7.8125 68.75C7.8125 69.6109 7.1125 70.3125 6.25 70.3125C5.3875 70.3125 4.6875 69.6109 4.6875 68.75C4.6875 67.8891 5.3875 67.1875 6.25 67.1875Z" fill="black"/>
<path d="M17.1875 32.8125H14.0625V37.5H4.6875V60.9375H7.8125V40.625H17.1875V32.8125Z" fill="black"/>
<path d="M10.9375 48.4375C10.9375 51.0219 13.0406 53.125 15.625 53.125C18.2094 53.125 20.3125 51.0219 20.3125 48.4375C20.3125 45.8531 18.2094 43.75 15.625 43.75C13.0406 43.75 10.9375 45.8531 10.9375 48.4375ZM17.1875 48.4375C17.1875 49.2984 16.4875 50 15.625 50C14.7625 50 14.0625 49.2984 14.0625 48.4375C14.0625 47.5766 14.7625 46.875 15.625 46.875C16.4875 46.875 17.1875 47.5766 17.1875 48.4375Z" fill="black"/>
<path d="M14.0625 56.25H17.1875V71.875H14.0625V56.25Z" fill="black"/>
<path d="M6.25 10.9375C8.83437 10.9375 10.9375 8.83437 10.9375 6.25C10.9375 3.66562 8.83437 1.5625 6.25 1.5625C3.66562 1.5625 1.5625 3.66562 1.5625 6.25C1.5625 8.83437 3.66562 10.9375 6.25 10.9375ZM6.25 4.6875C7.1125 4.6875 7.8125 5.38906 7.8125 6.25C7.8125 7.11094 7.1125 7.8125 6.25 7.8125C5.3875 7.8125 4.6875 7.11094 4.6875 6.25C4.6875 5.38906 5.3875 4.6875 6.25 4.6875Z" fill="black"/>
<path d="M40.625 14.0625C43.2094 14.0625 45.3125 11.9594 45.3125 9.375C45.3125 6.79062 43.2094 4.6875 40.625 4.6875C38.0406 4.6875 35.9375 6.79062 35.9375 9.375C35.9375 11.9594 38.0406 14.0625 40.625 14.0625ZM40.625 7.8125C41.4875 7.8125 42.1875 8.51406 42.1875 9.375C42.1875 10.2359 41.4875 10.9375 40.625 10.9375C39.7625 10.9375 39.0625 10.2359 39.0625 9.375C39.0625 8.51406 39.7625 7.8125 40.625 7.8125Z" fill="black"/>
<path d="M23.4375 21.875H29.6875V10.9375H32.8125V7.8125H26.5625V18.75H20.3125V29.6875H23.4375V21.875Z" fill="black"/>
<path d="M7.8125 12.5H4.6875V25H14.0625V29.6875H17.1875V21.875H7.8125V12.5Z" fill="black"/>
</svg>
