<svg width="100" height="100" viewBox="0 0 100 100" fill="none" xmlns="http://www.w3.org/2000/svg">
<g clip-path="url(#clip0_319_2191)">
<path d="M93.5821 83.3092H6.41846C3.68373 83.3092 1.4668 81.0922 1.4668 78.3575V70.7229H98.5339V78.3575C98.5337 81.0922 96.3168 83.3092 93.5821 83.3092Z" fill="#D9E7EC"/>
<path d="M1.4668 70.7225V20.3755C1.4668 17.6408 3.68373 15.4238 6.41846 15.4238H93.5821C96.3168 15.4238 98.5337 17.6408 98.5337 20.3755V70.7225H1.4668Z" fill="#596C76"/>
<path d="M1.4668 70.7225V20.3755C1.4668 17.6408 3.68373 15.4238 6.41846 15.4238H93.5821C96.3168 15.4238 98.5337 17.6408 98.5337 20.3755V70.7225H1.4668Z" fill="#596C76"/>
<path d="M98.5336 20.3749V70.7235H94.6228V20.3749C94.6228 17.6413 92.4054 15.4238 89.6699 15.4238H93.5807C96.3162 15.4238 98.5336 17.6413 98.5336 20.3749Z" fill="#465A61"/>
<path d="M98.5335 70.7224V78.3562C98.5335 81.0917 96.3162 83.3091 93.5807 83.3091H89.6699C92.4035 83.3091 94.6208 81.0917 94.6208 78.3562V70.7224H98.5335Z" fill="#C5D3DD"/>
<path d="M59.4675 83.3091H40.5321C40.5321 83.3091 40.3549 94.4489 38.9375 98.5179H61.0619C59.6445 94.4489 59.4675 83.3091 59.4675 83.3091Z" fill="#C5D3DD"/>
<path d="M59.606 87.2209H40.3926C40.5059 84.9586 40.5315 83.3101 40.5315 83.3101H59.4671C59.4673 83.3103 59.4927 84.9586 59.606 87.2209Z" fill="#C8EFFE"/>
<path d="M59.606 87.2209H40.3926C40.5059 84.9586 40.5315 83.3101 40.5315 83.3101H59.4671C59.4673 83.3103 59.4927 84.9586 59.606 87.2209Z" fill="#B6C4CF"/>
<path d="M92.4189 70.7236H7.58008V24.3165C7.58008 23.1207 8.54962 22.1511 9.74543 22.1511H90.2536C91.4494 22.1511 92.4189 23.1207 92.4189 24.3165V70.7236Z" fill="#82AEE3"/>
<path d="M92.4191 24.3174V70.7235H88.5083V24.3174C88.5083 23.1208 87.5384 22.1509 86.3438 22.1509H90.2546C91.4492 22.1509 92.4191 23.1208 92.4191 24.3174Z" fill="#528FD8"/>
<path d="M43.9375 25.3441V20.6023C43.9375 20.0499 44.3851 19.6023 44.9375 19.6023H48.2346C48.6959 19.6023 49.0924 19.2854 49.2061 18.8383C49.6057 17.2664 50.2284 15.7833 51.0375 14.4245C51.2728 14.0293 51.2149 13.5263 50.8896 13.201L48.5558 10.8672C48.1652 10.4766 48.1652 9.84355 48.5558 9.45296L51.9088 6.10001C52.2994 5.70942 52.9324 5.70942 53.323 6.10001L55.6568 8.43379C55.9821 8.75912 56.4851 8.81695 56.8804 8.5817C58.2393 7.77258 59.7222 7.15005 61.2941 6.75028C61.7412 6.63656 62.0583 6.24011 62.0583 5.77878V2.48171C62.0583 1.92934 62.5059 1.48169 63.0583 1.48169H67.8001C68.3525 1.48169 68.8001 1.92934 68.8001 2.48171V5.77878C68.8001 6.24011 69.1171 6.63656 69.5641 6.75028C71.1361 7.14986 72.6189 7.77238 73.9779 8.5817C74.3731 8.81695 74.8761 8.75912 75.2014 8.43379L77.5352 6.10001C77.9258 5.70942 78.5589 5.70942 78.9495 6.10001L82.3024 9.45296C82.693 9.84355 82.693 10.4766 82.3024 10.8672L79.9686 13.201C79.6433 13.5263 79.5855 14.0293 79.8207 14.4245C80.6298 15.7835 81.2524 17.2664 81.6521 18.8383C81.7659 19.2854 82.1623 19.6023 82.6236 19.6023H85.9207C86.4731 19.6023 86.9207 20.0499 86.9207 20.6023V25.3441C86.9207 25.8965 86.4731 26.3441 85.9207 26.3441H82.6236C82.1623 26.3441 81.7659 26.6611 81.6521 27.1081C81.2526 28.6801 80.6298 30.1631 79.8207 31.5219C79.5855 31.9171 79.6433 32.4201 79.9686 32.7454L82.3024 35.0792C82.693 35.4698 82.693 36.1029 82.3024 36.4935L78.9495 39.8464C78.5589 40.237 77.9258 40.237 77.5352 39.8464L75.2014 37.5126C74.8761 37.1873 74.3731 37.1295 73.9779 37.3647C72.6189 38.1738 71.1361 38.7964 69.5641 39.1961C69.1171 39.3099 68.8001 39.7063 68.8001 40.1676V43.4647C68.8001 44.0171 68.3525 44.4647 67.8001 44.4647H63.0581C62.5057 44.4647 62.0581 44.0171 62.0581 43.4647V40.1676C62.0581 39.7063 61.7412 39.3099 61.2941 39.1961C59.7222 38.7966 58.2393 38.1738 56.8804 37.3647C56.4851 37.1293 55.9821 37.1873 55.6568 37.5126L53.323 39.8464C52.9324 40.237 52.2994 40.237 51.9088 39.8464L48.5558 36.4935C48.1652 36.1029 48.1652 35.4698 48.5558 35.0792L50.8896 32.7454C51.2149 32.4201 51.2728 31.9171 51.0375 31.5219C50.2284 30.1629 49.6059 28.6801 49.2061 27.1081C49.0924 26.6611 48.6959 26.3441 48.2346 26.3441H44.9375C44.3851 26.3441 43.9375 25.8965 43.9375 25.3441Z" fill="#8D9CA8"/>
<path d="M71.1373 7.2351C71.0581 7.57352 70.545 8.47858 70.3459 8.72478C70.0399 9.10306 69.5303 9.25078 69.0641 9.11127C67.296 8.58194 67.0363 8.28143 66.2497 7.91311C65.8624 7.73179 65.5996 7.35995 65.5996 6.93224V1.48096H67.799C68.3527 1.48096 68.7988 1.92919 68.7988 2.48078V5.77903C68.7988 6.23918 69.1175 6.63739 69.5636 6.75091C70.0995 6.88652 70.6253 7.04791 71.1373 7.2351Z" fill="#7A8C98"/>
<path d="M72.8448 37.9797C72.0666 38.3219 70.649 38.8928 69.7396 39.149C69.681 39.1665 69.6224 39.1802 69.5636 39.1959C69.3113 39.2603 69.102 39.4129 68.9653 39.6183C68.9203 39.6847 68.8832 39.759 68.8559 39.8373C68.8363 39.8881 68.8226 39.9428 68.8129 39.9977C68.8031 40.0525 68.7992 40.1111 68.7992 40.1679V43.4646C68.7992 44.0062 68.3689 44.4482 67.8332 44.4639H65.0996C65.3128 44.2761 65.4457 43.9984 65.4457 43.6915V38.7328C65.4457 38.2517 65.778 37.8373 66.2434 37.7198C67.8879 37.3013 69.4287 36.8107 70.8483 35.9678C71.2609 35.7194 71.7868 35.7819 72.1271 36.1204L72.8448 37.9797Z" fill="#7A8C98"/>
<path d="M79.9677 13.2004C79.643 13.5271 79.5834 14.029 79.8204 14.4253C80.615 15.7598 81.2286 17.2157 81.6289 18.7593H79.0753C78.5933 18.7593 78.1791 18.4287 78.0595 17.9627C77.6412 16.3194 76.9919 14.77 76.1454 13.3499C75.9004 12.9376 75.9602 12.4118 76.3008 12.0712L77.9442 10.4277C78.3526 10.0194 78.3526 9.35816 77.9442 8.94998L76.3131 7.32079L77.5337 6.10017C77.9241 5.70977 78.5575 5.70977 78.9477 6.10017L82.3019 9.45429C82.6923 9.84469 82.6923 10.476 82.3019 10.8684L79.9677 13.2004Z" fill="#7A8C98"/>
<path d="M86.9198 20.6016V25.344C86.9198 25.8958 86.4737 26.3439 85.9199 26.3439H82.6237C82.1615 26.3439 81.7653 26.6606 81.6518 27.1086C81.2514 28.6802 80.6301 30.164 79.8213 31.5224C79.5843 31.9167 79.6441 32.4206 79.9686 32.7453L82.303 35.0797C82.6934 35.4701 82.6934 36.1034 82.303 36.4938L78.9489 39.8457C78.5585 40.2361 77.9252 40.2361 77.5348 39.8457L75.9973 38.3088L77.9819 36.4029C78.3903 35.9945 78.3903 35.3333 77.9819 34.9251L75.9043 32.9075C75.5637 32.5669 75.5039 32.0411 75.7489 31.6289C76.5954 30.2087 78.3703 26.0785 78.7887 24.4374C78.9082 23.9694 79.3225 23.6386 79.8045 23.6386H82.4157C82.9933 23.6386 83.5459 23.1707 83.5459 22.5929V19.6018H85.9201C86.4737 19.6018 86.9198 20.05 86.9198 20.6016Z" fill="#7A8C98"/>
<path d="M65.4287 32.8748C70.8971 32.8748 75.3301 28.4418 75.3301 22.9734C75.3301 17.505 70.8971 13.072 65.4287 13.072C59.9603 13.072 55.5273 17.505 55.5273 22.9734C55.5273 28.4418 59.9603 32.8748 65.4287 32.8748Z" fill="#596C76"/>
<path d="M75.3309 22.9724C75.3309 28.4415 70.898 32.8744 65.4289 32.8744C63.0903 32.8744 60.9394 32.0629 59.2441 30.7059C60.2043 31.0148 61.2268 31.183 62.2886 31.183C67.7557 31.183 72.1886 26.7503 72.1886 21.2811C72.1886 18.1544 70.7397 15.3661 68.4773 13.5515C72.4545 14.8362 75.3309 18.569 75.3309 22.9724Z" fill="#465A61"/>
<path d="M65.429 27.4197C67.8848 27.4197 69.8756 25.429 69.8756 22.9732C69.8756 20.5174 67.8848 18.5266 65.429 18.5266C62.9732 18.5266 60.9824 20.5174 60.9824 22.9732C60.9824 25.429 62.9732 27.4197 65.429 27.4197Z" fill="#D9E7EC"/>
<path d="M69.875 22.9724C69.875 25.4283 67.8845 27.4209 65.4284 27.4209C63.649 27.4209 62.1122 26.3748 61.4023 24.8632C61.8521 25.0176 62.3371 25.1018 62.8395 25.1018C65.2954 25.1018 67.288 23.1113 67.288 20.6552C67.288 19.9788 67.1375 19.3373 66.8657 18.7644C68.6157 19.3609 69.875 21.021 69.875 22.9724Z" fill="#C5D3DD"/>
<path d="M13.4727 49.6581V46.0267C13.4727 45.6036 13.8156 45.2609 14.2384 45.2609H16.7635C17.1167 45.2609 17.4204 45.0182 17.5075 44.6757C17.8135 43.4719 18.2903 42.3363 18.9101 41.2956C19.0902 40.9929 19.0459 40.6076 18.7969 40.3585L17.0097 38.5712C16.7105 38.2721 16.7105 37.7873 17.0097 37.4882L19.5775 34.9203C19.8767 34.6212 20.3614 34.6212 20.6606 34.9203L22.4479 36.7076C22.697 36.9567 23.0823 37.0011 23.385 36.8207C24.4256 36.2011 25.5613 35.7244 26.7651 35.4182C27.1076 35.331 27.3503 35.0276 27.3503 34.6741V32.149C27.3503 31.726 27.6932 31.3833 28.116 31.3833H31.7474C32.1704 31.3833 32.5132 31.7262 32.5132 32.149V34.6741C32.5132 35.0274 32.7558 35.331 33.0984 35.4182C34.3022 35.7242 35.4378 36.2009 36.4785 36.8207C36.7811 37.0009 37.1665 36.9565 37.4156 36.7076L39.2028 34.9203C39.502 34.6212 39.9868 34.6212 40.2859 34.9203L42.8538 37.4882C43.1529 37.7873 43.1529 38.2721 42.8538 38.5712L41.0665 40.3585C40.8174 40.6076 40.773 40.9929 40.9534 41.2956C41.573 42.3363 42.0497 43.4719 42.3559 44.6757C42.4431 45.0182 42.7465 45.2609 43.1 45.2609H45.625C46.0481 45.2609 46.3908 45.6038 46.3908 46.0267V49.6581C46.3908 50.0811 46.0479 50.4238 45.625 50.4238H43.1C42.7467 50.4238 42.4431 50.6665 42.3559 51.009C42.0499 52.2128 41.5732 53.3485 40.9534 54.3891C40.7732 54.6918 40.8176 55.0771 41.0665 55.3262L42.8538 57.1135C43.1529 57.4126 43.1529 57.8974 42.8538 58.1966L40.2859 60.7644C39.9868 61.0636 39.502 61.0636 39.2028 60.7644L37.4156 58.9772C37.1665 58.728 36.7811 58.6837 36.4785 58.864C35.4378 59.4836 34.3022 59.9604 33.0984 60.2666C32.7558 60.3537 32.5132 60.6571 32.5132 61.0106V63.5357C32.5132 63.9587 32.1702 64.3014 31.7474 64.3014H28.116C27.693 64.3014 27.3503 63.9585 27.3503 63.5357V61.0108C27.3503 60.6575 27.1076 60.3539 26.7651 60.2667C25.5613 59.9608 24.4256 59.484 23.385 58.8642C23.0823 58.6841 22.697 58.7284 22.4479 58.9773L20.6606 60.7646C20.3614 61.0638 19.8767 61.0638 19.5775 60.7646L17.0097 58.1967C16.7105 57.8976 16.7105 57.4128 17.0097 57.1137L18.7969 55.3264C19.0461 55.0773 19.0904 54.692 18.9101 54.3893C18.2905 53.3486 17.8137 52.213 17.5075 51.0092C17.4204 50.6667 17.1169 50.424 16.7635 50.424H14.2384C13.8154 50.4238 13.4727 50.0809 13.4727 49.6581Z" fill="#8D9CA8"/>
<path d="M34.1548 57.8048L34.9756 59.6274C34.3734 59.8875 33.7456 60.1026 33.0985 60.2668C32.7563 60.3527 32.5138 60.6558 32.5138 61.0099V63.5341C32.5138 63.9585 32.1717 64.3007 31.7473 64.3007H29.2578C29.6803 64.3007 30.0224 63.9585 30.0224 63.5341V59.5022C30.0224 59.1483 30.2649 58.8453 30.607 58.7591C31.8114 58.4522 32.178 58.3113 33.2182 57.6913C33.5213 57.5115 33.9064 57.5565 34.1548 57.8048Z" fill="#7A8C98"/>
<path d="M33.0991 35.4182C33.7463 35.5825 34.3741 35.7975 34.9763 36.0556L34.2246 37.8311C33.9763 38.0814 33.6007 38.1072 33.2879 37.9447C32.0096 37.2795 31.7122 37.252 30.3922 36.6342C30.0721 36.4843 29.8075 36.2432 29.8075 35.8911V32.1491C29.8075 31.7267 29.4654 31.3845 29.043 31.3845H31.748C32.1724 31.3845 32.5145 31.7267 32.5145 32.1491V34.6753C32.5143 35.027 32.7568 35.3301 33.0991 35.4182Z" fill="#7A8C98"/>
<path d="M40.0759 44.6748C39.6021 44.6748 39.1904 44.3638 39.045 43.9128C38.7476 42.9907 38.3488 42.1138 37.8629 41.2959C37.6809 40.9928 37.7261 40.6077 37.9742 40.3574L39.7615 38.5702C40.0606 38.271 40.0606 37.786 39.7615 37.4889L38.1972 35.9245L39.2023 34.9194C39.5014 34.6203 39.9864 34.6203 40.2855 34.9194L42.8528 37.4887C43.152 37.7859 43.152 38.2708 42.8528 38.57L41.0656 40.3572C40.8172 40.6075 40.7723 40.9926 40.952 41.2957C41.5718 42.336 42.049 43.472 42.3559 44.6746H40.0759V44.6748Z" fill="#7A8C98"/>
<path d="M42.7843 50.4902C42.575 50.586 42.4148 50.7737 42.356 51.0084C42.049 52.2128 41.5719 53.349 40.9521 54.3893C40.7721 54.6924 40.8173 55.0777 41.0656 55.3258L42.8529 57.1131C43.152 57.4122 43.152 57.8972 42.8529 58.1964L40.2856 60.7638C39.9865 61.063 39.5015 61.063 39.2023 60.7638L38.1992 59.7607L39.7616 58.1964C40.0607 57.8972 40.0607 57.4122 39.7616 57.1131L37.9743 55.3258C37.7259 55.0775 37.681 54.6924 37.8629 54.3893C38.4808 53.349 38.9579 52.213 39.2649 51.0084C39.2828 50.9373 39.3102 50.8589 39.3456 50.7835C39.4311 50.6012 39.6203 50.4902 39.8215 50.4902H42.7843Z" fill="#7A8C98"/>
<path d="M46.3907 46.026V49.657C46.3907 50.0814 46.0486 50.4236 45.6242 50.4236H43.0999C43.0569 50.4236 43.0139 50.4275 42.9709 50.4353C42.9709 50.4353 43.2994 50.1744 43.2994 49.657V46.026C43.2994 45.7289 43.1292 45.3887 42.8828 45.2634C42.8828 45.2634 43.0647 45.2615 43.0999 45.2615H45.6242C46.0486 45.2615 46.3907 45.6038 46.3907 46.026Z" fill="#7A8C98"/>
<path d="M29.9331 54.1347C33.4083 54.1347 36.2255 51.3175 36.2255 47.8423C36.2255 44.367 33.4083 41.5498 29.9331 41.5498C26.4578 41.5498 23.6406 44.367 23.6406 47.8423C23.6406 51.3175 26.4578 54.1347 29.9331 54.1347Z" fill="#D9E7EC"/>
<path d="M36.2241 47.8427C36.2241 51.3173 33.4063 54.1351 29.9316 54.1351C27.8237 54.1351 25.9583 53.0987 24.8164 51.509C25.5966 51.8551 26.4608 52.0487 27.3702 52.0487C30.8468 52.0487 33.6625 49.2311 33.6625 45.7564C33.6625 44.3877 33.2263 43.1225 32.4854 42.0901C34.6871 43.0696 36.2241 45.2773 36.2241 47.8427Z" fill="#C5D3DD"/>
<path d="M53.3377 78.4824C54.1478 78.4824 54.8042 77.8258 54.8042 77.0159C54.8042 76.2058 54.1477 75.5493 53.3377 75.5493H46.6617C45.8518 75.5493 45.1953 76.2058 45.1953 77.0159C45.1953 77.826 45.8518 78.4824 46.6617 78.4824H53.3377Z" fill="black"/>
<path d="M93.5819 13.9572H81.2852L83.3386 11.904C84.3003 10.9421 84.3003 9.37761 83.3386 8.41569L79.9857 5.06273C79.0237 4.10101 77.4594 4.10101 76.4973 5.06273L74.4185 7.14172C73.1084 6.3961 71.7143 5.81793 70.2656 5.41933V2.48178C70.2656 1.12184 69.1591 0.0151367 67.799 0.0151367H63.0572C61.6972 0.0151367 60.5907 1.12165 60.5907 2.48178V5.41913C59.1421 5.81774 57.7481 6.3959 56.4376 7.14172L54.3588 5.06273C53.3967 4.10101 51.8326 4.10101 50.8705 5.06273L47.5177 8.41569C46.556 9.37761 46.556 10.9421 47.5177 11.904L49.5713 13.9572H6.41828C2.87912 13.9572 0 16.8366 0 20.3757V78.3575C0 81.8967 2.87912 84.7758 6.41828 84.7758H20.0183C20.8282 84.7758 21.4847 84.1193 21.4847 83.3092C21.4847 82.4991 20.8282 81.8428 20.0183 81.8428H6.41828C4.49659 81.8428 2.93305 80.2792 2.93305 78.3575V72.1894H7.58068H97.067V78.3575C97.067 80.2792 95.5036 81.8428 93.5819 81.8428H26.9907C26.1808 81.8428 25.5242 82.4993 25.5242 83.3092C25.5242 84.1193 26.1808 84.7758 26.9907 84.7758H39.0285C38.9194 88.1235 38.5857 93.914 37.8338 97.0516H32.7515C31.9415 97.0516 31.285 97.7081 31.285 98.5182C31.285 99.3283 31.9415 99.9847 32.7515 99.9847H67.2487C68.0589 99.9847 68.7152 99.3281 68.7152 98.5182C68.7152 97.7081 68.0587 97.0516 67.2487 97.0516H62.1666C61.4151 93.915 61.0812 88.1239 60.9719 84.7758H93.5821C97.1211 84.7758 100 81.8967 100 78.3575V20.3757C100 16.8366 97.1209 13.9572 93.5819 13.9572ZM40.8345 97.0516C41.6102 93.2537 41.8769 87.4595 41.9621 84.7758H58.0379C58.1231 87.4595 58.3898 93.2537 59.1655 97.0516H40.8345ZM51.9258 12.1639L49.9217 10.16L52.615 7.46686L54.6191 9.47101C55.4179 10.2694 56.6557 10.4218 57.6297 9.84167C58.8881 9.09233 60.2421 8.53058 61.6548 8.17164C62.7553 7.89145 63.524 6.90764 63.524 5.77885V2.94838H67.3328V5.77885C67.3328 6.90764 68.1012 7.89164 69.2021 8.17164C70.6148 8.53077 71.9691 9.09292 73.2264 9.84128C74.2009 10.422 75.4389 10.2698 76.2378 9.47081L78.2418 7.46686L80.9349 10.16L78.9305 12.1643C78.1326 12.9627 77.9801 14.2007 78.5601 15.1751C79.309 16.4325 79.8708 17.7868 80.2299 19.1994C80.5097 20.3003 81.4937 21.0692 82.6227 21.0692H85.4534V24.878H82.6227C81.4935 24.878 80.5095 25.6468 80.2301 26.7471C79.8708 28.16 79.309 29.5141 78.5597 30.772C77.9799 31.7462 78.1326 32.9845 78.9307 33.7828L80.9349 35.7868L78.2418 38.4799L76.2378 36.4757C75.4389 35.6772 74.2007 35.525 73.227 36.1049C71.9693 36.854 70.615 37.416 69.2021 37.7751C68.1014 38.0549 67.3328 39.0387 67.3328 40.1677V42.9982H63.524V40.1677C63.524 39.0385 62.7551 38.0545 61.6544 37.7751C60.2416 37.4158 58.8875 36.854 57.6295 36.1047C56.6555 35.5252 55.4177 35.6776 54.6187 36.4757L52.615 38.4799L49.9217 35.7868L51.9258 33.7828C52.7244 32.9841 52.8768 31.7459 52.2967 30.7718C51.5475 29.5139 50.9858 28.1598 50.6266 26.7473C50.347 25.6466 49.363 24.878 48.2338 24.878H45.4034V21.0692H48.2338C49.363 21.0692 50.347 20.3003 50.6266 19.1996C50.9858 17.7869 51.5475 16.4329 52.2965 15.1751C52.8766 14.2011 52.7244 12.9631 51.9258 12.1639ZM6.11406 24.3156V69.2563H2.93305V20.3757C2.93305 18.454 4.49639 16.8905 6.41828 16.8905H48.268C48.1225 17.3008 47.99 17.7158 47.8743 18.1361H44.937C43.5768 18.1361 42.4705 19.2426 42.4705 20.6026V20.6839H9.74603C7.74344 20.6837 6.11406 22.3128 6.11406 24.3156ZM90.9531 69.2561H9.04711V24.3156C9.04711 23.9303 9.36071 23.6167 9.74603 23.6167H42.4703V25.3442C42.4703 26.7041 43.5768 27.8108 44.9368 27.8108H47.8741C48.2729 29.2597 48.8509 30.6534 49.5967 31.9637L47.5179 34.0425C46.5562 35.0044 46.5562 36.5689 47.5179 37.5309L50.8707 40.8838C51.8328 41.8455 53.3969 41.8455 54.359 40.8838L56.4378 38.805C57.7476 39.5507 59.1415 40.1288 60.5909 40.5278V43.4652C60.5909 44.8251 61.6974 45.9316 63.0574 45.9316H67.7992C69.1591 45.9316 70.2658 44.8253 70.2658 43.4652V40.5276C71.7149 40.1288 73.1088 39.5507 74.4187 38.805L76.4975 40.8838C77.4596 41.8455 79.0237 41.8455 79.9859 40.8838L83.3388 37.5309C84.3005 36.5691 84.3005 35.0044 83.3388 34.0425L81.2598 31.9637C82.0054 30.654 82.5836 29.2603 82.9824 27.8108H85.92C87.2799 27.8108 88.3866 26.7043 88.3866 25.3442V23.6167H90.2544C90.6397 23.6167 90.9533 23.9303 90.9533 24.3156V69.2561H90.9531ZM97.067 69.2561H93.8861V24.3156C93.8861 22.3128 92.257 20.6837 90.2542 20.6837H88.3864V20.6024C88.3864 19.2424 87.2799 18.1359 85.9198 18.1359H82.9824C82.8667 17.7156 82.7343 17.3006 82.5887 16.8903H93.5819C95.5036 16.8903 97.067 18.4538 97.067 20.3755V69.2561Z" fill="black"/>
<path d="M65.4287 34.341C71.697 34.341 76.7965 29.2414 76.7965 22.9732C76.7965 16.7048 71.697 11.6052 65.4287 11.6052C64.3681 11.6052 63.3179 11.7514 62.3069 12.0394C61.5281 12.2614 61.0765 13.073 61.2987 13.8519C61.5211 14.6307 62.3321 15.0819 63.1112 14.8601C63.8603 14.6463 64.6401 14.5381 65.4285 14.5381C70.0795 14.5381 73.8633 18.3221 73.8633 22.973C73.8633 27.624 70.0795 31.4078 65.4285 31.4078C60.7774 31.4078 56.9936 27.624 56.9936 22.973C56.9936 21.2825 57.4915 19.6521 58.4334 18.2578C58.8868 17.5868 58.7103 16.6751 58.0391 16.2216C57.3682 15.7683 56.4563 15.9447 56.0029 16.6159C54.7321 18.4968 54.0605 20.6949 54.0605 22.9728C54.0605 29.2416 59.1601 34.341 65.4287 34.341Z" fill="black"/>
<path d="M71.3416 22.9733C71.3416 19.7128 68.6892 17.0603 65.4286 17.0603C62.1681 17.0603 59.5156 19.7128 59.5156 22.9733C59.5156 26.2338 62.1681 28.8863 65.4286 28.8863C68.6892 28.8863 71.3416 26.2338 71.3416 22.9733ZM62.4485 22.9733C62.4485 21.3302 63.7854 19.9934 65.4284 19.9934C67.0715 19.9934 68.4084 21.3302 68.4084 22.9733C68.4084 24.6164 67.0715 25.9532 65.4284 25.9532C63.7854 25.9532 62.4485 24.6166 62.4485 22.9733Z" fill="black"/>
<path d="M45.6241 43.7943H43.6336C43.3493 42.8316 42.9634 41.9008 42.4816 41.017L43.89 39.6084C44.3118 39.1867 44.5441 38.6262 44.5441 38.0298C44.5441 37.4337 44.312 36.8733 43.8902 36.4512L41.3225 33.8836C40.4522 33.0131 39.036 33.0129 38.1655 33.8836L36.7569 35.2922C35.873 34.8103 34.9423 34.4244 33.9794 34.1401V32.1497C33.9794 30.9187 32.978 29.9175 31.747 29.9175H28.1157C26.8849 29.9175 25.8833 30.9189 25.8833 32.1497V34.1401C24.9204 34.4242 23.9899 34.8103 23.1058 35.2922L21.6972 33.8836C20.8269 33.0131 19.4107 33.0133 18.5402 33.8836L15.9722 36.4516C15.1023 37.3221 15.1023 38.7383 15.9725 39.6084L17.3811 41.017C16.8993 41.9008 16.5134 42.8312 16.2289 43.7943H14.2382C13.0073 43.7943 12.0059 44.7959 12.0059 46.0267V49.6581C12.0059 50.8891 13.0073 51.8903 14.2382 51.8903H16.2287C16.5132 52.8535 16.8993 53.7846 17.3809 54.6678L15.972 56.0766C15.1021 56.947 15.1021 58.3632 15.9723 59.2333L18.5398 61.8008C18.9615 62.2227 19.5223 62.4548 20.1186 62.4548C20.7151 62.4548 21.2757 62.2225 21.6972 61.801L23.1058 60.3924C23.9899 60.8744 24.9206 61.2605 25.8833 61.5446V63.5351C25.8833 64.7661 26.8847 65.7673 28.1157 65.7673H31.747C32.9778 65.7673 33.9794 64.7659 33.9794 63.5351V61.5446C34.9423 61.2603 35.8728 60.8746 36.7569 60.3924L38.1651 61.8006C38.5868 62.2225 39.1476 62.4548 39.7439 62.4548C40.3404 62.4548 40.901 62.2225 41.3225 61.801L43.89 59.2333C44.3118 58.8117 44.5441 58.2511 44.5441 57.6547C44.5441 57.0586 44.312 56.4982 43.8902 56.0762L42.4816 54.6678C42.9634 53.7838 43.3495 52.8533 43.6336 51.8903H45.6241C46.8549 51.8903 47.8564 50.8889 47.8564 49.6581V46.0267C47.8564 44.7957 46.8551 43.7943 45.6241 43.7943ZM44.9234 48.9572H43.0992C42.0775 48.9572 41.1871 49.6522 40.9339 50.6477C40.6669 51.6976 40.2494 52.7039 39.6925 53.639C39.1681 54.5201 39.3062 55.6404 40.029 56.3634L41.3207 57.6549L39.7439 59.2318L38.4524 57.9402C37.7296 57.2173 36.6092 57.0791 35.728 57.6037C34.7928 58.1606 33.7866 58.5782 32.7365 58.8449C31.7414 59.0979 31.0464 59.9885 31.0464 61.0102V62.8344H28.8163V61.0102C28.8163 59.9883 28.1213 59.0979 27.1258 58.8449C26.0761 58.5782 25.0699 58.1606 24.1349 57.6039C23.2535 57.0789 22.1331 57.2173 21.4105 57.94L20.1186 59.2318L18.5418 57.6549L19.8337 56.3632C20.5561 55.6406 20.6944 54.5204 20.1698 53.6386C19.6131 52.7043 19.1956 51.698 18.9286 50.6479C18.6758 49.6526 17.7854 48.9572 16.7633 48.9572H14.9389V46.7272H16.7631C17.7852 46.7272 18.6756 46.0322 18.9283 45.0368C19.1954 43.9868 19.6129 42.9805 20.1698 42.0454C20.6942 41.1643 20.5561 40.0441 19.8333 39.3212L18.5414 38.0294L20.1182 36.4526L21.4099 37.7444C22.1327 38.4673 23.2531 38.6056 24.1343 38.0808C25.0695 37.524 26.0757 37.1064 27.1256 36.8395C28.1209 36.5865 28.8159 35.696 28.8159 34.6743V32.8501H31.046V34.6743C31.046 35.696 31.741 36.5865 32.7361 36.8395C33.786 37.1064 34.7924 37.524 35.7272 38.0806C36.6088 38.6058 37.7292 38.4671 38.4516 37.7445L39.7433 36.4526L41.3201 38.0294L40.0282 39.3214C39.3056 40.0443 39.1673 41.1647 39.6921 42.0456C40.249 42.9807 40.6666 43.9872 40.9335 45.037C41.1865 46.0322 42.0769 46.7272 43.0988 46.7272H44.923V48.9572H44.9234Z" fill="black"/>
<path d="M29.9309 40.083C25.6526 40.083 22.1719 43.5637 22.1719 47.8421C22.1719 52.1204 25.6526 55.6012 29.9309 55.6012C34.2093 55.6012 37.69 52.1204 37.69 47.8421C37.69 43.5637 34.2095 40.083 29.9309 40.083ZM29.9309 52.6681C27.2699 52.6681 25.1049 50.5033 25.1049 47.8421C25.1049 45.1808 27.2699 43.0161 29.9309 43.0161C32.592 43.0161 34.757 45.1808 34.757 47.8421C34.757 50.5033 32.5922 52.6681 29.9309 52.6681Z" fill="black"/>
</g>
<defs>
<clipPath id="clip0_319_2191">
<rect width="100" height="100" fill="white"/>
</clipPath>
</defs>
</svg>
