<svg width="100" height="100" viewBox="0 0 100 100" fill="none" xmlns="http://www.w3.org/2000/svg">
<g clip-path="url(#clip0_562_156)">
<path d="M68.8984 41.2515L86.0859 71.0219L98.4375 63.8906V24.1984L68.8984 41.2515Z" fill="#6A7F91"/>
<path d="M68.8984 41.2515L86.0859 71.0219L98.4375 63.8906V24.1984L68.8984 41.2515Z" fill="#788D9E"/>
<path d="M70.4629 43.9578L86.0863 71.0219L98.4379 63.8906V27.8062L70.4629 43.9578Z" fill="#6A7F91"/>
<path d="M54.982 90.7813L67.9242 83.3094C72.3163 80.773 75.7672 76.8802 77.7586 72.2156L84.5242 68.3094L70.4617 43.9516L63.6961 47.8578L58.1398 47.0125C55.3362 46.5865 52.4711 47.1265 50.0148 48.5438L37.5742 55.7313" fill="#F5C0A6"/>
<path d="M50.7297 85.4359L56.25 92.0187C56.58 92.4117 56.8293 92.8659 56.9837 93.3552C57.1381 93.8446 57.1945 94.3596 57.1498 94.8708C57.1052 95.382 56.9602 95.8794 56.7232 96.3345C56.4862 96.7897 56.1619 97.1937 55.7688 97.5234C54.9754 98.189 53.9503 98.5124 52.9187 98.4225C51.887 98.3325 50.9333 97.8366 50.2672 97.0437L45.0188 90.7812L46.6312 92.6562L32.0766 83.3125C27.6844 80.7761 24.2336 76.8833 22.2422 72.2187L15.4766 68.3125L29.5391 43.9547L36.3047 47.8609L41.8609 47.0156C44.6646 46.5896 47.5297 47.1296 49.9859 48.5469L62.4266 55.7344" fill="#FCD4C5"/>
<path d="M58.6406 58.4016L76.2156 79.3484C76.8815 80.142 77.2049 81.1676 77.1147 82.1997C77.0244 83.2317 76.5279 84.1856 75.7344 84.8516C74.9414 85.518 73.9161 85.8422 72.8841 85.7528C71.8521 85.6635 70.8979 85.1679 70.2313 84.375L52.6562 63.4234" fill="#FCD4C5"/>
<path d="M52.6559 63.4234L71.8934 86.3516C72.5593 87.1451 72.8827 88.1708 72.7924 89.2028C72.7022 90.2348 72.2057 91.1887 71.4121 91.8547C70.6183 92.5204 69.5926 92.8435 68.5606 92.753C67.5285 92.6625 66.5747 92.1657 65.909 91.3719L46.6699 68.4453" fill="#FCD4C5"/>
<path d="M46.6699 68.4453L64.2465 89.3922C64.9124 90.1858 65.2358 91.2114 65.1455 92.2434C65.0553 93.2754 64.5588 94.2294 63.7652 94.8953C62.9716 95.5612 61.946 95.8846 60.914 95.7944C59.882 95.7041 58.9281 95.2076 58.2621 94.4141L40.6855 73.4672" fill="#FCD4C5"/>
<path d="M60.903 76.9C60.804 76.782 60.7293 76.6457 60.683 76.4989C60.6368 76.352 60.6199 76.1975 60.6334 76.0441C60.6469 75.8907 60.6905 75.7415 60.7617 75.605C60.8329 75.4685 60.9303 75.3473 61.0483 75.2484C61.2863 75.0489 61.5937 74.9519 61.9031 74.9789C62.2124 75.0058 62.4985 75.1545 62.6983 75.3922L71.8936 86.3516C72.5595 87.1451 72.8829 88.1708 72.7927 89.2028C72.7024 90.2348 72.2059 91.1887 71.4124 91.8547C71.1032 92.1064 70.7569 92.3088 70.3858 92.4547C70.8335 91.7577 71.0471 90.9359 70.9954 90.1091C70.9437 89.2823 70.6294 88.4936 70.0983 87.8578L60.903 76.9Z" fill="#F9C9B2"/>
<path d="M26.5274 76.1003L23.7869 79.3651C22.3998 81.0174 22.6149 83.4814 24.2673 84.8684C25.9196 86.2554 28.3836 86.0403 29.7706 84.388L32.5111 81.1232C33.8982 79.4709 33.6831 77.0069 32.0307 75.6199C30.3783 74.2329 27.9144 74.4479 26.5274 76.1003Z" fill="#F5C0A6"/>
<path d="M32.5122 81.1248L28.1091 86.3701C26.7221 88.0225 26.9372 90.4864 28.5895 91.8735C30.2419 93.2605 32.7058 93.0454 34.0929 91.393L38.496 86.1477C39.883 84.4953 39.6679 82.0314 38.0156 80.6443C36.3632 79.2573 33.8993 79.4724 32.5122 81.1248Z" fill="#F5C0A6"/>
<path d="M38.4981 86.1466L35.7576 89.4114C34.3705 91.0637 34.5856 93.5277 36.238 94.9147C37.8903 96.3018 40.3543 96.0867 41.7413 94.4343L44.4818 91.1696C45.8689 89.5172 45.6538 87.0533 44.0014 85.6662C42.349 84.2792 39.8851 84.4943 38.4981 86.1466Z" fill="#F5C0A6"/>
<path d="M43.7576 92.0414L44.4879 91.1714C45.154 90.3779 46.108 89.8815 47.1401 89.7914C48.1722 89.7013 49.1978 90.0249 49.9913 90.6909C50.7848 91.357 51.2812 92.311 51.3713 93.3431C51.4614 94.3752 51.1378 95.4008 50.4717 96.1943L49.7394 97.0667C49.0733 97.8602 48.1193 98.3566 47.0872 98.4467C46.0551 98.5368 45.0295 98.2132 44.236 97.5471C43.8429 97.2172 43.5187 96.8129 43.2819 96.3576C43.0451 95.9023 42.9003 95.4047 42.8559 94.8934C42.8115 94.3821 42.8682 93.867 43.023 93.3777C43.1777 92.8883 43.4273 92.4342 43.7576 92.0414Z" fill="#F5C0A6"/>
<path d="M63.6968 47.8641L58.1405 47.0188C55.3369 46.5928 52.4718 47.1327 50.0155 48.55L36.953 56.0938C36.0559 56.6118 35.4012 57.465 35.1331 58.4656C34.865 59.4663 35.0054 60.5325 35.5233 61.4297C36.0413 62.3269 36.8945 62.9815 37.8952 63.2496C38.8959 63.5177 39.9621 63.3774 40.8593 62.8594L51.0077 57C51.8284 58.4219 52.9211 59.6682 54.2234 60.6677C55.5258 61.6672 57.0123 62.4004 58.598 62.8254C60.1838 63.2504 61.8377 63.3588 63.4654 63.1446C65.093 62.9303 66.6625 62.3975 68.0843 61.5766" fill="#F5C0A6"/>
<path d="M68.8965 41.2504L77.0152 36.5629L94.2027 66.3317L86.084 71.0192L68.8965 41.2504Z" fill="#F5FDFF"/>
<path d="M31.1016 41.2515L13.9141 71.0219L1.5625 63.8906V24.1984L31.1016 41.2515Z" fill="#788D9E"/>
<path d="M1.5625 63.8906L13.9141 71.0219L29.5375 43.9578L1.5625 27.8062V63.8906Z" fill="#6A7F91"/>
<path d="M5.79102 66.3336L22.9785 36.5648L31.0973 41.2523L13.9098 71.0211L5.79102 66.3336Z" fill="#F5FDFF"/>
<path d="M56.7178 80.4141C56.619 80.2962 56.4979 80.199 56.3615 80.1279C56.225 80.0569 56.0759 80.0135 55.9226 80.0001C55.7694 79.9868 55.615 80.0038 55.4683 80.0501C55.3217 80.0965 55.1856 80.1713 55.0678 80.2703C54.9498 80.3692 54.8524 80.4903 54.7812 80.6269C54.71 80.7634 54.6664 80.9126 54.6529 81.066C54.6395 81.2194 54.6563 81.3739 54.7026 81.5208C54.7488 81.6676 54.8236 81.8039 54.9225 81.9219L62.4553 90.8984C62.9862 91.5343 63.3005 92.3229 63.3525 93.1495C63.4044 93.9762 63.1914 94.798 62.7444 95.4953C63.115 95.3495 63.4608 95.1471 63.7694 94.8953C64.1626 94.5655 64.4869 94.1615 64.7239 93.7064C64.9608 93.2512 65.1058 92.7539 65.1505 92.2427C65.1952 91.7315 65.1387 91.2165 64.9843 90.7271C64.8299 90.2378 64.5806 89.7836 64.2507 89.3906L56.7178 80.4141Z" fill="#F9C9B2"/>
<path d="M48.9349 86.9437C48.8358 86.8259 48.761 86.6897 48.7146 86.5428C48.6682 86.396 48.6512 86.2415 48.6646 86.0882C48.6779 85.9348 48.7214 85.7856 48.7924 85.649C48.8635 85.5124 48.9607 85.3912 49.0786 85.2922C49.3168 85.0925 49.6245 84.9955 49.9342 85.0225C50.2438 85.0494 50.5301 85.1981 50.7302 85.4359L56.2505 92.0203C56.9164 92.8139 57.2398 93.8395 57.1496 94.8715C57.0593 95.9036 56.5628 96.8575 55.7693 97.5234C55.4601 97.7752 55.1138 97.9776 54.7427 98.1234C55.1904 97.4264 55.404 96.6047 55.3523 95.7779C55.3006 94.9511 54.9863 94.1623 54.4552 93.5265L48.9349 86.9437Z" fill="#F9C9B2"/>
<path d="M30.7125 79.5984L27.9687 82.8625C27.4349 83.4958 26.7129 83.9424 25.9078 84.1371C25.1027 84.3318 24.2565 84.2647 23.4922 83.9453C23.7004 84.2855 23.9602 84.5913 24.2625 84.8516C24.6552 85.182 25.1093 85.4319 25.5986 85.5868C26.0879 85.7417 26.603 85.7987 27.1144 85.7544C27.6258 85.7102 28.1234 85.5655 28.5788 85.3289C29.0343 85.0922 29.4386 84.768 29.7687 84.375L32.5078 81.1094C32.9106 80.643 33.1957 80.0868 33.3393 79.4875C33.4829 78.8882 33.4808 78.2632 33.3332 77.6649C33.1855 77.0666 32.8966 76.5124 32.4906 76.0487C32.0847 75.5851 31.5735 75.2255 31 75C31.4474 75.6974 31.6607 76.5193 31.609 77.3463C31.5573 78.1732 31.2433 78.9622 30.7125 79.5984Z" fill="#EBB69D"/>
<path d="M36.6961 84.6203L32.2945 89.8656C31.7603 90.4989 31.038 90.9453 30.2327 91.1401C29.4274 91.3348 28.581 91.2677 27.8164 90.9484C28.138 91.4734 28.5807 91.9137 29.1074 92.2325C29.6341 92.5513 30.2295 92.7393 30.8437 92.7807C31.458 92.8222 32.0733 92.7159 32.638 92.4708C33.2028 92.2257 33.7006 91.8489 34.0898 91.3719L38.4914 86.1266C38.8929 85.6601 39.177 85.1044 39.3199 84.5058C39.4629 83.9073 39.4605 83.2832 39.3131 82.6857C39.1657 82.0882 38.8774 81.5346 38.4725 81.0712C38.0675 80.6078 37.5575 80.248 36.9852 80.0219C37.4323 80.7195 37.6454 81.5415 37.5934 82.3684C37.5414 83.1954 37.2271 83.9842 36.6961 84.6203Z" fill="#EBB69D"/>
<path d="M42.682 89.6422L39.943 92.9063C39.4089 93.5397 38.6866 93.9863 37.8812 94.1811C37.0759 94.3758 36.2294 94.3085 35.4648 93.9891C35.7863 94.5141 36.2289 94.9546 36.7555 95.2735C37.2821 95.5924 37.8775 95.7806 38.4918 95.8222C39.106 95.8638 39.7213 95.7577 40.2862 95.5127C40.851 95.2677 41.3489 94.891 41.7383 94.4141L44.4773 91.1484C44.8788 90.682 45.1629 90.1263 45.3058 89.5277C45.4488 88.9291 45.4464 88.305 45.299 87.7075C45.1516 87.11 44.8634 86.5565 44.4584 86.0931C44.0534 85.6297 43.5435 85.2699 42.9711 85.0438C43.4183 85.7413 43.6313 86.5633 43.5793 87.3903C43.5274 88.2173 43.213 89.0061 42.682 89.6422Z" fill="#EBB69D"/>
<path d="M48.6699 94.6625L47.9387 95.5344C47.4043 96.1679 46.6817 96.6144 45.876 96.8089C45.0703 97.0033 44.2235 96.9356 43.459 96.6156C43.7811 97.1401 44.224 97.58 44.7508 97.8985C45.2775 98.217 45.8728 98.4049 46.4869 98.4465C47.101 98.4881 47.7162 98.3822 48.281 98.1376C48.8459 97.893 49.3441 97.5169 49.734 97.0406L50.4652 96.1703C51.1312 95.3767 51.4546 94.3511 51.3643 93.3191C51.274 92.2871 50.7775 91.3332 49.984 90.6672C49.6761 90.4152 49.3308 90.2127 48.9605 90.0672C49.407 90.7645 49.6195 91.5861 49.5673 92.4124C49.515 93.2388 49.2007 94.027 48.6699 94.6625Z" fill="#EBB69D"/>
<path d="M5.79102 66.3336L21.416 39.2711L29.5348 43.9586L13.9098 71.0211L5.79102 66.3336Z" fill="#E6F5FA"/>
<path d="M68.8965 41.2504L77.0152 36.5629L94.2027 66.3317L86.084 71.0192L68.8965 41.2504Z" fill="#F5FDFF"/>
<path d="M70.4609 43.9558L78.5797 39.2683L94.2047 66.3308L86.0859 71.0183L70.4609 43.9558Z" fill="#E6F5FA"/>
<path d="M50 39.0625C60.3553 39.0625 68.75 30.6678 68.75 20.3125C68.75 9.95716 60.3553 1.5625 50 1.5625C39.6447 1.5625 31.25 9.95716 31.25 20.3125C31.25 30.6678 39.6447 39.0625 50 39.0625Z" fill="#B6F085"/>
<path d="M53.125 4.68751C49.6048 4.684 46.155 5.67247 43.1708 7.5396C40.1867 9.40674 37.7891 12.077 36.2529 15.2442C34.7167 18.4114 34.104 21.9474 34.4851 25.4468C34.8663 28.9462 36.2258 32.2674 38.4078 35.0297C42.0094 37.8746 46.5302 39.2982 51.1121 39.0303C55.694 38.7623 60.018 36.8214 63.2634 33.576C66.5088 30.3305 68.4497 26.0065 68.7177 21.4246C68.9857 16.8428 67.5621 12.3219 64.7171 8.72032C61.4191 6.106 57.3335 4.68465 53.125 4.68751Z" fill="#A0E576"/>
<path d="M46.1319 23.6266L42.2647 19.7594C41.8252 19.32 41.2292 19.0732 40.6077 19.0732C39.9862 19.0732 39.3902 19.32 38.9507 19.7594C38.7329 19.977 38.5601 20.2355 38.4422 20.5199C38.3243 20.8044 38.2637 21.1093 38.2637 21.4172C38.2637 21.7251 38.3243 22.03 38.4422 22.3145C38.5601 22.5989 38.7329 22.8573 38.9507 23.075L44.4741 28.5938C44.6918 28.8116 44.9502 28.9843 45.2347 29.1022C45.5191 29.2201 45.824 29.2808 46.1319 29.2808C46.4398 29.2808 46.7447 29.2201 47.0292 29.1022C47.3136 28.9843 47.5721 28.8116 47.7897 28.5938L61.0475 15.3359C61.4869 14.8964 61.7338 14.3004 61.7338 13.6789C61.7338 13.0574 61.4869 12.4614 61.0475 12.0219C60.608 11.5825 60.012 11.3357 59.3905 11.3357C58.769 11.3357 58.173 11.5825 57.7335 12.0219L46.1319 23.6266Z" fill="white"/>
<path d="M50 40.2344C53.9402 40.2344 57.7919 39.066 61.068 36.8769C64.3441 34.6879 66.8976 31.5765 68.4054 27.9363C69.9133 24.296 70.3078 20.2904 69.5391 16.4259C68.7704 12.5615 66.873 9.01174 64.0869 6.22562C61.3008 3.43949 57.751 1.54212 53.8866 0.773427C50.0221 0.00473723 46.0165 0.399257 42.3762 1.9071C38.736 3.41494 35.6246 5.96837 33.4356 9.24451C31.2465 12.5206 30.0781 16.3723 30.0781 20.3125C30.0843 25.5942 32.1852 30.6578 35.92 34.3926C39.6547 38.1273 44.7183 40.2282 50 40.2344ZM50 2.73438C53.4766 2.73438 56.8752 3.76532 59.7659 5.69683C62.6566 7.62834 64.9096 10.3737 66.2401 13.5857C67.5705 16.7976 67.9186 20.332 67.2404 23.7418C66.5621 27.1517 64.888 30.2838 62.4296 32.7421C59.9713 35.2005 56.8391 36.8746 53.4293 37.5529C50.0195 38.2311 46.4851 37.883 43.2731 36.5526C40.0612 35.2221 37.3158 32.9691 35.3843 30.0784C33.4528 27.1877 32.4219 23.7891 32.4219 20.3125C32.4273 15.6522 34.281 11.1842 37.5763 7.88883C40.8717 4.59346 45.3396 2.73976 50 2.73438Z" fill="black"/>
<path d="M43.6469 29.4281C43.9732 29.7548 44.3608 30.0139 44.7873 30.1907C45.2139 30.3675 45.6711 30.4585 46.1328 30.4585C46.5946 30.4585 47.0518 30.3675 47.4783 30.1907C47.9049 30.0139 48.2924 29.7548 48.6188 29.4281L61.875 16.1703C62.534 15.5108 62.9041 14.6167 62.9041 13.6844C62.9041 12.7521 62.534 11.858 61.875 11.1984C61.5486 10.872 61.161 10.613 60.7345 10.4363C60.3079 10.2597 59.8508 10.1687 59.3891 10.1687C58.9274 10.1687 58.4702 10.2597 58.0437 10.4363C57.6172 10.613 57.2296 10.872 56.9031 11.1984L46.1219 21.9797L43.0938 18.9313C42.7671 18.605 42.3794 18.3463 41.9527 18.1699C41.5261 17.9935 41.0689 17.9028 40.6072 17.9031C40.1455 17.9034 39.6884 17.9946 39.262 18.1716C38.8356 18.3485 38.4482 18.6077 38.1219 18.9344C37.463 19.5941 37.0932 20.4886 37.0938 21.421C37.0943 22.3534 37.4653 23.2474 38.125 23.9063L43.6469 29.4281ZM39.7797 20.5891C39.8885 20.4802 40.0178 20.3938 40.16 20.3349C40.3022 20.2759 40.4547 20.2456 40.6086 20.2456C40.7626 20.2456 40.915 20.2759 41.0572 20.3349C41.1995 20.3938 41.3287 20.4802 41.4375 20.5891L45.3125 24.4547C45.4214 24.5636 45.5506 24.65 45.6928 24.7089C45.835 24.7679 45.9875 24.7982 46.1414 24.7982C46.2954 24.7982 46.4478 24.7679 46.5901 24.7089C46.7323 24.65 46.8615 24.5636 46.9703 24.4547L58.5625 12.8547C58.6713 12.7458 58.8006 12.6594 58.9428 12.6005C59.085 12.5415 59.2375 12.5112 59.3914 12.5112C59.5454 12.5112 59.6978 12.5415 59.8401 12.6005C59.9823 12.6594 60.1115 12.7458 60.2203 12.8547C60.3292 12.9635 60.4156 13.0927 60.4746 13.235C60.5335 13.3772 60.5638 13.5296 60.5638 13.6836C60.5638 13.8376 60.5335 13.99 60.4746 14.1322C60.4156 14.2745 60.3292 14.4037 60.2203 14.5125L46.9625 27.7703C46.8537 27.8792 46.7245 27.9656 46.5822 28.0245C46.44 28.0835 46.2876 28.1138 46.1336 28.1138C45.9797 28.1138 45.8272 28.0835 45.685 28.0245C45.5428 27.9656 45.4135 27.8792 45.3047 27.7703L39.7797 22.2453C39.6709 22.1366 39.5845 22.0075 39.5256 21.8654C39.4667 21.7233 39.4363 21.571 39.4363 21.4172C39.4363 21.2634 39.4667 21.1111 39.5256 20.969C39.5845 20.8269 39.6709 20.6978 39.7797 20.5891Z" fill="black"/>
<path d="M97.8516 23.1891L68.3203 40.2438C68.0512 40.399 67.8548 40.6548 67.7743 40.9548C67.6937 41.2548 67.7355 41.5746 67.8906 41.8438L68.8672 43.5344L63.4734 46.65L58.3172 45.8688C55.4692 45.4435 52.5596 45.9245 50 47.2438C47.4412 45.9237 44.5319 45.4426 41.6844 45.8688L36.5281 46.65L31.1328 43.536L32.1094 41.8453C32.2646 41.5763 32.3067 41.2567 32.2264 40.9567C32.1461 40.6567 31.9501 40.4009 31.6812 40.2453L2.14844 23.1891C1.97035 23.0863 1.76834 23.0321 1.5627 23.0321C1.35706 23.032 1.15504 23.0861 0.976914 23.1889C0.79879 23.2916 0.650842 23.4395 0.54793 23.6175C0.445019 23.7955 0.390767 23.9975 0.390625 24.2031V63.8906C0.390651 64.0964 0.444804 64.2986 0.547648 64.4769C0.650492 64.6551 0.798411 64.8032 0.976562 64.9063L13.3203 72.0375C13.4536 72.1146 13.6007 72.1647 13.7533 72.1849C13.906 72.2051 14.0611 72.1951 14.2098 72.1553C14.3585 72.1155 14.498 72.0469 14.6202 71.9532C14.7423 71.8595 14.8449 71.7427 14.9219 71.6094L15.8984 69.9172L21.3156 73.0422C22.0128 74.5844 22.8673 76.0505 23.8656 77.4172L22.8797 78.5922C22.2737 79.3082 21.8788 80.1787 21.739 81.1062C21.5993 82.0338 21.7203 82.982 22.0884 83.8448C22.4566 84.7075 23.0574 85.4509 23.8238 85.9918C24.5902 86.5328 25.4919 86.8499 26.4281 86.9078C26.0082 87.9039 25.9182 89.0083 26.1713 90.0593C26.4243 91.1102 27.0071 92.0526 27.8344 92.7485C28.6636 93.4412 29.6929 93.8503 30.7714 93.9158C31.8499 93.9813 32.9211 93.6998 33.8281 93.1125C34.0791 94.1584 34.6584 95.0964 35.4813 95.7891C36.3701 96.5335 37.487 96.9513 38.6462 96.9729C39.8055 96.9945 40.9371 96.6186 41.8531 95.9078C42.0818 96.7248 42.512 97.4713 43.1042 98.0788C43.6964 98.6863 44.4318 99.1352 45.2427 99.3846C46.0536 99.6339 46.9142 99.6755 47.7454 99.5057C48.5766 99.3358 49.3519 98.96 50 98.4125C50.6474 98.9605 51.4221 99.337 52.2529 99.5074C53.0838 99.6778 53.9442 99.6367 54.755 99.3878C55.5658 99.1389 56.3011 98.6902 56.8932 98.0829C57.4853 97.4757 57.9154 96.7293 58.1438 95.9125C58.8099 96.4342 59.5963 96.7802 60.431 96.9189C61.2657 97.0575 62.1218 96.9842 62.9207 96.7058C63.7197 96.4274 64.436 95.9528 65.0037 95.3255C65.5715 94.6982 65.9727 93.9383 66.1703 93.1156C67.0769 93.706 68.1492 93.9893 69.2291 93.9238C70.3089 93.8582 71.3391 93.4473 72.1677 92.7517C72.9962 92.056 73.5792 91.1125 73.8306 90.0603C74.082 89.0081 73.9886 87.9029 73.5641 86.9078C74.5002 86.8503 75.4018 86.5336 76.1682 85.993C76.9346 85.4525 77.5356 84.7094 77.9039 83.8469C78.2722 82.9845 78.3935 82.0365 78.254 81.1091C78.1145 80.1817 77.7198 79.3113 77.1141 78.5953L76.1281 77.4203C77.127 76.054 77.9815 74.5878 78.6781 73.0453L84.0953 69.9203L85.0719 71.6125C85.1489 71.7458 85.2514 71.8626 85.3736 71.9563C85.4958 72.05 85.6352 72.1187 85.784 72.1584C85.9327 72.1982 86.0878 72.2082 86.2404 72.188C86.393 72.1678 86.5402 72.1177 86.6734 72.0406L99.0172 64.9094C99.1953 64.8064 99.3433 64.6583 99.4461 64.48C99.5489 64.3017 99.6031 64.0996 99.6031 63.8938V24.2031C99.6024 23.9984 99.548 23.7975 99.4454 23.6203C99.3428 23.4431 99.1956 23.2959 99.0184 23.1934C98.8412 23.0908 98.6403 23.0364 98.4356 23.0357C98.2308 23.0349 98.0295 23.0878 97.8516 23.1891ZM2.73438 63.2203V26.2328L21.3813 36.9985L5.36406 64.7391L2.73438 63.2203ZM13.4844 69.4281L7.39062 65.9109L23.4109 38.1703L29.5047 41.6875L13.4844 69.4281ZM25.0187 83.9594C24.7436 83.7287 24.5165 83.4461 24.3506 83.1277C24.1847 82.8092 24.0832 82.4612 24.0519 82.1035C24.0205 81.7459 24.06 81.3855 24.168 81.0431C24.276 80.7006 24.4504 80.3828 24.6812 80.1078L27.4203 76.8438C27.651 76.5684 27.9337 76.3411 28.2523 76.1751C28.5708 76.0091 28.919 75.9075 29.2769 75.8761C29.6348 75.8448 29.9953 75.8843 30.3379 75.9924C30.6805 76.1005 30.9984 76.2752 31.2734 76.5063C31.8288 76.9723 32.1764 77.6399 32.2397 78.3622C32.303 79.0844 32.0768 79.8023 31.6109 80.3578L28.8703 83.6235C28.404 84.1786 27.7363 84.5259 27.0141 84.5889C26.2918 84.6519 25.5741 84.4254 25.0187 83.9594ZM33.1937 90.625C32.963 90.9002 32.6802 91.1273 32.3616 91.2932C32.0431 91.4592 31.6949 91.5607 31.3371 91.592C30.9793 91.6234 30.6188 91.5839 30.2762 91.4759C29.9337 91.3679 29.6157 91.1934 29.3406 90.9625C29.0655 90.7316 28.8386 90.4488 28.6728 90.1301C28.507 89.8115 28.4056 89.4634 28.3744 89.1055C28.3432 88.7477 28.3828 88.3873 28.491 88.0448C28.5991 87.7023 28.7737 87.3844 29.0047 87.1094L33.4047 81.8641C33.8709 81.3084 34.5387 80.9606 35.2614 80.8973C35.984 80.834 36.7021 81.0604 37.2578 81.5266C37.8135 81.9928 38.1613 82.6606 38.2246 83.3832C38.2879 84.1058 38.0615 84.824 37.5953 85.3797L33.1937 90.625ZM43.5797 90.4016L40.8406 93.6656C40.6098 93.9409 40.3271 94.1679 40.0085 94.3339C39.6899 94.4998 39.3418 94.6013 38.984 94.6327C38.6262 94.664 38.2657 94.6245 37.9231 94.5165C37.5806 94.4085 37.2626 94.2341 36.9875 94.0031C36.4321 93.5371 36.0845 92.8695 36.0213 92.1472C35.958 91.425 36.1841 90.7071 36.65 90.1516L39.3891 86.886C39.8551 86.3302 40.5227 85.9824 41.2452 85.919C41.9676 85.8555 42.6857 86.0817 43.2414 86.5477C43.7971 87.0137 44.145 87.6813 44.2084 88.4038C44.2718 89.1262 44.0457 89.8459 43.5797 90.4016ZM49.5641 95.4235L48.8344 96.2938C48.3684 96.8497 47.7006 97.1977 46.978 97.2613C46.2554 97.3249 45.5372 97.0988 44.9813 96.6328C44.4253 96.1668 44.0773 95.4991 44.0137 94.7765C43.9501 94.0539 44.1762 93.3356 44.6422 92.7797L45.375 91.9063C45.8414 91.3508 46.5094 91.0033 47.232 90.9403C47.9546 90.8773 48.6726 91.1039 49.2281 91.5703C49.7836 92.0367 50.1311 92.7047 50.1941 93.4273C50.2571 94.1499 50.0305 94.868 49.5641 95.4235ZM74.9812 83.9594C74.4254 84.4245 73.7077 84.6501 72.9857 84.5868C72.2637 84.5236 71.5962 84.1766 71.1297 83.6219L63.25 74.2328C63.1519 74.1123 63.0309 74.0125 62.8939 73.9392C62.7569 73.8659 62.6067 73.8206 62.452 73.8059C62.2973 73.7912 62.1413 73.8074 61.9929 73.8536C61.8446 73.8997 61.7069 73.9749 61.5879 74.0748C61.4688 74.1746 61.3709 74.2972 61.2996 74.4352C61.2284 74.5733 61.1853 74.7242 61.1729 74.879C61.1605 75.0339 61.1791 75.1897 61.2274 75.3374C61.2758 75.485 61.3531 75.6216 61.4547 75.7391L70.9969 87.1094C71.4631 87.6651 71.6894 88.3833 71.6261 89.1059C71.5628 89.8285 71.2151 90.4963 70.6594 90.9625C70.1037 91.4287 69.3855 91.6551 68.6629 91.5918C67.9403 91.5285 67.2725 91.1807 66.8063 90.625L57.2641 79.2547C57.1672 79.1307 57.0463 79.0275 56.9087 78.9512C56.771 78.8749 56.6194 78.8271 56.4629 78.8107C56.3064 78.7943 56.1482 78.8095 55.9977 78.8556C55.8472 78.9016 55.7075 78.9775 55.587 79.0787C55.4665 79.1799 55.3676 79.3044 55.2962 79.4446C55.2248 79.5849 55.1824 79.7381 55.1715 79.8951C55.1606 80.0521 55.1815 80.2096 55.2328 80.3584C55.2842 80.5072 55.3649 80.6441 55.4703 80.761L63.3484 90.1563C63.5793 90.4313 63.7537 90.7492 63.8617 91.0916C63.9697 91.4341 64.0092 91.7945 63.9779 92.1522C63.9467 92.5099 63.8452 92.858 63.6795 93.1765C63.5137 93.495 63.2868 93.7778 63.0117 94.0086C62.7367 94.2394 62.4188 94.4139 62.0764 94.5219C61.7339 94.6299 61.3735 94.6694 61.0158 94.6381C60.6581 94.6068 60.31 94.5054 59.9915 94.3396C59.673 94.1738 59.3902 93.947 59.1594 93.6719L51.6266 84.6875C51.5285 84.567 51.4074 84.4672 51.2704 84.3939C51.1334 84.3206 50.9833 84.2753 50.8286 84.2606C50.6739 84.2459 50.5179 84.2621 50.3695 84.3082C50.2212 84.3544 50.0835 84.4296 49.9644 84.5295C49.8454 84.6293 49.7474 84.7519 49.6762 84.8899C49.605 85.028 49.5619 85.1789 49.5495 85.3337C49.5371 85.4886 49.5556 85.6444 49.604 85.792C49.6524 85.9397 49.7296 86.0763 49.8312 86.1938L55.3563 92.7781C55.7948 93.2984 56.0235 93.9637 55.9975 94.6437C55.9716 95.3237 55.6929 95.9695 55.2159 96.4549C54.7389 96.9402 54.0981 97.2302 53.4186 97.268C52.7392 97.3058 52.0701 97.0888 51.5422 96.6594C52.1527 95.8442 52.5019 94.8632 52.5438 93.8456C52.5858 92.828 52.3185 91.8216 51.7772 90.9589C51.2359 90.0962 50.446 89.4178 49.5115 89.0129C48.577 88.6079 47.5418 88.4956 46.5422 88.6906C46.5556 87.9415 46.4018 87.1988 46.0921 86.5166C45.7823 85.8344 45.3244 85.2298 44.7516 84.7469C44.1764 84.2671 43.5017 83.9214 42.7763 83.7349C42.0509 83.5484 41.293 83.5258 40.5578 83.6688C40.5709 82.9197 40.417 82.1771 40.1072 81.495C39.7975 80.8128 39.3397 80.2082 38.7672 79.725C38.192 79.2454 37.5172 78.8998 36.7918 78.7133C36.0664 78.5269 35.3087 78.5042 34.5734 78.6469C34.5862 77.8979 34.4321 77.1554 34.1224 76.4733C33.8127 75.7912 33.3551 75.1865 32.7828 74.7031C31.751 73.8376 30.4177 73.4172 29.0761 73.5344C27.7344 73.6516 26.4942 74.2968 25.6281 75.3281L25.4266 75.5703C24.6012 74.3727 23.8967 73.0961 23.3234 71.7594C23.2233 71.5264 23.0507 71.3319 22.8313 71.2047L17.0797 67.8844L29.9719 45.5563L35.7219 48.8766C35.9523 49.0099 36.2213 49.0606 36.4844 49.0203L42.0391 48.175C43.8521 47.9066 45.7032 48.0808 47.4344 48.6828L36.3672 55.0781C35.7896 55.4116 35.2833 55.8555 34.8773 56.3846C34.4712 56.9137 34.1734 57.5176 34.0007 58.1618C33.828 58.806 33.784 59.4779 33.871 60.1392C33.958 60.8004 34.1744 61.438 34.5078 62.0156C34.8412 62.5932 35.2852 63.0995 35.8143 63.5056C36.3434 63.9116 36.9473 64.2095 37.5915 64.3821C38.2357 64.5548 38.9076 64.5989 39.5688 64.5119C40.2301 64.4249 40.8677 64.2085 41.4453 63.875L50.625 58.5766C51.9174 60.4209 53.645 61.9177 55.6547 62.9341C57.6643 63.9506 59.8938 64.4551 62.1453 64.4031L75.3125 80.1078C75.7783 80.6629 76.005 81.3801 75.9429 82.1021C75.8808 82.8241 75.535 83.492 74.9812 83.9594ZM77.1687 71.2125C76.9493 71.3397 76.7767 71.5342 76.6766 71.7672C76.1036 73.1036 75.3991 74.3797 74.5734 75.5766L64.9172 64.0625C66.2335 63.7597 67.4973 63.2626 68.6672 62.5875C68.9365 62.4321 69.1331 62.1761 69.2137 61.8757C69.2943 61.5754 69.2523 61.2553 69.0969 60.9859C68.9415 60.7166 68.6854 60.52 68.3851 60.4394C68.0847 60.3588 67.7647 60.4009 67.4953 60.5563C64.8931 62.0532 61.8035 62.4573 58.9038 61.68C56.0042 60.9026 53.531 59.0073 52.0266 56.4094C51.871 56.1406 51.6152 55.9445 51.3152 55.8642C51.0151 55.784 50.6955 55.826 50.4266 55.9813L40.2703 61.8406C39.9592 62.0202 39.6159 62.1367 39.2598 62.1835C38.9037 62.2304 38.5418 62.2066 38.1949 62.1136C37.848 62.0206 37.5228 61.8602 37.2379 61.6415C36.953 61.4228 36.7139 61.1501 36.5344 60.8391C36.3548 60.528 36.2383 60.1846 36.1915 59.8285C36.1446 59.4724 36.1684 59.1106 36.2614 58.7637C36.3544 58.4168 36.5148 58.0916 36.7335 57.8066C36.9522 57.5217 37.2249 57.2827 37.5359 57.1031L50.5906 49.5656C52.8205 48.2832 55.419 47.7942 57.9625 48.1781L63.5172 49.0235C63.7803 49.0643 64.0495 49.0135 64.2797 48.8797L70.0297 45.5594L82.9203 67.8875L77.1687 71.2125ZM86.5125 69.4281L70.5 41.6875L76.5938 38.1703L92.6094 65.9109L86.5125 69.4281ZM97.2625 63.2203L94.6328 64.7391L78.6188 36.9985L97.2656 26.2328L97.2625 63.2203Z" fill="black"/>
</g>
<defs>
<clipPath id="clip0_562_156">
<rect width="100" height="100" fill="white"/>
</clipPath>
</defs>
</svg>
