<svg width="100" height="100" viewBox="0 0 100 100" fill="none" xmlns="http://www.w3.org/2000/svg">
<path d="M35.7031 68.9063C35.4688 68.125 34.6094 67.7344 33.8281 67.8906C30.9375 68.6719 25.7031 71.25 24.2188 76.6406C29.2969 77.3438 34.2188 74.2969 35.7031 69.9219C35.7812 69.5313 35.7812 69.2188 35.7031 68.9063Z" fill="#98D909"/>
<path d="M13.125 62.1875C13.3594 61.4063 14.2188 61.0156 15 61.1719C17.8906 61.9531 23.125 64.5313 24.6094 69.9219C19.5312 70.625 14.6094 67.5781 13.125 63.2031C13.0469 62.8906 13.0469 62.5 13.125 62.1875Z" fill="#98D909"/>
<path d="M61.25 68.9063C61.0156 68.125 60.1562 67.7344 59.375 67.8906C56.4844 68.6719 51.25 71.25 49.7656 76.6406C54.8438 77.3438 59.7656 74.2969 61.25 69.9219C61.4063 69.5313 61.4063 69.2188 61.25 68.9063Z" fill="#98D909"/>
<path d="M38.75 62.1875C38.9844 61.4063 39.8438 61.0156 40.625 61.1719C43.5156 61.9531 48.75 64.5313 50.2344 69.9219C45.1563 70.625 40.2344 67.5781 38.75 63.2031C38.5938 62.8906 38.5938 62.5 38.75 62.1875Z" fill="#98D909"/>
<path d="M86.875 68.9063C86.6406 68.125 85.7813 67.7344 85 67.8906C82.1094 68.6719 76.875 71.25 75.3906 76.6406C80.4688 77.3438 85.3906 74.2969 86.875 69.9219C86.9531 69.5313 86.9531 69.2188 86.875 68.9063Z" fill="#98D909"/>
<path d="M64.2969 62.1875C64.5312 61.4063 65.3906 61.0156 66.1719 61.1719C69.0625 61.9531 74.2969 64.5313 75.7812 69.9219C70.7031 70.625 65.7812 67.5781 64.2969 63.2031C64.2188 62.8906 64.2188 62.5 64.2969 62.1875Z" fill="#98D909"/>
<path d="M78.3594 90.5469C76.1719 87.8125 72.3437 86.9531 69.2969 88.5937C65.7031 86.9531 61.5625 87.7344 58.8281 90.5469H58.75C56.5625 87.8125 52.7344 86.9531 49.6875 88.5937C46.5625 87.1094 42.8906 87.5781 40.1563 89.6875C37.8906 87.5781 34.5312 87.1094 31.7969 88.5937C27.6562 86.7187 22.7344 88.125 20.1562 91.9531C18.2812 92.1875 16.6406 93.2812 15.625 94.9219H84.5312C83.3594 92.4219 81.0156 90.7812 78.3594 90.5469Z" fill="#F4A86C"/>
<path d="M22.1094 30.9375L23.75 20.3125L49.7656 25.625L48.8281 31.5625L22.1094 30.9375Z" fill="#EFEFFB"/>
<path d="M20.3909 7.10935C16.0159 4.29686 10.2347 5.62498 7.42216 9.99998C4.60966 14.375 5.93779 20.1562 10.3128 22.9687C10.3909 22.9687 10.3909 23.0469 10.469 23.0469L17.1097 27.1875L26.9534 11.25L20.3909 7.10935ZM15.6253 20.7031L12.969 19.0625C10.7815 17.7344 10.0784 14.8437 11.4065 12.6562C12.7347 10.4687 15.6253 9.7656 17.8128 11.0937C17.8128 11.0937 17.8909 11.0937 17.8909 11.1719L20.5472 12.8125L15.6253 20.7031Z" fill="#EFEFFB"/>
<path d="M27.8125 43.75L5.85938 30.1562L8.4375 26.25L22.8125 5.07812L42.7344 17.4219L30.0781 39.6094L27.8125 43.75Z" fill="#98D909"/>
<path d="M27.8125 43.75L5.85938 30.1563L8.4375 26.25L30.0781 39.6094L27.8125 43.75Z" fill="#EFEFFB"/>
<path d="M94.9219 93.5938H85.3125C83.9844 91.25 81.7188 89.6875 79.0625 89.2969C78.3594 88.5156 77.5781 87.8906 76.6406 87.4219C76.6406 85.1563 76.6406 81.7188 76.7188 78.125C78.0469 78.125 79.1406 77.9688 80.4688 77.5781C81.1719 77.3438 81.5625 76.5625 81.4062 75.8594C81.1719 75.1563 80.3906 74.7656 79.6875 74.9219C78.9062 75.1563 78.125 75.3125 77.3438 75.3125C79.5312 70.7813 84.6875 69.375 85.3125 69.1406C85.4688 69.1406 85.5469 69.2188 85.5469 69.375C85.3125 70.0781 84.9219 70.7813 84.4531 71.4063C83.9844 72.0313 84.1406 72.8906 84.7656 73.2813C85.3906 73.75 86.25 73.5938 86.6406 72.9688C87.2656 72.1094 87.7344 71.1719 88.0469 70.2344C88.2812 69.6094 88.2031 68.9844 88.0469 68.3594C87.5 66.9531 86.0156 66.0938 84.5312 66.4844C81.6406 67.2656 78.9844 68.8281 76.9531 70.9375C77.1094 67.8906 77.5 64.7656 78.0469 61.7188C78.2031 61.0156 77.7344 60.2344 76.9531 60.1563C76.25 60 75.4688 60.4688 75.3906 61.25C75.1562 62.4219 75 63.75 74.7656 65.1563C72.6562 62.5781 69.6875 60.7031 66.4844 59.8438C65 59.4531 63.5156 60.3125 62.9688 61.7188C62.7344 62.3438 62.7344 62.9688 62.9688 63.5938C64.6875 68.2813 69.2188 71.4063 74.2969 71.3281C73.9844 76.3281 73.9062 81.4063 73.9062 86.4063C72.3438 86.1719 70.7031 86.3281 69.2188 87.0313C65.7031 85.7031 61.7969 86.25 58.8281 88.5938C56.7188 86.6406 53.8281 85.8594 51.0938 86.5625C51.0938 84.0625 51.0938 81.1719 51.1719 78.0469C56.7188 78.0469 60.9375 74.7656 62.5781 70.3125C62.8125 69.6875 62.7344 69.0625 62.5781 68.4375C62.0312 67.0313 60.5469 66.1719 59.0625 66.5625C56.1719 67.3438 53.5156 68.9063 51.4844 71.0156C51.6406 67.9688 52.0312 64.8438 52.5781 61.7969C52.7344 61.0938 52.2656 60.3125 51.4844 60.2344C50.7031 60.1563 50 60.5469 49.9219 61.3281C49.6875 62.5 49.5312 63.8281 49.2969 65.2344C47.1875 62.6563 44.2188 60.7813 41.0156 59.9219C39.5312 59.5313 38.0469 60.3906 37.5 61.7969C37.2656 62.4219 37.2656 63.0469 37.5 63.6719C39.2188 68.3594 43.75 71.4844 48.8281 71.4063C48.5156 76.4844 48.4375 81.5625 48.4375 86.7188C45.625 86.0156 42.6562 86.4844 40.2344 88.0469C37.8125 86.25 34.6094 85.9375 31.7969 87.1094C29.8438 86.3281 27.6562 86.1719 25.625 86.6406C25.625 84.1406 25.625 81.1719 25.7031 78.0469C31.25 78.0469 35.4688 74.7656 37.1094 70.3125C37.3438 69.6875 37.2656 69.0625 37.1094 68.4375C36.5625 67.0313 35.0781 66.1719 33.5938 66.5625C30.7031 67.3438 28.0469 68.9063 26.0156 71.0156C26.1719 67.9688 26.5625 64.8438 27.1094 61.7969C27.2656 61.0938 26.7969 60.3125 26.0156 60.2344C25.3125 60.0781 24.5312 60.5469 24.4531 61.3281C24.2187 62.5 24.0625 63.8281 23.8281 65.2344C21.7188 62.6563 18.75 60.7813 15.5469 59.9219C14.0625 59.5313 12.5781 60.3906 12.0312 61.7969C11.7969 62.4219 11.7969 63.0469 12.0312 63.6719C13.75 68.3594 18.2813 71.4844 23.3594 71.4063C23.0469 76.875 22.9688 82.2656 22.9688 87.7344C21.6406 88.4375 20.4688 89.4531 19.5312 90.7031C17.7344 91.0938 16.1719 92.1094 15.0781 93.5938H5.07813C4.29688 93.5938 3.67188 94.2188 3.67188 95C3.67188 95.7813 4.29688 96.4063 5.07813 96.4063H94.9219C95.7031 96.4063 96.3281 95.7813 96.3281 95C96.3281 94.2188 95.7031 93.5156 94.9219 93.5938ZM65.625 62.7344C65.625 62.5781 65.7031 62.5 65.8594 62.5C66.4844 62.6563 71.6406 64.1406 73.8281 68.5938C70.1562 68.4375 66.7188 66.0938 65.625 62.7344ZM40 62.7344C40 62.5781 40.0781 62.5 40.2344 62.5C40.8594 62.6563 46.0156 64.1406 48.2031 68.5938C44.5312 68.4375 41.1719 66.0938 40 62.7344ZM14.4531 62.7344C14.4531 62.5781 14.5312 62.5 14.6875 62.5C15.3125 62.6563 20.4688 64.1406 22.6562 68.5938C18.9844 68.4375 15.5469 66.0938 14.4531 62.7344ZM34.1406 69.2188C34.2188 69.2188 34.2969 69.2188 34.375 69.375V69.4531C33.2812 72.8125 29.8438 75.1563 26.1719 75.3125C28.3594 70.8594 33.5156 69.375 34.1406 69.2188ZM59.7656 69.2188C59.8438 69.2188 59.9219 69.2188 60 69.375V69.4531C58.9063 72.8125 55.4688 75.1563 51.7969 75.3125C53.9844 70.8594 59.1406 69.375 59.7656 69.2188ZM19.2188 93.5938C19.5313 93.4375 19.9219 93.3594 20.3125 93.3594C20.7031 93.2813 21.0156 93.125 21.25 92.7344C23.4375 89.4531 27.5781 88.2813 31.1719 89.9219C31.5625 90.0781 32.0312 90.0781 32.4219 89.9219C34.6875 88.6719 37.3438 89.1406 39.1406 90.8594C39.6094 91.3281 40.3906 91.3281 40.9375 90.9375C43.2812 89.1406 46.4062 88.75 49.0625 90C49.4531 90.1563 49.8438 90.1563 50.2344 90H50.3125C52.8125 88.6719 55.9375 89.375 57.6563 91.5625C58.125 92.1875 59.1406 92.3438 59.7656 91.7188C62.1094 89.2969 65.7031 88.6719 68.6719 90.0781C69.0625 90.2344 69.5312 90.2344 69.9219 90.0781C72.4219 88.75 75.5469 89.375 77.2656 91.6406C77.5 91.9531 77.8906 92.1094 78.2812 92.1875C79.6875 92.2656 80.9375 92.8906 81.9531 93.8281H19.2188V93.5938ZM9.60938 7.65626C9.21875 7.03126 9.45312 6.17189 10.0781 5.78126C10.9375 5.23439 11.875 4.92189 12.8125 4.68751C13.5156 4.53126 14.2969 4.92189 14.4531 5.70314C14.6094 6.48439 14.2188 7.18751 13.4375 7.34376C12.7344 7.50001 12.0312 7.81251 11.4063 8.20314C10.7813 8.51564 9.92188 8.28126 9.60938 7.65626ZM5.15625 31.25L27.1094 44.8438C27.7344 45.2344 28.5937 45.0781 28.9844 44.375C28.9844 44.375 28.9844 44.375 28.9844 44.2969L40 25L48.2031 26.7188L47.6562 30.1563L41.5625 30C40.7812 30 40.1562 30.5469 40.1562 31.3281C40.1562 32.1094 40.7031 32.7344 41.4844 32.7344L47.2656 32.8906V33.0469C47.1875 33.8281 47.6562 34.5313 48.4375 34.6094H48.6719C49.375 34.6094 49.9219 34.1406 50 33.4375L51.1719 25.8594L51.4062 24.2188C51.5625 23.4375 51.0156 22.7344 50.3125 22.6563C49.5312 22.5 48.8281 23.0469 48.75 23.75V23.8281L48.6719 24.0625L41.4062 22.5L43.9062 18.125C44.2969 17.5 44.0625 16.6406 43.4375 16.25L23.5156 3.90626C22.8906 3.51564 22.1094 3.67189 21.6406 4.29689L20.7031 5.70314C20.0781 5.39064 19.4531 5.07814 18.75 4.84376C18.0469 4.60939 17.2656 4.92189 16.9531 5.62501C16.6406 6.32814 17.0312 7.10939 17.7344 7.42189C17.8125 7.42189 17.8125 7.42189 17.8906 7.50001C18.2813 7.65626 18.75 7.81251 19.1406 8.04689L18.0469 9.68751C15 8.20314 11.4063 9.53126 10 12.5C8.82813 14.8438 9.375 17.7344 11.4063 19.5313L10.3125 21.1719C7.34375 18.6719 6.64063 14.375 8.59375 11.0156C8.98438 10.3906 8.75 9.53126 8.125 9.14064C7.5 8.75001 6.64063 8.98439 6.25 9.60939C3.51563 14.1406 4.53125 20.0781 8.75 23.4375L4.6875 29.375C4.29688 30 4.45313 30.8594 5.15625 31.25C5.07813 31.25 5.07813 31.25 5.15625 31.25ZM27.2656 41.7969L7.8125 29.6875L8.90625 28.0469L28.2812 40.0781L27.2656 41.7969ZM23.2031 6.95314L40.8594 17.8906L29.6094 37.7344L10.3906 25.8594L23.2031 6.95314ZM12.6563 13.2813C13.4375 11.9531 15.0781 11.4063 16.5625 11.875L12.9688 17.1875C12.0312 16.0938 11.875 14.5313 12.6563 13.2813ZM30.625 26.4844L32.8906 22.5C33.2812 21.7969 34.0625 21.5625 34.7656 21.9531C35.4688 22.3438 35.7031 23.125 35.3125 23.8281V23.9063L33.0469 27.8906C32.6562 28.5156 31.875 28.75 31.1719 28.4375C30.4688 27.9688 30.2344 27.1094 30.625 26.4844ZM55.625 27.2656C55.625 28.0469 55 28.6719 54.2188 28.6719C53.4375 28.6719 52.8125 28.0469 52.8125 27.2656C52.8125 26.4844 53.4375 25.8594 54.2188 25.8594C55 25.8594 55.625 26.4844 55.625 27.2656ZM62.1875 28.5938C62.1875 29.375 61.5625 30 60.7813 30C60 30 59.375 29.375 59.375 28.5938C59.375 27.8125 60 27.1875 60.7813 27.1875C61.5625 27.2656 62.1875 27.8125 62.1875 28.5938ZM61.0156 37.4219C61.0156 38.2031 60.3906 38.8281 59.6094 38.8281C58.8281 38.8281 58.2031 38.2031 58.2031 37.4219C58.2031 36.6406 58.8281 36.0156 59.6094 36.0156C60.3906 36.0156 61.0156 36.7188 61.0156 37.4219ZM68.2031 31.5625C68.2031 32.3438 67.5781 32.9688 66.7969 32.9688C66.0156 32.9688 65.3906 32.3438 65.3906 31.5625C65.3906 30.7813 66.0156 30.1563 66.7969 30.1563C67.5781 30.1563 68.2031 30.7813 68.2031 31.5625ZM65.4688 43.9844C65.4688 44.7656 64.8438 45.3906 64.0625 45.3906C63.2813 45.3906 62.6562 44.7656 62.6562 43.9844C62.6562 43.2031 63.2813 42.5781 64.0625 42.5781C64.8438 42.5781 65.4688 43.2031 65.4688 43.9844ZM73.2813 35.9375C73.2813 36.7188 72.6562 37.3438 71.875 37.3438C71.0938 37.3438 70.4688 36.7188 70.4688 35.9375C70.4688 35.1563 71.0938 34.5313 71.875 34.5313C72.7344 34.6094 73.2813 35.1563 73.2813 35.9375ZM77.1094 41.4844C77.1094 42.2656 76.4844 42.8906 75.7031 42.8906C74.9219 42.8906 74.2969 42.2656 74.2969 41.4844C74.2969 40.7031 74.9219 40.0781 75.7031 40.0781C76.4844 40.0781 77.1094 40.7031 77.1094 41.4844ZM67.8906 51.4844C67.8906 52.2656 67.2656 52.8906 66.4844 52.8906C65.7031 52.8906 65.0781 52.2656 65.0781 51.4844C65.0781 50.7031 65.7031 50.0781 66.4844 50.0781C67.2656 50.0781 67.8906 50.7031 67.8906 51.4844ZM79.7656 47.6563C79.7656 48.4375 79.1406 49.0625 78.3594 49.0625C77.5781 49.0625 77.0312 48.4375 77.0312 47.6563C77.0312 46.875 77.6562 46.25 78.4375 46.25C79.2188 46.25 79.7656 46.875 79.7656 47.6563ZM54.7656 32.5781C54.7656 33.3594 54.1406 33.9844 53.3594 33.9844C52.5781 33.9844 51.9531 33.3594 51.9531 32.5781C51.9531 31.7969 52.5781 31.1719 53.3594 31.1719C54.1406 31.1719 54.7656 31.875 54.7656 32.5781Z" fill="#2D0703"/>
</svg>
