<svg width="100" height="100" viewBox="0 0 100 100" fill="none" xmlns="http://www.w3.org/2000/svg">
<path d="M98.5688 45.4151L98.574 45.4418C98.993 47.5633 97.6121 49.6211 95.4928 50.0397L63.1078 56.435L61.5859 48.7287L93.9709 42.3334C96.0904 41.9152 98.1498 43.2938 98.5688 45.4151Z" fill="#D63030"/>
<path d="M98.5697 45.415L98.5725 45.4285L80.465 49.0043C78.0633 49.4787 75.7188 48.2422 74.6934 46.1408L93.9719 42.3338C96.0914 41.9152 98.1508 43.2937 98.5697 45.415Z" fill="#F44545"/>
<path d="M70.5939 42.3385L70.6084 42.4115C71.1062 44.9322 71.0756 47.4336 70.59 49.8033C69.1213 57.001 63.4758 62.9687 55.8177 64.481L23.6976 70.824C13.5191 72.8342 3.63826 66.2123 1.6281 56.0336L1.61365 55.9605C1.40408 54.899 2.0947 53.8711 3.15427 53.6615L68.2947 40.7976C69.3547 40.5886 70.3842 41.2769 70.5939 42.3385Z" fill="#5A5555"/>
<path d="M70.5953 42.3385L70.6098 42.4116C71.1076 44.9323 71.077 47.4336 70.5914 49.8033C68.2602 51.7358 65.4283 53.1328 62.2492 53.7606L30.1311 60.1032C22.4691 61.6162 14.9785 58.2385 10.8848 52.1354L68.2963 40.7979C69.3561 40.5887 70.3856 41.277 70.5953 42.3385Z" fill="#736E6E"/>
<path d="M7.9423 8.64007C7.54464 7.01917 8.14093 5.24768 9.58312 4.22073C11.4708 2.87659 14.0909 3.31702 15.4353 5.20491C16.7794 7.09261 16.339 9.71272 14.4511 11.0571C14.2952 11.168 14.1335 11.2645 13.9689 11.3514L20.8308 20.9877C21.4538 21.8629 21.2478 23.0885 20.3728 23.7117L18.1189 25.3168C17.2439 25.9399 16.0181 25.7338 15.3948 24.8588L8.53312 15.2219C8.39718 15.349 8.25324 15.4703 8.09738 15.5815C6.20949 16.9256 3.58957 16.4852 2.24523 14.5973C0.900893 12.7094 1.34152 10.0895 3.22941 8.74514C4.6716 7.718 6.54054 7.73401 7.9423 8.64007Z" fill="#EBE1DC"/>
<path d="M43.1189 22.15C39.7879 24.9731 39.3759 29.9619 42.1992 33.2928C45.0222 36.6238 50.0111 37.0356 53.342 34.2125C55.0373 32.776 55.9744 30.7781 56.116 28.7236C56.9757 28.4998 57.8 28.0842 58.5234 27.4713C61.099 25.2885 61.4173 21.4311 59.2345 18.8555C57.0517 16.2799 53.1943 15.9615 50.6187 18.1442C49.8955 18.757 49.3505 19.502 48.9884 20.3135C46.9382 20.1162 44.8138 20.7133 43.1189 22.15Z" fill="#6E9213"/>
<path d="M36.1594 14.3797C38.7111 14.3797 40.7797 12.3111 40.7797 9.75935C40.7797 7.20762 38.7111 5.13904 36.1594 5.13904C33.6076 5.13904 31.5391 7.20762 31.5391 9.75935C31.5391 12.3111 33.6076 14.3797 36.1594 14.3797Z" fill="#D63030"/>
<path d="M8.41133 46.8496C10.9631 46.8496 13.0316 44.781 13.0316 42.2293C13.0316 39.6775 10.9631 37.6089 8.41133 37.6089C5.8596 37.6089 3.79102 39.6775 3.79102 42.2293C3.79102 44.781 5.8596 46.8496 8.41133 46.8496Z" fill="#D63030"/>
<path d="M33.3136 37.2539C32.8126 38.6453 31.9614 39.8349 30.7638 40.6883C26.8482 43.4767 20.7153 41.5826 17.0638 36.4576C13.4142 31.3306 11.1735 20.6695 15.0913 17.883C16.3398 16.9945 18.0599 17.0121 19.9464 17.6148C23.9796 18.9045 28.7581 22.867 31.2454 26.3582C33.7794 29.9176 34.4507 34.0974 33.3136 37.2539Z" fill="#F77026"/>
<path d="M33.3134 37.2539C30.022 37.2051 26.4017 35.2129 23.9263 31.7375C21.4058 28.1975 19.5585 22.0178 19.946 17.6149C23.9792 18.9045 28.7577 22.867 31.245 26.3582C33.7792 29.9176 34.4505 34.0975 33.3134 37.2539Z" fill="#FF883E"/>
<path d="M63.8653 78.6945H35.0034C34.5573 78.1269 34.1659 77.5047 33.8353 76.8453C32.7159 74.632 32.2521 71.9961 32.5046 69.5266C32.9724 64.9709 35.2931 60.8654 37.706 56.9459C37.9898 56.4859 38.6589 56.49 38.9349 56.9537C40.5239 59.6248 42.1128 62.2939 43.7019 64.9631C44.923 63.8477 45.8896 62.4582 46.5237 60.9299C46.7546 60.3723 47.5472 60.3408 47.8193 60.883C49.1206 63.4699 49.2146 66.6637 47.9837 69.2935C51.8073 66.2937 54.8444 62.2957 56.7073 57.8047C57.0536 56.9691 57.721 55.9301 58.5761 56.2236C60.0359 56.7207 65.0886 65.2918 61.1925 73.8316C63.8597 72.5459 66.204 70.6008 67.971 68.2232C68.337 67.732 69.1021 67.8906 69.247 68.4855C70.1743 72.3016 67.6069 76.683 63.8653 78.6945Z" fill="#FB5858"/>
<path d="M63.2633 78.6945H35.0021C34.5561 78.1269 34.1646 77.5047 33.834 76.8453C33.8359 76.7984 33.8418 76.7494 33.8457 76.7025C34.2566 72.7105 36.2898 69.1138 38.4053 65.6775C38.6537 65.2744 39.2389 65.2783 39.4816 65.6853C40.875 68.0238 41.1705 70.0472 42.5637 72.3877C43.632 71.4072 44.6398 68.7724 45.1938 67.4338C45.3973 66.9426 46.092 66.9172 46.3307 67.3908C47.4715 69.6588 48.491 74.1939 47.4109 76.499C50.7631 73.8689 53.4244 70.3662 55.0564 66.4308C55.3598 65.699 55.9449 64.7871 56.6943 65.0453C57.9742 65.4797 60.4262 70.3816 57.0113 77.8668C59.3498 76.7396 62.792 75.5459 64.3418 73.4619C64.6607 73.0314 65.332 73.1703 65.4592 73.6928C65.7955 75.0763 64.7896 76.9021 63.2633 78.6945Z" fill="#FF883E"/>
<path d="M76.6187 91.9963V96.4172C76.6187 97.1797 75.9998 97.7988 75.2371 97.7988H24.7645C24.002 97.7988 23.3828 97.1799 23.3828 96.4172V91.9963C23.3828 91.2338 24.0018 90.6146 24.7645 90.6146H75.2375C75.9998 90.6146 76.6187 91.2336 76.6187 91.9963Z" fill="#D63030"/>
<path d="M76.6186 93.3777V96.4172C76.6186 97.1797 75.9996 97.7988 75.2369 97.7988H28.1719V94.7594C28.1719 93.9969 28.7908 93.3777 29.5535 93.3777H76.6186Z" fill="#F44545"/>
<path d="M93.5674 40.8645L87.325 42.1012C86.5285 42.2598 86.0119 43.0307 86.1705 43.8272C86.3271 44.6217 87.1 45.1363 87.8945 44.9817C94.5053 43.6867 94.2098 43.6959 94.6164 43.6959C95.7787 43.6959 96.7865 44.5256 97.0115 45.6664L97.0174 45.6957C97.2805 47.0276 96.4113 48.311 95.0937 48.5703L70.9557 53.351C71.6053 51.6721 72.034 49.9029 72.2178 48.0869L82.1352 46.1223C82.9316 45.9637 83.4482 45.1908 83.2896 44.3963C83.133 43.6018 82.3602 43.0852 81.5656 43.2418L72.2939 45.0774C72.2143 43.4604 71.9697 42.3694 71.9162 42.0363C71.5992 40.4375 70.1863 39.2772 68.5582 39.2772C67.9318 39.2772 71.0963 38.7315 18.2588 49.175C17.4623 49.3317 16.9457 50.1045 17.1043 50.899C17.2609 51.6936 18.0338 52.2102 18.8283 52.0535L68.4604 42.2223C68.748 42.1715 68.9859 42.3557 69.0357 42.6078C69.3398 44.5666 69.5703 46.1776 69.1824 48.6879C68.5066 53.075 66.1473 57.0594 62.6562 59.75C60.0191 53.1719 56.7809 53.7942 55.3492 57.2432C54.3648 59.6168 53.0439 61.834 51.4395 63.826L50.2516 64.0608C50.1068 62.7164 49.7252 61.4092 49.1283 60.2213C48.2885 58.5549 45.8752 58.6576 45.1656 60.368C44.8506 61.1291 44.4396 61.8514 43.9484 62.5088L40.1951 56.2037C39.3488 54.7848 37.3137 54.7824 36.4555 56.1764C35.8234 57.1998 35.0838 58.4209 34.3812 59.7106C33.9918 60.4209 34.2541 61.3133 34.9664 61.7008C35.6768 62.0902 36.5691 61.8279 36.9564 61.1176C37.4025 60.3016 37.8684 59.507 38.3086 58.7752L42.3828 65.6184C42.4078 65.6459 42.6883 66.2971 43.4846 66.4149C43.9228 66.4795 44.3652 66.3444 44.69 66.0469C45.6385 65.1777 46.4484 64.1672 47.0893 63.0725C47.5865 64.8932 47.4664 66.925 46.6529 68.6711C45.9998 70.0705 47.6799 71.3992 48.8877 70.4479C55.7592 65.0578 57.8773 58.5781 58.3021 57.8848C60.3346 60.3246 62.685 67.0182 59.8559 73.2227C59.2871 74.4686 60.5924 75.7483 61.8283 75.1541C64.1375 74.0387 66.2254 72.4674 67.9514 70.5574C67.7576 73.0994 65.9867 75.749 63.4779 77.2264H35.7496C33.9633 74.5604 33.234 70.8086 34.7008 66.219C34.9453 65.4459 34.5187 64.6221 33.7459 64.3756C32.9728 64.1311 32.149 64.5576 31.9025 65.3305C31.6344 66.1797 31.423 67.0035 31.2705 67.8195C23.906 69.1963 22.6894 69.7295 19.9266 69.7295C11.6959 69.7295 4.56113 63.8608 2.95859 55.7711L2.94492 55.6986C2.89101 55.4705 3.03847 55.1805 3.32851 55.1233L13.0697 53.1938C13.8662 53.0371 14.3828 52.2643 14.2242 51.4697C14.0676 50.6733 13.2947 50.1586 12.5002 50.3153L2.75898 52.2447C0.952729 52.6006 -0.304497 54.3611 0.064448 56.2719L0.080073 56.3424C1.95273 65.8 10.2988 72.6647 19.9266 72.6647C23.0678 72.6647 24.7254 72.0233 30.9691 70.8721C30.9719 73.1203 31.4844 75.3477 32.4131 77.2789H17.2641C15.124 77.2789 13.383 79.0199 13.383 81.16V89.4442C13.383 91.5842 15.124 93.3252 17.2641 93.3252H21.7228V96.5541C21.7228 97.3649 22.3797 98.0217 23.1904 98.0217H76.8086C77.6193 98.0217 78.2762 97.3649 78.2762 96.5541V93.3262H82.735C84.875 93.3262 86.616 91.5852 86.616 89.4451V81.161C86.616 79.0209 84.875 77.2799 82.735 77.2799H67.9783C70.2109 74.7705 71.4498 71.3209 70.6717 68.1393C70.2369 66.343 67.9041 65.8561 66.7912 67.3486C65.9283 68.509 64.9166 69.558 63.7934 70.46C64.2857 67.8688 64.1785 65.2498 63.5801 62.6912C64.1992 62.3901 67.1758 60.132 69.3059 56.6719L95.6629 51.451C98.1758 50.952 99.9996 48.735 99.9996 46.1754C99.9996 42.7694 96.9078 40.2041 93.5674 40.8645ZM17.2641 90.3908C16.7426 90.3908 16.3184 89.9666 16.3184 89.4451V81.161C16.3184 80.6395 16.7426 80.2152 17.2641 80.2152H48.5318V90.391C45.1609 90.3908 20.849 90.3908 17.2641 90.3908ZM75.341 95.0873H24.6582V93.3262H75.3412V95.0873H75.341ZM82.7352 80.215C83.2566 80.215 83.6809 80.6393 83.6809 81.1608V89.4449C83.6809 89.9664 83.2566 90.3906 82.7352 90.3906C79.3141 90.3906 54.749 90.3906 51.4674 90.3906V80.2149L82.7352 80.215Z" fill="black"/>
<path d="M41.0794 34.2418C46.2576 40.3521 56.1138 37.5099 57.4593 29.8195C61.6589 28.0933 63.3902 23.0611 61.1933 19.1193L65.621 15.3668C66.2394 14.8428 66.316 13.9166 65.7919 13.2984C65.2679 12.6799 64.3419 12.6033 63.7236 13.1275L59.2956 16.8801C55.7728 14.0707 50.5236 14.9428 48.1281 18.8086C40.3322 18.8754 35.8943 28.1238 41.0794 34.2418ZM48.8474 21.7744C49.4765 21.834 50.0716 21.4875 50.3285 20.9115C51.4556 18.3836 54.5773 17.3791 56.9835 18.8394L47.9228 26.5183C46.8783 27.4035 47.5148 29.1056 48.8724 29.1056C49.846 29.1056 49.4501 28.9045 58.8812 21.0785C59.9261 23.6894 58.4273 26.6056 55.746 27.3037C55.1355 27.4627 54.6949 27.9937 54.6513 28.6232C54.2517 34.4316 47.0078 36.6974 43.3185 32.3441C39.5882 27.9426 43.1275 21.2221 48.8474 21.7744Z" fill="black"/>
<path d="M36.1602 15.8473C39.5172 15.8473 42.2482 13.1162 42.2482 9.7594C42.2482 6.40256 39.5172 3.67151 36.1602 3.67151C32.8033 3.67151 30.0723 6.40256 30.0723 9.7594C30.0723 13.1162 32.8033 15.8473 36.1602 15.8473ZM36.1602 6.60686C37.8986 6.60686 39.3129 8.02131 39.3129 9.7594C39.3129 11.4975 37.8984 12.9119 36.1602 12.9119C34.4219 12.9119 33.0076 11.4975 33.0076 9.7594C33.0076 8.02131 34.4221 6.60686 36.1602 6.60686Z" fill="black"/>
<path d="M2.32422 42.2293C2.32422 45.5861 5.05527 48.3172 8.41211 48.3172C11.7689 48.3172 14.5 45.5861 14.5 42.2293C14.5 38.8725 11.7689 36.1414 8.41211 36.1414C5.05527 36.1414 2.32422 38.8725 2.32422 42.2293ZM11.5646 42.2293C11.5646 43.9676 10.1502 45.3818 8.41211 45.3818C6.67402 45.3818 5.25957 43.9674 5.25957 42.2293C5.25957 40.4912 6.67402 39.0768 8.41211 39.0768C10.1502 39.0768 11.5646 40.491 11.5646 42.2293Z" fill="black"/>
<path d="M8.16992 17.243L11.6297 22.1C11.1719 26.7981 13.1328 33.4635 15.8703 37.3088C19.8512 42.8971 26.8609 45.2678 31.6152 41.884C35.8432 38.8731 36.8813 31.7477 32.441 25.507C29.7895 21.7852 23.9326 16.7617 18.9816 15.8596L15.9975 11.6678C17.9568 9.72989 18.2588 6.63868 16.6314 4.35294C13.7633 0.325787 7.41797 1.65586 6.45957 6.55645C3.00918 6.0711 0 8.75196 0 12.1668C0 16.3201 4.3918 19.1129 8.16992 17.243ZM15.9426 19.0766C17.4619 17.9924 20.3482 19.1947 22.0127 20.1156C25.0184 21.775 28.1867 24.593 30.0496 27.2094C31.5525 29.3209 32.3803 31.7453 32.3803 34.0408C32.3803 41.9553 23.3152 42.701 18.2596 35.6063C14.8709 30.8438 13.033 21.1422 15.9426 19.0766ZM7.14648 9.87344C8.26367 10.5922 9.68223 9.57481 9.36758 8.29024C8.94981 6.55547 10.2594 4.90879 12.0133 4.90879C14.8107 4.90879 15.8338 8.67442 13.2852 10.0533C12.4988 10.465 12.2588 11.4816 12.7744 12.202L15.5043 16.0356C15.0504 16.1941 14.6256 16.4113 14.2402 16.6871C14.2383 16.6871 14.2383 16.6871 14.2383 16.6871C13.6023 17.141 13.074 17.7418 12.6592 18.4836L9.72969 14.3703C9.44648 13.9748 8.99766 13.7539 8.53398 13.7539C7.84473 13.7539 7.5541 14.1633 7.24629 14.3859C5.42188 15.6814 2.93535 14.3512 2.93535 12.1668C2.93535 10.0039 5.3291 8.69649 7.14648 9.87344Z" fill="black"/>
</svg>
