<svg width="100" height="100" viewBox="0 0 100 100" fill="none" xmlns="http://www.w3.org/2000/svg">
<path d="M13.2227 69.405H86.7781V88.9174H13.2227V69.405Z" fill="#9DA5BE"/>
<path d="M41.4139 77.719H25.916V88.9174H74.084V77.719H58.5496H41.4139Z" fill="#F9F5F3"/>
<path d="M68.5051 27.5753L64.9949 32.5904C63.968 34.0577 63.417 35.8053 63.417 37.5963V40.6928C63.417 41.7022 62.968 42.6574 62.1966 43.3084C59.0742 45.943 55.073 47.5393 50.8589 47.5393C41.219 47.5393 33.1934 39.3341 33.1934 29.8737V27.5753C37.4938 26.9828 39.1566 24.0528 39.7648 21.4074C40.2171 19.4483 42.3516 18.6606 44.0965 19.0602C47.469 19.8186 50.8493 17.1849 50.8493 13.5474C50.8493 17.1849 54.2297 19.8186 57.6022 19.0602C59.343 18.6528 61.4835 19.4559 61.9319 21.4074C62.5419 24.0528 64.2028 26.9828 68.5051 27.5753Z" fill="#F4ECEA"/>
<path d="M76.0597 60.6393C76.0597 60.6393 73.6838 66.7139 71.1104 69.4043H30.6035C28.0304 66.72 25.6602 60.6393 25.6602 60.6393L37.6994 57.236C39.218 56.7252 40.3565 55.4542 40.6936 53.8888L42.5377 45.3737C45.029 46.7481 47.8673 47.5394 50.8598 47.5394C53.8152 47.5394 56.6653 46.7559 59.182 45.3757L61.026 53.8888C61.3653 55.4542 62.5018 56.7252 64.0203 57.236L76.0597 60.6393Z" fill="#E4D5CE"/>
<path d="M12.7141 88.9174C9.81065 88.9174 7.45703 91.271 7.45703 94.1744V98.0467H92.5429V94.1744C92.5429 91.271 90.1893 88.9174 87.2859 88.9174H12.7141Z" fill="#9DA5BE"/>
<path d="M50.8498 5.35586V13.5474C50.8498 17.1109 47.5748 19.842 44.097 19.0602C42.3503 18.6665 40.2196 19.4383 39.7653 21.4074C39.1571 24.0528 37.4943 26.9828 33.1938 27.5753C28.7005 28.1952 24.3551 23.7837 25.1291 18.2083C26.1117 11.1222 33.1938 10.4809 33.1938 10.4809H39.5391C40.0221 10.4809 40.4787 10.2611 40.7801 9.88362L43.4772 6.50542C44.0573 5.77889 44.9366 5.35586 45.8662 5.35586H50.8498Z" fill="#F4ECEA"/>
<path d="M50.8496 5.35586C50.8496 5.35586 53.753 1.03785 59.7661 2.13547C67.7527 3.59342 68.505 10.4807 68.505 10.4807C68.505 10.4807 75.5868 11.123 76.5699 18.2093C77.3434 23.7843 72.9994 28.1952 68.505 27.5755C64.2042 26.9824 62.5421 24.0532 61.933 21.4076C61.4797 19.4387 59.3483 18.6669 57.6025 19.0598C54.1249 19.8428 50.8496 17.1119 50.8496 13.5472V5.35586Z" fill="#F4ECEA"/>
<path d="M48.6651 78.4657C49.0686 79.4511 50.2346 79.9286 51.2158 79.5224C52.1988 79.1154 52.6795 77.9546 52.2725 76.9716C51.8653 75.9882 50.7039 75.5093 49.7217 75.915C48.7397 76.3204 48.2565 77.4845 48.6651 78.4657Z" fill="black"/>
<path d="M88.7309 87.11V69.405C88.7309 68.3264 87.8563 67.452 86.7778 67.452H74.9115C76.5923 64.6113 77.8059 61.534 77.8778 61.3507C78.0784 60.8376 78.053 60.2636 77.8079 59.77C77.5626 59.2767 77.1204 58.9097 76.5903 58.7599L64.6035 55.3712C63.7615 55.073 63.1236 54.3499 62.9342 53.4752L61.3872 46.3332C62.1036 45.8698 62.7951 45.3591 63.4562 44.8013C64.6728 43.7749 65.3704 42.2775 65.3704 40.693V37.5963C65.3704 36.1989 65.7941 34.8552 66.5952 33.7105L69.4834 29.5841C71.7198 29.5503 73.9004 28.6062 75.6109 26.8943C77.9184 24.5848 78.9729 21.3213 78.5037 17.9409C77.695 12.1111 73.2723 9.57367 70.1412 8.7905C69.2469 5.73475 66.4434 1.36929 60.1161 0.214253C54.6652 -0.781218 51.3075 1.93509 49.9372 3.40281H45.8657C44.3335 3.40281 42.9064 4.0895 41.9504 5.28692L39.3628 8.52781H33.1933C33.1345 8.52781 33.0757 8.53055 33.0171 8.53582C30.0331 8.80612 24.1395 11.1193 23.1941 17.9398C22.7248 21.3205 23.7792 24.5841 26.0871 26.8939C27.548 28.3562 29.3519 29.2571 31.2401 29.5108V29.8737C31.2401 36.6691 34.9089 42.7904 40.3323 46.3246L38.7831 53.4773C38.5951 54.3505 37.9574 55.0726 37.1143 55.3712L25.1276 58.7599C24.5977 58.9097 24.1558 59.2763 23.9104 59.7691C23.6651 60.262 23.6394 60.8354 23.8392 61.3485C23.9108 61.5319 25.1211 64.6113 26.8002 67.4518H13.2222C12.1435 67.4518 11.2691 68.3262 11.2691 69.4048V87.1099C7.9835 87.7809 5.50391 90.6935 5.50391 94.1744V98.0467C5.50391 99.1254 6.37829 99.9998 7.45696 99.9998H92.5429C93.6213 99.9998 94.4959 99.1254 94.4959 98.0467V94.1744C94.4961 90.6937 92.0165 87.7811 88.7309 87.11ZM59.4146 4.05669C62.1018 4.54729 64.1121 5.79217 65.3892 7.75694C65.9021 8.54578 66.1977 9.30649 66.3647 9.85667C66.1433 10.0694 65.8538 10.1871 65.5458 10.1871H63.0471C61.9686 10.1871 61.094 11.0615 61.094 12.1402C61.094 13.2188 61.9686 14.0932 63.0471 14.0932H65.5458C66.9051 14.0932 68.183 13.564 69.1445 12.6027L69.1627 12.5845C70.7507 12.9806 74.0553 14.2991 74.6349 18.4774C74.9343 20.6354 74.283 22.6968 72.8479 24.1331C71.6932 25.2887 70.2027 25.8697 68.7725 25.6405C66.211 25.2299 64.5164 23.9235 63.8359 20.9691C63.3064 18.6673 61.2309 17.1716 58.9281 17.0201C58.3572 16.9796 57.7813 17.0197 57.228 17.1435C54.9779 17.6286 52.8027 15.8475 52.8027 13.5472V6.04392C53.5814 5.20254 55.7403 3.38581 59.4146 4.05669ZM27.0633 18.4765C27.7779 13.3226 32.6429 12.5193 33.3023 12.4339H39.5388C40.6217 12.4339 41.6303 11.9486 42.3061 11.1021L45.0032 7.72393C45.2138 7.46008 45.5282 7.30891 45.8659 7.30891H48.896V13.547C48.896 16.3576 46.409 17.3888 44.0277 17.0648C41.4389 16.706 38.547 17.9978 37.8615 20.9697C37.2717 23.5353 35.5711 25.2762 32.9265 25.6407C31.4916 25.8389 30.0057 25.2893 28.8505 24.1333C27.415 22.6964 26.7635 20.635 27.0633 18.4765ZM35.1464 29.8737V29.1479C38.5917 28.1185 40.8754 25.293 41.6678 21.8463C41.8836 20.9104 43.0603 20.8406 43.8156 20.9943C45.9755 21.4344 48.199 20.8975 49.939 19.5053C50.2687 19.2417 50.572 18.9536 50.8489 18.6462C51.1264 18.954 51.4301 19.2423 51.7602 19.5063C53.5293 20.9213 55.7983 21.4543 57.9918 20.9723C58.7853 20.8012 59.8343 21.0156 60.0437 21.9045C60.7366 24.8516 62.5258 27.4373 65.3361 28.6972L63.3951 31.4703C62.1319 33.2749 61.4641 35.3932 61.4641 37.5961V40.6926C61.4641 41.1237 61.2722 41.5328 60.9372 41.8154C58.1383 44.1773 54.5343 45.586 50.8591 45.586C42.4512 45.5862 35.1464 38.2861 35.1464 29.8737ZM38.2296 59.1152C38.2603 59.1066 38.2908 59.097 38.3209 59.0869C38.9562 58.8732 39.5446 58.5617 40.0735 58.175L43.1556 61.2571C44.5362 62.6377 46.3717 63.3978 48.324 63.3978H51.1007C52.1791 63.3978 53.0537 62.5235 53.0537 61.4448C53.0537 60.3661 52.1791 59.4917 51.1007 59.4917H48.3244C47.4154 59.4917 46.5608 59.1378 45.918 58.4949L42.4104 54.9872C42.4855 54.7632 42.5514 54.5353 42.6016 54.3019L43.9281 48.1769C46.1327 49.0363 48.4918 49.4923 50.8591 49.4923C53.2223 49.4923 55.588 49.0322 57.7893 48.1754L59.1164 54.3021C59.5986 56.5278 61.2388 58.3611 63.3969 59.0869C63.427 59.097 63.4576 59.1064 63.4881 59.1152L73.3869 61.9135C72.5778 63.6748 71.3997 65.9612 70.2195 67.451H31.492C30.3149 65.9653 29.1378 63.6767 28.3296 61.9139L38.2296 59.1152ZM15.1752 71.3581H84.8248V86.9643H76.037V77.719C76.037 76.6403 75.1625 75.7659 74.084 75.7659H58.5496C57.4711 75.7659 56.5965 76.6403 56.5965 77.719C56.5965 78.7977 57.4711 79.672 58.5496 79.672H72.1309V86.9643H27.8691V79.672H41.4139C42.4926 79.672 43.367 78.7977 43.367 77.719C43.367 76.6403 42.4926 75.7659 41.4139 75.7659H25.916C24.8374 75.7659 23.963 76.6403 23.963 77.719V86.9643H15.1752V71.3581ZM90.59 96.0939H9.41001V94.1746C9.41001 92.3528 10.8922 90.8706 12.714 90.8706H87.2858C89.1076 90.8706 90.59 92.3528 90.59 94.1746V96.0939Z" fill="black"/>
<path d="M48.6523 34.8704H52.3647C53.4432 34.8704 54.3177 33.996 54.3177 32.9173C54.3177 31.8387 53.4432 30.9643 52.3647 30.9643H51.5178L52.9182 27.4C53.3127 26.3959 52.8184 25.2623 51.8145 24.868C50.8106 24.4737 49.6771 24.9678 49.2826 25.9717L46.8344 32.2033C46.5983 32.8046 46.6747 33.4837 47.0383 34.0175C47.4024 34.5511 48.0065 34.8704 48.6523 34.8704Z" fill="black"/>
</svg>
