<svg width="100" height="100" viewBox="0 0 100 100" fill="none" xmlns="http://www.w3.org/2000/svg">
<path d="M82.8125 96.875C90.579 96.875 96.875 90.579 96.875 82.8125C96.875 75.046 90.579 68.75 82.8125 68.75C75.046 68.75 68.75 75.046 68.75 82.8125C68.75 90.579 75.046 96.875 82.8125 96.875Z" fill="#E6E6E6"/>
<path d="M82.8125 68.75C82.7578 68.75 82.7047 68.7578 82.6516 68.7578C86.4969 68.8031 89.6016 71.925 89.6016 75.7812C89.6016 79.5672 86.6078 82.6594 82.8594 82.8109L82.8125 82.8172C79.0422 82.9453 76.0234 86.0422 76.0234 89.8438C76.0234 93.7 79.1281 96.8219 82.9734 96.8672C90.6656 96.7797 96.875 90.525 96.875 82.8125C96.875 75.0453 90.5797 68.75 82.8125 68.75Z" fill="#526273"/>
<path d="M90.625 9.375V3.125H84.375V9.375H78.125V15.625H84.375V28.125H90.625V15.625H96.875V9.375H90.625Z" fill="#405D80"/>
<path d="M15.625 28.125C17.8266 28.125 19.8906 27.5516 21.6875 26.5531C15.7344 26.4516 10.9375 21.6016 10.9375 15.625C10.9375 9.64687 15.7344 4.79844 21.6875 4.69688C19.8906 3.69844 17.8266 3.125 15.625 3.125C8.72187 3.125 3.125 8.72187 3.125 15.625C3.125 22.5281 8.72187 28.125 15.625 28.125Z" fill="#F2DFAA"/>
<path d="M17.1875 14.5187L19.5312 16.9203L18.9781 20.3125L21.875 18.7109L24.7719 20.3125L24.2188 16.9203L26.5625 14.5187L23.3234 14.0234L21.875 10.9375L20.4266 14.0234L17.1875 14.5187Z" fill="#ADC4E6"/>
<path d="M19.7922 73.4375L15.625 65.625L11.4578 73.4375H3.125L7.29219 81.25L3.125 89.0625H11.4578L15.625 96.875L19.7922 89.0625H28.125L23.9578 81.25L28.125 73.4375H19.7922Z" fill="#ADC4E6"/>
<path d="M50 71.875C62.0812 71.875 71.875 62.0812 71.875 50C71.875 37.9188 62.0812 28.125 50 28.125C37.9188 28.125 28.125 37.9188 28.125 50C28.125 62.0812 37.9188 71.875 50 71.875Z" fill="#E6E6E6"/>
<path d="M56.25 50H43.75C40.2984 50 37.5 52.7984 37.5 56.25V67.9375C41.0453 70.4125 45.3484 71.875 50 71.875C54.6516 71.875 58.9547 70.4125 62.5 67.9375V56.25C62.5 52.7984 59.7016 50 56.25 50Z" fill="#759ACC"/>
<path d="M50 50C53.4518 50 56.25 47.2018 56.25 43.75C56.25 40.2982 53.4518 37.5 50 37.5C46.5482 37.5 43.75 40.2982 43.75 43.75C43.75 47.2018 46.5482 50 50 50Z" fill="#759ACC"/>
<path d="M64.0625 68.75V68.7062C69.7422 64.425 73.4375 57.6453 73.4375 50C73.4375 37.0766 62.9234 26.5625 50 26.5625C37.0766 26.5625 26.5625 37.0766 26.5625 50C26.5625 57.6453 30.2578 64.425 35.9375 68.7062V68.75H35.9969C39.9094 71.6797 44.7469 73.4375 50 73.4375C55.2531 73.4375 60.0906 71.6797 64.0031 68.75H64.0625ZM60.9375 67.0891C60.4313 67.4141 59.9109 67.7219 59.375 68.0016V56.25H56.25V69.3187C54.2797 69.9578 52.1812 70.3125 50 70.3125C47.8188 70.3125 45.7203 69.9578 43.75 69.3187V56.25H40.625V68.0016C40.0891 67.7203 39.5688 67.4141 39.0625 67.0891V56.25C39.0625 53.6656 41.1656 51.5625 43.75 51.5625H56.25C58.8344 51.5625 60.9375 53.6656 60.9375 56.25V67.0891ZM45.3125 43.75C45.3125 41.1656 47.4156 39.0625 50 39.0625C52.5844 39.0625 54.6875 41.1656 54.6875 43.75C54.6875 46.3344 52.5844 48.4375 50 48.4375C47.4156 48.4375 45.3125 46.3344 45.3125 43.75ZM56.25 48.4375H56.2094C57.2016 47.1281 57.8125 45.5156 57.8125 43.75C57.8125 39.4422 54.3078 35.9375 50 35.9375C45.6922 35.9375 42.1875 39.4422 42.1875 43.75C42.1875 45.5156 42.7984 47.1281 43.7906 48.4375H43.75C39.4422 48.4375 35.9375 51.9422 35.9375 56.25V64.6234C32.0938 60.925 29.6875 55.7422 29.6875 50C29.6875 38.8 38.8 29.6875 50 29.6875C61.2 29.6875 70.3125 38.8 70.3125 50C70.3125 55.7422 67.9062 60.925 64.0625 64.6234V56.25C64.0625 51.9422 60.5578 48.4375 56.25 48.4375Z" fill="black"/>
<path d="M96.875 7.8125H92.1875V3.125C92.1875 2.26094 91.4891 1.5625 90.625 1.5625H84.375C83.5109 1.5625 82.8125 2.26094 82.8125 3.125V7.8125H78.125C77.2609 7.8125 76.5625 8.51094 76.5625 9.375V15.625C76.5625 16.4891 77.2609 17.1875 78.125 17.1875H82.8125V28.125C82.8125 28.9891 83.5109 29.6875 84.375 29.6875H90.625C91.4891 29.6875 92.1875 28.9891 92.1875 28.125V17.1875H96.875C97.7391 17.1875 98.4375 16.4891 98.4375 15.625V9.375C98.4375 8.51094 97.7391 7.8125 96.875 7.8125ZM95.3125 14.0625H90.625C89.7609 14.0625 89.0625 14.7609 89.0625 15.625V26.5625H85.9375V15.625C85.9375 14.7609 85.2391 14.0625 84.375 14.0625H79.6875V10.9375H84.375C85.2391 10.9375 85.9375 10.2391 85.9375 9.375V4.6875H89.0625V9.375C89.0625 10.2391 89.7609 10.9375 90.625 10.9375H95.3125V14.0625Z" fill="black"/>
<path d="M15.625 29.6875C18.0047 29.6875 20.3641 29.075 22.4453 27.9188C23.0641 27.575 23.375 26.8594 23.2016 26.1734C23.0312 25.4891 22.4203 25.0031 21.7125 24.9906C16.6344 24.9047 12.5 20.7031 12.5 15.625C12.5 10.5469 16.6344 6.34531 21.7125 6.25938C22.4203 6.24688 23.0312 5.7625 23.2016 5.07656C23.3734 4.39062 23.0625 3.675 22.4453 3.33125C20.3641 2.175 18.0047 1.5625 15.625 1.5625C7.87031 1.5625 1.5625 7.87031 1.5625 15.625C1.5625 23.3797 7.87031 29.6875 15.625 29.6875ZM15.625 4.6875C15.7031 4.6875 15.7828 4.68906 15.8594 4.69063C12.0031 6.82969 9.375 10.9484 9.375 15.625C9.375 20.3016 12.0031 24.4203 15.8594 26.5594C9.7375 26.625 4.6875 21.7328 4.6875 15.625C4.6875 9.59531 9.59531 4.6875 15.625 4.6875Z" fill="black"/>
<path d="M18.0761 21.5891C18.5636 21.9344 19.2105 21.9688 19.7324 21.6797L21.8746 20.4953L24.0168 21.6797C24.2511 21.8109 24.5121 21.875 24.7715 21.875C25.0871 21.875 25.4027 21.7781 25.6715 21.5891C26.159 21.2438 26.4105 20.65 26.3136 20.0594L25.8871 17.4453L27.6793 15.6078C28.0886 15.1891 28.2293 14.5766 28.0418 14.0203C27.8543 13.4641 27.3746 13.0609 26.7965 12.9719L24.3808 12.6016L23.2871 10.2719C23.0308 9.72656 22.4808 9.375 21.8746 9.375C21.2683 9.375 20.7183 9.72656 20.4605 10.2734L19.3668 12.6031L16.9511 12.9734C16.373 13.0625 15.8918 13.4656 15.7058 14.0219C15.5199 14.5781 15.6605 15.1906 16.0683 15.6094L17.8605 17.4469L17.434 20.0609C17.3386 20.6516 17.5886 21.2453 18.0761 21.5891ZM20.6636 15.5672C21.1777 15.4891 21.6199 15.1578 21.8418 14.6875L21.8746 14.6156L21.9074 14.6875C22.1293 15.1594 22.5715 15.4906 23.0855 15.5672L23.3199 15.6031L23.098 15.8297C22.7511 16.1844 22.5949 16.6828 22.6746 17.1719L22.709 17.3875L22.6293 17.3438C22.3949 17.2141 22.1355 17.1484 21.8746 17.1484C21.6136 17.1484 21.3543 17.2141 21.1199 17.3438L21.0386 17.3875L21.073 17.1719C21.1527 16.6828 20.9949 16.1828 20.6496 15.8297L20.4277 15.6031L20.6636 15.5672Z" fill="black"/>
<path d="M29.4644 72.6328C29.1831 72.1641 28.6753 71.875 28.1253 71.875H20.73L17.005 64.8891C16.4613 63.8703 14.7894 63.8703 14.2456 64.8891L10.5206 71.875H3.12532C2.57532 71.875 2.06751 72.1641 1.78626 72.6328C1.50345 73.1047 1.48939 73.6891 1.7472 74.1719L5.52064 81.25L1.74564 88.3266C1.48782 88.8109 1.50345 89.3953 1.7847 89.8656C2.06751 90.3359 2.57532 90.625 3.12532 90.625H10.5206L14.2456 97.6109C14.5175 98.1203 15.0488 98.4375 15.6253 98.4375C16.2019 98.4375 16.7331 98.1203 17.005 97.6109L20.73 90.625H28.1253C28.6753 90.625 29.1831 90.3359 29.4644 89.8672C29.7472 89.3953 29.7613 88.8109 29.5035 88.3281L25.73 81.25L29.505 74.1734C29.7628 73.6891 29.7472 73.1047 29.4644 72.6328ZM15.6253 68.9453L17.1878 71.875H14.0628L15.6253 68.9453ZM5.73001 87.5L7.29251 84.5719L8.85501 87.5H5.73001ZM7.29251 77.9281L5.73001 75H8.85345L7.29251 77.9281ZM15.6253 93.5547L14.0628 90.625H17.1878L15.6253 93.5547ZM18.855 87.5H12.3956L9.06283 81.25L12.3956 75H18.8535L22.1863 81.25L18.855 87.5ZM22.3972 87.5L23.9597 84.5719L25.5222 87.5H22.3972ZM23.9581 77.9281L22.3956 75H25.5191L23.9581 77.9281Z" fill="black"/>
<path d="M82.8125 67.1875C82.7719 67.1875 82.7313 67.1938 82.6906 67.1938C82.65 67.1938 82.6109 67.1875 82.5688 67.1875V67.2C74.0672 67.3312 67.1875 74.2797 67.1875 82.8125C67.1875 91.4281 74.1969 98.4375 82.8125 98.4375C82.8531 98.4375 82.8937 98.4312 82.9344 98.4312C82.975 98.4312 83.0141 98.4375 83.0562 98.4375V98.425C91.5578 98.2938 98.4375 91.3453 98.4375 82.8125C98.4375 74.1969 91.4281 67.1875 82.8125 67.1875ZM74.8719 92.4578C72.0891 90.1641 70.3125 86.6922 70.3125 82.8125C70.3125 75.975 75.8328 70.4078 82.6516 70.3203C85.6281 70.3656 88.0391 72.7938 88.0391 75.7812C88.0391 78.7297 85.7359 81.1313 82.7609 81.2563C78.1062 81.4125 74.4609 85.1844 74.4609 89.8438C74.4609 90.7547 74.6062 91.6328 74.8719 92.4578ZM82.9734 95.3047C79.9969 95.2594 77.5859 92.8312 77.5859 89.8438C77.5859 86.8797 79.9047 84.4781 82.9203 84.3719C87.5422 84.1859 91.1625 80.4125 91.1625 75.7812C91.1625 74.8703 91.0172 73.9922 90.7531 73.1672C93.5359 75.4609 95.3125 78.9328 95.3125 82.8125C95.3125 89.65 89.7922 95.2172 82.9734 95.3047Z" fill="black"/>
<path d="M82.8125 73.4375C81.95 73.4375 81.25 74.1375 81.25 75C81.25 75.8625 81.95 76.5625 82.8125 76.5625C83.675 76.5625 84.375 75.8625 84.375 75C84.375 74.1375 83.675 73.4375 82.8125 73.4375Z" fill="black"/>
<path d="M82.8125 92.1875C83.675 92.1875 84.375 91.4875 84.375 90.625C84.375 89.7625 83.675 89.0625 82.8125 89.0625C81.95 89.0625 81.25 89.7625 81.25 90.625C81.25 91.4875 81.95 92.1875 82.8125 92.1875Z" fill="black"/>
<path d="M53.9129 93.575C55.002 93.4766 56.0926 93.3391 57.1551 93.1625L56.6488 90.0797C55.6613 90.2422 54.6473 90.3703 53.6348 90.4625L53.9129 93.575Z" fill="black"/>
<path d="M47.3789 93.6781C48.4695 93.7406 49.568 93.7641 50.6477 93.7469L50.5977 90.6235C49.5945 90.6391 48.5742 90.6172 47.5617 90.5594L47.3789 93.6781Z" fill="black"/>
<path d="M60.357 92.511C61.4133 92.2547 62.4711 91.9563 63.5039 91.6219L62.5445 88.65C61.5836 88.9594 60.6008 89.236 59.6211 89.4735L60.357 92.511Z" fill="black"/>
<path d="M44.1258 93.364L44.543 90.2656C43.5383 90.1297 42.532 89.9562 41.5508 89.7484L40.9023 92.8047C41.9586 93.0281 43.043 93.2172 44.1258 93.364Z" fill="black"/>
<path d="M34.625 90.9734C35.6609 91.3594 36.7047 91.7078 37.7281 92.0078L38.6047 89.0078C37.6547 88.7313 36.6828 88.4062 35.7188 88.0469L34.625 90.9734Z" fill="black"/>
<path d="M88.9961 61.4344L91.9945 62.3141C92.3008 61.2687 92.5711 60.2015 92.7992 59.1406L89.7414 58.4875C89.5305 59.4719 89.2805 60.4641 88.9961 61.4344Z" fill="black"/>
<path d="M93.6758 52.6625L90.5555 52.4766C90.4961 53.4703 90.3977 54.4859 90.2617 55.4969L93.3602 55.9141C93.5039 54.8266 93.6102 53.7328 93.6758 52.6625Z" fill="black"/>
<path d="M6.8457 57.1984C7.0207 58.2625 7.24102 59.3422 7.49727 60.4016L10.5348 59.6625C10.2957 58.6766 10.091 57.6766 9.92695 56.6875L6.8457 57.1984Z" fill="black"/>
<path d="M93.5742 46.0906L93.5617 45.9609L90.4492 46.2375L90.4664 46.4078C90.5555 47.4078 90.607 48.4297 90.6242 49.4422L93.7477 49.3953C93.7305 48.3062 93.6727 47.2078 93.5742 46.0906Z" fill="black"/>
<path d="M6.42109 53.8687L6.42891 53.9547L9.53359 53.5937C9.44609 52.6078 9.39297 51.6141 9.37734 50.6437L6.25391 50.6937C6.26953 51.7391 6.32578 52.8078 6.42109 53.8687Z" fill="black"/>
<path d="M89.4453 40.2594C89.6859 41.236 89.8922 42.2359 90.0563 43.2297L93.1391 42.7172C92.9609 41.6453 92.7391 40.5672 92.4797 39.5125L89.4453 40.2594Z" fill="black"/>
<path d="M6.32031 47.425L9.43906 47.6047C9.49844 46.5938 9.59375 45.5766 9.72812 44.586L6.62969 44.1688C6.4875 45.2375 6.38281 46.3328 6.32031 47.425Z" fill="black"/>
<path d="M87.5605 34.4922C87.9465 35.4313 88.2996 36.3891 88.6121 37.3406L91.584 36.3688C91.248 35.3453 90.8684 34.3125 90.4527 33.3016L87.5605 34.4922Z" fill="black"/>
<path d="M7.18555 40.9469L10.2418 41.5922C10.448 40.6094 10.698 39.6188 10.9824 38.6469L7.98242 37.7703C7.67773 38.8172 7.40898 39.8859 7.18555 40.9469Z" fill="black"/>
<path d="M13.1141 32.9563L10.2766 31.6453C9.81719 32.6406 9.39219 33.6563 9.01562 34.6641L11.9406 35.7609C12.2922 34.8266 12.6859 33.8828 13.1141 32.9563Z" fill="black"/>
<path d="M67.0039 13.0969C67.9148 13.5172 68.8273 13.9813 69.7148 14.4735L71.2305 11.7406C70.2758 11.211 69.2945 10.711 68.3133 10.2594L67.0039 13.0969Z" fill="black"/>
<path d="M61.3164 10.9703C62.2852 11.2516 63.2555 11.5735 64.2008 11.9266L65.2914 8.99846C64.2742 8.61877 63.2289 8.27346 62.1852 7.97034L61.3164 10.9703Z" fill="black"/>
<path d="M55.377 9.72346C56.3738 9.85627 57.3801 10.0281 58.366 10.2344L59.0113 7.17815C57.9473 6.95471 56.8613 6.76877 55.7848 6.62659L55.377 9.72346Z" fill="black"/>
<path d="M37.3789 11.375C38.3477 11.0594 39.3305 10.7813 40.2961 10.5469L39.5602 7.50781C38.5148 7.76094 37.4555 8.0625 36.4102 8.40312L37.3789 11.375Z" fill="black"/>
<path d="M52.352 9.43753L52.5285 6.31878C51.4535 6.25784 50.3535 6.23597 49.2598 6.25628L49.316 9.37972C50.3332 9.36097 51.3535 9.37972 52.352 9.43753Z" fill="black"/>
<path d="M46.2848 9.5453L46.0004 6.4328C44.9254 6.53124 43.8363 6.67186 42.7598 6.84999L43.2723 9.9328C44.2723 9.76717 45.2848 9.63749 46.2848 9.5453Z" fill="black"/>
</svg>
