<svg width="100" height="100" viewBox="0 0 100 100" fill="none" xmlns="http://www.w3.org/2000/svg">
<path d="M21.875 21.875L28.125 28.125V31.25H31.25L34.375 34.375H37.5V37.5H43.75L46.875 34.375L50 37.5H56.25L59.375 34.375H62.5V31.25H65.625L68.75 28.125H71.875L68.75 25H65.625V18.75H68.75V12.5L71.875 9.375H75L78.125 12.5H81.25L84.375 18.75L87.5 21.875H90.625L93.75 25V31.25H90.625V34.375L84.375 40.625H81.25L78.125 43.75V40.625L75 43.75H71.875L75 46.875V50L81.25 46.875V50L78.125 53.125V56.25L81.25 59.375V68.75L78.125 75H75L71.875 78.125H62.5L59.375 75H56.25L53.125 78.125H50L46.875 75L43.75 71.875L46.875 68.75L43.75 65.625L40.625 62.5L37.5 65.625H34.375L31.25 68.75L25 65.625L21.875 62.5H18.75L15.625 59.375V56.25L12.5 53.125L9.375 50L6.25 43.75V40.625L12.5 37.5V34.375L15.625 31.25V25H21.875V21.875Z" fill="#FF2741"/>
<path d="M90.625 21.875H87.5L84.375 18.75L81.25 12.5H78.125L75 9.375H71.875L75 15.625L78.125 18.75H81.25L84.375 21.875V28.125H81.25V31.25L75 37.5H71.875L68.75 40.625V37.5L65.625 40.625H62.5L65.625 43.75V46.875L71.875 43.75H75L78.125 40.625V43.75L81.25 40.625H84.375L90.625 34.375V31.25H93.75V25L90.625 21.875Z" fill="#D30729"/>
<path d="M68.75 50V53.125L71.875 56.25V65.625L68.75 71.875H65.625L62.5 75H59.375L62.5 78.125H71.875L75 75H78.125L81.25 68.75V59.375L78.125 56.25V53.125L81.25 50V46.875L75 50V46.875L71.875 43.75V46.875L68.75 50Z" fill="#D30729"/>
<path d="M41.5715 43.1985L43.7996 50.0579H51.0121L45.1777 54.2969L47.4059 61.1563L41.5715 56.9172L35.7371 61.1563L37.9652 54.2969L32.1309 50.0579H39.3418L41.5715 43.1985Z" fill="#EFC555"/>
<path d="M71.875 79.6875H62.5C62.0856 79.6874 61.6883 79.5227 61.3953 79.2297L58.7281 76.5625H56.8969L54.2297 79.2297C53.9367 79.5227 53.5394 79.6874 53.125 79.6875H50C49.5856 79.6874 49.1883 79.5227 48.8953 79.2297L42.6453 72.9797C42.3524 72.6867 42.1878 72.2893 42.1878 71.875C42.1878 71.4607 42.3524 71.0633 42.6453 70.7703L44.6656 68.75L40.625 64.7094L38.6047 66.7297C38.3117 67.0227 37.9144 67.1874 37.5 67.1875H35.0219L32.3547 69.8547C32.123 70.0866 31.8241 70.2398 31.5005 70.2925C31.1769 70.3453 30.8449 70.2948 30.5516 70.1484L24.3016 67.0234C24.1512 66.948 24.014 66.8488 23.8953 66.7297L21.2281 64.0625H18.75C18.3356 64.0624 17.9383 63.8977 17.6453 63.6047L14.5203 60.4797C14.2273 60.1867 14.0626 59.7894 14.0625 59.375V56.8969L8.27031 51.1047C8.15117 50.986 8.05198 50.8488 7.97656 50.6984L4.85156 44.4484C4.74344 44.2315 4.68727 43.9924 4.6875 43.75V40.625C4.68737 40.3346 4.76814 40.05 4.92077 39.803C5.07339 39.556 5.29182 39.3564 5.55156 39.2266L10.9375 36.5344V34.375C10.9376 33.9606 11.1023 33.5633 11.3953 33.2703L14.0625 30.6031V25C14.0625 24.5856 14.2271 24.1882 14.5201 23.8951C14.8132 23.6021 15.2106 23.4375 15.625 23.4375H20.3125V21.875C20.3126 21.566 20.4042 21.264 20.5759 21.0071C20.7476 20.7502 20.9916 20.55 21.2771 20.4318C21.5626 20.3135 21.8767 20.2826 22.1797 20.3428C22.4828 20.4031 22.7612 20.5519 22.9797 20.7703L29.2297 27.0203C29.5227 27.3133 29.6874 27.7106 29.6875 28.125V29.6875H31.25C31.6644 29.6876 32.0617 29.8523 32.3547 30.1453L35.0219 32.8125H37.5C37.9144 32.8125 38.3118 32.9771 38.6049 33.2701C38.8979 33.5632 39.0625 33.9606 39.0625 34.375V35.9375H43.1031L45.7703 33.2703C46.0633 32.9774 46.4607 32.8128 46.875 32.8128C47.2893 32.8128 47.6867 32.9774 47.9797 33.2703L50.6469 35.9375H55.6031L58.2703 33.2703C58.5633 32.9773 58.9606 32.8126 59.375 32.8125H60.9375V31.25C60.9375 30.8356 61.1021 30.4382 61.3951 30.1451C61.6882 29.8521 62.0856 29.6875 62.5 29.6875H64.9781L67.6453 27.0203C67.8029 26.8622 67.9926 26.7396 68.2016 26.6609L68.1031 26.5625H65.625C65.2106 26.5625 64.8132 26.3979 64.5201 26.1049C64.2271 25.8118 64.0625 25.4144 64.0625 25V18.75C64.0625 18.3356 64.2271 17.9382 64.5201 17.6451C64.8132 17.3521 65.2106 17.1875 65.625 17.1875H67.1875V12.5C67.1876 12.0856 67.3523 11.6883 67.6453 11.3953L70.7703 8.27031C71.0633 7.97727 71.4606 7.81259 71.875 7.8125H75C75.4144 7.81259 75.8117 7.97727 76.1047 8.27031L78.7719 10.9375H81.25C81.5417 10.9359 81.828 11.016 82.0765 11.1687C82.3251 11.3214 82.5259 11.5406 82.6562 11.8016L85.6672 17.8234L88.1469 20.3125H90.625C91.0394 20.3126 91.4367 20.4773 91.7297 20.7703L94.8547 23.8953C95.1477 24.1883 95.3124 24.5856 95.3125 25V31.25C95.3125 31.6644 95.1479 32.0618 94.8549 32.3549C94.5618 32.6479 94.1644 32.8125 93.75 32.8125H92.1875V34.375C92.1874 34.7894 92.0227 35.1867 91.7297 35.4797L85.4797 41.7297C85.1867 42.0227 84.7894 42.1874 84.375 42.1875H81.8969L79.2297 44.8547C79.0448 45.0398 78.8165 45.1755 78.5655 45.2493C78.3146 45.3232 78.0492 45.3329 77.7935 45.2776C77.5379 45.2222 77.3002 45.1036 77.1023 44.9325C76.9044 44.7614 76.7527 44.5434 76.6609 44.2984L76.1047 44.8547C75.9471 45.0128 75.7574 45.1354 75.5484 45.2141L76.1047 45.7703C76.3977 46.0633 76.5624 46.4606 76.5625 46.875V47.4719L80.5516 45.4766C80.7898 45.3575 81.0546 45.3013 81.3207 45.3134C81.5868 45.3254 81.8454 45.4053 82.0719 45.5454C82.2985 45.6855 82.4854 45.8812 82.615 46.1139C82.7447 46.3467 82.8126 46.6086 82.8125 46.875V50C82.8124 50.4144 82.6477 50.8117 82.3547 51.1047L79.6875 53.7719V55.6031L82.3547 58.2703C82.6477 58.5633 82.8124 58.9606 82.8125 59.375V68.75C82.8152 68.9918 82.7617 69.2308 82.6562 69.4484L79.5312 75.6984C79.4009 75.9594 79.2001 76.1786 78.9515 76.3313C78.703 76.484 78.4167 76.5641 78.125 76.5625H75.6469L72.9797 79.2297C72.6867 79.5227 72.2894 79.6874 71.875 79.6875ZM63.1469 76.5625H71.2281L73.8953 73.8953C74.1883 73.6023 74.5856 73.4376 75 73.4375H77.1594L79.6875 68.3812V60.0219L77.0203 57.3547C76.7273 57.0617 76.5626 56.6644 76.5625 56.25V53.125C76.5626 52.7106 76.7273 52.3133 77.0203 52.0203L79.5875 49.4531L75.6984 51.4063C75.4596 51.5256 75.1941 51.5818 74.9273 51.5694C74.6606 51.557 74.4015 51.4764 74.1747 51.3353C73.948 51.1943 73.7612 50.9975 73.6321 50.7637C73.503 50.53 73.436 50.267 73.4375 50V47.5219L70.7703 44.8547C70.5519 44.6362 70.4031 44.3578 70.3428 44.0547C70.2826 43.7517 70.3135 43.4376 70.4317 43.1521C70.55 42.8666 70.7502 42.6226 71.0071 42.4509C71.264 42.2792 71.566 42.1876 71.875 42.1875H74.3531L77.0203 39.5203C77.2052 39.3352 77.4335 39.1995 77.6845 39.1257C77.9354 39.0518 78.2008 39.0421 78.4565 39.0974C78.7121 39.1528 78.9498 39.2714 79.1477 39.4425C79.3456 39.6136 79.4973 39.8316 79.5891 40.0766L80.1453 39.5203C80.4383 39.2273 80.8356 39.0626 81.25 39.0625H83.7281L89.0625 33.7281V31.25C89.0625 30.8356 89.2271 30.4382 89.5201 30.1451C89.8132 29.8521 90.2106 29.6875 90.625 29.6875H92.1875V25.6469L89.9781 23.4375H87.5C87.0856 23.4374 86.6883 23.2727 86.3953 22.9797L83.2703 19.8547C83.1512 19.736 83.052 19.5988 82.9766 19.4484L80.2844 14.0625H78.125C77.7106 14.0624 77.3133 13.8977 77.0203 13.6047L74.3531 10.9375H72.5219L70.3125 13.1469V18.75C70.3125 19.1644 70.1479 19.5618 69.8549 19.8549C69.5618 20.1479 69.1644 20.3125 68.75 20.3125H67.1875V23.4375H68.75C69.1644 23.4376 69.5617 23.6023 69.8547 23.8953L72.9797 27.0203C73.1981 27.2388 73.3469 27.5172 73.4072 27.8203C73.4674 28.1233 73.4365 28.4374 73.3183 28.7229C73.2 29.0084 72.9998 29.2524 72.7429 29.4241C72.486 29.5958 72.184 29.6874 71.875 29.6875H69.3969L66.7297 32.3547C66.4367 32.6477 66.0394 32.8124 65.625 32.8125H64.0625V34.375C64.0625 34.7894 63.8979 35.1868 63.6049 35.4799C63.3118 35.7729 62.9144 35.9375 62.5 35.9375H60.0219L57.3547 38.6047C57.0617 38.8977 56.6644 39.0624 56.25 39.0625H50C49.5856 39.0624 49.1883 38.8977 48.8953 38.6047L46.875 36.5844L44.8547 38.6047C44.5617 38.8977 44.1644 39.0624 43.75 39.0625H37.5C37.0856 39.0625 36.6882 38.8979 36.3951 38.6049C36.1021 38.3118 35.9375 37.9144 35.9375 37.5V35.9375H34.375C33.9606 35.9374 33.5633 35.7727 33.2703 35.4797L30.6031 32.8125H28.125C27.7106 32.8125 27.3132 32.6479 27.0201 32.3549C26.7271 32.0618 26.5625 31.6644 26.5625 31.25V28.7719L23.3391 25.5484C23.2274 25.8465 23.0273 26.1033 22.7657 26.2845C22.504 26.4657 22.1933 26.5627 21.875 26.5625H17.1875V31.25C17.1874 31.6644 17.0227 32.0617 16.7297 32.3547L14.0625 35.0219V37.5C14.0626 37.7904 13.9819 38.075 13.8292 38.322C13.6766 38.569 13.4582 38.7686 13.1984 38.8984L7.8125 41.5906V43.3812L10.6594 49.0734L16.7297 55.1453C17.0227 55.4383 17.1874 55.8356 17.1875 56.25V58.7281L19.3969 60.9375H21.875C22.2894 60.9376 22.6867 61.1023 22.9797 61.3953L25.9266 64.3406L30.9422 66.8484L33.2703 64.5203C33.5633 64.2273 33.9606 64.0626 34.375 64.0625H36.8531L39.5203 61.3953C39.8133 61.1024 40.2107 60.9378 40.625 60.9378C41.0393 60.9378 41.4367 61.1024 41.7297 61.3953L47.9797 67.6453C48.2726 67.9383 48.4372 68.3357 48.4372 68.75C48.4372 69.1643 48.2726 69.5617 47.9797 69.8547L45.9594 71.875L50.6469 76.5625H52.4781L55.1453 73.8953C55.4383 73.6023 55.8356 73.4376 56.25 73.4375H59.375C59.7894 73.4376 60.1867 73.6023 60.4797 73.8953L63.1469 76.5625Z" fill="black"/>
<path d="M62.5 84.375H65.625L68.75 87.5L65.625 90.625H62.5L59.375 87.5L62.5 84.375Z" fill="#FF2741"/>
<path d="M65.6247 92.1875H62.4997C62.0853 92.1874 61.6879 92.0227 61.395 91.7297L58.27 88.6047C57.9771 88.3117 57.8125 87.9143 57.8125 87.5C57.8125 87.0857 57.9771 86.6883 58.27 86.3953L61.395 83.2703C61.6879 82.9773 62.0853 82.8126 62.4997 82.8125H65.6247C66.039 82.8126 66.4364 82.9773 66.7294 83.2703L69.8544 86.3953C70.1473 86.6883 70.3118 87.0857 70.3118 87.5C70.3118 87.9143 70.1473 88.3117 69.8544 88.6047L66.7294 91.7297C66.4364 92.0227 66.039 92.1874 65.6247 92.1875ZM63.1465 89.0625H64.9778L66.5403 87.5L64.9778 85.9375H63.1465L61.584 87.5L63.1465 89.0625Z" fill="black"/>
<path d="M47.4054 62.7188C47.0751 62.7184 46.7535 62.6134 46.4866 62.4188L41.5694 58.8485L36.6538 62.4188C36.3869 62.6128 36.0653 62.7174 35.7353 62.7174C35.4053 62.7175 35.0838 62.613 34.8168 62.4191C34.5498 62.2251 34.351 61.9516 34.2491 61.6377C34.1471 61.3238 34.1471 60.9858 34.2491 60.6719L36.1241 54.8907L31.2085 51.3188C30.9417 51.1249 30.743 50.8515 30.641 50.5378C30.539 50.2241 30.5389 49.8862 30.6407 49.5725C30.7425 49.2587 30.941 48.9852 31.2078 48.7912C31.4745 48.5971 31.7958 48.4925 32.1257 48.4922H38.2038L40.0788 42.711C40.1816 42.3984 40.3804 42.1262 40.6469 41.9332C40.9135 41.7402 41.2341 41.6364 41.5632 41.6364C41.8922 41.6364 42.2129 41.7402 42.4795 41.9332C42.746 42.1262 42.9448 42.3984 43.0476 42.711L44.9226 48.4922H50.9976C51.3276 48.4921 51.6491 48.5966 51.9161 48.7905C52.1831 48.9844 52.3818 49.2579 52.4838 49.5717C52.5858 49.8855 52.5859 50.2236 52.4839 50.5375C52.382 50.8513 52.1833 51.1248 51.9163 51.3188L47.0148 54.8938L48.8898 60.675C48.9659 60.9095 48.9856 61.1587 48.947 61.4023C48.9084 61.6458 48.8128 61.8767 48.6678 62.0762C48.5229 62.2757 48.3328 62.4381 48.1131 62.55C47.8934 62.662 47.6504 62.7203 47.4038 62.7203L47.4054 62.7188ZM41.5694 55.3547C41.8996 55.3539 42.2215 55.4584 42.4882 55.6532L44.4335 57.0594L43.6913 54.7735C43.5893 54.4597 43.5893 54.1217 43.6911 53.8079C43.793 53.4941 43.9916 53.2206 44.2585 53.0266L46.2023 51.6203H43.7991C43.4694 51.6204 43.148 51.5162 42.8811 51.3225C42.6142 51.1289 42.4154 50.8557 42.3132 50.5422L41.5694 48.2563L40.8288 50.5407C40.7269 50.8545 40.5282 51.1279 40.2612 51.3219C39.9943 51.5158 39.6728 51.6203 39.3429 51.6203H36.9398L38.8835 53.0266C39.1507 53.2207 39.3495 53.4945 39.4514 53.8086C39.5533 54.1227 39.5531 54.461 39.4507 54.775L38.7069 57.0578L40.6523 55.6516C40.9187 55.4577 41.2399 55.3537 41.5694 55.3547Z" fill="black"/>
<path d="M60.3957 40.0495L59.7178 42.3759L61.7212 43.7394L59.2992 43.8139L58.6214 46.1404L57.8022 43.86L55.3803 43.9345L57.2959 42.4504L56.4767 40.17L58.4796 41.5332L60.3957 40.0495Z" fill="#EFC555"/>
<path d="M58.325 46.5743C58.2334 46.5118 58.1639 46.4218 58.1265 46.3173L57.4357 44.3961L55.3954 44.4585C55.2845 44.4619 55.1755 44.4302 55.0838 44.3678C54.9921 44.3054 54.9226 44.2156 54.8851 44.1113C54.8476 44.0069 54.8441 43.8934 54.8751 43.7869C54.9061 43.6805 54.97 43.5866 55.0577 43.5187L56.6714 42.2673L55.9813 40.3459C55.9438 40.2416 55.9403 40.1281 55.9713 40.0217C56.0023 39.9153 56.0661 39.8214 56.1537 39.7535C56.2413 39.6856 56.3481 39.6472 56.4589 39.6437C56.5697 39.6403 56.6787 39.6719 56.7704 39.7342L58.4587 40.8833L60.0724 39.6319C60.16 39.5645 60.2667 39.5265 60.3772 39.5233C60.4877 39.5201 60.5964 39.5518 60.6878 39.614C60.7792 39.6763 60.8486 39.7657 60.8862 39.8697C60.9238 39.9737 60.9275 40.0869 60.897 40.1931L60.3249 42.1534L62.0122 43.3019C62.1039 43.3642 62.1735 43.454 62.211 43.5583C62.2485 43.6627 62.252 43.7762 62.221 43.8827C62.19 43.9891 62.1261 44.083 62.0384 44.1509C61.9508 44.2188 61.8439 44.2572 61.7331 44.2606L59.6958 44.327L59.1237 46.2873C59.1005 46.3668 59.0588 46.4397 59.0021 46.5001C58.9453 46.5604 58.8751 46.6065 58.7971 46.6345C58.7192 46.6625 58.6357 46.6717 58.5535 46.6613C58.4713 46.6508 58.3928 46.6211 58.3243 46.5745L58.325 46.5743ZM58.0962 43.4256C58.188 43.4878 58.2577 43.5777 58.2949 43.6822L58.5694 44.4406L58.7954 43.6653C58.8264 43.5589 58.8903 43.465 58.9779 43.3971C59.0655 43.3292 59.1724 43.2908 59.2832 43.2873L60.0889 43.2642L59.4214 42.8099C59.3298 42.7476 59.2603 42.6579 59.2228 42.5536C59.1852 42.4494 59.1817 42.3359 59.2125 42.2295L59.4381 41.454L58.8005 41.9485C58.7129 42.0164 58.606 42.0548 58.4952 42.0582C58.3844 42.0616 58.2753 42.0298 58.1837 41.9675L57.5162 41.5132L57.7902 42.2712C57.8278 42.3756 57.8312 42.4893 57.8001 42.5958C57.7691 42.7023 57.705 42.7962 57.6172 42.8641L56.9791 43.3576L57.7853 43.3347C57.8959 43.3312 58.0048 43.3631 58.0962 43.4256Z" fill="black"/>
<path d="M67.3238 47.0258L66.0796 49.1052L67.6729 50.931L65.3109 50.3905L64.0667 52.4699L63.8509 50.0564L61.4889 49.5159L63.7176 48.5646L63.5018 46.1512L65.0948 47.9767L67.3238 47.0258Z" fill="#EFC555"/>
<path d="M63.6704 52.815C63.5976 52.7313 63.5531 52.6267 63.5434 52.5161L63.361 50.4826L61.3712 50.0269C61.2631 50.0022 61.1656 49.9439 61.0927 49.8604C61.0198 49.7769 60.9752 49.6724 60.9653 49.5619C60.9554 49.4515 60.9808 49.3408 61.0377 49.2456C61.0946 49.1505 61.1802 49.0758 61.2822 49.0323L63.16 48.2298L62.9783 46.1963C62.9684 46.0859 62.9937 45.9752 63.0506 45.8801C63.1075 45.785 63.193 45.7103 63.2949 45.6668C63.3968 45.6233 63.5099 45.6131 63.618 45.6377C63.726 45.6624 63.8235 45.7206 63.8964 45.8041L65.2392 47.3428L67.1169 46.5403C67.2188 46.4972 67.3316 46.4874 67.4393 46.5123C67.547 46.5371 67.6442 46.5953 67.7169 46.6786C67.7896 46.7619 67.8341 46.8661 67.8441 46.9762C67.8542 47.0863 67.8292 47.1967 67.7728 47.2918L66.7234 49.0436L68.0655 50.5815C68.1384 50.665 68.183 50.7695 68.1929 50.8799C68.2028 50.9904 68.1775 51.1011 68.1205 51.1962C68.0636 51.2914 67.9781 51.3661 67.8761 51.4096C67.7741 51.4531 67.661 51.4633 67.5529 51.4385L65.5651 50.9875L64.5157 52.7393C64.4732 52.8104 64.4144 52.8704 64.3443 52.9144C64.2741 52.9584 64.1945 52.9852 64.112 52.9926C64.0295 53 63.9464 52.9878 63.8695 52.9569C63.7926 52.926 63.7242 52.8774 63.6697 52.8149L63.6704 52.815ZM64.2454 49.7108C64.3186 49.7942 64.3632 49.8988 64.3728 50.0093L64.4466 50.8124L64.8613 50.1195C64.9182 50.0244 65.0038 49.9497 65.1057 49.9062C65.2077 49.8627 65.3208 49.8525 65.4288 49.8772L66.2142 50.0586L65.6834 49.4503C65.6105 49.3668 65.5659 49.2624 65.556 49.1521C65.546 49.0417 65.5712 48.9311 65.628 48.8359L66.0424 48.1426L65.3005 48.4598C65.1985 48.5033 65.0854 48.5134 64.9773 48.4887C64.8693 48.464 64.7718 48.4057 64.6989 48.3222L64.168 47.7138L64.2414 48.5165C64.2513 48.627 64.2259 48.7378 64.1689 48.833C64.1119 48.9282 64.0262 49.0029 63.9241 49.0464L63.1819 49.3624L63.9677 49.5442C64.0756 49.5688 64.1729 49.6271 64.2454 49.7108Z" fill="black"/>
<path d="M68.0023 58.2944L65.9885 59.6423L66.6483 61.974L64.7441 60.4756L62.7303 61.8234L63.5671 59.5494L61.6629 58.0509L64.0843 58.1438L64.9211 55.8698L65.5807 58.2011L68.0023 58.2944Z" fill="#EFC555"/>
<path d="M62.2247 61.9662C62.1946 61.8594 62.1992 61.7458 62.2377 61.6417L62.9421 59.7254L61.3382 58.4628C61.251 58.3943 61.1878 58.2999 61.1576 58.1932C61.1274 58.0865 61.1317 57.973 61.17 57.8689C61.2083 57.7649 61.2786 57.6756 61.3707 57.6139C61.4628 57.5522 61.5721 57.5213 61.6829 57.5256L63.7235 57.6029L64.4286 55.687C64.4669 55.583 64.5371 55.4937 64.6292 55.4321C64.7213 55.3704 64.8305 55.3394 64.9413 55.3437C65.052 55.3479 65.1586 55.387 65.2457 55.4555C65.3329 55.524 65.3961 55.6183 65.4263 55.7249L65.9824 57.69L68.0229 57.7673C68.1334 57.7719 68.2396 57.8113 68.3264 57.8798C68.4131 57.9483 68.476 58.0425 68.5061 58.1489C68.5362 58.2552 68.532 58.3684 68.494 58.4722C68.456 58.5761 68.3862 58.6652 68.2945 58.7271L66.597 59.8621L67.1527 61.8261C67.1829 61.9328 67.1786 62.0463 67.1403 62.1504C67.102 62.2544 67.0318 62.3437 66.9397 62.4054C66.8475 62.4671 66.7382 62.498 66.6275 62.4937C66.5167 62.4895 66.4101 62.4503 66.3229 62.3817L64.7188 61.1241L63.0212 62.2591C62.9524 62.3052 62.8736 62.3344 62.7914 62.3442C62.7091 62.354 62.6257 62.3442 62.5479 62.3156C62.4702 62.287 62.4003 62.2404 62.344 62.1796C62.2877 62.1188 62.2466 62.0455 62.2241 61.9658L62.2247 61.9662ZM64.0716 59.4058C64.1021 59.5125 64.0977 59.6261 64.0592 59.7301L63.7825 60.4877L64.4536 60.0386C64.5458 59.977 64.655 59.946 64.7658 59.9503C64.8766 59.9545 64.9832 59.9937 65.0703 60.0622L65.7027 60.562L65.4829 59.785C65.4527 59.6784 65.457 59.565 65.4952 59.461C65.5334 59.357 65.6035 59.2678 65.6955 59.206L66.3665 58.7565L65.5602 58.726C65.4495 58.7217 65.3429 58.6825 65.2557 58.614C65.1686 58.5454 65.1054 58.451 65.0753 58.3444L64.8554 57.5674L64.5786 58.3245C64.5403 58.4286 64.47 58.5179 64.3777 58.5796C64.2855 58.6413 64.1761 58.6722 64.0652 58.6678L63.2592 58.6362L63.8917 59.1364C63.9788 59.2048 64.0418 59.2992 64.0716 59.4058Z" fill="black"/>
<path d="M59.3486 63.6516L59.3481 66.0748L61.6527 66.824L59.3481 67.5725L59.3476 69.9957L57.9236 68.0352L55.6191 68.7837L57.0435 66.8233L55.6195 64.8628L57.9237 65.6118L59.3486 63.6516Z" fill="#EFC555"/>
<path d="M59.1855 70.4949C59.08 70.4605 58.9881 70.3935 58.9231 70.3036L57.7227 68.652L55.7812 69.2823C55.6758 69.3165 55.5622 69.3166 55.4567 69.2823C55.3513 69.248 55.2594 69.1813 55.1942 69.0915C55.129 69.0018 55.0939 68.8938 55.0939 68.7829C55.094 68.672 55.1291 68.564 55.1943 68.4743L56.3939 66.8218L55.1942 65.1699C55.1291 65.0802 55.094 64.9722 55.094 64.8614C55.094 64.7506 55.1291 64.6426 55.1942 64.5529C55.2593 64.4632 55.3511 64.3965 55.4565 64.3622C55.5619 64.3279 55.6755 64.3278 55.7809 64.362L57.723 64.9933L58.9226 63.3408C58.9879 63.2516 59.0798 63.1852 59.185 63.1513C59.2902 63.1173 59.4034 63.1174 59.5086 63.1516C59.6137 63.1858 59.7054 63.2523 59.7705 63.3416C59.8356 63.431 59.8709 63.5386 59.8713 63.6491L59.8699 65.6912L61.811 66.3222C61.9165 66.3564 62.0084 66.4232 62.0735 66.5129C62.1387 66.6026 62.1738 66.7106 62.1738 66.8215C62.1738 66.9324 62.1387 67.0404 62.0735 67.1301C62.0083 67.2198 61.9164 67.2865 61.811 67.3208L59.8735 67.954L59.8721 69.996C59.8721 70.0789 59.8525 70.1605 59.8148 70.2344C59.7772 70.3082 59.7227 70.372 59.6556 70.4207C59.5886 70.4694 59.511 70.5015 59.4292 70.5145C59.3474 70.5274 59.2636 70.5208 59.1848 70.4952L59.1855 70.4949ZM58.0856 67.5357C58.1912 67.5697 58.2832 67.6365 58.3482 67.7265L58.8237 68.3779L58.824 67.5703C58.824 67.4595 58.8591 67.3515 58.9243 67.2618C58.9894 67.1721 59.0813 67.1053 59.1867 67.0711L59.9539 66.8236L59.186 66.574C59.0806 66.5398 58.9888 66.4731 58.9236 66.3835C58.8584 66.2939 58.8233 66.186 58.8232 66.0752L58.823 65.2675L58.349 65.9205C58.2839 66.0102 58.192 66.0769 58.0865 66.1112C57.9811 66.1454 57.8675 66.1454 57.7621 66.1112L56.9942 65.8615L57.4692 66.5128C57.5344 66.6026 57.5695 66.7107 57.5695 66.8216C57.5694 66.9326 57.5342 67.0407 57.4689 67.1304L56.9941 67.7825L57.7617 67.5353C57.867 67.501 57.9805 67.5011 58.0856 67.5357Z" fill="black"/>
</svg>
