<svg width="100" height="100" viewBox="0 0 100 100" fill="none" xmlns="http://www.w3.org/2000/svg">
<g clip-path="url(#clip0_563_6602)">
<path d="M13.8072 56.601C11.3055 56.601 9.27734 54.5728 9.27734 52.0711V44.8822C9.27734 42.7248 7.52852 40.976 5.37109 40.976C3.21367 40.976 1.46484 42.7248 1.46484 44.8822V52.0711C1.46484 58.8875 6.99062 64.4135 13.8072 64.4135H86.193C88.6947 64.4135 90.7229 66.4416 90.7229 68.9433C90.7229 71.4451 88.6947 73.4732 86.193 73.4732H50V81.2857H86.1928C93.0092 81.2857 98.5352 75.7599 98.5352 68.9433C98.5352 62.1269 93.0107 56.601 86.1943 56.601C62.6873 56.601 13.8072 56.601 13.8072 56.601Z" fill="#DC9E80"/>
<path d="M81.2453 98.5352H65.625V90.7227H81.2453C83.4027 90.7227 85.1516 92.4715 85.1516 94.6289C85.1516 96.7863 83.4027 98.5352 81.2453 98.5352Z" fill="#F7BAAD"/>
<path d="M34.375 98.5352H18.75C16.5926 98.5352 14.8438 96.7863 14.8438 94.6289C14.8438 92.4715 16.5926 90.7227 18.75 90.7227H34.375V98.5352Z" fill="#F7BAAD"/>
<path d="M49.9961 94.7C69.4124 94.7 85.1523 86.9453 85.1523 77.3793C85.1523 67.8133 69.4124 60.0586 49.9961 60.0586C30.5798 60.0586 14.8398 67.8133 14.8398 77.3793C14.8398 86.9453 30.5798 94.7 49.9961 94.7Z" fill="#A3654D"/>
<path d="M50 94.7002C62.9442 94.7002 73.4375 82.458 73.4375 67.3564C73.4375 52.2549 62.9442 40.0127 50 40.0127C37.0558 40.0127 26.5625 52.2549 26.5625 67.3564C26.5625 82.458 37.0558 94.7002 50 94.7002Z" fill="#C58C6D"/>
<path d="M38.6586 67.3564C38.6586 64.5068 39.0326 61.7594 39.7258 59.1766C43.0174 60.0789 46.4711 60.5469 50 60.5469C57.5174 60.5469 64.692 58.4238 70.6863 54.4945C66.7418 45.8773 58.9584 40.0127 50 40.0127C37.0559 40.0127 26.5625 52.2549 26.5625 67.3564C26.5625 82.458 37.0559 94.7002 50 94.7002C52.0916 94.7002 54.1184 94.3787 56.048 93.7791C46.0355 90.6676 38.6586 80.018 38.6586 67.3564Z" fill="#B1785C"/>
<path d="M50 98.5352H34.375C32.2176 98.5352 30.4688 96.7863 30.4688 94.6289C30.4688 92.4715 32.2176 90.7227 34.375 90.7227H50V98.5352Z" fill="#FFCABD"/>
<path d="M65.625 98.5352H50C47.8426 98.5352 46.0938 96.7863 46.0938 94.6289C46.0938 92.4715 47.8426 90.7227 50 90.7227H65.625C67.7824 90.7227 69.5312 92.4715 69.5312 94.6289C69.5312 96.7863 67.7824 98.5352 65.625 98.5352Z" fill="#FFDCCE"/>
<path d="M25.0668 18.9166C25.0668 14.8586 21.6367 11.6018 17.5178 11.8869C14.1006 12.1236 11.3092 14.8519 11.0021 18.2635C10.857 19.875 11.2551 21.3865 12.0338 22.6365C13.3867 24.8082 14.1135 27.3111 14.1135 29.8697V29.8699C14.1135 32.0273 15.8623 33.7762 18.0197 33.7762C20.1771 33.7762 21.926 32.0273 21.926 29.8699V24.7818C23.8191 23.5184 25.0668 21.3635 25.0668 18.9166Z" fill="#FFDCCE"/>
<path d="M18.0189 33.7762C20.1764 33.7762 21.9252 32.0273 21.9252 29.8699V24.7818C20.807 25.5279 19.4641 25.9637 18.0189 25.9637C15.4816 25.9637 13.2584 24.6223 12.0176 22.6104C12.0229 22.6189 12.0277 22.6279 12.0332 22.6365C13.3861 24.8082 14.1129 27.3111 14.1129 29.8697V29.8699C14.1127 32.0273 15.8615 33.7762 18.0189 33.7762Z" fill="#FFCABD"/>
<path d="M74.9336 18.9166C74.9336 14.8586 78.3637 11.6018 82.4826 11.8869C85.8998 12.1236 88.6912 14.8519 88.9982 18.2635C89.1434 19.875 88.7453 21.3865 87.9666 22.6365C86.6137 24.8082 85.8869 27.3111 85.8869 29.8697V29.8699C85.8869 32.0273 84.1381 33.7762 81.9807 33.7762C79.8232 33.7762 78.0744 32.0273 78.0744 29.8699V24.7818C76.1813 23.5184 74.9336 21.3635 74.9336 18.9166Z" fill="#FFDCCE"/>
<path d="M81.9805 33.7762C79.823 33.7762 78.0742 32.0273 78.0742 29.8699V24.7818C79.1924 25.5279 80.5354 25.9637 81.9805 25.9637C84.5178 25.9637 86.741 24.6223 87.9818 22.6104C87.9766 22.6189 87.9717 22.6279 87.9662 22.6365C86.6133 24.8082 85.8865 27.3111 85.8865 29.8697V29.8699C85.8867 32.0273 84.1379 33.7762 81.9805 33.7762Z" fill="#FFCABD"/>
<path d="M50 54.6875C66.396 54.6875 79.6875 42.7732 79.6875 28.0762C79.6875 13.3791 66.396 1.46484 50 1.46484C33.604 1.46484 20.3125 13.3791 20.3125 28.0762C20.3125 42.7732 33.604 54.6875 50 54.6875Z" fill="#DC9E80"/>
<path d="M37.8031 28.0762C37.8031 16.1076 46.618 5.98535 58.7453 2.63906C55.9805 1.87637 53.0439 1.46484 50 1.46484C33.6041 1.46484 20.3125 13.3791 20.3125 28.0762C20.3125 42.7732 33.6041 54.6875 50 54.6875C53.0439 54.6875 55.9805 54.276 58.7453 53.5133C46.618 50.167 37.8031 40.0447 37.8031 28.0762Z" fill="#C58C6D"/>
<path d="M70.9779 24.2908C70.7912 19.6935 66.9988 15.9734 62.399 15.8699C58.8623 15.7902 55.7881 17.8008 54.3227 20.7517C53.5084 22.3912 51.8656 23.4396 50.0352 23.4377C50.0233 23.4377 50.0113 23.4377 49.9996 23.4377C49.9877 23.4377 49.976 23.4377 49.9641 23.4377C48.1336 23.4396 46.4906 22.3914 45.6766 20.7517C44.2111 17.8006 41.1367 15.7902 37.6 15.8699C33.0002 15.9736 29.208 19.6937 29.0211 24.291C28.9475 26.1039 29.4242 27.8004 30.2969 29.2285C30.9897 30.3621 31.1846 31.7476 30.7936 33.0174C30.5797 33.7107 30.468 34.4256 30.468 35.1562C30.468 41.6283 39.2125 46.875 49.9992 46.875C60.786 46.875 69.5305 41.6283 69.5305 35.1562C69.5305 34.4256 69.4188 33.7107 69.2051 33.0172C68.8141 31.7474 69.009 30.3619 69.7018 29.2283C70.5748 27.8002 71.0516 26.1037 70.9779 24.2908Z" fill="#FFDCCE"/>
<path d="M37.8026 28.0762C37.8026 23.8859 38.8844 19.9226 40.8092 16.3965C39.8113 16.033 38.7293 15.8443 37.5998 15.8699C33 15.9736 29.2078 19.6937 29.0211 24.291C28.9475 26.1039 29.4242 27.8004 30.2969 29.2285C30.9897 30.3621 31.1846 31.7476 30.7936 33.0174C30.5799 33.7107 30.4682 34.4256 30.4682 35.1562C30.4682 40.8568 37.2526 45.6059 46.2408 46.6574C41.0205 41.8613 37.8026 35.306 37.8026 28.0762Z" fill="#FFCABD"/>
<path d="M37.8027 23.973C36.9936 23.973 36.3379 24.6289 36.3379 25.4379V27.7816C36.3379 28.5906 36.9936 29.2465 37.8027 29.2465C38.6119 29.2465 39.2676 28.5906 39.2676 27.7816V25.4379C39.2676 24.6289 38.6117 23.973 37.8027 23.973Z" fill="black"/>
<path d="M62.1973 23.973C61.3881 23.973 60.7324 24.6289 60.7324 25.4379V27.7816C60.7324 28.5906 61.3881 29.2465 62.1973 29.2465C63.0064 29.2465 63.6621 28.5906 63.6621 27.7816V25.4379C63.6621 24.6289 63.0064 23.973 62.1973 23.973Z" fill="black"/>
<path d="M55.682 27.7141C54.8728 27.7141 54.2172 28.3699 54.2172 29.1789C54.2172 29.9279 53.6078 30.5375 52.8586 30.5375C52.1096 30.5375 51.5002 29.9281 51.5002 29.1789C51.5002 28.3699 50.8445 27.7141 50.0354 27.7141C49.2262 27.7141 48.5705 28.3699 48.5705 29.1789C48.5705 29.9279 47.9611 30.5375 47.2119 30.5375C46.4629 30.5375 45.8535 29.9281 45.8535 29.1789C45.8535 28.3699 45.1979 27.7141 44.3887 27.7141C43.5795 27.7141 42.9238 28.3699 42.9238 29.1789C42.9238 31.5433 44.8475 33.4672 47.2119 33.4672C48.2926 33.4672 49.2803 33.0644 50.0354 32.4025C50.7902 33.0646 51.7779 33.4672 52.8586 33.4672C55.223 33.4672 57.1469 31.5435 57.1469 29.1789C57.1469 28.3699 56.491 27.7141 55.682 27.7141Z" fill="black"/>
<path d="M85.1387 82.7506H86.1928C93.8059 82.7506 99.9998 76.5566 99.9998 68.9434C99.9998 61.3301 93.8066 55.1361 86.1939 55.1361H72.5525C71.791 53.2521 70.8516 51.4607 69.7465 49.7977C71.3299 48.6258 72.7977 47.3055 74.123 45.8453C74.6668 45.2463 74.6223 44.3199 74.023 43.7762C73.4242 43.2326 72.4975 43.277 71.9539 43.8762C66.5621 49.816 58.5602 53.2227 50 53.2227C34.4379 53.2227 21.7773 41.942 21.7773 28.0762C21.7773 14.2104 34.4379 2.92969 50 2.92969C65.5621 2.92969 78.2227 14.2104 78.2227 28.0762C78.2227 32.0586 77.208 35.8672 75.2068 39.3959C74.8078 40.0996 75.0549 40.9936 75.7584 41.3928C76.4621 41.7916 77.3562 41.5449 77.7555 40.8412C78.8314 38.9437 79.6512 36.9729 80.2174 34.9428C80.7795 35.1381 81.3746 35.2412 81.9812 35.2412C84.9428 35.2412 87.3523 32.8316 87.3523 29.8699C87.3523 27.5957 87.9949 25.3623 89.2104 23.4113C90.1951 21.8309 90.6266 20.0055 90.4578 18.1324C90.0879 14.0242 86.7031 10.7111 82.5844 10.426C80.1613 10.2572 77.8158 11.134 76.1023 12.7691C70.5373 5.0875 60.916 0 50 0C39.0838 0 29.4625 5.0877 23.8979 12.7689C22.1834 11.1338 19.8361 10.2566 17.416 10.4256C13.2971 10.7107 9.9123 14.0238 9.54238 18.132C9.37363 20.0051 9.80508 21.8307 10.7896 23.4111C12.0053 25.3623 12.6479 27.5957 12.6479 29.8699C12.6479 32.8316 15.0574 35.241 18.0189 35.241C18.6281 35.241 19.2262 35.1367 19.7908 34.9395C21.4453 40.8523 25.1857 46.0254 30.2637 49.7824C29.1541 51.4502 28.2111 53.2465 27.4473 55.1361H13.807C12.1172 55.1361 10.7422 53.7611 10.7422 52.0711V44.8822C10.7422 41.9205 8.33262 39.5111 5.37109 39.5111C2.40957 39.5111 0 41.9205 0 44.8822V52.0711C0 59.6844 6.19395 65.8783 13.807 65.8783H20.9051C16.0619 69.1199 13.3744 73.1516 13.3744 77.3795C13.3744 81.8234 16.2875 85.9764 21.4738 89.2578H18.75C15.7885 89.2578 13.3789 91.6672 13.3789 94.6289C13.3789 97.5906 15.7885 100 18.75 100H81.25C84.2115 100 86.6211 97.5906 86.6211 94.6289C86.6211 91.6672 84.2115 89.2578 81.25 89.2578H78.5123C81.5334 87.3455 83.7865 85.1385 85.1387 82.7506ZM82.3818 13.3482C85.0801 13.5352 87.2975 15.7045 87.5396 18.3947C87.6506 19.6277 87.3686 20.8268 86.7234 21.8617C85.2182 24.2781 84.4225 27.0473 84.4225 29.8697C84.4225 31.216 83.3273 32.3111 81.9811 32.3111C81.5818 32.3111 81.1943 32.2123 80.8475 32.0301C81.0488 30.7316 81.1523 29.4131 81.1523 28.076C81.1523 23.4762 79.9186 19.1313 77.7336 15.2957C78.8752 13.9602 80.5959 13.2242 82.3818 13.3482ZM18.0189 32.3113C16.6727 32.3113 15.5775 31.216 15.5775 29.8697C15.5775 27.0475 14.7818 24.2783 13.2764 21.8619C12.6314 20.8268 12.3494 19.6279 12.4604 18.3947C12.7025 15.7047 14.9199 13.5352 17.6184 13.3482C19.4006 13.2258 21.1238 13.9609 22.266 15.2965C20.0814 19.1318 18.8477 23.4766 18.8477 28.0762C18.8477 29.4172 18.9549 30.7359 19.1576 32.0273C18.8092 32.2113 18.4197 32.3113 18.0189 32.3113ZM85.1242 72.0084C83.8598 69.785 81.815 67.7061 79.0854 65.8783H86.193C87.8828 65.8783 89.2578 67.2533 89.2578 68.9434C89.2578 70.6334 87.8828 72.0084 86.193 72.0084H85.1242ZM86.1941 58.0658C92.1912 58.0658 97.0703 62.9455 97.0703 68.9434C97.0703 74.8986 92.259 79.7492 86.3197 79.8176C86.5162 79.017 86.6166 78.2031 86.6166 77.3793C86.6166 76.5557 86.5125 75.7394 86.3123 74.9348C89.5625 74.8711 92.1875 72.2088 92.1875 68.9434C92.1875 65.6379 89.4982 62.9486 86.193 62.9486H74.6088C74.3861 61.2855 74.0387 59.6518 73.5723 58.0658H86.1941ZM2.92969 52.0711V44.8822C2.92969 43.5359 4.0248 42.4408 5.37109 42.4408C6.71738 42.4408 7.8125 43.5359 7.8125 44.8822V52.0711C7.8125 55.3766 10.5018 58.0658 13.807 58.0658H26.4277C25.9613 59.6516 25.6137 61.2854 25.3912 62.9486H13.807C7.80918 62.9486 2.92969 58.0689 2.92969 52.0711ZM16.3041 77.3795C16.3041 73.5129 19.4816 69.7248 25.1031 66.7922C25.1 66.9801 25.0977 67.1684 25.0977 67.3566C25.0977 69.8232 25.3676 72.2732 25.8994 74.6389C26.0525 75.3199 26.6572 75.7824 27.3273 75.7824C27.4338 75.7824 27.542 75.7707 27.65 75.7465C28.4395 75.5689 28.9354 74.7852 28.7578 73.9959C28.2732 71.841 28.0273 69.6074 28.0273 67.3566C28.0273 61.5639 29.6791 55.9516 32.698 51.4125C37.6504 54.4045 43.6027 56.1523 50 56.1523C56.2564 56.1523 62.2486 54.4805 67.3109 51.4264C70.3236 55.9627 71.9727 61.5715 71.9727 67.3564C71.9727 76.3041 68.1348 84.4777 61.7004 89.2578H51.4648V68.3594C51.4648 67.5504 50.8092 66.8945 50 66.8945C49.1908 66.8945 48.5352 67.5504 48.5352 68.3594V89.2578H38.2998C35.026 86.8248 32.3451 83.416 30.5438 79.3871C30.2135 78.6484 29.3469 78.3176 28.6086 78.6479C27.8701 78.9779 27.5391 79.8443 27.8693 80.583C29.3574 83.9109 31.3941 86.8645 33.8465 89.284C32.79 89.3877 31.8232 89.7994 31.0354 90.4269C21.932 87.449 16.3041 82.482 16.3041 77.3795ZM68.0664 94.6289C68.0664 95.9752 66.9713 97.0703 65.625 97.0703H34.375C33.0287 97.0703 31.9336 95.9752 31.9336 94.6289C31.9336 93.2826 33.0287 92.1875 34.375 92.1875H65.625C66.9713 92.1875 68.0664 93.2826 68.0664 94.6289ZM16.3086 94.6289C16.3086 93.2826 17.4037 92.1875 18.75 92.1875H27.2979C27.9398 92.4443 28.6014 92.691 29.2818 92.9271C29.1025 93.4623 29.0039 94.0342 29.0039 94.6289C29.0039 95.5078 29.2174 96.3373 29.5934 97.0703H18.75C17.4037 97.0703 16.3086 95.9752 16.3086 94.6289ZM81.25 92.1875C82.5963 92.1875 83.6914 93.2826 83.6914 94.6289C83.6914 95.9752 82.5963 97.0703 81.25 97.0703H70.4066C70.7824 96.3373 70.9961 95.5078 70.9961 94.6289C70.9961 94.0332 70.8971 93.4604 70.7172 92.9244C71.3943 92.6891 72.0525 92.4432 72.6916 92.1875H81.25ZM68.9619 90.4248C68.1758 89.7996 67.2121 89.3889 66.1592 89.2844C71.6867 83.849 74.9023 75.9111 74.9023 67.3564C74.9023 67.1697 74.9002 66.983 74.8971 66.7965C80.5119 69.7285 83.6869 73.5178 83.6869 77.3793C83.6869 82.4725 78.0553 87.4482 68.9619 90.4248Z" fill="black"/>
<path d="M72.4418 24.2312C72.2229 18.8428 67.8262 14.5265 62.4323 14.4053C58.4131 14.3109 54.7907 16.5156 53.011 20.1C52.4371 21.2551 51.2991 21.9724 50.0354 21.9724H49.9588C48.7004 21.9724 47.5621 21.2551 46.9885 20.1C45.2084 16.515 41.5813 14.315 37.567 14.4051C32.1731 14.5265 27.7764 18.8428 27.5574 24.2312C27.4746 26.2699 27.9899 28.2621 29.0471 29.9922C29.5313 30.7842 29.6574 31.7297 29.3936 32.5863C29.1348 33.4271 29.0035 34.2918 29.0035 35.1562C29.0035 38.8213 31.2877 42.2101 35.4354 44.6988C39.3487 47.0467 44.5209 48.3398 49.9996 48.3398C55.4783 48.3398 60.6506 47.0467 64.5639 44.6988C68.7116 42.2101 70.9957 38.8213 70.9957 35.1562C70.9957 34.292 70.8645 33.4271 70.6057 32.5861C70.3418 31.7297 70.4684 30.7844 70.9522 29.9924C72.0096 28.2619 72.5248 26.2697 72.4418 24.2312ZM68.4526 28.4646C67.5307 29.973 67.2949 31.7896 67.8057 33.4482C67.9785 34.0097 68.066 34.5844 68.066 35.1564C68.066 37.7517 66.2871 40.2486 63.0567 42.1867C59.592 44.2654 54.9549 45.4101 49.9996 45.4101C45.0444 45.4101 40.4073 44.2654 36.9426 42.1865C33.7121 40.2484 31.9332 37.7515 31.9332 35.1562C31.9332 34.5842 32.0207 34.0096 32.1936 33.4484C32.7043 31.7894 32.4686 29.973 31.5467 28.4644C30.7928 27.2306 30.4254 25.8078 30.4846 24.3502C30.6408 20.5027 33.7807 17.4209 37.6328 17.3342C37.6899 17.333 37.7461 17.3322 37.8028 17.3322C40.6032 17.3322 43.1174 18.892 44.3645 21.4031C45.4364 23.5615 47.5801 24.9023 49.9641 24.9023H50.0406C52.4194 24.9023 54.5627 23.5615 55.635 21.4031C56.8819 18.8922 59.3961 17.3324 62.1967 17.3324C62.2532 17.3324 62.31 17.333 62.3664 17.3344C66.2186 17.4211 69.3584 20.5029 69.5147 24.3504C69.5739 25.8078 69.2067 27.2305 68.4526 28.4646Z" fill="black"/>
</g>
<defs>
<clipPath id="clip0_563_6602">
<rect width="100" height="100" fill="white"/>
</clipPath>
</defs>
</svg>
