<svg width="100" height="100" viewBox="0 0 100 100" fill="none" xmlns="http://www.w3.org/2000/svg">
<g clip-path="url(#clip0_563_9445)">
<path d="M51.5674 51.0005C50.8296 50.2627 50.4149 49.2619 50.4149 48.2184V8.70746H50.0243V9.01116C49.9559 9.03323 49.8858 9.05081 49.8128 9.06136C49.6028 9.09124 49.3811 9.06956 49.1862 9.15315C48.6522 9.38186 48.7005 10.1438 48.4552 10.6703C48.1972 11.2238 47.5661 11.5262 46.9568 11.5644C46.3472 11.6027 45.7476 11.4232 45.1632 11.2459C44.4092 11.0168 43.5988 10.7484 43.1449 10.1041C42.8961 9.7508 42.7832 9.31936 42.5615 8.94847C42.1686 8.29125 41.4777 7.88403 40.86 7.43189C39.4715 6.41589 38.3544 4.76416 37.6149 3.12512C34.7415 3.88214 31.923 4.90263 29.2008 6.19441L29.3303 6.34402C29.3869 6.98932 29.7018 7.58033 30.2135 7.9895L33.772 10.8365C34.246 11.2156 34.5179 11.7812 34.5179 12.3885V16.4325C34.5179 17.7438 35.5847 18.8106 36.896 18.8106H38.559C39.6549 18.8106 40.5465 19.7022 40.5465 20.7981V22.7129C40.5465 23.3396 40.2457 23.9367 39.742 24.3099L29.9789 31.5419C29.6391 31.7936 29.219 31.9323 28.7959 31.9323H22.7601C21.4488 31.9323 20.382 32.9991 20.382 34.3104V38.2916C20.382 38.9267 20.6292 39.524 21.0785 39.973L25.3087 44.2032C25.7579 44.6524 26.3549 44.8997 26.9901 44.8997H32.946C34.0419 44.8997 34.9335 45.7913 34.9335 46.8871V48.6541C34.9335 49.9654 36.0003 51.0322 37.3116 51.0322H41.4692C42.565 51.0322 43.4566 51.9238 43.4566 53.0197C43.4566 54.331 44.5234 55.3977 45.8347 55.3977H51.2395C52.3354 55.3977 53.227 56.2893 53.227 57.3852V63.0992C53.227 63.7021 52.958 64.2656 52.4891 64.6447L44.3394 71.2336C43.7783 71.6873 43.4564 72.3613 43.4564 73.083V75.8752C43.4564 76.4232 43.2269 76.9521 42.8269 77.3265L39.7664 80.1901C39.2877 80.638 39.0131 81.271 39.0131 81.9266V88.1517C39.0131 89.2476 38.1216 90.1392 37.0257 90.1392H33.7775C32.6816 90.1392 31.79 89.2476 31.79 88.1517V84.1803C31.79 83.8252 31.7086 83.4684 31.5545 83.1487L29.2842 78.4333C29.1555 78.1661 29.0875 77.8681 29.0875 77.5712V68.5856C29.0875 67.8227 28.718 67.1013 28.0989 66.6558L19.5195 60.4787C19.0021 60.1063 18.6933 59.5033 18.6933 58.8659V52.6511C18.6933 52.3134 18.7801 51.9792 18.9441 51.6845L19.3968 50.8712C19.913 49.9435 19.7472 48.7736 18.9935 48.0262L11.4599 40.5552C11.0862 40.1847 10.872 39.6703 10.872 39.1439V34.3869C10.872 33.7225 10.5911 33.0838 10.1015 32.6346L6.23455 29.0913C-2.3995 47.1369 0.755144 69.4124 15.7051 84.3625C34.6591 103.317 65.3895 103.317 84.3433 84.3625C84.4411 84.2645 84.5357 84.1645 84.6325 84.0658L51.5674 51.0005Z" fill="#23A8FE"/>
<path d="M37.6154 3.12512C34.742 3.88215 31.9234 4.90266 29.2012 6.19446L29.3307 6.34407C29.3873 6.98938 29.7021 7.5804 30.2139 7.98958L32.9664 10.1917C35.1035 8.70247 37.335 7.40833 39.6342 6.30266C38.8068 5.37629 38.1221 4.24836 37.6154 3.12512Z" fill="#0193FA"/>
<path d="M33.191 90.0505C32.7876 89.9257 32.4404 89.6741 32.1918 89.3445C30.1514 87.8621 28.1994 86.2027 26.3594 84.3627C14.8059 72.8094 10.2952 56.8803 12.8264 41.9101L11.4601 40.555C11.0864 40.1845 10.8722 39.6701 10.8722 39.1437V34.3867C10.8722 33.7223 10.5913 33.0836 10.1017 32.6344L6.23455 29.0913C-2.3995 47.1369 0.755144 69.4124 15.7051 84.3625C26.5391 95.1965 41.2205 99.8345 55.3514 98.283C47.5495 97.4266 39.9166 94.6815 33.191 90.0505Z" fill="#0193FA"/>
<path d="M51.176 51.1958L84.3426 84.3625C93.8196 74.8855 98.552 62.4644 98.5518 50.0435H98.558C98.558 37.6224 93.8196 25.2013 84.3426 15.7243C74.8656 6.24731 62.4445 1.50891 50.0234 1.50891V1.51516V48.4138C50.0234 49.4572 50.4379 50.458 51.176 51.1958Z" fill="#BC7C63"/>
<path d="M59.3543 48.2012C58.6165 47.4633 58.2018 46.4625 58.2018 45.419V2.19953C55.4966 1.73957 52.7601 1.50891 50.0234 1.50891V1.51516V48.4138C50.0234 49.4574 50.4381 50.4581 51.176 51.196L84.3426 84.3627C86.2453 82.46 87.9533 80.437 89.4736 78.3208L59.3543 48.2012Z" fill="#AB6B51"/>
<path d="M51.176 51.1959L76.7802 76.8001C84.169 69.4116 87.8586 59.7276 87.8584 50.0433H87.8633C87.8633 40.3593 84.1688 30.6753 76.7802 23.2865C69.3917 15.8978 59.7075 12.2035 50.0234 12.2035V12.2084V48.4137C50.0234 49.4572 50.4379 50.458 51.176 51.1959Z" fill="#FEE55A"/>
<path d="M59.4678 59.4876L76.7804 76.8002C78.6966 74.884 80.3618 72.8124 81.7806 70.6274L59.3543 48.2012C58.6165 47.4633 58.2018 46.4626 58.2018 45.419V13.094C55.5105 12.501 52.7671 12.2037 50.0234 12.2037V12.2086V48.4139C50.0234 48.6748 50.0494 48.933 50.0998 49.1852C50.1502 49.4373 50.2252 49.6832 50.323 49.9198C50.5189 50.3926 50.807 50.8274 51.176 51.1963L59.4678 59.4876Z" fill="#FFD301"/>
<path d="M51.1758 51.1959L69.2306 69.2507C74.5344 63.9469 77.183 56.9952 77.183 50.0436H77.1865C77.1865 43.0919 74.5346 36.1403 69.2306 30.8365C63.9267 25.5326 56.9751 22.8807 50.0234 22.8807V22.8843V48.4139C50.0232 49.4573 50.4377 50.458 51.1758 51.1959Z" fill="#FFA85D"/>
<path d="M59.4678 59.4875L69.2308 69.2507C71.1743 67.3073 72.7596 65.1419 73.9903 62.8371L59.3543 48.2012C58.6165 47.4633 58.2018 46.4625 58.2018 45.419V24.1367C55.5444 23.3004 52.7841 22.8805 50.0234 22.8805V22.884V48.4137C50.0234 48.6746 50.0494 48.9328 50.0998 49.185C50.1502 49.4371 50.2252 49.683 50.323 49.9195C50.5189 50.3924 50.807 50.8271 51.176 51.1961L59.4678 59.4875Z" fill="#FF9839"/>
<path d="M51.1758 51.1959L61.6809 61.701C64.9 58.4819 66.5074 54.2626 66.5074 50.0436H66.5095C66.5095 45.8245 64.9 41.6052 61.6809 38.3861C58.4618 35.167 54.2425 33.5575 50.0234 33.5575V33.5596V48.4139C50.0232 49.4572 50.4377 50.458 51.1758 51.1959Z" fill="#FF656F"/>
<path d="M59.4676 59.4875L61.6811 61.701C63.7056 59.6764 65.0916 57.2561 65.8423 54.6891L59.3543 48.2012C58.6165 47.4633 58.2018 46.4625 58.2018 45.419V35.7287C55.6757 34.2836 52.8503 33.5573 50.0234 33.5573V33.5594V48.4137C50.0234 48.6746 50.0494 48.9328 50.0998 49.1849C50.1502 49.4371 50.2252 49.683 50.323 49.9195C50.5189 50.3923 50.807 50.8271 51.176 51.196L59.4676 59.4875Z" fill="#FF4756"/>
<path d="M51.2401 55.2025H45.8351C44.6297 55.2025 43.6523 54.2252 43.6523 53.0197C43.6523 51.8143 42.675 50.8369 41.4696 50.8369H37.312C36.1066 50.8369 35.1292 49.8596 35.1292 48.6541V46.8872C35.1292 45.6817 34.1519 44.7044 32.9465 44.7044H26.9905C26.4116 44.7044 25.8563 44.4743 25.447 44.0652L21.2168 39.8349C20.8074 39.4256 20.5775 38.8703 20.5775 38.2916V34.3104C20.5775 33.105 21.5548 32.1276 22.7603 32.1276H28.7959C29.2637 32.1276 29.7194 31.9775 30.0951 31.6989L39.8583 24.467C40.4141 24.0553 40.7418 23.4047 40.7418 22.7129V20.7981C40.7418 19.5927 39.7645 18.6154 38.5591 18.6154H36.896C35.6906 18.6154 34.7132 17.638 34.7132 16.4326V12.3887C34.7132 11.7256 34.4119 11.0985 33.8939 10.6842L30.3354 7.8374C29.8176 7.42315 29.516 6.79601 29.516 6.13293V6.04114C24.5167 8.37079 19.832 11.5979 15.7055 15.7244C11.6519 19.778 8.46813 24.3715 6.14844 29.272L9.97025 32.7782C10.4208 33.1917 10.6775 33.7751 10.6775 34.3866V39.1436C10.6775 39.7256 10.9099 40.2836 11.3232 40.6935L18.8568 48.1645C19.5517 48.8536 19.7029 49.9209 19.2271 50.776L18.7744 51.5893C18.5938 51.9139 18.4988 52.2793 18.4988 52.6508V58.8657C18.4988 59.5678 18.8365 60.2268 19.4062 60.637L27.9856 66.814C28.5553 67.2242 28.893 67.8833 28.893 68.5855V77.5713C28.893 77.899 28.9668 78.2228 29.1092 78.5181L31.3795 83.2333C31.5217 83.5288 31.5957 83.8524 31.5957 84.1802V88.1514C31.5957 89.3568 32.573 90.3342 33.7785 90.3342H37.0267C38.2321 90.3342 39.2094 89.3568 39.2094 88.1514V81.9265C39.2094 81.3224 39.4598 80.7454 39.9008 80.3326L42.9613 77.4689C43.4023 77.0562 43.6527 76.4791 43.6527 75.875V73.0829C43.6527 72.4237 43.9506 71.7999 44.4633 71.3854L52.6129 64.7965C53.1254 64.382 53.4233 63.7582 53.4233 63.099V57.3851C53.4227 56.1796 52.4456 55.2025 51.2401 55.2025Z" fill="#43CB8E"/>
<path d="M9.97006 32.7782C10.4206 33.1917 10.6773 33.7751 10.6773 34.3866V39.1435C10.6773 39.7256 10.9097 40.2836 11.323 40.6935L12.7893 42.1476C14.3762 32.4727 18.8982 23.186 26.3598 15.7242C28.4809 13.6031 30.7498 11.7205 33.1328 10.0748L30.3358 7.83718C29.8307 7.43308 29.5164 6.84169 29.5164 6.04346C18.9551 10.9623 10.6421 19.5932 6.14844 29.272L9.97006 32.7782Z" fill="#00BA66"/>
<path d="M31.7891 89.049C32.1072 89.7523 32.7859 90.2564 33.5904 90.3247C32.9824 89.9152 32.3822 89.4894 31.7891 89.049Z" fill="#00BA66"/>
<path d="M42.5603 9.33931C42.7819 9.7102 42.8948 10.1416 43.1437 10.495C43.5974 11.1393 44.4077 11.4076 45.162 11.6367C45.7464 11.8141 46.3462 11.9936 46.9555 11.9553C47.5651 11.917 48.1961 11.6147 48.4539 11.0612C48.6992 10.5346 48.651 9.7727 49.185 9.54399C49.3799 9.4604 49.6016 9.48227 49.8117 9.4522C49.8846 9.44165 49.9549 9.42407 50.0232 9.402V1.51501C45.7964 1.51501 41.5697 2.06442 37.459 3.16089C38.1928 4.91281 39.3701 6.73329 40.8587 7.82253C41.4767 8.27487 42.1675 8.68209 42.5603 9.33931Z" fill="#43CB8E"/>
<path d="M39.3931 6.41518C42.8079 4.75037 46.3776 3.51054 50.0232 2.69473V1.51506C50.0232 1.51506 44.0854 1.37678 37.459 3.16094C37.9312 4.28885 38.5883 5.44391 39.3931 6.41518Z" fill="#00BA66"/>
<path d="M53.7326 0.137463C24.6836 -1.99278 0 20.9069 0 50.0005C0 77.6353 22.3621 100 49.9992 100C77.538 100 99.9187 77.7732 99.9924 50.1371C99.9965 50.0921 99.9986 50.0466 99.9986 50.0005C99.9986 23.2957 79.2726 2.01009 53.7326 0.137463ZM51.464 24.3431C72.9994 25.5455 83.3678 51.2376 69.1776 67.1073L63.6834 61.6131C73.1129 50.5359 65.9789 33.2785 51.464 32.1131V24.3431ZM51.464 35.049C63.4226 36.1986 69.1811 50.3498 61.6072 59.5365L52.1877 50.117H52.1875C51.7209 49.6506 51.464 49.0303 51.464 48.3707V35.049ZM48.5344 2.96183V8.1766C47.3582 8.7135 47.2504 9.96192 47.1131 10.3709C46.7918 10.5853 45.985 10.3199 45.5637 10.192C43.9337 9.69688 44.4497 9.642 43.7938 8.54495L43.7936 8.54475C43.3093 7.73441 42.5853 7.22427 42.0038 6.81451C41.9017 6.74244 41.7995 6.67076 41.6995 6.59771C40.9312 6.03561 40.1894 5.16297 39.5619 4.10244C42.3892 3.4628 45.4073 3.05714 48.5344 2.96183ZM36.6315 4.8536C37.3094 6.16081 38.3967 7.81098 39.9699 8.96193C41.1081 9.79513 41.1656 9.75587 41.4456 10.3984C41.5581 10.6562 41.698 10.9769 41.9222 11.2957C42.6861 12.3798 43.9054 12.7504 44.7126 12.9955C46.0473 13.4003 47.2975 13.6337 48.5344 12.9332V22.841V33.5164V48.3707C48.5344 49.8131 49.0961 51.1689 50.116 52.1886L51.6506 53.7231C51.5074 53.706 51.3623 53.6946 51.2146 53.6946H45.8098C45.4139 53.6946 45.0917 53.3726 45.0917 52.9767C45.0917 50.9654 43.4554 49.3291 41.4441 49.3291H37.2865C36.8908 49.3291 36.5686 49.007 36.5686 48.6111V46.8442C36.5686 44.8329 34.9323 43.1966 32.921 43.1966H26.965C26.7759 43.1966 26.591 43.1198 26.4574 42.9862L22.2272 38.756C22.0934 38.6222 22.0168 38.4373 22.0168 38.2484V34.2672C22.0168 33.8713 22.3387 33.5492 22.7348 33.5492H28.7706C29.547 33.5492 30.3181 33.2948 30.9417 32.8328L40.7046 25.6009C41.6292 24.916 42.1814 23.8203 42.1814 22.6699V20.7551C42.1814 18.7438 40.5451 17.1075 38.5338 17.1075H36.8705C36.4748 17.1075 36.1526 16.7854 36.1526 16.3896V12.3457C36.1526 11.2314 35.6535 10.1934 34.7836 9.49747L31.3593 6.75787C33.0755 6.01823 34.8352 5.3823 36.6315 4.8536ZM49.9992 97.0703C16.2048 97.0703 -6.42822 62.5472 6.61982 31.6727L8.95435 33.8145C9.1022 33.9502 9.18697 34.143 9.18697 34.3436V39.1005C9.18697 40.0663 9.58032 41.0105 10.2661 41.6905L17.7997 49.1613C18.0273 49.3871 18.0775 49.7402 17.9214 50.0205C17.4302 50.9033 17.0083 51.5093 17.0083 52.6075V58.8225C17.0083 59.9926 17.5753 61.0992 18.5247 61.7826L27.1043 67.9598C27.291 68.0942 27.4025 68.312 27.4025 68.5423V77.5281C27.4025 78.0728 27.5275 78.62 27.7636 79.1103L30.0341 83.8256C30.0804 83.9221 30.105 84.0297 30.105 84.1369V88.1082C30.105 90.1195 31.7413 91.7558 33.7526 91.7558H37.0008C39.0121 91.7558 40.6484 90.1195 40.6484 88.1082V81.8831C40.6484 81.685 40.7312 81.494 40.8757 81.3588L43.936 78.4952C44.6706 77.8083 45.0917 76.8374 45.0917 75.8316V73.0394C45.0917 72.8217 45.1889 72.6182 45.3585 72.4811L47.009 71.1465C47.6381 70.6379 47.7358 69.7155 47.227 69.0866C46.7188 68.4577 45.7967 68.3596 45.1669 68.8684L43.5165 70.203C42.6556 70.8989 42.1618 71.9328 42.1618 73.0396V75.8318C42.1618 76.0298 42.079 76.2208 41.9345 76.356L38.874 79.2198C38.1396 79.9067 37.7185 80.8776 37.7185 81.8833V88.1084C37.7185 88.5042 37.3965 88.8263 37.0006 88.8263H33.7528C33.3571 88.8263 33.0348 88.5042 33.0348 88.1084V84.1373C33.0348 83.5926 32.9098 83.0453 32.6737 82.5549L30.4032 77.8394C30.3569 77.7431 30.3323 77.6355 30.3323 77.5284V68.5426C30.3323 67.3725 29.7654 66.2657 28.816 65.5825L20.2364 59.4053C20.0497 59.2709 19.9382 59.0531 19.9382 58.8229V52.6079C19.9382 52.3671 20.0007 52.3095 20.4815 51.4454C21.2733 50.0226 21.019 48.2281 19.8628 47.0815L12.3291 39.6105C12.1941 39.4765 12.1166 39.2908 12.1166 39.1007V34.3438C12.1166 33.3246 11.686 32.3452 10.935 31.6559L7.91863 28.8884C12.3816 19.9924 19.6843 12.6117 28.6027 8.06117C28.8144 8.38987 29.0804 8.68635 29.3952 8.93811L32.9538 11.7849C33.1251 11.922 33.2233 12.1263 33.2233 12.3457V16.3897C33.2233 18.401 34.8596 20.0373 36.8709 20.0373H38.5342C38.9299 20.0373 39.2521 20.3594 39.2521 20.7553V22.6701C39.2521 22.8965 39.1433 23.1121 38.9615 23.2471L29.1982 30.4788C29.0753 30.5698 28.9236 30.6198 28.7708 30.6198H22.735C20.7237 30.6198 19.0874 32.2561 19.0874 34.2674V38.2486C19.0874 39.2228 19.4667 40.1388 20.1557 40.8278L24.3859 45.058C25.075 45.7469 25.991 46.1264 26.9652 46.1264H32.9212C33.3169 46.1264 33.6391 46.4485 33.6391 46.8443V48.6113C33.6391 50.6226 35.2754 52.2589 37.2867 52.2589H41.4443C41.84 52.2589 42.1622 52.581 42.1622 52.9769C42.1622 54.9882 43.7985 56.6245 45.81 56.6245H51.2148C51.6105 56.6245 51.9328 56.9465 51.9328 57.3424V63.0564C51.9328 63.2744 51.8357 63.4779 51.6666 63.6146L50.4846 64.5702C49.8553 65.0788 49.7576 66.0013 50.2664 66.6304C50.7748 67.2593 51.697 67.3573 52.3263 66.8485L53.5085 65.8927C54.3691 65.1968 54.8626 64.163 54.8626 63.0564V57.3424C54.8626 57.1946 54.8511 57.0497 54.8341 56.9065L75.7211 77.7935L82.2298 84.3024C73.4692 92.5458 62.0826 97.0703 49.9992 97.0703ZM97.0627 50.0005C97.0627 61.6334 92.8362 73.1615 84.3008 82.2305L78.8068 76.7363C85.1385 69.9182 88.8383 61.114 89.258 51.7806C89.2945 50.9724 88.6685 50.2878 87.8605 50.2513C87.0588 50.2158 86.3676 50.8406 86.3315 51.649C85.9446 60.2502 82.5501 68.3667 76.7355 74.665L71.252 69.1813C87.242 51.5038 75.6842 22.6223 51.4642 21.4096V13.6544C69.1065 14.3484 83.6688 27.6277 86.0393 45.0762C86.1483 45.8778 86.8875 46.4397 87.6879 46.3305C88.4894 46.2215 89.051 45.4834 88.9422 44.6819C86.3778 25.8062 70.6092 11.4226 51.464 10.7258C51.464 7.65981 51.464 9.82423 51.464 2.9548C76.5562 3.72002 96.9977 24.2281 97.0688 49.8673C97.0649 49.9113 97.0627 49.9558 97.0627 50.0005Z" fill="black"/>
</g>
<defs>
<clipPath id="clip0_563_9445">
<rect width="100" height="100" fill="white"/>
</clipPath>
</defs>
</svg>
