<svg width="100" height="100" viewBox="0 0 100 100" fill="none" xmlns="http://www.w3.org/2000/svg">
<g clip-path="url(#clip0_419_2953)">
<path d="M55.7578 11.1483L70.0558 4.44008C71.4923 3.76614 73.1787 3.90655 74.484 4.80898L78.7761 7.77622L88.1806 4.24948C89.6637 3.69329 91.3303 3.96592 92.5588 4.96541L98.524 9.81837V19.5294L55.7578 19.0081V11.1483Z" fill="#D5DAF3"/>
<path d="M88.7079 5.94186L98.5244 13.5949V9.81837L92.5592 4.96541C91.3307 3.96592 89.6639 3.69329 88.181 4.24948L86.2852 4.96033C87.1585 5.03728 88.0051 5.37005 88.7079 5.94186Z" fill="#BEC6ED"/>
<path d="M70.6322 5.78521L75.1948 9.4174L78.7758 7.77599L74.4837 4.80876C73.1786 3.90652 71.4921 3.76591 70.0555 4.43985L68.7656 5.04506C69.4253 5.14505 70.0649 5.39306 70.6322 5.78521Z" fill="#BEC6ED"/>
<path d="M1.46484 19.5294V6.32658C1.46484 6.32658 8.43396 5.05641 12.5269 8.58472C12.5269 8.58472 18.4547 4.46996 23.6767 6.10395C28.8988 7.73794 33.1241 12.1835 33.1241 12.1835V19.5297L1.46484 19.5294Z" fill="#22B27F"/>
<path d="M12.6561 8.49902C12.5736 8.55293 12.5273 8.58496 12.5273 8.58496C12.5807 8.57969 12.6219 8.54707 12.6561 8.49902Z" fill="#09A76D"/>
<path d="M23.6767 6.10419C21.0377 5.27851 18.2195 5.92121 16.0762 6.7588C17.3067 6.63069 18.5856 6.6928 19.8253 7.08064C25.0474 8.71463 29.2727 13.1602 29.2727 13.1602V19.53H33.124V12.1838C33.124 12.1838 28.8987 7.73799 23.6767 6.10419Z" fill="#09A76D"/>
<path d="M8.67554 9.56146C8.67554 9.56146 10.0219 8.82912 12.5269 8.58501C8.43396 5.05651 1.46484 6.32668 1.46484 6.32668V7.10276C3.74446 7.20978 6.58457 7.75893 8.67554 9.56146Z" fill="#09A76D"/>
<path d="M1.46484 43.2651H98.524V78.3943H1.46484V43.2651Z" fill="#8D9CA8"/>
<path d="M98.524 26.1633H1.46484V54.0652L17.9829 50.514L53.228 57.8036L86.8091 50.514L98.524 54.3554V26.1633Z" fill="#B98080"/>
<path d="M98.524 34.4683V19.5294C48.9379 0.51984 1.46484 19.5294 1.46484 19.5294V34.4683C1.46484 34.4683 24.8461 27.3537 41.4846 29.5472C58.1232 31.7407 74.3949 35.6468 98.524 34.4683Z" fill="#FED2A4"/>
<path d="M98.5242 22.5773V19.5294C68.4615 8.00432 39.1766 10.4542 20.7754 14.1698C40.396 12.0578 69.8358 11.7933 98.5242 22.5773Z" fill="#FFBD86"/>
<path d="M98.524 47.6218V54.3554C85.6563 52.0295 83.8694 52.6408 68.0372 58.064C63.6706 59.5599 59.546 60.9718 54.9099 61.0519C54.7204 61.0558 54.531 61.0558 54.3416 61.0558C47.856 61.0558 41.9992 59.1693 36.33 57.3433C30.8853 55.5877 25.7433 53.9316 20.2439 53.9316C14.2134 53.9316 6.97788 55.6033 1.46484 57.193V50.0844C7.13411 48.5494 14.1196 47.0965 20.2439 47.0965C26.8174 47.0965 32.7191 48.9986 38.4254 50.8363C43.9736 52.6251 49.2132 54.3144 54.7927 54.2168C58.3509 54.1562 61.8134 52.9708 65.8227 51.5979C73.4917 48.9713 82.8129 45.7783 98.524 47.6218Z" fill="#6C7FD8"/>
<path d="M98.5232 49.0986V47.6219C86.3084 46.1886 77.9568 47.8 71.2402 49.8222C78.5462 48.0775 87.9389 46.9588 98.5232 49.0986Z" fill="#5070C9"/>
<path d="M16.3926 48.073C22.9661 48.073 28.8677 49.9751 34.5741 51.8128C43.0915 54.8673 50.7711 56.4105 59.2158 53.6261C57.7275 53.9712 56.2681 54.1916 54.7927 54.2168C49.2132 54.3145 43.9736 52.6252 38.4254 50.8364C32.7191 48.9987 26.8174 47.0966 20.2439 47.0966C14.1196 47.0966 7.13411 48.5495 1.46484 50.0845V50.0896C6.2723 48.9655 11.5955 48.073 16.3926 48.073Z" fill="#5070C9"/>
<path d="M98.524 78.3942V96.0316H1.46484V78.3942C1.46484 78.3942 46.0165 63.7787 98.524 78.3942Z" fill="#EB5569"/>
<path d="M98.5237 81.0762V78.3943C69.4849 70.3112 42.8804 71.1689 24.8984 73.5501C43.9052 72.6779 70.7439 73.5103 98.5237 81.0762Z" fill="#E53950"/>
<path d="M0.105188 20.0733C0.405739 20.8244 1.25818 21.1888 2.00907 20.8894C6.0793 19.2623 17.5188 15.6953 31.6816 13.841C42.0595 12.4822 52.389 12.1906 62.383 12.9743C74.8552 13.9525 86.8384 16.618 97.9998 20.8968C98.1722 20.963 98.3495 20.9943 98.5237 20.9943C99.1127 20.9943 99.6681 20.6363 99.8915 20.0536C100.181 19.2984 99.8035 18.4512 99.0483 18.1616C91.1402 15.1301 82.8324 12.8911 74.2379 11.4674L79.3402 9.12885L88.695 5.62086C89.6869 5.24902 90.8129 5.43299 91.6347 6.10146L97.5996 10.9544C98.2269 11.4647 99.1494 11.3702 99.6601 10.7427C100.171 10.1153 100.076 9.19252 99.4484 8.68222L93.4835 3.82927C91.8577 2.50657 89.6289 2.14216 87.6666 2.87801L78.9789 6.13584L75.3166 3.6039C73.5891 2.4097 71.3347 2.22183 69.4335 3.11392L55.4459 9.67664C48.2793 9.47569 40.9835 9.80006 33.6552 10.6484C32.3132 9.36574 28.5937 6.10791 24.1141 4.70612C19.5104 3.26664 14.609 5.64546 12.6112 6.80705C8.03045 3.69002 1.49585 4.83267 1.20233 4.88559C0.407497 5.03049 -0.119005 5.79174 0.0247282 6.58676C0.168266 7.38198 0.930093 7.91063 1.72531 7.76807C1.78839 7.75655 8.06794 6.67464 11.5707 9.69421C12.0753 10.1293 12.8117 10.1678 13.3603 9.78932C13.4138 9.75241 18.7773 6.10576 23.2392 7.50189C25.797 8.30219 28.1305 9.86216 29.7549 11.1468C12.5383 13.5709 1.39859 17.978 0.920328 18.1694C0.169633 18.4704 -0.195168 19.3224 0.105188 20.0733ZM70.6779 5.76615C71.6387 5.31484 72.7779 5.41033 73.651 6.01378L75.8258 7.51732L68.8912 10.6957C66.6948 10.4246 64.1279 10.1528 61.6807 9.98734L70.6779 5.76615Z" fill="black"/>
<path d="M89.7238 36.151C92.6547 36.151 95.5989 36.0777 98.596 35.9315C99.4039 35.892 100.027 35.205 99.9874 34.3971C99.9478 33.5892 99.2611 32.9674 98.453 33.0056C92.4865 33.2968 86.7354 33.2937 80.8711 32.9955C80.0626 32.9527 79.375 33.5761 79.3339 34.3838C79.2929 35.1915 79.9145 35.8799 80.7223 35.9209C83.7381 36.0742 86.7241 36.151 89.7238 36.151Z" fill="black"/>
<path d="M1.46476 35.9333C1.60596 35.9333 1.74949 35.9128 1.89166 35.8695C2.09789 35.8068 20.5458 30.2588 35.9866 30.6103L41.9279 38.873V44.2781C41.9279 45.0872 42.5837 45.7428 43.3925 45.7428C44.2014 45.7428 44.8572 45.0872 44.8572 44.2781V40.4295L51.0579 42.4845C51.2108 42.5353 51.3662 42.5593 51.5188 42.5593C52.1329 42.5593 52.7051 42.1699 52.9088 41.555C53.1633 40.7871 52.7471 39.9583 51.9793 39.7038L44.3042 37.1603L39.7486 30.8248C43.6462 31.2526 48.0412 31.974 52.2372 32.6124C59.014 33.6639 66.0216 34.7509 73.8105 35.4383C74.6155 35.5117 75.3271 34.9137 75.3982 34.108C75.4693 33.3022 74.8737 32.5913 74.0679 32.5203C66.3752 31.8412 59.4163 30.7617 52.6864 29.7175C47.203 28.9371 42.0956 27.8835 36.4574 27.6882C30.3603 27.5025 23.1586 28.1901 14.9624 29.746C7.05064 31.2477 1.28041 32.9933 1.03864 33.0669C0.264899 33.3022 -0.171574 34.1207 0.0637503 34.8944C0.256111 35.5266 0.836708 35.9333 1.46476 35.9333Z" fill="black"/>
<path d="M54.9355 62.5164C59.8062 62.4322 64.0352 60.9834 68.5123 59.4498C84.1363 54.0978 85.7695 53.5381 98.2637 55.7967C99.0591 55.941 99.8218 55.4119 99.9655 54.6159C100.109 53.8199 99.5808 53.0579 98.7848 52.914C85.5408 50.5203 83.4939 51.2212 67.5628 56.6784C63.3322 58.1292 58.9155 59.632 54.3418 59.5911C48.0865 59.5911 42.3385 57.7398 36.7798 55.9494C31.2256 54.1584 25.9795 52.467 20.2442 52.467C13.9008 52.467 6.31007 54.2716 1.05931 55.7857C0.282054 56.0097 -0.166332 56.8215 0.0576654 57.5988C0.281858 58.3759 1.09348 58.8242 1.87074 58.6002C6.94007 57.1387 14.2427 55.3963 20.2442 55.3963C25.5188 55.3963 30.552 57.0192 35.8815 58.7375C41.6556 60.5973 47.6264 62.5205 54.3418 62.5205C54.5418 62.5205 54.7416 62.5203 54.9355 62.5164Z" fill="black"/>
<path d="M57.3685 73.5062C71.3624 74.0522 85.0773 76.1715 98.1318 79.8054C98.2632 79.8422 98.3953 79.8593 98.5253 79.8593C99.1665 79.8593 99.7553 79.435 99.9355 78.787C100.152 78.0078 99.6965 77.2003 98.9173 76.9833C85.644 73.2888 71.7034 71.1342 57.4828 70.5792C56.6766 70.5491 55.9935 71.1771 55.9621 71.9856C55.9306 72.7937 56.5602 73.4747 57.3685 73.5062Z" fill="black"/>
<path d="M1.46511 79.8592C1.61607 79.8592 1.76996 79.8358 1.92111 79.7862C1.97072 79.77 6.97952 78.1434 15.4371 76.5467C23.1562 75.0897 35.3928 73.3631 50.0324 73.3631C50.1851 73.3631 50.339 73.3633 50.4921 73.3637H50.4958C51.3029 73.3637 51.9583 72.7102 51.9605 71.9027C51.9624 71.0936 51.3084 70.4363 50.4995 70.4343C35.396 70.392 22.7654 72.1791 14.8282 73.6806C6.20265 75.3123 1.21651 76.9344 1.00833 77.0027C0.239863 77.2548 -0.178643 78.0819 0.0732811 78.8505C0.275797 79.4677 0.849168 79.8592 1.46511 79.8592Z" fill="black"/>
<path d="M98.5238 94.5672H92.422V87.2132C92.422 86.4041 91.7662 85.7485 90.9573 85.7485C90.1484 85.7485 89.4926 86.4041 89.4926 87.2132V94.5672H84.9742V87.2132C84.9742 86.4041 84.3184 85.7485 83.5095 85.7485C82.7006 85.7485 82.0448 86.4041 82.0448 87.2132V94.5672H77.5264V87.2132C77.5264 86.4041 76.8706 85.7485 76.0617 85.7485C75.2529 85.7485 74.5971 86.4041 74.5971 87.2132V94.5672H70.0784V87.2132C70.0784 86.4041 69.4227 85.7485 68.6138 85.7485C67.8049 85.7485 67.1491 86.4041 67.1491 87.2132V94.5672H62.6307V87.2132C62.6307 86.4041 61.9749 85.7485 61.166 85.7485C60.3571 85.7485 59.7013 86.4041 59.7013 87.2132V94.5672H55.1829V87.2132C55.1829 86.4041 54.5271 85.7485 53.7182 85.7485C52.9093 85.7485 52.2536 86.4041 52.2536 87.2132V94.5672H47.7351V87.2132C47.7351 86.4041 47.0793 85.7485 46.2705 85.7485C45.4616 85.7485 44.8058 86.4041 44.8058 87.2132V94.5672H40.2873V87.2132C40.2873 86.4041 39.6316 85.7485 38.8227 85.7485C38.0138 85.7485 37.358 86.4041 37.358 87.2132V94.5672H32.8396V87.2132C32.8396 86.4041 32.1838 85.7485 31.3749 85.7485C30.566 85.7485 29.9102 86.4041 29.9102 87.2132V94.5672H25.3916V87.2132C25.3916 86.4041 24.7358 85.7485 23.9269 85.7485C23.118 85.7485 22.4623 86.4041 22.4623 87.2132V94.5672H17.9436V87.2132C17.9436 86.4041 17.2879 85.7485 16.479 85.7485C15.6701 85.7485 15.0143 86.4041 15.0143 87.2132V94.5672H10.4959V87.2132C10.4959 86.4041 9.84008 85.7485 9.03119 85.7485C8.2223 85.7485 7.56651 86.4041 7.56651 87.2132V94.5672H1.46467C0.655784 94.5672 0 95.2228 0 96.0319C0 96.841 0.655784 97.4966 1.46467 97.4966H98.5238C99.3327 97.4966 99.9885 96.841 99.9885 96.0319C99.9885 95.2228 99.3327 94.5672 98.5238 94.5672Z" fill="black"/>
<path d="M78.7766 63.5419C79.5917 63.5419 80.2524 62.8812 80.2524 62.0661C80.2524 61.2511 79.5917 60.5903 78.7766 60.5903C77.9615 60.5903 77.3008 61.2511 77.3008 62.0661C77.3008 62.8812 77.9615 63.5419 78.7766 63.5419Z" fill="black"/>
<path d="M71.7492 67.4246C72.5643 67.4246 73.225 66.7639 73.225 65.9488C73.225 65.1338 72.5643 64.473 71.7492 64.473C70.9342 64.473 70.2734 65.1338 70.2734 65.9488C70.2734 66.7639 70.9342 67.4246 71.7492 67.4246Z" fill="black"/>
<path d="M10.5071 70.4228C11.3221 70.4228 11.9829 69.7621 11.9829 68.947C11.9829 68.1319 11.3221 67.4712 10.5071 67.4712C9.69199 67.4712 9.03125 68.1319 9.03125 68.947C9.03125 69.7621 9.69199 70.4228 10.5071 70.4228Z" fill="black"/>
<path d="M19.2278 68.3226C20.0428 68.3226 20.7036 67.6618 20.7036 66.8468C20.7036 66.0317 20.0428 65.371 19.2278 65.371C18.4127 65.371 17.752 66.0317 17.752 66.8468C17.752 67.6618 18.4127 68.3226 19.2278 68.3226Z" fill="black"/>
<path d="M13.2649 63.6169C14.0799 63.6169 14.7407 62.9562 14.7407 62.1411C14.7407 61.326 14.0799 60.6653 13.2649 60.6653C12.4498 60.6653 11.7891 61.326 11.7891 62.1411C11.7891 62.9562 12.4498 63.6169 13.2649 63.6169Z" fill="black"/>
<path d="M37.7799 63.895C37.2036 64.4713 37.2036 65.4058 37.7799 65.9821C38.3562 66.5584 39.2906 66.5584 39.8669 65.9821C40.4432 65.4058 40.4432 64.4713 39.8669 63.895C39.2906 63.3187 38.3562 63.3187 37.7799 63.895Z" fill="black"/>
<path d="M98.5246 64.0075C99.3397 64.0075 100 63.3468 100 62.5317C100 61.7167 99.3397 61.0559 98.5246 61.0559C97.7096 61.0559 97.0488 61.7167 97.0488 62.5317C97.0488 63.3468 97.7096 64.0075 98.5246 64.0075Z" fill="black"/>
<path d="M11.9831 41.3259C11.1742 41.3259 10.5185 41.9815 10.5185 42.7906V46.5555C7.58637 47.0578 4.43674 47.7624 1.08224 48.6707C0.30147 48.882 -0.160196 49.6864 0.051303 50.4672C0.262802 51.248 1.06681 51.7098 1.84778 51.4981C5.54774 50.4963 8.97898 49.7505 12.1226 49.2601C12.1782 49.2548 12.2329 49.2466 12.2866 49.2353C15.1943 48.7887 17.8551 48.5612 20.2441 48.5612C26.5826 48.5612 32.3683 50.4244 37.976 52.2303C43.4828 54.0059 48.6916 55.6857 54.3251 55.6854C58.0915 55.7275 62.0787 54.4568 66.2997 52.9825C73.7287 50.4383 82.9744 47.2715 98.3532 49.0765C99.1565 49.1689 99.8843 48.5959 99.9787 47.7925C100.073 46.9891 99.498 46.2614 98.6946 46.1671C90.6075 45.218 84.1602 45.5836 78.7649 46.5173V42.5693C78.7649 41.7602 78.1091 41.1046 77.3002 41.1046C76.4913 41.1046 75.8355 41.7602 75.8355 42.5693V47.0979C71.8407 47.9898 68.4422 49.1525 65.3481 50.2122C61.4563 51.5448 58.0954 52.6959 54.7669 52.7523C49.4325 52.8453 44.3028 51.1925 38.8613 49.438C33.0506 47.5668 27.0421 45.6318 20.2437 45.6318C18.1602 45.6318 15.8891 45.7945 13.4474 46.1126V42.7906C13.4478 41.9815 12.792 41.3259 11.9831 41.3259Z" fill="black"/>
</g>
<defs>
<clipPath id="clip0_419_2953">
<rect width="100" height="100" fill="white"/>
</clipPath>
</defs>
</svg>
