<svg width="100" height="100" viewBox="0 0 100 100" fill="none" xmlns="http://www.w3.org/2000/svg">
<path fill-rule="evenodd" clip-rule="evenodd" d="M46.1019 1.96887C45.5184 4.0451 45.1564 5.33376 44.5729 7.40999C43.8408 10.0154 43.4526 10.8721 41.4417 12.6742C40.24 13.751 39.0617 14.8551 37.8599 15.9319C35.1701 18.6215 38.8414 22.1834 42.3082 22.4675C46.8325 22.8384 49.2516 23.0368 53.7761 23.4074C56.3521 23.6183 57.3289 23.4182 58.914 21.38C60.0866 19.8723 62.2865 19.3469 64.1524 20.9951C66.7797 23.316 67.2939 23.7701 69.9212 26.091C72.1611 28.0694 73.3642 28.5537 75.3184 27.6042C76.6582 26.9533 77.9978 26.3023 79.3376 25.6512C77.6541 20.7606 74.8606 16.1674 70.9571 12.2639C64.0936 5.40074 55.0978 1.96887 46.1019 1.96887Z" fill="#CBE558"/>
<path fill-rule="evenodd" clip-rule="evenodd" d="M42.3079 22.4678C38.8408 22.1837 35.1696 18.6217 37.8596 15.9321C39.0613 14.8553 40.2396 13.7512 41.4414 12.6744C43.4522 10.8724 43.8404 10.0157 44.5725 7.41024C45.156 5.33401 45.5181 4.04535 46.1016 1.96912C37.1058 1.96912 28.1099 5.40079 21.2464 12.2645C14.3828 19.1281 10.951 28.1239 10.9512 37.1197C14.7455 37.4515 18.5396 37.7833 22.3337 38.1151C24.9157 38.3408 26.0169 39.5276 26.6231 41.2021C27.1804 42.7421 27.7377 44.2823 28.2951 45.8223C28.9135 47.5314 30.2686 48.4789 31.9564 48.1676C32.9168 47.9905 33.8774 47.8131 34.8378 47.636C37.1774 47.2044 38.0306 46.5327 38.9053 44.2963C39.3257 43.2213 39.7464 42.1461 40.1668 41.0711C40.8128 39.4194 41.7808 38.5572 43.9644 38.424C46.0475 38.2969 47.5973 38.2022 49.6805 38.0749C52.1083 37.9266 53.453 39.9246 52.9609 42.1199C52.3719 44.7482 52.0225 46.3069 51.4336 48.9352C50.9297 51.1845 50.4657 52.0568 48.3989 52.8256C47.2208 53.264 46.0426 53.7024 44.8645 54.1406C43.4102 54.6818 42.9738 56.3147 43.5668 57.5182C43.866 58.1256 44.1652 58.7329 44.4646 59.3402C45.4746 61.3901 46.5504 61.7332 48.9484 61.5234C52.333 61.2274 55.7176 60.9312 59.1022 60.6351C61.0963 60.4607 62.4613 60.6912 64.0694 62.2368C65.1118 63.2386 66.1542 64.2404 67.1969 65.2422C68.5072 64.2566 69.7644 63.1675 70.957 61.9747C80.7806 52.1511 83.5741 37.9594 79.3375 25.6517C77.9979 26.3027 76.658 26.9538 75.3182 27.6047C73.364 28.5543 72.1609 28.0698 69.921 26.0914C67.2937 23.7705 66.7795 23.3165 64.1522 20.9956C62.2863 19.3474 60.0867 19.8725 58.9138 21.3805C57.3287 23.4184 56.3519 23.6188 53.776 23.4079C49.2515 23.037 46.8321 22.8386 42.3079 22.4678Z" fill="#66E0F7"/>
<path fill-rule="evenodd" clip-rule="evenodd" d="M38.9055 44.2961C38.0308 46.5323 37.1776 47.204 34.838 47.6358C33.8776 47.8129 32.917 47.99 31.9566 48.1673C30.2688 48.4786 28.9135 47.5311 28.2953 45.822C27.7379 44.282 27.1806 42.7418 26.6233 41.2019C26.0173 39.5273 24.9161 38.3406 22.3339 38.1149C18.5398 37.7831 14.7455 37.4513 10.9512 37.1195C10.9512 46.1153 14.3828 55.1112 21.2466 61.9747C33.7811 74.5092 53.4266 75.5983 67.1968 65.2421C66.1544 64.2404 65.112 63.2386 64.0694 62.2368C62.4611 60.6911 61.0963 60.4607 59.1022 60.6351C55.7176 60.9311 52.333 61.2274 48.9484 61.5234C46.5504 61.7331 45.4745 61.3902 44.4646 59.3402C44.1654 58.7328 43.866 58.1255 43.5668 57.5182C42.9738 56.3147 43.4102 54.6815 44.8645 54.1406C46.0426 53.7024 47.2208 53.264 48.3989 52.8256C50.4659 52.0566 50.9297 51.1844 51.4336 48.9352C52.0225 46.3069 52.3719 44.7482 52.9608 42.1199C53.4528 39.9245 52.1082 37.9266 49.6805 38.0748C47.5973 38.202 46.0477 38.2967 43.9644 38.424C41.7808 38.5572 40.8128 39.4193 40.1668 41.071C39.7464 42.1459 39.3259 43.2211 38.9055 44.2961Z" fill="#CBE558"/>
<path fill-rule="evenodd" clip-rule="evenodd" d="M67.1977 65.2422C53.4274 75.5983 33.7817 74.5092 21.2474 61.9747C19.7221 60.4494 17.2492 60.4494 15.7241 61.9747C14.1987 63.5001 14.1987 65.9729 15.7241 67.4981C24.1126 75.8866 35.1075 80.0808 46.1024 80.0808C48.718 80.0808 51.3334 79.8436 53.9139 79.3688C62.1811 77.848 70.0882 73.8912 76.4813 67.4981C93.2585 50.7211 93.2585 23.5178 76.4813 6.74081C74.956 5.21547 72.4832 5.21547 70.958 6.74081C69.4329 8.26615 69.4327 10.739 70.958 12.2641C74.8615 16.1676 77.655 20.7608 79.3385 25.6515C83.5751 37.9592 80.7816 52.1509 70.958 61.9745C69.765 63.1675 68.508 64.2566 67.1977 65.2422Z" fill="#DDB9A3"/>
<path fill-rule="evenodd" clip-rule="evenodd" d="M53.913 79.369C51.3326 79.8436 48.717 80.081 46.1016 80.081V89.2598H53.913V79.369Z" fill="#D1A184"/>
<path fill-rule="evenodd" clip-rule="evenodd" d="M53.9136 89.2598H46.1021H30.4798C28.3317 89.2598 26.5742 91.0173 26.5742 93.1654V98.0474H73.4417V93.1654C73.4417 91.0173 71.6842 89.2598 69.5361 89.2598H53.9136Z" fill="#C68A65"/>
<path d="M77.8618 68.8789C86.3446 60.3958 91.0165 49.1168 91.0165 37.1193C91.0165 25.1218 86.3446 13.8428 77.8618 5.35974C75.578 3.07593 71.8612 3.07573 69.5766 5.35974C68.9884 5.94793 68.5527 6.63161 68.2674 7.36098C56.4027 -1.49424 40.2063 -2.53411 27.1871 5.19043C26.2595 5.74073 25.9537 6.93878 26.504 7.86637C27.0541 8.79415 28.2526 9.09996 29.1799 8.54946C33.6603 5.8911 38.5614 4.3931 43.5011 4.00703L42.6932 6.88176C42.0302 9.24154 41.8025 9.72896 40.1389 11.2197C39.5295 11.7659 38.9198 12.3244 38.3302 12.8646C37.7497 13.3967 37.1492 13.9468 36.5569 14.4774C36.5303 14.5012 36.5046 14.5257 36.4794 14.5508C35.055 15.9752 34.6183 17.8288 35.2819 19.6364C36.1911 22.1137 39.1434 24.1675 42.1492 24.4139L53.617 25.3538C56.6595 25.6028 58.3694 25.2614 60.456 22.5791C60.743 22.21 61.1412 21.9766 61.5484 21.9385C61.9833 21.8979 62.4233 22.0731 62.8601 22.459L68.6289 27.555C70.1183 28.8706 71.6354 30.0249 73.5551 30.0247C74.3495 30.0247 75.2134 29.8269 76.1722 29.361L78.1303 28.4096C81.131 39.5174 78.2801 51.8906 69.5766 60.5939C68.8492 61.3213 68.095 62.0054 67.3193 62.651L65.4232 60.8288C63.2809 58.7697 61.2801 58.484 58.9326 58.6895L48.7786 59.5778C46.8425 59.7475 46.7349 59.5284 46.2167 58.4768L45.3192 56.6552C45.2522 56.5195 45.2453 56.3404 45.3016 56.1989C45.3465 56.086 45.4195 56.0178 45.5457 55.9708L49.0803 54.6557C51.9146 53.6012 52.7385 52.0456 53.3396 49.3621L54.8668 42.5467C55.2582 40.8013 54.8719 39.0836 53.8074 37.8342C52.7799 36.6278 51.2713 36.0199 49.5618 36.1253L43.8458 36.4743C41.0657 36.644 39.3187 37.8784 38.3484 40.3594L37.0871 43.5847C36.4694 45.1637 36.1777 45.4027 34.484 45.7152L31.6026 46.2467C31.3526 46.293 30.5932 46.4327 30.1317 45.1573L28.4596 40.5371C27.4921 37.8637 25.544 36.435 22.5041 36.1693L12.9368 35.3327C13.2155 30.1189 14.7274 24.9242 17.5314 20.198C18.0817 19.2704 17.7759 18.0724 16.8483 17.522C15.9207 16.9717 14.7227 17.2774 14.1724 18.2051C6.44823 31.2242 7.48811 47.42 16.3435 59.2847C15.6141 59.57 14.9305 60.0055 14.3423 60.5937C12.0581 62.8779 12.0581 66.5945 14.3423 68.8789C22.3633 76.8997 32.8844 81.5106 44.1486 81.9895V87.3066H30.4791C27.2488 87.3066 24.6207 89.9347 24.6207 93.165V98.047C24.6207 99.1256 25.495 99.9999 26.5735 99.9999H73.4408C74.5192 99.9999 75.3936 99.1256 75.3936 98.047V93.165C75.3936 89.9347 72.7657 87.3066 69.5354 87.3066H55.8657V80.974C64.1357 79.1503 71.7296 75.0111 77.8618 68.8789ZM74.4651 25.8481C73.6127 26.2624 73.2596 26.4343 71.2144 24.6277L65.4454 19.5319C64.2044 18.4354 62.6912 17.9093 61.185 18.0501C59.7085 18.188 58.319 18.9648 57.3729 20.1814C56.3057 21.5532 56.0817 21.637 53.9357 21.4615L42.4681 20.5216C40.8742 20.3909 39.2951 19.236 38.9483 18.2911C38.8538 18.0335 38.8032 17.7667 39.209 17.3455C39.8021 16.8134 40.3949 16.2703 40.9687 15.7446C41.5504 15.2117 42.1519 14.6604 42.7452 14.1288C45.1495 11.9743 45.6714 10.72 46.453 7.93862L47.5766 3.94005C55.6476 4.30307 63.5395 7.6086 69.5764 13.6455C72.8269 16.896 75.2605 20.6587 76.8786 24.6758L74.4651 25.8481ZM24.7873 41.866L26.4595 46.486C27.4238 49.1516 29.7215 50.5656 32.3115 50.0873L35.1928 49.5558C38.217 48.9979 39.6128 47.85 40.7246 45.0071L41.9859 41.7818C42.3507 40.8492 42.6426 40.4606 44.0838 40.3727L49.7999 40.0237C50.267 39.995 50.616 40.1106 50.8345 40.3672C51.0913 40.6687 51.1741 41.1644 51.0557 41.6928L49.5282 48.5081C49.1014 50.4135 48.9301 50.5445 47.7182 50.9952L44.1836 52.3102C43.0187 52.7438 42.1267 53.6122 41.6719 54.7559C41.2057 55.9286 41.2579 57.2499 41.8152 58.3813L42.7129 60.2033C44.2178 63.2575 46.2795 63.7174 49.1185 63.4686L59.2724 62.5803C60.8534 62.4424 61.6109 62.582 62.7164 63.6447L64.1261 64.9996C51.2698 73.3149 33.8809 71.8475 22.6273 60.5937C16.7554 54.7218 13.4674 47.0947 12.9581 39.2551L22.1635 40.06C23.8738 40.2094 24.4051 40.8099 24.7873 41.866ZM17.1043 63.3555C17.8653 62.5943 19.1038 62.5941 19.8652 63.3547C19.8654 63.3549 19.8656 63.3553 19.866 63.3555C27.0994 70.5887 36.6006 74.2056 46.1022 74.2056C55.6034 74.2056 65.105 70.5887 72.3385 63.3555C86.8049 48.8889 86.8049 25.3499 72.3385 10.8833C71.9696 10.5144 71.7665 10.024 71.7665 9.50244C71.7665 8.98084 71.9696 8.49049 72.3385 8.1216C73.0999 7.3602 74.3389 7.3604 75.1001 8.1216C91.0896 24.111 91.0896 50.1278 75.1001 66.1172C59.1109 82.1066 33.0942 82.1068 17.1045 66.1172C16.3429 65.3558 16.3429 64.1169 17.1043 63.3555ZM71.4884 93.1652V96.0944H28.5267V93.1652C28.5267 92.0884 29.4028 91.2124 30.4795 91.2124H69.5358C70.6126 91.2124 71.4884 92.0884 71.4884 93.1652ZM51.9605 87.3068H48.0547V81.9897C49.3677 81.9338 50.6704 81.8219 51.9605 81.6549V87.3068Z" fill="black"/>
<path d="M21.2466 14.2169C22.3251 14.2169 23.1994 13.3426 23.1994 12.2641C23.1994 11.1856 22.3251 10.3113 21.2466 10.3113H21.245C20.1665 10.3113 19.293 11.1856 19.293 12.2641C19.293 13.3426 20.168 14.2169 21.2466 14.2169Z" fill="black"/>
</svg>
