<svg width="100" height="100" viewBox="0 0 100 100" fill="none" xmlns="http://www.w3.org/2000/svg">
<path d="M67.4992 93.3334H40.8326C39.9127 93.3334 39.166 92.5885 39.166 91.6668C39.166 90.7451 39.9127 90.0002 40.8326 90.0002C47.266 90.0002 52.4992 84.7652 52.4992 78.3336C52.4992 77.4119 53.2459 76.667 54.1658 76.667C55.0857 76.667 55.8324 77.4119 55.8324 78.3336C55.8324 84.7652 61.0658 90.0002 67.499 90.0002C68.4189 90.0002 69.1656 90.7451 69.1656 91.6668C69.1658 92.5883 68.4191 93.3334 67.4992 93.3334Z" fill="#687492"/>
<path d="M54.1654 68.3334C72.575 68.3334 87.4988 53.4095 87.4988 35C87.4988 16.5905 72.575 1.66663 54.1654 1.66663C35.7559 1.66663 20.832 16.5905 20.832 35C20.832 53.4095 35.7559 68.3334 54.1654 68.3334Z" fill="#4482C3"/>
<path d="M55.8834 34.0334C52.5234 35.5684 48.2783 34.3635 46.3918 30.9268C44.615 27.6901 41.6535 26.9551 41.6535 26.9551C29.0918 23.0551 31.9803 21.2717 35.1352 20.5301C36.5119 20.2051 37.9385 20.1 39.3502 20.1735C46.5068 20.5385 48.5951 14.3135 48.5951 14.3135C49.6701 11.1084 45.7551 3.94357 45.1951 2.94513C33.79 6.16173 24.8551 15.2135 21.8867 26.6551C24.8201 28.4283 27.7684 28.1033 27.7684 28.1033C35.24 28.1033 35.9268 36.3416 35.9133 39.5184C35.9066 41.0084 36.0316 42.4985 36.3633 43.9518C38.4717 53.1852 45.1232 52.2418 45.1232 52.2418C47.3883 52.2418 49.3482 50.9518 50.2982 49.0686C51.1648 47.352 52.4766 45.927 54.0883 44.8785C58.5482 41.9803 59.0184 38.1918 58.675 35.6152C58.5016 34.3051 57.0916 33.4801 55.8834 34.0334Z" fill="#24AE5F"/>
<path d="M87.5001 34.9367C87.5001 31.9201 87.0968 29 86.3552 26.2201C78.9751 27.2285 75.2235 26.0352 73.6319 25.2102C72.4552 24.6018 71.0587 24.4352 69.8636 25.0051C68.1187 25.8385 66.3085 28.0518 66.9386 33.7818C66.9386 33.7818 67.6437 38.0518 72.3786 40.4402C74.7304 41.627 76.0036 44.2068 75.4136 46.7936C74.6235 50.2568 74.5952 54.8135 78.3552 57.9803C84.0167 51.985 87.5001 43.8733 87.5001 34.9367Z" fill="#24AE5F"/>
<path d="M67.5724 4.4801L66.8107 5.11506C64.1107 7.22502 61.0074 10.2867 62.6041 13.3668C62.6041 13.3668 65.7308 16.9551 69.8758 14.3735C70.6724 13.8768 71.3158 13.1768 71.8791 12.4268C72.364 11.7819 73.2757 10.7819 74.8558 9.71174L75.4676 9.36174C73.0941 7.38831 70.4375 5.74163 67.5724 4.4801Z" fill="#24AE5F"/>
<path d="M54.1666 68.3334C56.8184 68.3334 59.3934 68.015 61.8648 67.4301C60.9898 65.6033 60.4881 63.6533 60.2166 61.9301C59.75 58.9801 57.1533 56.84 54.1666 56.84C49.0832 56.84 44.9717 60.9533 44.9717 66.0349L44.8633 67.0082C47.8166 67.865 50.9367 68.3334 54.1666 68.3334Z" fill="#24AE5F"/>
<path d="M54.166 80C29.3527 80 9.16602 59.8133 9.16602 35C9.16602 23.6232 12.7643 13.4482 19.5727 5.57676C20.1744 4.88008 21.2277 4.80352 21.9227 5.40508C22.6176 6.00684 22.6959 7.06016 22.0926 7.75684C15.816 15.015 12.4994 24.435 12.4994 35C12.4994 57.975 31.191 76.6666 54.166 76.6666C69.7961 76.6666 77.3943 70.0949 84.7428 63.7398C85.4377 63.1348 86.491 63.2131 87.0928 63.9098C87.6945 64.6064 87.6178 65.6598 86.9229 66.2598C79.1127 73.0166 71.0377 80 54.166 80Z" fill="#8697CB"/>
<path d="M24.1658 11.6666C23.739 11.6666 23.3125 11.5033 22.9875 11.1783L16.3208 4.51172C15.6691 3.85996 15.6691 2.80664 16.3208 2.15508C16.9708 1.50332 18.0275 1.50332 18.6775 2.15508L25.3441 8.82168C25.9958 9.47344 25.9958 10.5268 25.3441 11.1783C25.0191 11.5033 24.5925 11.6666 24.1658 11.6666Z" fill="#8697CB"/>
<path d="M89.1658 70C88.739 70 88.3125 69.8367 87.9875 69.5117L81.3208 62.8451C80.6691 62.1933 80.6691 61.14 81.3208 60.4885C81.9708 59.8367 83.0275 59.8367 83.6775 60.4885L90.3441 67.1551C90.9959 67.8068 90.9959 68.8601 90.3441 69.5117C90.0191 69.8367 89.5925 70 89.1658 70Z" fill="#8697CB"/>
<path d="M69.1666 100H39.1666C38.2467 100 37.5 99.2551 37.5 98.3334V91.6668C37.5 90.7451 38.2467 90.0002 39.1666 90.0002H69.1666C70.0865 90.0002 70.8332 90.7451 70.8332 91.6668V98.3334C70.8334 99.2551 70.0867 100 69.1666 100Z" fill="#8697CB"/>
<path d="M54.166 70C34.866 70 19.166 54.2982 19.166 35C19.166 15.7 34.866 0 54.166 0C73.4643 0 89.166 15.7 89.166 35C89.166 54.2982 73.4645 70 54.166 70ZM54.166 3.3334C36.7043 3.3334 22.4994 17.5385 22.4994 35C22.4994 52.4615 36.7045 66.6666 54.166 66.6666C71.6275 66.6666 85.8326 52.4615 85.8326 35C85.8326 17.5385 71.6262 3.3334 54.166 3.3334Z" fill="black"/>
<path d="M44.7158 53.9232C42.7391 53.9232 36.7574 53.1699 34.7375 44.3232C34.3992 42.8365 34.2393 41.2633 34.2459 39.5115C34.2525 37.7883 34.0293 33.5365 31.7842 31.2814C30.7842 30.2764 29.4926 29.7832 27.8359 29.7697C27.1959 29.8164 24.101 29.9414 21.0242 28.0814L19.9609 27.4381L20.2742 26.2363C23.3809 14.26 32.7576 4.71992 44.7441 1.34004L46.0074 0.983398L46.649 2.12832C48.1141 4.7416 51.3924 11.2133 50.1758 14.8416C49.3141 17.41 45.924 22.2016 39.2658 21.8365C37.9492 21.7699 36.6908 21.8732 35.5176 22.1498C35.1727 22.2314 34.8959 22.3115 34.676 22.3848C35.5676 22.9514 37.5959 23.948 42.1477 25.3615C42.2043 25.3732 45.7494 26.2898 47.8527 30.1232C49.2678 32.6965 52.4861 33.75 55.1928 32.5148C56.2344 32.0348 57.4211 32.0814 58.4445 32.6482C59.4695 33.2148 60.1746 34.2416 60.3279 35.3932C60.668 37.9414 60.4279 42.7449 54.9979 46.2732C53.6145 47.175 52.5029 48.4 51.7879 49.8166C50.5246 52.3217 47.9979 53.8816 45.1861 53.9049C45.0725 53.9166 44.9143 53.9232 44.7158 53.9232ZM27.6758 26.4367H27.7674C30.3523 26.4367 32.499 27.275 34.1457 28.9301C37.159 31.9568 37.5891 36.8684 37.5791 39.525C37.5725 41.0199 37.7059 42.3467 37.9875 43.5816C39.6791 50.9883 44.3758 50.6516 44.9074 50.5883L45.1225 50.575C46.6941 50.575 48.1074 49.71 48.8092 48.3184C49.7893 46.375 51.3008 44.7033 53.1791 43.4816C56.1475 41.5516 57.4408 38.9799 57.0225 35.8367C57.0008 35.6783 56.8824 35.5967 56.8324 35.5684C56.7408 35.5201 56.6557 35.5133 56.5791 35.5484H56.5758C52.299 37.5035 47.1791 35.8252 44.9309 31.7285C43.5525 29.2168 41.3309 28.5936 41.2375 28.5686C32.4025 25.827 30.6857 24.0686 30.7541 22.1135C30.8342 19.8301 33.7842 19.1352 34.7541 18.9068C36.2342 18.5586 37.8092 18.4219 39.4375 18.5086C45.2008 18.7719 46.9475 13.9785 47.0191 13.7736C47.5324 12.242 46.1525 8.37188 44.3758 4.93691C34.5607 8.15352 26.8625 15.9803 23.8625 25.7902C25.8342 26.6053 27.5676 26.4469 27.5857 26.4453L27.6758 26.4367Z" fill="black"/>
<path d="M78.4851 60.2684L77.28 59.2551C73.7583 56.2885 72.5499 51.8518 73.7884 46.4235C74.1968 44.6252 73.3083 42.7768 71.6267 41.9285C66.1983 39.1903 65.3284 34.2619 65.2933 34.0535C64.5366 27.1969 66.9716 24.5385 69.145 23.5002C70.7333 22.7436 72.6501 22.827 74.395 23.7285C75.5183 24.3119 78.9067 25.5553 86.1284 24.5686L87.5868 24.3686L87.9651 25.7903C88.7634 28.7803 89.1669 31.8569 89.1669 34.9352C89.1669 43.9785 85.7569 52.5686 79.5651 59.1235L78.4851 60.2684ZM71.4618 26.3199C71.1452 26.3199 70.8468 26.3832 70.5817 26.51C68.4101 27.5467 68.3034 30.9383 68.5968 33.6C68.6085 33.6383 69.2618 37.0018 73.1302 38.9533C76.1835 40.4934 77.7901 43.8699 77.0401 47.1651C76.2452 50.6551 76.6685 53.4651 78.3019 55.5451C83.1735 49.7969 85.8368 42.5451 85.8368 34.9385C85.8368 32.6285 85.5868 30.3186 85.0901 28.0535C78.1884 28.7752 74.4985 27.5352 72.8685 26.6918C72.3884 26.4449 71.9067 26.3199 71.4618 26.3199Z" fill="black"/>
<path d="M66.8403 16.975C64.3204 16.975 62.2921 15.55 61.3437 14.4633L61.122 14.1332C58.6554 9.37323 64.0187 5.17811 65.7819 3.80155L67.297 2.53827L68.2419 2.95487C71.2401 4.27479 74.0286 5.99979 76.5319 8.07987L78.3769 9.61659L75.6802 11.1582C74.4019 12.0299 73.6218 12.8799 73.2103 13.4266C72.4085 14.4932 71.6286 15.2432 70.7536 15.7883C69.3804 16.6449 68.0538 16.975 66.8403 16.975ZM63.9837 12.4033C64.522 12.9266 66.472 14.5301 68.9921 12.9584C69.5054 12.6385 69.9987 12.1517 70.5439 11.425C70.9571 10.8767 71.6239 10.1166 72.6421 9.28163C71.1288 8.19491 69.5171 7.24003 67.8271 6.43163C63.3638 9.93495 63.6687 11.6816 63.9837 12.4033Z" fill="black"/>
<path d="M54.1656 70C50.8674 70 47.5822 69.5334 44.399 68.6099L43.0508 68.2199L43.3041 65.9398C43.3559 59.9949 48.2074 55.1732 54.1658 55.1732C58.0291 55.1732 61.2658 57.9066 61.8607 61.6699C62.1574 63.5482 62.6641 65.2449 63.3658 66.7082L64.2607 68.5748L62.2475 69.0515C59.5857 69.6816 56.8674 70 54.1656 70ZM46.6424 65.7584C50.8607 66.79 55.2508 66.9451 59.559 66.2017C59.124 64.9551 58.7924 63.6135 58.5674 62.1918C58.2357 60.09 56.3424 58.5068 54.1641 58.5068C50.1074 58.5066 46.7873 61.7349 46.6424 65.7584Z" fill="black"/>
<path d="M54.166 80C29.3527 80 9.16602 59.8133 9.16602 35C9.16602 23.6233 12.7643 13.4483 19.5727 5.57677C20.1744 4.88185 21.226 4.80509 21.9244 5.40685C22.6193 6.0086 22.6961 7.06192 22.0943 7.7586C15.8178 15.015 12.4994 24.435 12.4994 35C12.4994 57.975 31.191 76.6666 54.166 76.6666C69.7977 76.6666 77.3961 70.0949 84.7428 63.7398C85.4395 63.1381 86.491 63.2131 87.0928 63.9098C87.6945 64.6064 87.6195 65.658 86.9229 66.2598C79.1144 73.0166 71.0395 80 54.166 80Z" fill="black"/>
<path d="M24.1658 11.6666C23.739 11.6666 23.3125 11.5033 22.9875 11.1783L16.3208 4.51171C15.6691 3.85995 15.6691 2.80663 16.3208 2.15507C16.9726 1.5035 18.0259 1.50331 18.6775 2.15507L25.3441 8.82167C25.9958 9.47343 25.9958 10.5267 25.3441 11.1783C25.0191 11.5033 24.5925 11.6666 24.1658 11.6666Z" fill="black"/>
<path d="M89.1658 70C88.739 70 88.3125 69.8367 87.9875 69.5117L81.3208 62.8451C80.6691 62.1933 80.6691 61.14 81.3208 60.4885C81.9726 59.8367 83.0259 59.8367 83.6775 60.4885L90.3441 67.1551C90.9959 67.8068 90.9959 68.8601 90.3441 69.5117C90.0191 69.8367 89.5925 70 89.1658 70Z" fill="black"/>
<path d="M69.1666 100H39.1666C38.2467 100 37.5 99.2551 37.5 98.3334V91.6668C37.5 90.7451 38.2467 90.0002 39.1666 90.0002H69.1666C70.0883 90.0002 70.8332 90.7451 70.8332 91.6668V98.3334C70.8334 99.2551 70.0883 100 69.1666 100ZM40.8334 96.6666H67.5V93.3332H40.8334V96.6666Z" fill="black"/>
<path d="M67.4992 93.3334H40.8326C39.9127 93.3334 39.166 92.5885 39.166 91.6668C39.166 90.7451 39.9127 90.0002 40.8326 90.0002C47.266 90.0002 52.4992 84.7652 52.4992 78.3336C52.4992 77.4119 53.2441 76.667 54.1658 76.667C55.0875 76.667 55.8324 77.4119 55.8324 78.3336C55.8324 84.7652 61.0674 90.0002 67.499 90.0002C68.4207 90.0002 69.1656 90.7451 69.1656 91.6668C69.1658 92.5883 68.4209 93.3334 67.4992 93.3334ZM50.2508 90H58.0809C56.4676 88.6949 55.1291 87.06 54.1658 85.2018C53.2043 87.06 51.8658 88.6949 50.2508 90Z" fill="black"/>
</svg>
