<svg width="100" height="100" viewBox="0 0 100 100" fill="none" xmlns="http://www.w3.org/2000/svg">
<g clip-path="url(#clip0_563_9367)">
<path d="M31.6639 36.5836L34.4437 41.8938C35.5689 44.0432 38.349 44.6778 40.2953 43.2293L45.1037 39.6512L45.3043 45.6416C45.3855 48.0664 47.6148 49.8442 49.9969 49.3838L55.8816 48.2463L53.4631 53.7305C52.4842 55.9504 53.7215 58.5194 56.0672 59.1381L61.8627 60.6666L57.3045 64.5582C55.4594 66.1334 55.4594 68.985 57.3045 70.5602L61.8629 74.452L56.0674 75.9805C53.7215 76.5992 52.4842 79.1684 53.4633 81.3881L55.8816 86.8723L49.9969 85.7348C47.6148 85.2744 45.3855 87.0522 45.3043 89.477L45.1037 95.4674L40.2953 91.8893C38.349 90.441 35.5689 91.0754 34.4437 93.2248L31.6639 98.535L28.884 93.2248C27.7588 91.0754 24.9787 90.4408 23.0324 91.8893L18.224 95.4674L18.0234 89.477C17.9422 87.0522 15.7129 85.2744 13.3309 85.7348L7.44609 86.8723L9.86445 81.3881C10.8434 79.1682 9.60606 76.5992 7.26035 75.9805L1.46484 74.452L6.02324 70.5602C7.86836 68.985 7.86836 66.1334 6.02324 64.5582L1.46504 60.6666L7.26055 59.1381C9.60645 58.5194 10.8438 55.9502 9.86465 53.7305L7.44629 48.2463L13.3311 49.3838C15.7131 49.8442 17.9424 48.0664 18.0236 45.6416L18.2242 39.6512L23.0326 43.2293C24.9789 44.6776 27.759 44.0432 28.8842 41.8938L31.6639 36.5836Z" fill="#FFE07D"/>
<path d="M57.3043 64.5582L61.8627 60.6664L56.0672 59.1379C53.7213 58.5191 52.4842 55.95 53.4631 53.7303L55.8814 48.2461L49.9967 49.3836C49.9061 49.4012 49.8156 49.4143 49.7256 49.4254C50.5525 52.1348 50.9988 55.0102 50.9988 57.9902C50.9988 74.1715 37.8814 87.2889 21.7002 87.2889C20.083 87.2889 18.4971 87.1557 16.9512 86.9037C17.5838 87.5738 17.9896 88.4689 18.0232 89.477L18.2238 95.4674L23.0322 91.8893C24.9785 90.441 27.7586 91.0754 28.8838 93.2248L31.6635 98.535L34.4432 93.2248C35.5684 91.0754 38.3484 90.4408 40.2947 91.8893L45.1031 95.4674L45.3037 89.477C45.385 87.0522 47.6143 85.2744 49.9963 85.7348L55.8811 86.8723L53.4627 81.3881C52.4838 79.1682 53.7209 76.599 56.0668 75.9805L61.8623 74.452L57.3043 70.5604C55.4592 68.985 55.4592 66.1336 57.3043 64.5582Z" fill="#FFD064"/>
<path d="M31.6646 83.343C40.3818 83.343 47.4484 76.2763 47.4484 67.5592C47.4484 58.842 40.3818 51.7754 31.6646 51.7754C22.9475 51.7754 15.8809 58.842 15.8809 67.5592C15.8809 76.2763 22.9475 83.343 31.6646 83.343Z" fill="#EAB14D"/>
<path d="M41.2658 55.0358C41.4354 55.9625 41.5285 56.916 41.5285 57.8916C41.5285 66.6088 34.4619 73.6754 25.7447 73.6754C22.1311 73.6754 18.8031 72.4582 16.1426 70.4151C17.4871 77.768 23.9223 83.3428 31.6637 83.3428C40.3809 83.3428 47.4475 76.2762 47.4475 67.559C47.4473 62.4559 45.023 57.9211 41.2658 55.0358Z" fill="#E7A52E"/>
<path d="M78.4113 62.4295C82.7698 62.4295 86.3031 58.8962 86.3031 54.5377C86.3031 50.1792 82.7698 46.6459 78.4113 46.6459C74.0528 46.6459 70.5195 50.1792 70.5195 54.5377C70.5195 58.8962 74.0528 62.4295 78.4113 62.4295Z" fill="#EAB14D"/>
<path d="M50.001 29.6783C53.2699 29.6783 55.9199 27.0283 55.9199 23.7594C55.9199 20.4905 53.2699 17.8405 50.001 17.8405C46.732 17.8405 44.082 20.4905 44.082 23.7594C44.082 27.0283 46.732 29.6783 50.001 29.6783Z" fill="#CBAFEA"/>
<path d="M59.4693 7.77852C61.2128 7.77852 62.6262 6.36515 62.6262 4.62168C62.6262 2.87821 61.2128 1.46484 59.4693 1.46484C57.7259 1.46484 56.3125 2.87821 56.3125 4.62168C56.3125 6.36515 57.7259 7.77852 59.4693 7.77852Z" fill="#86A0AF"/>
<path d="M82.356 33.8215C91.2911 33.8215 98.5344 26.5782 98.5344 17.6432C98.5344 8.70812 91.2911 1.46484 82.356 1.46484C73.421 1.46484 66.1777 8.70812 66.1777 17.6432C66.1777 26.5782 73.421 33.8215 82.356 33.8215Z" fill="#CBE2FF"/>
<path d="M91.7662 4.48206C93.6652 7.13342 94.7834 10.3819 94.7834 13.8918C94.7834 22.8268 87.54 30.0701 78.6051 30.0701C75.0951 30.0701 71.8467 28.952 69.1953 27.053C72.1305 31.1508 76.9314 33.8215 82.3564 33.8215C91.2914 33.8215 98.5348 26.5781 98.5348 17.6432C98.5348 12.2182 95.8641 7.41721 91.7662 4.48206Z" fill="#BED8FB"/>
<path d="M83.95 1.54297C83.4256 1.4916 82.8939 1.46484 82.356 1.46484C73.4211 1.46484 66.1777 8.7082 66.1777 17.6432C66.1777 20.9266 67.1568 23.9809 68.8375 26.5318L71.7854 24.54C72.4264 24.107 72.8525 23.4217 72.9578 22.6553L73.2144 20.7859C73.3023 20.1463 73.1598 19.4961 72.8123 18.9518L71.9535 17.6062C71.3535 16.6662 71.3877 15.4553 72.0398 14.5508C72.8361 13.4463 74.3264 13.1002 75.5279 13.741L75.9994 13.9926C76.6494 14.3393 77.4123 14.4076 78.1137 14.1818L82.0625 12.9109C83.1873 12.5488 83.95 11.5023 83.95 10.3205V1.54297Z" fill="#B3E59F"/>
<path d="M88.2512 25.5263L85.4221 25.9683C84.2256 26.1552 83.1445 25.23 83.1445 24.0189V20.804C83.1445 19.8792 83.7867 19.0787 84.6895 18.8781L88.6787 17.9915C90.1631 17.6617 91.4471 19.0644 90.9873 20.5138L89.827 24.1732C89.6012 24.8867 88.9906 25.4107 88.2512 25.5263Z" fill="#B3E59F"/>
<path d="M31.6641 50.3103C22.1535 50.3103 14.416 58.0478 14.416 67.5583C14.416 70.23 15.0102 72.79 16.1822 75.1671C16.54 75.8925 17.4178 76.1906 18.1439 75.8332C18.8695 75.4753 19.1678 74.597 18.81 73.8716C17.8383 71.9011 17.3457 69.7769 17.3457 67.5583C17.3457 59.6632 23.7689 53.24 31.6641 53.24C39.5592 53.24 45.9824 59.6632 45.9824 67.5583C45.9824 75.4546 39.5592 81.8787 31.6641 81.8787C28.3416 81.8787 25.2258 80.7755 22.6533 78.6884C22.0252 78.1787 21.1027 78.2746 20.5928 78.9031C20.083 79.5314 20.1791 80.4539 20.8074 80.9636C23.8633 83.4431 27.7189 84.8085 31.6641 84.8085C41.1746 84.8085 48.9121 77.0703 48.9121 67.5585C48.9121 58.0478 41.1746 50.3103 31.6641 50.3103Z" fill="black"/>
<path d="M58.2557 65.6722L62.8141 61.7806C63.2288 61.4267 63.4124 60.872 63.2911 60.3406C63.1698 59.8092 62.7635 59.389 62.2366 59.2502L56.4411 57.7217C55.7379 57.5363 55.1538 57.0543 54.8383 56.3992C54.5229 55.7441 54.5102 54.9869 54.8036 54.3215L57.2219 48.8373C57.4418 48.3386 57.3667 47.759 57.0268 47.3328C56.6872 46.9068 56.1389 46.7045 55.6036 46.8078L49.7188 47.9453C49.0051 48.0832 48.2694 47.9023 47.701 47.449C47.1325 46.9957 46.7926 46.3189 46.7682 45.5922L46.5676 39.6017C46.5495 39.057 46.2301 38.5676 45.7391 38.331C45.2481 38.0945 44.6663 38.1506 44.2292 38.4756L39.4208 42.0537C38.8376 42.4879 38.0965 42.6437 37.3876 42.4822C36.6788 42.3203 36.0786 41.8582 35.7415 41.2138L32.9618 35.9039C32.709 35.4211 32.209 35.1185 31.6639 35.1185C31.1188 35.1185 30.6188 35.4211 30.3661 35.9039L27.5864 41.2138C27.2491 41.858 26.6491 42.3203 25.9403 42.4822C25.2313 42.6435 24.4903 42.4877 23.9071 42.0537L19.0985 38.4756C18.6612 38.1502 18.0795 38.0947 17.5885 38.331C17.0973 38.5676 16.7784 39.057 16.76 39.6017L16.5594 45.5922C16.535 46.3189 16.1952 46.9957 15.6266 47.449C15.0581 47.9025 14.3227 48.0836 13.6088 47.9453L7.72408 46.8078C7.18873 46.7043 6.64068 46.9066 6.30084 47.3328C5.96099 47.759 5.8858 48.3385 6.10572 48.8373L8.52427 54.3213C8.81763 54.9867 8.80494 55.7439 8.48951 56.399C8.17408 57.0539 7.5899 57.5361 6.88677 57.7215L1.09126 59.25C0.564311 59.3888 0.158061 59.809 0.0367723 60.3404C-0.0845168 60.8718 0.0992723 61.4265 0.513725 61.7804L5.07212 65.672C5.62505 66.1441 5.94224 66.8318 5.94224 67.5592C5.94224 68.2863 5.62505 68.974 5.07212 69.4461L0.513921 73.3379C0.0992723 73.6918 -0.0843215 74.2465 0.0369676 74.7779C0.158257 75.3093 0.564507 75.7295 1.09146 75.8683L6.88697 77.3969C7.59009 77.5824 8.17408 78.0642 8.4897 78.7193C8.80513 79.3744 8.81783 80.1316 8.52447 80.797L6.10591 86.2812C5.88599 86.7799 5.96119 87.3594 6.30103 87.7857C6.64087 88.2119 7.18951 88.4146 7.72427 88.3107L13.609 87.1732C14.3225 87.0351 15.0583 87.2162 15.6268 87.6695C16.1954 88.1228 16.5352 88.7996 16.5596 89.5263L16.7602 95.5166C16.7784 96.0613 17.0975 96.5508 17.5885 96.7873C18.0799 97.0236 18.6614 96.9681 19.0987 96.6427L23.9073 93.0646C24.4905 92.6306 25.2319 92.4744 25.9405 92.6361C26.6493 92.7978 27.2493 93.2601 27.5866 93.9043L30.3663 99.2144C30.619 99.6972 31.119 99.9998 31.6641 99.9998C32.2092 99.9998 32.7092 99.6972 32.962 99.2144L35.7417 93.9043C36.079 93.2601 36.6788 92.7978 37.3877 92.6361C38.0965 92.474 38.8377 92.6304 39.4211 93.0646L44.2295 96.6427C44.6668 96.9681 45.2487 97.0238 45.7395 96.7873C46.2307 96.5508 46.5497 96.0613 46.568 95.5166L46.7686 89.5263C46.793 88.7996 47.1329 88.1228 47.7014 87.6695C48.27 87.2162 49.0055 87.0353 49.7192 87.1732L55.604 88.3107C56.1387 88.4144 56.6874 88.2119 57.0272 87.7857C57.367 87.3595 57.442 86.7801 57.2223 86.2812L54.804 80.797C54.5106 80.1318 54.5231 79.3746 54.8387 78.7195C55.1542 78.0644 55.7383 77.5824 56.4415 77.3969L62.237 75.8683C62.7639 75.7295 63.1702 75.3093 63.2915 74.7779C63.4128 74.2465 63.229 73.6918 62.8145 73.3379L58.2561 69.4461C57.7032 68.974 57.386 68.2863 57.386 67.5592C57.3856 66.8322 57.7026 66.1443 58.2557 65.6722ZM56.3534 71.6744L58.7836 73.7492L55.6938 74.564C54.1606 74.9683 52.8866 76.0197 52.1987 77.4484C51.5108 78.8769 51.4831 80.5285 52.1229 81.9793L53.4124 84.9031L50.2749 84.2967C48.7184 83.9957 47.1141 84.3902 45.8745 85.3787C44.6346 86.3674 43.8932 87.8433 43.8403 89.4279L43.7333 92.6217L41.1698 90.714C39.8977 89.7676 38.2817 89.4273 36.7356 89.7797C35.1897 90.1326 33.8813 91.1406 33.146 92.5453L31.6639 95.3763L30.1819 92.5453C29.4463 91.1406 28.1381 90.1326 26.5922 89.7797C26.1924 89.6884 25.7879 89.6435 25.386 89.6435C24.2336 89.6435 23.1012 90.0123 22.1583 90.7138L19.5948 92.6217L19.4877 89.4279C19.4348 87.8431 18.6934 86.3674 17.4536 85.3787C16.2139 84.3902 14.6098 83.9955 13.0532 84.2967L9.91587 84.9031L11.2053 81.9793C11.8452 80.5285 11.8174 78.8769 11.1295 77.4484C10.4417 76.0199 9.16763 74.9685 7.63443 74.5642L4.54458 73.7494L6.97486 71.6746C8.18072 70.6451 8.87232 69.1453 8.87232 67.5595C8.87232 65.9738 8.18072 64.474 6.97486 63.4443L4.54458 61.3695L7.63443 60.5547C9.16763 60.1504 10.4415 59.0992 11.1294 57.6705C11.8174 56.242 11.8452 54.5904 11.2053 53.1394L9.91587 50.2156L13.0532 50.822C14.6102 51.1232 16.2139 50.7285 17.4536 49.7398C18.6934 48.7511 19.4348 47.2752 19.4877 45.6906L19.5948 42.4968L22.1583 44.4047C23.4303 45.3511 25.0465 45.6916 26.5924 45.339C28.1383 44.9861 29.4467 43.9781 30.1821 42.5732L31.6641 39.7422L33.1461 42.5732C33.8817 43.9779 35.1899 44.9861 36.736 45.3388C38.2819 45.6918 39.8979 45.3511 41.1702 44.4047L43.7336 42.4968L43.8407 45.6906C43.8936 47.2754 44.635 48.7511 45.8749 49.7398C47.1145 50.7285 48.7184 51.1228 50.2752 50.822L53.4127 50.2156L52.1233 53.1394C51.4835 54.5904 51.5112 56.2418 52.1991 57.6705C52.887 59.0992 54.161 60.1504 55.6942 60.5547L58.784 61.3695L56.3538 63.4443C55.1477 64.4738 54.4561 65.9738 54.4561 67.5595C54.4561 69.1453 55.1475 70.6449 56.3534 71.6744Z" fill="black"/>
<path d="M78.4106 45.1814C75.6462 45.1814 73.0382 46.3941 71.2556 48.5087C70.7341 49.1273 70.8128 50.0513 71.4313 50.5728C72.0499 51.0943 72.9739 51.0156 73.4954 50.397C74.7202 48.9443 76.5116 48.1111 78.4104 48.1111C81.9546 48.1111 84.8382 50.9937 84.8382 54.5369C84.8382 58.081 81.9546 60.9646 78.4104 60.9646C75.2722 60.9646 72.6093 58.7238 72.0788 55.6365C71.9419 54.8392 71.1854 54.3042 70.387 54.4408C69.5895 54.5777 69.0544 55.3353 69.1913 56.1326C69.9641 60.63 73.8413 63.8943 78.4104 63.8943C83.5702 63.8943 87.7679 59.6966 87.7679 54.5369C87.7681 49.3783 83.5704 45.1814 78.4106 45.1814Z" fill="black"/>
<path d="M42.6172 23.7594C42.6172 27.8309 45.9295 31.1432 50.001 31.1432C54.0725 31.1432 57.3848 27.8309 57.3848 23.7594C57.3848 19.6879 54.0725 16.3756 50.001 16.3756C45.9295 16.3756 42.6172 19.6879 42.6172 23.7594ZM50.001 19.3053C52.457 19.3053 54.4551 21.3033 54.4551 23.7594C54.4551 26.2155 52.457 28.2135 50.001 28.2135C47.5449 28.2135 45.5469 26.2155 45.5469 23.7594C45.5469 21.3033 47.5449 19.3053 50.001 19.3053Z" fill="black"/>
<path d="M59.4693 9.24316C62.0176 9.24316 64.091 7.16992 64.091 4.62148C64.091 2.07305 62.0178 0 59.4693 0C56.9211 0 54.8477 2.07324 54.8477 4.62168C54.8477 7.17012 56.9211 9.24316 59.4693 9.24316ZM59.4693 2.92969C60.4021 2.92969 61.1613 3.68867 61.1613 4.62168C61.1613 5.55469 60.4023 6.31367 59.4693 6.31367C58.5365 6.31367 57.7773 5.55469 57.7773 4.62168C57.7773 3.68867 58.5365 2.92969 59.4693 2.92969Z" fill="black"/>
<path d="M82.3574 35.2869C92.0856 35.2869 100 27.3717 100 17.6424C100 14.2322 99.0238 10.9213 97.1772 8.06719C96.7377 7.38789 95.8307 7.19395 95.1514 7.6332C94.4721 8.07266 94.2779 8.97969 94.7174 9.65898C96.2568 12.0379 97.0703 14.7984 97.0703 17.6426C97.0703 25.7563 90.4701 32.3574 82.3574 32.3574C77.7449 32.3574 73.6232 30.2225 70.9232 26.8908L72.6057 25.7543C73.5904 25.0893 74.2479 24.0324 74.4094 22.8547L74.6658 20.9865C74.8018 20.0035 74.5822 19.0012 74.0477 18.1637L73.1889 16.8188C72.91 16.3818 72.9256 15.8279 73.2281 15.4078C73.4639 15.0811 73.8459 14.8857 74.25 14.8857C74.457 14.8857 74.6547 14.9354 74.8404 15.0346L75.3111 15.285C76.3055 15.8152 77.4908 15.9211 78.5633 15.5764L82.5121 14.3053C84.2486 13.7465 85.4154 12.1451 85.4154 10.3207V3.2498C87.1602 3.61875 88.8262 4.30215 90.3363 5.28027C91.0154 5.72012 91.9225 5.52617 92.3621 4.84707C92.802 4.16797 92.608 3.26094 91.9289 2.82129C89.0793 0.975586 85.7693 0 82.3574 0C72.6283 0 64.7129 7.91445 64.7129 17.6426C64.7131 27.3717 72.6283 35.2869 82.3574 35.2869ZM82.3574 2.92969C82.4004 2.92969 82.443 2.93164 82.4859 2.93203V10.3207C82.4859 10.8682 82.1359 11.3486 81.6148 11.5164L77.6662 12.7875C77.3445 12.8912 76.9885 12.859 76.6883 12.699L76.2189 12.4494C75.615 12.1268 74.9342 11.9561 74.2502 11.9561C72.9074 11.9561 71.6371 12.6059 70.852 13.6945C69.843 15.0945 69.7908 16.9395 70.7197 18.3949L71.5787 19.74C71.7389 19.991 71.8047 20.291 71.7639 20.5863L71.5072 22.4561C71.4586 22.8096 71.2615 23.1268 70.966 23.3262L69.3145 24.442C68.249 22.4066 67.6428 20.0947 67.6428 17.6426C67.6428 9.52988 74.2438 2.92969 82.3574 2.92969Z" fill="black"/>
<path d="M88.3631 16.5618L84.3736 17.4483C82.7887 17.8006 81.6816 19.1807 81.6816 20.8043V24.0192C81.6816 25.0249 82.1199 25.9768 82.884 26.6309C83.5117 27.1682 84.3039 27.4571 85.1178 27.4571C85.2945 27.4571 85.4725 27.4434 85.65 27.4157L88.4791 26.9737C89.7764 26.7709 90.8285 25.8674 91.2254 24.6161L92.3855 20.9569C92.7617 19.7708 92.4848 18.5145 91.6445 17.5965C90.8047 16.6788 89.5775 16.2915 88.3631 16.5618ZM89.5932 20.0713L88.433 23.7307C88.3744 23.9157 88.2189 24.0491 88.0272 24.0792L85.198 24.5211C84.9975 24.5532 84.8557 24.462 84.7893 24.4051C84.7229 24.3483 84.6115 24.2225 84.6115 24.019V20.8041C84.6115 20.5641 84.7752 20.3602 85.0094 20.3081L88.9986 19.4215C89.041 19.4122 89.0807 19.4081 89.118 19.4081C89.3004 19.4081 89.4223 19.5075 89.4838 19.5747C89.5578 19.6555 89.6705 19.8278 89.5932 20.0713Z" fill="black"/>
<path d="M37.1762 13.7811C37.9852 13.7811 38.641 13.1252 38.641 12.3162V11.808H39.1492C39.9582 11.808 40.6141 11.1521 40.6141 10.3432C40.6141 9.53418 39.9582 8.87832 39.1492 8.87832H38.641V8.37012C38.641 7.56113 37.9852 6.90527 37.1762 6.90527C36.3672 6.90527 35.7113 7.56113 35.7113 8.37012V8.87832H35.2031C34.3941 8.87832 33.7383 9.53418 33.7383 10.3432C33.7383 11.1521 34.3941 11.808 35.2031 11.808H35.7113V12.3162C35.7113 13.1252 36.3672 13.7811 37.1762 13.7811Z" fill="black"/>
<path d="M90.1352 77.424V76.9158H90.6434C91.4523 76.9158 92.1082 76.2599 92.1082 75.451C92.1082 74.642 91.4523 73.9861 90.6434 73.9861H90.1352V73.4779C90.1352 72.6689 89.4793 72.0131 88.6703 72.0131C87.8613 72.0131 87.2055 72.6689 87.2055 73.4779V73.9861H86.6973C85.8883 73.9861 85.2324 74.642 85.2324 75.451C85.2324 76.2599 85.8883 76.9158 86.6973 76.9158H87.2055V77.424C87.2055 78.233 87.8613 78.8888 88.6703 78.8888C89.4793 78.8888 90.1352 78.2332 90.1352 77.424Z" fill="black"/>
<path d="M79.6061 69.0561C78.801 69.0072 78.1042 69.6217 78.0549 70.4291C77.442 80.4926 73.6678 89.884 67.1403 97.5877C66.6172 98.2051 66.6936 99.1293 67.311 99.6524C67.5864 99.8856 67.9225 99.9996 68.2573 99.9996C68.6729 99.9996 69.086 99.8236 69.3756 99.4818C76.3153 91.2916 80.3278 81.307 80.9793 70.6074C81.0284 69.7998 80.4137 69.1053 79.6061 69.0561Z" fill="black"/>
<path d="M72.0514 43.1785C72.3221 43.1785 72.5961 43.1035 72.8408 42.9464C73.5217 42.5097 73.7197 41.6037 73.2832 40.9226C70.1787 36.0816 66.2891 31.8494 61.7221 28.3437C61.0805 27.8511 60.1607 27.972 59.6682 28.6136C59.1756 29.2554 59.2965 30.1749 59.9381 30.6675C64.2355 33.9664 67.8959 37.9488 70.817 42.504C71.0967 42.9404 71.5689 43.1785 72.0514 43.1785Z" fill="black"/>
<path d="M1.46581 31.7855C1.79022 31.7855 2.11678 31.6783 2.38827 31.4578C10.6297 24.7662 21.0265 21.0811 31.6639 21.0811C33.1918 21.0811 34.7328 21.1561 36.2439 21.3037C36.8445 21.3625 37.4519 21.4338 38.0496 21.5158C38.8529 21.6273 39.5902 21.0654 39.7002 20.2641C39.8103 19.4625 39.2498 18.7236 38.4484 18.6135C37.8133 18.5262 37.1674 18.4504 36.5291 18.3879C34.9236 18.2309 33.2867 18.1514 31.6639 18.1514C20.356 18.1514 9.30331 22.0693 0.541587 29.1836C-0.0865377 29.6936 -0.182241 30.616 0.32772 31.2441C0.617369 31.6006 1.03963 31.7855 1.46581 31.7855Z" fill="black"/>
<path d="M1.46633 10.2168C1.69192 10.2168 1.92102 10.1645 2.13528 10.0541C11.3228 5.32676 21.2577 2.92969 31.664 2.92969C36.9472 2.92969 42.2011 3.56855 47.2798 4.82852C48.0654 5.02324 48.8595 4.54473 49.0542 3.75957C49.2491 2.97441 48.7704 2.17988 47.9853 1.98516C42.6761 0.667773 37.1847 0 31.664 0C20.7868 0 10.4009 2.50625 0.794848 7.44922C0.0755123 7.81934 -0.207496 8.70254 0.162622 9.42207C0.422387 9.92695 0.934887 10.2168 1.46633 10.2168Z" fill="black"/>
<path d="M92.4564 41.5383C91.7058 41.8403 91.3423 42.6936 91.6443 43.444C94.7289 51.1088 96.2929 59.2225 96.2929 67.5592C96.2929 78.1157 93.692 88.5893 88.7713 97.8473C88.3916 98.5618 88.6629 99.4487 89.3773 99.8284C89.5964 99.9448 89.8316 100 90.0636 100C90.5881 100 91.0951 99.7178 91.3584 99.2225C96.5033 89.5424 99.2228 78.5936 99.2228 67.5594C99.2228 58.8461 97.5875 50.3647 94.3623 42.3506C94.0603 41.5998 93.207 41.236 92.4564 41.5383Z" fill="black"/>
</g>
<defs>
<clipPath id="clip0_563_9367">
<rect width="100" height="100" fill="white"/>
</clipPath>
</defs>
</svg>
