<svg width="100" height="100" viewBox="0 0 100 100" fill="none" xmlns="http://www.w3.org/2000/svg">
<g clip-path="url(#clip0_563_8339)">
<path d="M54.3438 50.9256V89.8285H45.6588V50.9256H54.3438Z" fill="#D6694B"/>
<path d="M63.0067 89.8285H58.452C59.8917 89.5399 60.9765 88.2689 60.9765 86.7443C60.9765 85.0067 59.5679 83.598 57.8303 83.598H42.1711C40.4335 83.598 39.0248 85.0067 39.0248 86.7443C39.0248 88.2691 40.1097 89.5399 41.5494 89.8285H36.9947C32.192 89.8285 28.2988 93.7218 28.2988 98.5243V98.5355H71.7027V98.5243C71.7027 93.7218 67.8094 89.8285 63.0067 89.8285Z" fill="#FFE177"/>
<path d="M63.0065 89.8285H58.4518C59.8915 89.5399 60.9763 88.2689 60.9763 86.7443C60.9763 85.0067 59.5677 83.598 57.8301 83.598H50.0195C51.7572 83.598 53.1658 85.0067 53.1658 86.7443C53.1658 88.2691 52.0809 89.5399 50.6413 89.8285H55.196C59.9987 89.8285 63.8918 93.7218 63.8918 98.5243V98.5355H71.7024V98.5243C71.7025 93.7218 67.8092 89.8285 63.0065 89.8285Z" fill="#FFD15B"/>
<path d="M19.1456 85.3226C12.0471 85.3484 6.23514 79.6143 6.16406 72.5182H31.9337C31.864 79.4823 26.1733 85.3226 19.1456 85.3226Z" fill="#FFC344"/>
<path d="M81.0499 85.3226C73.9514 85.3484 68.1394 79.6143 68.0684 72.5182H93.838C93.7681 79.4823 88.0776 85.3226 81.0499 85.3226Z" fill="#FFC344"/>
<path d="M85.9332 42.2186H74.647C71.6409 42.2186 68.9266 40.5413 67.441 37.9215C65.7783 34.9896 62.5782 33.4031 59.2601 33.5116V31.1542C59.2601 26.0403 55.1144 21.8947 50.0005 21.8947C44.8865 21.8947 40.7409 26.0403 40.7409 31.1542V33.5115C37.4122 33.4101 34.2271 34.9816 32.5599 37.9213C31.0742 40.5411 28.36 42.2184 25.354 42.2184H14.0677C9.27129 42.2184 5.38281 46.1167 5.38281 50.9254H94.6181C94.6181 46.1169 90.7297 42.2186 85.9332 42.2186Z" fill="#FFE177"/>
<path d="M51.45 31.1542V33.5115C54.7681 33.4029 57.9683 34.9894 59.631 37.9213C61.1167 40.5411 63.8309 42.2184 66.837 42.2184H74.6475C71.6414 42.2184 68.9271 40.5411 67.4415 37.9213C65.7788 34.9894 62.5787 33.4029 59.2605 33.5115V31.1542C59.2605 26.0403 55.1149 21.8947 50.001 21.8947C48.6052 21.8947 47.2827 22.2053 46.0957 22.7583C49.2574 24.2316 51.45 27.436 51.45 31.1542Z" fill="#FFD15B"/>
<path d="M85.9336 42.2186H78.123C82.9195 42.2186 86.808 46.1169 86.808 50.9256H94.6185C94.6185 46.1169 90.73 42.2186 85.9336 42.2186Z" fill="#FFD15B"/>
<path d="M19.0479 27.1129C26.1236 27.1129 31.8596 21.3769 31.8596 14.3012C31.8596 7.22558 26.1236 1.48962 19.0479 1.48962C11.9723 1.48962 6.23633 7.22558 6.23633 14.3012C6.23633 21.3769 11.9723 27.1129 19.0479 27.1129Z" fill="#80D261"/>
<path d="M80.9522 27.1129C88.0279 27.1129 93.7639 21.3769 93.7639 14.3012C93.7639 7.22558 88.0279 1.48962 80.9522 1.48962C73.8766 1.48962 68.1406 7.22558 68.1406 14.3012C68.1406 21.3769 73.8766 27.1129 80.9522 27.1129Z" fill="#FE5694"/>
<path d="M50.0012 34.4565C51.7266 34.4565 53.1254 33.0577 53.1254 31.3323C53.1254 29.6068 51.7266 28.2081 50.0012 28.2081C48.2757 28.2081 46.877 29.6068 46.877 31.3323C46.877 33.0577 48.2757 34.4565 50.0012 34.4565Z" fill="#D6694B"/>
<path d="M94.618 52.3901C95.4268 52.3901 96.0824 51.7344 96.0824 50.9256C96.0824 45.3171 91.5295 40.7542 85.933 40.7542H74.6468C72.2312 40.7542 69.9582 39.3918 68.7147 37.199C67.0792 34.315 64.102 32.4451 60.7244 32.0997C61.1131 16.6323 38.8803 16.6436 39.2761 32.1022C35.8953 32.4523 32.9175 34.3218 31.2857 37.199C30.0421 39.3918 27.769 40.7542 25.3536 40.7542H14.0674C8.47092 40.7542 3.91797 45.3171 3.91797 50.9256C3.91797 51.314 4.07223 51.6866 4.34696 51.9611C4.6215 52.2358 4.99406 52.3901 5.38244 52.3901H16.8534L9.09186 71.0536H6.16369C5.77278 71.0536 5.39806 71.2098 5.12294 71.4876C4.84781 71.7655 4.69531 72.1418 4.69922 72.5327C4.77654 80.4215 11.2651 86.8166 19.1487 86.7869C26.927 86.7846 33.319 80.3911 33.3976 72.5327C33.4016 72.1418 33.2491 71.7655 32.9739 71.4876C32.699 71.2098 32.3241 71.0536 31.9332 71.0536H29.005L21.2435 52.3901H44.1932V82.1334H42.1704C39.0154 82.0709 36.6933 85.4441 37.8551 88.364C32.0046 88.1166 26.8337 92.5073 26.8337 98.5355C26.8337 99.3443 27.4894 100 28.2982 100H71.7021C72.5108 100 73.1665 99.3332 73.1665 98.5244C73.1665 92.4995 67.9885 88.1168 62.1451 88.3638C63.3065 85.4433 60.985 82.0711 57.8298 82.1334H55.807V52.3901H78.7569L70.9954 71.0536H68.067C67.6761 71.0536 67.3014 71.2098 67.0263 71.4876C66.7512 71.7655 66.5987 72.1418 66.6026 72.5327C66.6799 80.4221 73.1697 86.8176 81.0538 86.7869C82.9887 86.7133 82.9834 83.9243 81.0485 83.858C75.2685 83.8835 70.4239 79.5694 69.6416 73.9825C77.1806 73.9825 84.7197 73.9827 92.2586 73.9825C91.7298 77.6601 89.3994 80.969 86.0412 82.6665C85.3193 83.0314 85.03 83.9122 85.3949 84.6341C85.7597 85.3562 86.6409 85.6454 87.3626 85.2804C92.1315 82.8697 95.2475 77.8659 95.301 72.5327C95.3049 72.1418 95.1524 71.7655 94.8773 71.4876C94.6023 71.2098 94.2274 71.0536 93.8365 71.0536H90.9082L83.1466 52.3901H94.618ZM19.1452 83.8581C19.1296 83.8581 19.1138 83.8581 19.0977 83.8581C13.3332 83.858 8.52013 79.5538 7.73849 73.9825C15.2788 73.9829 22.8191 73.9825 30.3596 73.9825C29.5857 79.5469 24.8314 83.8581 19.1452 83.8581ZM12.2639 71.0536L19.0485 54.7395L25.833 71.0536H12.2639ZM59.5116 86.7441C59.5116 87.5426 58.9447 88.2359 58.1635 88.3925C56.4764 88.7307 56.7308 91.293 58.4515 91.293H63.0062C66.4932 91.293 69.4118 93.7742 70.0894 97.071H29.9095C30.5841 93.7777 33.5045 91.293 36.9942 91.293H41.5489C43.2696 91.293 43.524 88.7309 41.8369 88.3925C39.8704 87.9472 40.1467 85.1113 42.1708 85.0623H57.83C58.7573 85.0623 59.5116 85.8168 59.5116 86.7441ZM47.1223 82.1334V52.3901H52.8783V82.1334H47.1223ZM74.1675 71.0536L80.9519 54.7395L87.7365 71.0536H74.1675ZM14.0674 43.6831H25.3536C28.8215 43.6831 32.0708 41.7522 33.8335 38.644C35.1669 36.2928 37.7954 34.8869 40.696 34.9753C41.612 34.9131 42.115 34.4251 42.205 33.5115V31.1542C42.205 26.8559 45.702 23.3591 50.0001 23.3591C54.2982 23.3591 57.7952 26.8561 57.7952 31.1542V33.5115C57.8858 34.4267 58.39 34.9146 59.3075 34.9751C62.1963 34.8773 64.8296 36.2861 66.1667 38.6438C67.9294 41.752 71.1788 43.6829 74.6466 43.6829H85.9328C89.414 43.6829 92.3277 46.1673 93.0049 49.461H6.99532C7.67249 46.1673 10.5862 43.6831 14.0674 43.6831Z" fill="black"/>
<path d="M19.0483 28.5773C26.9201 28.5773 33.3244 22.1731 33.3244 14.3013C33.4942 3.96382 22.0512 -3.20214 12.8338 1.44552C12.1059 1.79797 11.8015 2.67392 12.1539 3.40186C12.5064 4.1298 13.3825 4.43402 14.1103 4.08176C21.4354 0.390703 30.5311 6.08497 30.3952 14.3015C29.8249 29.3336 8.26975 29.3309 7.70094 14.3011C7.70094 12.0046 8.38319 9.79263 9.67408 7.90482C10.1306 7.23722 9.95955 6.32593 9.29175 5.8694C8.62395 5.41287 7.71285 5.58412 7.25633 6.25173C0.759724 15.4844 7.74781 28.7257 19.0483 28.5773Z" fill="black"/>
<path d="M16.436 19.7017C16.8107 19.7017 17.1856 19.5588 17.4715 19.2727L25.3433 11.4008C25.9153 10.8289 25.9153 9.90162 25.3433 9.32988C24.7716 8.75796 23.8443 8.75796 23.2724 9.32988L16.436 16.1662L14.8241 14.5544C14.2522 13.9824 13.3249 13.9824 12.7532 14.5544C12.1812 15.1263 12.1812 16.0536 12.7532 16.6253L15.4007 19.2729C15.6864 19.5588 16.0611 19.7017 16.436 19.7017Z" fill="black"/>
<path d="M80.9519 28.5773C88.8237 28.5773 95.228 22.1731 95.228 14.3012C94.5102 -4.61177 67.3906 -4.6067 66.6758 14.3014C66.6758 22.1731 73.08 28.5773 80.9519 28.5773ZM80.9519 2.9541C87.2087 2.9541 92.299 8.04441 92.299 14.3012C91.7286 29.3342 70.1728 29.3301 69.6047 14.301C69.6047 8.04441 74.6951 2.9541 80.9519 2.9541Z" fill="black"/>
<path d="M75.9797 19.2727C76.67 19.8446 77.3604 19.8446 78.0507 19.2727L80.9511 16.3723L83.8516 19.2727C84.5418 19.8446 85.2323 19.8446 85.9225 19.2727C86.4945 18.7008 86.4945 17.7735 85.9225 17.2017L83.0221 14.3013L85.9225 11.4008C86.4945 10.8289 86.4945 9.90162 85.9225 9.32988C85.3506 8.75796 84.4233 8.75796 83.8516 9.32988L80.9511 12.2303L78.0507 9.32988C77.4788 8.75796 76.5515 8.75796 75.9797 9.32988C75.4078 9.90181 75.4078 10.8291 75.9797 11.4008L78.8802 14.3013L75.9797 17.2017C75.4078 17.7737 75.4078 18.701 75.9797 19.2727Z" fill="black"/>
<path d="M50.0008 35.9212C52.531 35.9212 54.5895 33.8627 54.5895 31.3325C54.3589 25.2534 45.6419 25.2549 45.4121 31.3325C45.4121 33.8627 47.4706 35.9212 50.0008 35.9212ZM50.0008 29.6728C50.916 29.6728 51.6605 30.4173 51.6605 31.3325C51.5772 33.5314 48.424 33.5308 48.3411 31.3325C48.3411 30.4173 49.0856 29.6728 50.0008 29.6728Z" fill="black"/>
<path d="M61.1956 41.7139H38.8053C36.8662 41.781 36.8677 44.5762 38.8053 44.6428H61.1956C63.1348 44.5756 63.1332 41.7805 61.1956 41.7139Z" fill="black"/>
</g>
<defs>
<clipPath id="clip0_563_8339">
<rect width="100" height="100" fill="white"/>
</clipPath>
</defs>
</svg>
