<svg width="100" height="100" viewBox="0 0 100 100" fill="none" xmlns="http://www.w3.org/2000/svg">
<g clip-path="url(#clip0_562_2359)">
<path d="M57.3344 11.1364C44.6734 -0.381449 25.3297 -0.381449 12.6687 11.1364C-0.964272 23.4015 -2.07341 44.3959 10.1915 58.0291C10.2311 58.073 10.2707 58.1168 10.3105 58.1605C22.6077 71.8338 43.6612 72.9492 57.3344 60.6519C71.0076 48.3547 72.123 27.3013 59.8258 13.628C59.04 12.7541 58.2083 11.9224 57.3344 11.1364Z" fill="#F15A24"/>
<path d="M39.0782 64.1602C35.3981 48.006 45.5104 31.927 61.6648 28.2469C77.819 24.5667 93.898 34.679 97.5782 50.8334C101.258 66.9876 91.146 83.0666 74.9916 86.7468C73.895 86.9966 72.7852 87.1845 71.6675 87.3097" fill="#E6E6E6"/>
<path d="M98.1226 54.0688C97.5878 49.331 95.9254 44.7904 93.2744 40.8274C92.4786 39.6562 91.6015 38.5425 90.6495 37.4941H88.3328C87.5887 37.4948 86.9352 37.9885 86.7312 38.7041L83.5963 49.6722L78.4997 52.2738L69.9999 46.6073V40.0291L79.2897 33.5292C79.8664 33.1255 80.127 32.4032 79.9414 31.7243L79.3664 29.621C72.3276 26.8486 64.5028 26.829 57.4502 29.566L56.7536 31.6309C56.5169 32.332 56.7709 33.1049 57.3769 33.5292L66.6667 40.0291V46.6023L58.1385 52.2871L51.282 49.5439L48.2154 41.8774C48.0629 41.4982 47.7773 41.1876 47.4121 41.0041L44.3805 39.4941C40.8266 44.2011 38.7525 49.8584 38.4223 55.7471C38.389 56.3304 38.334 56.9137 38.334 57.5004C38.334 58.137 38.359 58.7687 38.3973 59.3953L40.9223 60.6586C41.5639 60.9788 42.3387 60.8528 42.8455 60.3453L50.402 52.7905L56.9569 55.4121L60.0652 66.2902C60.2716 67.0033 60.9245 67.4937 61.6668 67.4935H74.3098L77.9764 71.16L73.5132 80.0865C73.2211 80.6709 73.2974 81.3719 73.7082 81.8798L77.1664 86.1597C84.4338 83.9431 90.5765 79.0278 94.3327 72.4233L93.1661 70.0817C92.8823 69.514 92.3009 69.1565 91.6661 69.1601H80.6897L76.8714 65.3418L79.7047 55.4004L84.8812 52.7555L94.0677 58.8803C94.5644 59.2111 95.2 59.2511 95.7343 58.9853L98.3126 57.6953C98.3126 57.627 98.3226 57.562 98.3226 57.4937C98.3209 56.3493 98.2543 55.2058 98.1226 54.0688Z" fill="#1A1A1A"/>
<path d="M75.3748 79.7798L70.6215 75.4216C54.2398 60.4065 29.0979 60.4065 12.7162 75.4216L7.96297 79.7798C6.60633 81.0242 6.51529 83.1327 7.75964 84.4893C7.8988 84.641 8.05171 84.7795 8.21629 84.9031L13.5778 88.923C20.9933 94.4862 30.0137 97.4932 39.2839 97.4928H44.0538C53.324 97.4932 62.3444 94.4862 69.7599 88.923L75.1214 84.9031C76.5943 83.7987 76.8928 81.7094 75.7885 80.2365C75.665 80.0719 75.5264 79.919 75.3748 79.7798Z" fill="#FF902A"/>
<path d="M99.89 55.3271C98.7471 38.8139 85.083 25.9646 68.5307 25.8377C63.0063 7.31942 43.5157 -3.21451 24.9973 2.30995C6.479 7.83441 -4.05492 27.325 1.46933 45.8433C4.37801 55.5933 11.3864 63.5944 20.6685 67.7618C17.3856 69.518 14.3359 71.6788 11.5903 74.1933L6.83545 78.5515C4.79967 80.4173 4.66175 83.58 6.52754 85.6158C6.73608 85.8433 6.96524 86.0512 7.21211 86.2364L12.572 90.2563C20.2872 96.0182 29.6539 99.1402 39.2831 99.1594H44.0529C53.6811 99.1394 63.0465 96.0174 70.7607 90.2563L72.6473 88.8413C88.3292 86.7176 100.02 73.3187 100 57.4937C100 57.057 99.9517 56.6337 99.935 56.2021C99.9996 55.9119 99.984 55.6094 99.89 55.3271ZM93.1668 70.0817C92.8831 69.514 92.3016 69.1566 91.6668 69.1601H80.6904L76.8722 65.3419L79.8105 55.0571L84.852 52.7321L94.0751 58.8803C94.5718 59.2112 95.2074 59.2512 95.7418 58.9853L96.6134 58.5487C96.4674 62.7636 95.3791 66.8924 93.4285 70.6317L93.1668 70.0817ZM74.9739 77.1599L71.7456 74.1933C68.8574 71.5484 65.6329 69.2957 62.1559 67.4935H74.3106L77.9772 71.16L74.9739 77.1599ZM11.492 14.673L32.6449 35.8275L27.3667 41.1057C21.5589 35.8215 14.1386 32.6505 6.30547 32.1059L3.62053 31.9143C4.41009 25.4948 7.15857 19.4746 11.492 14.673ZM31.2816 7.13151C31.8318 14.9615 35.0067 22.377 40.293 28.1794L35.0015 33.4709L13.8486 12.3164C18.6506 7.98399 24.6707 5.23676 31.0899 4.44824L31.2816 7.13151ZM58.5309 14.6613C61.489 17.9388 63.7281 21.7993 65.1041 25.9944C59.6211 26.5615 54.3833 28.5598 49.9161 31.7893C48.1695 30.7443 46.5277 29.5337 45.0129 28.1744L58.5309 14.6613ZM75.9222 30.2326L76.3555 31.5176L68.334 37.1258L60.3126 31.5093L60.7459 30.2243C65.7054 28.8066 70.9627 28.8066 75.9222 30.2243V30.2326ZM76.2239 54.7654C76.2372 54.8004 76.2339 54.8371 76.2505 54.8721C76.2812 54.9298 76.3157 54.9856 76.3539 55.0387L73.7439 64.1602H62.9242L60.2709 54.8721L68.334 49.4939L76.2239 54.7654ZM58.1393 52.2871L51.2828 49.5439L48.2162 41.8774C48.0645 41.4976 47.7787 41.1868 47.4129 41.0041L45.9129 40.2507C48.7639 36.5402 52.4859 33.5899 56.7493 31.6609C56.5327 32.3516 56.7866 33.1032 57.3776 33.5209L66.6674 40.0291V46.6023L58.1393 52.2871ZM44.0146 43.0307L45.3479 43.6973L48.0378 50.4205L41.3347 57.132L40.048 56.4887C40.2116 51.7397 41.5763 47.1093 44.0146 43.0307ZM47.1645 34.0126C45.3246 35.6619 43.6832 37.52 42.273 39.5491C42.0942 39.6951 41.9478 39.8768 41.843 40.0824C41.8236 40.142 41.8074 40.2026 41.7947 40.2641L37.3581 35.8275L42.653 30.5326C44.0613 31.813 45.5712 32.9768 47.1679 34.0126H47.1645ZM34.9981 38.1791L40.0797 43.2607C38.1897 47.0002 37.0671 51.0803 36.7781 55.2604C35.2363 50.8966 32.8369 46.8852 29.7216 43.4623L34.9981 38.1791ZM40.4864 62.5119C40.353 61.7653 40.2264 61.0119 40.153 60.2586L40.9213 60.6436C41.563 60.9638 42.3378 60.8378 42.8446 60.3303L50.4011 52.7755L56.956 55.3971L60.0642 66.2752C60.0944 66.3595 60.1326 66.441 60.1776 66.5185C54.3685 63.8623 48.0553 62.4894 41.668 62.4936C41.2747 62.4936 40.883 62.5102 40.4897 62.5202L40.4864 62.5119ZM91.1952 40.8274C94.212 44.9365 96.0553 49.7882 96.5284 54.8638L95.1151 55.5704L86.932 50.1155L89.5902 40.8274H91.1952ZM88.3819 37.4941H88.3336C87.5894 37.4948 86.9359 37.9885 86.732 38.7041L83.6087 49.6339L78.2538 52.1038L70.0007 46.6023V40.0291L79.2905 33.5292C79.8815 33.1115 80.1354 32.3599 79.9188 31.6693C83.0702 33.0807 85.938 35.0546 88.3819 37.4941ZM56.1543 12.3164L42.6546 25.8161C37.9356 20.5839 35.1025 13.9234 34.6065 6.89485L34.4132 4.20491C42.4276 4.04804 50.2011 6.94839 56.1543 12.3164ZM3.37887 35.2392L6.06881 35.4309C13.0993 35.9221 19.7637 38.7504 25.0017 43.4657L11.487 56.982C6.12047 51.0276 3.22137 43.2538 3.37887 35.2392ZM13.8253 59.362L27.3667 45.8273C31.6613 50.6126 34.3898 56.5966 35.1865 62.9769C31.6305 63.4979 28.1512 64.4492 24.825 65.8102C20.7601 64.4267 17.0181 62.2332 13.8253 59.362ZM68.759 87.5913C61.6227 92.9202 52.9594 95.8078 44.0529 95.8262H39.2831C30.3768 95.8078 21.7132 92.9202 14.5769 87.5913L9.2154 83.5698C8.47896 83.0175 8.32959 81.9729 8.88187 81.2365C8.94353 81.1542 9.0129 81.0777 9.08874 81.0082L13.8353 76.6499C17.2283 73.5575 21.1153 71.0553 25.335 69.2468C25.5882 69.1995 25.8267 69.094 26.0317 68.9384C40.7888 62.8434 57.7407 65.8506 69.5007 76.6499L74.2539 81.0082C74.9322 81.6304 74.9779 82.6846 74.3556 83.3629C74.286 83.4387 74.2095 83.5079 74.1273 83.5698L68.759 87.5913ZM77.6788 84.2281C78.3526 82.7789 78.253 81.0882 77.4138 79.7282L81.0304 72.4934H90.6369L91.3785 73.9767C87.983 78.7292 83.1962 82.3112 77.6788 84.2281Z" fill="black"/>
<path d="M56.6672 79.1599H55.0005V77.4932C55.0005 76.5728 54.2543 75.8266 53.3339 75.8266C52.4135 75.8266 51.6673 76.5728 51.6673 77.4932V79.1599H48.334V77.4932C48.334 76.5728 47.5878 75.8266 46.6674 75.8266C45.747 75.8266 45.0008 76.5728 45.0008 77.4932V79.1599H41.6675V77.4932C41.6675 76.5728 40.9213 75.8266 40.0009 75.8266C39.0805 75.8266 38.3343 76.5728 38.3343 77.4932V79.1599H35.001V77.4932C35.001 76.5728 34.2548 75.8266 33.3344 75.8266C32.414 75.8266 31.6677 76.5728 31.6677 77.4932V79.1599H28.3345V77.4932C28.3345 76.5728 27.5883 75.8266 26.6679 75.8266C25.7475 75.8266 25.0012 76.5728 25.0012 77.4932V79.1599H23.3346C22.4142 79.1599 21.668 79.9061 21.668 80.8265C21.668 81.7469 22.4142 82.4931 23.3346 82.4931H25.0012V84.1597C25.0012 85.0801 25.7475 85.8264 26.6679 85.8264C27.5883 85.8264 28.3345 85.0801 28.3345 84.1597V82.4931H31.6677V84.1597C31.6677 85.0801 32.414 85.8264 33.3344 85.8264C34.2548 85.8264 35.001 85.0801 35.001 84.1597V82.4931H38.3343V84.1597C38.3343 85.0801 39.0805 85.8264 40.0009 85.8264C40.9213 85.8264 41.6675 85.0801 41.6675 84.1597V82.4931H45.0008V84.1597C45.0008 85.0801 45.747 85.8264 46.6674 85.8264C47.5878 85.8264 48.334 85.0801 48.334 84.1597V82.4931H51.6673V84.1597C51.6673 85.0801 52.4135 85.8264 53.3339 85.8264C54.2543 85.8264 55.0005 85.0801 55.0005 84.1597V82.4931H56.6672C57.5876 82.4931 58.3338 81.7469 58.3338 80.8265C58.3338 79.9061 57.5876 79.1599 56.6672 79.1599Z" fill="black"/>
</g>
<defs>
<clipPath id="clip0_562_2359">
<rect width="100" height="100" fill="white"/>
</clipPath>
</defs>
</svg>
