<svg width="100" height="100" viewBox="0 0 100 100" fill="none" xmlns="http://www.w3.org/2000/svg">
<g clip-path="url(#clip0_419_2413)">
<path d="M27.9471 13.1326C25.1973 13.1326 26.3665 13.0812 22.4971 13.3834C18.4084 13.7025 14.6573 15.6029 11.9918 18.6031C10.5446 20.232 8.29595 20.891 6.22036 20.2277L4.30845 19.6166C4.30845 19.6166 3.33169 40.0709 9.23384 42.6435H46.9727V32.1537C46.9725 21.6472 38.4534 13.1328 27.9471 13.1326Z" fill="#D77F4A"/>
<path d="M18.2301 65.489V65.4832H12.4561C8.06309 65.4832 4.50195 69.0443 4.50195 73.4373V86.6625H46.9738V73.4375C46.9738 69.0445 43.4127 65.4834 39.0197 65.4834H33.2455V65.4892H18.2301V65.489Z" fill="#3C87D0"/>
<path d="M18.2012 59.4907V65.4892C18.2012 69.6355 21.5623 72.9968 25.7086 72.9968C29.8549 72.9968 33.2162 69.6355 33.2162 65.4892C33.2162 63.3866 33.2162 61.522 33.2162 59.4907H18.2012Z" fill="#FFB09E"/>
<path d="M18.2012 65.4892C18.2012 65.8362 18.2268 66.1772 18.2723 66.512C20.5498 67.5358 23.0801 68.1065 25.7451 68.1065C28.3801 68.1065 30.8832 67.5485 33.1408 66.5464C33.1895 66.2009 33.2164 65.8481 33.2164 65.4892C33.2164 63.3866 33.2164 61.5218 33.2164 59.4907H18.2012V65.4892Z" fill="#FFA78F"/>
<path d="M16.8926 50.1443H7.61113C4.2166 50.1443 1.46484 47.3925 1.46484 43.998C1.46484 40.6034 4.2166 37.8517 7.61113 37.8517H16.8926V50.1443Z" fill="#FFB09E"/>
<path d="M34.582 37.8517H43.8635C47.258 37.8517 50.0098 40.6034 50.0098 43.998C50.0098 47.3925 47.258 50.1443 43.8635 50.1443H34.582V37.8517Z" fill="#FFA78F"/>
<path d="M7.67188 40.6117V47.3845C7.67188 57.2533 15.7639 65.2537 25.7459 65.2537C35.7279 65.2537 43.8199 57.2535 43.8199 47.3845V40.6117C43.8199 30.7429 35.7279 22.7426 25.7459 22.7426C15.7639 22.7426 7.67188 30.7428 7.67188 40.6117Z" fill="#FFCEBF"/>
<path d="M15.1631 53.37H12.0229C11.0824 53.37 10.3203 52.6079 10.3203 51.6675C10.3203 50.7271 11.0824 49.965 12.0229 49.965H15.1631C16.1035 49.965 16.8656 50.7271 16.8656 51.6675C16.8656 52.6077 16.1035 53.37 15.1631 53.37Z" fill="#FE8F83"/>
<path d="M26.3549 22.755C25.6658 22.7745 24.9859 22.8288 24.3184 22.9226C33.084 24.1554 39.8248 31.6044 39.8248 40.6115V47.3843C39.8248 56.3911 33.0842 63.8404 24.3184 65.0732C24.9859 65.1671 25.666 65.2214 26.3549 65.2407C36.0541 64.9226 43.8188 57.0511 43.8188 47.3843V40.6115C43.8188 30.9448 36.0543 23.0734 26.3549 22.755Z" fill="#FFB09E"/>
<path d="M28.7033 13.1515H25.5098C24.9904 13.1804 24.277 13.2445 22.4982 13.3833C18.5449 13.6919 14.9076 15.479 12.2617 18.3089V26.2488C12.2617 32.6568 17.4564 37.8515 23.8645 37.8515H46.9736V32.1532C46.9736 21.9001 38.8598 13.546 28.7033 13.1515Z" fill="#D77F4A"/>
<path d="M28.702 13.1515H25.5084C25.0709 13.1757 24.493 13.2251 23.2598 13.3232C32.5008 14.6206 39.6121 22.5544 39.6121 32.1532V37.8515H46.9725V32.1532C46.9723 21.9001 38.8584 13.546 28.702 13.1515Z" fill="#C86D36"/>
<path d="M39.0195 65.4834H33.2453V65.4893H32.9727C37.2592 65.6109 40.6973 69.1217 40.6973 73.4375V86.6627H46.9736V73.4375C46.9736 69.0445 43.4125 65.4834 39.0195 65.4834Z" fill="#0078C8"/>
<path d="M39.3955 53.37H36.2553C35.3148 53.37 34.5527 52.6079 34.5527 51.6675C34.5527 50.7271 35.3148 49.965 36.2553 49.965H39.3955C40.3359 49.965 41.098 50.7271 41.098 51.6675C41.098 52.6077 40.3357 53.37 39.3955 53.37Z" fill="#FE8F83"/>
<path d="M60.2984 66.6154H59.5178C55.2783 66.6154 51.8418 70.0521 51.8418 74.2913V86.87H90.9897V74.2913C90.9897 70.0519 87.5529 66.6154 83.3137 66.6154H60.2984Z" fill="#F07281"/>
<path d="M83.3143 66.6154H77.0273C81.2668 66.6154 84.7033 70.0521 84.7033 74.2913V86.87H90.9902V74.2913C90.9904 70.0519 87.5537 66.6154 83.3143 66.6154Z" fill="#EB5569"/>
<path d="M71.3891 74.6997C67.6965 74.6997 64.7031 71.7064 64.7031 68.0138V51.924H78.0748V68.0138C78.075 71.7064 75.0816 74.6997 71.3891 74.6997Z" fill="#FFB09E"/>
<path d="M64.7051 67.0618C66.7408 67.9795 69.0018 68.495 71.3857 68.495C73.7738 68.495 76.0383 67.9778 78.077 67.0571V51.9241H64.7053L64.7051 67.0618Z" fill="#FFA78F"/>
<path d="M95.1938 68.6661H98.5352V59.4659C98.5352 54.0927 94.1793 49.7368 88.8061 49.7368H85.4648V58.937C85.4648 64.3103 89.8207 68.6661 95.1938 68.6661Z" fill="#5A5A5A"/>
<path d="M88.8061 49.7368H85.4648V50.0167C89.7189 51.0563 92.877 54.8915 92.877 59.4659V68.3864C93.6197 68.5679 94.3951 68.6663 95.1939 68.6663H98.5352V59.4659C98.5352 54.0927 94.1793 49.7368 88.8061 49.7368Z" fill="#444444"/>
<path d="M47.5367 68.6661H44.1953V59.4659C44.1953 54.0927 48.5512 49.7368 53.9244 49.7368H57.2658V58.937C57.2658 64.3103 52.91 68.6661 47.5367 68.6661Z" fill="#5A5A5A"/>
<path d="M63.5148 51.9241H55.2281C52.2027 51.9241 49.75 49.4716 49.75 46.446C49.75 43.4206 52.2025 40.9679 55.2281 40.9679H63.5148V51.9241Z" fill="#FFB09E"/>
<path d="M79.2168 40.9679H87.5035C90.5289 40.9679 92.9816 43.4204 92.9816 46.446C92.9816 49.4714 90.5291 51.9241 87.5035 51.9241H79.2168V40.9679Z" fill="#FFA78F"/>
<path d="M71.3838 27.5253C62.4852 27.5253 55.2715 34.6501 55.2715 43.4387V44.5143V49.4628C55.2715 58.2516 62.4852 65.3762 71.3838 65.3762C80.2824 65.3762 87.4961 58.2514 87.4961 49.4628V43.4386C87.4963 34.6501 80.2824 27.5253 71.3838 27.5253Z" fill="#FFCEBF"/>
<path d="M71.3853 27.5253C70.5367 27.5253 69.7037 27.5911 68.8906 27.7159C76.6045 28.9003 82.5082 35.4882 82.5082 43.4387V49.463C82.5082 57.4136 76.6045 64.0014 68.8906 65.1858C69.7037 65.3106 70.5367 65.3764 71.3853 65.3764C80.284 65.3764 87.4977 58.2518 87.4977 49.463V43.4387C87.4978 34.6501 80.284 27.5253 71.3853 27.5253Z" fill="#FFB09E"/>
<path d="M62.3588 55.3773H59.2918C58.3732 55.3773 57.6289 54.633 57.6289 53.7144C57.6289 52.7959 58.3732 52.0515 59.2918 52.0515H62.3588C63.2773 52.0515 64.0217 52.7959 64.0217 53.7144C64.0217 54.633 63.2772 55.3773 62.3588 55.3773Z" fill="#FE8F83"/>
<path d="M83.5404 55.3773H80.4734C79.5549 55.3773 78.8105 54.633 78.8105 53.7144C78.8105 52.7959 79.5549 52.0515 80.4734 52.0515H83.5404C84.459 52.0515 85.2033 52.7959 85.2033 53.7144C85.2033 54.633 84.4588 55.3773 83.5404 55.3773Z" fill="#FE8F83"/>
<path d="M73.0742 18.2339C72.1309 18.2339 71.366 18.9985 71.366 19.9419C71.366 18.9985 70.6012 18.2339 69.6578 18.2339C59.4773 18.2339 51.2246 26.4866 51.2246 36.6671V40.9679H61.9809C67.1641 40.9679 71.3658 36.7661 71.366 31.5831C71.3662 36.7661 75.568 40.9679 80.7512 40.9679H91.5074V36.6671C91.5074 26.4866 83.2545 18.2339 73.0742 18.2339Z" fill="#5A5A5A"/>
<path d="M73.0729 18.2339C72.5834 18.2339 72.1434 18.4407 71.832 18.7704C79.8783 20.7501 85.8479 28.0097 85.8479 36.6669V40.9677H91.5061V36.6669C91.5061 26.4866 83.2531 18.2339 73.0729 18.2339Z" fill="#444444"/>
<path d="M72.0408 58.5845C74.6912 58.5845 76.8473 56.4283 76.8473 53.7781C76.8473 52.9689 76.1914 52.3132 75.3824 52.3132C74.5734 52.3132 73.9176 52.9689 73.9176 53.7781C73.9176 54.813 73.0756 55.6548 72.0408 55.6548C71.0061 55.6548 70.1641 54.8128 70.1641 53.7781C70.1641 52.9689 69.5082 52.3132 68.6992 52.3132C67.8902 52.3132 67.2344 52.9689 67.2344 53.7781C67.2342 56.4283 69.3904 58.5845 72.0408 58.5845Z" fill="black"/>
<path d="M79.7227 50.3677C80.5316 50.3677 81.1875 49.712 81.1875 48.9028V47.3722C81.9107 47.2825 82.4707 46.6659 82.4707 45.9185C82.4707 45.1093 81.8148 44.4536 81.0059 44.4536H79.7227C78.9137 44.4536 78.2578 45.1093 78.2578 45.9185V48.9028C78.2578 49.712 78.9137 50.3677 79.7227 50.3677Z" fill="black"/>
<path d="M62.8965 47.3724V48.9031C62.8965 49.7123 63.5523 50.3679 64.3613 50.3679C65.1703 50.3679 65.8262 49.7123 65.8262 48.9031V45.9187C65.8262 45.1095 65.1703 44.4539 64.3613 44.4539H63.0781C62.2691 44.4539 61.6133 45.1095 61.6133 45.9187C61.6133 46.666 62.1732 47.2828 62.8965 47.3724Z" fill="black"/>
<path d="M93.9346 49.1662C94.3504 48.2863 94.5842 47.3042 94.5842 46.2683C94.5842 44.5443 93.9387 42.9689 92.8783 41.7681C93.0467 41.5296 93.1463 41.2394 93.1463 40.9251C93.1463 36.5986 93.3623 34.0328 92.0607 30.3113C91.7936 29.5476 90.958 29.1443 90.1943 29.4121C89.4307 29.6791 89.0281 30.5148 89.2951 31.2785C90.359 34.3197 90.2164 36.4292 90.2164 39.4603C88.348 39.4603 83.3146 39.4603 81.1926 39.4603C76.9543 39.4603 73.5061 36.0123 73.5059 31.774C73.5059 30.9648 72.85 30.3091 72.041 30.3091C71.232 30.3091 70.5762 30.9648 70.5762 31.774C70.5762 36.0123 67.1279 39.4603 62.8895 39.4603H56.5246H53.8656V36.7314C53.8656 27.6279 61.2719 20.2216 70.3754 20.2216C70.4861 20.2216 70.5762 20.3117 70.5762 20.4224C70.5762 21.2314 71.232 21.8871 72.041 21.8871C72.85 21.8871 73.5059 21.2314 73.5059 20.4224C73.5059 20.3117 73.5959 20.2216 73.7066 20.2216C78.4791 20.2218 83.0164 22.2867 86.1555 25.8867C86.6871 26.4966 87.6125 26.5595 88.2223 26.0283C88.832 25.4964 88.8953 24.5712 88.3637 23.9615C84.6682 19.7232 79.326 17.2923 73.7068 17.2921C73.0951 17.2921 72.5238 17.4685 72.0412 17.773C71.5586 17.4685 70.9873 17.2921 70.3756 17.2921C59.6566 17.2921 50.9361 26.0126 50.9361 36.7316V40.9253C50.9361 41.2394 51.0359 41.5298 51.2041 41.7683C50.7123 42.3251 50.3096 42.9621 50.0197 43.6578C49.8438 41.4976 48.7539 39.6005 47.1268 38.3595V32.7789C47.1268 21.7914 38.1879 12.8525 27.2004 12.8525C24.4723 12.8525 25.5654 12.8054 21.792 13.1003C16.5869 13.5066 11.9289 16.2919 9.10918 20.6251L4.69785 19.2152C3.78379 18.9222 2.83477 19.5773 2.78867 20.5406C2.76777 20.982 2.32578 30.7917 4.11445 37.6244C1.67754 38.8466 0 41.3679 0 44.2751C0 48.0474 2.82344 51.1728 6.46816 51.649C7.38555 55.5849 9.55273 59.1578 12.6529 61.8076C13.4658 62.5023 14.3332 63.1206 15.2414 63.664H12.159C7.09434 63.664 2.97402 67.7845 2.97402 72.849V85.6855C2.97402 86.4947 3.62988 87.1503 4.43887 87.1503H6.87227C7.68125 87.1503 8.33711 86.4947 8.33711 85.6855C8.33711 84.8763 7.68125 84.2206 6.87227 84.2206H5.90371V72.849C5.90371 69.3998 8.70977 66.5937 12.159 66.5937H16.4203C17.1482 70.9128 21.0545 74.1603 25.618 73.8658C29.749 73.5996 33.0221 70.4914 33.6797 66.5937H37.9416C41.3908 66.5937 44.1971 69.3998 44.1971 72.849V84.2206H13.7084C12.8994 84.2206 12.2436 84.8763 12.2436 85.6855C12.2436 86.4947 12.8994 87.1503 13.7084 87.1503H45.6621C46.4711 87.1503 47.127 86.4947 47.127 85.6855V72.849C47.127 71.6292 46.8859 70.4652 46.4523 69.3994H48.8059C50.2795 69.3994 51.685 69.105 52.9695 68.5749C52.0658 69.9724 51.5389 71.6353 51.5389 73.4197V85.6855C51.5389 86.4947 52.1947 87.1503 53.0037 87.1503H91.1775C91.9865 87.1503 92.6424 86.4947 92.6424 85.6855V73.4197C92.6424 71.6574 92.1283 70.0136 91.2451 68.6269C92.4939 69.1234 93.8535 69.3994 95.2773 69.3994H98.5352C99.3441 69.3994 100 68.7437 100 67.9345V58.963C100 54.79 97.5814 50.9958 93.9346 49.1662ZM62.8898 42.3902C66.7832 42.3902 70.1937 40.2839 72.0414 37.1505C73.8893 40.2839 77.2996 42.3902 81.193 42.3902H87.7764C89.9148 42.3902 91.6545 44.1298 91.6545 46.2683C91.6545 47.314 91.2367 48.2624 90.5617 48.9605C89.7904 49.7574 88.7209 50.1869 87.6209 50.1421C86.8801 50.108 86.2361 50.6347 86.1143 51.364C84.9998 58.0267 79.2361 63.2617 72.0414 63.2617C66.9582 63.2617 62.21 60.5744 59.6551 56.1052C59.6312 56.0449 59.6039 55.9857 59.5721 55.9287C58.9756 54.8587 58.5232 53.7285 58.2213 52.5558C58.2152 52.5324 58.2104 52.5085 58.2045 52.4851C58.1213 52.1546 58.0422 51.8041 57.9686 51.3638C57.8469 50.6363 57.2002 50.1083 56.4619 50.1419C54.2697 50.231 52.4283 48.4624 52.4283 46.2679C52.4283 44.1294 54.1682 42.3898 56.3064 42.3898C56.3598 42.3898 56.4129 42.3921 56.4658 42.3941C56.5283 42.3966 56.5898 42.3951 56.6508 42.3898H62.8898V42.3902ZM72.0654 72.3533C69.2783 72.3533 67.0107 70.0857 67.0107 67.2984V65.9347V65.4423C68.6732 65.9525 70.4094 66.1917 72.0412 66.1917C73.7266 66.1917 75.4816 65.9359 77.1199 65.4277V67.2986C77.1199 69.9988 74.9918 72.2113 72.325 72.3468C72.2391 72.3511 72.1525 72.3533 72.0654 72.3533ZM60.4867 64.4699C60.4863 64.4699 60.4855 64.4699 60.485 64.4699C59.4809 64.4703 58.516 64.6394 57.6143 64.946C58.5195 63.7222 59.1752 62.3039 59.508 60.7662C59.9377 61.2238 60.392 61.6611 60.8729 62.072C61.8629 62.9181 62.9404 63.6419 64.0811 64.2373V64.4699H60.4867ZM80.0498 64.2132C81.708 63.3412 83.2252 62.2035 84.5746 60.7664C84.9035 62.2857 85.5482 63.6882 86.4371 64.9021C84.7646 64.3619 83.892 64.4699 80.05 64.4699L80.0498 64.2132ZM5.66719 22.6005L9.32129 23.7683C9.98711 23.9806 10.7109 23.6937 11.0492 23.0816C13.2936 19.0214 17.3949 16.3818 22.0201 16.021C25.7027 15.7335 24.5861 15.782 27.2004 15.782C36.5723 15.782 44.1971 23.4066 44.1971 32.7787V37.0101C42.917 36.7345 43.3219 36.8443 23.232 36.8443C21.7715 36.8443 20.3725 36.5197 19.1119 35.9335C16.3387 34.6441 14.2355 32.0888 13.6195 28.94C13.3842 27.7369 11.9033 27.3749 11.1123 28.2205C8.99922 30.4794 7.52187 33.1554 6.71973 35.9326C5.7125 31.3763 5.63105 25.5621 5.66719 22.6005ZM9.12441 49.9992C9.00586 49.2908 8.39277 48.7759 7.68027 48.7759C7.66055 48.7759 7.64063 48.7763 7.6207 48.7771C7.55957 48.7796 7.49844 48.782 7.43672 48.782C4.95156 48.782 2.92969 46.7603 2.92969 44.2751C2.92969 41.8318 4.87734 39.8568 7.27305 39.7722C7.27891 39.772 7.28496 39.772 7.29082 39.7718C7.3998 39.7685 7.50879 39.7685 7.61719 39.773C7.61953 39.773 7.62187 39.773 7.62422 39.7732C7.62871 39.7734 7.6332 39.7728 7.6377 39.773C8.36836 39.7957 9.00352 39.2736 9.12441 38.5511C9.45508 36.574 10.1494 34.6931 11.1678 32.988C11.3133 32.7445 11.4654 32.5044 11.624 32.2683C13.6404 36.7466 18.1488 39.7742 23.232 39.7742H42.8209H42.8219C43.533 39.807 44.2736 40.0216 44.9121 40.4019C44.9234 40.4087 44.9355 40.4132 44.9471 40.4197C46.2521 41.2089 47.117 42.6386 47.117 44.2749C47.117 46.7601 45.0951 48.7818 42.61 48.7818C42.5482 48.7818 42.4869 48.7792 42.4258 48.7769C41.6889 48.7505 41.0439 49.271 40.9221 49.999C39.5945 57.9373 32.7637 63.4406 25.0232 63.4406C17.2232 63.4408 10.4426 57.8808 9.12441 49.9992ZM24.7564 70.949C21.89 70.8056 19.5529 68.5759 19.2596 65.7326C19.2574 65.7113 19.2563 65.6896 19.2543 65.6681C19.2484 65.6048 19.2436 65.5412 19.2398 65.4773C21.1689 66.0929 23.1805 66.3703 25.0236 66.3703C26.9016 66.3703 28.9293 66.0831 30.8631 65.4591C30.6859 68.6494 27.951 71.1085 24.7564 70.949ZM37.9418 63.664H34.8057C35.7139 63.1206 36.5812 62.5023 37.3941 61.8076C40.4941 59.158 42.6615 55.5851 43.5787 51.649C46.3016 51.2933 48.5656 49.4587 49.5367 46.9806C49.6176 47.7548 49.8287 48.4908 50.1479 49.1662C46.501 50.9958 44.0824 54.7898 44.0824 58.963V66.0253C42.4543 64.5585 40.3008 63.664 37.9418 63.664ZM47.0123 66.4697V58.963C47.0123 55.7035 49.026 52.758 51.9973 51.5382C52.9703 52.3328 54.142 52.832 55.3135 53.0041C55.6518 54.4171 56.1844 55.7974 56.8275 57.014V58.4472C56.8275 62.8707 53.2289 66.4695 48.8055 66.4695H47.0123V66.4697ZM89.7125 84.2206H54.4684V73.4197C54.4684 70.1001 57.1691 67.3996 60.4887 67.3996H64.0818C64.1357 71.7251 67.6721 75.283 72.0654 75.283C76.4086 75.283 79.9943 71.7798 80.0492 67.3996H83.6922C87.0117 67.3996 89.7123 70.1001 89.7123 73.4197V84.2206H89.7125ZM97.0703 66.4697H95.277C90.8535 66.4697 87.2549 62.8708 87.2549 58.4474V57.0142C87.9076 55.7794 88.435 54.3994 88.7689 53.0042C89.8695 52.8427 90.9793 52.3955 91.9445 51.6456C91.9912 51.6095 92.0395 51.5759 92.0852 51.5386C95.0566 52.7581 97.0703 55.7035 97.0703 58.963V66.4697Z" fill="black"/>
<path d="M25.0242 57.8936C27.8914 57.8936 30.224 55.561 30.224 52.6938C30.224 51.8847 29.5682 51.229 28.7592 51.229C27.9502 51.229 27.2943 51.8847 27.2943 52.6938C27.2943 53.9456 26.276 54.964 25.0242 54.964C23.7725 54.964 22.7539 53.9456 22.7539 52.6938C22.7539 51.8847 22.098 51.229 21.2891 51.229C20.4801 51.229 19.8242 51.8847 19.8242 52.6938C19.8244 55.5608 22.157 57.8936 25.0242 57.8936Z" fill="black"/>
<path d="M16.4395 42.4929C15.6305 42.4929 14.9746 43.1486 14.9746 43.9578V47.1964C14.9746 48.0056 15.6305 48.6613 16.4395 48.6613C17.2484 48.6613 17.9043 48.0056 17.9043 47.1964V43.9578C17.9043 43.1488 17.2484 42.4929 16.4395 42.4929Z" fill="black"/>
<path d="M33.6074 48.6613C34.4164 48.6613 35.0723 48.0056 35.0723 47.1964V43.9578C35.0723 43.1486 34.4164 42.4929 33.6074 42.4929C32.7984 42.4929 32.1426 43.1486 32.1426 43.9578V47.1964C32.1426 48.0056 32.7984 48.6613 33.6074 48.6613Z" fill="black"/>
</g>
<defs>
<clipPath id="clip0_419_2413">
<rect width="100" height="100" fill="white"/>
</clipPath>
</defs>
</svg>
