<svg width="100" height="100" viewBox="0 0 100 100" fill="none" xmlns="http://www.w3.org/2000/svg">
<g clip-path="url(#clip0_562_4419)">
<path d="M41.985 9.89805C39.575 8.86465 36.9816 8.33301 34.36 8.33301C23.6684 8.33301 15 16.9996 15 27.693C15 36.8246 17.5666 45.773 22.4066 53.5162L23.3334 54.9996L27.6484 86.6379C28.0418 89.518 30.5018 91.6662 33.4084 91.6662C36.25 91.6662 38.675 89.6111 39.1434 86.8078L44.1783 56.5979C44.6533 53.7512 47.115 51.6662 50 51.6662C52.885 51.6662 55.3467 53.7512 55.8217 56.5979L60.8566 86.8078C61.325 89.6111 63.75 91.6662 66.5916 91.6662C69.4982 91.6662 71.9582 89.518 72.3516 86.6379L76.6666 54.9996L77.5934 53.5162C82.4334 45.7728 85 36.8246 85 27.693C85 16.9996 76.3316 8.33301 65.64 8.33301C63.0184 8.33301 60.425 8.86641 58.015 9.89805C52.8967 12.0914 47.1033 12.0914 41.985 9.89805Z" fill="#E6E6E6"/>
<path d="M74.9998 10.7498C64.3781 36.0266 40.6549 50.6564 23.7715 58.2197L27.6482 86.6381C28.0732 89.8197 30.9965 92.0564 34.1783 91.6314C36.7166 91.2932 38.735 89.3332 39.1482 86.8047L44.1832 56.5947C44.7182 53.3797 47.7582 51.2064 50.9732 51.7414C53.4615 52.1547 55.4133 54.1064 55.8266 56.5947L60.8615 86.8047C61.3781 89.973 64.3648 92.123 67.5348 91.608C70.0631 91.1963 72.023 89.1779 72.3615 86.6381L76.6666 54.9998L77.5934 53.5164C82.4334 45.773 85 36.8248 85 27.6932C84.9998 20.6447 81.1697 14.1547 74.9998 10.7498Z" fill="#DEDEDE"/>
<path d="M69.5181 86.176L79.5176 76.1765L77.1605 73.8194L67.161 83.8189L69.5181 86.176Z" fill="#A2DAEB"/>
<path d="M98.3334 49.9998L75 73.333L80 78.333L98.3334 59.9998V49.9998Z" fill="#4398D1"/>
<path d="M60.0006 98.3332C66.4439 98.3332 71.6672 94.6022 71.6672 89.9998C71.6672 85.3974 66.4439 81.6664 60.0006 81.6664C53.5573 81.6664 48.334 85.3974 48.334 89.9998C48.334 94.6022 53.5573 98.3332 60.0006 98.3332Z" fill="#A2DAEB"/>
<path d="M24.9994 29.9998H21.666C21.666 21.0082 27.9994 17.3682 31.3326 16.6998L31.9859 19.9664L31.666 18.333L31.9994 19.9647C31.716 20.0264 24.9994 21.5481 24.9994 29.9998Z" fill="#F7F7F7"/>
<path d="M38.3334 16.6664H35V19.9998H38.3334V16.6664Z" fill="#F7F7F7"/>
<path d="M15.0012 32.5529L21.668 25.8861L15.0012 19.2194L8.33444 25.8861L15.0012 32.5529Z" fill="#A2DAEB"/>
<path d="M31.2322 51.6664C27.4805 51.6631 24.4439 48.6182 24.4473 44.8682C24.449 43.8148 24.6939 42.7766 25.1672 41.8332L26.3121 39.5432L17.1621 30.3932L19.5188 28.0365L28.6688 37.1865C29.6838 38.2016 29.9354 39.7516 29.2938 41.0348L28.142 43.333C27.2902 45.043 27.9854 47.1197 29.6938 47.9713C30.5754 48.4113 31.6037 48.4529 32.5188 48.0879L37.7137 45.9996L38.9537 49.0945L33.7555 51.1728C32.9539 51.4963 32.0973 51.6646 31.2322 51.6664Z" fill="#A2DAEB"/>
<path d="M1.66602 1.66641L16.666 17.5547L6.66602 27.5547L1.66602 23.333V1.66641Z" fill="#4398D1"/>
<path d="M5.5916 28.833C6.25332 29.3914 7.2332 29.3496 7.84492 28.7381L8.3332 28.2447L13.8215 33.733C14.4732 34.383 15.5281 34.383 16.1781 33.733L18.3332 31.5779L26.3049 39.5496L25.1666 41.833C23.4916 45.1863 24.8516 49.2613 28.2049 50.9381C29.9398 51.8047 31.9615 51.8881 33.7615 51.1664L38.9598 49.0881L37.7131 45.9998L32.5182 48.0799C30.7432 48.785 28.7332 47.9166 28.0281 46.1416C27.6664 45.2316 27.7082 44.21 28.1414 43.3332L29.2863 41.0432C29.9279 39.7598 29.6764 38.2098 28.6613 37.1949L20.6896 29.2232L22.8447 27.0682C23.4947 26.4164 23.4947 25.3615 22.8447 24.7115L17.3564 19.2232L17.8447 18.735C18.483 18.0967 18.498 17.0666 17.8781 16.4117L2.87812 0.523435C2.24648 -0.146487 1.19141 -0.176565 0.521484 0.456834C0.190039 0.769724 0 1.20801 0 1.6664V23.333C0 23.8246 0.216602 24.2896 0.591602 24.6062L5.5916 28.833ZM19.31 25.893L15 30.198L10.69 25.8881L15 21.5781L19.31 25.893ZM3.3334 5.85976L14.3434 17.5264L13.8217 18.048L7.15508 24.7146L6.57168 25.298L3.3334 22.5598V5.85976Z" fill="black"/>
<path d="M98.9711 48.4598C98.3479 48.2014 97.6311 48.3447 97.1545 48.8215L73.8211 72.1547C73.1711 72.8047 73.1711 73.8613 73.8211 74.5113L75.1428 75.833L68.6027 82.3731C66.016 80.7863 63.0328 79.9631 59.9994 79.9998C52.6477 79.9998 46.666 84.4848 46.666 89.9998C46.666 95.5149 52.6477 99.9998 59.9994 99.9998C67.3512 99.9998 73.3328 95.5149 73.3328 89.9998C73.2994 87.9731 72.5244 86.0299 71.1527 84.5365L77.4994 78.1899L78.8211 79.5115C79.4711 80.1615 80.5277 80.1615 81.1777 79.5115L99.5111 61.1781C99.8244 60.8649 99.9994 60.4414 99.9994 59.9998V49.9998C99.9994 49.3248 99.5943 48.718 98.9711 48.4598ZM59.9994 96.6664C54.5795 96.6664 49.9994 93.6131 49.9994 89.9998C49.9994 86.3865 54.5795 83.3332 59.9994 83.3332C65.4193 83.3332 69.9994 86.3865 69.9994 89.9998C69.9994 93.6131 65.4193 96.6664 59.9994 96.6664ZM96.666 59.3098L79.9994 75.9764L77.3561 73.333L96.666 54.0231V59.3098Z" fill="black"/>
<path d="M50.0006 53.333C52.0738 53.3264 53.8439 54.8279 54.1789 56.873L57.5238 76.9414L60.8105 76.3914L57.4656 56.323C56.7773 52.1998 52.8773 49.4164 48.7539 50.1047C45.5656 50.6363 43.0672 53.1348 42.5355 56.323L37.5006 86.533C37.1238 88.793 34.9855 90.3197 32.7256 89.9414C30.934 89.6432 29.5455 88.2131 29.2988 86.4131L24.9855 54.7748C24.9555 54.5381 24.8738 54.3115 24.7473 54.1082L23.8205 52.6248C20.9973 48.1131 18.9639 43.1531 17.8039 37.9582L14.5488 38.685C15.7922 44.2516 17.9738 49.565 21.0006 54.4L21.7373 55.5801L26.0039 86.8635C26.5605 90.9568 30.3307 93.8234 34.4238 93.2668C37.6721 92.8252 40.2539 90.3185 40.7937 87.0834L45.8287 56.8734C46.1639 54.8297 47.9307 53.3297 50.0006 53.333Z" fill="black"/>
<path d="M34.3602 9.9998C36.7568 9.99648 39.1268 10.4832 41.3285 11.4299C46.8686 13.7932 53.1318 13.7932 58.6719 11.4299C67.6535 7.58164 78.0553 11.7432 81.9035 20.7248C82.8469 22.9266 83.3336 25.2965 83.3336 27.6932C83.3369 36.5131 80.8568 45.1564 76.1803 52.6332L75.2535 54.1166C75.1268 54.3199 75.0451 54.5467 75.0152 54.7832L73.652 64.7832L76.9537 65.2332L78.2703 55.5883L79.007 54.4082C84.017 46.3982 86.6721 37.1398 86.667 27.6932C86.667 16.0799 77.252 6.6664 65.6402 6.6664C62.7936 6.6664 59.9752 7.24472 57.3586 8.3664C52.6568 10.3697 47.3436 10.3697 42.642 8.3664C34.3836 4.82636 24.7902 6.9248 18.7637 13.5896L21.2369 15.833C24.5918 12.123 29.3586 10.0047 34.3602 9.9998Z" fill="black"/>
</g>
<defs>
<clipPath id="clip0_562_4419">
<rect width="100" height="100" fill="white"/>
</clipPath>
</defs>
</svg>
