<svg width="100" height="100" viewBox="0 0 100 100" fill="none" xmlns="http://www.w3.org/2000/svg">
<g clip-path="url(#clip0_430_613)">
<path d="M68.9398 90.2486C61.6398 83.3432 61.8371 74.4648 61.8371 74.4648H38.1613C38.1613 74.4648 38.3586 83.3432 31.0586 90.2486H68.9398Z" fill="#2B4D66"/>
<path d="M94.5893 74.4648H5.41074C3.23145 74.4648 1.46484 72.6982 1.46484 70.5189V7.38376C1.46484 5.20447 3.23145 3.43787 5.41074 3.43787H94.5891C96.7684 3.43787 98.535 5.20447 98.535 7.38376V70.5189C98.5352 72.6982 96.7686 74.4648 94.5893 74.4648Z" fill="#90D8F9"/>
<path d="M94.5885 3.43787H90.8398C93.0191 3.43787 94.7857 5.20447 94.7857 7.38376V70.5189C94.7857 72.6982 93.0191 74.4648 90.8398 74.4648H94.5885C96.7678 74.4648 98.5344 72.6982 98.5344 70.5189V7.38376C98.5344 5.20447 96.7678 3.43787 94.5885 3.43787Z" fill="#75CEF9"/>
<path d="M92.2207 9.75122V62.2323H7.77734V9.75122H92.2207Z" fill="#ECF4FF"/>
<path d="M24.3516 95.3783V91.4324C24.3516 90.7787 24.8816 90.2487 25.5354 90.2487H74.465C75.1187 90.2487 75.6488 90.7787 75.6488 91.4324V95.3783C75.6488 96.0321 75.1187 96.5621 74.465 96.5621H25.5354C24.8814 96.5621 24.3516 96.0323 24.3516 95.3783Z" fill="#4A80AA"/>
<path d="M74.4658 90.2487H68.5469C69.2006 90.2487 69.7307 90.7787 69.7307 91.4324V95.3783C69.7307 96.0321 69.2006 96.5621 68.5469 96.5621H74.4658C75.1195 96.5621 75.6496 96.0321 75.6496 95.3783V91.4324C75.6496 90.7787 75.1197 90.2487 74.4658 90.2487Z" fill="#407093"/>
<path d="M14.0918 17.8406H23.1674V25.7326H14.0918V17.8406Z" fill="#78D090"/>
<path d="M14.0918 32.0459H23.1674V39.9379H14.0918V32.0459Z" fill="#78D090"/>
<path d="M14.0918 46.2513H23.1674V54.1433H14.0918V46.2513Z" fill="#78D090"/>
<path d="M68.9414 37.1755L74.0316 54.1431L77.4252 45.6593L85.909 42.266L68.9414 37.1755Z" fill="#E490B7"/>
<path d="M94.5898 1.97266H5.41016C2.42695 1.97266 0 4.39941 0 7.38281V70.5195C0 73.5027 2.42695 75.9297 5.41016 75.9297H14.0625C14.8717 75.9297 15.5273 75.274 15.5273 74.4648C15.5273 73.6557 14.8717 73 14.0625 73H5.41016C4.04238 73 2.92969 71.8873 2.92969 70.5195V7.38281C2.92969 6.01504 4.04238 4.90234 5.41016 4.90234H94.5898C95.9576 4.90234 97.0703 6.01504 97.0703 7.38281V70.5195C97.0703 71.8873 95.9576 73 94.5898 73H20.8984C20.0893 73 19.4336 73.6557 19.4336 74.4648C19.4336 75.274 20.0893 75.9297 20.8984 75.9297H36.6094C36.3305 78.5023 35.1801 84.0754 30.4645 88.7834H25.5352C24.0746 88.7834 22.8865 89.9715 22.8865 91.4318V95.3791C22.8865 96.8396 24.0746 98.0277 25.5352 98.0277H61.9707C62.7799 98.0277 63.4355 97.3721 63.4355 96.5629C63.4355 95.7537 62.7799 95.098 61.9707 95.098H25.8164V91.7133H74.1836V95.098H68.8066C67.9975 95.098 67.3418 95.7537 67.3418 96.5629C67.3418 97.3721 67.9975 98.0277 68.8066 98.0277H74.4648C75.9254 98.0277 77.1135 96.8396 77.1135 95.3791V91.4318C77.1135 89.9715 75.9254 88.7834 74.4648 88.7834H69.5357C64.8463 84.0986 63.6832 78.5084 63.3959 75.9297H94.5898C97.573 75.9297 100 73.5027 100 70.5195V7.38281C100 4.39941 97.573 1.97266 94.5898 1.97266ZM65.6125 88.7832H34.3875C38.3625 83.7818 39.327 78.4621 39.5568 75.9295H60.443C60.673 78.4623 61.6375 83.7818 65.6125 88.7832Z" fill="black"/>
<path d="M82.4785 63.6973H92.2207C93.0299 63.6973 93.6856 63.0416 93.6856 62.2324V9.75195C93.6856 8.94277 93.0299 8.28711 92.2207 8.28711H7.7793C6.97012 8.28711 6.31445 8.94277 6.31445 9.75195V62.2324C6.31445 63.0416 6.97012 63.6973 7.7793 63.6973H75.6426C76.4518 63.6973 77.1074 63.0416 77.1074 62.2324C77.1074 61.4232 76.4518 60.7676 75.6426 60.7676H9.24414V11.2168H90.7559V60.7676H82.4785C81.6693 60.7676 81.0137 61.4232 81.0137 62.2324C81.0137 63.0416 81.6693 63.6973 82.4785 63.6973Z" fill="black"/>
<path d="M24.6324 17.8406C24.6324 17.0314 23.9768 16.3757 23.1676 16.3757H14.0918C13.2826 16.3757 12.627 17.0314 12.627 17.8406V25.7324C12.627 26.5416 13.2826 27.1972 14.0918 27.1972H23.1676C23.9768 27.1972 24.6324 26.5416 24.6324 25.7324V17.8406ZM21.7027 24.2675H15.5566V19.3054H21.7027V24.2675Z" fill="black"/>
<path d="M31.0586 27.1973H55.5234C56.3326 27.1973 56.9883 26.5416 56.9883 25.7324C56.9883 24.9232 56.3326 24.2676 55.5234 24.2676H31.0586C30.2494 24.2676 29.5938 24.9232 29.5938 25.7324C29.5938 26.5416 30.2496 27.1973 31.0586 27.1973Z" fill="black"/>
<path d="M62.6262 16.3757H42.502C41.6928 16.3757 41.0371 17.0314 41.0371 17.8406C41.0371 18.6498 41.6928 19.3054 42.502 19.3054H62.6262C63.4354 19.3054 64.091 18.6498 64.091 17.8406C64.091 17.0314 63.4354 16.3757 62.6262 16.3757Z" fill="black"/>
<path d="M31.0586 19.3054H35.5963C36.4055 19.3054 37.0611 18.6498 37.0611 17.8406C37.0611 17.0314 36.4055 16.3757 35.5963 16.3757H31.0586C30.2494 16.3757 29.5938 17.0314 29.5938 17.8406C29.5938 18.6498 30.2496 19.3054 31.0586 19.3054Z" fill="black"/>
<path d="M24.6324 32.0459C24.6324 31.2367 23.9768 30.5811 23.1676 30.5811H14.0918C13.2826 30.5811 12.627 31.2367 12.627 32.0459V39.9377C12.627 40.7469 13.2826 41.4025 14.0918 41.4025H23.1676C23.9768 41.4025 24.6324 40.7469 24.6324 39.9377V32.0459ZM21.7027 38.4729H15.5566V33.5107H21.7027V38.4729Z" fill="black"/>
<path d="M31.0586 41.4026H55.5234C56.3326 41.4026 56.9883 40.7469 56.9883 39.9377C56.9883 39.1286 56.3326 38.4729 55.5234 38.4729H31.0586C30.2494 38.4729 29.5938 39.1286 29.5938 39.9377C29.5938 40.7469 30.2496 41.4026 31.0586 41.4026Z" fill="black"/>
<path d="M62.6262 30.5811H42.502C41.6928 30.5811 41.0371 31.2367 41.0371 32.0459C41.0371 32.8551 41.6928 33.5107 42.502 33.5107H62.6262C63.4354 33.5107 64.091 32.8551 64.091 32.0459C64.091 31.2367 63.4354 30.5811 62.6262 30.5811Z" fill="black"/>
<path d="M31.0586 33.5107H35.5963C36.4055 33.5107 37.0611 32.8551 37.0611 32.0459C37.0611 31.2367 36.4055 30.5811 35.5963 30.5811H31.0586C30.2494 30.5811 29.5938 31.2367 29.5938 32.0459C29.5938 32.8551 30.2496 33.5107 31.0586 33.5107Z" fill="black"/>
<path d="M23.1676 44.7865H14.0918C13.2826 44.7865 12.627 45.4422 12.627 46.2513V54.1433C12.627 54.9525 13.2826 55.6082 14.0918 55.6082H23.1676C23.9768 55.6082 24.6324 54.9525 24.6324 54.1433V46.2513C24.6324 45.4422 23.9768 44.7865 23.1676 44.7865ZM21.7027 52.6785H15.5566V47.7162H21.7027V52.6785Z" fill="black"/>
<path d="M31.0586 55.6082H55.5234C56.3326 55.6082 56.9883 54.9525 56.9883 54.1433C56.9883 53.3341 56.3326 52.6785 55.5234 52.6785H31.0586C30.2494 52.6785 29.5938 53.3341 29.5938 54.1433C29.5938 54.9525 30.2496 55.6082 31.0586 55.6082Z" fill="black"/>
<path d="M64.091 46.2513C64.091 45.4422 63.4354 44.7865 62.6262 44.7865H42.502C41.6928 44.7865 41.0371 45.4422 41.0371 46.2513C41.0371 47.0605 41.6928 47.7162 42.502 47.7162H62.6262C63.4354 47.7162 64.091 47.0603 64.091 46.2513Z" fill="black"/>
<path d="M31.0586 47.7162H35.5963C36.4055 47.7162 37.0611 47.0605 37.0611 46.2513C37.0611 45.4422 36.4055 44.7865 35.5963 44.7865H31.0586C30.2494 44.7865 29.5938 45.4422 29.5938 46.2513C29.5938 47.0605 30.2496 47.7162 31.0586 47.7162Z" fill="black"/>
<path d="M87.3724 42.2006C87.3446 41.5783 86.9267 41.0416 86.33 40.8627L69.3624 35.7725C68.8458 35.6174 68.2868 35.7588 67.9056 36.1397C67.5247 36.5207 67.3835 37.0803 67.5384 37.5965L72.6286 54.5641C72.8075 55.1608 73.3442 55.5787 73.9665 55.6064C73.9884 55.6076 74.0104 55.608 74.0321 55.608C74.6286 55.608 75.1687 55.2451 75.3919 54.6871L78.552 46.7861L86.453 43.6258C87.0313 43.3947 87.4001 42.8229 87.3724 42.2006ZM76.8812 44.2992C76.5089 44.4482 76.214 44.743 76.0649 45.1154L74.2296 49.7045L71.1263 39.3604L81.4704 42.4637L76.8812 44.2992Z" fill="black"/>
</g>
<defs>
<clipPath id="clip0_430_613">
<rect width="100" height="100" fill="white"/>
</clipPath>
</defs>
</svg>
