<svg width="100" height="100" viewBox="0 0 100 100" fill="none" xmlns="http://www.w3.org/2000/svg">
<g clip-path="url(#clip0_319_2383)">
<path d="M97.9994 34.0332L97.1991 31.5834C96.8825 30.6373 95.9967 29.9995 94.9988 29.9995C94.0016 29.9995 93.1158 30.6373 92.7992 31.5834L92.4994 32.4997L92.1988 33.4335L92.0157 33.9668C91.7822 34.6496 91.6655 34.9998 91.6655 34.9998H79.9994C79.9994 34.9998 79.949 34.8335 79.8323 34.4833L78.8657 31.5834C78.549 30.6373 77.6633 29.9995 76.6661 29.9995C75.6682 29.9995 74.7824 30.6373 74.4658 31.5834L74.166 32.4836L73.4991 34.4833C73.387 34.8221 73.3305 35.1768 73.3321 35.5331V96.6667C73.3305 97.2602 73.6494 97.808 74.166 98.1002C74.417 98.2521 74.7054 98.3329 74.9991 98.3329H78.3324C79.2532 98.3329 79.9994 97.5868 79.9994 96.6667V84.9998H91.6655V96.6667C91.664 97.2602 91.9821 97.808 92.4994 98.1002C92.7504 98.2521 93.0388 98.3329 93.3325 98.3329H96.6658C97.5859 98.3329 98.3321 97.5868 98.3321 96.6667V36.0832C98.3305 35.3866 98.2176 34.6946 97.9994 34.0332ZM88.3322 41.6664C88.613 41.6664 88.893 41.6999 89.1661 41.7663C89.7551 41.9281 90.2907 42.2447 90.7156 42.6834C91.3229 43.3021 91.6632 44.1337 91.6655 44.9997V53.3332C91.6685 54.8668 90.6218 56.2019 89.1325 56.5666H89.1157C88.8602 56.6337 88.597 56.6673 88.3322 56.6665H83.3327C81.494 56.6612 80.0047 55.1719 79.9994 53.3332V44.9997C80.0047 43.161 81.494 41.6725 83.3327 41.6664H88.3322ZM88.3322 78.3332H83.3327C81.494 78.3279 80.0047 76.8386 79.9994 75V66.6664C80.0131 64.8826 81.4169 63.4201 83.1992 63.3331H88.3322C90.1709 63.3384 91.6602 64.8277 91.6655 66.6664V75C91.6602 76.8386 90.1709 78.3279 88.3322 78.3332Z" fill="#CB4315"/>
<path d="M92.9991 34.0332L92.4994 32.4997L92.1988 33.4335L92.0157 33.9668C91.7822 34.6496 91.6655 34.9998 91.6655 34.9998H74.9991C74.9991 34.9998 74.9487 34.8335 74.8328 34.4833L74.166 32.4836L73.4991 34.4833C73.387 34.8221 73.3305 35.1768 73.3321 35.5331V96.6667C73.3305 97.2602 73.6494 97.808 74.166 98.1002C74.6825 97.808 75.0014 97.2602 74.9991 96.6667V84.9998H91.6655V96.6667C91.664 97.2602 91.9821 97.808 92.4994 98.1002C93.0159 97.808 93.334 97.2602 93.3325 96.6667V36.0832C93.3302 35.3866 93.2181 34.6946 92.9991 34.0332ZM88.3322 78.3332H78.3324C76.4937 78.3279 75.0044 76.8386 74.9991 75V66.6664C75.0128 64.8826 76.4174 63.4201 78.1989 63.3331H88.3322C90.1709 63.3384 91.6602 64.8277 91.6655 66.6664V75C91.6602 76.8386 90.1709 78.3279 88.3322 78.3332ZM89.1325 56.5666H89.1158C88.8602 56.6337 88.597 56.6673 88.3322 56.6665H78.3324C76.4937 56.6612 75.0044 55.1719 74.9991 53.3332V44.9997C75.0044 43.161 76.4937 41.6725 78.3324 41.6664H88.3322C88.613 41.6664 88.893 41.6999 89.1661 41.7663C89.7551 41.9281 90.2907 42.2447 90.7156 42.6834C91.3229 43.3021 91.6632 44.1337 91.6655 44.9997V53.3332C91.6685 54.8668 90.6218 56.2019 89.1325 56.5666Z" fill="#FF5722"/>
<path d="M89.6994 72.062C87.5495 72.0803 85.0661 72.152 82.3821 72.3481C82.0159 72.3832 81.6657 72.4015 81.2827 72.4366C77.7854 72.7166 74.3071 73.1988 70.8655 73.8816C70.5161 73.935 70.1827 74.0067 69.8325 74.0769C66.9394 74.6728 64.0838 75.441 61.2822 76.3787C60.7657 76.545 60.2492 76.7121 59.7495 76.8952C57.1113 77.8412 54.544 78.9734 52.0659 80.2834C51.8989 80.3719 51.7325 80.4619 51.5655 80.5687C49.2583 81.8177 47.0618 83.2612 44.9988 84.8832L31.6657 86.6669H11.666C18.0106 83.0384 24.7123 80.0744 31.6657 77.8214V77.7505C31.6657 77.7505 50.5492 69.8334 89.6994 72.062Z" fill="#607D80"/>
<path d="M43.5343 5.20018L40.9845 2.64967C40.3574 2.02101 39.5059 1.66701 38.6179 1.66701H38.051C37.2293 1.66548 36.4374 1.97523 35.8339 2.5337C35.7767 2.56117 35.7256 2.60084 35.6844 2.64967L33.1346 5.20018C32.905 5.46644 32.7242 5.77086 32.6006 6.09968C31.637 8.45564 29.3459 9.99601 26.8007 9.99983H20.2509C17.5585 9.9365 15.1873 8.20997 14.3007 5.66633C14.2633 5.57478 14.2191 5.48552 14.168 5.40007L11.2345 2.78319C9.73147 1.42286 7.48538 1.29164 5.83438 2.46657C5.70087 2.56651 5.56735 2.66646 5.4346 2.78319L2.5011 5.40007C1.96323 6.22938 1.67407 7.19526 1.66797 8.18327V98.3329C1.66797 99.2538 2.41412 100 3.33423 100H15.0011V78.3332C15.0064 76.4946 16.4957 75.0053 18.3344 75H28.3342C30.1729 75.0053 31.6622 76.4946 31.6675 78.3332V100H45.0006V8.73335C44.9968 7.40812 44.4696 6.13859 43.5343 5.20018ZM31.6675 61.6668C31.6622 63.5055 30.1729 64.9948 28.3342 65.0001H18.3344C16.4957 64.9948 15.0064 63.5055 15.0011 61.6668V51.667C15.0064 49.8283 16.4957 48.3391 18.3344 48.3329H28.3342C30.1729 48.3391 31.6622 49.8283 31.6675 51.667V61.6668ZM31.6675 34.9998C31.6622 36.8385 30.1729 38.3278 28.3342 38.3331H18.3344C16.4957 38.3278 15.0064 36.8385 15.0011 34.9998V23.333C15.0064 21.495 16.4957 20.0058 18.3344 19.9997H28.3342C30.1729 20.0058 31.6622 21.495 31.6675 23.333V34.9998Z" fill="#E87C00"/>
<path d="M38.534 5.20016L35.9842 2.64966C35.943 2.60083 35.8919 2.56116 35.8339 2.53369C35.7767 2.56116 35.7256 2.60083 35.6844 2.64966L33.1346 5.20016C32.905 5.46643 32.7242 5.77084 32.6006 6.09967C31.637 8.45563 29.3459 9.996 26.8007 9.99981H15.2506C12.5582 9.93649 10.1877 8.20996 9.30118 5.66632C9.26303 5.57477 9.21878 5.4855 9.16766 5.40005L6.23416 2.78317C6.10065 2.66644 5.9679 2.5665 5.83438 2.46655C5.70087 2.5665 5.56735 2.66644 5.4346 2.78317L2.5011 5.40005C1.96323 6.22937 1.67407 7.19525 1.66797 8.18326V98.3329C1.66797 99.2538 2.41412 99.9999 3.33423 99.9999H10.0008V78.3332C10.0061 76.4946 11.4954 75.0053 13.3341 75H28.3342C30.1729 75.0053 31.6622 76.4946 31.6675 78.3332V99.9999H40.0011V8.73334C39.9973 7.40811 39.4701 6.13858 38.534 5.20016ZM31.6675 61.6668C31.6622 63.5055 30.1729 64.9948 28.3342 65.0001H13.3341C11.4954 64.9948 10.0061 63.5055 10.0008 61.6668V51.667C10.0061 49.8283 11.4954 48.339 13.3341 48.3329H28.3342C30.1729 48.339 31.6622 49.8283 31.6675 51.667V61.6668ZM31.6675 34.9998C31.6622 36.8385 30.1729 38.3278 28.3342 38.3331H13.3341C11.4954 38.3278 10.0061 36.8385 10.0008 34.9998V23.3329C10.0061 21.495 11.4954 20.0058 13.3341 19.9997H28.3342C30.1729 20.0058 31.6622 21.495 31.6675 23.3329V34.9998Z" fill="#FFA601"/>
<path d="M28.3341 18.3335H18.3343C17.6331 18.3358 16.9396 18.4861 16.3011 18.7752H16.2858C16.2644 18.7836 16.2507 18.8019 16.2293 18.8103C14.4677 19.6274 13.3386 21.3914 13.334 23.333V34.9999C13.334 37.7617 15.5724 40.0002 18.3343 40.0002H28.3341C31.096 40.0002 33.3344 37.7617 33.3344 34.9999V23.333C33.3344 20.572 31.096 18.3335 28.3341 18.3335ZM16.6673 34.9999V24.5835C18.0673 28.402 19.4024 32.2137 20.6773 35.9269L20.9329 36.6669H18.3343C17.4134 36.6669 16.6673 35.9208 16.6673 34.9999ZM30.0012 34.9999C30.0012 35.9208 29.255 36.6669 28.3341 36.6669H24.4576L23.8343 34.845C22.3596 30.5436 20.8138 26.1101 19.1506 21.6668H28.3341C29.255 21.6668 30.0012 22.4129 30.0012 23.333V34.9999Z" fill="black"/>
<path d="M28.3341 46.6667H18.3343C15.5724 46.6667 13.334 48.9052 13.334 51.6671V61.6669C13.334 64.428 15.5724 66.6664 18.3343 66.6664H28.3341C31.096 66.6664 33.3344 64.428 33.3344 61.6669V51.6671C33.3344 48.9052 31.096 46.6667 28.3341 46.6667ZM30.0012 61.6669C30.0012 62.587 29.255 63.3332 28.3341 63.3332H18.3343C17.4134 63.3332 16.6673 62.587 16.6673 61.6669V51.6671C16.6673 50.7462 17.4134 50 18.3343 50H28.3341C29.255 50 30.0012 50.7462 30.0012 51.6671V61.6669Z" fill="black"/>
<path d="M98.7816 31.0547C98.2368 29.4274 96.7117 28.331 94.9951 28.3333C93.2793 28.3348 91.7564 29.435 91.2147 31.0631L90.4701 33.3336H81.208L80.4481 31.0547C79.9034 29.4296 78.3813 28.3341 76.667 28.3341C74.9519 28.3341 73.4299 29.4296 72.8851 31.0547L71.917 33.9585C71.8307 34.2232 71.7674 34.4948 71.727 34.7702C71.701 34.845 71.6812 34.922 71.6667 34.9999C71.6667 34.9999 71.6667 35.1036 71.6865 35.2768C71.6865 35.3615 71.6667 35.4431 71.6667 35.5332V47.3335C71.4065 50.3342 70.8702 53.3043 70.063 56.2065C67.9619 63.6353 66.04 65.7753 59.9731 69.2551C54.57 66.0004 50.0969 59.0103 46.6667 48.4284V8.73339C46.6721 6.96718 45.9701 5.27193 44.7166 4.02681L42.157 1.46639C41.2201 0.524923 39.9452 -0.00379419 38.6169 2.04998e-05H38.0501C36.7218 -0.00379419 35.4469 0.524923 34.51 1.46639L31.955 4.02147C31.5643 4.44033 31.2607 4.93319 31.0616 5.4703C30.3604 7.20217 28.6774 8.33513 26.8082 8.33361H20.2568C18.2503 8.26647 16.4955 6.96413 15.8501 5.06365C15.7738 4.863 15.6776 4.6715 15.5632 4.48992C15.4823 4.36709 15.3854 4.2557 15.2763 4.15651L12.3451 1.5404C10.0403 -0.446299 6.62842 -0.446299 4.32358 1.5404L1.39008 4.15651C1.27716 4.25799 1.17874 4.37319 1.09634 4.49984C0.386047 5.59771 0.00534059 6.87563 0 8.18331V96.6667C0 98.5077 1.49231 100 3.33328 100H44.9997C45.0233 100 45.0416 99.9886 45.063 99.987C45.2522 99.9817 45.4384 99.9443 45.6154 99.8764C45.6978 99.8344 45.7779 99.7864 45.8534 99.7314C45.945 99.6864 46.0327 99.6338 46.1151 99.5735C47.6776 98.2773 49.3507 97.1207 51.1146 96.1166C53.4714 94.7304 55.9128 93.4952 58.4251 92.4187C58.6502 92.3386 58.8966 92.2348 59.0767 92.1532C62.0674 90.8989 65.1321 89.8285 68.2533 88.9481C68.4723 88.8764 68.6943 88.8168 68.9201 88.7703C69.8181 88.517 70.7535 88.2965 71.6667 88.0669V96.6667C71.6667 98.5077 73.159 100 75 100H78.3333C80.1742 100 81.6665 98.5077 81.6665 96.6667V86.1466C83.5152 85.8818 85.3935 85.6468 87.3482 85.4797C87.8097 85.4347 88.2599 85.392 88.7619 85.36C89.1701 85.3287 89.595 85.3119 90.0001 85.2852V96.6667C90.0001 98.5077 91.4924 100 93.3334 100H96.6667C98.5077 100 100 98.5077 100 96.6667V36.0832C100.001 35.2097 99.8619 34.3414 99.588 33.5114L98.7816 31.0547ZM91.7152 81.8436C91.6984 81.8436 91.6832 81.8337 91.6664 81.8337C91.6496 81.8337 91.6084 81.8497 91.5764 81.852C91.2117 81.8703 90.8501 81.897 90.4869 81.9183L91.0469 76.3168L93.528 81.7734C92.9214 81.7932 92.3179 81.8131 91.7152 81.8436ZM70.3934 84.9266L71.1334 78.2898L74.6666 83.9432C73.2132 84.243 71.7819 84.5734 70.3934 84.9266ZM59.9197 73.0217C61.1168 73.629 62.3459 74.1699 63.6017 74.6414C62.6503 74.9001 61.7149 75.1663 60.8185 75.4501C60.2951 75.602 59.7717 75.7698 59.2567 75.9415H59.2483L59.2148 75.9537C56.514 76.8593 53.8765 77.9457 51.3214 79.2069C51.1146 79.3099 50.9117 79.4151 50.8087 79.48C49.3515 80.2254 47.9752 81.0204 46.6667 81.8482V74.9519C51.1452 74.8314 55.5931 74.1829 59.9197 73.0217ZM86.7233 52.935C86.6081 53.3653 86.3899 54.1016 86.1198 55.0003H83.3336C82.4127 55.0003 81.6665 54.2542 81.6665 53.3333V44.9997C81.6665 44.0796 82.4127 43.3335 83.3336 43.3335H88.3331C88.5254 43.3373 88.7161 43.3746 88.8946 43.4448C88.3362 46.6438 87.6114 49.8116 86.7233 52.935ZM84.1904 68.3769C84.3765 68.0901 84.5337 67.8452 84.6634 67.672C85.2356 66.8358 85.7178 65.9416 86.103 65.0047H88.3331C89.254 65.0047 90.0001 65.7509 90.0001 66.6718V71.3585H89.6881C87.0651 71.3783 84.6382 71.4668 82.2319 71.6316L81.6902 71.6667C82.6202 70.6474 83.4572 69.5465 84.1904 68.3769ZM77.5932 82.3334L73.6366 76.0002C73.9952 75.9453 74.3416 75.8751 74.6803 75.7965C76.1368 75.5837 77.6314 75.4067 79.1565 75.2548L77.5932 82.3334ZM87.8548 74.7215L87.3031 80.233L84.8915 74.82C85.8551 74.7765 86.8484 74.7452 87.8548 74.7231V74.7215ZM67.9214 76.9997L67.2104 83.3832L63.8565 78.0182C65.1535 77.6581 66.5085 77.3186 67.9214 76.9997ZM57.8232 80.027L57.1915 86.3037L54.422 81.4568C55.5252 80.957 56.6551 80.4802 57.8232 80.0316V80.027ZM46.6667 85.8635C47.583 85.2112 48.5603 84.5779 49.5987 83.963C49.3164 86.8485 48.9487 90.7051 48.6816 93.6981C47.9164 94.1666 47.245 94.6014 46.6667 94.9966V85.8635ZM52.8114 85.363L55.5 90.0803C54.3617 90.6036 53.2631 91.1469 52.2034 91.7015C52.4048 89.6004 52.6215 87.3337 52.8114 85.3615V85.363ZM61.1748 80.0301L65.1749 86.4365C63.5284 86.9499 61.9224 87.5053 60.3569 88.1035L61.1748 80.0301ZM80.8853 82.9033L82.1968 76.9684L84.6283 82.428C83.3649 82.5554 82.1197 82.7118 80.8853 82.8934V82.9033ZM94.0002 74.7536C95.092 74.7902 95.9846 74.8367 96.6667 74.8802V80.6236L94.0002 74.7536ZM95.6199 32.1037L96.4249 34.5535C96.5858 35.0472 96.6675 35.5637 96.6667 36.0832V71.5386C95.8168 71.4867 94.6884 71.4333 93.3334 71.3997V66.6664C93.3334 63.9053 91.095 61.6669 88.3331 61.6669H87.4237C88.797 57.8697 89.9231 53.8681 89.9399 53.8101C90.9714 50.1846 91.7831 46.4996 92.3714 42.7765C92.3714 42.7567 92.3714 42.7384 92.382 42.72C92.733 40.4282 92.9863 38.2103 93.2731 35.6285L93.3037 35.3569L94.3802 32.1114C94.4877 31.868 94.7288 31.7101 94.9959 31.7078C95.2621 31.7063 95.5055 31.8611 95.6169 32.1037H95.6199ZM76.0498 32.1037C76.1574 31.8573 76.4007 31.6979 76.6701 31.6979C76.9386 31.6979 77.182 31.8573 77.2903 32.1037L78.408 35.4752C78.6178 36.1801 79.2648 36.6638 80.0003 36.6669H89.8033C89.6667 37.8754 89.5317 39.0183 89.3867 40.1184C89.0411 40.0414 88.6879 40.0017 88.3331 40.0002H83.3336C80.5717 40.0002 78.3333 42.2386 78.3333 44.9997V53.3333C78.3333 56.0951 80.5717 58.3336 83.3336 58.3336H85.0548C84.555 59.8099 84.0134 61.3335 83.4846 62.6534C83.4732 62.6785 83.4648 62.7014 83.4564 62.7251C83.0803 63.7558 82.592 64.7423 82 65.667C81.8336 65.8936 81.6315 66.1964 81.3965 66.5604C79.9721 69.12 77.7153 71.1166 75 72.2183V35.5332C74.9985 35.3554 75.0259 35.1792 75.0801 35.0098L76.0498 32.1037ZM71.6667 61.8218V72.8218C68.853 72.8203 66.0728 72.2061 63.52 71.022C67.218 68.9903 70.0973 65.7387 71.6667 61.8218ZM56.073 70.5933C52.9617 71.1266 49.8199 71.4699 46.6667 71.6217V57.6447C48.7617 62.6289 51.9813 67.0601 56.073 70.5933ZM30.0003 84.9999H20.2949C23.3864 83.2619 26.6357 81.8222 30.0003 80.6999V84.9999ZM16.6664 88.3331H30.0003V96.6667H16.6664V88.3331ZM16.6664 83.3099V78.3333C16.6664 77.4132 17.4126 76.667 18.3334 76.667H28.3333C28.8399 76.6724 29.3152 76.9127 29.6204 77.3171C25.0618 78.7483 20.7085 80.7625 16.6664 83.3099ZM43.3334 96.6667H33.3336V78.3333C33.3336 75.5722 31.0951 73.333 28.3333 73.333H18.3334C15.5716 73.333 13.3331 75.5722 13.3331 78.3333V96.6667H3.33328V8.18331C3.33786 7.5844 3.49655 6.9977 3.79486 6.47814L6.54526 4.02681C7.56988 3.13189 9.09881 3.13189 10.1234 4.02681L12.7983 6.41329C13.9702 9.52913 16.9281 11.6127 20.2568 11.6669H26.8082C30.0301 11.6699 32.9315 9.71758 34.1415 6.73143C34.1911 6.60936 34.2468 6.48958 34.3086 6.37362L36.8584 3.82158C37.1742 3.50573 37.6038 3.33025 38.0501 3.3333H38.6169C39.061 3.33254 39.4867 3.50878 39.8003 3.82311L42.3599 6.38353C42.9855 7.00533 43.3357 7.85143 43.3334 8.73339V96.6667ZM75 96.6667V87.3032C75.8697 87.1201 76.738 86.9232 77.61 86.7653L78.3333 86.6501V96.6667H75ZM93.3334 96.6667V85.1135C94.2467 85.08 95.1668 85.0464 96.0831 85.0334H96.167H96.6667V96.6667H93.3334Z" fill="black"/>
</g>
<defs>
<clipPath id="clip0_319_2383">
<rect width="100" height="100" fill="white"/>
</clipPath>
</defs>
</svg>
