<svg width="100" height="100" viewBox="0 0 100 100" fill="none" xmlns="http://www.w3.org/2000/svg">
<path fill-rule="evenodd" clip-rule="evenodd" d="M12.8594 87.0977V88.9844L8.28906 92.3789L6.62109 90.1973C6.49023 90.0254 6.24609 89.9902 6.07422 90.123C5.90234 90.2539 5.86914 90.498 6 90.6719L7.90039 93.1602C7.97656 93.2598 8.08984 93.3145 8.21289 93.3145C8.29688 93.3145 8.375 93.2891 8.44336 93.2383L12.8574 89.9609V96.4434H3.51562V87.0996H12.8594V87.0977Z" fill="#87D4ED"/>
<path fill-rule="evenodd" clip-rule="evenodd" d="M12.8594 80.2363H3.51562V70.8926H12.8594V72.7793L8.28906 76.1738L6.62109 73.9902C6.49023 73.8184 6.24609 73.7852 6.07422 73.916C5.90234 74.0469 5.86914 74.291 6 74.4629L7.90039 76.9531C7.97656 77.0527 8.08984 77.1074 8.21289 77.1074C8.29688 77.1074 8.37695 77.082 8.44336 77.0312L12.8574 73.7539V80.2363H12.8594Z" fill="#87D4ED"/>
<path fill-rule="evenodd" clip-rule="evenodd" d="M53.4238 83.8652H60.5605V96.4414H53.4238V83.8652Z" fill="#FF5A5A"/>
<path fill-rule="evenodd" clip-rule="evenodd" d="M65.3984 73.9102H72.5352V96.4414H65.3984V73.9102Z" fill="#05E39C"/>
<path fill-rule="evenodd" clip-rule="evenodd" d="M77.373 79.9551H84.5098V96.4414H77.373V79.9551Z" fill="#FEDF30"/>
<path fill-rule="evenodd" clip-rule="evenodd" d="M89.3477 69.9609H96.4844V96.4414H89.3477V69.9609Z" fill="#87D4ED"/>
<path fill-rule="evenodd" clip-rule="evenodd" d="M49.2148 36.1543C48.6016 47.8008 39.2383 57.1641 27.5918 57.7734L26.7695 57.8164V48.6719C26.7695 48.4551 26.5957 48.2812 26.3789 48.2812C26.1621 48.2812 25.9883 48.4551 25.9883 48.6719V57.8203L25.166 57.7773C13.0527 57.1387 3.51562 47.0762 3.51562 34.9414C3.51562 22.8086 13.0547 12.7461 25.168 12.1094L25.9902 12.0664V34.9414C25.9902 35.1582 26.1641 35.332 26.3809 35.332H49.2598L49.2148 36.1543Z" fill="#87D4ED"/>
<path fill-rule="evenodd" clip-rule="evenodd" d="M35.2891 26.0332V3.54688L36.1113 3.58984C43.084 3.95508 49.4707 7.5 53.5195 13.168L54.4023 14.4023H48.0664C47.8496 14.4023 47.6758 14.5781 47.6758 14.793C47.6758 15.0098 47.8477 15.1836 48.0664 15.1836H54.8125L55.0332 15.5937C56.6348 18.5625 57.5547 21.8398 57.7344 25.209L57.7773 26.0312H35.2891V26.0332Z" fill="#FF5A5A"/>
<path fill-rule="evenodd" clip-rule="evenodd" d="M12.0781 95.6602H4.29688V87.8789H12.0781V88.5918L8.44141 91.293L7.24219 89.7227C6.84961 89.207 6.11523 89.1074 5.59961 89.502C5.08594 89.8945 4.98633 90.6289 5.37891 91.1445L7.2793 93.6328C7.50977 93.9355 7.85938 94.0938 8.21289 94.0938C8.45508 94.0938 8.69922 94.0195 8.91016 93.8633L12.0781 91.5117V95.6602ZM15.416 86.1133L14.4219 86.8516V86.707C14.4219 86.0605 13.8965 85.5352 13.25 85.5352H3.125C2.47852 85.5352 1.95312 86.0605 1.95312 86.707V96.832C1.95312 97.4785 2.47852 98.0039 3.125 98.0039H13.25C13.8965 98.0039 14.4219 97.4785 14.4219 96.832V89.7715L16.8125 87.9961C17.332 87.6094 17.4414 86.877 17.0566 86.3574C16.6699 85.8359 15.9355 85.7285 15.416 86.1133ZM46.584 94.6895C46.584 95.3359 46.0586 95.8613 45.4121 95.8613H19.5312C18.8848 95.8613 18.3594 95.3359 18.3594 94.6895C18.3594 94.041 18.8848 93.5176 19.5312 93.5176H45.4121C46.0586 93.5176 46.584 94.041 46.584 94.6895ZM18.3594 88.8496C18.3594 88.2031 18.8848 87.6777 19.5312 87.6777H37.5039C38.1523 87.6777 38.6758 88.2031 38.6758 88.8496C38.6758 89.498 38.1523 90.0215 37.5039 90.0215H19.5312C18.8848 90.0215 18.3594 89.498 18.3594 88.8496ZM12.0781 79.4551H4.29688V71.6738H12.0781V72.3867L8.44141 75.0879L7.24219 73.5176C6.84961 73.002 6.11523 72.9043 5.59961 73.2969C5.08594 73.6895 4.98633 74.4238 5.37891 74.9395L7.2793 77.4277C7.50977 77.7305 7.85938 77.8887 8.21289 77.8887C8.45508 77.8887 8.69922 77.8145 8.91016 77.6582L12.0781 75.3066V79.4551ZM15.416 69.9102L14.4219 70.6484V70.502C14.4219 69.8555 13.8965 69.3301 13.25 69.3301H3.125C2.47852 69.3301 1.95312 69.8555 1.95312 70.502V80.627C1.95312 81.2734 2.47852 81.7988 3.125 81.7988H13.25C13.8965 81.7988 14.4219 81.2734 14.4219 80.627V73.5664L16.8125 71.791C17.332 71.4062 17.4414 70.6719 17.0566 70.1523C16.6699 69.6328 15.9355 69.5234 15.416 69.9102ZM46.584 78.4844C46.584 79.1309 46.0586 79.6562 45.4121 79.6562H19.5312C18.8848 79.6562 18.3594 79.1309 18.3594 78.4844C18.3594 77.8359 18.8848 77.3125 19.5312 77.3125H45.4121C46.0586 77.3125 46.584 77.8359 46.584 78.4844ZM18.3594 72.6445C18.3594 71.998 18.8848 71.4727 19.5312 71.4727H37.5039C38.1523 71.4727 38.6758 71.998 38.6758 72.6445C38.6758 73.293 38.1523 73.8164 37.5039 73.8164H19.5312C18.8848 73.8164 18.3594 73.293 18.3594 72.6445ZM52.043 75.6289C51.6055 75.1523 51.6367 74.4102 52.1152 73.9727L67.3633 59.9922C67.8008 59.5918 68.4688 59.582 68.9199 59.9688L80.625 70.0215L93.748 58.3359H91.3926C90.7461 58.3359 90.2207 57.8125 90.2207 57.1641C90.2207 56.5176 90.7461 55.9922 91.3926 55.9922H96.791C97.4375 55.9922 97.9629 56.5176 97.9629 57.1641V62.5625C97.9629 63.209 97.4375 63.7344 96.791 63.7344C96.1426 63.7344 95.6191 63.209 95.6191 62.5625V59.8086L81.4199 72.4531C80.9805 72.8438 80.3223 72.8496 79.877 72.4688L68.1816 62.4238L53.6992 75.7012C53.4727 75.9062 53.1895 76.0078 52.9062 76.0078C52.5898 76.0078 52.2734 75.8809 52.043 75.6289ZM95.7031 95.6602V70.7422H90.1289V95.6602H95.7031ZM96.875 68.3984H88.957C88.3105 68.3984 87.7852 68.9238 87.7852 69.5703V96.832C87.7852 97.4785 88.3105 98.0039 88.957 98.0039H96.875C97.5215 98.0039 98.0469 97.4785 98.0469 96.832V69.5703C98.0469 68.9238 97.5215 68.3984 96.875 68.3984ZM83.7285 95.6602H78.1543V80.7363H83.7285V95.6602ZM84.9004 78.3926H76.9824C76.334 78.3926 75.8105 78.916 75.8105 79.5645V96.832C75.8105 97.4785 76.334 98.0039 76.9824 98.0039H84.9004C85.5469 98.0039 86.0723 97.4785 86.0723 96.832V79.5645C86.0723 78.916 85.5469 78.3926 84.9004 78.3926ZM71.7539 95.6602V74.6914H66.1797V95.6602H71.7539ZM72.9258 72.3477H65.0078C64.3594 72.3477 63.8359 72.8711 63.8359 73.5195V96.832C63.8359 97.4785 64.3594 98.0039 65.0078 98.0039H72.9258C73.5723 98.0039 74.0977 97.4785 74.0977 96.832V73.5195C74.0977 72.8711 73.5723 72.3477 72.9258 72.3477ZM59.7793 95.6602H54.2051V84.6465H59.7793V95.6602ZM60.9512 82.3027H53.0332C52.3848 82.3027 51.8613 82.8281 51.8613 83.4746V96.832C51.8613 97.4785 52.3848 98.0039 53.0332 98.0039H60.9512C61.5977 98.0039 62.123 97.4785 62.123 96.832V83.4746C62.123 82.8281 61.5977 82.3027 60.9512 82.3027ZM98.0469 50.0996C98.0469 50.748 97.5215 51.2715 96.875 51.2715H56.834C56.1875 51.2715 55.6621 50.748 55.6621 50.0996C55.6621 49.4531 56.1875 48.9277 56.834 48.9277H96.875C97.5215 48.9277 98.0469 49.4531 98.0469 50.0996ZM98.0469 42.1641C98.0469 42.8125 97.5215 43.3359 96.875 43.3359H56.834C56.1875 43.3359 55.6621 42.8125 55.6621 42.1641C55.6621 41.5176 56.1875 40.9922 56.834 40.9922H96.875C97.5215 40.9922 98.0469 41.5176 98.0469 42.1641ZM98.0469 34.2285C98.0469 34.875 97.5215 35.4004 96.875 35.4004H56.834C56.1875 35.4004 55.6621 34.875 55.6621 34.2285C55.6621 33.582 56.1875 33.0566 56.834 33.0566H96.875C97.5215 33.0566 98.0469 33.582 98.0469 34.2285ZM66.2969 25.1211H96.875C97.5215 25.1211 98.0469 25.6465 98.0469 26.293C98.0469 26.9395 97.5215 27.4648 96.875 27.4648H66.2969C65.6484 27.4648 65.125 26.9395 65.125 26.293C65.125 25.6465 65.6484 25.1211 66.2969 25.1211ZM36.0703 4.37109C42.9961 4.73437 49.0859 8.30664 52.8828 13.623H48.0664C47.418 13.623 46.8945 14.1484 46.8945 14.7949C46.8945 15.4434 47.418 15.9668 48.0664 15.9668H54.3457C55.8516 18.7578 56.7754 21.9082 56.9531 25.252H36.0703V4.37109ZM34.8984 27.5957H58.1562C58.4668 27.5957 58.7637 27.4687 58.9844 27.248C59.2031 27.0293 59.3281 26.7266 59.3281 26.416C59.3262 22.6797 58.4805 19.1367 56.9727 15.9668H78.9414V21.1523C78.9414 21.8008 79.4668 22.3242 80.1133 22.3242C80.7598 22.3242 81.2852 21.8008 81.2852 21.1523V14.7949C81.2852 14.1484 80.7598 13.623 80.1133 13.623H55.6953C51.3887 6.6543 43.6816 1.99805 34.9082 1.99609C34.9082 1.99609 34.9004 1.99609 34.8984 1.99609C34.252 1.99609 33.7266 2.52148 33.7266 3.16797V26.4238C33.7266 27.0703 34.252 27.5957 34.8984 27.5957ZM27.5527 56.9941C38.8008 56.4043 47.8438 47.3594 48.4355 36.1133H26.3809C25.7344 36.1133 25.209 35.5898 25.209 34.9414V12.8887C13.5742 13.5 4.29688 23.1582 4.29688 34.9414C4.29688 46.7266 13.5742 56.3848 25.209 56.9961V48.6719C25.209 48.0234 25.7344 47.5 26.3809 47.5C27.0293 47.5 27.5527 48.0234 27.5527 48.6719V56.9941ZM50.7539 34.5781C50.7539 34.5781 50.7539 34.5781 50.7539 34.5762C50.7539 34.5742 50.752 34.5723 50.752 34.5723C50.6504 34.2578 50.418 34.002 50.1191 33.8691C50.1152 33.8672 50.1113 33.8652 50.1074 33.8633C50.1055 33.8633 50.1055 33.8613 50.1035 33.8613H50.1016C50.0996 33.8613 50.0996 33.8594 50.0996 33.8594H50.0977C50.0957 33.8594 50.0957 33.8574 50.0938 33.8574C50.0918 33.8574 50.0918 33.8574 50.0898 33.8555H50.0879C50.0859 33.8535 50.0859 33.8535 50.084 33.8535C50.082 33.8535 50.082 33.8535 50.0801 33.8516C50.0781 33.8516 50.0762 33.8496 50.0742 33.8496C50.0703 33.8477 50.0645 33.8457 50.0605 33.8438C50.0586 33.8438 50.0586 33.8438 50.0566 33.8438V33.8418H50.0547C50.0527 33.8418 50.0527 33.8418 50.0527 33.8418C50.0508 33.8398 50.0508 33.8398 50.0488 33.8398C50.0488 33.8398 50.0488 33.8398 50.0469 33.8398C50.0469 33.8379 50.0469 33.8379 50.0469 33.8379C50.0449 33.8379 50.043 33.8379 50.043 33.8379C50.041 33.8359 50.041 33.8359 50.0391 33.8359C50.0391 33.8359 50.0371 33.8359 50.0352 33.8359C50.0352 33.834 50.0332 33.834 50.0332 33.834C50.0313 33.834 50.0312 33.834 50.0312 33.832C50.0293 33.832 50.0293 33.832 50.0293 33.832H50.0273C50.0273 33.832 50.0273 33.832 50.0254 33.832C50.0254 33.832 50.0254 33.8301 50.0234 33.8301C50.0215 33.8301 50.0215 33.8301 50.0195 33.8301C50.0195 33.8301 50.0195 33.8301 50.0195 33.8281C50.0176 33.8281 50.0176 33.8281 50.0156 33.8281C50.0156 33.8281 50.0137 33.8281 50.0117 33.8262H50.0098C50.0078 33.8262 50.0078 33.8262 50.0059 33.8242H50.0039H50.002C50.002 33.8223 50 33.8223 50 33.8223C49.998 33.8223 49.998 33.8223 49.9961 33.8223C49.9941 33.8203 49.9941 33.8203 49.9922 33.8203H49.9902C49.9883 33.8203 49.9883 33.8184 49.9863 33.8184C49.9844 33.8184 49.9844 33.8184 49.9824 33.8164C49.9824 33.8164 49.9805 33.8164 49.9785 33.8164C49.9766 33.8164 49.9766 33.8164 49.9766 33.8145C49.9746 33.8145 49.9727 33.8145 49.9727 33.8145C49.877 33.7852 49.7754 33.7695 49.6719 33.7656H49.6699C49.668 33.7656 49.668 33.7656 49.668 33.7656C49.625 33.7656 49.582 33.7656 49.541 33.7695H27.5527V11.8242C27.5586 11.7793 27.5605 11.7324 27.5605 11.6855C27.5605 11.0391 27.0371 10.5137 26.3887 10.5137H26.3809C12.9121 10.5137 1.95312 21.4727 1.95312 34.9414C1.95312 48.0195 12.2813 58.7285 25.209 59.3418V66.207C25.209 66.8535 25.7344 67.3789 26.3809 67.3789C27.0293 67.3789 27.5527 66.8535 27.5527 66.207V59.3418C40.4805 58.7285 50.8086 48.0195 50.8086 34.9414C50.8086 34.9375 50.8086 34.9277 50.8086 34.9219C50.8086 34.8027 50.7891 34.6875 50.7539 34.5781Z" fill="black"/>
</svg>
