<svg width="100" height="100" viewBox="0 0 100 100" fill="none" xmlns="http://www.w3.org/2000/svg">
<g clip-path="url(#clip0_419_1839)">
<path d="M73.6752 98.5353C78.0338 98.5353 81.5672 95.002 81.5672 90.6433C81.5672 86.2847 78.0338 82.7513 73.6752 82.7513C69.3166 82.7513 65.7832 86.2847 65.7832 90.6433C65.7832 95.002 69.3166 98.5353 73.6752 98.5353Z" fill="#5E54AC"/>
<path d="M73.6756 70.9134H15.2754V43.2917H65.7836C70.1422 43.2917 73.6754 46.8251 73.6754 51.1835V70.9134H73.6756Z" fill="#DF75A5"/>
<path d="M45.1527 43.2917H15.2754V60.406C18.45 56.2431 23.4598 53.5513 29.0871 53.5513C38.6607 53.5513 46.4492 61.34 46.4492 70.9134H61.0492C61.0494 59.1423 54.6521 48.8384 45.1527 43.2917Z" fill="#DD5790"/>
<path d="M27.1133 43.2918H15.2754V5.41077H17.491C21.6742 5.41077 25.1309 8.67503 25.3699 12.8514L27.1133 43.2918Z" fill="#D8E2F1"/>
<path d="M25.3693 12.8516C25.1344 8.74829 21.7932 5.52798 17.709 5.41626C19.8201 6.72993 21.2723 9.01392 21.4242 11.6678L23.1674 43.292H27.1123L25.3693 12.8516Z" fill="#B7C8EA"/>
<path d="M1.46484 1.46484H7.77832V13.6973H1.46484V1.46484Z" fill="#5E54AC"/>
<path d="M29.0865 43.2917C13.8314 43.2917 1.46484 55.6585 1.46484 70.9134C1.46484 86.1683 13.8314 98.5351 29.0865 98.5351C44.3416 98.5351 56.7082 86.1685 56.7082 70.9134C56.7082 55.6583 44.3414 43.2917 29.0865 43.2917ZM29.0865 92.6162C17.1004 92.6162 7.38379 82.8996 7.38379 70.9134C7.38379 58.9273 17.1004 49.2107 29.0865 49.2107C41.0727 49.2107 50.7893 58.9273 50.7893 70.9134C50.7893 82.8996 41.0727 92.6162 29.0865 92.6162Z" fill="#5E54AC"/>
<path d="M45.94 49.0297C49.5369 53.6933 51.6777 59.5375 51.6777 65.8826C51.6777 68.476 51.3195 70.9857 50.6512 73.3656C49.5236 83.3922 41.5656 91.3502 31.5391 92.4777C29.1592 93.1459 26.6496 93.5043 24.0561 93.5043C17.7109 93.5043 11.8668 91.3634 7.20312 87.7666C12.2539 94.3154 20.1771 98.5353 29.0871 98.5353C44.3422 98.5353 56.7088 86.1687 56.7088 70.9136C56.709 62.0035 52.4891 54.0804 45.94 49.0297Z" fill="#524798"/>
<path d="M29.0869 76.8324C32.3559 76.8324 35.0059 74.1824 35.0059 70.9135C35.0059 67.6445 32.3559 64.9945 29.0869 64.9945C25.818 64.9945 23.168 67.6445 23.168 70.9135C23.168 74.1824 25.818 76.8324 29.0869 76.8324Z" fill="#D8E2F1"/>
<path d="M31.5209 65.5189C31.8568 66.2619 32.0453 67.0857 32.0453 67.9539C32.0453 71.2228 29.3953 73.8728 26.1264 73.8728C25.258 73.8728 24.4342 73.6844 23.6914 73.3484C24.6201 75.4023 26.6854 76.8322 29.0859 76.8322C32.3549 76.8322 35.0049 74.1822 35.0049 70.9133C35.0049 68.5129 33.5748 66.4476 31.5209 65.5189Z" fill="#B7C8EA"/>
<path d="M98.5352 86.3027H87.2893L83.9199 79.2H98.5352V86.3027Z" fill="#5E54AC"/>
<path d="M56.3137 36.9783H24.7461V34.6107C24.7461 32.4314 26.5127 30.6648 28.692 30.6648H52.3678C54.5471 30.6648 56.3137 32.4314 56.3137 34.6107V36.9783Z" fill="#5E54AC"/>
<path d="M73.6752 93.1095C75.0372 93.1095 76.1414 92.0054 76.1414 90.6433C76.1414 89.2813 75.0372 88.1771 73.6752 88.1771C72.3131 88.1771 71.209 89.2813 71.209 90.6433C71.209 92.0054 72.3131 93.1095 73.6752 93.1095Z" fill="black"/>
<path d="M45.4674 54.5317C41.3551 50.4455 35.4367 47.7154 29.0856 47.7461C16.4539 47.6928 5.91251 58.1168 5.91798 70.9137C5.90704 83.5928 16.2799 94.0887 29.0856 94.0813C35.4063 94.0813 41.143 91.5358 45.3272 87.4174C54.9252 77.9551 54.1022 63.132 45.4674 54.5317ZM44.3877 84.1441L35.2361 74.9926C35.7553 74.2123 36.1307 73.3285 36.3227 72.3789H49.2699C48.9479 76.859 47.1617 80.94 44.3877 84.1441ZM8.90099 72.3783H15.2631C15.267 72.3783 15.2705 72.3789 15.2744 72.3789H21.8483C22.0402 73.3287 22.4156 74.2123 22.9348 74.9928L13.7834 84.1441C11.0092 80.9399 9.22306 76.8586 8.90099 72.3783ZM13.7834 57.683L13.8096 57.7092V69.4486H8.90099C9.22306 64.9684 11.0092 60.8871 13.7834 57.683ZM29.0856 75.3676C26.6318 75.3676 24.6352 73.3731 24.6317 70.9201C24.6317 70.9182 24.632 70.916 24.632 70.9141C24.632 70.9119 24.6317 70.9098 24.6317 70.9076C24.6348 68.4543 26.6317 66.4596 29.0856 66.4596C31.5416 66.4596 33.5397 68.4576 33.5397 70.9137C33.5397 73.3697 31.5416 75.3676 29.0856 75.3676ZM21.8483 69.4486H16.7393V60.6389L22.9348 66.8344C22.4154 67.6149 22.04 68.4988 21.8483 69.4486ZM33.1647 64.7629C32.3842 64.2436 31.5002 63.8684 30.5504 63.6764V50.7293C35.0307 51.0514 39.1119 52.8375 42.3162 55.6115L33.1647 64.7629ZM27.6207 63.6762C26.6707 63.8682 25.7869 64.2434 25.0065 64.7627L16.7393 56.4957V54.8897C19.7957 52.5293 23.5426 51.0223 27.6207 50.7291V63.6762ZM25.0063 77.0643C25.7867 77.5836 26.6707 77.959 27.6205 78.1508V91.0979C23.1402 90.7758 19.059 88.9897 15.8547 86.2156L25.0063 77.0643ZM30.5504 78.1508C31.5004 77.9588 32.3842 77.5836 33.1647 77.0643L42.316 86.2156C39.1119 88.9899 35.0305 90.776 30.5502 91.0979V78.1508H30.5504ZM36.3229 69.4492C36.1309 68.499 35.7557 67.615 35.2361 66.8344L44.3875 57.683C47.1617 60.8873 48.9481 64.9688 49.2699 69.4492H36.3229Z" fill="black"/>
<path d="M98.5352 77.7352H84.8465L81.3127 70.2857C81.0703 69.7746 80.5549 69.4486 79.9893 69.4486H75.1387V63.9395C75.1387 63.1305 74.483 62.4746 73.6738 62.4746C72.8646 62.4746 72.209 63.1305 72.209 63.9395V69.4492H58.1363C57.5953 58.5895 51.0699 49.2797 41.7984 44.7559H65.7832C69.3266 44.7559 72.209 47.6393 72.209 51.1836V57.1035C72.209 57.9125 72.8646 58.5684 73.6738 58.5684C74.483 58.5684 75.1387 57.9125 75.1387 57.1035V51.1836C75.1387 46.0238 70.9418 41.8262 65.7832 41.8262H61.3297V36.9783C61.3297 36.1693 60.674 35.5135 59.8648 35.5135H57.7793V34.6113C57.7793 31.6271 55.3514 29.1992 52.3672 29.1992H48.5938C47.7848 29.1992 47.1289 29.8551 47.1289 30.6641C47.1289 31.473 47.7848 32.1289 48.5938 32.1289H52.3672C53.7359 32.1289 54.8496 33.2426 54.8496 34.6113V35.5135H26.2109V34.6113C26.2109 33.2426 27.3236 32.1289 28.6914 32.1289H41.7578C42.5668 32.1289 43.2227 31.473 43.2227 30.6641C43.2227 29.8551 42.5668 29.1992 41.7578 29.1992H28.6914C28.3795 29.1992 28.0742 29.2271 27.7768 29.2781L26.8316 12.768C26.5492 7.8207 22.4461 3.94531 17.4902 3.94531H16.5371C15.8965 1.67188 13.8055 0 11.3301 0H1.46484C0.655859 0 0 0.655859 0 1.46484V13.6973C0 14.5062 0.655859 15.1621 1.46484 15.1621H7.77832C8.58731 15.1621 9.24316 14.5062 9.24316 13.6973V2.92969H11.3301C12.6979 2.92969 13.8105 4.04238 13.8105 5.41016V23.5625C13.8105 24.3715 14.4664 25.0273 15.2754 25.0273C16.0844 25.0273 16.7402 24.3715 16.7402 23.5625V6.875H17.4902C20.8943 6.875 23.7127 9.53691 23.9068 12.9352L24.9256 30.7311C23.9127 31.7152 23.2814 33.0904 23.2814 34.6113V35.5135H16.7402V30.3984C16.7402 29.5895 16.0844 28.9336 15.2754 28.9336C14.4664 28.9336 13.8105 29.5895 13.8105 30.3984V46.1721C5.52871 51.3041 0 60.4746 0 70.9135C0 86.9518 13.0482 100 29.0865 100C44.6334 100 57.3703 87.7391 58.1361 72.3789H72.21V81.4021C67.7445 82.1078 64.3191 85.9826 64.3191 90.6432C64.3191 95.8025 68.5164 100 73.6758 100C78.8352 100 83.0324 95.8025 83.0324 90.6432C83.0324 85.9818 79.6061 82.1066 75.1396 81.4018V72.3783H79.0629L85.9658 86.9305C86.1754 87.3273 86.6303 87.7898 87.2973 87.7676H98.5352C99.3443 87.7676 100 87.1117 100 86.3027V79.2C100 78.391 99.3443 77.7352 98.5352 77.7352ZM6.31348 12.2324H2.92969V2.92969H6.31348V12.2324ZM58.4 41.8262H28.4967L28.3031 38.4432H58.4V41.8262ZM25.3686 38.4432L25.5621 41.8262H16.7402V38.4432H25.3686ZM29.0865 97.0703C14.6637 97.0703 2.92969 85.3363 2.92969 70.9135C2.92969 56.4906 14.6637 44.7566 29.0865 44.7566C43.5094 44.7566 55.2434 56.4906 55.2434 70.9135C55.2434 85.3363 43.5094 97.0703 29.0865 97.0703ZM80.1027 90.6432C80.1027 94.1871 77.2195 97.0703 73.6758 97.0703C70.132 97.0703 67.2488 94.1871 67.2488 90.6432C67.2488 87.0992 70.132 84.2162 73.6758 84.2162C77.2195 84.2162 80.1027 87.0994 80.1027 90.6432ZM97.0703 84.8379H88.2156L86.2361 80.6648H97.0703V84.8379Z" fill="black"/>
</g>
<defs>
<clipPath id="clip0_419_1839">
<rect width="100" height="100" fill="white"/>
</clipPath>
</defs>
</svg>
