<svg width="100" height="100" viewBox="0 0 100 100" fill="none" xmlns="http://www.w3.org/2000/svg">
<g clip-path="url(#clip0_563_7451)">
<path d="M25 39.0625H34.375V45.3125H25V39.0625Z" fill="#FFC880"/>
<path d="M25 42.9688C28.147 43.4772 31.3715 43.1838 34.375 42.1154V39.0625H25V42.9688Z" fill="#F2A64C"/>
<path d="M6.25 70.3125H15.625V100H6.25V70.3125Z" fill="#FFC880"/>
<path d="M45.3125 70.3125H54.6875V100H45.3125V70.3125Z" fill="#FFC880"/>
<path d="M89.0625 100V96.875L93.75 93.75V79.0842H78.0242C78.0242 79.0842 78.125 84.375 71.875 85.9375H54.6875V100H89.0625Z" fill="#F94A06"/>
<path d="M39.0625 45.3125H54.1064C55.2087 45.3125 56.3002 45.0954 57.3185 44.6736C58.3369 44.2518 59.2622 43.6335 60.0416 42.8541C60.821 42.0747 61.4393 41.1494 61.8611 40.131C62.2829 39.1127 62.5 38.0212 62.5 36.9189C62.5 34.5866 63.4265 32.3499 65.0757 30.7007C66.7249 29.0515 68.9616 28.125 71.2939 28.125H82.8125C82.8125 28.125 95.3125 28.125 98.4375 23.4375C98.4375 23.4375 96.875 32.8125 93.75 34.375H98.4375C98.4375 34.375 98.4375 40.625 90.625 40.625H77.1289C76.1499 40.625 75.211 41.0139 74.5187 41.7062C73.8264 42.3985 73.4375 43.3374 73.4375 44.3164V46.467C73.4376 47.7517 73.1847 49.0238 72.6932 50.2107C72.2016 51.3976 71.4811 52.4761 70.5728 53.3846C69.6644 54.293 68.586 55.0136 67.3991 55.5053C66.2122 55.9969 64.9401 56.25 63.6555 56.25H39.0625V45.3125Z" fill="#F24E22"/>
<path d="M43.75 10.9375V28.9062C43.75 32.0143 42.5154 34.995 40.3177 37.1927C38.12 39.3904 35.1393 40.625 32.0312 40.625H27.3438C24.2357 40.625 21.255 39.3904 19.0573 37.1927C16.8597 34.995 15.625 32.0143 15.625 28.9062V9.375L43.75 10.9375Z" fill="#FFC880"/>
<path d="M15.625 89.0625H45.3125V95.3125H15.625V89.0625Z" fill="#FFEE2A"/>
<path d="M15.625 95.3125H45.3744V100H15.625V95.3125Z" fill="#4BA013"/>
<path d="M49.6094 50C52.1994 50 54.6833 51.0289 56.5147 52.8603C58.3461 54.6917 59.375 57.1756 59.375 59.7656V70.3125H45.3125V89.0625H15.625V70.3125H1.5625V59.7656C1.5625 57.1756 2.59138 54.6917 4.42279 52.8603C6.2542 51.0289 8.73812 50 11.3281 50H49.6094Z" fill="#4BA013"/>
<path d="M20.3125 45.3125H39.0625V53.125H20.3125V45.3125Z" fill="#E03D05"/>
<path d="M15.625 21.875L21.875 15.625L25 18.75L28.125 15.625L32.8125 18.75L37.5 15.625L43.75 25V18.75L35.9375 7.8125L20.3125 9.375L15.625 21.875Z" fill="#E59C45"/>
<path d="M43.7499 23.4375L37.4999 12.5L32.8124 17.1875L28.1249 12.5L24.9999 17.1875L21.8749 12.5L15.6249 21.875C15.6249 21.875 6.24988 21.875 7.81238 1.5625C7.81238 1.5625 12.4999 4.6875 17.1874 4.6875C21.8749 4.6875 24.9999 1.5625 34.3749 1.5625C43.7499 1.5625 53.1249 10.9375 43.7499 23.4375Z" fill="#F4BB03"/>
<path opacity="0.2" d="M15.625 57.8125H18.75V100H15.625V57.8125Z" fill="#1D1E1C"/>
<path opacity="0.2" d="M42.1875 57.8125H45.3125V100H42.1875V57.8125Z" fill="#1D1E1C"/>
<path opacity="0.2" d="M76.5488 83.1055C79.2441 86.0465 85.3297 91.5119 93.7498 92.1289V79.0842H78.024C77.9683 80.5466 77.452 81.954 76.5488 83.1055Z" fill="#1D1E1C"/>
<path d="M85.9375 64.0625L92.1875 51.5625L95.3125 59.375L93.75 65.625L98.4375 70.3125V76.5625C98.4375 76.9769 98.2729 77.3743 97.9799 77.6674C97.6868 77.9604 97.2894 78.125 96.875 78.125L91.9486 79.6875C91.5788 79.6875 91.2209 79.8187 90.9387 80.0578C90.6565 80.2969 90.4682 80.6283 90.4074 80.9932L89.0625 85.9375H82.8125L81.4676 80.9932C81.4068 80.6283 81.2185 80.2969 80.9363 80.0578C80.6541 79.8187 80.2962 79.6875 79.9264 79.6875L75 78.125C74.5856 78.125 74.1882 77.9604 73.8951 77.6674C73.6021 77.3743 73.4375 76.9769 73.4375 76.5625V70.3125L78.125 65.625L76.5625 59.375L79.6875 51.5625L85.9375 64.0625Z" fill="#F94A06"/>
<path opacity="0.2" d="M41.6108 3.49746C39.4082 2.23478 36.9146 1.56788 34.3758 1.5625C25.0008 1.5625 21.8758 4.6875 17.1883 4.6875C12.5008 4.6875 7.81334 1.5625 7.81334 1.5625C7.59573 4.12636 7.58143 6.70342 7.77056 9.26953C11.5032 9.80957 17.6133 9.61934 26.5633 6.25C32.7059 3.9375 37.7241 3.33711 41.6108 3.49746Z" fill="#FCFBFA"/>
<path d="M34.375 31.25H31.25C31.25 31.6644 31.0854 32.0618 30.7924 32.3549C30.4993 32.6479 30.1019 32.8125 29.6875 32.8125C29.2731 32.8125 28.8757 32.6479 28.5826 32.3549C28.2896 32.0618 28.125 31.6644 28.125 31.25H25C25 32.4932 25.4939 33.6855 26.3729 34.5646C27.252 35.4436 28.4443 35.9375 29.6875 35.9375C30.9307 35.9375 32.123 35.4436 33.0021 34.5646C33.8811 33.6855 34.375 32.4932 34.375 31.25Z" fill="black"/>
<path d="M79.6875 70.3125H82.8125V73.4375H79.6875V70.3125Z" fill="black"/>
<path d="M89.0625 70.3125H92.1875V73.4375H89.0625V70.3125Z" fill="black"/>
<path d="M75 46.4678V44.3162C75.0009 43.7519 75.2255 43.2109 75.6245 42.8118C76.0236 42.4128 76.5646 42.1882 77.1289 42.1873H90.625C99.8928 42.1873 100 34.4529 100 34.3748C100 33.9604 99.8354 33.563 99.5424 33.2699C99.2493 32.9769 98.8519 32.8123 98.4375 32.8123H97.1412C97.8105 31.524 98.3523 30.1734 98.759 28.7797C99.2667 27.1104 99.674 25.4121 99.9787 23.6941C100.037 23.3416 99.9734 22.9796 99.7975 22.6685C99.6215 22.3574 99.3443 22.1161 99.0119 21.9847C98.6796 21.8532 98.3122 21.8397 97.9711 21.9464C97.63 22.053 97.3358 22.2734 97.1375 22.5707C96.1238 24.0914 93.3176 25.3051 89.2361 25.991C87.1117 26.3375 84.9648 26.5284 82.8125 26.5623H71.2939C68.5482 26.5654 65.9158 27.6575 63.9743 29.5991C62.0327 31.5406 60.9406 34.173 60.9375 36.9187C60.9355 38.7298 60.2151 40.4662 58.9345 41.7468C57.6539 43.0274 55.9175 43.7478 54.1064 43.7498H35.9375V41.6002C38.6502 40.7616 41.0234 39.0771 42.7102 36.7931C44.397 34.5091 45.3089 31.7454 45.3125 28.9061V23.9477C49.3645 18.3289 50.285 12.6287 47.8955 7.84961C45.5479 3.1543 40.1145 -0.000195153 34.375 -0.000195153C28.6391 -0.000195153 25.1172 1.12832 22.2865 2.03496C20.3861 2.64395 18.885 3.1248 17.1875 3.1248C13.0447 3.1248 8.7207 0.289844 8.6793 0.262305C8.45246 0.11103 8.18998 0.0217468 7.91795 0.00332626C7.64592 -0.0150943 7.3738 0.0379894 7.12864 0.157303C6.88348 0.276616 6.6738 0.458005 6.52045 0.683446C6.3671 0.908887 6.27541 1.17053 6.25449 1.44238C5.55137 10.5945 6.89629 17.074 10.2543 20.7002C11.2803 21.8481 12.5954 22.6999 14.0625 23.1668V28.9061C14.0661 31.7454 14.978 34.5091 16.6648 36.7931C18.3516 39.0771 20.7248 40.7616 23.4375 41.6002V43.7498H20.3125C19.8981 43.7498 19.5007 43.9144 19.2076 44.2074C18.9146 44.5005 18.75 44.8979 18.75 45.3123V48.4373H11.3281C8.32477 48.4407 5.4454 49.6353 3.3217 51.759C1.198 53.8827 0.00341179 56.7621 0 59.7654L0 70.3123C0 70.7267 0.16462 71.1241 0.457646 71.4172C0.750671 71.7102 1.1481 71.8748 1.5625 71.8748H4.6875V99.9998H7.8125V71.8748H14.0625V99.9998H17.1875V96.8748H43.8119V99.9998H46.9369L46.875 71.8748H53.125V99.9998H56.25V87.4998H71.875C72.0027 87.4998 72.13 87.4841 72.2539 87.4531C76.0598 86.5016 77.8557 84.3004 78.6918 82.6213C78.9312 82.1395 79.1255 81.6367 79.2723 81.1191L79.4539 81.1768C79.6066 81.2252 79.7659 81.2499 79.9262 81.25C79.9347 81.3016 79.9459 81.3527 79.9596 81.4031L81.3047 86.3475C81.3947 86.6784 81.5911 86.9705 81.8636 87.1788C82.1361 87.387 82.4695 87.4998 82.8125 87.4998H89.0625C89.4055 87.4998 89.7389 87.387 90.0114 87.1788C90.2839 86.9705 90.4803 86.6784 90.5703 86.3475L91.9152 81.4031C91.9289 81.3527 91.9401 81.3016 91.9486 81.25C92.0286 81.25 92.1085 81.2439 92.1875 81.2316V92.9139L88.1957 95.575C87.9817 95.7177 87.8063 95.9109 87.6849 96.1377C87.5636 96.3644 87.5 96.6176 87.5 96.8748V99.9998H90.625V97.7109L94.6166 95.0498C94.8306 94.9071 95.0061 94.7138 95.1275 94.4871C95.2489 94.2603 95.3125 94.007 95.3125 93.7498V80.2596L97.1564 79.6748C97.933 79.6036 98.655 79.245 99.181 78.6693C99.707 78.0935 99.9991 77.3421 100 76.5623V70.3123C100 70.1071 99.9596 69.9039 99.8811 69.7143C99.8026 69.5248 99.6875 69.3525 99.5424 69.2074L95.4799 65.1449L96.8275 59.7533C96.9072 59.4346 96.8845 59.0989 96.7625 58.7939L93.6375 50.9814C93.5256 50.7018 93.3353 50.4604 93.0894 50.2864C92.8435 50.1124 92.5526 50.0132 92.2517 50.0007C91.9507 49.9882 91.6526 50.0629 91.3931 50.2159C91.1337 50.3689 90.924 50.5937 90.7893 50.8631L85.9375 60.5684L81.085 50.8635C80.9503 50.5941 80.7406 50.3693 80.4811 50.2163C80.2216 50.0633 79.9235 49.9886 79.6225 50.0011C79.3216 50.0136 79.0307 50.1128 78.7848 50.2868C78.5389 50.4608 78.3486 50.7022 78.2367 50.9818L75.1117 58.7943C74.9897 59.0993 74.967 59.435 75.0467 59.7537L76.3943 65.1453L72.3318 69.2078C72.0392 69.5009 71.8749 69.8981 71.875 70.3123V76.5623C71.8759 77.3421 72.168 78.0935 72.694 78.6693C73.22 79.245 73.942 79.6036 74.7186 79.6748L76.3072 80.1787C75.9766 81.4602 74.9355 83.4959 71.6758 84.3748H56.25V71.8748H59.375C59.7894 71.8748 60.1868 71.7102 60.4799 71.4172C60.7729 71.1241 60.9375 70.7267 60.9375 70.3123V59.7654C60.9366 59.1106 60.8791 58.4572 60.7654 57.8123H63.6561C66.6637 57.8087 69.5471 56.6123 71.6737 54.4856C73.8003 52.3588 74.9966 49.4754 75 46.4678ZM75.4723 76.6355C75.3195 76.5871 75.1602 76.5624 75 76.5623V70.9596L79.2299 66.7297C79.4206 66.5388 79.5587 66.3017 79.6305 66.0415C79.7024 65.7814 79.7057 65.5071 79.64 65.2453L78.2 59.4855L79.8451 55.3727L84.5391 64.7606C84.6688 65.0201 84.8683 65.2384 85.1152 65.3909C85.362 65.5435 85.6464 65.6243 85.9366 65.6243C86.2268 65.6243 86.5112 65.5435 86.7581 65.3909C87.0049 65.2384 87.2044 65.0201 87.3342 64.7606L92.0281 55.3727L93.6732 59.4855L92.2332 65.2453C92.1676 65.5071 92.1708 65.7814 92.2427 66.0415C92.3146 66.3017 92.4526 66.5388 92.6434 66.7297L96.875 70.9596V76.5623C96.7148 76.5624 96.5555 76.5871 96.4027 76.6355L91.6678 78.1373C90.994 78.1962 90.3578 78.4729 89.8552 78.9255C89.3527 79.3782 89.0112 79.9821 88.8824 80.6461L87.8682 84.3748H84.0068L82.9926 80.6461C82.8638 79.9821 82.5223 79.3782 82.0198 78.9255C81.5172 78.4729 80.881 78.1962 80.2072 78.1373L75.4723 76.6355ZM12.4543 18.4746C10.7725 16.5883 8.93242 12.5863 9.23164 4.14375C11.1867 5.10352 14.1572 6.2498 17.1875 6.2498C19.3732 6.2498 21.2516 5.64805 23.24 5.01094C25.9996 4.12676 29.1273 3.1248 34.375 3.1248C38.9592 3.1248 43.2695 5.58574 45.1004 9.24727C46.7248 12.4961 46.2752 16.4229 43.8594 20.4793L38.8566 11.7246C38.7374 11.5161 38.5717 11.3379 38.3724 11.2038C38.1732 11.0698 37.9457 10.9835 37.7076 10.9516C37.4696 10.9197 37.2274 10.9431 36.9998 11.0201C36.7723 11.097 36.5656 11.2253 36.3957 11.3951L32.8125 14.9777L29.2299 11.3949C29.0664 11.2315 28.8687 11.1063 28.6511 11.0285C28.4334 10.9507 28.2011 10.9221 27.9711 10.9449C27.7411 10.9677 27.5189 11.0412 27.3207 11.1602C27.1226 11.2792 26.9532 11.4407 26.825 11.633L25 14.3705L23.175 11.6332C23.0323 11.4192 22.839 11.2437 22.6122 11.1224C22.3854 11.001 22.1322 10.9375 21.875 10.9375C21.6178 10.9375 21.3646 11.001 21.1378 11.1224C20.911 11.2437 20.7177 11.4192 20.575 11.6332L14.8949 20.1531C13.9468 19.8203 13.1044 19.2409 12.4543 18.4746ZM17.1875 28.9061V22.3479L21.875 15.3166L23.7 18.0539C23.8427 18.2679 24.036 18.4434 24.2628 18.5648C24.4896 18.6862 24.7429 18.7497 25.0001 18.7497C25.2573 18.7497 25.5106 18.6862 25.7374 18.5648C25.9642 18.4434 26.1575 18.2679 26.3002 18.0539L28.368 14.9523L31.7078 18.2922C32.0008 18.5852 32.3982 18.7498 32.8126 18.7498C33.227 18.7498 33.6244 18.5852 33.9174 18.2922L37.1582 15.0512L42.1875 23.8521V28.9061C42.1844 31.5987 41.1134 34.1802 39.2094 36.0842C37.3054 37.9882 34.7239 39.0593 32.0312 39.0623H27.3438C24.6511 39.0593 22.0696 37.9882 20.1656 36.0842C18.2616 34.1802 17.1905 31.5987 17.1875 28.9061ZM32.8125 42.1625V43.7498H26.5625V42.1625C26.8213 42.1775 27.0812 42.1873 27.3438 42.1873H32.0312C32.2938 42.1873 32.5537 42.1775 32.8125 42.1625ZM21.875 46.8748H37.5V51.5623H21.875V46.8748ZM43.75 93.7498H17.1875V90.6248H43.75V93.7498ZM57.8125 68.7498H46.875V57.8123H43.75V87.4998H17.1875V57.8123H14.0625V68.7498H3.125V59.7654C3.12748 57.5906 3.99253 55.5055 5.53038 53.9677C7.06823 52.4298 9.15328 51.5648 11.3281 51.5623H18.75V53.1248C18.75 53.5392 18.9146 53.9366 19.2076 54.2297C19.5007 54.5227 19.8981 54.6873 20.3125 54.6873H39.0625C39.4769 54.6873 39.8743 54.5227 40.1674 54.2297C40.4604 53.9366 40.625 53.5392 40.625 53.1248V51.5623H49.6094C51.7842 51.5648 53.8693 52.4298 55.4071 53.9677C56.945 55.5055 57.81 57.5906 57.8125 59.7654V68.7498ZM59.7309 54.6873C58.7882 52.8103 57.3427 51.232 55.5556 50.1284C53.7684 49.0248 51.7098 48.4394 49.6094 48.4373H40.625V46.8748H54.1064C56.746 46.8719 59.2767 45.822 61.1432 43.9555C63.0097 42.089 64.0596 39.5584 64.0625 36.9187C64.0647 35.0015 64.8273 33.1634 66.1829 31.8077C67.5386 30.4521 69.3767 29.6895 71.2939 29.6873H82.8125C83.8477 29.6873 91.0293 29.6004 95.966 27.2818C95.048 30.4232 93.8836 32.5611 93.0514 32.9773C92.7366 33.1348 92.4842 33.3939 92.3351 33.7126C92.1859 34.0314 92.1487 34.3912 92.2296 34.7337C92.3104 35.0763 92.5046 35.3815 92.7805 35.5999C93.0564 35.8184 93.3981 35.9372 93.75 35.9373H96.5258C95.9607 37.3121 94.4836 39.0623 90.625 39.0623H77.1289C75.736 39.0641 74.4007 39.6182 73.4158 40.6031C72.4309 41.588 71.8768 42.9233 71.875 44.3162V46.4668C71.8728 48.6462 71.0061 50.7356 69.4652 52.2768C67.9242 53.8179 65.8348 54.6848 63.6555 54.6873H59.7309Z" fill="black"/>
<path d="M24.2188 26.5625C25.5132 26.5625 26.5625 25.5132 26.5625 24.2188C26.5625 22.9243 25.5132 21.875 24.2188 21.875C22.9243 21.875 21.875 22.9243 21.875 24.2188C21.875 25.5132 22.9243 26.5625 24.2188 26.5625Z" fill="black"/>
<path d="M35.1562 26.5625C36.4507 26.5625 37.5 25.5132 37.5 24.2188C37.5 22.9243 36.4507 21.875 35.1562 21.875C33.8618 21.875 32.8125 22.9243 32.8125 24.2188C32.8125 25.5132 33.8618 26.5625 35.1562 26.5625Z" fill="black"/>
</g>
<defs>
<clipPath id="clip0_563_7451">
<rect width="100" height="100" fill="white"/>
</clipPath>
</defs>
</svg>
