<svg width="100" height="100" viewBox="0 0 100 100" fill="none" xmlns="http://www.w3.org/2000/svg">
<g clip-path="url(#clip0_562_2554)">
<path d="M11.2913 19.3568C11.2913 21.1382 9.84698 22.5825 8.06558 22.5825C6.28418 22.5825 4.83984 21.1382 4.83984 19.3568C4.83984 17.5754 6.28418 16.1311 8.06558 16.1311C9.84698 16.1311 11.2913 17.5754 11.2913 19.3568Z" fill="#F5C70C"/>
<path d="M95.1616 75.8072L93.5487 98.3874H87.0972L85.4844 75.8072H95.1616Z" fill="#736357"/>
<path d="M85.4844 75.8072L87.0972 98.3874H90.323L91.9359 75.8072H85.4844Z" fill="#998675"/>
<path d="M14.5171 75.8072L12.9042 98.3874H6.45271L4.83984 75.8072H14.5171Z" fill="#736357"/>
<path d="M4.83984 75.8072L6.45271 98.3874H9.67845L11.2913 75.8072H4.83984Z" fill="#998675"/>
<path d="M1.61523 66.13H98.3874V75.8072H1.61523V66.13Z" fill="#736357"/>
<path d="M1.61523 66.13H93.5488V75.8072H1.61523V66.13Z" fill="#998675"/>
<path d="M4.83984 46.7756H95.1605V66.13H4.83984V46.7756Z" fill="#736357"/>
<path d="M4.83984 46.7756H90.3219V66.13H4.83984V46.7756Z" fill="#998675"/>
<path d="M17.7436 46.7756L58.0654 6.45384L53.2267 1.61523L8.06641 46.7756H17.7436Z" fill="#736357"/>
<path d="M8.06641 46.7756H12.905L54.8396 4.84097L52.4203 2.42167L8.06641 46.7756Z" fill="#998675"/>
<path d="M95.1621 67.7429H4.84139C3.95147 67.7429 3.22852 67.0215 3.22852 66.13V46.7756C3.22852 45.8833 3.95147 45.1627 4.84139 45.1627H37.0988V48.3884H6.45425V64.5171H93.5492V48.3884H62.9047V45.1627H95.1621C96.0528 45.1627 96.7749 45.8833 96.7749 46.7756V66.13C96.7749 67.0215 96.0528 67.7429 95.1621 67.7429Z" fill="black"/>
<path d="M18.8837 47.9159L16.603 45.6352L55.7844 6.45384L53.2265 3.89593L9.20648 47.9159L6.92578 45.6352L52.0861 0.474881C52.7169 -0.155934 53.736 -0.155934 54.3668 0.474881L59.2054 5.31349C59.8362 5.94352 59.8362 6.96337 59.2054 7.59419L18.8837 47.9159Z" fill="black"/>
<path d="M50.4727 14.0465L52.7534 11.765L86.6228 45.6344L84.3421 47.9159L50.4727 14.0465Z" fill="black"/>
<path d="M11.291 59.6785H88.7087V66.13H11.291V59.6785Z" fill="white"/>
<path d="M19.3555 59.6785H22.5812V66.13H19.3555V59.6785Z" fill="black"/>
<path d="M25.8086 59.6785H29.0343V66.13H25.8086V59.6785Z" fill="black"/>
<path d="M77.4199 59.6785H80.6457V66.13H77.4199V59.6785Z" fill="black"/>
<path d="M70.9688 59.6785H74.1945V66.13H70.9688V59.6785Z" fill="black"/>
<path d="M64.5176 59.6785H67.7433V66.13H64.5176V59.6785Z" fill="black"/>
<path d="M32.2598 59.6785H35.4855V66.13H32.2598V59.6785Z" fill="black"/>
<path d="M58.0645 59.6785H61.2902V66.13H58.0645V59.6785Z" fill="black"/>
<path d="M38.7109 59.6785H41.9367V66.13H38.7109V59.6785Z" fill="black"/>
<path d="M51.6133 59.6785H54.839V66.13H51.6133V59.6785Z" fill="black"/>
<path d="M45.1621 59.6785H48.3878V66.13H45.1621V59.6785Z" fill="black"/>
<path d="M62.9036 41.937V53.2271H37.0977V37.0984H58.065L62.9036 41.937Z" fill="#00FFFF"/>
<path d="M54.8392 37.0984H37.0977V53.2271H59.6778V41.937L54.8392 37.0984Z" fill="white"/>
<path d="M12.9048 100H6.45331C5.60829 100 4.90502 99.3466 4.84359 98.5016L3.23073 75.9214C3.19844 75.4749 3.35516 75.0347 3.65993 74.707C3.96628 74.3794 4.39234 74.1944 4.84044 74.1944H14.5177C14.9666 74.1944 15.3918 74.3794 15.6982 74.707C16.0037 75.0347 16.1581 75.4749 16.1274 75.9214L14.5145 98.5016C14.4531 99.3466 13.7498 100 12.9048 100ZM7.95514 96.7745H11.4038L12.7859 77.4201H6.57302L7.95514 96.7745Z" fill="black"/>
<path d="M93.5491 100H87.0976C86.2526 100 85.5493 99.3466 85.4879 98.5016L83.875 75.9214L87.0929 75.6907L88.5994 96.7745H92.048L93.5538 75.6922L96.7717 75.923L95.1588 98.5032C95.0974 99.3466 94.3941 100 93.5491 100Z" fill="black"/>
<path d="M6.45312 90.3231H12.9046V93.5488H6.45312V90.3231Z" fill="black"/>
<path d="M87.0977 90.3231H93.5491V93.5488H87.0977V90.3231Z" fill="black"/>
<path d="M77.4202 19.3568C77.4202 21.1382 75.9759 22.5825 74.1945 22.5825C72.4131 22.5825 70.9688 21.1382 70.9688 19.3568C70.9688 17.5754 72.4131 16.1311 74.1945 16.1311C75.9759 16.1311 77.4202 17.5754 77.4202 19.3568Z" fill="#F5C70C"/>
<path d="M90.3226 16.1311C90.3226 17.9125 88.8782 19.3568 87.0968 19.3568C85.3154 19.3568 83.8711 17.9125 83.8711 16.1311C83.8711 14.3497 85.3154 12.9053 87.0968 12.9053C88.8782 12.9053 90.3226 14.3497 90.3226 16.1311Z" fill="#F5C70C"/>
<path d="M87.0964 20.9697C84.429 20.9697 82.2578 18.7984 82.2578 16.1311C82.2578 13.4629 84.429 11.2924 87.0964 11.2924C89.7646 11.2924 91.935 13.4629 91.935 16.1311C91.935 18.7984 89.7646 20.9697 87.0964 20.9697ZM87.0964 14.5182C86.2081 14.5182 85.4836 15.2404 85.4836 16.1311C85.4836 17.021 86.2081 17.7439 87.0964 17.7439C87.9855 17.7439 88.7093 17.021 88.7093 16.1311C88.7093 15.2404 87.9855 14.5182 87.0964 14.5182Z" fill="black"/>
<path d="M74.1941 24.1954C71.5267 24.1954 69.3555 22.0242 69.3555 19.3568C69.3555 16.6886 71.5267 14.5182 74.1941 14.5182C76.8622 14.5182 79.0327 16.6886 79.0327 19.3568C79.0327 22.0242 76.8622 24.1954 74.1941 24.1954ZM74.1941 17.7439C73.3057 17.7439 72.5812 18.4661 72.5812 19.3568C72.5812 20.2467 73.3057 20.9697 74.1941 20.9697C75.0832 20.9697 75.8069 20.2467 75.8069 19.3568C75.8069 18.4661 75.0832 17.7439 74.1941 17.7439Z" fill="black"/>
<path d="M79.0324 19.3568H75.8066V6.45384C75.8066 5.78129 76.2248 5.17961 76.8533 4.94257L89.7562 0.103957C90.2532 -0.0834757 90.8052 -0.0125977 91.2423 0.287453C91.6762 0.590653 91.9353 1.08601 91.9353 1.61523V16.1311H88.7096V3.9424L79.0324 7.57135V19.3568Z" fill="black"/>
<path d="M8.06711 24.1954C6.77555 24.1954 5.5596 23.6922 4.64449 22.7771C2.75913 20.8901 2.75913 17.8227 4.64449 15.9357C6.47235 14.1079 9.6595 14.1079 11.4866 15.9357C13.3719 17.8227 13.3719 20.8901 11.4866 22.7771C10.5754 23.6922 9.35945 24.1954 8.06711 24.1954ZM8.06711 17.7439C7.63711 17.7439 7.23153 17.9117 6.92676 18.2164C6.29831 18.8449 6.29831 19.8679 6.92676 20.4971C7.5371 21.1083 8.59948 21.1083 9.20746 20.4971C9.8367 19.8679 9.8367 18.8449 9.20746 18.2164C8.90268 17.9117 8.49789 17.7439 8.06711 17.7439Z" fill="black"/>
<path d="M12.9054 19.3568H9.67969V1.61524C9.67969 0.963159 10.0735 0.373296 10.6751 0.124436C11.2768 -0.128363 11.9698 0.0118183 12.4329 0.474888L20.4973 8.53923L18.2166 10.8199L12.9054 5.5088V19.3568Z" fill="black"/>
<path d="M1.61523 27.4211H8.06671V30.6469H1.61523V27.4211Z" fill="black"/>
<path d="M17.7441 16.1311H20.9699V22.5825H17.7441V16.1311Z" fill="black"/>
<path d="M22.582 3.2281H29.0335V6.45384H22.582V3.2281Z" fill="black"/>
<path d="M66.1289 1.61523H69.3546V8.06671H66.1289V1.61523Z" fill="black"/>
<path d="M85.4844 24.1954H91.9359V27.4211H85.4844V24.1954Z" fill="black"/>
<path d="M96.7734 14.5182H99.9992V20.9697H96.7734V14.5182Z" fill="black"/>
<path d="M79.5059 31.788L81.7866 29.5065L86.6252 34.3459L84.3445 36.6266L79.5059 31.788Z" fill="black"/>
<path d="M62.9032 54.8399H37.0972C36.2073 54.8399 35.4844 54.1185 35.4844 53.2271V37.0984C35.4844 36.2061 36.2073 35.4855 37.0972 35.4855H58.0645C58.4922 35.4855 58.9033 35.6548 59.2049 35.958L64.0435 40.7966C64.3467 41.0982 64.516 41.5078 64.516 41.937V53.2271C64.516 54.1185 63.7939 54.8399 62.9032 54.8399ZM38.7101 51.6142H61.2903V42.6048L57.3967 38.7112H38.7101V51.6142Z" fill="black"/>
<path d="M48.3887 37.0984H51.6144V53.2271H48.3887V37.0984Z" fill="black"/>
<path d="M90.3232 66.13H87.0974V61.2914H12.9054V66.13H9.67969V59.6785C9.67969 58.7863 10.4026 58.0657 11.2926 58.0657H88.7103C89.601 58.0657 90.3232 58.7863 90.3232 59.6785V66.13Z" fill="black"/>
<path d="M98.387 77.4201H1.61482C0.724909 77.4201 0.00195312 76.6987 0.00195312 75.8072V66.13C0.00195312 65.2377 0.724909 64.5171 1.61482 64.5171H98.387C99.2777 64.5171 99.9999 65.2377 99.9999 66.13V75.8072C99.9999 76.6987 99.2777 77.4201 98.387 77.4201ZM3.22769 74.1944H96.7741V67.7429H3.22769V74.1944Z" fill="black"/>
</g>
<defs>
<clipPath id="clip0_562_2554">
<rect width="100" height="100" fill="white"/>
</clipPath>
</defs>
</svg>
