<svg width="100" height="100" viewBox="0 0 100 100" fill="none" xmlns="http://www.w3.org/2000/svg">
<g clip-path="url(#clip0_559_1343)">
<path d="M19.7246 2.92969H80.2715V97.0703H19.7246V2.92969Z" fill="#F7C9AB"/>
<path d="M48.2598 74.6094L38.6699 58.6914L19.7246 38.1641V74.6094H48.2598Z" fill="#F3AB7D"/>
<path d="M80.2715 5.85938H94.1387V9.76562H80.2715V5.85938Z" fill="#B3271E"/>
<path d="M80.2715 90.2344H94.1387V94.1406H80.2715V90.2344Z" fill="#B3271E"/>
<path d="M5.85742 90.2344H19.7246V94.1406H5.85742V90.2344Z" fill="#B3271E"/>
<path d="M5.85742 5.85938H19.7246V9.76562H5.85742V5.85938Z" fill="#B3271E"/>
<path d="M19.7246 2.92969H80.2715V17.5781H19.7246V2.92969Z" fill="#F3AB7D"/>
<path d="M14.6465 2.92969H85.3496V12.6953H14.6465V2.92969Z" fill="#399349"/>
<path d="M14.6465 2.92969H85.3496V7.8125H14.6465V2.92969Z" fill="#47B85B"/>
<path d="M80.2715 0.976562H85.3496V14.6484H80.2715V0.976562Z" fill="#DB3429"/>
<path d="M14.6465 0.976562H19.7246V14.6484H14.6465V0.976562Z" fill="#DB3429"/>
<path d="M80.2715 0.976562H85.3496V9.76562H80.2715V0.976562Z" fill="#E25D55"/>
<path d="M14.6465 0.976562H19.7246V9.76562H14.6465V0.976562Z" fill="#E25D55"/>
<path d="M5.85742 12.6953C8.55412 12.6953 10.7402 10.5092 10.7402 7.8125C10.7402 5.1158 8.55412 2.92969 5.85742 2.92969C3.16072 2.92969 0.974609 5.1158 0.974609 7.8125C0.974609 10.5092 3.16072 12.6953 5.85742 12.6953Z" fill="#F8D707"/>
<path d="M5.89648 8.35938C7.1909 8.35938 8.24023 7.31004 8.24023 6.01562C8.24023 4.72121 7.1909 3.67188 5.89648 3.67188C4.60207 3.67188 3.55273 4.72121 3.55273 6.01562C3.55273 7.31004 4.60207 8.35938 5.89648 8.35938Z" fill="#FBE76A"/>
<path d="M94.1387 12.6953C96.8354 12.6953 99.0215 10.5092 99.0215 7.8125C99.0215 5.1158 96.8354 2.92969 94.1387 2.92969C91.442 2.92969 89.2559 5.1158 89.2559 7.8125C89.2559 10.5092 91.442 12.6953 94.1387 12.6953Z" fill="#F8D707"/>
<path d="M94.1777 8.35938C95.4722 8.35938 96.5215 7.31004 96.5215 6.01562C96.5215 4.72121 95.4722 3.67188 94.1777 3.67188C92.8833 3.67188 91.834 4.72121 91.834 6.01562C91.834 7.31004 92.8833 8.35938 94.1777 8.35938Z" fill="#FBE76A"/>
<path d="M5.85742 97.0703C8.55412 97.0703 10.7402 94.8842 10.7402 92.1875C10.7402 89.4908 8.55412 87.3047 5.85742 87.3047C3.16072 87.3047 0.974609 89.4908 0.974609 92.1875C0.974609 94.8842 3.16072 97.0703 5.85742 97.0703Z" fill="#F8D707"/>
<path d="M5.89648 92.7344C7.1909 92.7344 8.24023 91.685 8.24023 90.3906C8.24023 89.0962 7.1909 88.0469 5.89648 88.0469C4.60207 88.0469 3.55273 89.0962 3.55273 90.3906C3.55273 91.685 4.60207 92.7344 5.89648 92.7344Z" fill="#FBE76A"/>
<path d="M94.1387 97.0703C96.8354 97.0703 99.0215 94.8842 99.0215 92.1875C99.0215 89.4908 96.8354 87.3047 94.1387 87.3047C91.442 87.3047 89.2559 89.4908 89.2559 92.1875C89.2559 94.8842 91.442 97.0703 94.1387 97.0703Z" fill="#F8D707"/>
<path d="M94.1777 92.7344C95.4722 92.7344 96.5215 91.685 96.5215 90.3906C96.5215 89.0962 95.4722 88.0469 94.1777 88.0469C92.8833 88.0469 91.834 89.0962 91.834 90.3906C91.834 91.685 92.8833 92.7344 94.1777 92.7344Z" fill="#FBE76A"/>
<path d="M14.6465 87.3047H85.3496V97.0703H14.6465V87.3047Z" fill="#399349"/>
<path d="M14.6465 92.1875H85.3496V97.0703H14.6465V92.1875Z" fill="#2B6E37"/>
<path d="M80.2715 85.3516H85.3496V99.0234H80.2715V85.3516Z" fill="#DB3429"/>
<path d="M14.6465 85.3516H19.7246V99.0234H14.6465V85.3516Z" fill="#DB3429"/>
<path d="M80.2715 94.1406H85.3496V99.0234H80.2715V94.1406Z" fill="#B3271E"/>
<path d="M14.6465 94.1406H19.7246V99.0234H14.6465V94.1406Z" fill="#B3271E"/>
<path d="M59.7637 65.625H49.959V63.6719H58.7871V36.3281H41.1699V48.5352C41.1699 52.9102 39.4707 57.0312 36.3652 60.1367L31.1699 65.332L29.7832 63.9453L34.9785 58.75C37.7129 56.0156 39.2168 52.3828 39.2168 48.5352V35.3516C39.2168 34.8047 39.6465 34.375 40.1934 34.375H59.7637C60.3105 34.375 60.7402 34.8047 60.7402 35.3516V64.6484C60.7402 65.1953 60.3105 65.625 59.7637 65.625Z" fill="#514C43"/>
<path d="M40.2324 47.4609H59.7637V49.4141H40.2324V47.4609Z" fill="#514C43"/>
<path d="M40.2324 40.8203H59.7637V42.7734H40.2324V40.8203Z" fill="#514C43"/>
<path d="M2.34273 26.5235C0.467731 28.3985 0.526325 31.4844 2.47945 33.2813L34.5302 62.8321L38.6709 58.6914L9.12008 26.6602C7.30367 24.7071 4.23726 24.6289 2.34273 26.5235Z" fill="#F89720"/>
<path d="M48.2598 74.5117C47.3418 73.2031 45.9746 72.2852 44.4121 71.9531C41.0918 71.25 38.2402 69.1797 36.5215 66.25L34.5098 62.832L38.6504 58.6914L41.6387 60.4492C44.8027 62.3047 46.9512 65.5078 47.4785 69.1406L48.2598 74.5117Z" fill="#F8D707"/>
<path d="M37.3027 67.4219C39.041 69.7266 41.5605 71.3477 44.4121 71.9531C45.9746 72.2852 47.3418 73.2031 48.2598 74.5117L47.498 69.1602C47.1465 66.6406 46.0137 64.3555 44.2949 62.5586C43.3574 63.5547 41.9121 62.2852 40.9746 63.3398C40.0371 64.3945 41.4824 65.7031 40.5449 66.7578C39.6465 67.7539 38.2598 66.582 37.3027 67.4219Z" fill="#514C43"/>
<path d="M18.75 49.1797H20.7031V85.3516H18.75V49.1797Z" fill="black"/>
<path d="M79.2969 14.6484H81.25V85.3516H79.2969V14.6484Z" fill="black"/>
<path d="M18.75 14.6484H20.7031V34.2578H18.75V14.6484Z" fill="black"/>
<path d="M80.2734 13.6719H19.7266C19.1797 13.6719 18.75 13.2422 18.75 12.6953V2.92969C18.75 2.38281 19.1797 1.95312 19.7266 1.95312H80.2734C80.8203 1.95312 81.25 2.38281 81.25 2.92969V12.6953C81.25 13.2422 80.8203 13.6719 80.2734 13.6719ZM20.7031 11.7188H79.2969V3.90625H20.7031V11.7188Z" fill="black"/>
<path d="M85.3516 15.625H80.2734C79.7266 15.625 79.2969 15.1953 79.2969 14.6484V0.976562C79.2969 0.429688 79.7266 0 80.2734 0H85.3516C85.8984 0 86.3281 0.429688 86.3281 0.976562V14.6484C86.3281 15.1953 85.8984 15.625 85.3516 15.625ZM81.25 13.6719H84.375V1.95312H81.25V13.6719Z" fill="black"/>
<path d="M19.7266 15.625H14.6484C14.1016 15.625 13.6719 15.1953 13.6719 14.6484V0.976562C13.6719 0.429688 14.1016 0 14.6484 0H19.7266C20.2734 0 20.7031 0.429688 20.7031 0.976562V14.6484C20.7031 15.1953 20.2734 15.625 19.7266 15.625ZM15.625 13.6719H18.75V1.95312H15.625V13.6719Z" fill="black"/>
<path d="M5.85938 13.6719C2.63672 13.6719 0 11.0352 0 7.8125C0 4.58984 2.63672 1.95312 5.85938 1.95312C9.08203 1.95312 11.7188 4.58984 11.7188 7.8125C11.7188 11.0352 9.08203 13.6719 5.85938 13.6719ZM5.85938 3.90625C3.71094 3.90625 1.95312 5.66406 1.95312 7.8125C1.95312 9.96094 3.71094 11.7188 5.85938 11.7188C8.00781 11.7188 9.76562 9.96094 9.76562 7.8125C9.76562 5.66406 8.00781 3.90625 5.85938 3.90625Z" fill="black"/>
<path d="M94.1406 13.6719C90.918 13.6719 88.2812 11.0352 88.2812 7.8125C88.2812 4.58984 90.918 1.95312 94.1406 1.95312C97.3633 1.95312 100 4.58984 100 7.8125C100 11.0352 97.3633 13.6719 94.1406 13.6719ZM94.1406 3.90625C91.9922 3.90625 90.2344 5.66406 90.2344 7.8125C90.2344 9.96094 91.9922 11.7188 94.1406 11.7188C96.2891 11.7188 98.0469 9.96094 98.0469 7.8125C98.0469 5.66406 96.2891 3.90625 94.1406 3.90625Z" fill="black"/>
<path d="M85.3516 4.88281H89.668V6.83594H85.3516V4.88281Z" fill="black"/>
<path d="M85.3516 8.78906H89.668V10.7422H85.3516V8.78906Z" fill="black"/>
<path d="M85.3516 89.2578H89.668V91.2109H85.3516V89.2578Z" fill="black"/>
<path d="M85.3516 93.1641H89.668V95.1172H85.3516V93.1641Z" fill="black"/>
<path d="M19.7266 86.3281H80.2734V88.2812H19.7266V86.3281Z" fill="black"/>
<path d="M19.7266 96.0938H76.3672V98.0469H19.7266V96.0938Z" fill="black"/>
<path d="M85.3516 100H80.2734C79.7266 100 79.2969 99.5703 79.2969 99.0234V85.3516C79.2969 84.8047 79.7266 84.375 80.2734 84.375H85.3516C85.8984 84.375 86.3281 84.8047 86.3281 85.3516V99.0234C86.3281 99.5703 85.8984 100 85.3516 100ZM81.25 98.0469H84.375V86.3281H81.25V98.0469Z" fill="black"/>
<path d="M19.7266 100H14.6484C14.1016 100 13.6719 99.5703 13.6719 99.0234V85.3516C13.6719 84.8047 14.1016 84.375 14.6484 84.375H19.7266C20.2734 84.375 20.7031 84.8047 20.7031 85.3516V99.0234C20.7031 99.5703 20.2734 100 19.7266 100ZM15.625 98.0469H18.75V86.3281H15.625V98.0469Z" fill="black"/>
<path d="M5.85938 98.0469C2.63672 98.0469 0 95.4102 0 92.1875C0 88.9648 2.63672 86.3281 5.85938 86.3281C9.08203 86.3281 11.7188 88.9648 11.7188 92.1875C11.7188 95.4102 9.08203 98.0469 5.85938 98.0469ZM5.85938 88.2812C3.71094 88.2812 1.95312 90.0391 1.95312 92.1875C1.95312 94.3359 3.71094 96.0938 5.85938 96.0938C8.00781 96.0938 9.76562 94.3359 9.76562 92.1875C9.76562 90.0391 8.00781 88.2812 5.85938 88.2812Z" fill="black"/>
<path d="M10.332 93.1641H14.6484V95.1172H10.332V93.1641Z" fill="black"/>
<path d="M10.332 89.2578H14.6484V91.2109H10.332V89.2578Z" fill="black"/>
<path d="M10.332 8.78906H14.6484V10.7422H10.332V8.78906Z" fill="black"/>
<path d="M10.332 4.88281H14.6484V6.83594H10.332V4.88281Z" fill="black"/>
<path d="M94.1406 98.0469C90.918 98.0469 88.2812 95.4102 88.2812 92.1875C88.2812 88.9648 90.918 86.3281 94.1406 86.3281C97.3633 86.3281 100 88.9648 100 92.1875C100 95.4102 97.3633 98.0469 94.1406 98.0469ZM94.1406 88.2812C91.9922 88.2812 90.2344 90.0391 90.2344 92.1875C90.2344 94.3359 91.9922 96.0938 94.1406 96.0938C96.2891 96.0938 98.0469 94.3359 98.0469 92.1875C98.0469 90.0391 96.2891 88.2812 94.1406 88.2812Z" fill="black"/>
<path d="M59.7656 65.625H49.9609V63.6719H58.7891V36.3281H41.1719V48.5352C41.1719 51.8945 40.1562 55.1367 38.2422 57.8906L36.6406 56.7773C38.3398 54.3359 39.2187 51.4844 39.2187 48.5352V35.3516C39.2187 34.8047 39.6484 34.375 40.1953 34.375H59.7656C60.3125 34.375 60.7422 34.8047 60.7422 35.3516V64.6484C60.7422 65.1953 60.3125 65.625 59.7656 65.625Z" fill="black"/>
<path d="M32.6699 61.0698L34.0508 62.4506L31.1648 65.3366L29.7839 63.9558L32.6699 61.0698Z" fill="black"/>
<path d="M40.2344 47.4609H59.7656V49.4141H40.2344V47.4609Z" fill="black"/>
<path d="M40.2344 40.8203H59.7656V42.7734H40.2344V40.8203Z" fill="black"/>
<path d="M34.5311 63.8281C34.2967 63.8281 34.0623 63.75 33.867 63.5742L1.81623 34.0039C0.663889 32.9492 0.0193581 31.5039 -0.000173185 29.9609C-0.0392357 28.3984 0.566233 26.9336 1.65998 25.8398C2.75373 24.7461 4.21858 24.1601 5.78108 24.1797C7.34358 24.2187 8.76936 24.8633 9.82405 25.9961L39.3748 58.0469C39.7264 58.4375 39.7264 59.0234 39.3553 59.3945L35.2147 63.5351C35.0389 63.7304 34.785 63.8281 34.5311 63.8281ZM5.66389 26.1328C4.6678 26.1328 3.74983 26.5234 3.0467 27.2265C2.32405 27.9492 1.93342 28.9062 1.95295 29.9219C1.97248 30.9375 2.40217 31.875 3.14436 32.5781L34.492 61.5039L37.3045 58.6914L8.39826 27.3242C7.71467 26.582 6.75764 26.1523 5.74201 26.1328C5.72248 26.1328 5.68342 26.1328 5.66389 26.1328Z" fill="black"/>
<path d="M48.2613 75.4883C47.9488 75.4883 47.6363 75.332 47.4605 75.0781C46.6988 73.9649 45.5464 73.2031 44.2183 72.9297C40.6441 72.168 37.5386 69.9219 35.6832 66.7774L33.6714 63.3594C33.4371 62.9688 33.5152 62.4805 33.8277 62.168L37.9683 58.0274C38.2808 57.7149 38.7691 57.6563 39.1597 57.8711L42.148 59.6289C45.5855 61.6406 47.8902 65.0781 48.4566 69.0234L49.2183 74.375C49.2769 74.8242 49.023 75.2539 48.6128 75.4297C48.5152 75.4688 48.398 75.4883 48.2613 75.4883ZM35.7613 63.0078L37.3824 65.7813C38.9449 68.457 41.6011 70.3711 44.6285 71.0156C45.4488 71.1914 46.2105 71.5039 46.9136 71.9336L46.5425 69.3164C46.0542 65.957 44.1011 63.0469 41.1714 61.3281L38.8277 59.9609L35.7613 63.0078Z" fill="black"/>
<path d="M37.9687 68.1445L36.6602 66.6992C37.4414 65.9961 38.3594 66.0938 38.9844 66.1523C39.5703 66.2109 39.707 66.1914 39.8242 66.0742C39.9414 65.9375 39.9414 65.8008 39.8242 65.2344C39.6875 64.5703 39.4727 63.5742 40.2734 62.6758C41.0742 61.7773 42.0898 61.875 42.7734 61.9531C43.3398 62.0117 43.4961 61.9922 43.6133 61.875L45.0391 63.2227C44.2383 64.0625 43.2422 63.9648 42.5781 63.9063C41.9922 63.8477 41.8555 63.8672 41.7383 63.9844C41.6211 64.1211 41.6211 64.2578 41.7578 64.8242C41.8945 65.4883 42.1094 66.4844 41.3086 67.3828C40.5078 68.2813 39.4922 68.1836 38.8086 68.1055C38.3008 68.0469 38.0859 68.0469 37.9687 68.1445Z" fill="black"/>
</g>
<defs>
<clipPath id="clip0_559_1343">
<rect width="100" height="100" fill="white"/>
</clipPath>
</defs>
</svg>
