<svg width="100" height="100" viewBox="0 0 100 100" fill="none" xmlns="http://www.w3.org/2000/svg">
<g clip-path="url(#clip0_563_9513)">
<path d="M97.7229 97.8531V83.6128C96.7555 83.6319 95.7888 83.6433 94.8222 83.6472C79.2208 83.7143 64.1779 80.22 49.5035 75.0397C22.944 65.6646 1.85938 82.7889 1.85938 82.7889V97.8531H97.7229Z" fill="#F2D1A5"/>
<path d="M97.9473 34.6619V11.7652C97.9473 9.23991 95.718 7.29593 93.2163 7.63926L85.9127 8.64176L68.1186 11.0839C67.2367 11.2045 66.3433 11.2205 65.4582 11.1297L44.4194 8.97974C40.9381 8.62421 37.4904 9.91664 35.1001 12.4732L24.3983 23.9212C22.4597 25.9956 21.3809 28.7292 21.3809 31.5681V47.5807C21.3809 52.7489 22.6634 57.8362 25.1139 62.3864L25.931 63.9046C26.958 65.812 28.9317 67.064 31.0977 67.064C32.0933 67.064 33.0806 66.8091 33.8023 66.0431V61.4197" fill="#F2D1A5"/>
<path d="M11.2349 54.8898C8.30447 55.5665 5.51668 53.3112 5.56627 50.3037L5.62197 46.8842C5.63417 46.1304 5.46175 45.3858 5.12071 44.7129L3.57271 41.6634C2.21086 38.9817 3.72911 35.7338 6.66033 35.0571C9.54501 34.3918 12.3046 36.5685 12.3297 39.5295L12.3603 43.1572C12.3664 43.834 12.5197 44.5008 12.8112 45.1111L14.3729 48.3864C15.6478 51.059 14.1204 54.2245 11.2349 54.8898Z" fill="#FF7773"/>
<path d="M61.8379 47.6158C70.4866 46.3424 78.4593 43.5836 85.9606 39.4027L61.8379 47.6158Z" fill="#F2D1A5"/>
<path d="M32.7412 51.815C31.757 50.724 31.2626 49.1379 31.654 47.5609L32.4772 44.2413C32.6588 43.5097 32.6588 42.7444 32.4772 42.0128L31.654 38.694C30.9299 35.7742 33.1394 32.9506 36.1469 32.9506C39.1079 32.9506 41.3082 35.6918 40.6666 38.5818L39.8808 42.1249C39.7343 42.7849 39.7343 43.4692 39.8808 44.1299L40.1814 45.4849" fill="#FF7773"/>
<path d="M55.5916 24.1279V27.0996C55.5916 31.3835 53.5812 35.4187 50.161 37.9982C45.6215 41.4215 41.0827 44.8448 36.544 48.2689C34.053 50.1473 31.7054 51.9814 31.4857 55.4238C31.3545 57.4799 32.0907 59.578 33.4785 61.1008C34.8228 62.5771 36.8385 63.5071 38.8214 63.2721C40.2038 63.1081 41.465 62.4123 42.6292 61.6478C45.8206 59.5513 48.6252 56.9107 51.6968 54.6486C54.9721 52.2362 58.1177 49.6254 61.3152 47.1085C65.7883 43.589 70.2606 40.0688 74.7338 36.5494" fill="#F2D1A5"/>
<path d="M55.8996 59.2018C52.9302 58.7219 51.1999 55.5816 52.3801 52.8152L53.7221 49.6696C54.0182 48.9761 54.1402 48.2208 54.0777 47.47L53.7954 44.062C53.5467 41.0644 56.178 38.6291 59.1474 39.109C62.0702 39.5812 63.8044 42.6383 62.7096 45.3895L61.3691 48.7617C61.1189 49.3896 61.0098 50.0656 61.0494 50.7408L61.26 54.3632C61.4309 57.3188 58.8224 59.674 55.8996 59.2018Z" fill="#FF7773"/>
<path d="M86.1348 4.10449H98.0443V42.7993H86.1348V4.10449Z" fill="#535272"/>
<path d="M57.7512 84.7749C42.9799 91.9374 28.0576 89.3174 20.477 87.1179C19.4386 86.8165 18.3537 87.4139 18.0524 88.4515C17.7518 89.4891 18.3492 90.5748 19.3868 90.8754C23.3411 92.0228 29.5552 93.3893 36.7215 93.3893H36.7582C44.8614 93.3839 52.4992 91.6703 59.4587 88.2951C60.4307 87.8236 60.8366 86.6532 60.3651 85.6813C59.8936 84.7093 58.724 84.3026 57.7512 84.7749Z" fill="black"/>
<path d="M12.2396 84.2393L12.1412 84.2621C11.0891 84.5101 10.4375 85.5637 10.6855 86.6151C10.8976 87.5161 11.7009 88.1234 12.5882 88.1234C12.7362 88.1234 12.8873 88.1066 13.0384 88.0707L13.1368 88.0479C14.1889 87.7999 14.8404 86.747 14.5925 85.695C14.3453 84.6436 13.2909 83.9921 12.2396 84.2393Z" fill="black"/>
<path d="M68.3221 17.8062L68.2229 17.8291C67.1708 18.0755 66.5185 19.1291 66.7649 20.1805C66.9763 21.0823 67.7804 21.6911 68.6677 21.6911C68.8157 21.6911 68.966 21.6743 69.1163 21.6384L69.2155 21.6156C70.2676 21.3684 70.9199 20.3155 70.6735 19.2634C70.4263 18.2121 69.3734 17.559 68.3221 17.8062Z" fill="black"/>
<path d="M98.0441 2.14832H86.1346C85.0543 2.14832 84.1784 3.02417 84.1784 4.1045V6.95103L67.9499 9.17805C67.2228 9.278 66.4835 9.29097 65.7534 9.2162L44.7153 7.06623C40.6488 6.65043 36.5579 8.1847 33.7678 11.1693L23.0661 22.618C20.7803 25.0632 19.5214 28.2539 19.5214 31.6009V47.6135C19.5214 53.0876 20.8932 58.5274 23.488 63.3469L24.3059 64.8651C25.6967 67.4484 28.3365 69.0529 31.1944 69.0529C32.3709 69.0529 33.4184 68.779 34.2874 68.2533V70.3064C27.8146 70.195 22.0712 71.3364 17.4668 72.7791L13.6109 56.0676C14.7309 55.4161 15.6427 54.4426 16.2225 53.2409C17.0953 51.4328 17.0999 49.3568 16.2355 47.5441L14.6737 44.2695C14.5066 43.9193 14.4166 43.5295 14.4136 43.1411L14.3823 39.5133C14.3655 37.5053 13.4515 35.6407 11.8753 34.3978C10.299 33.1542 8.27341 32.7003 6.31647 33.1519C4.32901 33.6097 2.69479 34.9326 1.83114 36.7805C0.967488 38.6283 1.00182 40.731 1.92498 42.5499L3.47299 45.5993C3.66906 45.9861 3.76901 46.4195 3.76214 46.8528L3.70645 50.2723C3.67364 52.3117 4.56399 54.2167 6.14938 55.5C7.21063 56.3583 8.48017 56.8527 9.79853 56.9488L13.7529 74.0875C5.78317 77.2034 0.93697 81.0967 0.723347 81.2699C-0.115888 81.9512 -0.243299 83.1833 0.438007 84.0218C1.11931 84.861 2.35146 84.9884 3.18993 84.3071C3.23647 84.2698 7.54785 80.8068 14.6424 77.9442L15.12 80.0133C15.3283 80.9182 16.134 81.53 17.0243 81.53C17.1701 81.53 17.3181 81.514 17.4661 81.4797C18.5189 81.2371 19.1751 80.1865 18.9325 79.1336L18.3488 76.6022C22.5534 75.2525 26.8174 74.4614 31.0495 74.2493C32.1306 74.1951 33.2101 74.1799 34.2874 74.2012V78.6354C34.2874 79.7165 35.1633 80.5924 36.2436 80.5924C37.3247 80.5924 38.2005 79.7165 38.2005 78.6354V74.4469C41.8337 74.8299 45.4294 75.6416 48.9488 76.8845C49.5119 77.0828 50.0719 77.2774 50.6304 77.4689L50.0231 81.2256C49.8506 82.2922 50.5754 83.2962 51.642 83.4687C51.7481 83.4862 51.8534 83.4938 51.9564 83.4938C52.8993 83.4938 53.7302 82.8102 53.8858 81.8497L54.3924 78.7155C68.8463 83.3443 82.0147 85.6049 94.4827 85.6041C94.6307 85.6041 94.7795 85.6041 94.9275 85.6034C95.8995 85.5996 96.8859 85.5873 97.8579 85.5683C98.9383 85.5469 99.7966 84.6543 99.7752 83.5739C99.7546 82.4936 98.862 81.6338 97.7809 81.6567C96.8287 81.675 95.8628 81.6864 94.9107 81.6902C82.5678 81.7505 69.475 79.4892 55.0234 74.8093L57.2237 61.1992C58.6679 61.0947 60.0451 60.5156 61.1483 59.5199C62.6383 58.1749 63.4264 56.2538 63.3097 54.2495L63.0991 50.6271C63.077 50.2395 63.1403 49.8443 63.2837 49.4842L63.3272 49.3759C70.6728 48.1842 77.5332 45.9617 84.1776 42.6124V42.7993C84.1776 43.8797 85.0535 44.7555 86.1346 44.7555H98.0433C99.1244 44.7555 100 43.8797 100 42.7993V4.1045C100 3.02417 99.1244 2.14832 98.0441 2.14832ZM7.61881 50.3357L7.6745 46.9162C7.69205 45.848 7.44562 44.7807 6.96191 43.8278L5.41391 40.7783C5.0393 40.0405 5.02557 39.1868 5.37576 38.4368C5.72595 37.6869 6.38971 37.1498 7.19614 36.9644C7.39755 36.9178 7.6005 36.8949 7.80191 36.8949C8.39548 36.8949 8.97455 37.0933 9.45215 37.4694C10.0923 37.9745 10.4631 38.7313 10.4699 39.5462L10.5004 43.1739C10.5088 44.1299 10.7301 45.0904 11.1421 45.9533L12.7038 49.2286C13.0548 49.9641 13.0525 50.8072 12.6985 51.5411C12.3445 52.2743 11.686 52.8007 10.8926 52.9838H10.8918C10.0854 53.17 9.25379 52.9777 8.61063 52.4574C7.96671 51.9363 7.60507 51.1635 7.61881 50.3357ZM34.4728 41.542L33.6496 38.2225C33.4505 37.4191 33.629 36.5844 34.1386 35.9329C34.649 35.2806 35.4158 34.9067 36.2436 34.9067C37.0584 34.9067 37.8183 35.2714 38.3287 35.9069C38.8383 36.5417 39.0298 37.3626 38.8536 38.1584L38.0678 41.7007C37.8603 42.6338 37.8603 43.6203 38.0678 44.5533L38.1029 44.7143L35.4623 46.7064C34.8703 47.1527 34.2432 47.6265 33.6282 48.1475C33.6359 48.1086 33.6397 48.0697 33.6496 48.0308L34.4728 44.7113C34.7299 43.6752 34.7299 42.5788 34.4728 41.542ZM50.2512 73.1949C46.0741 71.7201 42.0335 70.8916 38.1998 70.5261V65.2596C38.2402 65.2603 38.2814 65.2634 38.3218 65.2634C38.5988 65.2634 38.875 65.2473 39.1481 65.2145C40.9883 64.9963 42.5325 64.1151 43.7998 63.2828C45.7689 61.9888 47.5878 60.5049 49.3471 59.0698C49.8735 58.6403 50.4091 58.2039 50.9485 57.7728C50.9554 57.785 50.9607 57.798 50.9676 57.8102C51.5512 58.8692 52.395 59.7237 53.4029 60.3142L51.2644 73.5474C50.9271 73.4306 50.5899 73.3147 50.2512 73.1949ZM59.1936 50.8545L59.4042 54.4769C59.4515 55.2902 59.1311 56.0699 58.5268 56.6162C57.9218 57.1617 57.1138 57.4005 56.3089 57.27C55.4918 57.138 54.7945 56.6467 54.3947 55.9212C53.9949 55.1964 53.9522 54.3442 54.2772 53.5827L55.6192 50.4371C56.0388 49.4545 56.2136 48.3726 56.1251 47.3083L55.842 43.8995C55.7741 43.0748 56.0831 42.279 56.6904 41.7175C57.2977 41.1552 58.114 40.908 58.9327 41.0408C59.7368 41.1705 60.4288 41.6519 60.8309 42.3599C61.233 43.0686 61.2909 43.9094 60.9896 44.667L59.6483 48.0384C59.2951 48.9265 59.1379 49.9 59.1936 50.8545ZM67.943 44.4587L76.0393 38.0866C76.8885 37.4183 77.035 36.1884 76.3674 35.3393C75.6991 34.4909 74.4692 34.3437 73.6201 35.012L64.8501 41.9128C64.7074 41.4016 64.5029 40.9034 64.2344 40.4296C63.2441 38.6833 61.5389 37.4984 59.5568 37.178C57.5434 36.8522 55.53 37.4595 54.0331 38.845C52.5362 40.2305 51.774 42.1905 51.9426 44.2237L52.2257 47.6318C52.2615 48.0636 52.1906 48.5031 52.0204 48.9013L50.6784 52.0469C50.4984 52.4696 50.3664 52.903 50.2779 53.3417C49.1083 54.219 47.973 55.1414 46.8736 56.0379C45.1135 57.4737 43.4519 58.8295 41.6513 60.0128C40.7648 60.5949 39.7195 61.2068 38.6873 61.3289C38.1372 61.3945 37.5589 61.3174 36.9981 61.1183C36.9905 61.1153 36.9829 61.1122 36.9752 61.1091C36.2634 60.8513 35.5806 60.3966 35.0214 59.7832C33.9929 58.6548 33.4375 57.0717 33.5344 55.5481C33.69 53.1112 35.2571 51.7624 37.8183 49.8306L51.4353 39.5599C55.3232 36.6279 57.6448 31.9694 57.6448 27.0995V24.1279C57.6448 23.0468 56.769 22.1709 55.6879 22.1709C54.6076 22.1709 53.7317 23.0468 53.7317 24.1279V27.0995C53.7317 30.7487 51.9922 34.2391 49.0793 36.4364L42.0709 41.7221L42.6729 39.006C43.1078 37.046 42.6363 35.0234 41.3805 33.4579C41.3026 33.361 41.2225 33.2671 41.1409 33.1764C43.3191 31.4544 45.9795 30.3344 48.7016 30.0353C49.7751 29.9171 50.5503 28.9512 50.4328 27.877C50.3145 26.8028 49.3486 26.0299 48.2736 26.1459C44.3193 26.5807 40.4726 28.3775 37.5352 31.1233C37.1141 31.0401 36.6823 30.9943 36.2436 30.9943C34.2042 30.9943 32.3137 31.916 31.0571 33.522C29.7998 35.1287 29.3611 37.1856 29.8517 39.1647L30.6749 42.4842C30.7786 42.9054 30.7786 43.3502 30.6749 43.7706L29.8517 47.0901C29.4435 48.7365 29.696 50.457 30.517 51.915C30.0378 52.8915 29.7128 54.0046 29.6297 55.2994C29.4702 57.8041 30.3117 60.3027 31.9429 62.204V65.0467C31.759 65.1016 31.5156 65.1405 31.1944 65.1405C29.7777 65.1405 28.4578 64.3242 27.7505 63.0104L26.9327 61.4921C24.6438 57.241 23.4338 52.4421 23.4338 47.6143V31.6016C23.4338 29.2495 24.3188 27.008 25.9248 25.2906L36.6266 13.8419C38.5866 11.7453 41.4613 10.6673 44.317 10.9595L65.3559 13.1095C66.395 13.2155 67.4463 13.1972 68.4817 13.0553L84.1784 10.9008V15.3296L76.1835 16.6076C75.1162 16.7785 74.3899 17.781 74.5608 18.8483C74.7141 19.8104 75.5457 20.4963 76.4902 20.4963C76.5925 20.4963 76.6962 20.4879 76.8008 20.4711L84.1784 19.2924V38.198C78.9416 41.0194 73.5804 43.0908 67.943 44.4587ZM96.0871 40.8432H88.0908V6.06068H96.0871V40.8432Z" fill="black"/>
</g>
<defs>
<clipPath id="clip0_563_9513">
<rect width="100" height="100" fill="white"/>
</clipPath>
</defs>
</svg>
