<svg width="100" height="100" viewBox="0 0 100 100" fill="none" xmlns="http://www.w3.org/2000/svg">
<g clip-path="url(#clip0_417_486)">
<path d="M32.7426 14.4822L27.75 9.4896L34.8355 2.40405C35.5445 1.69507 36.6941 1.69507 37.4033 2.40405L39.8281 4.82886C40.5371 5.53784 40.5371 6.68745 39.8281 7.39663L32.7426 14.4822Z" fill="#3D6687"/>
<path d="M46.018 20.7422L41.0254 15.7496L48.1109 8.66406C48.8199 7.95508 49.9695 7.95508 50.6787 8.66406L53.1035 11.0889C53.8125 11.7979 53.8125 12.9475 53.1035 13.6566L46.018 20.7422Z" fill="#3D6687"/>
<path d="M85.9375 67.6778L90.9301 72.6704L98.0156 65.5849C98.7246 64.8759 98.7246 63.7263 98.0156 63.0171L95.5908 60.5923C94.8818 59.8833 93.7322 59.8833 93.023 60.5923L85.9375 67.6778Z" fill="#3D6687"/>
<path d="M78.8359 54.4033L83.8285 59.3959L90.9141 52.3103C91.623 51.6013 91.623 50.4517 90.9141 49.7426L88.4893 47.3177C87.7803 46.6088 86.6307 46.6088 85.9215 47.3177L78.8359 54.4033Z" fill="#3D6687"/>
<path d="M85.5353 88.4655L53.8429 46.0069L11.3843 14.3143C9.89646 13.2038 9.73962 11.0319 11.0525 9.719L15.4054 5.36607C17.3543 3.41724 20.2855 2.83443 22.8316 3.8897L74.5328 25.317L95.9601 77.0182C97.0154 79.5643 96.4326 82.4956 94.4838 84.4444L90.1308 88.7973C88.8179 90.1102 86.6461 89.9534 85.5353 88.4655Z" fill="#CCDFED"/>
<path d="M35.927 97.6047L21.3522 78.227L1.97444 63.6522C1.33948 63.1745 1.27405 62.2454 1.83597 61.6837L4.07054 59.4491C5.57601 57.9436 7.85667 57.5282 9.79632 58.4063L31.3955 68.1837L41.1731 89.7829C42.051 91.7225 41.6358 94.0032 40.1303 95.5086L37.8957 97.7432C37.3338 98.3051 36.4047 98.2397 35.927 97.6047Z" fill="#CCDFED"/>
<path d="M35.7403 84.4707C33.9244 86.2865 30.9221 86.0752 29.3785 84.023L23.4451 76.1342L23.4266 76.1527L2.84866 60.6709L1.83597 61.6836C1.27405 62.2455 1.33948 63.1746 1.97444 63.6523L21.3522 78.2271L35.927 97.6049C36.4045 98.2398 37.3338 98.3053 37.8955 97.7434L40.1301 95.5088C41.6356 94.0033 42.051 91.7227 41.1729 89.783L37.8244 82.3863L35.7403 84.4707Z" fill="#BAD5E5"/>
<path d="M95.8471 82.4868C95.9347 82.2973 96.0168 82.1055 96.0863 81.9094C96.2293 81.5073 96.3297 81.0922 96.3951 80.6713C96.5832 79.4614 96.4502 78.1987 95.9609 77.018L92.8463 69.5026L92.6484 69.025C92.4638 70.4971 91.8006 71.9018 90.7058 72.9963L86.3529 77.3493C85.04 78.6622 82.8681 78.5053 81.7576 77.0174L56.5728 43.2778L11.3824 9.38989L11.0533 9.71899C10.1906 10.5817 9.96658 11.8139 10.3336 12.8737C10.5252 13.4268 10.8748 13.9336 11.3851 14.3145L38.9711 34.9055L53.8437 46.0069L64.9451 60.8795L85.5361 88.4655C85.917 88.9756 86.4238 89.3254 86.9769 89.517C88.0365 89.884 89.2689 89.66 90.1316 88.7973L94.4846 84.4444C95.0621 83.8667 95.5166 83.2014 95.8471 82.4868Z" fill="#BAD5E5"/>
<path d="M21.3489 83.4296C18.0314 85.0126 14.5661 81.5474 16.1491 78.2298C19.6677 70.8558 24.162 63.9886 29.5112 57.8128L66.2704 15.3738C71.7087 9.09507 79.3659 5.16499 87.6378 4.40659L89.8917 4.19995C93.0337 3.91186 95.6669 6.54507 95.3788 9.68706L95.1722 11.941C94.4138 20.2126 90.4837 27.8699 84.205 33.3083L41.7659 70.0675C35.5901 75.4169 28.723 79.9111 21.3489 83.4296Z" fill="#61AFF6"/>
<path d="M95.1717 11.941L95.3783 9.68706C95.6664 6.54507 93.0332 3.91186 89.8912 4.19995L87.6373 4.40659C87.608 4.40933 87.5787 4.41304 87.5492 4.41577C86.7711 12.6537 82.8475 20.2761 76.5912 25.6951L16.9297 82.6851C18.0135 83.7552 19.699 84.2168 21.3484 83.4296C28.7225 79.9111 35.5896 75.4167 41.7654 70.0675L84.2045 33.3082C90.4832 27.8701 94.4135 20.2128 95.1717 11.941Z" fill="#399AEA"/>
<path d="M77.4788 12.1204C76.6794 12.052 75.9761 12.6446 75.9077 13.4438C75.8394 14.2428 76.4319 14.9465 77.2311 15.0149C81.5872 15.3877 84.1913 17.9922 84.5642 22.3479C84.5946 22.7028 84.7501 23.017 84.9839 23.2506C85.2765 23.543 85.6911 23.7092 86.1353 23.6713C86.9345 23.6028 87.5271 22.8995 87.4587 22.1002C86.9661 16.3436 83.2351 12.6127 77.4788 12.1204Z" fill="black"/>
<path d="M10.5149 15.4783L43.1547 39.8418L32.26 52.4199C31.7348 53.0261 31.8006 53.9435 32.4068 54.4687C32.6816 54.7066 33.0201 54.8234 33.3572 54.8234C33.7639 54.8234 34.1684 54.6535 34.4557 54.3218L46.3727 40.5634C46.3729 40.5632 46.3729 40.5632 46.3731 40.563L67.3672 16.3248C72.5859 10.2996 79.8315 6.58081 87.7693 5.85308L90.0233 5.64663C91.0916 5.54878 92.1361 5.9271 92.8934 6.68452C93.6508 7.44175 94.0291 8.48784 93.9313 9.55464L93.7248 11.8085C93.2461 17.0308 91.4227 22.0757 88.4516 26.3972C87.9971 27.0584 88.1647 27.9626 88.8256 28.4171C89.4869 28.8718 90.391 28.7041 90.8455 28.0431C94.0977 23.3125 96.0936 17.7904 96.6176 12.0738L96.824 9.81987C97.0008 7.89136 96.3168 5.99976 94.9475 4.63042C93.5779 3.26108 91.6859 2.57769 89.758 2.75386L87.5041 2.9603C78.8152 3.75698 70.884 7.82768 65.1715 14.4232L61.7027 18.4279L53.7018 15.1119L54.1297 14.6839C55.4039 13.4095 55.4039 11.3361 54.1297 10.0619L51.7053 7.63667C50.4311 6.36284 48.3576 6.36245 47.0832 7.63667L43.7379 10.982L39.8914 9.38784L40.8555 8.42378C42.1297 7.14937 42.1297 5.07612 40.8555 3.8019L38.4305 1.3769C37.1559 0.102686 35.0824 0.103076 33.8084 1.3769L29.9272 5.25815L23.3871 2.54761C20.2869 1.26265 16.7508 1.96597 14.3777 4.33862L10.0246 8.69175C9.10059 9.61577 8.62462 10.8935 8.71876 12.197C8.8129 13.5005 9.46778 14.6964 10.5149 15.4783ZM49.1373 9.69116C49.2783 9.54937 49.509 9.54917 49.6508 9.69116L52.0756 12.116C52.2172 12.2574 52.2172 12.488 52.0758 12.6294L50.7973 13.9078L46.6424 12.1859L49.1373 9.69116ZM35.8627 3.4312C36.0039 3.2894 36.2346 3.28921 36.3762 3.4312L38.801 5.85601C38.9426 5.99741 38.9426 6.22788 38.801 6.36929L36.9867 8.18374L32.8318 6.46186L35.8627 3.4312ZM12.0791 10.746L16.432 6.39312C17.4604 5.36499 18.825 4.82026 20.2174 4.82026C20.909 4.82026 21.6078 4.95483 22.2754 5.2314L59.699 20.7416L45.0623 37.64L12.2525 13.1501C11.876 12.8693 11.6502 12.4564 11.6162 11.9878C11.5826 11.5193 11.7467 11.0781 12.0791 10.746Z" fill="black"/>
<path d="M99.0443 61.9904L96.6195 59.5652C95.3449 58.291 93.2715 58.2914 91.9974 59.5652L90.7969 60.7658L88.9558 56.3236L91.942 53.3374C93.2162 52.063 93.2162 49.9898 91.942 48.7156L89.5172 46.2904C88.2426 45.0162 86.1691 45.0164 84.8951 46.2906L84.8263 46.3593L81.2681 37.7738L85.156 34.4062C85.4429 34.1576 85.7291 33.9011 86.0066 33.6439C86.5951 33.0986 86.6299 32.1794 86.0844 31.5914C85.5394 31.0031 84.6203 30.9683 84.0318 31.5136C83.7779 31.7488 83.5164 31.9831 83.2541 32.2105L40.8146 68.9697C38.5965 70.891 36.2863 72.699 33.8953 74.3906C30.5937 76.7265 27.1047 78.8558 23.5252 80.7201C23.5244 80.7205 23.5236 80.721 23.5228 80.7214C22.598 81.2031 21.665 81.6695 20.7232 82.1189C19.572 82.6683 18.5297 82.232 17.9381 81.6406C17.3467 81.049 16.9103 80.0066 17.4595 78.8552C17.9383 77.8519 18.4379 76.8589 18.9533 75.8748C19.1465 75.5058 19.3416 75.1375 19.5404 74.7705C19.5851 74.6878 19.631 74.606 19.676 74.5234C19.8724 74.1634 20.0705 73.8044 20.2722 73.4466C20.3144 73.3718 20.3576 73.2974 20.4 73.2226C20.6072 72.8576 20.8164 72.4935 21.0289 72.131C21.0683 72.0638 21.1084 71.997 21.1478 71.9298C21.3644 71.5625 21.5834 71.1964 21.8054 70.832C21.8457 70.766 21.8865 70.7001 21.9269 70.6341C22.148 70.273 22.3717 69.9134 22.5978 69.5554C22.6439 69.4824 22.6904 69.4099 22.7367 69.3371C22.9572 68.9904 23.1801 68.6453 23.4051 68.3017C23.4607 68.2169 23.5166 68.1324 23.5724 68.0478C23.7892 67.7193 24.0084 67.3925 24.2293 67.0673C24.2947 66.971 24.3605 66.8748 24.4263 66.7787C24.6418 66.4644 24.8592 66.1517 25.0781 65.8406C26.6353 63.6292 28.2906 61.4863 30.0437 59.4224C30.5629 58.8109 30.4884 57.8943 29.8769 57.375C29.265 56.856 28.349 56.9304 27.8295 57.5417C26.3234 59.315 24.8877 61.1453 23.5211 63.0246L10.3947 57.0826C7.91814 55.9613 4.96404 56.4996 3.04275 58.4214L0.808178 60.6562C0.242748 61.2216 -0.0492443 62.0037 0.00681039 62.8015C0.0630604 63.5994 0.461889 64.3324 1.10095 64.8128L15.7213 75.8093C15.4211 76.4048 15.125 77.0023 14.8377 77.6042C13.848 79.6789 14.2588 82.0695 15.884 83.6947C16.9207 84.7316 18.2687 85.274 19.6476 85.274C20.4302 85.274 21.223 85.099 21.9742 84.7406C22.5763 84.4533 23.1738 84.1572 23.7691 83.8572L34.7656 98.4775C35.2463 99.1165 35.9793 99.5154 36.7769 99.5716C36.842 99.5761 36.9066 99.5785 36.9713 99.5785C37.7006 99.5785 38.4025 99.2896 38.922 98.7701L41.1562 96.5357C43.0781 94.6142 43.6162 91.6595 42.4955 89.1837L36.5543 76.0591C38.6748 74.5171 40.731 72.8849 42.7164 71.1654L59.7783 56.3871L84.3713 89.3341C85.1531 90.3816 86.3492 91.0363 87.6527 91.1302C87.7613 91.138 87.8695 91.1419 87.9777 91.1419C89.1664 91.1419 90.3109 90.6712 91.158 89.8242L95.5107 85.4714C97.8838 83.0986 98.5869 79.5623 97.3021 76.4623L94.9265 70.7302L99.0445 66.6123C100.319 65.3378 100.319 63.2646 99.0443 61.9904ZM2.98083 62.5919L5.09704 60.4759C6.16853 59.4044 7.81619 59.1044 9.19665 59.7294L21.8193 65.4435C21.7922 65.4833 21.7656 65.524 21.7386 65.5638C21.581 65.7966 21.4246 66.0302 21.2689 66.2644C21.1931 66.3785 21.1179 66.4931 21.0427 66.6076C20.5135 67.4126 19.9967 68.2257 19.4926 69.0468C19.4297 69.1494 19.3664 69.2515 19.3039 69.3542C19.1549 69.5992 19.0072 69.8449 18.8605 70.0912C18.7845 70.2185 18.7093 70.3462 18.6342 70.474C18.4926 70.7142 18.3511 70.9544 18.2117 71.1958C18.1406 71.3189 18.0711 71.4427 18.0006 71.566C17.7699 71.9697 17.5424 72.3751 17.3177 72.7824C17.2408 72.922 17.1625 73.0613 17.0863 73.2011L2.98083 62.5919ZM39.8492 90.382C40.474 91.7624 40.1742 93.4099 39.1023 94.4816L36.9865 96.5976L26.3773 82.4921C26.6058 82.3677 26.8332 82.241 27.0607 82.1144C27.3857 81.9339 27.7093 81.7513 28.032 81.5669C28.1843 81.4798 28.3367 81.3929 28.4886 81.305C28.7316 81.1644 28.9736 81.0226 29.2152 80.8798C29.3361 80.8083 29.4566 80.7361 29.5773 80.664C30.4097 80.1667 31.2342 79.6566 32.0506 79.1335C32.1572 79.0652 32.264 78.9968 32.3705 78.9281C32.6226 78.765 32.8744 78.6011 33.125 78.4355C33.2256 78.3691 33.3256 78.3017 33.4259 78.2349C33.6629 78.0771 33.9006 77.9207 34.1359 77.7607L39.8492 90.382ZM86.949 48.3449C87.0902 48.2031 87.3209 48.2031 87.4625 48.3447L89.8873 50.7699C90.0289 50.9113 90.0289 51.1417 89.8873 51.2832L87.7517 53.4189L86.0299 49.264L86.949 48.3449ZM93.4564 83.4171L89.1035 87.7701C88.7717 88.1021 88.331 88.2646 87.8619 88.233C87.3931 88.1992 86.9804 87.973 86.6994 87.5966L61.9802 54.48L78.9537 39.7783C78.9535 39.7779 78.9539 39.7787 78.9537 39.7783L94.6181 77.5744C94.6181 77.5742 94.6181 77.5746 94.6181 77.5744C95.4515 79.5847 94.9957 81.8781 93.4564 83.4171ZM96.99 64.5578L93.7226 67.8253L92.0006 63.6703L94.0517 61.6193C94.1929 61.4775 94.4236 61.4775 94.5652 61.6191L96.99 64.0441V64.0443C97.1316 64.1859 97.1316 64.4164 96.99 64.5578Z" fill="black"/>
</g>
<defs>
<clipPath id="clip0_417_486">
<rect width="100" height="100" fill="white"/>
</clipPath>
</defs>
</svg>
