<svg width="100" height="100" viewBox="0 0 100 100" fill="none" xmlns="http://www.w3.org/2000/svg">
<g clip-path="url(#clip0_419_1411)">
<path d="M29.8174 51.1261L29.5443 50.8531L16.9434 43.8529C38.0961 22.7002 49.3977 25.6009 49.3977 25.6009L49.399 25.6023C42.7473 32.8843 34.7641 42.9482 29.8174 51.1261Z" fill="#FF6B6B"/>
<path d="M48.8711 70.1803C57.0492 65.2338 67.1147 57.2518 74.3965 50.5999C74.3965 50.5999 77.299 61.9028 56.1463 83.0555L49.1459 70.4545L48.8711 70.1803Z" fill="#EE5253"/>
<path d="M78.6225 46.5772C77.3693 47.8301 75.9469 49.1858 74.3955 50.5996C67.1137 57.2516 57.0482 65.2334 48.8701 70.1801L29.8164 51.1262C34.7629 42.9483 42.7463 32.8844 49.3982 25.6024C50.8125 24.051 52.1676 22.6283 53.4207 21.3754C62.6264 12.1698 71.8139 6.6842 80.8781 3.87561L96.1223 19.1197C93.3139 28.1842 87.8283 37.3715 78.6225 46.5772Z" fill="#E4E8EB"/>
<path d="M96.1229 19.1199L91.9221 14.9193C89.1135 23.9836 83.6277 33.1709 74.4221 42.3765C73.1691 43.6297 71.7467 44.9851 70.1951 46.399C62.9133 53.0511 52.848 61.033 44.6699 65.9795L48.8705 70.1802C57.0486 65.2338 67.1141 57.2517 74.3959 50.5998C75.9473 49.1857 77.3697 47.8302 78.6229 46.5773C87.8287 37.3715 93.3143 28.1842 96.1229 19.1199Z" fill="#CAD0D7"/>
<path d="M96.1231 19.1199L80.8789 3.87577C86.8125 2.03612 92.6928 1.34452 98.4893 1.50955C98.6543 7.30584 97.9629 13.1863 96.1231 19.1199Z" fill="#FF6B6B"/>
<path d="M98.4887 1.50934C97.0811 1.4693 95.6687 1.48063 94.2516 1.54587C94.0486 5.96462 93.3148 10.4265 91.9219 14.9193L96.1225 19.1199C97.9625 13.1863 98.6539 7.30583 98.4887 1.50934Z" fill="#EE5253"/>
<path d="M78.4289 21.5703C81.1352 24.2766 81.1352 28.6647 78.4289 31.3709C75.7227 34.0774 71.3346 34.0774 68.627 31.3723C65.9205 28.666 65.9219 24.2766 68.627 21.5717C71.3346 18.8637 75.7225 18.8637 78.4289 21.5703Z" fill="#54A0FF"/>
<path d="M78.4283 21.5703C77.6766 20.8186 76.7947 20.2766 75.8557 19.9424C76.7244 22.3842 76.1822 25.2156 74.2277 27.1703C72.2729 29.1252 69.4408 29.6672 66.998 28.7984C67.332 29.7381 67.8742 30.6203 68.6264 31.3723C71.334 34.0773 75.7221 34.0773 78.4283 31.3709C81.1346 28.6645 81.1346 24.2764 78.4283 21.5703Z" fill="#2E86DE"/>
<path d="M61.6232 38.374C64.3295 41.0805 64.3309 45.467 61.6231 48.1748C58.9168 50.8811 54.5289 50.8811 51.8238 48.1735C49.1162 45.4684 49.1162 41.0805 51.8227 38.374C54.5289 35.6678 58.9168 35.6678 61.6232 38.374Z" fill="#54A0FF"/>
<path d="M61.6256 38.3727C60.8738 37.6211 59.992 37.0789 59.0527 36.7448C59.9217 39.1865 59.3795 42.018 57.4248 43.9727C55.4699 45.9276 52.6381 46.4698 50.1953 45.601C50.5291 46.5405 51.0715 47.4229 51.8234 48.1748C54.5312 50.8797 58.9193 50.8797 61.6256 48.1735C64.332 45.467 64.332 41.0793 61.6256 38.3727Z" fill="#2E86DE"/>
<path d="M37.9443 70.4545L33.7439 66.2543L29.5438 62.0542L26.0293 58.5397C26.8416 56.3977 28.1574 53.869 29.8168 51.1262L48.8705 70.1801C46.1291 71.8377 43.5992 73.1553 41.457 73.9674L37.9443 70.4545Z" fill="#576574"/>
<path d="M44.6693 65.9795C41.9277 67.6373 39.3979 68.9547 37.2559 69.767L37.9439 70.4549L41.4566 73.9678C43.5988 73.1561 46.1289 71.8383 48.8701 70.1805L44.6693 65.9795Z" fill="#222F3E"/>
<path d="M30.9446 69.0545C34.8103 72.9201 34.8101 79.1902 30.9446 83.0557C27.0775 86.9227 5.98761 101.743 2.12218 97.8773C-1.74481 94.0103 13.0767 72.9219 16.9437 69.0547C20.8091 65.1889 27.0773 65.1875 30.9446 69.0545Z" fill="#FF6B6B"/>
<path d="M30.9442 69.0545C30.2122 68.3227 29.3941 67.7299 28.5226 67.275C30.4702 71.0073 29.8773 75.7211 26.7435 78.8549C23.6083 81.9901 9.15382 92.3235 1.73428 94.0635C1.32823 95.7959 1.38956 97.1455 2.12159 97.8774C5.98702 101.743 27.0769 86.9229 30.9441 83.0557C34.8099 79.1899 34.8101 72.9201 30.9442 69.0545Z" fill="#EE5253"/>
<path d="M26.7427 73.2549C28.2886 74.8008 28.2886 77.3095 26.7427 78.8553C25.1956 80.4025 12.5093 90.5826 10.9623 89.0353C9.41499 87.4883 19.5953 74.8019 21.1425 73.2551C22.688 71.7092 25.1955 71.7078 26.7427 73.2549Z" fill="#FECA57"/>
<path d="M98.9234 14.1395C99.6402 10.5715 100.003 6.87656 99.9986 3.16016C99.9986 2.5998 99.9887 2.03164 99.9729 1.46719C99.9531 0.681055 99.3195 0.0474609 98.5314 0.0238281C97.9531 0.00800781 97.3828 0 96.8383 0H96.8027C93.9516 0 91.1061 0.213867 88.3459 0.635547C85.7045 1.03984 83.0705 1.64707 80.5018 2.43965C80.4562 2.45156 80.4117 2.46543 80.3674 2.48164C80.1756 2.54141 79.9832 2.59941 79.7922 2.66133C76.8855 3.60176 73.9867 4.80977 71.1789 6.25117C68.2625 7.74805 65.3576 9.54199 62.5459 11.5814C62.2232 11.8131 62.0133 12.1576 61.9498 12.5496C61.8867 12.9398 61.9795 13.3338 62.2131 13.6545C62.4922 14.0387 62.942 14.2686 63.417 14.2686C63.7318 14.2686 64.0311 14.1715 64.2865 13.9873C66.991 12.0311 69.7691 10.3162 72.5453 8.88867C75.1353 7.55879 77.798 6.44355 80.4664 5.56484L94.4299 19.5281C93.9254 21.0652 93.3521 22.5871 92.7041 24.0836C91.1459 27.6873 89.1242 31.2752 86.6967 34.7443C84.1543 38.3814 81.0852 42.009 77.5727 45.5277C75.3193 47.7811 72.4918 50.3828 69.391 53.0498C66.1775 55.818 62.7342 58.6018 59.4334 61.1027C56.0873 63.6432 52.8973 65.8828 49.9492 67.7619C49.6596 67.9467 49.375 68.1254 49.0926 68.3014L31.6975 50.9064C33.043 48.7447 34.6113 46.4189 36.3719 43.9797C41.7734 36.4773 48.8779 28.0186 54.4715 22.427C56.1941 20.7023 57.9584 19.0746 59.7107 17.5857C60.3344 17.0549 60.4098 16.1166 59.8811 15.4928C59.5977 15.1602 59.1859 14.968 58.7482 14.968C58.3961 14.968 58.0553 15.0949 57.7879 15.3225C55.9682 16.8672 54.1467 18.5502 52.3705 20.3262C51.2496 21.4471 50.0603 22.69 48.8281 24.026C45.6047 23.7549 34.2727 24.4352 15.9195 42.7779C15.9178 42.7795 15.9162 42.7811 15.9148 42.7826C15.9078 42.79 15.9006 42.7967 15.8932 42.8039C15.8834 42.8137 15.8752 42.824 15.8656 42.8342C15.8445 42.8566 15.823 42.8795 15.8033 42.9035C15.7877 42.9223 15.7734 42.9418 15.7588 42.9611C15.7443 42.9801 15.7299 42.9988 15.7162 43.0187C15.6984 43.0447 15.6826 43.0715 15.6668 43.0982C15.66 43.1102 15.6518 43.1209 15.6451 43.1328C15.643 43.1367 15.6416 43.1406 15.6396 43.1443C15.6236 43.1738 15.6094 43.2041 15.5953 43.2344C15.5885 43.2494 15.5809 43.2643 15.5746 43.2793C15.5629 43.307 15.5535 43.335 15.5436 43.3633C15.5369 43.3822 15.5295 43.4012 15.5236 43.4201C15.5168 43.4432 15.5113 43.4662 15.5055 43.4896C15.4994 43.5143 15.4926 43.5385 15.4877 43.5633C15.484 43.5814 15.482 43.6002 15.4787 43.6184C15.4742 43.6477 15.4689 43.6769 15.4662 43.7062C15.4645 43.7227 15.4645 43.7391 15.4633 43.7553C15.4613 43.7863 15.4592 43.8176 15.459 43.8484C15.459 43.868 15.4605 43.8873 15.4613 43.9068C15.4623 43.9344 15.4627 43.9617 15.4652 43.9893C15.4678 44.0166 15.4723 44.0436 15.4764 44.0709C15.4793 44.0898 15.4811 44.1092 15.4848 44.1281C15.491 44.1619 15.4998 44.1957 15.5086 44.2291C15.5117 44.2412 15.5139 44.2535 15.5176 44.2654C15.5277 44.3008 15.54 44.3355 15.5529 44.3701C15.5566 44.3801 15.5594 44.3902 15.5635 44.4C15.576 44.4312 15.5904 44.4619 15.6049 44.4924C15.6111 44.5055 15.6168 44.5193 15.6234 44.5324C15.6361 44.557 15.6508 44.5809 15.665 44.6051C15.6758 44.6234 15.6857 44.6424 15.6975 44.6602C15.7094 44.6783 15.7227 44.6957 15.7352 44.7139C15.7516 44.7369 15.7676 44.7598 15.7852 44.7822C15.7963 44.7957 15.8084 44.8088 15.8197 44.8221C15.8406 44.8467 15.8623 44.8711 15.8852 44.8943C15.8883 44.8977 15.8908 44.901 15.8941 44.9043C15.9043 44.9145 15.9148 44.9227 15.9252 44.9324C15.9477 44.9535 15.9699 44.9746 15.9937 44.9945C16.0123 45.01 16.0316 45.0238 16.0506 45.0385C16.0699 45.0531 16.0891 45.068 16.1094 45.0816C16.1348 45.099 16.1609 45.1146 16.1871 45.1301C16.1994 45.1375 16.2107 45.1455 16.2232 45.1525L27.8174 51.5932C26.4111 54.016 25.3469 56.1645 24.6432 58.0164C24.4354 58.5609 24.568 59.1787 24.9818 59.5926L28.493 63.1037C28.4936 63.1043 28.4941 63.1051 28.4947 63.1057C28.4953 63.1062 28.4961 63.1068 28.4967 63.1074L32.6932 67.3039C32.6938 67.3045 32.6943 67.3053 32.6949 67.3059C32.6955 67.3064 32.6963 67.307 32.6969 67.3076L36.8934 71.5043C36.8941 71.5049 36.8947 71.5057 36.8953 71.5062C36.8959 71.5068 36.8967 71.5074 36.8973 71.508L40.4082 75.0187C40.6854 75.2959 41.0695 75.4543 41.4615 75.4543C41.6418 75.4543 41.818 75.4207 41.9842 75.3572C43.8326 74.6537 45.9857 73.59 48.4082 72.184L54.8312 83.7469C54.8316 83.7475 54.832 83.748 54.8322 83.7486L54.8484 83.7777C54.852 83.7838 54.8564 83.7893 54.86 83.7953C54.8859 83.8406 54.9145 83.8842 54.9457 83.9271C54.9553 83.9402 54.9646 83.9537 54.9746 83.9664C55.0066 84.0078 55.0412 84.0478 55.0781 84.0861C55.0842 84.0924 55.0898 84.0996 55.0961 84.1059L55.0967 84.1066C55.1385 84.1484 55.1826 84.1863 55.2277 84.2221C55.2418 84.2332 55.2566 84.2432 55.2711 84.2537C55.3068 84.2801 55.3434 84.3045 55.3811 84.3271C55.3949 84.3355 55.4088 84.3437 55.4229 84.3518C55.473 84.3799 55.5242 84.4055 55.5766 84.4273C55.5777 84.4277 55.5789 84.4285 55.5801 84.4289C55.6361 84.4521 55.6934 84.4709 55.7512 84.4869C55.7637 84.4904 55.7762 84.4928 55.7885 84.4961C55.8338 84.5074 55.8795 84.5164 55.9256 84.5234C55.9416 84.5258 55.9572 84.5283 55.9732 84.5303C56.0289 84.5365 56.0852 84.5412 56.1412 84.5412C56.1436 84.5414 56.1459 84.5418 56.1482 84.5418C56.1541 84.5418 56.1604 84.5408 56.1662 84.5406C56.2145 84.54 56.2627 84.5371 56.3105 84.5316C56.3303 84.5295 56.3498 84.5262 56.3695 84.523C56.4068 84.5176 56.4434 84.5105 56.4803 84.5021C56.4992 84.4978 56.518 84.4935 56.5367 84.4885C56.5842 84.4758 56.6312 84.4603 56.6771 84.443C56.6836 84.4404 56.6902 84.4389 56.6969 84.4363C56.752 84.4143 56.8061 84.3885 56.8584 84.3596C56.8615 84.3578 56.8647 84.3568 56.868 84.3553C56.8797 84.349 56.89 84.3412 56.9014 84.3346C56.9289 84.3184 56.9559 84.3021 56.9826 84.2838C57.0018 84.2709 57.0199 84.2566 57.0381 84.243C57.0582 84.2279 57.0785 84.2131 57.098 84.1967C57.1209 84.1777 57.1422 84.1578 57.1637 84.1377C57.1748 84.1271 57.1863 84.1182 57.1971 84.1074C57.2053 84.0992 57.2129 84.0914 57.2211 84.0832C57.2213 84.0828 57.2217 84.0826 57.2217 84.0826C75.567 65.7271 76.2457 54.3941 75.9744 51.1707C77.3008 49.9467 78.5439 48.7576 79.6723 47.6289C83.3018 44.0055 86.4855 40.2453 89.135 36.4477C91.6695 32.8182 93.7861 29.0541 95.4275 25.2603C96.2242 23.4207 96.9191 21.5471 97.5104 19.6537C97.5361 19.5865 97.5563 19.5178 97.5721 19.4482C98.1119 17.6906 98.5662 15.9182 98.9234 14.1395ZM46.0768 27.082C45.1732 28.1096 44.257 29.1732 43.3354 30.267C39.9949 34.2271 36.7537 38.3674 33.9619 42.2422C32.2074 44.6818 30.6695 46.9531 29.3533 49.0482L19.4008 43.5195C25.1623 37.9412 33.2197 31.2578 41.2148 28.3328C43.21 27.6025 44.834 27.2463 46.0768 27.082ZM41.8148 72.2264L40.0441 70.4557L40.3943 70.1053C40.9742 69.5254 40.9742 68.585 40.3941 68.0053C39.8141 67.4256 38.874 67.4254 38.2941 68.0055L37.9441 68.3557L35.8441 66.2557L36.1941 65.9055C36.774 65.3254 36.774 64.3852 36.1941 63.8053C35.6141 63.2256 34.6738 63.2256 34.0939 63.8053L33.7437 64.1553L31.6439 62.0555L31.9939 61.7053C32.5738 61.1252 32.5738 60.185 31.9939 59.6051C31.4139 59.0254 30.4736 59.0254 29.8937 59.6051L29.5436 59.9553L27.7729 58.1846C28.3471 56.8254 29.1367 55.2664 30.1254 53.535L46.4648 69.8742C44.7336 70.8621 43.1775 71.6498 41.8148 72.2264ZM71.666 58.7842C68.7412 66.7799 62.0582 74.8371 56.4797 80.5988L50.9498 70.6443C54.042 68.7043 57.5 66.2893 61.2271 63.4687C65.2203 60.4441 69.2729 57.1281 72.9162 53.9232C72.7521 55.1654 72.3957 56.7893 71.666 58.7842ZM83.7146 4.6123C85.4006 4.17832 87.1088 3.82832 88.8209 3.56816C91.4246 3.17422 94.1234 2.97227 96.8381 2.96992C96.9014 2.96992 96.965 2.96992 97.0262 2.96992C97.0281 3.0332 97.0281 3.09687 97.0281 3.15996C97.0225 6.70019 96.6797 10.1971 96.0086 13.5531C95.8266 14.4646 95.6176 15.3746 95.3842 16.2812L83.7146 4.6123Z" fill="black"/>
<path d="M23.9419 64.6703C20.9009 64.6703 18.0417 65.8543 15.8917 68.0049C13.7451 70.1513 8.99858 76.5717 5.35463 82.7078C3.23803 86.2717 1.72592 89.3291 0.860492 91.7947C-0.34986 95.2426 -0.28111 97.5756 1.07084 98.9277C1.78256 99.6392 2.78705 100 4.05678 100C11.4337 100 28.8115 87.2869 31.9931 84.106C36.4318 79.6666 36.4318 72.4437 31.9929 68.0049C29.8423 65.8545 26.9833 64.6703 23.9419 64.6703ZM29.8927 82.0058C28.2623 83.6363 23.1996 87.4666 17.8642 90.8123C11.5628 94.7637 6.53022 97.0299 4.05678 97.0299C3.62885 97.0299 3.2978 96.9541 3.17084 96.8273C2.69135 96.348 2.60776 93.1494 7.90815 84.2246C11.7085 77.8258 16.2828 71.8142 17.9919 70.1051C19.5812 68.5158 21.6945 67.6404 23.9421 67.6404C26.19 67.6404 28.3033 68.5158 29.8927 70.1052C33.1736 73.3859 33.1734 78.7248 29.8927 82.0058Z" fill="black"/>
<path d="M56.724 34.8588C54.4764 34.8588 52.3629 35.7343 50.7738 37.3236C49.1842 38.9131 48.3086 41.0263 48.3086 43.2742C48.3086 45.5218 49.1842 47.6351 50.7736 49.2244C52.3631 50.8138 54.4762 51.6892 56.724 51.6892C58.9717 51.6892 61.085 50.8138 62.6742 49.2246C64.2641 47.6353 65.1395 45.522 65.1393 43.274C65.1393 41.0263 64.2639 38.9131 62.6744 37.3238C61.085 35.734 58.9717 34.8588 56.724 34.8588ZM60.574 47.124C59.5457 48.1525 58.1781 48.7189 56.724 48.7189C55.2695 48.7189 53.9023 48.1527 52.8738 47.124C51.8453 46.0957 51.2787 44.7281 51.2787 43.274C51.2787 41.8195 51.8451 40.4521 52.874 39.4236C53.9023 38.3951 55.2699 37.8287 56.724 37.8287C58.1783 37.8287 59.5457 38.3949 60.574 39.4238C61.6027 40.4523 62.1691 41.8197 62.1691 43.274C62.1693 44.7285 61.6029 46.0959 60.574 47.124Z" fill="black"/>
<path d="M73.5266 34.8861C75.7743 34.8861 77.8876 34.0107 79.4768 32.4212C81.0665 30.832 81.9419 28.7187 81.9419 26.4709C81.9417 24.223 81.0663 22.1097 79.477 20.5205C77.8876 18.9308 75.7743 18.0554 73.5266 18.0554C71.2788 18.0554 69.1655 18.9308 67.5759 20.5203C64.295 23.8013 64.295 29.14 67.576 32.421C69.1655 34.0107 71.2786 34.8861 73.5266 34.8861ZM69.6761 22.6209C70.7048 21.5923 72.0723 21.0257 73.5266 21.0257C74.9809 21.0257 76.3483 21.5919 77.3766 22.6209C78.4052 23.6492 78.9718 25.0167 78.9718 26.471C78.9718 27.9255 78.4055 29.2927 77.3766 30.3212C76.3483 31.3498 74.9807 31.9162 73.5266 31.9162C72.0721 31.9162 70.7048 31.3498 69.6762 30.321C67.553 28.1982 67.553 24.7437 69.6761 22.6209Z" fill="black"/>
<path d="M23.9415 70.6104C22.4871 70.6104 21.1197 71.1766 20.0912 72.2051C19.2085 73.0879 16.2025 76.7594 13.6835 80.2818C12.207 82.3465 11.0923 84.0811 10.3708 85.4383C9.49389 87.0871 8.75346 88.9287 9.91108 90.0865C10.1824 90.3576 10.6683 90.6807 11.4441 90.6807C12.072 90.6807 13.7394 90.6807 20.4759 85.7645C23.8179 83.3258 26.9894 80.7086 27.7921 79.9059C29.9152 77.7826 29.9152 74.3283 27.7921 72.2051C26.7636 71.177 25.396 70.6102 23.9415 70.6104ZM25.6917 77.8055C25.1023 78.3951 22.1306 80.8762 18.7865 83.3205C15.7415 85.5461 13.8939 86.6434 12.8128 87.1846C13.354 86.1035 14.4511 84.2559 16.6769 81.2109C19.1212 77.8664 21.6019 74.8947 22.1915 74.3055C22.6589 73.8379 23.2806 73.5807 23.9417 73.5807C24.6029 73.5807 25.2246 73.8381 25.6919 74.3055C26.6568 75.2705 26.6568 76.8406 25.6917 77.8055Z" fill="black"/>
</g>
<defs>
<clipPath id="clip0_419_1411">
<rect width="100" height="100" fill="white"/>
</clipPath>
</defs>
</svg>
