<svg width="100" height="100" viewBox="0 0 100 100" fill="none" xmlns="http://www.w3.org/2000/svg">
<g clip-path="url(#clip0_613_36)">
<path d="M1.46484 82.9885V49.1748C1.46484 48.1324 2.01426 47.1674 2.91055 46.6354L7.40332 43.9682C11.1713 41.7313 15.8529 41.7 19.6504 43.8865L20.0779 44.1326C23.6523 46.1906 28.0568 46.1682 31.6104 44.0742C31.6695 44.0395 31.7287 44.0045 31.7877 43.9697C35.5324 41.7637 40.1787 41.7551 43.9312 43.9475C43.9324 43.9483 43.933 43.9485 43.933 43.9485C47.6811 46.1385 52.3188 46.1385 56.0668 43.9485L63.1342 39.3977C65.7793 37.6943 66.6061 34.2055 65.0064 31.4963C63.2813 28.5746 59.442 27.726 56.6461 29.6483L51.5881 33.1256C50.8299 33.6469 49.8373 32.9262 50.0984 32.0438L51.1209 28.5879C54.1629 18.3053 63.6078 11.2498 74.3309 11.2498C87.6984 11.2498 98.5352 22.0865 98.5352 35.4541V82.9883H1.46484V82.9885Z" fill="#90D8F9"/>
<path d="M98.5352 35.4551V82.9883H92.6758V35.4551C92.6758 28.7695 89.9668 22.7188 85.5859 18.3398C81.8574 14.6094 76.918 12.0918 71.4062 11.4277C72.3672 11.3105 73.3438 11.25 74.3301 11.25C81.0156 11.25 87.0664 13.959 91.4453 18.3398C95.8262 22.7188 98.5352 28.7695 98.5352 35.4551Z" fill="#75CEF9"/>
<path d="M98.5352 82.9885V86.8947C98.5352 87.9734 97.6607 88.8478 96.582 88.8478H3.41797C2.33926 88.8478 1.46484 87.9734 1.46484 86.8947V82.9885H98.5352Z" fill="#FFE07D"/>
<path d="M86.6309 73.2616L91.2336 75.684C92.0258 76.101 92.9205 75.3184 92.6033 74.4815C91.8014 72.366 91.8014 70.2508 92.6033 68.1354C92.9207 67.2983 92.0258 66.5159 91.2336 66.9328L86.6309 69.3553V73.2616Z" fill="#FFA95F"/>
<path d="M98.5352 82.9883V86.8945C98.5352 87.9727 97.6602 88.8477 96.582 88.8477H90.7227C91.8008 88.8477 92.6758 87.9727 92.6758 86.8945V82.9883H98.5352Z" fill="#FFD064"/>
<path d="M77.0049 77.1678H78.4264C82.087 77.1678 85.5055 75.3383 87.536 72.2926C87.9333 71.6967 87.9333 70.9203 87.536 70.3244C85.5055 67.2785 82.087 65.4492 78.4264 65.4492H77.0049C74.2323 65.4492 71.6432 66.835 70.1053 69.1418C69.2305 70.4539 69.2305 72.1633 70.1053 73.4754C71.6432 75.7822 74.2323 77.1678 77.0049 77.1678Z" fill="#FFC269"/>
<path d="M87.834 71.3086C87.834 71.6523 87.7344 71.9961 87.5371 72.293C85.5059 75.3379 82.0879 77.168 78.4277 77.168H77.0059C76.3027 77.168 75.6113 77.0781 74.9473 76.9063C77.6719 76.2988 80.0957 74.6641 81.6777 72.293C81.875 71.9961 81.9746 71.6523 81.9746 71.3086C81.9746 70.9648 81.875 70.6211 81.6777 70.3242C80.6621 68.8008 79.3008 67.582 77.7344 66.7441C76.8594 66.2754 75.9199 65.9258 74.9434 65.709C75.6094 65.5391 76.3008 65.4492 77.0059 65.4492H78.4277C80.2578 65.4492 82.0273 65.9063 83.5938 66.7441C85.1602 67.582 86.5215 68.8008 87.5371 70.3242C87.7344 70.6211 87.834 70.9648 87.834 71.3086Z" fill="#FFA95F"/>
<path d="M69.4512 71.3084C69.4512 72.0643 69.6699 72.8201 70.1074 73.4744C70.877 74.6287 71.9082 75.5526 73.0937 76.1873C73.1465 76.2147 73.1992 76.244 73.2539 76.2693C73.5625 76.0369 73.8359 75.7615 74.0742 75.451C74.8906 74.3904 75.3027 72.9256 75.3027 71.3084C75.3027 69.2166 74.6152 67.3807 73.2539 66.3475C72 66.9822 70.9102 67.9373 70.1074 69.1424C69.6699 69.7967 69.4512 70.5526 69.4512 71.3084Z" fill="#FFA95F"/>
<path d="M13.3779 65.4491L8.77521 67.8715C7.98302 68.2885 7.08829 67.5059 7.40548 66.669C8.20743 64.5535 8.20743 62.4383 7.40548 60.3229C7.0881 59.4858 7.98302 58.7034 8.77521 59.1203L13.3779 61.5428V65.4491Z" fill="#B3E59F"/>
<path d="M23.0028 69.3553H21.5813C17.9208 69.3553 14.5022 67.5258 12.4718 64.4801C12.0745 63.8842 12.0745 63.1078 12.4718 62.5119C14.5022 59.466 17.9208 57.6367 21.5813 57.6367H23.0028C25.7755 57.6367 28.3646 59.0225 29.9024 61.3293C30.7772 62.6414 30.7772 64.3508 29.9024 65.6629C28.3646 67.9697 25.7753 69.3553 23.0028 69.3553Z" fill="#CCF49F"/>
<path d="M30.5586 63.4961C30.5586 64.252 30.3398 65.0078 29.9023 65.6621C29.1328 66.8164 28.1016 67.7383 26.916 68.373C25.7305 69.0078 24.3906 69.3555 23.0039 69.3555H21.582C20.7734 69.3555 19.9766 69.2656 19.2031 69.0938C19.8496 68.9297 20.4727 68.6855 21.0566 68.373C22.2422 67.7383 23.2734 66.8164 24.043 65.6621C24.4805 65.0078 24.6992 64.252 24.6992 63.4961C24.6992 62.7402 24.4805 61.9844 24.043 61.3301C22.8965 59.6074 21.1641 58.4004 19.207 57.8965C19.9785 57.7266 20.7754 57.6367 21.582 57.6367H23.0039C25.7754 57.6367 28.3652 59.0215 29.9023 61.3301C30.3398 61.9844 30.5586 62.7402 30.5586 63.4961Z" fill="#B3E59F"/>
<path d="M30.5586 63.4959C30.5586 64.2518 30.3398 65.0076 29.9023 65.6619C29.1328 66.8162 28.1016 67.7401 26.916 68.3748C26.8633 68.4022 26.8105 68.4315 26.7559 68.4568C26.4473 68.2244 26.1738 67.949 25.9355 67.6385C25.1191 66.5779 24.707 65.1131 24.707 63.4959C24.707 61.4041 25.3945 59.5682 26.7559 58.535C28.0098 59.1697 29.0996 60.1248 29.9023 61.3299C30.3398 61.9842 30.5586 62.7401 30.5586 63.4959Z" fill="#95D6A4"/>
<path d="M28.3203 31.66C22.6572 31.66 18.0664 27.0692 18.0664 21.4061C18.0664 15.743 22.6572 11.1522 28.3203 11.1522C33.9834 11.1522 38.5742 15.743 38.5742 21.4061C38.5742 27.0692 33.9834 31.66 28.3203 31.66Z" fill="#FFE07D"/>
<path d="M38.5742 21.4062C38.5742 24.2383 37.4258 26.8008 35.5703 28.6563C33.7148 30.5117 31.1523 31.6602 28.3203 31.6602C27.3027 31.6602 26.3184 31.5117 25.3906 31.2344C27.0449 30.7422 28.5234 29.8438 29.7109 28.6563C31.5664 26.8008 32.7148 24.2383 32.7148 21.4062C32.7148 18.5742 31.5664 16.0117 29.7109 14.1563C28.5234 12.9688 27.0449 12.0703 25.3906 11.5781C26.3184 11.3008 27.3027 11.1523 28.3203 11.1523C31.1523 11.1523 33.7148 12.3008 35.5703 14.1563C37.4258 16.0117 38.5742 18.5742 38.5742 21.4062Z" fill="#FFD064"/>
<path d="M36.2305 34.5897H2.44141C1.90215 34.5897 1.46484 34.1524 1.46484 33.6131C1.46484 30.9164 3.65098 28.7303 6.34766 28.7303H6.89082C8.06855 28.7303 9.10019 27.9404 9.40742 26.8035C10.2527 23.676 13.09 21.5037 16.3297 21.5037H22.342C25.5816 21.5037 28.4189 23.676 29.2643 26.8035C29.5715 27.9406 30.6031 28.7303 31.7809 28.7303H32.324C35.0207 28.7303 37.2068 30.9164 37.2068 33.6131C37.207 34.1526 36.7697 34.5897 36.2305 34.5897Z" fill="#FAF2F3"/>
<path d="M37.207 33.6133C37.207 33.8828 37.0977 34.127 36.9219 34.3047C36.7441 34.4805 36.5 34.5898 36.2305 34.5898H30.3711C30.6406 34.5898 30.8848 34.4805 31.0625 34.3047C31.2383 34.127 31.3477 33.8828 31.3477 33.6133C31.3477 30.916 29.1621 28.7305 26.4648 28.7305H25.9219C25.332 28.7305 24.7813 28.5332 24.3379 28.1934C23.8945 27.8535 23.5586 27.3711 23.4043 26.8027C22.5605 23.6758 19.7227 21.5039 16.4824 21.5039H22.3418C25.582 21.5039 28.4199 23.6758 29.2637 26.8027C29.418 27.3711 29.7539 27.8535 30.1973 28.1934C30.6406 28.5332 31.1914 28.7305 31.7813 28.7305H32.3242C35.0215 28.7305 37.207 30.916 37.207 33.6133Z" fill="#F0E5E0"/>
<path d="M74.6094 34.8633C74.6094 37.8242 73.4082 40.5078 71.4668 42.4473C69.5273 44.3887 66.8437 45.5898 63.8828 45.5898H50.1309C52.1836 45.5684 54.2305 45.0195 56.0664 43.9492L63.1348 39.3984C65.7793 37.6934 66.6055 34.2051 65.0059 31.4961C63.9082 29.6367 61.9531 28.6172 59.957 28.6172C58.8164 28.6172 57.6621 28.9492 56.6465 29.6484L51.5879 33.125C51.2988 33.3242 50.9766 33.3418 50.7031 33.2402L56.1191 27.5898C60.7656 22.7402 68.668 23.2793 72.6133 28.7148C73.2617 29.6094 73.7617 30.5938 74.0977 31.6309C74.4336 32.668 74.6094 33.7578 74.6094 34.8633Z" fill="#75CEF9"/>
<path d="M89.3555 61.032C90.4341 61.032 91.3086 60.1576 91.3086 59.0789C91.3086 58.0002 90.4341 57.1258 89.3555 57.1258C88.2768 57.1258 87.4023 58.0002 87.4023 59.0789C87.4023 60.1576 88.2768 61.032 89.3555 61.032Z" fill="black"/>
<path d="M32.3242 77.6336C33.4029 77.6336 34.2773 76.7592 34.2773 75.6805C34.2773 74.6018 33.4029 73.7274 32.3242 73.7274C31.2455 73.7274 30.3711 74.6018 30.3711 75.6805C30.3711 76.7592 31.2455 77.6336 32.3242 77.6336Z" fill="black"/>
<path d="M34.1797 54.5705C35.2584 54.5705 36.1328 53.6961 36.1328 52.6174C36.1328 51.5387 35.2584 50.6642 34.1797 50.6642C33.101 50.6642 32.2266 51.5387 32.2266 52.6174C32.2266 53.6961 33.101 54.5705 34.1797 54.5705Z" fill="black"/>
<path d="M65.918 58.1024C66.9966 58.1024 67.8711 57.2279 67.8711 56.1492C67.8711 55.0705 66.9966 54.1961 65.918 54.1961C64.8393 54.1961 63.9648 55.0705 63.9648 56.1492C63.9648 57.2279 64.8393 58.1024 65.918 58.1024Z" fill="black"/>
<path d="M56.3477 77.6336C57.4263 77.6336 58.3008 76.7592 58.3008 75.6805C58.3008 74.6018 57.4263 73.7274 56.3477 73.7274C55.269 73.7274 54.3945 74.6018 54.3945 75.6805C54.3945 76.7592 55.269 77.6336 56.3477 77.6336Z" fill="black"/>
<path d="M46.9727 64.9383C48.0513 64.9383 48.9258 64.0638 48.9258 62.9852C48.9258 61.9065 48.0513 61.032 46.9727 61.032C45.894 61.032 45.0195 61.9065 45.0195 62.9852C45.0195 64.0638 45.894 64.9383 46.9727 64.9383Z" fill="black"/>
<path d="M98.5352 47.0553C99.3443 47.0553 100 46.3994 100 45.5904V35.4541C100 21.3002 88.4848 9.78497 74.3307 9.78497C68.751 9.78497 63.4389 11.55 58.9688 14.8893C54.4984 18.2285 51.299 22.8217 49.716 28.1723L48.6937 31.6281C48.3965 32.6332 48.7523 33.6803 49.6002 34.2963C50.448 34.9119 51.5539 34.9264 52.418 34.3326L57.4758 30.8553C58.4896 30.1582 59.7098 29.9203 60.9115 30.1861C62.1129 30.4518 63.1193 31.1817 63.7451 32.241C64.9494 34.2809 64.3328 36.8836 62.3412 38.166L55.3014 42.699C52.0195 44.6039 47.9496 44.5988 44.6721 42.6836C44.6703 42.6826 44.6686 42.6817 44.6668 42.6805C40.4605 40.2244 35.241 40.2348 31.043 42.708L30.8664 42.8121C27.7736 44.6348 23.9197 44.6545 20.8086 42.8631L20.3811 42.617C16.1312 40.1701 10.8719 40.2051 6.65527 42.7084L2.1627 45.3756C0.828711 46.1674 0 47.6233 0 49.1748V86.8947C0 88.7793 1.5334 90.3127 3.41797 90.3127H96.582C98.4666 90.3127 100 88.7793 100 86.8947V52.4264C100 51.6174 99.3443 50.9615 98.5352 50.9615C97.726 50.9615 97.0703 51.6174 97.0703 52.4264V81.5236H20.3125C19.5035 81.5236 18.8477 82.1795 18.8477 82.9885C18.8477 83.7975 19.5035 84.4533 20.3125 84.4533H97.0703V86.8947C97.0703 87.1639 96.8514 87.383 96.582 87.383H3.41797C3.14883 87.383 2.92969 87.1639 2.92969 86.8947V84.4533H13.4766C14.2855 84.4533 14.9414 83.7975 14.9414 82.9885C14.9414 82.1795 14.2855 81.5236 13.4766 81.5236H2.92969V49.1748C2.92969 48.6522 3.20898 48.1617 3.6584 47.8949L8.15098 45.2277C11.4594 43.2639 15.5854 43.2365 18.9193 45.1559L19.3469 45.402C23.3703 47.7186 28.3543 47.6932 32.3549 45.3356L32.5312 45.2317C35.816 43.2967 39.901 43.2893 43.1924 45.2121C43.1938 45.2129 43.1951 45.2137 43.1965 45.2145C45.2705 46.4258 47.5928 47.0375 49.918 47.0516C49.9416 47.0527 49.9648 47.0551 49.9887 47.0551H63.8828C70.6053 47.0551 76.0744 41.586 76.0744 34.8635C76.0744 32.3285 75.2873 29.9045 73.7982 27.8533C71.6621 24.9108 68.3566 23.0813 64.7289 22.8338C61.1 22.5846 57.5775 23.9498 55.0615 26.5752L52.4322 29.319L52.5256 29.0031C55.3629 19.4125 64.3299 12.7145 74.3312 12.7145C86.8693 12.7147 97.0703 22.9156 97.0703 35.4541V45.5904C97.0703 46.3994 97.726 47.0553 98.5352 47.0553ZM64.5293 25.7568C67.2885 25.9451 69.8027 27.3365 71.4271 29.5746C72.5506 31.1221 73.1445 32.9512 73.1445 34.8637C73.1445 39.9705 68.9898 44.1254 63.8826 44.1254H58.4977L63.9275 40.6291C67.2478 38.491 68.276 34.1524 66.268 30.7514C65.24 29.0104 63.5182 27.7617 61.5439 27.3252C60.6391 27.125 59.7105 27.1043 58.8092 27.2486C60.4873 26.1518 62.4871 25.6176 64.5293 25.7568Z" fill="black"/>
<path d="M93.3083 65.9699C92.5401 65.2902 91.4581 65.1588 90.5509 65.6365L87.0585 67.4746C84.7688 65.2561 81.6901 63.9842 78.4272 63.9842H77.0058C73.7362 63.9842 70.7013 65.6084 68.8874 68.3291C67.6808 70.1391 67.6808 72.4779 68.8874 74.2879C70.7013 77.0084 73.7362 78.6328 77.0058 78.6328H78.4272C81.6901 78.6328 84.7688 77.361 87.0585 75.1424L90.5509 76.9805C90.9138 77.1715 91.3046 77.2652 91.6927 77.2652C92.2737 77.2652 92.8476 77.0549 93.3081 76.6473C94.0733 75.9703 94.3341 74.9164 93.9724 73.9625C93.2954 72.1768 93.2954 70.4406 93.9724 68.6549C94.3341 67.7008 94.0733 66.6469 93.3083 65.9699ZM71.3249 69.9543C71.7862 69.2625 72.3614 68.6734 73.0153 68.202C73.5444 68.9686 73.8374 70.0537 73.8374 71.3084C73.8374 72.5506 73.5438 73.641 73.0122 74.4125C72.3597 73.9414 71.7854 73.3533 71.3249 72.6625C70.7765 71.8401 70.7765 70.777 71.3249 69.9543ZM78.4272 75.7029H77.0058C76.5757 75.7029 76.1515 75.6627 75.7376 75.5848C76.4134 74.3947 76.7671 72.9354 76.7671 71.3084C76.7671 69.669 76.4106 68.2106 75.7407 67.0313C76.1536 66.9537 76.5769 66.9139 77.0058 66.9139H78.4272C81.6052 66.9139 84.555 68.4926 86.3179 71.1369C86.3872 71.241 86.3872 71.3756 86.3179 71.4799C84.555 74.1242 81.6052 75.7029 78.4272 75.7029ZM90.8614 73.8332L88.9259 72.8145C89.4235 71.8701 89.4235 70.7467 88.9259 69.8024L90.8614 68.7836C90.4282 70.4633 90.4282 72.1535 90.8614 73.8332Z" fill="black"/>
<path d="M21.5812 70.8201H23.0027C26.2724 70.8201 29.3073 69.1959 31.121 66.4752C32.3277 64.6652 32.3277 62.3264 31.121 60.5166C29.3073 57.7959 26.2724 56.1717 23.0027 56.1717H21.5812C18.3183 56.1717 15.2396 57.4436 12.9497 59.6619L9.45715 57.8238C8.55051 57.3469 7.46809 57.4777 6.69993 58.1574C5.93489 58.8346 5.67415 59.8883 6.03567 60.8422C6.71262 62.6279 6.71262 64.3641 6.03567 66.1498C5.67395 67.1037 5.93469 68.1576 6.69993 68.8348C7.16067 69.2424 7.7343 69.4527 8.31555 69.4527C8.70325 69.4527 9.09426 69.3592 9.45715 69.168L12.9495 67.3299C15.2396 69.5485 18.3183 70.8201 21.5812 70.8201ZM28.6835 64.8502C28.223 65.541 27.6488 66.1291 26.9962 66.6002C26.465 65.8301 26.171 64.7391 26.171 63.4959C26.171 62.2457 26.4657 61.1578 26.9945 60.3902C27.6478 60.8615 28.2226 61.4502 28.6835 62.1416C29.232 62.9645 29.232 64.0275 28.6835 64.8502ZM21.5812 59.1014H23.0027C23.4331 59.1014 23.8575 59.1418 24.2718 59.2197C23.6007 60.402 23.2413 61.8621 23.2413 63.4959C23.2413 65.1234 23.5954 66.5832 24.2706 67.7723C23.8568 67.8502 23.4325 67.8904 23.0027 67.8904H21.5812C18.4032 67.8904 15.4532 66.3117 13.6904 63.6672C13.621 63.5631 13.621 63.4285 13.6904 63.3242C15.4532 60.6801 18.4031 59.1014 21.5812 59.1014ZM9.147 66.0207C9.5802 64.3412 9.58001 62.6508 9.147 60.9713L11.0823 61.9899C10.5845 62.9342 10.5845 64.0576 11.0823 65.002L9.147 66.0207Z" fill="black"/>
<path d="M2.44141 36.0545H36.2305C37.5768 36.0545 38.6719 34.9592 38.6719 33.6131C38.6719 31.9492 38.0273 30.4336 36.9762 29.3004C38.9359 27.1533 40.0391 24.351 40.0391 21.4061C40.0391 14.9443 34.782 9.68732 28.3203 9.68732C22.3213 9.68732 17.3635 14.2193 16.684 20.0389H16.3299C12.4371 20.0389 9.00918 22.6635 7.99336 26.4213C7.85898 26.9182 7.40566 27.2654 6.89082 27.2654H6.34766C2.84766 27.2654 0 30.1131 0 33.6131C0 34.9594 1.09512 36.0545 2.44141 36.0545ZM28.3203 12.617C33.1666 12.617 37.1094 16.5598 37.1094 21.4061C37.1094 23.7656 36.165 26.0035 34.5012 27.6502C33.8219 27.4014 33.0887 27.2654 32.3242 27.2654H31.7811C31.2662 27.2654 30.8127 26.9184 30.6785 26.4213C29.6629 22.6635 26.2348 20.0389 22.342 20.0389H19.6381C20.2969 15.8397 23.9391 12.617 28.3203 12.617ZM6.34766 30.1951H6.89082C8.72637 30.1951 10.3428 28.9576 10.8215 27.1858C11.4926 24.7027 13.7576 22.9686 16.3297 22.9686H22.342C24.9141 22.9686 27.1791 24.7027 27.8502 27.1856C28.3291 28.9574 29.9455 30.1951 31.7809 30.1951H32.324C34.043 30.1951 35.4695 31.4705 35.7072 33.1248H2.96445C3.20215 31.4707 4.62871 30.1951 6.34766 30.1951Z" fill="black"/>
<path d="M10.6445 78.6102C11.7232 78.6102 12.5977 77.7357 12.5977 76.657C12.5977 75.5784 11.7232 74.7039 10.6445 74.7039C9.56585 74.7039 8.69141 75.5784 8.69141 76.657C8.69141 77.7357 9.56585 78.6102 10.6445 78.6102Z" fill="black"/>
<path d="M81.1523 49.5086C82.231 49.5086 83.1055 48.6342 83.1055 47.5555C83.1055 46.4768 82.231 45.6024 81.1523 45.6024C80.0737 45.6024 79.1992 46.4768 79.1992 47.5555C79.1992 48.6342 80.0737 49.5086 81.1523 49.5086Z" fill="black"/>
<path d="M11.6211 53.6102C12.6998 53.6102 13.5742 52.7357 13.5742 51.657C13.5742 50.5784 12.6998 49.7039 11.6211 49.7039C10.5424 49.7039 9.66797 50.5784 9.66797 51.657C9.66797 52.7357 10.5424 53.6102 11.6211 53.6102Z" fill="black"/>
</g>
<defs>
<clipPath id="clip0_613_36">
<rect width="100" height="100" fill="white"/>
</clipPath>
</defs>
</svg>
