<svg width="100" height="100" viewBox="0 0 100 100" fill="none" xmlns="http://www.w3.org/2000/svg">
<g clip-path="url(#clip0_561_135)">
<path d="M90.0391 33.5938V82.4219H9.96094V33.5938H90.0391Z" fill="white"/>
<path d="M58.7891 82.4219V63.8672C58.7891 59.0131 54.8541 55.0781 50 55.0781C45.1459 55.0781 41.2109 59.0131 41.2109 63.8672V82.4219H58.7891Z" fill="#9EA6BF"/>
<path d="M98.0469 25.7812L50 1.95312L1.95312 25.7812H98.0469Z" fill="#CFD3DF"/>
<path d="M98.0469 90.2344V98.0469H1.95312V90.2344H98.0469Z" fill="#CFD3DF"/>
<path d="M98.0469 25.7812V33.5938H1.95312V25.7812H98.0469Z" fill="#F9F9F9"/>
<path d="M19.7266 33.5938V41.4062H8.00781V33.5938H19.7266Z" fill="#CFD3DF"/>
<path d="M19.7266 74.6094V82.4219H8.00781V74.6094H19.7266Z" fill="#CFD3DF"/>
<path d="M17.7734 41.4062V74.6094H9.96094V41.4062H17.7734Z" fill="#F9F9F9"/>
<path d="M43.1641 33.5938V41.4062H31.4453V33.5938H43.1641Z" fill="#CFD3DF"/>
<path d="M43.1641 74.6094V82.4219H31.4453V74.6094H43.1641Z" fill="#CFD3DF"/>
<path d="M41.2109 41.4062V74.6094H33.3984V41.4062H41.2109Z" fill="#F9F9F9"/>
<path d="M68.5547 33.5938V41.4062H56.8359V33.5938H68.5547Z" fill="#CFD3DF"/>
<path d="M68.5547 74.6094V82.4219H56.8359V74.6094H68.5547Z" fill="#CFD3DF"/>
<path d="M66.6016 41.4062V74.6094H58.7891V41.4062H66.6016Z" fill="#F9F9F9"/>
<path d="M91.9922 33.5938V41.4062H80.2734V33.5938H91.9922Z" fill="#CFD3DF"/>
<path d="M91.9922 74.6094V82.4219H80.2734V74.6094H91.9922Z" fill="#CFD3DF"/>
<path d="M90.0391 41.4062V74.6094H82.2266V41.4062H90.0391Z" fill="#F9F9F9"/>
<path d="M95.8984 82.4219V90.2344H4.10156V82.4219H95.8984Z" fill="#CFD3DF"/>
<path d="M90.0391 59.5703C91.1177 59.5703 91.9922 58.6959 91.9922 57.6172C91.9922 56.5385 91.1177 55.6641 90.0391 55.6641C88.9604 55.6641 88.0859 56.5385 88.0859 57.6172C88.0859 58.6959 88.9604 59.5703 90.0391 59.5703Z" fill="black"/>
<path d="M91.9922 43.3594C93.0707 43.3594 93.9453 42.485 93.9453 41.4062V35.5469H98.0469C99.1254 35.5469 100 34.6725 100 33.5938V25.7812C100 25.3906 99.894 25.0559 99.7074 24.7547C99.5174 24.4475 99.2387 24.192 98.9146 24.0314L50.8678 0.20332C50.3207 -0.0677734 49.6789 -0.0677734 49.1322 0.20332C49.1322 0.20332 1.10645 24.0209 1.08535 24.0314C0.764648 24.1904 0.488281 24.4422 0.298438 24.7451C0.108398 25.0484 0.00429688 25.4045 0.000976562 25.7623C0.000976562 25.7687 0 33.5938 0 33.5938C0 34.6725 0.874414 35.5469 1.95312 35.5469H6.05469V41.4062C6.05469 42.485 6.9291 43.3594 8.00781 43.3594V72.6562C6.9291 72.6562 6.05469 73.5307 6.05469 74.6094V80.4688H4.10156C3.02285 80.4688 2.14844 81.3432 2.14844 82.4219V88.2812H1.95312C0.874414 88.2812 0 89.1557 0 90.2344V98.0469C0 99.1256 0.874414 100 1.95312 100H98.0469C99.1254 100 100 99.1256 100 98.0469V90.2344C100 89.1557 99.1254 88.2812 98.0469 88.2812H97.8516V82.4219C97.8516 81.3432 96.977 80.4688 95.8984 80.4688H93.9453V74.6094C93.9453 73.5307 93.0707 72.6562 91.9922 72.6562V66.4062C91.9922 65.3301 91.1152 64.4531 90.0391 64.4531C88.9629 64.4531 88.0859 65.3301 88.0859 66.4062V72.6562H84.1797V43.3594H88.0859V48.8281C88.0859 49.9062 88.9629 50.7812 90.0391 50.7812C91.1172 50.7812 91.9922 49.9062 91.9922 48.8281V43.3594ZM10.2873 23.8281L50 4.1332L89.7125 23.8281H10.2873ZM3.90625 31.6406V27.7344H96.0938V31.6406H3.90625ZM68.5547 72.6562V43.3594C69.6332 43.3594 70.5078 42.485 70.5078 41.4062V35.5469H78.3203V41.4062C78.3203 42.485 79.1949 43.3594 80.2734 43.3594V72.6562C79.1949 72.6562 78.3203 73.5307 78.3203 74.6094V80.4688H70.5078V74.6094C70.5078 73.5307 69.6332 72.6562 68.5547 72.6562ZM66.6016 76.5625V80.4688H58.7891V76.5625H66.6016ZM60.7422 72.6562V43.3594H64.6484V72.6562H60.7422ZM58.7891 39.4531V35.5469H66.6016V39.4531H58.7891ZM43.1641 72.6562V63.8672C43.1641 60.0979 46.2307 57.0312 50 57.0312C53.7693 57.0312 56.8359 60.0979 56.8359 63.8672V72.6562C55.7574 72.6562 54.8828 73.5307 54.8828 74.6094V80.4688H45.1172V74.6094C45.1172 73.5307 44.2428 72.6562 43.1641 72.6562ZM50 53.125C47.4053 53.125 45.0227 54.0498 43.1641 55.5869V43.3594C44.2428 43.3594 45.1172 42.485 45.1172 41.4062V35.5469H54.8828V41.4062C54.8828 42.485 55.7574 43.3594 56.8359 43.3594V55.5869C54.9773 54.0498 52.5947 53.125 50 53.125ZM41.2109 76.5625V80.4688H33.3984V76.5625H41.2109ZM35.3516 72.6562V43.3594H39.2578V72.6562H35.3516ZM33.3984 39.4531V35.5469H41.2109V39.4531H33.3984ZM19.7266 72.6562V43.3594C20.8053 43.3594 21.6797 42.485 21.6797 41.4062V35.5469H29.4922V41.4062C29.4922 42.485 30.3666 43.3594 31.4453 43.3594V72.6562C30.3666 72.6562 29.4922 73.5307 29.4922 74.6094V80.4688H21.6797V74.6094C21.6797 73.5307 20.8053 72.6562 19.7266 72.6562ZM17.7734 76.5625V80.4688H9.96094V76.5625H17.7734ZM11.9141 72.6562V43.3594H15.8203V72.6562H11.9141ZM9.96094 39.4531V35.5469H17.7734V39.4531H9.96094ZM96.0938 92.1875V96.0938H3.90625V92.1875H96.0938ZM93.9453 84.375V88.2812H6.05469V84.375H93.9453ZM90.0391 76.5625V80.4688H82.2266V76.5625H90.0391ZM82.2266 39.4531V35.5469H90.0391V39.4531H82.2266Z" fill="black"/>
</g>
<defs>
<clipPath id="clip0_561_135">
<rect width="100" height="100" fill="white"/>
</clipPath>
</defs>
</svg>
