<svg width="100" height="100" viewBox="0 0 100 100" fill="none" xmlns="http://www.w3.org/2000/svg">
<g clip-path="url(#clip0_319_2019)">
<path d="M65.0886 70.7916L55.1582 53.5904L65.0886 36.3899H84.951L94.8822 53.5904L84.951 70.7916H65.0886Z" fill="#F6838D"/>
<path d="M65.0894 36.3901L55.1582 19.1888L65.0894 1.98755H84.9518L94.883 19.1888L84.9518 36.3901H65.0894Z" fill="#FFD89E"/>
<path d="M35.2957 53.5905L25.3652 36.3892L35.2957 19.1887H55.1581L65.0893 36.3892L55.1581 53.5905H35.2957Z" fill="#9BC6FF"/>
<path d="M15.4351 87.9931L5.50391 70.7918L15.4351 53.5906H35.2967L45.2279 70.7918L35.2967 87.9931H15.4351Z" fill="#FFC15A"/>
<path d="M87.2459 36.39L96.6041 20.1821C96.9589 19.5671 96.9589 18.8095 96.6041 18.1946L86.6729 0.993348C86.3174 0.378418 85.662 0 84.9517 0H65.0893C64.379 0 63.7236 0.378418 63.3681 0.993348L54.0114 17.2013H36.4233L31.0248 8.13905C29.7186 5.94636 26.3022 7.97807 27.6099 10.173L32.9909 19.2063L24.2171 34.4017H13.6862C11.1342 34.4017 11.1303 38.3767 13.6862 38.3767H24.2171L31.8541 51.603H15.4341C14.7238 51.603 14.0677 51.9822 13.7129 52.5971L3.7817 69.7984C3.42693 70.4133 3.42693 71.1709 3.7817 71.7858L13.1308 87.9785L7.7467 97.0155C6.44436 99.2029 9.84326 101.263 11.1616 99.0503L16.5648 89.9797H34.162L39.5644 99.0487C40.882 101.262 44.2816 99.2013 42.9793 97.0147L37.5975 87.9808L46.9481 71.7858C47.3029 71.1709 47.3029 70.4133 46.9481 69.7984L38.7381 55.5779H54.0099L62.7837 70.7749L57.4019 79.8097C56.0988 81.9963 59.4977 84.057 60.8161 81.8437L66.2169 72.7792H83.8576L89.2188 81.8391C90.5311 84.0562 93.9353 82.0046 92.6398 79.815L87.2726 70.7452L96.6033 54.5846C96.9581 53.9696 96.9581 53.212 96.6033 52.5971L87.2459 36.39ZM66.2368 3.97492H83.8042L92.588 19.1887L83.8042 34.4025H66.2368L57.453 19.1887L66.2368 3.97492ZM36.4432 21.1762H54.0106L62.7944 36.3892L54.0106 51.603H36.4439L27.6594 36.39L36.4432 21.1762ZM34.1483 86.0055H16.5816L7.79782 70.7917L16.5816 55.5779H34.1483L42.932 70.7917L34.1483 86.0055ZM84.9494 66.8198L80.5343 59.3606C79.235 57.1641 75.8124 59.1851 77.114 61.3847L81.5047 68.8043H66.236L57.4523 53.5912L66.236 38.3767H83.8035L92.5872 53.5905L84.9494 66.8198Z" fill="black"/>
<path d="M75.0207 51.603C73.9403 51.603 73.0332 52.5094 73.0332 53.5905C73.034 54.67 73.9411 55.5779 75.0207 55.5779C76.0697 55.5779 76.9578 54.7227 77.0043 53.6775C77.0539 52.5651 76.1361 51.603 75.0207 51.603Z" fill="black"/>
<path d="M5.70621 38.3768C6.78577 38.3768 7.69367 37.4689 7.69367 36.3893C7.69367 35.3098 6.78577 34.4019 5.70621 34.4019C4.65717 34.4019 3.7691 35.2563 3.72257 36.3023C3.67374 37.4139 4.59155 38.3768 5.70621 38.3768Z" fill="black"/>
<path d="M11.2052 26.6961C12.0772 27.202 13.9487 27.0013 13.9487 25.6814V21.4997H16.5023V25.6814C16.5023 27.4072 19.8592 27.4003 19.8592 25.6814V14.8599C19.8592 13.1486 16.5023 13.1486 16.5023 14.8599V18.609H13.9487V14.8599C13.9487 13.1486 10.5918 13.1486 10.5918 14.8599V25.6814C10.5918 26.2315 11.3433 26.7762 11.2052 26.6961C11.5066 26.8716 10.81 26.468 11.2052 26.6961C12.0765 27.202 10.81 26.468 11.2052 26.6961Z" fill="black"/>
<path d="M78.4712 78.067C76.7828 76.6159 73.6914 76.6091 72.0068 78.0686C71.1691 78.7941 70.7441 79.9202 70.7441 81.4156V86.0604C70.7441 87.5565 71.1691 88.6826 72.0068 89.4081C73.6921 90.8677 76.7843 90.86 78.4712 89.4097C79.3158 88.6841 79.7445 87.5573 79.7445 86.0604V81.4156C79.7445 79.9195 79.3158 78.7926 78.4712 78.067C79.3158 78.7926 77.6533 77.3636 78.4712 78.067ZM74.1003 81.4156C74.1003 79.6646 76.3876 79.6685 76.3876 81.4156V86.0604C76.3876 87.8075 74.1003 87.8113 74.1003 86.0604V81.4156Z" fill="black"/>
<path d="M42.0697 13.0814C43.7627 14.5615 46.7542 14.5226 48.4815 13.1203C49.3627 12.4046 49.809 11.4426 49.809 10.26C49.809 8.29926 46.5917 7.93763 46.4528 9.84879C46.3727 11.5334 44.1655 11.4273 44.1655 9.74427V5.09949C44.1655 3.50495 46.3277 3.29132 46.4528 4.86527C46.5238 6.75812 49.809 6.43006 49.809 4.45023C49.809 3.30734 49.3596 2.37579 48.4731 1.68228C46.7305 0.321195 43.7688 0.295255 42.0797 1.7601C41.2366 2.49176 40.8086 3.61481 40.8086 5.09949V9.74427C40.8086 11.2274 41.2328 12.3505 42.0697 13.0814Z" fill="black"/>
<path d="M87.2459 36.39L96.6041 20.1821C96.9589 19.5671 96.9589 18.8095 96.6041 18.1946L86.6729 0.993348C86.3174 0.378418 85.662 0 84.9517 0H65.0893C64.379 0 63.7236 0.378418 63.3681 0.993348L54.0114 17.2013H36.4233L31.0248 8.13905C29.7186 5.94636 26.3022 7.97807 27.6099 10.173L32.9909 19.2063L24.2171 34.4017H13.6862C11.1342 34.4017 11.1303 38.3767 13.6862 38.3767H24.2171L31.8541 51.603H15.4341C14.7238 51.603 14.0677 51.9822 13.7129 52.5971L3.7817 69.7984C3.42693 70.4133 3.42693 71.1709 3.7817 71.7858L13.1308 87.9785L7.7467 97.0155C6.44436 99.2029 9.84326 101.263 11.1616 99.0503L16.5648 89.9797H34.162L39.5644 99.0487C40.882 101.262 44.2816 99.2013 42.9793 97.0147L37.5975 87.9808L46.9481 71.7858C47.3029 71.1709 47.3029 70.4133 46.9481 69.7984L38.7381 55.5779H54.0099L62.7837 70.7749L57.4019 79.8097C56.0988 81.9963 59.4977 84.057 60.8161 81.8437L66.2169 72.7792H83.8576L89.2188 81.8391C90.5311 84.0562 93.9353 82.0046 92.6398 79.815L87.2726 70.7452L96.6033 54.5846C96.9581 53.9696 96.9581 53.212 96.6033 52.5971L87.2459 36.39ZM66.2368 3.97492H83.8042L92.588 19.1887L83.8042 34.4025H66.2368L57.453 19.1887L66.2368 3.97492ZM36.4432 21.1762H54.0106L62.7944 36.3892L54.0106 51.603H36.4439L27.6594 36.39L36.4432 21.1762ZM34.1483 86.0055H16.5816L7.79782 70.7917L16.5816 55.5779H34.1483L42.932 70.7917L34.1483 86.0055ZM84.9494 66.8198L80.5343 59.3606C79.235 57.1641 75.8124 59.1851 77.114 61.3847L81.5047 68.8043H66.236L57.4523 53.5912L66.236 38.3767H83.8035L92.5872 53.5905L84.9494 66.8198Z" fill="black"/>
</g>
<defs>
<clipPath id="clip0_319_2019">
<rect width="100" height="100" fill="white"/>
</clipPath>
</defs>
</svg>
