<svg width="100" height="100" viewBox="0 0 100 100" fill="none" xmlns="http://www.w3.org/2000/svg">
<g clip-path="url(#clip0_419_2739)">
<path d="M42.8895 98.5338H5.98867C3.49004 98.5338 1.46484 96.5082 1.46484 94.01V57.1088C1.46484 54.6102 3.49043 52.585 5.98867 52.585H42.8895C45.3881 52.585 47.4133 54.6106 47.4133 57.1088V94.0096C47.4133 96.5082 45.3879 98.5338 42.8895 98.5338Z" fill="#3EDDBF"/>
<path d="M47.4135 57.1082V94.0103C47.4135 96.5088 45.3887 98.5332 42.8906 98.5332H38.9824C41.4809 98.5332 43.5053 96.5084 43.5053 94.0103V57.1082C43.5053 54.6097 41.4805 52.5853 38.9824 52.5853H42.8906C45.3889 52.5851 47.4135 54.6099 47.4135 57.1082Z" fill="#14C4A2"/>
<path d="M42.8895 47.4152H5.98867C3.49004 47.4152 1.46484 45.3896 1.46484 42.8914V5.99038C1.46484 3.49175 3.49043 1.46655 5.98867 1.46655H42.8895C45.3881 1.46655 47.4133 3.49214 47.4133 5.99038V42.8912C47.4133 45.3896 45.3879 47.4152 42.8895 47.4152Z" fill="#FF9300"/>
<path d="M47.4135 5.9894V42.8916C47.4135 45.39 45.3887 47.4144 42.8906 47.4144H38.9824C41.4809 47.4144 43.5053 45.3896 43.5053 42.8916V5.9894C43.5053 3.49097 41.4805 1.46655 38.9824 1.46655H42.8906C45.3889 1.46636 47.4135 3.49097 47.4135 5.9894Z" fill="#FF7400"/>
<path d="M94.0106 98.5338H57.1098C54.6111 98.5338 52.5859 96.5082 52.5859 94.01V57.1088C52.5859 54.6102 54.6115 52.585 57.1098 52.585H94.0106C96.5092 52.585 98.5344 54.6106 98.5344 57.1088V94.0096C98.5344 96.5082 96.509 98.5338 94.0106 98.5338Z" fill="#F766B5"/>
<path d="M98.5369 57.1082V94.0103C98.5369 96.5088 96.51 98.5332 94.0117 98.5332H90.1035C92.602 98.5332 94.6287 96.5084 94.6287 94.0103V57.1082C94.6287 54.6097 92.6018 52.5853 90.1035 52.5853H94.0117C96.5102 52.5851 98.5369 54.6099 98.5369 57.1082Z" fill="#EA3D94"/>
<path d="M42.8898 0.00170898H5.98906C2.68691 0.00170898 0.000195313 2.68823 0.000195313 5.99038V24.3607C0.000195313 25.1697 0.655859 25.8255 1.46504 25.8255C2.27422 25.8255 2.92988 25.1697 2.92988 24.3607V5.99038C2.92988 4.30347 4.30234 2.9312 5.98926 2.9312H42.89C44.577 2.9312 45.949 4.30347 45.949 5.99038V42.8912C45.949 44.5781 44.5768 45.9505 42.89 45.9505H5.98906C4.30215 45.9505 2.92969 44.5781 2.92969 42.8912V30.464C2.92969 29.655 2.27402 28.9992 1.46484 28.9992C0.655664 28.9992 0 29.655 0 30.464V42.8912C0 46.1933 2.68672 48.88 5.98887 48.88H42.8896C46.1916 48.88 48.8783 46.1933 48.8783 42.8912V5.99038C48.8785 2.68823 46.192 0.00170898 42.8898 0.00170898Z" fill="black"/>
<path d="M18.5391 15.1549C17.7299 15.1549 17.0742 15.8108 17.0742 16.6198V32.2619C17.0742 33.0709 17.7299 33.7268 18.5391 33.7268C19.3482 33.7268 20.0039 33.0709 20.0039 32.2619V25.9057H28.8768V32.2619C28.8768 33.0709 29.5324 33.7268 30.3416 33.7268C31.1508 33.7268 31.8064 33.0709 31.8064 32.2619V16.6198C31.8064 15.8108 31.1508 15.1549 30.3416 15.1549C29.5324 15.1549 28.8768 15.8108 28.8768 16.6198V22.976H20.0039V16.6198C20.0039 15.8108 19.3482 15.1549 18.5391 15.1549Z" fill="black"/>
<path d="M9.46484 38.5953H13.21C14.0191 38.5953 14.6748 37.9395 14.6748 37.1305C14.6748 36.3215 14.0191 35.6656 13.21 35.6656H9.46484C8.65566 35.6656 8 36.3215 8 37.1305C8.0002 37.9395 8.65586 38.5953 9.46484 38.5953Z" fill="black"/>
<path d="M9.46484 42.7709H27.7506C28.5598 42.7709 29.2154 42.115 29.2154 41.306C29.2154 40.497 28.5598 39.8412 27.7506 39.8412H9.46484C8.65566 39.8412 8 40.497 8 41.306C8.0002 42.115 8.65586 42.7709 9.46484 42.7709Z" fill="black"/>
<path d="M41.6289 9.16602C42.4381 9.16602 43.0938 8.51016 43.0938 7.70117V7.51953C43.0938 6.71055 42.4381 6.05469 41.6289 6.05469C40.8197 6.05469 40.1641 6.71055 40.1641 7.51953V7.70117C40.1643 8.51016 40.8199 9.16602 41.6289 9.16602Z" fill="black"/>
<path d="M40.1641 11.7793C40.1641 12.5883 40.8197 13.2441 41.6289 13.2441C42.4381 13.2441 43.0938 12.5883 43.0938 11.7793V11.5977C43.0938 10.7887 42.4381 10.1328 41.6289 10.1328C40.8197 10.1328 40.1641 10.7887 40.1641 11.5977V11.7793Z" fill="black"/>
<path d="M42.8896 51.1201H32.6752C31.866 51.1201 31.2104 51.776 31.2104 52.585C31.2104 53.394 31.866 54.0498 32.6752 54.0498H42.8896C44.5766 54.0498 45.9486 55.4223 45.9486 57.1092V94.01C45.9486 95.6969 44.5764 97.0692 42.8896 97.0692H5.98887C4.30195 97.0692 2.92949 95.6969 2.92949 94.01V57.1088C2.92949 55.4219 4.30195 54.0494 5.98887 54.0494H26.5721C27.3812 54.0494 28.0369 53.3936 28.0369 52.5846C28.0369 51.7756 27.3812 51.1198 26.5721 51.1198H5.98887C2.68672 51.1201 0 53.8069 0 57.1088V94.0096C0 97.3117 2.68672 99.9983 5.98887 99.9983H42.8896C46.1916 99.9983 48.8783 97.3117 48.8783 94.0096V57.1088C48.8783 53.8069 46.1918 51.1201 42.8896 51.1201Z" fill="black"/>
<path d="M9.46484 89.7139H13.21C14.0191 89.7139 14.6748 89.058 14.6748 88.249C14.6748 87.44 14.0191 86.7842 13.21 86.7842H9.46484C8.65566 86.7842 8 87.44 8 88.249C8.0002 89.058 8.65586 89.7139 9.46484 89.7139Z" fill="black"/>
<path d="M9.46484 90.9597C8.65566 90.9597 8 91.6156 8 92.4246C8 93.2335 8.65566 93.8894 9.46484 93.8894H27.7506C28.5598 93.8894 29.2154 93.2335 29.2154 92.4246C29.2154 91.6156 28.5598 90.9597 27.7506 90.9597H9.46484Z" fill="black"/>
<path d="M41.6289 60.2846C42.4381 60.2846 43.0938 59.6287 43.0938 58.8197V58.6381C43.0938 57.8291 42.4381 57.1732 41.6289 57.1732C40.8197 57.1732 40.1641 57.8291 40.1641 58.6381V58.8197C40.1643 59.6287 40.8199 60.2846 41.6289 60.2846Z" fill="black"/>
<path d="M40.1641 62.8975C40.1641 63.7064 40.8197 64.3623 41.6289 64.3623C42.4381 64.3623 43.0938 63.7064 43.0938 62.8975V62.7158C43.0938 61.9068 42.4381 61.251 41.6289 61.251C40.8197 61.251 40.1641 61.9068 40.1641 62.7158V62.8975Z" fill="black"/>
<path d="M28.2148 82.7193C28.2148 83.5283 28.8705 84.1842 29.6797 84.1842C30.4889 84.1842 31.1445 83.5283 31.1445 82.7193V74.8984C31.1445 74.0895 30.4889 73.4336 29.6797 73.4336C28.8705 73.4336 28.2148 74.0895 28.2148 74.8984V82.7193Z" fill="black"/>
<path d="M19.207 64.8414C18.3979 64.8414 17.7422 65.4973 17.7422 66.3063V82.7194C17.7422 83.5283 18.3979 84.1842 19.207 84.1842H24.9965C25.8057 84.1842 26.4613 83.5283 26.4613 82.7194C26.4613 81.9104 25.8057 81.2545 24.9965 81.2545H20.6719V66.3061C20.6719 65.4973 20.016 64.8414 19.207 64.8414Z" fill="black"/>
<path d="M29.6797 72.1774C30.4889 72.1774 31.1445 71.5215 31.1445 70.7125V70.5309C31.1445 69.7219 30.4889 69.066 29.6797 69.066C28.8705 69.066 28.2148 69.7219 28.2148 70.5309V70.7125C28.2148 71.5215 28.8705 72.1774 29.6797 72.1774Z" fill="black"/>
<path d="M94.0107 51.1201H67.4391C66.6299 51.1201 65.9742 51.776 65.9742 52.585C65.9742 53.394 66.6299 54.0498 67.4391 54.0498H94.0107C95.6977 54.0498 97.0699 55.4223 97.0699 57.1092V94.01C97.0699 95.6969 95.6977 97.0692 94.0107 97.0692H57.11C55.423 97.0692 54.0506 95.6969 54.0506 94.01V57.1088C54.0506 55.4219 55.423 54.0494 57.11 54.0494H61.3359C62.1451 54.0494 62.8008 53.3936 62.8008 52.5846C62.8008 51.7756 62.1451 51.1198 61.3359 51.1198H57.11C53.8078 51.1198 51.1211 53.8065 51.1211 57.1086V94.0094C51.1211 97.3115 53.8078 99.9981 57.11 99.9981H94.0107C97.3127 99.9981 99.9994 97.3115 99.9994 94.0094V57.1088C99.9994 53.8069 97.3127 51.1201 94.0107 51.1201Z" fill="black"/>
<path d="M60.5859 89.7139H64.3311C65.1402 89.7139 65.7959 89.058 65.7959 88.249C65.7959 87.44 65.1402 86.7842 64.3311 86.7842H60.5859C59.7768 86.7842 59.1211 87.44 59.1211 88.249C59.1213 89.058 59.7768 89.7139 60.5859 89.7139Z" fill="black"/>
<path d="M59.1211 92.4246C59.1211 93.2335 59.7768 93.8894 60.5859 93.8894H78.8717C79.6809 93.8894 80.3365 93.2335 80.3365 92.4246C80.3365 91.6156 79.6809 90.9597 78.8717 90.9597H60.5857C59.7766 90.9597 59.1211 91.6156 59.1211 92.4246Z" fill="black"/>
<path d="M92.752 60.2846C93.5611 60.2846 94.2168 59.6287 94.2168 58.8197V58.6381C94.2168 57.8291 93.5611 57.1732 92.752 57.1732C91.9428 57.1732 91.2871 57.8291 91.2871 58.6381V58.8197C91.2871 59.6287 91.943 60.2846 92.752 60.2846Z" fill="black"/>
<path d="M91.2871 62.8975C91.2871 63.7064 91.9428 64.3623 92.752 64.3623C93.5611 64.3623 94.2168 63.7064 94.2168 62.8975V62.7158C94.2168 61.9068 93.5611 61.251 92.752 61.251C91.9428 61.251 91.2871 61.9068 91.2871 62.7158V62.8975Z" fill="black"/>
<path d="M65.0467 83.7252H70.9152C74.2123 83.7252 76.8947 81.0428 76.8947 77.7457C76.8947 75.6824 75.8443 73.8604 74.2504 72.7852C74.8135 72.0158 75.1471 71.0684 75.1471 70.044C75.1471 67.4789 73.0602 65.3922 70.4955 65.3922H65.0469C64.2377 65.3922 63.582 66.0481 63.582 66.8571V73.2309V82.2606C63.5818 83.0694 64.2375 83.7252 65.0467 83.7252ZM70.9152 80.7957H66.5115V74.6957H70.4953C70.5848 74.6957 70.6734 74.6926 70.7615 74.6875C70.8121 74.6928 70.8633 74.6957 70.915 74.6957C72.5967 74.6957 73.965 76.0641 73.965 77.7459C73.9648 79.4276 72.5967 80.7957 70.9152 80.7957ZM66.5113 68.3219H70.4951C71.4447 68.3219 72.2172 69.0946 72.2172 70.0442C72.2172 70.9938 71.4447 71.7662 70.4951 71.7662H66.5113V68.3219Z" fill="black"/>
<path d="M89.1812 74.8619C89.2596 74.4627 89.1684 74.0486 88.9293 73.7193C87.7922 72.1529 85.9588 71.2178 84.0254 71.2178C80.6857 71.2178 77.9688 73.935 77.9688 77.2744C77.9688 80.6139 80.6857 83.3311 84.0254 83.3311C86.0406 83.3311 87.9178 82.3332 89.0469 80.6617C89.4996 79.9914 89.3234 79.0807 88.6529 78.6279C87.9824 78.1752 87.0719 78.3514 86.6191 79.0219C86.0355 79.8857 85.0658 80.4016 84.0252 80.4016C83.3221 80.4016 82.6725 80.1684 82.1494 79.775L88.516 75.8244C88.8619 75.6098 89.1031 75.2611 89.1812 74.8619ZM80.9029 77.101C80.9932 75.457 82.3592 74.1473 84.0252 74.1473C84.4525 74.1473 84.8703 74.2357 85.2547 74.4004L80.9029 77.101Z" fill="black"/>
</g>
<defs>
<clipPath id="clip0_419_2739">
<rect width="100" height="100" fill="white"/>
</clipPath>
</defs>
</svg>
