<svg width="100" height="100" viewBox="0 0 100 100" fill="none" xmlns="http://www.w3.org/2000/svg">
<path d="M32.8125 62.5H34.375C30.9219 62.5 28.125 65.2969 28.125 68.75C28.125 72.2031 30.9219 75 34.375 75V81.25V87.5V90.625C34.375 94.0781 37.1719 96.875 40.625 96.875H10.9375C6.625 96.875 3.125 93.375 3.125 89.0625C3.125 85.1094 6.0625 81.8281 9.89062 81.3281C9.9375 81.1406 10.0156 80.9531 10.0938 80.7656C11.5 77.3906 14.8594 75 18.75 75C18.75 72.7031 17.5156 70.6875 15.6563 69.6094C15.6406 69.3281 15.625 69.0469 15.625 68.75C15.625 63.5781 19.8281 59.375 25 59.375C25.5781 59.375 26.1406 59.4219 26.6719 59.5312H26.6875C28.1094 61.3437 30.3281 62.5 32.8125 62.5Z" fill="#E6E9ED"/>
<path d="M50 51.5625V56.25H32.8125C31.9531 56.25 31.25 56.9531 31.25 57.8125V60.9375C31.25 61.7969 31.9531 62.5 32.8125 62.5C30.3281 62.5 28.1094 61.3437 26.6875 59.5312C25.625 58.2031 25 56.5156 25 54.6875C25 50.375 28.5 46.875 32.8125 46.875C33.7969 46.875 34.7188 47.0469 35.5938 47.375C35.9844 46.7656 36.4688 46.2031 37 45.7188C38.3906 44.5 40.2031 43.75 42.1875 43.75C46.5 43.75 50 47.25 50 51.5625Z" fill="#E6E9ED"/>
<path d="M59.375 34.375C62.8281 34.375 65.625 37.1719 65.625 40.625C65.625 42.7188 64.5938 44.5781 63 45.7188C61.6094 44.5 59.7969 43.75 57.8125 43.75C53.5 43.75 50 47.25 50 51.5625C50 47.25 46.5 43.75 42.1875 43.75C40.2031 43.75 38.3906 44.5 37 45.7188C35.4063 44.5781 34.375 42.7188 34.375 40.625C34.375 37.1719 37.1719 34.375 40.625 34.375V35.9375H46.875H53.125H59.375V34.375Z" fill="#E6E9ED"/>
<path d="M67.1875 56.25H50V51.5625C50 47.25 53.5 43.75 57.8125 43.75C59.7969 43.75 61.6094 44.5 63 45.7188C63.5312 46.2031 64.0156 46.7656 64.4063 47.375C65.2813 47.0469 66.2031 46.875 67.1875 46.875C71.5 46.875 75 50.375 75 54.6875C75 56.5156 74.375 58.2031 73.3125 59.5312C71.8906 61.3437 69.6719 62.5 67.1875 62.5C68.0469 62.5 68.75 61.7969 68.75 60.9375V57.8125C68.75 56.9531 68.0469 56.25 67.1875 56.25Z" fill="#E6E9ED"/>
<path d="M90.1094 81.3281C93.9375 81.8281 96.875 85.1094 96.875 89.0625C96.875 93.375 93.375 96.875 89.0625 96.875H59.375C62.8281 96.875 65.625 94.0781 65.625 90.625V75C69.0781 75 71.875 72.2031 71.875 68.75C71.875 65.2969 69.0781 62.5 65.625 62.5H67.1875C69.6719 62.5 71.8906 61.3437 73.3125 59.5312H73.3281C73.8594 59.4219 74.4219 59.375 75 59.375C80.1719 59.375 84.375 63.5781 84.375 68.75C84.375 69.0469 84.3594 69.3281 84.3438 69.6094C82.4844 70.6875 81.25 72.7031 81.25 75C85.1406 75 88.5 77.3906 89.9063 80.7656C89.9844 80.9531 90.0625 81.1406 90.1094 81.3281Z" fill="#E6E9ED"/>
<path d="M34.375 68.75V75C30.9219 75 28.125 72.2031 28.125 68.75C28.125 65.2969 30.9219 62.5 34.375 62.5V68.75Z" fill="#69D6F4"/>
<path d="M15.6563 69.6094C17.5156 70.6875 18.75 72.7031 18.75 75C14.8594 75 11.5 77.3906 10.0938 80.7656C7.84375 79.8281 6.25 77.5938 6.25 75C6.25 71.5469 9.04688 68.75 12.5 68.75C13.6406 68.75 14.7344 69.0625 15.6563 69.6094Z" fill="#69D6F4"/>
<path d="M15.625 46.875C20.8027 46.875 25 42.6777 25 37.5C25 32.3223 20.8027 28.125 15.625 28.125C10.4473 28.125 6.25 32.3223 6.25 37.5C6.25 42.6777 10.4473 46.875 15.625 46.875Z" fill="#69D6F4"/>
<path d="M75 40.625C76.7259 40.625 78.125 39.2259 78.125 37.5C78.125 35.7741 76.7259 34.375 75 34.375C73.2741 34.375 71.875 35.7741 71.875 37.5C71.875 39.2259 73.2741 40.625 75 40.625Z" fill="#69D6F4"/>
<path d="M90.625 57.8125C94.0768 57.8125 96.875 55.0143 96.875 51.5625C96.875 48.1107 94.0768 45.3125 90.625 45.3125C87.1732 45.3125 84.375 48.1107 84.375 51.5625C84.375 55.0143 87.1732 57.8125 90.625 57.8125Z" fill="#69D6F4"/>
<path d="M81.25 75C81.25 72.7031 82.4844 70.6875 84.3437 69.6094C85.2656 69.0625 86.3594 68.75 87.5 68.75C90.9531 68.75 93.75 71.5469 93.75 75C93.75 77.5938 92.1563 79.8281 89.9063 80.7656C88.5 77.3906 85.1406 75 81.25 75Z" fill="#69D6F4"/>
<path d="M65.625 62.5C69.0781 62.5 71.875 65.2969 71.875 68.75C71.875 72.2031 69.0781 75 65.625 75V62.5Z" fill="#69D6F4"/>
<path d="M25 90.625C26.7259 90.625 28.125 89.2259 28.125 87.5C28.125 85.7741 26.7259 84.375 25 84.375C23.2741 84.375 21.875 85.7741 21.875 87.5C21.875 89.2259 23.2741 90.625 25 90.625Z" fill="#69D6F4"/>
<path d="M75 90.625C76.7259 90.625 78.125 89.2259 78.125 87.5C78.125 85.7741 76.7259 84.375 75 84.375C73.2741 84.375 71.875 85.7741 71.875 87.5C71.875 89.2259 73.2741 90.625 75 90.625Z" fill="#69D6F4"/>
<path d="M68.75 57.8125V60.9375C68.75 61.7969 68.0469 62.5 67.1875 62.5H65.625H34.375H32.8125C31.9531 62.5 31.25 61.7969 31.25 60.9375V57.8125C31.25 56.9531 31.9531 56.25 32.8125 56.25H50H67.1875C68.0469 56.25 68.75 56.9531 68.75 57.8125Z" fill="#AAB2BD"/>
<path d="M34.375 87.5V81.25V75V68.75V62.5H65.625V75V90.625C65.625 94.0781 62.8281 96.875 59.375 96.875H40.625C37.1719 96.875 34.375 94.0781 34.375 90.625V87.5Z" fill="#FFEAA7"/>
<path d="M53.125 90.625C54.8509 90.625 56.25 89.2259 56.25 87.5C56.25 85.7741 54.8509 84.375 53.125 84.375C51.3991 84.375 50 85.7741 50 87.5C50 89.2259 51.3991 90.625 53.125 90.625Z" fill="#4FC1E9"/>
<path d="M56.25 75C57.9759 75 59.375 73.6009 59.375 71.875C59.375 70.1491 57.9759 68.75 56.25 68.75C54.5241 68.75 53.125 70.1491 53.125 71.875C53.125 73.6009 54.5241 75 56.25 75Z" fill="#4FC1E9"/>
<path d="M31.25 9.375H37.5V21.875H9.375C7.65625 21.875 6.09375 21.1719 4.95313 20.0469C3.82813 18.9062 3.125 17.3438 3.125 15.625C3.125 12.1719 5.92188 9.375 9.375 9.375H12.5H18.75H25H31.25Z" fill="#FFEAA7"/>
<path d="M43.75 21.875V23.4375C43.75 24.2969 43.0469 25 42.1875 25H39.0625C38.2031 25 37.5 24.2969 37.5 23.4375V21.875V9.375V7.8125C37.5 6.95312 38.2031 6.25 39.0625 6.25H42.1875C43.0469 6.25 43.75 6.95312 43.75 7.8125V21.875Z" fill="#FCD770"/>
<path d="M62.5 21.875V23.4375C62.5 24.2969 61.7969 25 60.9375 25H57.8125C56.9531 25 56.25 24.2969 56.25 23.4375V21.875V10.9375C56.25 10.0781 56.9531 9.375 57.8125 9.375H60.9375C61.7969 9.375 62.5 10.0781 62.5 10.9375V12.5V21.875Z" fill="#B4DD7F"/>
<path d="M75 21.875H62.5V12.5H68.75H75L87.7656 3.98437C88.6094 3.42187 89.6094 3.125 90.625 3.125C91.6406 3.125 92.6406 3.42187 93.4844 3.98437L95.4844 5.32813C96.3594 5.90625 96.875 6.875 96.875 7.92188V18.75C93.2344 18.75 93.2344 21.875 89.5938 21.875C85.9375 21.875 85.9375 18.75 82.2969 18.75C78.6406 18.75 78.6406 21.875 75 21.875Z" fill="#E6E9ED"/>
<path d="M96.875 18.75V26.4531C96.875 27.5 96.3594 28.4688 95.4844 29.0469L93.4844 30.3906C92.6406 30.9531 91.6406 31.25 90.625 31.25C89.6094 31.25 88.6094 30.9531 87.7656 30.3906L75 21.875C78.6406 21.875 78.6406 18.75 82.2969 18.75C85.9375 18.75 85.9375 21.875 89.5938 21.875C93.2344 21.875 93.2344 18.75 96.875 18.75Z" fill="#69D6F4"/>
<path d="M96.35 4.02192L94.3547 2.69067C92.1406 1.21411 89.1109 1.21411 86.8969 2.69067L74.5266 10.9375H64.0625C64.0625 9.21411 62.6609 7.81255 60.9375 7.81255H57.8125C56.0891 7.81255 54.6875 9.21411 54.6875 10.9375V20.6C52.8734 21.2469 51.5625 22.9657 51.5625 25V35.9375H54.6875V25C54.6875 24.7657 54.7469 24.55 54.8391 24.35C55.2328 25.6266 56.4094 26.5625 57.8125 26.5625H60.9375C62.6609 26.5625 64.0625 25.161 64.0625 23.4375H74.5266L86.8953 31.6829C88.0031 32.4219 89.2922 32.8126 90.625 32.8126C91.9578 32.8126 93.2469 32.4219 94.3547 31.6829L96.35 30.3516C97.6563 29.4813 98.4375 28.0235 98.4375 26.4532V7.92192C98.4375 6.35161 97.6563 4.8938 96.35 4.02192ZM60.9375 23.4375H57.8125L57.8109 10.9375H60.9375V23.4375ZM64.0625 20.3125V14.0625H67.1875V17.1875H70.3125V14.0625H73.4375V17.1875H76.5625V13.336L88.6297 5.29224C89.8156 4.50161 91.4359 4.50161 92.6219 5.29224L94.6172 6.62349C95.0516 6.91255 95.3125 7.39849 95.3125 7.92192V17.3625C93.8797 17.7016 92.975 18.4735 92.2141 19.1266C91.3812 19.8407 90.8312 20.3125 89.5859 20.3125C88.3406 20.3125 87.7891 19.8407 86.9562 19.1266C85.9484 18.2626 84.6953 17.1875 82.2937 17.1875C79.8922 17.1875 78.6375 18.2626 77.6297 19.1266C76.7969 19.8407 76.2453 20.3125 75 20.3125H64.0625ZM94.6172 27.7532L92.6219 29.0844C91.4359 29.8751 89.8156 29.8751 88.6297 29.0844L78.5578 22.3688C78.9719 22.086 79.3344 21.7829 79.6656 21.5C80.4969 20.7844 81.0484 20.3125 82.2937 20.3125C83.5391 20.3125 84.0891 20.7844 84.9234 21.4985C85.9313 22.3625 87.1844 23.4375 89.5859 23.4375C91.9859 23.4375 93.2406 22.3625 94.2469 21.4985C94.6281 21.1704 94.9547 20.9032 95.3109 20.7001V26.4532C95.3125 26.9766 95.0516 27.4625 94.6172 27.7532Z" fill="black"/>
<path d="M9.375 23.4375H35.9375C35.9375 25.1609 37.3391 26.5625 39.0625 26.5625H42.1875C43.5906 26.5625 44.7672 25.6266 45.1609 24.35C45.2531 24.55 45.3125 24.7656 45.3125 25V35.9375H48.4375V25C48.4375 22.9656 47.1266 21.2469 45.3125 20.6V7.8125C45.3125 6.08906 43.9109 4.6875 42.1875 4.6875H39.0625C37.3391 4.6875 35.9375 6.08906 35.9375 7.8125H9.375C5.06719 7.8125 1.5625 11.3172 1.5625 15.625C1.5625 19.9328 5.06719 23.4375 9.375 23.4375ZM39.0625 7.8125H42.1875V23.4375H39.0625V7.8125ZM9.375 10.9375H10.9375V17.1875H14.0625V10.9375H17.1875V14.0625H20.3125V10.9375H23.4375V17.1875H26.5625V10.9375H29.6875V14.0625H32.8125V10.9375H35.9375V20.3125H9.375C6.79063 20.3125 4.6875 18.2094 4.6875 15.625C4.6875 13.0406 6.79063 10.9375 9.375 10.9375Z" fill="black"/>
<path d="M53.125 82.8125C50.5406 82.8125 48.4375 84.9156 48.4375 87.5C48.4375 90.0844 50.5406 92.1875 53.125 92.1875C55.7094 92.1875 57.8125 90.0844 57.8125 87.5C57.8125 84.9156 55.7094 82.8125 53.125 82.8125ZM53.125 89.0625C52.2641 89.0625 51.5625 88.3609 51.5625 87.5C51.5625 86.6391 52.2641 85.9375 53.125 85.9375C53.9859 85.9375 54.6875 86.6391 54.6875 87.5C54.6875 88.3609 53.9859 89.0625 53.125 89.0625Z" fill="black"/>
<path d="M56.25 67.1875C53.6656 67.1875 51.5625 69.2906 51.5625 71.875C51.5625 74.4594 53.6656 76.5625 56.25 76.5625C58.8344 76.5625 60.9375 74.4594 60.9375 71.875C60.9375 69.2906 58.8344 67.1875 56.25 67.1875ZM56.25 73.4375C55.3891 73.4375 54.6875 72.7359 54.6875 71.875C54.6875 71.0141 55.3891 70.3125 56.25 70.3125C57.1109 70.3125 57.8125 71.0141 57.8125 71.875C57.8125 72.7359 57.1109 73.4375 56.25 73.4375Z" fill="black"/>
<path d="M4.6875 37.5C4.6875 43.5312 9.59375 48.4375 15.625 48.4375C21.6562 48.4375 26.5625 43.5312 26.5625 37.5C26.5625 31.4688 21.6562 26.5625 15.625 26.5625C9.59375 26.5625 4.6875 31.4688 4.6875 37.5ZM23.4375 37.5C23.4375 41.8078 19.9328 45.3125 15.625 45.3125C11.3172 45.3125 7.8125 41.8078 7.8125 37.5C7.8125 33.1922 11.3172 29.6875 15.625 29.6875C19.9328 29.6875 23.4375 33.1922 23.4375 37.5Z" fill="black"/>
<path d="M15.625 35.9375C16.4859 35.9375 17.1875 36.6391 17.1875 37.5H20.3125C20.3125 34.9156 18.2094 32.8125 15.625 32.8125V35.9375Z" fill="black"/>
<path d="M25 82.8125C22.4156 82.8125 20.3125 84.9156 20.3125 87.5C20.3125 90.0844 22.4156 92.1875 25 92.1875C27.5844 92.1875 29.6875 90.0844 29.6875 87.5C29.6875 84.9156 27.5844 82.8125 25 82.8125ZM25 89.0625C24.1391 89.0625 23.4375 88.3609 23.4375 87.5C23.4375 86.6391 24.1391 85.9375 25 85.9375C25.8609 85.9375 26.5625 86.6391 26.5625 87.5C26.5625 88.3609 25.8609 89.0625 25 89.0625Z" fill="black"/>
<path d="M92.9531 80.5719C94.4266 79.1313 95.3125 77.1484 95.3125 75C95.3125 70.6922 91.8078 67.1875 87.5 67.1875C86.9297 67.1875 86.3766 67.2562 85.8406 67.3734C85.2016 62.3172 81.1047 58.3281 75.9969 57.8625C76.3563 56.8688 76.5625 55.8031 76.5625 54.6875C76.5625 49.5172 72.3578 45.3125 67.1875 45.3125C66.6141 45.3125 66.0453 45.3641 65.4891 45.4656C66.5672 44.1016 67.1875 42.4016 67.1875 40.625C67.1875 36.8531 64.4984 33.6969 60.9375 32.9703V29.6875H57.8125V39.0625H60.9375V36.225C62.7516 36.8719 64.0625 38.5906 64.0625 40.625C64.0625 41.7656 63.6422 42.8578 62.9062 43.7031C61.4375 42.7484 59.6906 42.1875 57.8125 42.1875C54.5531 42.1875 51.6813 43.8609 50 46.3906C48.3187 43.8594 45.4469 42.1875 42.1875 42.1875C40.3094 42.1875 38.5625 42.7484 37.0938 43.7031C36.3578 42.8578 35.9375 41.7656 35.9375 40.625C35.9375 38.5906 37.2484 36.8719 39.0625 36.225V39.0625H42.1875V29.6875H39.0625V32.9703C35.5016 33.6969 32.8125 36.8516 32.8125 40.625C32.8125 42.4016 33.4328 44.1016 34.5109 45.4656C33.9547 45.3641 33.3859 45.3125 32.8125 45.3125C27.6422 45.3125 23.4375 49.5172 23.4375 54.6875C23.4375 55.8031 23.6438 56.8688 24.0031 57.8625C18.8953 58.3266 14.7984 62.3156 14.1594 67.3734C13.6234 67.2562 13.0703 67.1875 12.5 67.1875C8.19219 67.1875 4.6875 70.6922 4.6875 75C4.6875 77.1484 5.57344 79.1313 7.04688 80.5719C3.8 82.0688 1.5625 85.3344 1.5625 89.0625C1.5625 94.2328 5.76719 98.4375 10.9375 98.4375H89.0625C94.2328 98.4375 98.4375 94.2328 98.4375 89.0625C98.4375 85.3344 96.2 82.0688 92.9531 80.5719ZM92.1875 75C92.1875 76.4125 91.5594 77.7141 90.5156 78.5891C88.8844 75.9875 86.1953 74.1219 83.05 73.5984C83.65 71.7016 85.4062 70.3125 87.5 70.3125C90.0844 70.3125 92.1875 72.4156 92.1875 75ZM57.8125 45.3125C61.2594 45.3125 64.0625 48.1156 64.0625 51.5625H67.1875C67.1875 50.4828 66.9953 49.45 66.6578 48.4859C66.8344 48.4703 67.0078 48.4375 67.1875 48.4375C70.6344 48.4375 73.4375 51.2406 73.4375 54.6875C73.4375 56.9906 72.1719 58.9844 70.3125 60.0688V57.8125C70.3125 56.0891 68.9109 54.6875 67.1875 54.6875H51.5625V51.5625C51.5625 48.1156 54.3656 45.3125 57.8125 45.3125ZM32.8125 64.35V73.1484C30.9984 72.5016 29.6875 70.7828 29.6875 68.7484C29.6875 66.7141 30.9984 64.9969 32.8125 64.35ZM32.8125 60.9375V57.8125H67.1875L67.1891 60.9375H32.8125ZM67.1875 64.35C69.0016 64.9969 70.3125 66.7156 70.3125 68.75C70.3125 70.7844 69.0016 72.5031 67.1875 73.15V64.35ZM32.8125 48.4375C32.9922 48.4375 33.1656 48.4703 33.3422 48.4859C33.0047 49.45 32.8125 50.4828 32.8125 51.5625H35.9375C35.9375 48.1156 38.7406 45.3125 42.1875 45.3125C45.6344 45.3125 48.4375 48.1156 48.4375 51.5625V54.6875H32.8125C31.0891 54.6875 29.6875 56.0891 29.6875 57.8125V60.0688C27.8281 58.9844 26.5625 56.9906 26.5625 54.6875C26.5625 51.2406 29.3656 48.4375 32.8125 48.4375ZM12.5 70.3125C14.575 70.3125 16.3187 71.6766 16.9328 73.6016C13.7953 74.1297 11.1125 75.9922 9.48438 78.5906C8.44063 77.7141 7.8125 76.4125 7.8125 75C7.8125 72.4156 9.91562 70.3125 12.5 70.3125ZM4.6875 89.0625C4.6875 86.7672 5.95313 84.7266 7.85 83.6406C7.83281 83.8844 7.8125 84.1266 7.8125 84.375C7.8125 84.9875 7.86406 85.6 7.96406 86.1969L11.0469 85.6781C10.9734 85.2516 10.9375 84.8141 10.9375 84.375C10.9375 80.0672 14.4422 76.5625 18.75 76.5625C20.125 76.5625 21.475 76.9234 22.6547 77.6062L24.2203 74.9031C22.9734 74.1812 21.5922 73.7172 20.1641 73.5313C19.7937 71.6 18.7016 69.9375 17.1891 68.7922C17.1891 68.7781 17.1875 68.7641 17.1875 68.75C17.1875 64.4422 20.6922 60.9375 25 60.9375C25.3094 60.9375 25.6141 60.9828 25.9187 61.0187C26.7531 61.9266 27.7625 62.6688 28.8953 63.1937C27.4578 64.6109 26.5625 66.5766 26.5625 68.75C26.5625 72.5219 29.2516 75.6781 32.8125 76.4047V90.625C32.8125 92.3906 33.4234 94.0031 34.4156 95.3125H10.9375C7.49062 95.3125 4.6875 92.5094 4.6875 89.0625ZM40.625 95.3125C38.0406 95.3125 35.9375 93.2094 35.9375 90.625V89.0625H42.1875V85.9375H35.9375V82.8125H45.3125V79.6875H35.9375V76.5625H42.1875V73.4375H35.9375V70.3125H45.3125V67.1875H35.9375V64.0625H64.0625V90.625C64.0625 93.2094 61.9594 95.3125 59.375 95.3125H40.625ZM89.0625 95.3125H65.5844C66.5766 94.0031 67.1875 92.3906 67.1875 90.625V76.4047C70.7484 75.6781 73.4375 72.5234 73.4375 68.75C73.4375 66.5766 72.5422 64.6109 71.1047 63.1937C72.2375 62.6703 73.2469 61.9281 74.0812 61.0187C74.3859 60.9828 74.6906 60.9375 75 60.9375C79.3078 60.9375 82.8125 64.4422 82.8125 68.75C82.8125 68.7641 82.8109 68.7781 82.8109 68.7922C81.3 69.9375 80.2063 71.6 79.8359 73.5313C78.4078 73.7172 77.0266 74.1812 75.7797 74.9031L77.3453 77.6062C78.525 76.9234 79.875 76.5625 81.25 76.5625C85.5578 76.5625 89.0625 80.0672 89.0625 84.375C89.0625 84.8141 89.0266 85.2516 88.9547 85.6781L92.0375 86.1969C92.1359 85.6 92.1875 84.9875 92.1875 84.375C92.1875 84.1266 92.1672 83.8844 92.15 83.6406C94.0469 84.7266 95.3125 86.7672 95.3125 89.0625C95.3125 92.5094 92.5094 95.3125 89.0625 95.3125Z" fill="black"/>
<path d="M75 82.8125C72.4156 82.8125 70.3125 84.9156 70.3125 87.5C70.3125 90.0844 72.4156 92.1875 75 92.1875C77.5844 92.1875 79.6875 90.0844 79.6875 87.5C79.6875 84.9156 77.5844 82.8125 75 82.8125ZM75 89.0625C74.1391 89.0625 73.4375 88.3609 73.4375 87.5C73.4375 86.6391 74.1391 85.9375 75 85.9375C75.8609 85.9375 76.5625 86.6391 76.5625 87.5C76.5625 88.3609 75.8609 89.0625 75 89.0625Z" fill="black"/>
<path d="M90.625 43.75C86.3172 43.75 82.8125 47.2547 82.8125 51.5625C82.8125 55.8703 86.3172 59.375 90.625 59.375C94.9328 59.375 98.4375 55.8703 98.4375 51.5625C98.4375 47.2547 94.9328 43.75 90.625 43.75ZM90.625 56.25C88.0406 56.25 85.9375 54.1469 85.9375 51.5625C85.9375 48.9781 88.0406 46.875 90.625 46.875C93.2094 46.875 95.3125 48.9781 95.3125 51.5625C95.3125 54.1469 93.2094 56.25 90.625 56.25Z" fill="black"/>
<path d="M79.6875 37.5C79.6875 34.9156 77.5844 32.8125 75 32.8125C72.4156 32.8125 70.3125 34.9156 70.3125 37.5C70.3125 40.0844 72.4156 42.1875 75 42.1875C77.5844 42.1875 79.6875 40.0844 79.6875 37.5ZM73.4375 37.5C73.4375 36.6391 74.1391 35.9375 75 35.9375C75.8609 35.9375 76.5625 36.6391 76.5625 37.5C76.5625 38.3609 75.8609 39.0625 75 39.0625C74.1391 39.0625 73.4375 38.3609 73.4375 37.5Z" fill="black"/>
</svg>
