<svg width="100" height="100" viewBox="0 0 100 100" fill="none" xmlns="http://www.w3.org/2000/svg">
<path d="M56.8801 14.09C56.883 16.4413 56.4217 18.77 55.5224 20.9425C54.6232 23.115 53.3039 25.0886 51.6401 26.75C51.1022 26.2032 50.6042 25.6183 50.1501 25C47.728 21.8656 46.4141 18.0162 46.4141 14.055C46.4141 10.0938 47.728 6.24446 50.1501 3.11001C50.6023 2.49959 51.1004 1.92458 51.6401 1.39001C53.3087 3.05618 54.6308 5.03626 55.5301 7.21601C56.4295 9.39576 56.8883 11.732 56.8801 14.09Z" fill="#FFC950"/>
<path d="M53.8801 14.09C53.8941 18.0694 52.5816 21.9399 50.1501 25.09C47.728 21.9556 46.4141 18.1062 46.4141 14.145C46.4141 10.1838 47.728 6.33445 50.1501 3.20001C52.5633 6.31779 53.875 10.1475 53.8801 14.09Z" fill="#FFD773"/>
<path d="M51.6398 27.75C51.376 27.7462 51.1244 27.6384 50.9398 27.45C47.4047 23.9003 45.4199 19.0947 45.4199 14.085C45.4199 9.0753 47.4047 4.26966 50.9398 0.719992C51.1271 0.533741 51.3806 0.429199 51.6448 0.429199C51.909 0.429199 52.1624 0.533741 52.3498 0.719992C55.8703 4.27734 57.8451 9.0801 57.8451 14.085C57.8451 19.0899 55.8703 23.8926 52.3498 27.45C52.2572 27.5445 52.1467 27.6196 52.0248 27.6711C51.903 27.7226 51.7721 27.7494 51.6398 27.75ZM51.6398 2.88999C48.9252 5.98966 47.4288 9.96972 47.4288 14.09C47.4288 18.2103 48.9252 22.1903 51.6398 25.29C54.3543 22.1903 55.8507 18.2103 55.8507 14.09C55.8507 9.96972 54.3543 5.98966 51.6398 2.88999Z" fill="black"/>
<path d="M40.9707 51.74L33.0307 65.8H17.1607L14.4507 61L11.0607 55L9.2207 51.74L17.1607 37.67H33.0307L40.9707 51.74Z" fill="#FFC950"/>
<path d="M35.9707 51.74L28.0307 65.8H17.1607L14.4507 61L11.0607 55L9.2207 51.74L17.1607 37.67H28.0307L35.9707 51.74Z" fill="#FFD773"/>
<path d="M33.0008 66.8H17.1608C16.9836 66.7997 16.8096 66.7523 16.6568 66.6627C16.5039 66.5731 16.3776 66.4445 16.2908 66.29L13.5808 61.49C13.5151 61.3758 13.4726 61.2497 13.4557 61.119C13.4387 60.9883 13.4477 60.8556 13.482 60.7284C13.5514 60.4715 13.72 60.2526 13.9508 60.12C14.1815 59.9874 14.4555 59.9519 14.7124 60.0213C14.9693 60.0907 15.1882 60.2593 15.3208 60.49L17.7408 64.78H32.4508L39.8208 51.72L32.4508 38.67H17.7408L10.3708 51.74L11.9308 54.51C11.9964 54.6243 12.0389 54.7503 12.0559 54.881C12.0728 55.0117 12.0639 55.1444 12.0295 55.2717C11.9951 55.3989 11.9361 55.5181 11.8556 55.6225C11.7752 55.7268 11.675 55.8144 11.5608 55.88C11.4465 55.9457 11.3205 55.9882 11.1898 56.0051C11.0591 56.0221 10.9264 56.0131 10.7991 55.9788C10.6719 55.9444 10.5527 55.8853 10.4483 55.8049C10.344 55.7245 10.2564 55.6243 10.1908 55.51L8.35077 52.23C8.263 52.078 8.2168 51.9056 8.2168 51.73C8.2168 51.5545 8.263 51.382 8.35077 51.23L16.2908 37.16C16.3776 37.0056 16.5039 36.8769 16.6568 36.7873C16.8096 36.6977 16.9836 36.6503 17.1608 36.65H33.0008C33.178 36.6503 33.3519 36.6977 33.5048 36.7873C33.6576 36.8769 33.7839 37.0056 33.8708 37.16L41.8108 51.23C41.8985 51.382 41.9447 51.5545 41.9447 51.73C41.9447 51.9056 41.8985 52.078 41.8108 52.23L33.9008 66.29C33.8115 66.449 33.6805 66.5806 33.5218 66.6704C33.3632 66.7603 33.183 66.8051 33.0008 66.8Z" fill="black"/>
<path d="M65.0608 65.82L57.1208 79.89H41.2408L33.3008 65.82L41.2408 51.76H57.1208L65.0608 65.82Z" fill="#CC295B"/>
<path d="M65.0608 65.82L57.1208 79.89H45.2408L37.3008 65.82L45.2408 51.76H57.1208L65.0608 65.82Z" fill="#FF6487"/>
<path d="M57.1208 80.89H41.2409C41.0637 80.8897 40.8897 80.8423 40.7369 80.7527C40.584 80.6631 40.4577 80.5345 40.3708 80.38L32.4309 66.31C32.3431 66.158 32.2969 65.9855 32.2969 65.81C32.2969 65.6344 32.3431 65.462 32.4309 65.31L40.3708 51.25C40.4577 51.0955 40.584 50.9669 40.7369 50.8773C40.8897 50.7877 41.0637 50.7403 41.2409 50.74H57.1208C57.298 50.7403 57.472 50.7877 57.6248 50.8773C57.7777 50.9669 57.904 51.0955 57.9909 51.25L65.9309 65.31C66.0186 65.462 66.0648 65.6344 66.0648 65.81C66.0648 65.9855 66.0186 66.158 65.9309 66.31L58.0009 80.38C57.9132 80.5359 57.7853 80.6655 57.6305 80.7552C57.4757 80.8449 57.2997 80.8915 57.1208 80.89ZM41.8209 78.89H56.5308L63.9109 65.82L56.5308 52.76H41.8209L34.4509 65.82L41.8209 78.89Z" fill="black"/>
<path d="M88.1409 51.74L80.2009 65.8H64.3209L56.3809 51.74L64.3209 37.67H80.2009L88.1409 51.74Z" fill="#CC295B"/>
<path d="M82.1409 51.74L74.2009 65.8H64.3209L56.3809 51.74L64.3209 37.67H74.2009L82.1409 51.74Z" fill="#FF6487"/>
<path d="M80.2009 66.8H64.3209C64.1437 66.7997 63.9698 66.7523 63.8169 66.6627C63.6641 66.5731 63.5378 66.4445 63.4509 66.29L55.5109 52.23C55.4232 52.078 55.377 51.9056 55.377 51.73C55.377 51.5545 55.4232 51.382 55.5109 51.23L63.4509 37.16C63.5378 37.0056 63.6641 36.8769 63.8169 36.7873C63.9698 36.6977 64.1437 36.6503 64.3209 36.65H80.2009C80.3781 36.6503 80.5521 36.6977 80.7049 36.7873C80.8578 36.8769 80.9841 37.0056 81.0709 37.16L89.0009 51.25C89.0887 51.402 89.1349 51.5745 89.1349 51.75C89.1349 51.9256 89.0887 52.098 89.0009 52.25L81.0709 66.29C80.9841 66.4445 80.8578 66.5731 80.7049 66.6627C80.5521 66.7523 80.3781 66.7997 80.2009 66.8ZM64.9009 64.8H79.6109L87.0009 51.74L79.6109 38.67H64.9009L57.5309 51.74L64.9009 64.8Z" fill="black"/>
<path d="M59.6807 31.19V84L59.6107 90C59.3548 92.0505 58.3591 93.937 56.8105 95.3051C55.2619 96.6732 53.2671 97.4288 51.2007 97.43C50.5261 97.4321 49.854 97.3481 49.2007 97.18C47.3624 96.7357 45.7257 95.6889 44.5513 94.2065C43.377 92.724 42.7325 90.8912 42.7207 89V31.19H59.6807Z" fill="#E5E5E5"/>
<path d="M55.6807 31.19V84L55.6107 90C55.3972 91.709 54.6672 93.3122 53.5182 94.5952C52.3692 95.8782 50.8559 96.78 49.1807 97.18C47.3461 96.7319 45.7139 95.6834 44.5434 94.2014C43.373 92.7193 42.7314 90.8885 42.7207 89V31.19H55.6807Z" fill="white"/>
<path d="M51.2007 98.43C48.6959 98.4274 46.2937 97.4346 44.5178 95.6682C42.742 93.9017 41.7365 91.5048 41.7207 89V31.19C41.7207 30.9248 41.8261 30.6704 42.0136 30.4829C42.2011 30.2954 42.4555 30.19 42.7207 30.19H59.7207C59.9859 30.19 60.2403 30.2954 60.4278 30.4829C60.6153 30.6704 60.7207 30.9248 60.7207 31.19V84C60.7207 84.2652 60.6153 84.5196 60.4278 84.7071C60.2403 84.8946 59.9859 85 59.7207 85C59.4555 85 59.2011 84.8946 59.0136 84.7071C58.8261 84.5196 58.7207 84.2652 58.7207 84V32.19H43.7207V89C43.7246 90.9005 44.4518 92.7282 45.7545 94.112C47.0573 95.4957 48.8379 96.3317 50.7347 96.4501C52.6315 96.5685 54.5023 95.9604 55.967 94.7494C57.4317 93.5384 58.3805 91.8153 58.6207 89.93C58.6525 89.6648 58.7884 89.4231 58.9984 89.258C59.2085 89.093 59.4755 89.0182 59.7407 89.05C60.0059 89.0818 60.2476 89.2177 60.4127 89.4277C60.5777 89.6378 60.6525 89.9048 60.6207 90.17C60.326 92.4579 59.2063 94.5595 57.4718 96.0804C55.7374 97.6012 53.5075 98.4367 51.2007 98.43Z" fill="black"/>
<path d="M28.4301 86.79C28.2659 86.7892 28.1045 86.748 27.9601 86.67L16.3501 80.41C16.1923 80.3237 16.0607 80.1963 15.9692 80.0415C15.8776 79.8866 15.8296 79.7099 15.8301 79.53V65.2C15.8301 64.9348 15.9354 64.6804 16.123 64.4929C16.3105 64.3054 16.5649 64.2 16.8301 64.2C17.0953 64.2 17.3497 64.3054 17.5372 64.4929C17.7247 64.6804 17.8301 64.9348 17.8301 65.2V78.93L28.9101 84.93C29.0259 84.9928 29.1281 85.0779 29.2109 85.1803C29.2938 85.2827 29.3555 85.4005 29.3927 85.5269C29.4299 85.6533 29.4417 85.7857 29.4275 85.9167C29.4133 86.0477 29.3734 86.1745 29.3101 86.29C29.2211 86.4441 29.0927 86.5717 28.938 86.6596C28.7833 86.7475 28.608 86.7925 28.4301 86.79Z" fill="black"/>
<path d="M80.2093 38.46C79.9441 38.46 79.6897 38.3547 79.5022 38.1671C79.3147 37.9796 79.2093 37.7252 79.2093 37.46V23.73L68.1293 17.73C67.8959 17.5974 67.7248 17.3775 67.6535 17.1187C67.5822 16.8599 67.6167 16.5834 67.7493 16.35C67.8819 16.1166 68.1018 15.9455 68.3606 15.8742C68.6194 15.8029 68.8959 15.8374 69.1293 15.97L80.7393 22.23C80.8971 22.3164 81.0287 22.4437 81.1203 22.5986C81.2118 22.7534 81.2598 22.9301 81.2593 23.11V37.46C81.2595 37.5957 81.2321 37.7299 81.1787 37.8546C81.1254 37.9793 81.0472 38.0919 80.949 38.1854C80.8508 38.279 80.7345 38.3515 80.6074 38.3987C80.4802 38.446 80.3448 38.4668 80.2093 38.46Z" fill="black"/>
<path d="M71.2791 16.87C71.2804 17.2214 71.2123 17.5697 71.0787 17.8948C70.9451 18.2199 70.7487 18.5154 70.5006 18.7644C70.2525 19.0134 69.9578 19.211 69.6332 19.3458C69.3086 19.4806 68.9606 19.55 68.6091 19.55C68.2669 19.5487 67.9279 19.4843 67.6091 19.36C67.1084 19.1611 66.679 18.8165 66.3764 18.3707C66.0739 17.925 65.9121 17.3987 65.9121 16.86C65.9121 16.3213 66.0739 15.7949 66.3764 15.3492C66.679 14.9035 67.1084 14.5588 67.6091 14.36C67.9259 14.2277 68.2658 14.1597 68.6091 14.16C68.9631 14.1599 69.3136 14.2303 69.6402 14.367C69.9667 14.5036 70.2629 14.7039 70.5113 14.9561C70.7598 15.2083 70.9556 15.5074 71.0874 15.8359C71.2192 16.1645 71.2844 16.516 71.2791 16.87Z" fill="#FFC950"/>
<path d="M69.2791 16.87C69.2806 17.4042 69.1224 17.9267 68.8249 18.3704C68.5273 18.814 68.1039 19.1587 67.6091 19.36C67.1084 19.1611 66.679 18.8165 66.3764 18.3708C66.0739 17.925 65.9121 17.3987 65.9121 16.86C65.9121 16.3213 66.0739 15.7949 66.3764 15.3492C66.679 14.9035 67.1084 14.5589 67.6091 14.36C68.1079 14.5614 68.5342 14.9088 68.8322 15.3567C69.1302 15.8046 69.286 16.3321 69.2791 16.87Z" fill="#FFD773"/>
<path d="M68.6104 20.55C67.8793 20.554 67.1635 20.3407 66.5539 19.9372C65.9442 19.5337 65.4681 18.9582 65.1861 18.2837C64.904 17.6092 64.8287 16.8661 64.9696 16.1488C65.1105 15.4314 65.4614 14.772 65.9776 14.2544C66.4939 13.7367 67.1523 13.3841 67.8693 13.2412C68.5862 13.0983 69.3295 13.1716 70.0048 13.4519C70.68 13.7321 71.2568 14.2066 71.662 14.8152C72.0671 15.4237 72.2824 16.1389 72.2804 16.87C72.2804 17.8443 71.894 18.7788 71.2061 19.4686C70.5181 20.1585 69.5846 20.5473 68.6104 20.55ZM68.6104 15.18C68.2753 15.176 67.9466 15.2718 67.6661 15.455C67.3855 15.6383 67.1658 15.9008 67.0348 16.2093C66.9039 16.5177 66.8675 16.8581 66.9304 17.1873C66.9934 17.5164 67.1527 17.8194 67.3883 18.0577C67.6238 18.2961 67.9249 18.4591 68.2532 18.5259C68.5816 18.5928 68.9224 18.5605 69.2324 18.4332C69.5424 18.3059 69.8075 18.0893 69.9941 17.811C70.1807 17.5326 70.2804 17.2051 70.2804 16.87C70.2804 16.4252 70.1051 15.9984 69.7925 15.682C69.4799 15.3656 69.0551 15.1853 68.6104 15.18Z" fill="black"/>
<path d="M32.8991 85.79C32.9004 86.1428 32.8321 86.4923 32.698 86.8187C32.5639 87.145 32.3667 87.4416 32.1177 87.6915C31.8687 87.9414 31.5728 88.1397 31.247 88.275C30.9212 88.4103 30.5719 88.48 30.2191 88.48C29.8769 88.4787 29.5379 88.4143 29.2191 88.29C28.7216 88.0885 28.2958 87.7427 27.9964 87.2972C27.697 86.8516 27.5377 86.3268 27.5391 85.79C27.5363 85.2554 27.6952 84.7324 27.9951 84.2898C28.2949 83.8472 28.7216 83.5057 29.2191 83.31C29.5359 83.1777 29.8758 83.1097 30.2191 83.11C30.571 83.11 30.9195 83.1793 31.2447 83.314C31.5698 83.4487 31.8653 83.6461 32.1141 83.8949C32.363 84.1438 32.5604 84.4392 32.6951 84.7644C32.8298 85.0896 32.8991 85.438 32.8991 85.79Z" fill="#CC295B"/>
<path d="M30.8991 85.79C30.9005 86.3268 30.7412 86.8517 30.4418 87.2972C30.1424 87.7427 29.7166 88.0885 29.2191 88.29C28.7216 88.0885 28.2958 87.7427 27.9964 87.2972C27.697 86.8517 27.5377 86.3268 27.5391 85.79C27.5363 85.2554 27.6952 84.7325 27.9951 84.2899C28.2949 83.8472 28.7216 83.5057 29.2191 83.31C29.7166 83.5057 30.1433 83.8472 30.4431 84.2899C30.7429 84.7325 30.9019 85.2554 30.8991 85.79Z" fill="#FF6487"/>
<path d="M30.2195 89.48C29.4893 89.482 28.7749 89.2673 28.1668 88.863C27.5586 88.4588 27.0841 87.8832 26.8033 87.2091C26.5225 86.535 26.448 85.7927 26.5892 85.0763C26.7305 84.3598 27.0811 83.7014 27.5968 83.1844C28.1124 82.6673 28.7699 82.3149 29.486 82.1717C30.202 82.0285 30.9445 82.101 31.6193 82.38C32.2942 82.659 32.871 83.1319 33.277 83.7389C33.6829 84.346 33.8995 85.0598 33.8995 85.79C33.8995 86.7669 33.5121 87.704 32.8223 88.3957C32.1324 89.0874 31.1964 89.4774 30.2195 89.48ZM30.2195 84.11C29.8844 84.108 29.5563 84.2057 29.2769 84.3907C28.9974 84.5756 28.7793 84.8394 28.6501 85.1487C28.521 85.4579 28.4867 85.7985 28.5516 86.1273C28.6164 86.456 28.7776 86.7581 29.0146 86.995C29.2515 87.232 29.5535 87.3931 29.8823 87.458C30.2111 87.5229 30.5517 87.4886 30.8609 87.3594C31.1701 87.2303 31.434 87.0121 31.6189 86.7327C31.8038 86.4532 31.9015 86.1251 31.8995 85.79C31.8995 85.5694 31.8561 85.3509 31.7717 85.1471C31.6872 84.9433 31.5635 84.7581 31.4075 84.6021C31.2515 84.4461 31.0663 84.3223 30.8624 84.2379C30.6586 84.1535 30.4402 84.11 30.2195 84.11Z" fill="black"/>
<path d="M48.0707 42.65H42.7207C42.4555 42.65 42.2011 42.5447 42.0136 42.3571C41.8261 42.1696 41.7207 41.9152 41.7207 41.65C41.7207 41.3848 41.8261 41.1305 42.0136 40.9429C42.2011 40.7554 42.4555 40.65 42.7207 40.65H48.0707C48.3359 40.65 48.5903 40.7554 48.7778 40.9429C48.9653 41.1305 49.0707 41.3848 49.0707 41.65C49.0707 41.9152 48.9653 42.1696 48.7778 42.3571C48.5903 42.5447 48.3359 42.65 48.0707 42.65Z" fill="black"/>
<path d="M46.2907 47.41H42.7207C42.4555 47.41 42.2011 47.3046 42.0136 47.1171C41.8261 46.9295 41.7207 46.6752 41.7207 46.41C41.7207 46.1448 41.8261 45.8904 42.0136 45.7029C42.2011 45.5153 42.4555 45.41 42.7207 45.41H46.2907C46.5559 45.41 46.8103 45.5153 46.9978 45.7029C47.1853 45.8904 47.2907 46.1448 47.2907 46.41C47.2907 46.6752 47.1853 46.9295 46.9978 47.1171C46.8103 47.3046 46.5559 47.41 46.2907 47.41Z" fill="black"/>
<path d="M46.2907 51.21H42.7207C42.4555 51.21 42.2011 51.1047 42.0136 50.9171C41.8261 50.7296 41.7207 50.4752 41.7207 50.21C41.7207 49.9448 41.8261 49.6905 42.0136 49.5029C42.2011 49.3154 42.4555 49.21 42.7207 49.21H46.2907C46.5559 49.21 46.8103 49.3154 46.9978 49.5029C47.1853 49.6905 47.2907 49.9448 47.2907 50.21C47.2907 50.4752 47.1853 50.7296 46.9978 50.9171C46.8103 51.1047 46.5559 51.21 46.2907 51.21Z" fill="black"/>
<path d="M46.2907 55H42.7207C42.4555 55 42.2011 54.8946 42.0136 54.7071C41.8261 54.5196 41.7207 54.2652 41.7207 54C41.7207 53.7348 41.8261 53.4804 42.0136 53.2929C42.2011 53.1054 42.4555 53 42.7207 53H46.2907C46.5559 53 46.8103 53.1054 46.9978 53.2929C47.1853 53.4804 47.2907 53.7348 47.2907 54C47.2907 54.2652 47.1853 54.5196 46.9978 54.7071C46.8103 54.8946 46.5559 55 46.2907 55Z" fill="black"/>
<path d="M46.2907 58.82H42.7207C42.4555 58.82 42.2011 58.7147 42.0136 58.5271C41.8261 58.3396 41.7207 58.0852 41.7207 57.82C41.7207 57.5548 41.8261 57.3004 42.0136 57.1129C42.2011 56.9254 42.4555 56.82 42.7207 56.82H46.2907C46.5559 56.82 46.8103 56.9254 46.9978 57.1129C47.1853 57.3004 47.2907 57.5548 47.2907 57.82C47.2907 58.0852 47.1853 58.3396 46.9978 58.5271C46.8103 58.7147 46.5559 58.82 46.2907 58.82Z" fill="black"/>
<path d="M46.2907 62.62H42.7207C42.4555 62.62 42.2011 62.5146 42.0136 62.3271C41.8261 62.1396 41.7207 61.8852 41.7207 61.62C41.7207 61.3548 41.8261 61.1004 42.0136 60.9129C42.2011 60.7254 42.4555 60.62 42.7207 60.62H46.2907C46.5559 60.62 46.8103 60.7254 46.9978 60.9129C47.1853 61.1004 47.2907 61.3548 47.2907 61.62C47.2907 61.8852 47.1853 62.1396 46.9978 62.3271C46.8103 62.5146 46.5559 62.62 46.2907 62.62Z" fill="black"/>
<path d="M48.0707 67.71H42.7207C42.4555 67.71 42.2011 67.6047 42.0136 67.4171C41.8261 67.2296 41.7207 66.9752 41.7207 66.71C41.7207 66.4448 41.8261 66.1905 42.0136 66.0029C42.2011 65.8154 42.4555 65.71 42.7207 65.71H48.0707C48.3359 65.71 48.5903 65.8154 48.7778 66.0029C48.9653 66.1905 49.0707 66.4448 49.0707 66.71C49.0707 66.9752 48.9653 67.2296 48.7778 67.4171C48.5903 67.6047 48.3359 67.71 48.0707 67.71Z" fill="black"/>
<path d="M46.2907 72.47H42.7207C42.4555 72.47 42.2011 72.3646 42.0136 72.1771C41.8261 71.9895 41.7207 71.7352 41.7207 71.47C41.7207 71.2048 41.8261 70.9504 42.0136 70.7629C42.2011 70.5753 42.4555 70.47 42.7207 70.47H46.2907C46.5559 70.47 46.8103 70.5753 46.9978 70.7629C47.1853 70.9504 47.2907 71.2048 47.2907 71.47C47.2907 71.7352 47.1853 71.9895 46.9978 72.1771C46.8103 72.3646 46.5559 72.47 46.2907 72.47Z" fill="black"/>
<path d="M46.2907 76.27H42.7207C42.4555 76.27 42.2011 76.1647 42.0136 75.9771C41.8261 75.7896 41.7207 75.5352 41.7207 75.27C41.7207 75.0048 41.8261 74.7505 42.0136 74.5629C42.2011 74.3754 42.4555 74.27 42.7207 74.27H46.2907C46.5559 74.27 46.8103 74.3754 46.9978 74.5629C47.1853 74.7505 47.2907 75.0048 47.2907 75.27C47.2907 75.5352 47.1853 75.7896 46.9978 75.9771C46.8103 76.1647 46.5559 76.27 46.2907 76.27Z" fill="black"/>
<path d="M46.2907 80.08H42.7207C42.4555 80.08 42.2011 79.9747 42.0136 79.7871C41.8261 79.5996 41.7207 79.3452 41.7207 79.08C41.7207 78.8148 41.8261 78.5604 42.0136 78.3729C42.2011 78.1854 42.4555 78.08 42.7207 78.08H46.2907C46.5559 78.08 46.8103 78.1854 46.9978 78.3729C47.1853 78.5604 47.2907 78.8148 47.2907 79.08C47.2907 79.3452 47.1853 79.5996 46.9978 79.7871C46.8103 79.9747 46.5559 80.08 46.2907 80.08Z" fill="black"/>
<path d="M46.2907 83.88H42.7207C42.4555 83.88 42.2011 83.7746 42.0136 83.5871C41.8261 83.3996 41.7207 83.1452 41.7207 82.88C41.7207 82.6148 41.8261 82.3604 42.0136 82.1729C42.2011 81.9854 42.4555 81.88 42.7207 81.88H46.2907C46.5559 81.88 46.8103 81.9854 46.9978 82.1729C47.1853 82.3604 47.2907 82.6148 47.2907 82.88C47.2907 83.1452 47.1853 83.3996 46.9978 83.5871C46.8103 83.7746 46.5559 83.88 46.2907 83.88Z" fill="black"/>
<path d="M46.2907 87.69H42.7207C42.4555 87.69 42.2011 87.5846 42.0136 87.3971C41.8261 87.2096 41.7207 86.9552 41.7207 86.69C41.7207 86.4248 41.8261 86.1704 42.0136 85.9829C42.2011 85.7954 42.4555 85.69 42.7207 85.69H46.2907C46.5559 85.69 46.8103 85.7954 46.9978 85.9829C47.1853 86.1704 47.2907 86.4248 47.2907 86.69C47.2907 86.9552 47.1853 87.2096 46.9978 87.3971C46.8103 87.5846 46.5559 87.69 46.2907 87.69Z" fill="black"/>
<path d="M42.7207 64.31L47.8207 63.67C49.1613 63.5021 50.522 63.6075 51.8207 63.98L53.5107 64.46C55.2058 64.9481 56.9998 64.9792 58.7107 64.55L59.7107 64.31" fill="white"/>
<path d="M56.2806 65.85C55.2654 65.8478 54.2555 65.7031 53.2806 65.42L51.6006 64.94C50.4318 64.6044 49.2072 64.5092 48.0006 64.66L42.8906 65.3C42.7593 65.3164 42.626 65.3068 42.4984 65.2717C42.3708 65.2366 42.2513 65.1767 42.1469 65.0955C42.0424 65.0142 41.955 64.9132 41.8895 64.7981C41.8241 64.6831 41.782 64.5563 41.7656 64.425C41.7492 64.2937 41.7588 64.1604 41.7939 64.0328C41.829 63.9052 41.8888 63.7857 41.9701 63.6813C42.0514 63.5768 42.1524 63.4894 42.2674 63.4239C42.3825 63.3585 42.5093 63.3164 42.6406 63.3L47.7506 62.66C49.2285 62.4736 50.7288 62.5892 52.1606 63L53.8406 63.48C55.3694 63.9207 56.9877 63.9483 58.5306 63.56L59.5306 63.32C59.7838 63.2677 60.0473 63.3154 60.2661 63.4532C60.4848 63.591 60.6416 63.8082 60.7037 64.0591C60.7658 64.31 60.7283 64.5753 60.5991 64.7992C60.4699 65.0231 60.2589 65.1882 60.0106 65.26L59.0106 65.5C58.1188 65.7305 57.2017 65.8481 56.2806 65.85Z" fill="black"/>
<path d="M51.6406 64.41C51.3754 64.41 51.1211 64.3046 50.9335 64.1171C50.746 63.9296 50.6406 63.6752 50.6406 63.41V19.55C50.6406 19.2848 50.746 19.0304 50.9335 18.8429C51.1211 18.6553 51.3754 18.55 51.6406 18.55C51.9058 18.55 52.1602 18.6553 52.3477 18.8429C52.5353 19.0304 52.6406 19.2848 52.6406 19.55V63.41C52.6406 63.6752 52.5353 63.9296 52.3477 64.1171C52.1602 64.3046 51.9058 64.41 51.6406 64.41Z" fill="black"/>
<path d="M63.2508 32.08C63.2481 32.7926 62.9639 33.4753 62.46 33.9792C61.9561 34.4831 61.2734 34.7673 60.5608 34.77H41.8308C41.147 34.7282 40.5049 34.4272 40.0355 33.9282C39.5661 33.4293 39.3047 32.77 39.3047 32.085C39.3047 31.3999 39.5661 30.7407 40.0355 30.2417C40.5049 29.7428 41.147 29.4417 41.8308 29.4H60.5608C60.9135 29.3987 61.2631 29.467 61.5894 29.6011C61.9157 29.7352 62.2123 29.9324 62.4623 30.1814C62.7122 30.4304 62.9105 30.7263 63.0458 31.0521C63.1811 31.3779 63.2508 31.7272 63.2508 32.08Z" fill="#FFC950"/>
<path d="M58.2508 32.08C58.2481 32.7926 57.9639 33.4753 57.46 33.9792C56.9561 34.4831 56.2734 34.7673 55.5608 34.77H41.8308C41.147 34.7282 40.5049 34.4272 40.0355 33.9282C39.5661 33.4293 39.3047 32.77 39.3047 32.085C39.3047 31.3999 39.5661 30.7407 40.0355 30.2417C40.5049 29.7428 41.147 29.4417 41.8308 29.4H55.5608C55.9135 29.3987 56.2631 29.467 56.5894 29.6011C56.9157 29.7352 57.2123 29.9324 57.4623 30.1814C57.7122 30.4304 57.9105 30.7263 58.0458 31.0521C58.1811 31.3779 58.2508 31.7272 58.2508 32.08Z" fill="#FFD773"/>
<path d="M60.56 35.77H41.83C40.8859 35.7208 39.9967 35.3111 39.3458 34.6254C38.6949 33.9398 38.332 33.0304 38.332 32.085C38.332 31.1396 38.6949 30.2303 39.3458 29.5446C39.9967 28.8589 40.8859 28.4492 41.83 28.4H60.56C61.0601 28.374 61.5602 28.45 62.03 28.6234C62.4997 28.7968 62.9293 29.064 63.2925 29.4088C63.6556 29.7535 63.9448 30.1686 64.1425 30.6287C64.3401 31.0888 64.442 31.5843 64.442 32.085C64.442 32.5858 64.3401 33.0813 64.1425 33.5414C63.9448 34.0015 63.6556 34.4165 63.2925 34.7613C62.9293 35.106 62.4997 35.3732 62.03 35.5467C61.5602 35.7201 61.0601 35.7961 60.56 35.77ZM41.83 30.4C41.4055 30.4327 41.0091 30.6245 40.7198 30.9369C40.4306 31.2492 40.2699 31.6593 40.2699 32.085C40.2699 32.5107 40.4306 32.9208 40.7198 33.2332C41.0091 33.5456 41.4055 33.7373 41.83 33.77H60.56C60.7922 33.7879 61.0256 33.7576 61.2455 33.6811C61.4654 33.6045 61.6672 33.4833 61.8381 33.3251C62.009 33.1669 62.1453 32.9751 62.2385 32.7617C62.3318 32.5483 62.3799 32.3179 62.3799 32.085C62.3799 31.8521 62.3318 31.6218 62.2385 31.4084C62.1453 31.195 62.009 31.0031 61.8381 30.8449C61.6672 30.6867 61.4654 30.5655 61.2455 30.489C61.0256 30.4124 60.7922 30.3821 60.56 30.4H41.83Z" fill="black"/>
</svg>
