<svg width="100" height="100" viewBox="0 0 100 100" fill="none" xmlns="http://www.w3.org/2000/svg">
<path d="M43.9375 92.849V95.8275C43.9375 97.3221 45.1483 98.5329 46.6429 98.5329H53.092C54.5652 98.5329 55.7592 97.3389 55.7592 95.8657V92.849H43.9375Z" fill="#B3DBF4"/>
<path d="M47.8438 95.8275V92.849H43.9375V95.8275C43.9375 97.3221 45.1483 98.5329 46.6429 98.5329H50.5491C49.0545 98.5329 47.8438 97.3221 47.8438 95.8275Z" fill="#8FC8E2"/>
<path d="M61.3134 91.7106V84.1865C60.6725 84.1865 38.8509 84.1865 38.3848 84.1865V91.6885C38.3848 92.5453 39.079 93.2396 39.9358 93.2396H59.7845C60.629 93.2396 61.3134 92.5544 61.3134 91.7106Z" fill="#D3D3CF"/>
<path d="M42.291 91.6885V84.1865H38.3848V91.6885C38.3848 92.5453 39.079 93.2396 39.9358 93.2396H43.8421C42.9853 93.2396 42.291 92.5453 42.291 91.6885Z" fill="#C6C6C4"/>
<path d="M80.167 43.9957C80.167 27.3918 66.8194 13.9054 50.2689 13.6811C33.5247 13.4537 19.8566 26.6594 19.537 43.4021C19.3653 52.359 23.0793 60.4508 29.1073 66.1064C31.7646 68.6005 33.3904 72.1153 33.3904 75.9148H66.3074C66.3074 72.1131 67.934 68.5997 70.589 66.1087C76.4835 60.5774 80.167 52.7176 80.167 43.9957Z" fill="#49AE3A"/>
<path d="M33.0135 66.1064C26.9863 60.4508 23.2715 52.359 23.4432 43.4021C23.7476 27.4597 36.1553 14.724 51.7971 13.7398C51.2905 13.7078 50.7816 13.6879 50.2689 13.6811C33.5247 13.4537 19.8566 26.6594 19.537 43.4021C19.3653 52.359 23.0793 60.4508 29.1073 66.1064C31.8218 68.6547 33.3904 72.1916 33.3904 75.9148H37.2974C37.2974 72.1916 35.7288 68.6547 33.0135 66.1064Z" fill="#1D9942"/>
<path d="M33.3906 75.9148V79.7264C33.3906 82.4051 35.5627 84.5772 38.2414 84.5772H61.4615C64.1378 84.5772 66.3069 82.4074 66.3069 79.731V75.9148C64.7787 75.9148 34.8204 75.9148 33.3906 75.9148Z" fill="#E0E0DE"/>
<path d="M37.332 79.7264V75.9148H33.3906V79.7264C33.3906 82.4051 35.5627 84.5772 38.2414 84.5772H42.1827C39.5033 84.5772 37.332 82.4051 37.332 79.7264Z" fill="#D3D3CF"/>
<path d="M51.4029 30.4046C50.4508 29.8294 49.2476 29.8294 48.2947 30.4046C41.725 34.3719 37.332 41.5794 37.332 49.8138C37.332 58.049 41.725 65.2565 48.2947 69.2238C49.2476 69.799 50.4508 69.799 51.4029 69.2238C57.9734 65.2565 62.3664 58.049 62.3664 49.8138C62.3664 41.5794 57.9734 34.3719 51.4029 30.4046Z" fill="#A0D92A"/>
<path d="M41.2371 49.8138C41.2371 41.748 45.4539 34.6695 51.8008 30.6541C51.6688 30.5702 51.5368 30.4855 51.4017 30.4046C50.4488 29.8294 49.2464 29.8294 48.2935 30.4046C41.7238 34.3719 37.3301 41.5794 37.3301 49.8138C37.3301 58.049 41.7238 65.2565 48.2935 69.2238C49.2464 69.799 50.4488 69.799 51.4017 69.2238C51.536 69.1421 51.6688 69.0574 51.8008 68.9735C45.4539 64.9589 41.2371 57.8804 41.2371 49.8138Z" fill="#74C432"/>
<path d="M7.91016 42.1112C7.10144 42.1112 6.44531 42.7666 6.44531 43.576C6.44531 44.3855 7.10144 45.0409 7.91016 45.0409H11.9888C12.7983 45.0409 13.4537 44.3855 13.4537 43.576C13.4537 42.7666 12.7983 42.1112 11.9888 42.1112H7.91016Z" fill="black"/>
<path d="M92.1334 42.1112H88.0547C87.2452 42.1112 86.5898 42.7666 86.5898 43.576C86.5898 44.3855 87.2452 45.0409 88.0547 45.0409H92.1334C92.9421 45.0409 93.5982 44.3855 93.5982 43.576C93.5982 42.7666 92.9421 42.1112 92.1334 42.1112Z" fill="black"/>
<path d="M18.3542 61.8599C17.9498 61.1595 17.0534 60.92 16.353 61.3236L12.8206 63.3629C12.1202 63.7673 11.8799 64.6637 12.2842 65.3641C12.6886 66.0652 13.585 66.3048 14.2854 65.9004L17.8178 63.8611C18.5182 63.4567 18.7585 62.5603 18.3542 61.8599Z" fill="black"/>
<path d="M85.7587 21.2517L82.2263 23.291C81.5259 23.6954 81.2863 24.5918 81.6907 25.2922C82.095 25.9933 82.9915 26.2329 83.6919 25.8285L87.2235 23.7892C87.9246 23.3849 88.1642 22.4884 87.7599 21.788C87.3555 21.0869 86.459 20.8473 85.7587 21.2517Z" fill="black"/>
<path d="M70.3061 11.3716L72.3455 7.83919C72.7498 7.13881 72.5095 6.24312 71.8091 5.838C71.108 5.43364 70.2123 5.67396 69.8079 6.37434L67.7686 9.90675C67.3642 10.6071 67.6046 11.5028 68.3049 11.9072C69.0068 12.3123 69.9018 12.0712 70.3061 11.3716Z" fill="black"/>
<path d="M51.4863 5.54352V1.46484C51.4863 0.656128 50.831 0 50.0215 0C49.212 0 48.5566 0.656128 48.5566 1.46484V5.54352C48.5566 6.35223 49.212 7.00836 50.0215 7.00836C50.831 7.00836 51.4863 6.35223 51.4863 5.54352Z" fill="black"/>
<path d="M29.7357 11.3716C30.1408 12.0728 31.0372 12.3123 31.7369 11.9072C32.4372 11.5029 32.6776 10.6072 32.2732 9.9068L30.2339 6.37439C29.8295 5.67324 28.9331 5.43368 28.2327 5.83804C27.5323 6.24316 27.292 7.13885 27.6963 7.83923L29.7357 11.3716Z" fill="black"/>
<path d="M85.7587 65.9004C86.4606 66.3048 87.3563 66.0644 87.7599 65.3641C88.1642 64.6637 87.9246 63.7672 87.2235 63.3629L83.6919 61.3235C82.9907 60.9192 82.095 61.1595 81.6907 61.8599C81.2863 62.5603 81.5259 63.4567 82.2263 63.8611L85.7587 65.9004Z" fill="black"/>
<path d="M17.8178 23.291L14.2854 21.2517C13.5843 20.8473 12.6886 21.0877 12.2842 21.788C11.8799 22.4884 12.1202 23.3849 12.8206 23.7892L16.353 25.8286C17.0541 26.2329 17.9498 25.9918 18.3542 25.2922C18.7585 24.5918 18.5182 23.6954 17.8178 23.291Z" fill="black"/>
<path d="M52.1114 13.7177C52.0184 14.521 52.5936 15.2489 53.397 15.342C66.5798 16.8778 76.9596 27.1439 78.6396 40.3069C78.7342 41.0469 79.3644 41.5871 80.0907 41.5871C80.1525 41.5871 80.2151 41.5825 80.2784 41.5749C81.081 41.4719 81.6486 40.7387 81.5456 39.9361C79.7062 25.518 68.1812 14.1152 53.7365 12.4321C52.9331 12.3398 52.2053 12.9135 52.1114 13.7177Z" fill="black"/>
<path d="M18.2441 43.3762C18.0724 52.3575 21.7292 61.0329 28.2767 67.1768C30.7052 69.4557 32.0983 72.641 32.0983 75.9171V79.7287C32.0983 82.7576 34.2421 85.2944 37.0917 85.904V91.6908C37.0917 93.3541 38.4452 94.706 40.1076 94.706H42.6452V95.8298C42.6452 98.1293 44.5159 100 46.8154 100H53.2653C55.5434 100 57.3974 98.1468 57.3974 95.8679V94.7067H59.9563C61.6073 94.7067 62.9508 93.3632 62.9508 91.713V85.9055C65.8004 85.2974 67.9442 82.7622 67.9442 79.7333V75.9171C67.9442 72.641 69.3366 69.4565 71.7635 67.1791C77.3978 61.8927 80.9096 54.7623 81.652 47.0993C81.7298 46.2944 81.1408 45.578 80.3359 45.5002C79.5302 45.4201 78.8138 46.0114 78.736 46.817C78.0623 53.7712 74.874 60.2432 69.7593 65.0421C67.1065 67.5316 65.4487 70.8985 65.0885 74.4522H51.4861V70.8771C51.7775 70.7756 52.0614 70.6436 52.333 70.4796C67.8862 61.0878 67.8542 38.5254 52.333 29.1527C50.907 28.2921 49.1362 28.2921 47.7096 29.1527C39.9718 33.8249 35.6093 42.2936 36.0755 51.0933C36.0129 51.3733 36.035 51.664 36.1342 51.9287C36.8186 59.729 41.1994 66.5482 47.7103 70.4804C47.9812 70.6436 48.265 70.7756 48.5564 70.8771V74.4522H34.954C34.5939 70.8992 32.9352 67.5308 30.2817 65.0406C24.3377 59.4628 21.0173 51.5869 21.1738 43.4326C21.4507 28.9368 32.5049 16.848 46.8863 15.313C47.6905 15.2268 48.2734 14.505 48.1872 13.7009C48.1017 12.896 47.3807 12.3139 46.5751 12.3993C30.8082 14.0824 18.5538 27.1851 18.2441 43.3762ZM40.4174 42.0693L48.5564 48.4085V56.6933L38.9853 50.618C38.8762 47.6639 39.3638 44.7708 40.4174 42.0693ZM61.0595 50.5814L51.4861 56.6582V48.365L59.6122 42.0357C60.6406 44.6579 61.1655 47.5426 61.0595 50.5814ZM51.4861 67.5499V60.1288L60.591 54.3488C59.4306 59.7359 56.2156 64.457 51.4861 67.5499ZM58.3213 39.328L51.4861 44.6511V32.0816C54.367 33.9661 56.6863 36.4533 58.3213 39.328ZM48.5564 32.0816V44.6945L41.7037 39.3578C43.3402 36.4701 45.6656 33.9722 48.5564 32.0816ZM39.4599 54.39L48.5564 60.1639V67.5499C43.8392 64.4646 40.6287 59.7595 39.4599 54.39ZM54.4677 95.8679C54.4677 96.5309 53.9283 97.0703 53.2653 97.0703H46.8154C46.131 97.0703 45.5748 96.5134 45.5748 95.8298V94.706H54.4677V95.8679ZM60.0203 91.7122C60.0203 91.7481 59.9921 91.7763 59.9563 91.7763C56.7565 91.7763 42.3964 91.7763 40.1076 91.7763C40.0603 91.7763 40.0222 91.7382 40.0222 91.6908V86.0443H60.0211V91.7122H60.0203ZM65.0145 77.3819V79.7333C65.0145 81.4827 63.6634 83.1139 61.4852 83.1139C58.6654 83.1139 41.3283 83.1139 38.4139 83.1139C36.547 83.1139 35.028 81.5956 35.028 79.728V77.3819H65.0145Z" fill="black"/>
</svg>
