<svg width="100" height="100" viewBox="0 0 100 100" fill="none" xmlns="http://www.w3.org/2000/svg">
<g clip-path="url(#clip0_559_3070)">
<path d="M45.1445 55.6744L66.945 23.5477C67.2314 23.1255 67.6169 22.7799 68.0676 22.541C68.5184 22.3021 69.0208 22.1772 69.5309 22.1772C70.0411 22.1772 70.5435 22.3021 70.9942 22.541C71.445 22.7799 71.8304 23.1255 72.1169 23.5477L93.917 55.6744H45.1445Z" fill="#5BBD45"/>
<path d="M45.1445 55.675H80.5055L62.8258 29.6188L45.1445 55.675Z" fill="#50A32F"/>
<path d="M69.5318 34.0469L74.7349 37.9492L78.6785 33.2172L72.1174 23.5485C71.831 23.1263 71.4456 22.7807 70.9948 22.5418C70.544 22.3029 70.0416 22.178 69.5315 22.178C69.0213 22.178 68.5189 22.3029 68.0682 22.5418C67.6174 22.7807 67.232 23.1263 66.9455 23.5485L60.3848 33.2172L64.3287 37.9485L69.5318 34.0469Z" fill="#E3F7FF"/>
<path d="M67.0785 35.886L62.827 29.6188L60.3848 33.2156L64.3285 37.9485L67.0785 35.886Z" fill="#C3EBF5"/>
<path d="M98.2474 16.2022C97.4026 15.153 96.9394 13.8479 96.9337 12.5008C96.928 11.1538 97.3802 9.84486 98.2161 8.78858C98.3117 8.67394 98.3746 8.5356 98.398 8.38818C98.4214 8.24076 98.4046 8.08975 98.3493 7.95112C98.2939 7.81249 98.2021 7.69139 98.0836 7.60065C97.9651 7.5099 97.8242 7.45288 97.676 7.43561C96.3836 7.24504 95.1876 6.64167 94.2663 5.71554C93.345 4.78941 92.7479 3.59019 92.5641 2.29686C92.5473 2.1489 92.4908 2.00825 92.4006 1.88976C92.3104 1.77127 92.1898 1.67936 92.0517 1.62373C91.9136 1.5681 91.763 1.55083 91.6158 1.57374C91.4687 1.59666 91.3305 1.6589 91.2158 1.75389C90.1634 2.59495 88.8563 3.05333 87.509 3.05381C86.1618 3.0543 84.8544 2.59686 83.8013 1.75654C83.6864 1.6619 83.548 1.59999 83.4009 1.57734C83.2537 1.55469 83.1032 1.57213 82.9651 1.62784C82.827 1.68354 82.7065 1.77544 82.6162 1.89386C82.526 2.01229 82.4693 2.15285 82.4522 2.30076C82.2664 3.60049 81.6641 4.80491 80.7357 5.73329C79.8073 6.66166 78.6029 7.26391 77.3032 7.44967C77.1552 7.46652 77.0145 7.52302 76.896 7.61319C76.7774 7.70337 76.6854 7.82387 76.6297 7.96199C76.5739 8.10011 76.5565 8.25072 76.5793 8.39791C76.602 8.5451 76.6641 8.68342 76.7589 8.79826C77.5992 9.85125 78.0564 11.1586 78.0556 12.5057C78.0548 13.8529 77.596 15.1597 76.7546 16.2117C76.6595 16.3264 76.5972 16.4646 76.5743 16.6118C76.5514 16.7589 76.5686 16.9096 76.6243 17.0477C76.6799 17.1859 76.7719 17.3064 76.8904 17.3966C77.009 17.4868 77.1497 17.5432 77.2977 17.56C78.5969 17.7441 79.8011 18.3452 80.729 19.2729C81.657 20.2006 82.2585 21.4046 82.443 22.7037C82.4599 22.8517 82.5164 22.9924 82.6066 23.1109C82.6968 23.2294 82.8174 23.3213 82.9555 23.3769C83.0937 23.4325 83.2443 23.4497 83.3914 23.4268C83.5386 23.4039 83.6768 23.3416 83.7914 23.2465C84.8439 22.4056 86.151 21.9473 87.4982 21.9468C88.8454 21.9464 90.1528 22.4039 91.2058 23.2442C91.3208 23.3388 91.4591 23.4007 91.6062 23.4233C91.7534 23.4459 91.9039 23.4285 92.0419 23.3728C92.18 23.3171 92.3005 23.2252 92.3907 23.1068C92.481 22.9884 92.5376 22.8479 92.5547 22.7C92.7405 21.4004 93.3427 20.196 94.2709 19.2676C95.1992 18.3392 96.4034 17.7369 97.703 17.5509C97.8511 17.5342 97.9918 17.4777 98.1105 17.3875C98.2291 17.2974 98.3211 17.1768 98.3769 17.0387C98.4327 16.9005 98.4501 16.7498 98.4273 16.6026C98.4045 16.4554 98.3423 16.317 98.2474 16.2022Z" fill="#FFC839"/>
<path d="M87.4883 17.1937C90.0771 17.1937 92.1758 15.0951 92.1758 12.5062C92.1758 9.91739 90.0771 7.81873 87.4883 7.81873C84.8994 7.81873 82.8008 9.91739 82.8008 12.5062C82.8008 15.0951 84.8994 17.1937 87.4883 17.1937Z" fill="#FFF055"/>
<path d="M13.5039 56.25L42.7263 13.1858C43.0127 12.7636 43.3981 12.418 43.8489 12.1791C44.2996 11.9403 44.802 11.8154 45.3122 11.8154C45.8223 11.8154 46.3247 11.9403 46.7755 12.1791C47.2263 12.418 47.6117 12.7636 47.8981 13.1858L77.1202 56.25H13.5039Z" fill="#6BD75A"/>
<path d="M77.1206 56.25L49.1455 15.0236C48.5307 14.8789 47.8864 14.9246 47.2982 15.1545C46.7099 15.3844 46.2055 15.7877 45.8517 16.3109L18.75 56.25H77.1206Z" fill="#5BBD45"/>
<path d="M45.313 23.6843L50.5162 27.5867L54.4599 22.8547L47.8988 13.1859C47.6124 12.7638 47.227 12.4182 46.7762 12.1793C46.3254 11.9404 45.823 11.8155 45.3129 11.8155C44.8027 11.8155 44.3003 11.9404 43.8496 12.1793C43.3988 12.4182 43.0134 12.7638 42.727 13.1859L36.166 22.8547L40.1099 27.5867L45.313 23.6843Z" fill="#FEFFFF"/>
<path d="M40.109 27.5867L45.3121 23.6844L50.5152 27.5867L54.4587 22.8547L49.1449 15.0236C48.5302 14.8791 47.886 14.9248 47.2978 15.1547C46.7096 15.3846 46.2051 15.7878 45.8513 16.3109L39.0566 26.3241L40.109 27.5867Z" fill="#E3F7FF"/>
<path d="M89.6459 52.5C88.3929 53.486 86.8462 54.0247 85.2517 54.0306C83.6573 54.0365 82.1067 53.5091 80.8464 52.5324L80.813 52.5047C79.5749 51.4793 78.0176 50.9187 76.41 50.9198C74.8025 50.9209 73.2459 51.4836 72.0092 52.5106L71.9664 52.5461C70.7342 53.5695 69.1813 54.1269 67.5795 54.1206C65.9778 54.1144 64.4292 53.545 63.205 52.512L63.2019 52.5095C61.9777 51.4766 60.4291 50.9071 58.8274 50.9009C57.2256 50.8946 55.6727 51.452 54.4405 52.4753L54.3705 52.5334C53.1366 53.5579 51.5826 54.1172 49.9789 54.114C48.3752 54.1107 46.8234 53.5451 45.5938 52.5156L45.5809 52.5048C44.3573 51.4806 42.8146 50.9155 41.2188 50.9071C39.6231 50.8987 38.0745 51.4475 36.8402 52.4588L36.7873 52.5019C35.545 53.5197 33.9889 54.0767 32.3828 54.0784C30.7767 54.0801 29.2194 53.5265 27.9748 52.5113L27.895 52.4461C26.66 51.4386 25.112 50.8938 23.5182 50.9059C21.9244 50.9179 20.3848 51.486 19.1652 52.512C17.9677 53.5574 16.4373 54.1423 14.8479 54.1619C13.2584 54.1816 11.714 53.6347 10.4911 52.6192C9.48565 51.7703 8.26132 51.2219 6.95847 51.0369C5.65563 50.8519 4.32702 51.0378 3.125 51.5733C3.12643 64.0053 8.0664 75.9276 16.8582 84.7173C25.65 93.5071 37.5734 98.4443 50.0054 98.4429C62.4374 98.4415 74.3597 93.5015 83.1494 84.7097C91.9392 75.9179 96.8764 63.9945 96.875 51.5625C95.6997 51.0417 94.404 50.8537 93.1292 51.019C91.8544 51.1843 90.6495 51.6966 89.6459 52.5Z" fill="#87AAFF"/>
<path d="M26.5623 29.6875C26.566 28.3744 26.1548 27.0936 25.3874 26.028C24.6201 24.9624 23.5357 24.1664 22.2891 23.7535C21.0426 23.3407 19.6974 23.3321 18.4457 23.7291C17.194 24.126 16.0996 24.9081 15.3187 25.9639C14.6263 25.4327 13.7988 25.1064 12.9302 25.0219C12.0616 24.9374 11.1867 25.0982 10.4049 25.486C9.62313 25.8738 8.96575 26.4731 8.50747 27.2158C8.04918 27.9585 7.80835 28.8148 7.81233 29.6875C7.81233 29.7828 7.83468 29.8719 7.8403 29.9659C6.79345 30.3266 5.90855 31.047 5.34313 31.999C4.77772 32.951 4.56847 34.0727 4.75265 35.1645C4.93683 36.2563 5.50249 37.2473 6.34891 37.9612C7.19534 38.675 8.26761 39.0652 9.37483 39.0625H26.5623C27.8055 39.0625 28.9978 38.5686 29.8769 37.6896C30.756 36.8105 31.2498 35.6182 31.2498 34.375C31.2498 33.1318 30.756 31.9395 29.8769 31.0604C28.9978 30.1814 27.8055 29.6875 26.5623 29.6875Z" fill="#FEFFFF"/>
<path d="M26.5627 29.6875C26.5559 28.6776 26.3018 27.6848 25.8226 26.7959C24.6206 26.4523 23.3419 26.4882 22.1612 26.8986C20.9804 27.309 19.9551 28.0739 19.2254 29.0889C18.5329 28.5577 17.7054 28.2313 16.8368 28.1469C15.9682 28.0624 15.0934 28.2232 14.3116 28.611C13.5298 28.9988 12.8724 29.5981 12.4141 30.3408C11.9558 31.0835 11.715 31.9398 11.719 32.8125C11.719 32.9078 11.7413 32.9969 11.7469 33.0909C11.1643 33.2836 10.6262 33.5911 10.1643 33.9951C9.70238 34.3991 9.32604 34.8915 9.05745 35.4432C8.78886 35.995 8.63346 36.5949 8.60042 37.2077C8.56738 37.8205 8.65736 38.4336 8.86506 39.0111C9.03403 39.0376 9.20434 39.0548 9.37521 39.0625H26.5627C27.8059 39.0625 28.9982 38.5686 29.8773 37.6895C30.7564 36.8105 31.2502 35.6182 31.2502 34.375C31.2502 33.1318 30.7564 31.9395 29.8773 31.0604C28.9982 30.1813 27.8059 29.6875 26.5627 29.6875Z" fill="#E3F7FF"/>
<path d="M43.7496 90.625C37.5671 90.6326 31.4445 89.4131 25.7367 87.0373C20.0289 84.6615 14.8493 81.1766 10.498 76.7846C15.9532 85.3317 24.0331 91.8791 33.5252 95.4445C43.0173 99.0099 53.4097 99.4009 63.1428 96.5588C72.876 93.7167 81.425 87.7948 87.507 79.6818C93.589 71.5688 96.8759 61.7022 96.8746 51.5625C95.73 51.0581 94.4716 50.8683 93.2291 51.0127C91.9867 51.1572 90.8054 51.6307 89.8071 52.3844C87.794 63.129 82.0887 72.832 73.6783 79.815C65.2678 86.7981 54.6811 90.6219 43.7496 90.625Z" fill="#7F8CF0"/>
<path d="M17.1875 67.9688C17.1875 67.9688 21.7344 62.5 27.3438 62.5C32.9531 62.5 37.5 67.9688 37.5 67.9688C37.5 67.9688 32.9531 73.4375 27.3438 73.4375C21.7344 73.4375 17.1875 67.9688 17.1875 67.9688Z" fill="#A4F0FF"/>
<path d="M43.8667 72.7437L37.5 67.9687L43.8667 63.1937C44.8094 64.6078 45.3125 66.2692 45.3125 67.9687C45.3125 69.6682 44.8094 71.3297 43.8667 72.7437Z" fill="#A4F0FF"/>
<path d="M48.4375 80.4688C48.4375 80.4688 52.285 75.8414 57.0312 75.8414C61.7775 75.8414 65.625 80.4688 65.625 80.4688C65.625 80.4688 61.7775 85.0961 57.0312 85.0961C52.285 85.0961 48.4375 80.4688 48.4375 80.4688Z" fill="#A4F0FF"/>
<path d="M71.9917 85.2437L65.625 80.4687L71.9917 75.6937C72.9344 77.1078 73.4375 78.7692 73.4375 80.4687C73.4375 82.1682 72.9344 83.8297 71.9917 85.2437Z" fill="#A4F0FF"/>
<path d="M71.9923 85.2438C73.0128 83.7033 73.5087 81.8745 73.4062 80.0295C72.0536 81.1404 70.6399 82.1749 69.1719 83.1281L71.9923 85.2438Z" fill="#82DCF1"/>
<path d="M99.4558 15.213C98.8375 14.4434 98.4979 13.4871 98.4925 12.4998C98.4871 11.5126 98.8161 10.5526 99.426 9.77626C99.6968 9.44646 99.8745 9.05019 99.9406 8.62856C100.007 8.20693 99.9587 7.77531 99.8017 7.37847C99.6446 6.98163 99.3843 6.63404 99.0476 6.37176C98.711 6.10948 98.3103 5.94206 97.8871 5.88688C96.9331 5.74583 96.0503 5.30037 95.37 4.61686C94.6898 3.93335 94.2485 3.04837 94.1121 2.09376C94.0588 1.66994 93.8929 1.26815 93.6317 0.930196C93.3704 0.592246 93.0234 0.330495 92.6267 0.172189C92.2299 0.0138832 91.798 -0.0351912 91.3759 0.0300744C90.9538 0.0953401 90.5568 0.27256 90.2264 0.543287C89.453 1.15643 88.4952 1.49034 87.5082 1.49088C86.5212 1.49142 85.563 1.15855 84.7889 0.546255C84.4586 0.275221 84.0617 0.0977331 83.6395 0.0322911C83.2173 -0.0331508 82.7852 0.0158483 82.3884 0.174182C81.9916 0.332515 81.6444 0.594387 81.3832 0.932504C81.122 1.27062 80.9563 1.67261 80.9033 2.09657C80.7657 3.05689 80.3204 3.94672 79.6343 4.63258C78.9482 5.31844 78.0582 5.76337 77.0978 5.90063C76.6741 5.95386 76.2724 6.11967 75.9344 6.38081C75.5965 6.64195 75.3347 6.98888 75.1764 7.3855C75.018 7.78212 74.9688 8.21394 75.0339 8.63602C75.099 9.0581 75.2761 9.45502 75.5466 9.78547C76.1597 10.5594 76.493 11.5179 76.4923 12.5053C76.4917 13.4926 76.157 14.4507 75.5428 15.2238C75.2715 15.554 75.0938 15.951 75.0283 16.3733C74.9627 16.7956 75.0117 17.2278 75.1701 17.6247C75.3285 18.0217 75.5905 18.3688 75.9288 18.63C76.2672 18.8911 76.6694 19.0567 77.0935 19.1094C78.0527 19.2449 78.9419 19.6885 79.6272 20.3733C80.3124 21.0581 80.7566 21.9471 80.8927 22.9063C80.9475 23.3306 81.1145 23.7327 81.3766 24.0709C81.6386 24.4091 81.9862 24.6713 82.3835 24.8303C82.6623 24.9414 82.9598 24.9984 83.26 24.9981C83.813 24.9982 84.349 24.8074 84.7775 24.458C85.5507 23.8437 86.5088 23.509 87.4963 23.5082C88.4837 23.5074 89.4424 23.8405 90.2166 24.4534C90.5469 24.7245 90.9438 24.902 91.366 24.9674C91.7883 25.0329 92.2203 24.9839 92.6171 24.8255C93.014 24.6672 93.3611 24.4053 93.6223 24.0672C93.8835 23.7291 94.0492 23.3271 94.1022 22.9031C94.2398 21.9429 94.685 21.0532 95.3709 20.3674C96.0569 19.6815 96.9467 19.2365 97.9069 19.0991C98.3308 19.0458 98.7327 18.8798 99.0706 18.6185C99.4086 18.3571 99.6703 18.0099 99.8285 17.613C99.9866 17.2162 100.036 16.7841 99.97 16.362C99.9044 15.9398 99.7269 15.5432 99.4558 15.213ZM91.2435 21.3761C90.1048 20.7181 88.8128 20.3719 87.4977 20.3721C86.1825 20.3723 84.8907 20.7191 83.7522 21.3775C83.3844 20.167 82.7239 19.0657 81.8291 18.1712C80.9343 17.2767 79.8329 16.6165 78.6222 16.2491C79.2817 15.1112 79.6292 13.8194 79.6296 12.5042C79.6301 11.189 79.2834 9.89695 78.6247 8.7586C79.8368 8.39067 80.9396 7.72967 81.8354 6.83408C82.7313 5.9385 83.3926 4.83592 83.7608 3.62391C84.8995 4.28232 86.1917 4.62887 87.507 4.62862C88.8224 4.62837 90.1144 4.28134 91.2528 3.62251C91.6203 4.82834 92.2778 5.92569 93.1677 6.81844C94.0577 7.71119 95.153 8.3721 96.3577 8.74329C95.7139 9.88848 95.3776 11.1808 95.3815 12.4946C95.3854 13.8083 95.7294 15.0986 96.3799 16.24C95.1679 16.6087 94.0654 17.2702 93.1696 18.1659C92.2738 19.0616 91.6123 20.1642 91.2435 21.3761Z" fill="black"/>
<path d="M87.4883 6.2561C86.2522 6.2561 85.0438 6.62266 84.016 7.30942C82.9882 7.99618 82.1871 8.97229 81.714 10.1143C81.241 11.2564 81.1172 12.513 81.3584 13.7254C81.5995 14.9378 82.1948 16.0514 83.0689 16.9255C83.9429 17.7996 85.0566 18.3949 86.269 18.636C87.4814 18.8772 88.738 18.7534 89.8801 18.2804C91.0221 17.8073 91.9982 17.0062 92.685 15.9784C93.3717 14.9506 93.7383 13.7422 93.7383 12.5061C93.7365 10.849 93.0775 9.26037 91.9057 8.08865C90.734 6.91693 89.1453 6.25788 87.4883 6.2561ZM87.4883 15.6311C86.8702 15.6311 86.266 15.4478 85.7521 15.1044C85.2382 14.7611 84.8377 14.273 84.6012 13.702C84.3646 13.131 84.3028 12.5026 84.4233 11.8964C84.5439 11.2903 84.8415 10.7334 85.2786 10.2964C85.7156 9.85936 86.2724 9.56173 86.8786 9.44115C87.4848 9.32057 88.1132 9.38246 88.6842 9.61898C89.2552 9.8555 89.7433 10.256 90.0866 10.7699C90.43 11.2838 90.6133 11.888 90.6133 12.5061C90.6123 13.3346 90.2828 14.1289 89.6969 14.7148C89.1111 15.3006 88.3168 15.6302 87.4883 15.6311Z" fill="black"/>
<path d="M45.1667 62.3281C45.0488 62.1513 44.8962 62.0003 44.718 61.8845C44.5398 61.7687 44.3399 61.6905 44.1305 61.6546C43.921 61.6187 43.7064 61.6259 43.4999 61.6757C43.2933 61.7256 43.099 61.817 42.929 61.9445L37.679 65.882C35.9064 64.1406 32.0109 60.9375 27.3439 60.9375C21.074 60.9375 16.1912 66.7236 15.9861 66.9688C15.7527 67.2495 15.625 67.6031 15.625 67.9681C15.625 68.3332 15.7527 68.6867 15.9861 68.9675C16.1912 69.2133 21.074 74.9987 27.3439 74.9987C32.0109 74.9987 35.9064 71.7956 37.6787 70.0548L42.9287 73.9923C43.0987 74.1198 43.2929 74.2113 43.4995 74.2612C43.7061 74.3111 43.9207 74.3183 44.1301 74.2824C44.3396 74.2465 44.5395 74.1683 44.7177 74.0525C44.8958 73.9367 45.0485 73.7857 45.1664 73.6089C46.2799 71.9382 46.874 69.9754 46.874 67.9677C46.874 65.9599 46.2799 63.9971 45.1664 62.3264L45.1667 62.3281ZM27.3439 71.875C23.9267 71.875 20.849 69.4045 19.3498 67.9688C20.849 66.533 23.9267 64.0625 27.3439 64.0625C30.7611 64.0625 33.8387 66.533 35.3379 67.9688C33.8387 69.4045 30.7611 71.875 27.3439 71.875ZM43.3251 70.3842L40.1048 67.9688L43.3251 65.5533C43.8967 67.1129 43.8967 68.8246 43.3251 70.3842Z" fill="black"/>
<path d="M73.2917 74.8281C73.1738 74.6513 73.0212 74.5003 72.843 74.3845C72.6648 74.2687 72.4649 74.1905 72.2554 74.1545C72.046 74.1186 71.8314 74.1258 71.6249 74.1757C71.4183 74.2256 71.224 74.317 71.054 74.4445L65.7947 78.389C63.4824 75.9825 60.3602 74.5185 57.0314 74.2797C51.6145 74.2797 47.4123 79.2586 47.2361 79.4708C47.0027 79.7515 46.875 80.1051 46.875 80.4701C46.875 80.8352 47.0027 81.1888 47.2361 81.4695C47.4123 81.6817 51.6145 86.6606 57.0314 86.6606C60.3602 86.4217 63.4823 84.9577 65.7947 82.5512L71.054 86.4956C71.224 86.6231 71.4183 86.7146 71.6248 86.7645C71.8314 86.8143 72.046 86.8215 72.2554 86.7856C72.4649 86.7498 72.6648 86.6715 72.843 86.5557C73.0211 86.4399 73.1738 86.289 73.2917 86.1122C74.4052 84.4415 74.9993 82.4787 74.9993 80.4709C74.9993 78.4632 74.4052 76.4988 73.2917 74.8281ZM57.0314 83.5342C54.5982 83.3081 52.3253 82.2223 50.6204 80.4717C52.3276 78.7234 54.5989 77.6363 57.0314 77.4033C59.4646 77.6289 61.7377 78.7147 63.4423 80.4658C61.7351 82.2141 59.4638 83.3012 57.0314 83.5342ZM71.4501 82.8842L68.2298 80.4687L71.4501 78.0533C72.0217 79.6129 72.0217 81.3246 71.4501 82.8842Z" fill="black"/>
<path d="M15.625 4.6875C16.8678 4.68886 18.0593 5.18316 18.9381 6.06194C19.8168 6.94073 20.3111 8.13222 20.3125 9.375C20.3125 9.7894 20.4771 10.1868 20.7701 10.4799C21.0632 10.7729 21.4606 10.9375 21.875 10.9375C22.2894 10.9375 22.6868 10.7729 22.9799 10.4799C23.2729 10.1868 23.4375 9.7894 23.4375 9.375C23.4389 8.13222 23.9332 6.94073 24.8119 6.06194C25.6907 5.18316 26.8822 4.68886 28.125 4.6875C28.5394 4.6875 28.9368 4.52288 29.2299 4.22985C29.5229 3.93683 29.6875 3.5394 29.6875 3.125C29.6875 2.7106 29.5229 2.31317 29.2299 2.02015C28.9368 1.72712 28.5394 1.5625 28.125 1.5625C26.9117 1.56272 25.7152 1.84567 24.6303 2.3889C23.5454 2.93213 22.602 3.72069 21.875 4.69203C21.148 3.72069 20.2046 2.93213 19.1197 2.3889C18.0348 1.84567 16.8383 1.56272 15.625 1.5625C15.2106 1.5625 14.8132 1.72712 14.5201 2.02015C14.2271 2.31317 14.0625 2.7106 14.0625 3.125C14.0625 3.5394 14.2271 3.93683 14.5201 4.22985C14.8132 4.52288 15.2106 4.6875 15.625 4.6875Z" fill="black"/>
<path d="M4.6875 12.5C5.51601 12.501 6.31031 12.8305 6.89616 13.4163C7.482 14.0022 7.81155 14.7965 7.8125 15.625C7.8125 16.0394 7.97712 16.4368 8.27015 16.7299C8.56317 17.0229 8.9606 17.1875 9.375 17.1875C9.7894 17.1875 10.1868 17.0229 10.4799 16.7299C10.7729 16.4368 10.9375 16.0394 10.9375 15.625C10.9385 14.7965 11.268 14.0022 11.8538 13.4163C12.4397 12.8305 13.234 12.501 14.0625 12.5C14.4769 12.5 14.8743 12.3354 15.1674 12.0424C15.4604 11.7493 15.625 11.3519 15.625 10.9375C15.625 10.5231 15.4604 10.1257 15.1674 9.83265C14.8743 9.53962 14.4769 9.375 14.0625 9.375C13.1752 9.37461 12.2981 9.56361 11.4898 9.92937C10.6814 10.2951 9.96041 10.8292 9.375 11.4959C8.78959 10.8292 8.06861 10.2951 7.26024 9.92937C6.45188 9.56361 5.57476 9.37461 4.6875 9.375C4.2731 9.375 3.87567 9.53962 3.58265 9.83265C3.28962 10.1257 3.125 10.5231 3.125 10.9375C3.125 11.3519 3.28962 11.7493 3.58265 12.0424C3.87567 12.3354 4.2731 12.5 4.6875 12.5Z" fill="black"/>
<path d="M97.5036 50.1328C95.691 49.3355 93.6605 49.1811 91.7483 49.6953L73.41 22.67C72.9803 22.0369 72.4022 21.5185 71.7261 21.1602C71.05 20.8019 70.2964 20.6146 69.5312 20.6146C68.7661 20.6146 68.0125 20.8019 67.3364 21.1602C66.6603 21.5185 66.0822 22.0369 65.6525 22.67L60.9375 29.6178L49.1912 12.3078C48.7616 11.6747 48.1835 11.1563 47.5073 10.798C46.8312 10.4398 46.0777 10.2524 45.3125 10.2524C44.5473 10.2524 43.7938 10.4398 43.1177 10.798C42.4415 11.1563 41.8634 11.6747 41.4338 12.3078L29.9962 29.1639C29.3874 28.7577 28.7115 28.4622 27.9998 28.2913C27.6706 26.4919 26.7213 24.8647 25.3169 23.6925C23.9125 22.5203 22.1418 21.8773 20.3125 21.875C18.3412 21.8702 16.4431 22.621 15.0086 23.9732C14.2196 23.6196 13.3646 23.437 12.5 23.4375C10.9689 23.4395 9.49167 24.0025 8.3477 25.0201C7.20372 26.0377 6.47238 27.4393 6.29203 28.9597C5.09182 29.6384 4.15035 30.6957 3.61482 31.9662C3.0793 33.2368 2.97991 34.649 3.33222 35.982C3.68452 37.315 4.46864 38.4937 5.56197 39.3338C6.6553 40.1739 7.9962 40.628 9.375 40.625H22.2188L14.1194 52.5607C13.1605 52.4672 12.2542 52.0785 11.5256 51.4482C10.2941 50.406 8.7944 49.7311 7.1977 49.5004C5.601 49.2697 3.97161 49.4926 2.49547 50.1435C2.21804 50.2656 1.98212 50.4658 1.81647 50.7196C1.65081 50.9735 1.56257 51.27 1.5625 51.5732C1.56391 64.4196 6.66848 76.7393 15.7533 85.8221C24.8381 94.9049 37.1589 100.007 50.0053 100.005C62.8517 100.004 75.1714 94.8994 84.2542 85.8146C93.337 76.7298 98.4389 64.409 98.4375 51.5625C98.4376 51.2593 98.3493 50.9625 98.1834 50.7086C98.0176 50.4547 97.7813 50.2546 97.5036 50.1328ZM88.9241 51.0994C88.8325 51.1693 88.733 51.226 88.6444 51.3L88.6406 51.3032C87.6616 52.0574 86.4603 52.4661 85.2244 52.4656C83.9885 52.465 82.7876 52.0551 81.8092 51.3C80.805 50.4733 79.6227 49.8907 78.3553 49.5979C77.088 49.3051 75.77 49.3101 74.5048 49.6125L66.7055 38.1185L69.5312 35.9986L73.7969 39.1983C74.1172 39.4386 74.5177 39.5468 74.9155 39.5004C75.3132 39.454 75.678 39.2567 75.9345 38.9491L78.5498 35.8111L88.9241 51.0994ZM68.2389 24.4247C68.3882 24.2224 68.583 24.058 68.8074 23.9448C69.0319 23.8315 69.2798 23.7725 69.5312 23.7725C69.7827 23.7725 70.0306 23.8315 70.2551 23.9448C70.4795 24.058 70.6743 24.2224 70.8236 24.4247L76.7242 33.1203L74.4844 35.8078L70.4688 32.7958C70.1985 32.5924 69.8695 32.4823 69.5312 32.4823C69.193 32.4823 68.864 32.5924 68.5938 32.7958L64.9491 35.5302L62.8261 32.4014L68.2389 24.4247ZM44.0202 14.0625C44.1696 13.8602 44.3644 13.6959 44.5889 13.5826C44.8134 13.4693 45.0614 13.4103 45.3129 13.4103C45.5644 13.4103 45.8123 13.4693 46.0369 13.5826C46.2614 13.6959 46.4562 13.8602 46.6056 14.0625L52.5058 22.7577L50.2655 25.4452L46.25 22.435C45.9798 22.2316 45.6507 22.1215 45.3125 22.1215C44.9743 22.1215 44.6452 22.2316 44.375 22.435L40.3594 25.4457L38.1195 22.7582L44.0202 14.0625ZM9.375 37.5C8.63685 37.5027 7.92176 37.2431 7.3573 36.7674C6.79285 36.2917 6.41576 35.631 6.29332 34.9031C6.17087 34.1751 6.31104 33.4274 6.68881 32.7932C7.06658 32.1591 7.65737 31.6798 8.35578 31.4408C8.67835 31.328 8.95509 31.1126 9.14369 30.8276C9.33228 30.5426 9.42236 30.2037 9.40016 29.8627C9.39719 29.8249 9.38031 29.7257 9.375 29.6875C9.37595 28.859 9.7055 28.0647 10.2913 27.4789C10.8772 26.893 11.6715 26.5635 12.5 26.5625C13.3243 26.5769 14.1109 26.9107 14.6939 27.4937C15.2768 28.0767 15.6107 28.8632 15.625 29.6875C15.625 30.1019 15.7896 30.4994 16.0826 30.7924C16.3757 31.0854 16.7731 31.25 17.1875 31.25C17.6019 31.25 17.9993 31.0854 18.2924 30.7924C18.5854 30.4994 18.75 30.1019 18.75 29.6875C18.7421 28.35 18.2977 27.0517 17.4844 25.9899C18.2896 25.3524 19.2855 25.0038 20.3125 25C21.5553 25.0014 22.7468 25.4957 23.6256 26.3745C24.5043 27.2533 24.9986 28.4447 25 29.6875C25 30.1019 25.1646 30.4994 25.4576 30.7924C25.7507 31.0854 26.1481 31.25 26.5625 31.25C27.3913 31.25 28.1862 31.5793 28.7722 32.1653C29.3583 32.7514 29.6875 33.5462 29.6875 34.375C29.6875 35.2038 29.3583 35.9987 28.7722 36.5847C28.1862 37.1708 27.3913 37.5 26.5625 37.5H9.375ZM25.9961 40.625H26.5625C28.2196 40.6233 29.8083 39.9643 30.98 38.7925C32.1517 37.6208 32.8108 36.0321 32.8125 34.375C32.8086 33.4033 32.5759 32.4461 32.1331 31.5811L36.2938 25.4494L38.9092 28.5874C39.1655 28.8953 39.5304 29.0928 39.9283 29.1391C40.3262 29.1854 40.7267 29.077 41.0469 28.8361L45.3125 25.6378L49.5781 28.8361C49.8986 29.0763 50.299 29.1843 50.6968 29.1378C51.0945 29.0913 51.4593 28.8938 51.7156 28.5861L54.3312 25.4477L71.6038 50.903C71.3913 51.0491 71.1698 51.1752 70.9678 51.3428C70.0177 52.1334 68.8194 52.5639 67.5835 52.5585C66.3475 52.5532 65.1529 52.1125 64.2097 51.3138C62.6911 50.0382 60.7706 49.3404 58.7875 49.3435C56.8043 49.3466 54.886 50.0504 53.3714 51.3307C52.4169 52.123 51.2143 52.5548 49.9737 52.5506C48.7332 52.5464 47.5335 52.1065 46.5844 51.3077C45.0705 50.047 43.1633 49.3555 41.1933 49.353C39.2232 49.3505 37.3143 50.0371 35.7972 51.2939C34.8161 52.0862 33.5905 52.5136 32.3295 52.503C31.0685 52.4924 29.8503 52.0446 28.8827 51.236C27.5451 50.1474 25.9049 49.4967 24.1848 49.3723C22.4648 49.2478 20.748 49.6555 19.2677 50.5402L25.9961 40.625ZM50 96.875C38.1812 96.8607 26.8345 92.2349 18.3743 83.982C9.91421 75.729 5.00855 64.5005 4.70125 52.6857C5.52502 52.4809 6.38559 52.4744 7.21235 52.6667C8.03911 52.859 8.80849 53.2446 9.45734 53.7919C10.9619 55.0532 12.8666 55.7375 14.8298 55.7221C16.7931 55.7067 18.6868 54.9926 20.1714 53.7078C21.129 52.9112 22.3359 52.4762 23.5816 52.4787C24.8272 52.4812 26.0324 52.9211 26.9867 53.7216C28.5231 54.9645 30.4419 55.6381 32.4181 55.6284C34.3943 55.6187 36.3063 54.9262 37.8305 53.6683C38.7867 52.8884 39.985 52.4663 41.2189 52.4747C42.4529 52.483 43.6453 52.9213 44.5909 53.7141C46.1151 54.9837 48.0377 55.6759 50.0214 55.6692C52.005 55.6625 53.9229 54.9573 55.4384 53.6774C56.3887 52.8868 57.5871 52.4564 58.8232 52.4617C60.0593 52.467 61.2539 52.9077 62.1973 53.7064C63.7101 54.9801 65.6237 55.6791 67.6012 55.6802C69.5787 55.6813 71.4932 54.9845 73.0073 53.7125C73.9706 52.9161 75.1823 52.4821 76.4322 52.486C77.6821 52.4899 78.8911 52.9314 79.8494 53.7338C81.3943 54.9356 83.2974 55.5852 85.2547 55.5788C87.2121 55.5725 89.1108 54.9106 90.648 53.6988C91.2937 53.1845 92.0486 52.8251 92.8549 52.6482C93.6611 52.4712 94.4972 52.4814 95.2989 52.678C94.9946 64.4946 90.0901 75.7257 81.6295 83.9805C73.1689 92.2353 61.8205 96.8618 50 96.875Z" fill="black"/>
</g>
<defs>
<clipPath id="clip0_559_3070">
<rect width="100" height="100" fill="white"/>
</clipPath>
</defs>
</svg>
