<svg width="100" height="100" viewBox="0 0 100 100" fill="none" xmlns="http://www.w3.org/2000/svg">
<path d="M87.5 6.25V29.6875C87.4844 29.7031 87.4531 29.7344 87.4375 29.75L76.5625 40.625H68.75C66.2031 40.625 63.9219 41.8594 62.5 43.75H40.625V53.125V62.5V71.875V81.25H59.375H68.75H75V87.5H34.375V40.625C34.375 32 27.375 25 18.75 25V20.0469C18.75 19.5937 18.8438 19.1562 19.0313 18.75H31.25C32.9688 18.75 34.375 17.3438 34.375 15.625V3.40625C34.7812 3.21875 35.2187 3.125 35.6719 3.125H84.375C86.0938 3.125 87.5 4.53125 87.5 6.25Z" fill="#E6E9ED"/>
<path d="M70.7031 70C69.9531 69.4062 69.3125 68.7031 68.8125 67.9219C68.25 67.1094 67.8281 66.2188 67.5625 65.2656H67.5469L60.9375 71.875L59.375 72.5L53.5937 74.8125C53.2812 74.9375 52.9531 75 52.625 75C51.1719 75 50 73.8281 50 72.375C50 72.2031 50.0156 72.0313 50.0469 71.875C50.0781 71.7187 50.125 71.5625 50.1875 71.4063L53.125 64.0625L54.6875 62.5L64.0625 53.125C62.3437 53.125 60.9375 51.7188 60.9375 50V48.4375C60.9375 46.6719 61.5156 45.0469 62.5 43.75H40.625V81.25H59.375H68.75H75V73.4375L70.7031 70Z" fill="#FFEAA7"/>
<path d="M40.625 9.375H81.25V15.625H40.625V9.375Z" fill="#FF826E"/>
<path d="M34.375 3.40625V15.625C34.375 17.3437 32.9687 18.75 31.25 18.75H19.0312C19.1875 18.4062 19.4062 18.0937 19.6719 17.8281L33.4531 4.04687C33.7187 3.78125 34.0312 3.5625 34.375 3.40625Z" fill="#B4DD7F"/>
<path d="M67.1875 50V62.6875C67.1875 63.5781 67.3125 64.4375 67.5625 65.2656H67.5469L60.9375 71.875L53.125 64.0625L54.6875 62.5L64.0625 53.125C64.9219 53.125 65.7031 52.7812 66.2656 52.2031C66.8437 51.6406 67.1875 50.8594 67.1875 50Z" fill="#FF826E"/>
<path d="M87.5 29.6875C88.5313 28.6875 89.9219 28.125 91.3438 28.125C92.875 28.125 94.25 28.75 95.25 29.75C96.25 30.75 96.875 32.125 96.875 33.6563C96.875 35.1094 96.2969 36.5156 95.25 37.5625L86.125 46.6875L73.4375 59.375V51.5625C73.4375 50.2656 72.9063 49.0937 72.0625 48.25C71.5312 47.7187 70.8594 47.3125 70.1094 47.0781L76.5625 40.625L87.4375 29.75C87.4531 29.7344 87.4844 29.7031 87.5 29.6875Z" fill="#FF826E"/>
<path d="M60.9375 71.875L59.375 72.5L53.5937 74.8125C53.2812 74.9375 52.9531 75 52.625 75C51.1719 75 50 73.8281 50 72.375C50 72.2031 50.0156 72.0313 50.0469 71.875C50.0781 71.7187 50.125 71.5625 50.1875 71.4063L53.125 64.0625L60.9375 71.875Z" fill="#AAB2BD"/>
<path d="M92.1875 68.75L95.3125 87.5H75V81.25V73.4375L92.1875 68.75Z" fill="#B4DD7F"/>
<path d="M66.2656 52.2031C65.7031 52.7812 64.9219 53.125 64.0625 53.125C62.3437 53.125 60.9375 51.7188 60.9375 50V48.4375C60.9375 46.6719 61.5156 45.0469 62.5 43.75C63.9219 41.8594 66.2031 40.625 68.75 40.625H76.5625L70.1094 47.0781C69.6875 46.9531 69.2188 46.875 68.75 46.875C67.8906 46.875 67.1875 47.5781 67.1875 48.4375V50C67.1875 50.8594 66.8437 51.6406 66.2656 52.2031Z" fill="#F0D0B4"/>
<path d="M86.9531 48.2031C90.3906 54.5156 92.1875 61.5781 92.1875 68.75L75 73.4375L70.7031 70C69.9531 69.4063 69.3125 68.7031 68.8125 67.9219C68.25 67.1094 67.8281 66.2188 67.5625 65.2656C67.3125 64.4375 67.1875 63.5781 67.1875 62.6875V50V48.4375C67.1875 47.5781 67.8906 46.875 68.75 46.875C69.2188 46.875 69.6875 46.9531 70.1094 47.0781C70.8594 47.3125 71.5312 47.7187 72.0625 48.25C72.9062 49.0938 73.4375 50.2656 73.4375 51.5625V59.375L86.125 46.6875L86.9531 48.2031Z" fill="#F0D0B4"/>
<path d="M34.375 40.625V87.5V90.625C34.375 94.0781 31.5781 96.875 28.125 96.875H9.375C5.92187 96.875 3.125 94.0781 3.125 90.625V40.625C3.125 45.7344 5.57812 50.2656 9.375 53.125V64.0625C9.375 64.9219 10.0781 65.625 10.9375 65.625H26.5625C27.4219 65.625 28.125 64.9219 28.125 64.0625V53.125C31.9219 50.2656 34.375 45.7344 34.375 40.625Z" fill="#969FAA"/>
<path d="M26.6844 90.5719H10.9766C10.1141 90.5719 9.41406 89.8719 9.41406 89.0094V73.4469C9.41406 72.5844 10.1141 71.8844 10.9766 71.8844H26.6828C27.5453 71.8844 28.2453 72.5844 28.2453 73.4469V89.0094C28.2469 89.8735 27.5469 90.5719 26.6844 90.5719Z" fill="#FF826E"/>
<path d="M28.125 53.125V64.0625C28.125 64.9219 27.4219 65.625 26.5625 65.625H10.9375C10.0781 65.625 9.375 64.9219 9.375 64.0625V53.125C11.9844 55.0781 15.2344 56.25 18.75 56.25C22.2656 56.25 25.5156 55.0781 28.125 53.125Z" fill="#69D6F4"/>
<path d="M34.375 40.625C34.375 45.7344 31.9219 50.2656 28.125 53.125C25.5156 55.0781 22.2656 56.25 18.75 56.25C15.2344 56.25 11.9844 55.0781 9.375 53.125C5.57812 50.2656 3.125 45.7344 3.125 40.625C3.125 32 10.125 25 18.75 25C27.375 25 34.375 32 34.375 40.625Z" fill="#FCD770"/>
<path d="M88.3219 47.4625L88.0531 46.9687L96.3625 38.6594C97.7 37.3219 98.4375 35.5422 98.4375 33.65C98.4375 29.7422 95.2578 26.5625 91.35 26.5625C90.5563 26.5625 89.7922 26.7203 89.0625 26.9688V6.25C89.0625 3.66562 86.9594 1.5625 84.375 1.5625H35.6703C34.4188 1.5625 33.2406 2.05 32.3547 2.93594L18.5609 16.7297C17.675 17.6141 17.1875 18.7922 17.1875 20.0453V23.5172C8.44062 24.3094 1.5625 31.675 1.5625 40.625V90.625C1.5625 94.9328 5.06719 98.4375 9.375 98.4375H28.125C32.4328 98.4375 35.9375 94.9328 35.9375 90.625V89.0625H73.4375H75H97.1578L93.7453 68.5875C93.7172 61.2266 91.8469 53.925 88.3219 47.4625ZM90.5875 67.5672L75.3547 71.7219L71.6812 68.7828C69.8187 67.2906 68.75 65.0672 68.75 62.6813V50V48.4375C70.4734 48.4375 71.875 49.8391 71.875 51.5625V62.5H75V60.0219L85.7406 49.2813C88.7453 54.9063 90.4031 61.1938 90.5875 67.5672ZM68.75 45.3125C67.0266 45.3125 65.625 46.7141 65.625 48.4375V50C65.625 50.8609 64.9234 51.5625 64.0625 51.5625C63.2016 51.5625 62.5 50.8609 62.5 50V48.4375C62.5 44.9906 65.3031 42.1875 68.75 42.1875H72.7906L69.5813 45.3969C69.3063 45.3594 69.0344 45.3125 68.75 45.3125ZM51.6391 71.9875L53.6953 66.8437L58.1563 71.3047L53.0109 73.3625C52.35 73.6312 51.5625 73.0984 51.5625 72.3797C51.5625 72.2438 51.5875 72.1125 51.6391 71.9875ZM60.9375 69.6656L55.3344 64.0625L64.7828 54.6141C65.075 54.5687 65.3547 54.4953 65.625 54.3984V62.6797C65.625 63.3891 65.7063 64.0828 65.8375 64.7641L60.9375 69.6656ZM59.6625 51.5625H42.1875V45.3125H59.9219C59.575 46.2922 59.375 47.3406 59.375 48.4375V50C59.375 50.55 59.4875 51.0719 59.6625 51.5625ZM42.1875 54.6875H60.2906L54.0406 60.9375H42.1875V54.6875ZM42.1875 64.0625H51.4422L48.9422 70.3125H42.1875V64.0625ZM42.1875 73.4375H48.5906C49.0625 75.2297 50.6828 76.5625 52.6219 76.5625C53.1578 76.5625 53.6813 76.4625 54.175 76.2641L57.8125 74.8078V79.6875H42.1875V73.4375ZM60.9375 73.5578L61.8156 73.2063L67.0187 68.0031C67.075 68.1047 67.1266 68.2078 67.1875 68.3078V79.6875H60.9375V73.5578ZM70.3125 71.6875L73.4375 74.1875V79.6875H70.3125V71.6875ZM95.3125 33.65C95.3125 34.7078 94.9 35.7031 94.1516 36.4516L75 55.6031V51.5625C75 49.6063 74.0781 47.8781 72.6656 46.7313L88.5484 30.8484C89.2969 30.1 90.2922 29.6875 91.35 29.6875C93.5344 29.6875 95.3125 31.4656 95.3125 33.65ZM32.8125 6.89688V15.625C32.8125 16.4859 32.1109 17.1875 31.25 17.1875H22.5219L32.8125 6.89688ZM18.75 26.5625C26.5031 26.5625 32.8125 32.8719 32.8125 40.625C32.8125 48.3781 26.5031 54.6875 18.75 54.6875C10.9969 54.6875 4.6875 48.3781 4.6875 40.625C4.6875 32.8719 10.9969 26.5625 18.75 26.5625ZM10.9375 55.9156C13.2844 57.1187 15.9359 57.8125 18.75 57.8125C21.5641 57.8125 24.2156 57.1187 26.5625 55.9156V64.0625H10.9375V55.9156ZM28.125 95.3125H9.375C6.79062 95.3125 4.6875 93.2094 4.6875 90.625V50.4766C5.57656 51.7422 6.62344 52.8891 7.8125 53.8734V64.0625C7.8125 65.7859 9.21406 67.1875 10.9375 67.1875H26.5625C28.2859 67.1875 29.6875 65.7859 29.6875 64.0625V53.8734C30.8766 52.8891 31.9234 51.7422 32.8125 50.4766V90.625C32.8125 93.2094 30.7094 95.3125 28.125 95.3125ZM35.9375 85.9375V40.625C35.9375 31.675 29.0594 24.3094 20.3125 23.5172V20.3125H31.25C33.8344 20.3125 35.9375 18.2094 35.9375 15.625V4.6875H84.375C85.2359 4.6875 85.9375 5.38906 85.9375 6.25V29.0406L75.9156 39.0625H68.75C65.9828 39.0625 63.5 40.275 61.7813 42.1875H39.0625V82.8125H73.4375V85.9375H35.9375ZM76.5625 85.9375V74.6312L90.9297 70.7125L93.4672 85.9375H76.5625Z" fill="black"/>
<path d="M17.1875 48.2109V51.5625H20.3125V48.2109C22.1172 47.6391 23.4375 45.9687 23.4375 43.9781C23.4375 42.2797 22.4937 40.75 20.9719 39.9891L17.925 38.4672C17.4703 38.2391 17.1875 37.7813 17.1875 37.2719C17.1875 36.5359 17.7859 35.9375 18.5219 35.9375H18.9781C19.7141 35.9375 20.3125 36.5359 20.3125 37.2719V39.0625H23.4375V37.2719C23.4375 35.2813 22.1172 33.6109 20.3125 33.0391V29.6875H17.1875V33.0391C15.3828 33.6109 14.0625 35.2813 14.0625 37.2719C14.0625 38.9703 15.0063 40.5 16.5281 41.2609L19.575 42.7828C20.0297 43.0109 20.3125 43.4687 20.3125 43.9781C20.3125 44.7141 19.7141 45.3125 18.9781 45.3125H18.5219C17.7859 45.3125 17.1875 44.7141 17.1875 43.9781V42.1875H14.0625V43.9781C14.0625 45.9687 15.3828 47.6391 17.1875 48.2109Z" fill="black"/>
<path d="M26.5625 70.3125H10.9375C9.21406 70.3125 7.8125 71.7141 7.8125 73.4375V89.0625C7.8125 90.7859 9.21406 92.1875 10.9375 92.1875H26.5625C28.2859 92.1875 29.6875 90.7859 29.6875 89.0625V73.4375C29.6875 71.7141 28.2859 70.3125 26.5625 70.3125ZM26.5625 76.5625H23.4375V73.4375H26.5625V76.5625ZM20.3125 89.0625H17.1875V85.9375H20.3125V89.0625ZM20.3125 82.8125H17.1875V79.6875H20.3125V82.8125ZM14.0625 82.8125H10.9375V79.6875H14.0625V82.8125ZM17.1875 76.5625V73.4375H20.3125V76.5625H17.1875ZM14.0625 73.4375V76.5625H10.9375V73.4375H14.0625ZM10.9375 85.9375H14.0625V89.0625H10.9375V85.9375ZM23.4375 89.0625V79.6875H26.5641L26.5656 89.0625H23.4375Z" fill="black"/>
<path d="M82.8125 7.8125H39.0625V17.1875H82.8125V7.8125ZM79.6875 14.0625H42.1875V10.9375H79.6875V14.0625Z" fill="black"/>
<path d="M39.0625 20.3125H82.8125V23.4375H39.0625V20.3125Z" fill="black"/>
<path d="M39.0625 26.5625H82.8125V29.6875H39.0625V26.5625Z" fill="black"/>
<path d="M39.0625 32.8125H64.0625V35.9375H39.0625V32.8125Z" fill="black"/>
</svg>
